<svg width="1663" height="317" viewBox="0 0 1663 317" fill="none" xmlns="http://www.w3.org/2000/svg">
<path d="M703.52 53.1152C703.52 53.1152 704.801 45.4421 715.205 45.0846C725.611 44.7309 726.582 40.185 726.582 40.185L726.221 34.7754C726.221 34.7754 728.383 32.6756 720.866 32.1807C713.351 31.6877 695.714 39.3797 698.692 46.6294C702.68 56.3609 703.52 53.1133 703.52 53.1133V53.1152Z" fill="#8943C2"/>
<path d="M698.474 44.039C698.474 44.039 697.312 49.108 698.715 55.6672C699.394 58.8621 707.506 64.9114 716.262 61.4211C716.262 61.4211 717.775 61.4399 718.98 57.6109C720.187 53.7856 720.962 50.7581 719.958 50.1184C719.958 50.1184 717.839 51.8476 714.216 51.9191C711.928 51.9642 710.379 51.539 706.525 50.3987C700.302 48.5623 698.102 45.676 698.476 44.0371L698.474 44.039Z" fill="#B459FF"/>
<path d="M726.349 33.6883C726.349 33.6883 728.234 34.7984 726.651 42.1818C725.92 45.5743 723.049 48.1972 719.582 48.3402C718.383 48.3872 716.948 48.3402 715.247 48.1351C706.303 47.0664 699.345 42.3511 698.969 37.9144C698.2 28.8922 699.452 25.0537 700.409 23.3848C700.409 23.3848 698.078 29.6222 706.517 34.3111C716.143 39.6567 726.954 37.8504 726.347 33.6883H726.349Z" fill="#B459FF"/>
<path d="M225.309 81.9972C225.309 81.9972 229.396 78.1418 235.535 82.4864C241.675 86.831 244.217 84.6389 244.217 84.6389L246.371 81.3706C246.371 81.3706 248.53 81.1072 244.424 77.5397C240.314 73.9722 226.815 70.6888 225.363 76.1586C223.412 83.5005 225.311 81.999 225.311 81.999L225.309 81.9972Z" fill="#8943C2"/>
<path d="M226.367 74.5683C226.367 74.5683 223.487 76.9749 221.432 81.3608C220.428 83.4964 222.455 90.5222 229.014 92.3398C229.014 92.3398 229.877 93.0116 232.239 91.3351C234.602 89.6624 236.369 88.2606 236.07 87.4534C236.07 87.4534 234.096 87.523 231.979 85.9782C230.644 85.0036 229.939 84.0835 228.219 81.7447C225.44 77.9683 225.433 75.3473 226.365 74.5664L226.367 74.5683Z" fill="#B459FF"/>
<path d="M246.917 80.7967C246.917 80.7967 247.518 82.2606 243.384 85.813C241.483 87.4462 238.687 87.7002 236.633 86.2664C235.922 85.7697 235.117 85.113 234.228 84.255C229.548 79.7317 227.604 73.9778 229.325 71.2608C232.82 65.7346 235.215 64.0732 236.493 63.5332C236.493 63.5332 232.431 66.1015 235.239 72.4876C238.443 79.7675 245.446 83.4554 246.917 80.7967Z" fill="#B459FF"/>
<path d="M637.332 123.592C637.332 123.592 635.175 120.687 629.576 120.203C623.977 119.724 620.621 122.497 614.393 117.178C614.393 117.178 617.483 123.562 624.03 124.414C630.574 125.267 634.761 122.913 638.552 127.248L637.332 123.594V123.592Z" fill="#B459FF"/>
<path d="M331.013 177.012C331.013 177.012 334.751 182.434 328.631 188.783C322.51 195.131 324.593 198.467 324.593 198.467L327.996 201.546C327.996 201.546 327.915 204.097 332.779 199.969C337.639 195.839 343.841 180.765 337.765 178.111C329.613 174.543 331.011 177.012 331.011 177.012H331.013Z" fill="#8943C2"/>
<path d="M339.425 179.562C339.425 179.562 337.15 175.793 332.437 172.63C330.143 171.087 321.65 172.186 318.377 179.471C318.377 179.471 317.447 180.352 318.966 183.391C320.483 186.429 321.793 188.725 322.78 188.524C322.78 188.524 323.051 186.222 325.215 184.044C326.58 182.668 327.772 182.013 330.786 180.437C335.653 177.887 338.688 178.344 339.425 179.564V179.562Z" fill="#B459FF"/>
<path d="M328.562 202.283C328.562 202.283 326.761 202.72 323.382 197.295C321.829 194.802 322.034 191.513 324.057 189.385C324.76 188.649 325.661 187.833 326.815 186.952C332.884 182.333 339.893 181.1 342.732 183.576C348.509 188.613 350.006 191.686 350.405 193.265C350.405 193.265 348.152 188.096 340.26 190.218C331.26 192.642 325.747 200.108 328.564 202.283H328.562Z" fill="#B459FF"/>
<path d="M431.967 242.647C431.967 242.647 433.646 246.542 439.905 248.602C446.163 250.659 450.736 248.399 456.414 256.148C456.414 256.148 454.605 248.029 447.365 245.295C440.125 242.561 434.717 244.115 431.557 238.148L431.967 242.649V242.647Z" fill="#B459FF"/>
<path d="M665.3 262.663C659.428 260.045 656.651 258.072 652.256 253.383C650.93 255.247 650.267 256.181 648.943 258.047C653.341 262.736 656.116 264.712 661.987 267.327C663.313 265.461 663.974 264.529 665.3 262.663Z" fill="#FF4F5D"/>
<path d="M249.276 26.7012C246.358 28.3099 244.672 28.8387 241.359 29.1868C241.714 30.3195 241.891 30.8839 242.246 32.0166C245.559 31.6704 247.246 31.1398 250.165 29.5311C249.808 28.3984 249.631 27.832 249.276 26.7012Z" fill="#FF4F5D"/>
<path d="M189.901 73.6733C197.034 74.8097 200.619 76.1494 206.752 79.9634C207.653 77.5512 208.1 76.3489 208.999 73.9367C202.866 70.1227 199.281 68.7849 192.149 67.6484C191.249 70.0587 190.801 71.263 189.903 73.6733H189.901Z" fill="#FF4F5D"/>
<path d="M512.965 186.014C514.857 196.5 514.742 202.143 512.422 212.54C516.21 212.619 518.103 212.657 521.892 212.736C524.21 202.336 524.327 196.692 522.435 186.207C518.647 186.13 516.752 186.093 512.965 186.012V186.014Z" fill="#FF4F5D"/>
<path d="M397.093 60.4121C392.737 65.3117 389.96 67.3966 384.049 70.2208C385.448 72.0855 386.149 73.0206 387.552 74.8852C393.464 72.0628 396.241 69.9743 400.598 65.0766C399.197 63.21 398.496 62.2786 397.095 60.4121H397.093Z" fill="#FF4F5D"/>
<path d="M264.287 107.379C258.806 115.031 255.159 118.429 247.139 123.354C249.421 125.807 250.56 127.034 252.843 129.487C260.859 124.562 264.509 121.161 269.989 113.511C267.709 111.059 266.569 109.831 264.287 107.379Z" fill="#FF4F5D"/>
<path d="M671.044 139.664C687.1 143.585 694.782 146.677 707.149 154.19C710.465 150.961 712.126 149.347 715.442 146.12C703.077 138.61 695.395 135.519 679.339 131.596C676.02 134.823 674.362 136.437 671.044 139.666V139.664Z" fill="#FF4F5D"/>
<path d="M363.097 26.4697C360.223 25.4611 358.835 24.6351 356.577 22.5898C356.022 23.5231 355.746 23.9879 355.191 24.9211C357.449 26.9683 358.839 27.7924 361.713 28.8028C362.268 27.8696 362.544 27.4048 363.097 26.4697Z" fill="#FFCB00"/>
<path d="M427.487 50.1162C429.814 50.9912 430.931 51.693 432.736 53.4034C433.206 52.6526 433.441 52.2782 433.909 51.5274C432.104 49.8171 430.987 49.1171 428.662 48.2422C428.192 48.9929 427.957 49.3674 427.488 50.1181L427.487 50.1162Z" fill="#FFCB00"/>
<path d="M393.876 44.1938C393.848 42.9181 393.966 42.252 394.435 41.0648C393.989 40.9839 393.763 40.9462 393.318 40.8672C392.85 42.0545 392.731 42.7205 392.759 43.9944C393.207 44.0753 393.431 44.1148 393.878 44.1938H393.876Z" fill="#FFCB00"/>
<path d="M855.87 106.638C850.034 107.238 846.942 106.937 841.333 105.225C841.132 107.304 841.031 108.342 840.829 110.422C846.438 112.134 849.532 112.433 855.366 111.835C855.567 109.755 855.669 108.715 855.87 106.636V106.638Z" fill="#FFCB00"/>
<path d="M222.991 41.5031C221.195 41.584 220.255 41.4373 218.569 40.8145C218.469 41.4467 218.42 41.7628 218.32 42.395C220.007 43.0178 220.947 43.1645 222.744 43.0855C222.844 42.4533 222.893 42.1372 222.991 41.5031Z" fill="#FFCB00"/>
<path d="M155.574 68.4314C158.043 69.8369 159.178 70.8285 160.908 73.0826C161.572 72.3187 161.904 71.9386 162.57 71.1747C160.838 68.9206 159.705 67.9309 157.234 66.5234C156.571 67.2874 156.24 67.6675 155.574 68.4314Z" fill="#FFCB00"/>
<path d="M225.467 114.988C227.935 116.395 229.069 117.385 230.801 119.639C231.464 118.875 231.797 118.495 232.461 117.731C230.731 115.477 229.595 114.488 227.127 113.08C226.463 113.842 226.13 114.224 225.467 114.988Z" fill="#FFCB00"/>
<path d="M559.278 46.3938C558.02 44.1547 557.131 43.1236 555.104 41.5487C555.796 40.9523 556.14 40.655 556.833 40.0566C558.86 41.6315 559.748 42.6626 561.005 44.8998C560.315 45.4963 559.969 45.7954 559.278 46.3919V46.3938Z" fill="#FFCB00"/>
<path d="M526.049 110.581C523.753 105.194 521.997 102.637 517.793 98.5636C519.512 97.3838 520.369 96.793 522.086 95.6133C526.288 99.6869 528.044 102.244 530.339 107.631C528.623 108.811 527.765 109.401 526.049 110.583V110.581Z" fill="#FFCB00"/>
<path d="M516.746 25.6952C516.699 24.523 516.552 23.919 516.054 22.8578C516.46 22.76 516.663 22.7092 517.068 22.6113C517.566 23.6725 517.711 24.2784 517.759 25.4488C517.353 25.5485 517.15 25.5974 516.746 25.6952Z" fill="#FFCB00"/>
<path d="M326.219 70.1487C329.009 65.4128 329.96 62.66 330.697 57.2109C332.544 57.8507 333.467 58.1705 335.315 58.8122C334.58 64.2593 333.627 67.0121 330.838 71.7499C328.992 71.1083 328.069 70.7903 326.219 70.1487Z" fill="#FFCB00"/>
<path d="M494.503 43.229C493.668 40.1168 492.908 38.5852 490.932 36.0413C491.959 35.5295 492.472 35.2755 493.499 34.7656C495.475 37.3114 496.234 38.8392 497.069 41.9533C496.044 42.4632 495.529 42.719 494.505 43.229H494.503Z" fill="#FFCB00"/>
<path d="M486.469 62.4068C483.57 60.3991 481.851 59.6596 478.401 58.9352C478.896 57.7818 479.144 57.2042 479.64 56.0508C483.092 56.7752 484.807 57.5146 487.708 59.5223C487.213 60.6757 486.965 61.2534 486.469 62.4068Z" fill="#FFCB00"/>
<path d="M604.699 51.2922C598.801 53.2942 595.947 54.9538 591.284 59.0876C590.171 57.1703 589.615 56.2107 588.502 54.2915C593.163 50.1576 596.017 48.4981 601.916 46.4961C603.029 48.4153 603.586 49.3749 604.699 51.2922Z" fill="#FFCB00"/>
<path d="M717.397 100.636C717.683 96.7539 717.426 94.7105 716.185 91.0226C717.559 90.8476 718.245 90.7611 719.618 90.5898C720.859 94.2777 721.116 96.323 720.83 100.203C719.458 100.376 718.772 100.462 717.399 100.636H717.397Z" fill="#FFCB00"/>
<path d="M755.185 70.1824C755.338 65.6929 754.699 63.4727 752.19 59.7509C754.584 59.0641 755.778 58.718 758.175 58.0293C760.683 61.7511 761.318 63.9713 761.17 68.4608C758.776 69.1494 757.579 69.4919 755.185 70.1824Z" fill="#FF4F5D"/>
<path d="M779.835 85.0945C780.538 84.3024 780.757 83.8056 780.864 82.752C781.401 82.989 781.67 83.1076 782.208 83.3447C782.101 84.3984 781.883 84.8951 781.178 85.6854C780.64 85.4483 780.373 85.3316 779.835 85.0945Z" fill="#FF4F5D"/>
<path d="M825.924 133.504C826.67 135.004 827.272 135.619 828.755 136.394C828.094 137.045 827.761 137.371 827.099 138.023C825.616 137.246 825.012 136.631 824.268 135.132C824.929 134.48 825.26 134.153 825.924 133.504Z" fill="#FF4F5D"/>
<path d="M860.247 176.379C860.687 175.647 860.787 175.22 860.713 174.369C861.176 174.475 861.405 174.529 861.866 174.636C861.939 175.487 861.839 175.916 861.401 176.646C860.941 176.539 860.708 176.488 860.247 176.379Z" fill="#FF4F5D"/>
<path d="M763.277 261.261C761.687 260.433 760.781 260.279 759.008 260.541C759.175 259.56 759.258 259.069 759.421 258.089C761.194 257.827 762.102 257.982 763.691 258.81C763.525 259.792 763.443 260.283 763.277 261.261Z" fill="#FF4F5D"/>
<path d="M680.946 254.875C681.544 255.5 681.937 255.712 682.79 255.865C682.561 256.288 682.448 256.499 682.223 256.924C681.371 256.77 680.976 256.557 680.376 255.934C680.604 255.511 680.717 255.3 680.946 254.875Z" fill="#FF4F5D"/>
<path d="M712.413 188.185C714.94 185.489 715.748 183.769 716.211 180.104C718.065 180.977 718.994 181.413 720.847 182.284C720.383 185.953 719.574 187.671 717.049 190.369C715.194 189.496 714.265 189.06 712.411 188.185H712.413Z" fill="#FF4F5D"/>
<path d="M747.639 115.859C744.913 114.655 743.388 114.499 740.472 115.125C740.641 113.477 740.726 112.655 740.897 111.009C743.809 110.382 745.334 110.54 748.06 111.744C747.892 113.391 747.808 114.213 747.639 115.859Z" fill="#FF4F5D"/>
<path d="M799.661 168.453C799.048 167.454 798.589 167.063 797.506 166.615C797.927 166.12 798.14 165.872 798.561 165.377C799.646 165.823 800.103 166.216 800.718 167.215C800.295 167.71 800.084 167.958 799.661 168.453Z" fill="#FF4F5D"/>
<path d="M795.188 195.991C791.439 196.183 789.636 196.869 786.713 199.223C785.972 197.276 785.6 196.303 784.859 194.354C787.782 192 789.586 191.311 793.333 191.123C794.073 193.069 794.446 194.043 795.186 195.991H795.188Z" fill="#FF4F5D"/>
<path d="M736.465 265.199C732.389 266.018 730.526 267.064 727.706 270.118C726.578 268.106 726.012 267.098 724.886 265.084C727.706 262.031 729.569 260.986 733.645 260.166C734.773 262.179 735.337 263.186 736.467 265.197L736.465 265.199Z" fill="#FF4F5D"/>
<path d="M712.528 308.584C711.62 309.721 711.355 310.423 711.283 311.875C710.529 311.589 710.151 311.446 709.397 311.162C709.465 309.708 709.73 309.008 710.642 307.871C711.394 308.157 711.774 308.298 712.528 308.586V308.584Z" fill="#FF4F5D"/>
<path d="M750.641 220.04C750.263 218.993 749.916 218.542 748.996 217.913C749.483 217.535 749.728 217.349 750.214 216.969C751.134 217.595 751.482 218.049 751.86 219.097C751.371 219.475 751.128 219.663 750.641 220.04Z" fill="#FF4F5D"/>
<path d="M685.443 219.034C686.412 218.189 686.754 217.622 687.043 216.371C687.652 216.738 687.957 216.922 688.57 217.289C688.28 218.541 687.94 219.107 686.974 219.952C686.363 219.585 686.056 219.399 685.445 219.032L685.443 219.034Z" fill="#FF4F5D"/>
<path d="M686.633 254.532C689.816 252.182 691.001 250.527 692.202 246.756C693.986 248.035 694.876 248.675 696.662 249.955C695.462 253.725 694.278 255.379 691.091 257.729C689.307 256.45 688.418 255.81 686.633 254.532Z" fill="#FF4F5D"/>
<path d="M635.724 239.685C633.776 241.314 633.081 242.418 632.46 244.881C631.268 244.131 630.67 243.756 629.479 243.005C630.103 240.544 630.795 239.436 632.744 237.809C633.936 238.557 634.534 238.932 635.726 239.683L635.724 239.685Z" fill="#FFCB00"/>
<path d="M573.756 255.155C578.189 254.167 580.201 252.982 583.209 249.582C584.488 251.753 585.129 252.841 586.407 255.012C583.397 258.412 581.386 259.6 576.954 260.587C575.674 258.412 575.035 257.328 573.756 255.155Z" fill="#FF4F5D"/>
<path d="M453.765 206.557C456.149 207.859 457.523 208.118 460.215 207.77C459.937 209.251 459.8 209.994 459.521 211.475C456.825 211.821 455.455 211.562 453.071 210.261C453.349 208.779 453.488 208.037 453.765 206.557Z" fill="#FFCB00"/>
<path d="M410.581 310.747C409.712 310.333 409.22 310.265 408.27 310.44C408.34 309.909 408.377 309.642 408.449 309.112C409.396 308.937 409.889 309.004 410.759 309.42C410.69 309.951 410.654 310.218 410.581 310.747Z" fill="#FF4F5D"/>
<path d="M378.873 226.229C377.83 222.009 376.649 220.11 373.329 217.309C375.376 216.033 376.401 215.399 378.446 214.123C381.768 216.928 382.947 218.825 383.991 223.047C381.943 224.319 380.919 224.957 378.873 226.231V226.229Z" fill="#FF4F5D"/>
<path d="M421.258 312.451C421.907 311.256 422.033 310.564 421.858 309.217C422.598 309.354 422.969 309.422 423.71 309.561C423.89 310.91 423.762 311.599 423.114 312.796C422.373 312.658 422.003 312.589 421.258 312.451Z" fill="#FF4F5D"/>
<path d="M400.987 245.824C401.628 247.928 402.278 248.854 404.029 250.18C403.03 250.88 402.532 251.228 401.532 251.928C399.78 250.602 399.133 249.676 398.488 247.574C399.486 246.874 399.986 246.524 400.987 245.826V245.824Z" fill="#FF4F5D"/>
<path d="M331.465 312.63C334.268 312.163 335.565 311.489 337.562 309.463C338.287 310.865 338.65 311.565 339.376 312.966C337.381 314.991 336.084 315.665 333.279 316.131C332.555 314.731 332.19 314.031 331.463 312.63H331.465Z" fill="#FF4F5D"/>
<path d="M218.659 260.114C222.528 259.059 224.256 257.926 226.77 254.799C227.99 256.662 228.601 257.595 229.819 259.458C227.303 262.585 225.578 263.718 221.708 264.775C220.488 262.912 219.879 261.979 218.659 260.114Z" fill="#FF4F5D"/>
<path d="M163.798 309.933C163.534 309.06 163.267 308.674 162.542 308.121C162.957 307.833 163.166 307.688 163.581 307.4C164.305 307.952 164.574 308.339 164.837 309.212C164.422 309.5 164.213 309.645 163.798 309.933Z" fill="#FF4F5D"/>
<path d="M131.639 243.443C132.436 245.368 133.128 246.185 134.901 247.276C134.023 248.027 133.583 248.403 132.703 249.152C130.932 248.061 130.236 247.244 129.439 245.319C130.317 244.569 130.759 244.194 131.639 243.443Z" fill="#FF4F5D"/>
<path d="M73.7486 228.668C71.3233 227.842 70.0035 227.823 67.5537 228.581C67.5725 227.157 67.5838 226.446 67.6045 225.023C70.0542 224.265 71.3722 224.286 73.7994 225.112C73.7787 226.536 73.7693 227.247 73.7486 228.67V228.668Z" fill="#FF4F5D"/>
<path d="M155.226 259.627C154.202 261.821 154.049 263.057 154.506 265.435C153.173 265.27 152.508 265.187 151.173 265.021C150.716 262.645 150.87 261.409 151.893 259.213C153.228 259.378 153.895 259.461 155.226 259.629V259.627Z" fill="#FF4F5D"/>
<path d="M88.7725 158.063C91.4008 155.438 92.2694 153.738 92.8579 150.07C94.6929 151.011 95.6085 151.48 97.4416 152.419C96.8531 156.086 95.9826 157.785 93.3561 160.41C91.5212 159.471 90.6056 159 88.7725 158.061V158.063Z" fill="#FF4F5D"/>
<path d="M429.173 46.7242C431.409 44.0279 432.076 42.3533 432.307 38.8555C434.112 39.5742 435.015 39.9336 436.821 40.6542C436.59 44.1502 435.925 45.8267 433.687 48.5249C431.88 47.8043 430.976 47.4468 429.173 46.7242Z" fill="#FF4F5D"/>
<path d="M296.331 63.8337C292.188 64.2363 290.227 65.0906 287.108 67.849C286.186 65.7303 285.726 64.671 284.806 62.5524C287.927 59.7921 289.888 58.9378 294.028 58.5352C294.949 60.6557 295.41 61.715 296.331 63.8337Z" fill="#FF4F5D"/>
<path d="M372.398 145.498C371.089 149.077 371.018 151.036 372.061 154.703C369.95 154.626 368.892 154.588 366.782 154.509C365.741 150.844 365.812 148.883 367.117 145.305C369.228 145.382 370.285 145.419 372.398 145.498Z" fill="#FF4F5D"/>
<path d="M139.627 312.483C139.283 308.829 138.537 307.094 136.115 304.337C137.984 303.53 138.918 303.126 140.789 302.32C143.209 305.079 143.959 306.812 144.301 310.466C142.432 311.273 141.498 311.676 139.629 312.483H139.627Z" fill="#FF4F5D"/>
<path d="M286.186 234.81C285.863 230.39 285.007 228.281 282.155 224.892C284.428 223.967 285.568 223.504 287.845 222.576C290.695 225.965 291.554 228.074 291.875 232.494C289.601 233.42 288.461 233.881 286.186 234.81Z" fill="#FF4F5D"/>
<path d="M531.259 149.756C528.499 146.93 526.699 145.983 522.808 145.315C523.828 143.374 524.336 142.403 525.355 140.461C529.247 141.129 531.044 142.075 533.804 144.901C532.787 146.843 532.276 147.814 531.259 149.756Z" fill="#FF4F5D"/>
<path d="M415.531 102.967C412.025 102.934 410.303 103.474 407.443 105.506C406.86 103.647 406.569 102.719 405.988 100.856C408.847 98.8261 410.57 98.2879 414.078 98.3218C414.661 100.181 414.95 101.108 415.533 102.966L415.531 102.967Z" fill="#FF4F5D"/>
<path d="M447.228 160.674C449.943 163.389 451.702 164.288 455.493 164.89C454.524 166.789 454.041 167.737 453.075 169.638C449.285 169.034 447.525 168.136 444.808 165.419C445.778 163.519 446.261 162.572 447.228 160.672V160.674Z" fill="#FF4F5D"/>
<path d="M425.434 197.682C423.647 199.848 423.117 201.191 422.942 203.993C421.495 203.419 420.771 203.133 419.323 202.561C419.5 199.761 420.03 198.418 421.814 196.252C423.262 196.824 423.986 197.11 425.435 197.684L425.434 197.682Z" fill="#FF4F5D"/>
<path d="M832.818 202.546C832.948 200.081 832.623 198.854 831.28 196.781C832.604 196.427 833.268 196.25 834.589 195.896C835.928 197.97 836.255 199.195 836.125 201.662C834.802 202.015 834.142 202.192 832.818 202.544V202.546Z" fill="#FF4F5D"/>
<path d="M405.926 166.605C401.822 165.267 399.603 165.264 395.497 166.59C395.497 164.195 395.501 162.998 395.504 160.599C399.612 159.273 401.829 159.277 405.933 160.612C405.93 163.008 405.93 164.208 405.926 166.603V166.605Z" fill="#FFCB00"/>
<path d="M569.793 198.17C566.768 196.418 565.014 196.042 561.536 196.401C561.944 194.503 562.147 193.555 562.553 191.66C566.029 191.302 567.785 191.677 570.808 193.43C570.4 195.327 570.197 196.277 569.793 198.172V198.17Z" fill="#FF4F5D"/>
<path d="M645.973 70.7852C643.468 74.4392 642.821 76.6218 642.934 81.051C640.579 80.3511 639.402 80.003 637.046 79.3031C636.935 74.8757 637.582 72.6912 640.086 69.0391C642.44 69.7371 643.621 70.0852 645.973 70.7833V70.7852Z" fill="#FF4F5D"/>
<path d="M495.146 160.029C493.125 159.539 492.058 159.619 490.137 160.409C490.051 159.257 490.005 158.681 489.919 157.53C491.842 156.74 492.908 156.659 494.929 157.15C495.016 158.301 495.059 158.875 495.147 160.027L495.146 160.029Z" fill="#FFCB00"/>
<path d="M424.55 127.57C425.825 130.462 426.904 131.672 429.63 133.264C428.323 134.432 427.671 135.018 426.364 136.184C423.64 134.592 422.557 133.383 421.284 130.492C422.589 129.324 423.243 128.741 424.55 127.57Z" fill="#FF4F5D"/>
<path d="M173.999 100.787C172.7 104.521 172.657 106.557 173.796 110.343C171.602 110.298 170.508 110.273 168.312 110.226C167.176 106.441 167.219 104.405 168.517 100.668C170.711 100.715 171.805 100.739 173.999 100.787Z" fill="#FF4F5D"/>
<path d="M87.1537 118.973C88.0824 121.831 88.9924 123.082 91.4196 124.847C90.0735 125.829 89.4004 126.318 88.0505 127.299C85.6214 125.534 84.7133 124.282 83.7845 121.424C85.1307 120.444 85.8056 119.953 87.1537 118.973Z" fill="#FFCB00"/>
<path d="M107.793 284.322C108.669 284.804 109.175 284.898 110.168 284.774C110.064 285.319 110.014 285.594 109.907 286.14C108.914 286.264 108.408 286.168 107.532 285.686C107.635 285.141 107.688 284.868 107.793 284.322Z" fill="#FF4F5D"/>
<path d="M104.319 184.148C104.187 186.931 104.563 188.316 106.09 190.649C104.599 191.056 103.851 191.259 102.36 191.667C100.833 189.334 100.457 187.951 100.589 185.166C102.08 184.76 102.824 184.555 104.317 184.148H104.319Z" fill="#FF4F5D"/>
<path d="M812.963 36.13C810.159 31.8889 808.116 30.2594 803.359 28.4719C805.117 26.2667 805.997 25.1622 807.753 22.957C812.508 24.7464 814.551 26.3759 817.354 30.6169C815.597 32.824 814.719 33.9247 812.963 36.1318V36.13Z" fill="#01B5D6"/>
<path d="M751.963 47.8603C754.518 46.084 755.484 44.8102 756.513 41.873C757.883 42.9173 758.571 43.4385 759.946 44.4866C758.919 47.4219 757.951 48.6975 755.396 50.4737C754.023 49.4276 753.337 48.9064 751.963 47.8603Z" fill="#01B5D6"/>
<path d="M778.935 270.26C778.942 268.734 778.702 267.989 777.814 266.749C778.619 266.493 779.021 266.363 779.828 266.105C780.717 267.344 780.956 268.091 780.95 269.615C780.145 269.874 779.741 270.002 778.935 270.26Z" fill="#01B5D6"/>
<path d="M820.321 161.203C817.071 164.851 816.061 167.152 815.568 172.014C813.087 170.921 811.85 170.376 809.368 169.282C809.86 164.422 810.872 162.119 814.123 158.471C816.602 159.564 817.843 160.111 820.321 161.203Z" fill="#01B5D6"/>
<path d="M793.69 136.158C795.809 138.704 797.249 139.613 800.458 140.429C799.477 141.984 798.988 142.763 798.008 144.317C794.801 143.498 793.359 142.589 791.242 140.044C792.221 138.489 792.71 137.711 793.692 136.158H793.69Z" fill="#01B5D6"/>
<path d="M780.95 235.573C779.677 236.456 779.194 237.088 778.681 238.55C777.998 238.029 777.658 237.769 776.976 237.248C777.487 235.786 777.97 235.152 779.243 234.27C779.927 234.793 780.268 235.052 780.95 235.573Z" fill="#01B5D6"/>
<path d="M387.08 124.424C385.5 124.723 384.776 125.122 383.677 126.292C383.248 125.509 383.034 125.118 382.605 124.335C383.707 123.165 384.432 122.768 386.008 122.467C386.438 123.25 386.651 123.641 387.08 124.424Z" fill="#01B5D6"/>
<path d="M245.275 135.748C246.763 139.235 248.043 140.704 251.292 142.655C249.707 144.038 248.913 144.729 247.33 146.11C244.082 144.159 242.801 142.689 241.314 139.203C242.899 137.82 243.69 137.129 245.277 135.746L245.275 135.748Z" fill="#01B5D6"/>
<path d="M212.186 212.494C214.224 215.446 215.688 216.566 219.071 217.761C217.862 219.341 217.258 220.131 216.051 221.714C212.669 220.521 211.204 219.4 209.166 216.449C210.373 214.867 210.977 214.077 212.186 212.496V212.494Z" fill="#01B5D6"/>
<path d="M69.0221 61.5273C70.0542 66.2068 71.3007 68.3312 74.8804 71.5148C72.5886 72.8601 71.4436 73.5337 69.1537 74.879C65.574 71.6973 64.3275 69.573 63.2953 64.8935C65.5852 63.5482 66.7321 62.8727 69.0221 61.5273Z" fill="#01B5D6"/>
<path d="M27.2858 80.824C25.3793 80.1222 24.334 80.0826 22.3768 80.6339C22.422 79.5069 22.4445 78.9424 22.4878 77.8153C24.4431 77.2622 25.4865 77.3036 27.3948 78.0035C27.3497 79.1306 27.3271 79.695 27.2839 80.824H27.2858Z" fill="#01B5D6"/>
<path d="M21.386 239.136C22.877 235.252 22.9916 233.115 21.9219 229.098C24.225 229.22 25.3756 229.282 27.6787 229.404C28.7485 233.423 28.6338 235.561 27.141 239.443C24.8398 239.32 23.6873 239.258 21.3842 239.136H21.386Z" fill="#01B5D6"/>
<path d="M343.106 252.742C342.896 257.79 343.591 260.291 346.377 264.502C343.678 265.253 342.33 265.629 339.632 266.38C336.845 262.169 336.15 259.666 336.362 254.62C339.06 253.867 340.41 253.491 343.106 252.74V252.742Z" fill="#01B5D6"/>
<path d="M685.697 82.0508C683.061 82.2634 681.805 82.7827 679.795 84.5025C679.233 83.1477 678.949 82.4704 678.387 81.1137C680.397 79.394 681.655 78.8728 684.289 78.6602C684.851 80.0168 685.133 80.696 685.695 82.0527L685.697 82.0508Z" fill="#01B5D6"/>
<path d="M631.189 182.257C634.145 182.581 635.643 182.27 638.227 180.799C638.561 182.415 638.73 183.224 639.063 184.84C636.48 186.316 634.983 186.626 632.026 186.302C631.693 184.684 631.526 183.877 631.189 182.259V182.257Z" fill="#01B5D6"/>
<path d="M836.573 239.075C841.012 239.942 843.32 239.662 847.423 237.754C847.726 240.249 847.878 241.494 848.179 243.989C844.078 245.895 841.768 246.176 837.329 245.308C837.026 242.813 836.874 241.568 836.573 239.075Z" fill="#01B5D6"/>
<path d="M321.917 99.6648C320.757 102.57 320.65 104.175 321.415 107.208C319.686 107.093 318.819 107.037 317.087 106.92C316.322 103.887 316.429 102.284 317.588 99.377C319.319 99.4917 320.186 99.5501 321.916 99.6648H321.917Z" fill="#01B5D6"/>
<path d="M528.6 247.223C529.741 251.031 530.901 252.713 534.058 255.127C532.244 256.38 531.337 257.009 529.525 258.262C526.368 255.85 525.206 254.168 524.067 250.359C525.88 249.106 526.786 248.478 528.6 247.225V247.223Z" fill="#01B5D6"/>
<path d="M267.131 295.16C263.988 293.438 262.175 293.094 258.622 293.545C258.992 291.59 259.179 290.612 259.549 288.657C263.102 288.205 264.913 288.551 268.056 290.273C267.686 292.228 267.502 293.203 267.13 295.16H267.131Z" fill="#01B5D6"/>
<path d="M4.3543 46.0058C7.1876 50.2262 9.24255 51.8425 14.0123 53.5961C12.2714 55.8145 11.4009 56.9246 9.65805 59.143C4.88825 57.3894 2.8333 55.775 0 51.5527C1.73909 49.3324 2.61145 48.2242 4.3543 46.0039V46.0058Z" fill="#01B5D6"/>
<path d="M72.3893 186.375C77.0651 188.432 79.6803 188.693 84.672 187.609C84.3899 190.432 84.2489 191.843 83.965 194.665C78.9734 195.749 76.3601 195.486 71.6824 193.431C71.9681 190.609 72.1092 189.197 72.3912 186.375H72.3893Z" fill="#01B5D6"/>
<path d="M159.784 208.317C156.586 207.79 154.937 208.042 152.04 209.495C151.767 207.715 151.632 206.827 151.363 205.047C154.262 203.592 155.909 203.342 159.111 203.867C159.379 205.647 159.515 206.537 159.784 208.317Z" fill="#01B5D6"/>
<path d="M720.533 271.149C721.838 268.846 722.109 267.517 721.817 264.889C723.252 265.184 723.97 265.333 725.407 265.628C725.7 268.255 725.425 269.587 724.122 271.886C722.686 271.591 721.968 271.442 720.533 271.149Z" fill="url(#paint0_linear_8_769)"/>
<path d="M821.697 298.492C825.772 297.602 827.625 296.518 830.4 293.402C831.568 295.402 832.153 296.402 833.32 298.404C830.543 301.518 828.691 302.599 824.617 303.493C823.45 301.491 822.865 300.492 821.697 298.492Z" fill="url(#paint1_linear_8_769)"/>
<path d="M499.857 316.989C499.252 312.166 498.193 309.905 494.875 306.356C497.315 305.212 498.536 304.638 500.974 303.494C504.292 307.041 505.351 309.304 505.956 314.127C503.518 315.271 502.299 315.843 499.857 316.989Z" fill="url(#paint2_linear_8_769)"/>
<path d="M586.721 167.718C586.169 162.622 585.087 160.219 581.654 156.422C584.245 155.258 585.541 154.674 588.133 153.51C591.568 157.309 592.647 159.713 593.202 164.805C590.609 165.97 589.316 166.551 586.721 167.718Z" fill="url(#paint3_linear_8_769)"/>
<path d="M480.731 126.336C482.902 130.626 484.645 132.38 488.919 134.577C487.027 136.459 486.082 137.401 484.19 139.281C479.917 137.083 478.176 135.332 476.003 131.038C477.894 129.156 478.84 128.218 480.731 126.336Z" fill="url(#paint4_linear_8_769)"/>
<path d="M175.614 156.544C180.728 156.493 183.223 155.656 187.335 152.611C188.237 155.302 188.688 156.649 189.589 159.344C185.479 162.388 182.984 163.225 177.868 163.276C176.966 160.584 176.516 159.238 175.614 156.544Z" fill="url(#paint5_linear_8_769)"/>
<path d="M169.645 127.633C169.667 130.848 170.19 132.414 172.093 135.005C170.402 135.567 169.556 135.848 167.864 136.412C165.962 133.823 165.441 132.254 165.416 129.04C167.107 128.478 167.951 128.195 169.643 127.633H169.645Z" fill="url(#paint6_linear_8_769)"/>
<path d="M136.299 95.3189C136.299 95.3189 139.699 93.0911 136.696 89.8472C136.696 89.8472 135.126 88.3063 122.766 89.025L119.125 92.1353L119.29 93.1344C118.991 92.9782 119.256 93.3451 121.729 93.3225C124.019 93.3037 130.853 92.8672 136.301 95.317L136.299 95.3189Z" fill="url(#paint7_linear_8_769)"/>
<path d="M121.823 104.594C121.823 104.594 121.492 106.011 123.269 109.612C123.269 109.612 123.532 107.16 126.953 105.519C130.373 103.882 137.407 100.985 138.473 97.169C138.473 97.169 138.839 96.1078 138.821 94.8433C138.804 93.641 138.157 90.9428 136.696 89.8496C136.696 89.8496 139.259 92.115 135.109 95.8763C132.938 97.8463 122.975 103.177 121.823 104.596V104.594Z" fill="url(#paint8_linear_8_769)"/>
<path d="M132.4 79.1539C132.4 79.1539 135.801 76.9261 132.797 73.6822C132.797 73.6822 131.225 72.1412 118.867 72.8618L115.752 74.5252L115.389 76.9693C115.09 76.8132 115.353 77.1801 117.827 77.1594C120.115 77.1406 126.952 76.7041 132.398 79.1539H132.4Z" fill="url(#paint9_linear_8_769)"/>
<path d="M117.925 88.4276C117.925 88.4276 117.594 89.8444 119.369 93.4439C119.369 93.4439 119.632 90.9903 123.054 89.3515C126.476 87.7145 133.509 84.8168 134.575 81.001C134.575 81.001 134.942 79.9398 134.923 78.6754C134.906 77.473 134.259 74.7748 132.799 73.6816C132.799 73.6816 135.361 75.9471 131.212 79.7084C129.038 81.6784 119.078 87.007 117.927 88.4276H117.925Z" fill="url(#paint10_linear_8_769)"/>
<path d="M113.99 72.0338C113.99 72.0338 113.659 73.4507 115.434 77.052C115.434 77.052 115.699 74.5984 119.119 72.9596C122.539 71.3226 129.572 68.425 130.638 64.6073L129.11 61.1094C128.747 61.7698 128.164 62.5074 127.277 63.3146C125.103 65.2846 115.143 70.6133 113.99 72.0338Z" fill="url(#paint11_linear_8_769)"/>
<path d="M487.855 38.1599C487.855 38.1599 485.997 39.4657 484.329 45.5C484.329 45.5 487.183 42.9184 492.867 44.5686C498.549 46.2169 509.741 50.1531 514.945 46.8208L516.793 41.1592C515.684 41.5505 514.244 41.8046 512.371 41.8177C507.799 41.8535 490.671 37.7046 487.855 38.1599Z" fill="url(#paint12_linear_8_769)"/>
<path d="M868.2 56.1454C868.2 56.1454 873.927 56.9093 873.708 50.6304C873.708 50.6304 873.447 47.5108 859.487 36.7914L852.682 36.75L851.931 37.9749C851.755 37.529 851.698 38.1687 854.377 40.4473C856.857 42.5566 864.613 48.4422 868.198 56.1454H868.2Z" fill="url(#paint13_linear_8_769)"/>
<path d="M844.022 52.6593C844.022 52.6593 842.349 53.8767 840.914 59.3972C840.914 59.3972 843.476 57.0038 848.677 58.4244C853.875 59.845 864.128 63.2695 868.818 60.1555C868.818 60.1555 870.198 59.3558 871.351 57.9785C872.451 56.6689 874.259 53.1654 873.705 50.6328C873.705 50.6328 874.355 55.4497 866.402 55.636C862.236 55.7338 846.575 52.2021 844.02 52.6574L844.022 52.6593Z" fill="url(#paint14_linear_8_769)"/>
<path d="M854.84 31.6476C854.84 31.6476 853.167 32.8631 851.734 38.3855C851.734 38.3855 854.297 35.994 859.497 37.4127C864.697 38.8333 874.949 42.2559 879.638 39.1457C879.638 39.1457 881.018 38.346 882.173 36.9668C883.271 35.6591 885.081 32.1556 884.525 29.6211C884.525 29.6211 885.175 34.4379 877.222 34.6242C873.058 34.7221 857.395 31.1903 854.84 31.6476Z" fill="url(#paint15_linear_8_769)"/>
<path d="M797.467 26.0215C797.467 26.0215 794.017 27.9501 796.707 31.3012C796.707 31.3012 798.127 32.9024 810.161 33.0511L813.905 30.2833L813.814 29.3049C814.094 29.4761 813.863 29.1016 811.46 28.9549C809.24 28.8156 802.583 28.7724 797.467 26.0234V26.0215Z" fill="url(#paint16_linear_8_769)"/>
<path d="M800.146 41.9609C800.146 41.9609 796.694 43.8896 799.386 47.2407C799.386 47.2407 800.804 48.8419 812.84 48.9887L815.976 47.5888L816.495 45.2406C816.774 45.4137 816.544 45.0411 814.141 44.8906C811.921 44.7532 805.264 44.7099 800.148 41.9609H800.146Z" fill="url(#paint17_linear_8_769)"/>
<path d="M814.815 33.9578C814.815 33.9578 815.234 32.6049 813.758 28.9941C813.758 28.9941 813.335 31.3555 809.904 32.7103C806.474 34.065 799.458 36.3944 798.163 40.0221C798.163 40.0221 797.736 41.025 797.666 42.2555C797.6 43.4221 798.044 46.0827 799.386 47.2436C799.386 47.2436 797.057 44.8728 801.338 41.5085C803.581 39.7474 813.604 35.2579 814.816 33.9596L814.815 33.9578Z" fill="url(#paint18_linear_8_769)"/>
<path d="M817.512 50.1238C817.512 50.1238 817.93 48.7728 816.456 45.1602C816.456 45.1602 816.031 47.5215 812.602 48.8763C809.172 50.231 802.156 52.5604 800.86 56.1881L802.105 59.686C802.504 59.0688 803.118 58.3933 804.034 57.6727C806.275 55.9115 816.3 51.4221 817.514 50.1238H817.512Z" fill="url(#paint19_linear_8_769)"/>
<path d="M1480.91 30.5253C1480.91 30.5253 1482.19 22.8523 1492.59 22.4948C1503 22.141 1503.97 17.5951 1503.97 17.5951L1503.61 12.1856C1503.61 12.1856 1505.77 10.0857 1498.25 9.59087C1490.74 9.0979 1473.1 16.7898 1476.08 24.0395C1480.07 33.7711 1480.91 30.5235 1480.91 30.5235V30.5253Z" fill="#8943C2"/>
<path d="M1475.86 21.4491C1475.86 21.4491 1474.7 26.5181 1476.1 33.0773C1476.78 36.2723 1484.89 42.3216 1493.65 38.8312C1493.65 38.8312 1495.16 38.85 1496.37 35.021C1497.57 31.1958 1498.35 28.1683 1497.34 27.5285C1497.34 27.5285 1495.23 29.2577 1491.6 29.3292C1489.31 29.3744 1487.77 28.9491 1483.91 27.8089C1477.69 25.9725 1475.49 23.0861 1475.86 21.4473L1475.86 21.4491Z" fill="#B459FF"/>
<path d="M1503.73 11.0985C1503.73 11.0985 1505.62 12.2086 1504.04 19.5919C1503.31 22.9844 1500.44 25.6074 1496.97 25.7504C1495.77 25.7974 1494.33 25.7503 1492.63 25.5452C1483.69 24.4765 1476.73 19.7613 1476.35 15.3245C1475.59 6.30233 1476.84 2.46388 1477.79 0.794922C1477.79 0.794922 1475.46 7.03238 1483.9 11.7213C1493.53 17.0668 1504.34 15.2605 1503.73 11.0985H1503.73Z" fill="#B459FF"/>
<path d="M1002.69 59.4073C1002.69 59.4073 1006.78 55.552 1012.92 59.8965C1019.06 64.2411 1021.6 62.0491 1021.6 62.0491L1023.76 58.7808C1023.76 58.7808 1025.92 58.5173 1021.81 54.9499C1017.7 51.3824 1004.2 48.099 1002.75 53.5688C1000.8 60.9107 1002.7 59.4092 1002.7 59.4092L1002.69 59.4073Z" fill="#8943C2"/>
<path d="M1003.75 51.9784C1003.75 51.9784 1000.87 54.385 998.818 58.771C997.814 60.9066 999.841 67.9324 1006.4 69.75C1006.4 69.75 1007.26 70.4217 1009.62 68.7452C1011.99 67.0725 1013.76 65.6707 1013.46 64.8635C1013.46 64.8635 1011.48 64.9332 1009.37 63.3884C1008.03 62.4137 1007.33 61.4936 1005.61 59.1548C1002.83 55.3785 1002.82 52.7574 1003.75 51.9766L1003.75 51.9784Z" fill="#B459FF"/>
<path d="M1024.3 58.2069C1024.3 58.2069 1024.9 59.6707 1020.77 63.2231C1018.87 64.8564 1016.07 65.1104 1014.02 63.6766C1013.31 63.1799 1012.5 62.5232 1011.61 61.6652C1006.93 57.1419 1004.99 51.388 1006.71 48.671C1010.21 43.1448 1012.6 41.4834 1013.88 40.9434C1013.88 40.9434 1009.82 43.5117 1012.63 49.8978C1015.83 57.1776 1022.83 60.8655 1024.3 58.2069Z" fill="#B459FF"/>
<path d="M1414.72 101.002C1414.72 101.002 1412.56 98.0971 1406.96 97.6135C1401.36 97.1337 1398.01 99.9071 1391.78 94.5879C1391.78 94.5879 1394.87 100.972 1401.42 101.824C1407.96 102.677 1412.15 100.323 1415.94 104.658L1414.72 101.004V101.002Z" fill="#B459FF"/>
<path d="M1108.4 154.422C1108.4 154.422 1112.14 159.845 1106.02 166.193C1099.9 172.541 1101.98 175.877 1101.98 175.877L1105.38 178.956C1105.38 178.956 1105.3 181.507 1110.16 177.379C1115.02 173.249 1121.23 158.176 1115.15 155.521C1107 151.953 1108.4 154.422 1108.4 154.422H1108.4Z" fill="#8943C2"/>
<path d="M1116.81 156.972C1116.81 156.972 1114.54 153.203 1109.82 150.04C1107.53 148.497 1099.04 149.596 1095.76 156.881C1095.76 156.881 1094.83 157.762 1096.35 160.801C1097.87 163.84 1099.18 166.135 1100.17 165.934C1100.17 165.934 1100.44 163.633 1102.6 161.454C1103.97 160.078 1105.16 159.423 1108.17 157.847C1113.04 155.297 1116.07 155.754 1116.81 156.974V156.972Z" fill="#B459FF"/>
<path d="M1105.95 179.693C1105.95 179.693 1104.15 180.13 1100.77 174.705C1099.22 172.212 1099.42 168.923 1101.44 166.795C1102.15 166.059 1103.05 165.243 1104.2 164.362C1110.27 159.743 1117.28 158.51 1120.12 160.987C1125.9 166.024 1127.39 169.096 1127.79 170.675C1127.79 170.675 1125.54 165.506 1117.65 167.629C1108.65 170.052 1103.13 177.518 1105.95 179.693H1105.95Z" fill="#B459FF"/>
<path d="M1209.35 220.057C1209.35 220.057 1211.03 223.952 1217.29 226.013C1223.55 228.069 1228.12 225.809 1233.8 233.558C1233.8 233.558 1231.99 225.439 1224.75 222.705C1217.51 219.971 1212.1 221.525 1208.94 215.559L1209.35 220.059V220.057Z" fill="#B459FF"/>
<path d="M1442.69 240.073C1436.81 237.456 1434.04 235.482 1429.64 230.793C1428.32 232.658 1427.65 233.591 1426.33 235.457C1430.73 240.146 1433.5 242.122 1439.37 244.737C1440.7 242.871 1441.36 241.939 1442.69 240.073Z" fill="#FF4F5D"/>
<path d="M1026.66 4.11133C1023.74 5.72008 1022.06 6.24882 1018.75 6.59691C1019.1 7.72962 1019.28 8.29408 1019.63 9.4268C1022.95 9.08058 1024.63 8.54999 1027.55 6.94123C1027.19 5.80852 1027.02 5.24216 1026.66 4.11133Z" fill="#FF4F5D"/>
<path d="M967.287 51.0834C974.42 52.2199 978.005 53.5596 984.138 57.3735C985.039 54.9613 985.486 53.7591 986.385 51.3469C980.252 47.5329 976.667 46.1951 969.536 45.0586C968.635 47.4689 968.188 48.6731 967.289 51.0834H967.287Z" fill="#FF4F5D"/>
<path d="M1290.35 163.424C1292.24 173.91 1292.13 179.553 1289.81 189.95C1293.6 190.029 1295.49 190.067 1299.28 190.146C1301.6 179.746 1301.71 174.102 1299.82 163.618C1296.03 163.54 1294.14 163.503 1290.35 163.422V163.424Z" fill="#FF4F5D"/>
<path d="M1174.48 37.8223C1170.12 42.7219 1167.35 44.8067 1161.44 47.631C1162.83 49.4956 1163.54 50.4307 1164.94 52.2954C1170.85 49.473 1173.63 47.3845 1177.98 42.4867C1176.58 40.6202 1175.88 39.6888 1174.48 37.8223H1174.48Z" fill="#FF4F5D"/>
<path d="M1041.67 84.7891C1036.19 92.4415 1032.55 95.8396 1024.52 100.764C1026.81 103.217 1027.95 104.444 1030.23 106.898C1038.25 101.972 1041.89 98.5716 1047.38 90.9211C1045.09 88.4694 1043.96 87.2408 1041.67 84.7891Z" fill="#FF4F5D"/>
<path d="M1448.43 117.074C1464.49 120.995 1472.17 124.087 1484.54 131.6C1487.85 128.371 1489.51 126.757 1492.83 123.53C1480.46 116.02 1472.78 112.929 1456.72 109.006C1453.41 112.233 1451.75 113.847 1448.43 117.076V117.074Z" fill="#FF4F5D"/>
<path d="M1140.48 3.87982C1137.61 2.87129 1136.22 2.04528 1133.96 0C1133.41 0.933264 1133.13 1.39802 1132.58 2.33128C1134.84 4.37844 1136.22 5.20258 1139.1 6.21298C1139.65 5.27972 1139.93 4.81497 1140.48 3.87982Z" fill="#FFCB00"/>
<path d="M1204.87 27.5264C1207.2 28.4013 1208.32 29.1032 1210.12 30.8135C1210.59 30.0628 1210.83 29.6883 1211.3 28.9376C1209.49 27.2272 1208.37 26.5273 1206.05 25.6523C1205.58 26.4031 1205.34 26.7775 1204.87 27.5283L1204.87 27.5264Z" fill="#FFCB00"/>
<path d="M1171.26 21.604C1171.23 20.3283 1171.35 19.6622 1171.82 18.4749C1171.38 18.394 1171.15 18.3564 1170.7 18.2773C1170.24 19.4646 1170.12 20.1307 1170.15 21.4045C1170.59 21.4854 1170.82 21.525 1171.26 21.604H1171.26Z" fill="#FFCB00"/>
<path d="M1633.26 84.0478C1627.42 84.6481 1624.33 84.347 1618.72 82.6348C1618.52 84.7139 1618.42 85.7526 1618.22 87.8317C1623.82 89.544 1626.92 89.8431 1632.75 89.2448C1632.95 87.1656 1633.06 86.1251 1633.26 84.046V84.0478Z" fill="#FFCB00"/>
<path d="M1000.38 18.9133C998.581 18.9942 997.641 18.8474 995.955 18.2246C995.855 18.8568 995.806 19.1729 995.706 19.8051C997.393 20.4279 998.333 20.5747 1000.13 20.4957C1000.23 19.8635 1000.28 19.5474 1000.38 18.9133Z" fill="#FFCB00"/>
<path d="M932.96 45.8415C935.429 47.2471 936.564 48.2387 938.294 50.4928C938.958 49.7289 939.291 49.3488 939.956 48.5849C938.225 46.3307 937.091 45.341 934.62 43.9336C933.957 44.6975 933.626 45.0776 932.96 45.8415Z" fill="#FFCB00"/>
<path d="M1002.85 92.3982C1005.32 93.8056 1006.46 94.7953 1008.19 97.0494C1008.85 96.2855 1009.18 95.9054 1009.85 95.1415C1008.12 92.8874 1006.98 91.8977 1004.51 90.4902C1003.85 91.2523 1003.52 91.6343 1002.85 92.3982Z" fill="#FFCB00"/>
<path d="M1336.66 23.8039C1335.41 21.5649 1334.52 20.5338 1332.49 18.9589C1333.18 18.3624 1333.53 18.0651 1334.22 17.4668C1336.25 19.0417 1337.13 20.0728 1338.39 22.31C1337.7 22.9064 1337.36 23.2056 1336.66 23.8021V23.8039Z" fill="#FFCB00"/>
<path d="M1303.43 87.9914C1301.14 82.6045 1299.38 80.0474 1295.18 75.9737C1296.9 74.794 1297.76 74.2032 1299.47 73.0234C1303.67 77.0971 1305.43 79.6541 1307.73 85.0411C1306.01 86.2208 1305.15 86.8116 1303.43 87.9933V87.9914Z" fill="#FFCB00"/>
<path d="M1294.13 3.1054C1294.09 1.93317 1293.94 1.32919 1293.44 0.267983C1293.85 0.17014 1294.05 0.119327 1294.45 0.0214844C1294.95 1.0827 1295.1 1.68858 1295.15 2.85892C1294.74 2.95865 1294.54 3.00756 1294.13 3.1054Z" fill="#FFCB00"/>
<path d="M1103.61 47.5588C1106.4 42.8229 1107.35 40.0702 1108.08 34.6211C1109.93 35.2608 1110.85 35.5807 1112.7 36.2223C1111.97 41.6695 1111.01 44.4223 1108.22 49.1601C1106.38 48.5185 1105.46 48.2005 1103.61 47.5588Z" fill="#FFCB00"/>
<path d="M1271.89 20.6391C1271.05 17.527 1270.29 15.9954 1268.32 13.4515C1269.35 12.9397 1269.86 12.6857 1270.88 12.1758C1272.86 14.7216 1273.62 16.2494 1274.46 19.3634C1273.43 19.8733 1272.92 20.1292 1271.89 20.6391H1271.89Z" fill="#FFCB00"/>
<path d="M1263.86 39.8169C1260.96 37.8093 1259.24 37.0698 1255.79 36.3454C1256.28 35.192 1256.53 34.6143 1257.03 33.4609C1260.48 34.1853 1262.19 34.9248 1265.09 36.9324C1264.6 38.0859 1264.35 38.6635 1263.86 39.8169Z" fill="#FFCB00"/>
<path d="M1382.08 28.7024C1376.19 30.7044 1373.33 32.3639 1368.67 36.4978C1367.56 34.5804 1367 33.6208 1365.89 31.7016C1370.55 27.5678 1373.4 25.9083 1379.3 23.9062C1380.42 25.8255 1380.97 26.7851 1382.08 28.7024Z" fill="#FFCB00"/>
<path d="M1494.78 78.0457C1495.07 74.164 1494.81 72.1206 1493.57 68.4327C1494.95 68.2577 1495.63 68.1712 1497 68C1498.24 71.6879 1498.5 73.7331 1498.22 77.613C1496.84 77.7861 1496.16 77.8726 1494.79 78.0457H1494.78Z" fill="#FFCB00"/>
<path d="M1532.57 47.5926C1532.72 43.1031 1532.08 40.8828 1529.58 37.1611C1531.97 36.4743 1533.16 36.1281 1535.56 35.4395C1538.07 39.1612 1538.7 41.3815 1538.56 45.8709C1536.16 46.5596 1534.96 46.902 1532.57 47.5926Z" fill="#FF4F5D"/>
<path d="M1557.22 62.5047C1557.92 61.7125 1558.14 61.2158 1558.25 60.1621C1558.79 60.3992 1559.06 60.5178 1559.59 60.7548C1559.49 61.8085 1559.27 62.3052 1558.56 63.0955C1558.03 62.8584 1557.76 62.7417 1557.22 62.5047Z" fill="#FF4F5D"/>
<path d="M1603.31 110.914C1604.06 112.414 1604.66 113.029 1606.14 113.804C1605.48 114.455 1605.15 114.781 1604.49 115.434C1603 114.657 1602.4 114.041 1601.65 112.542C1602.32 111.891 1602.65 111.563 1603.31 110.914Z" fill="#FF4F5D"/>
<path d="M1637.63 153.789C1638.07 153.057 1638.17 152.63 1638.1 151.779C1638.56 151.885 1638.79 151.939 1639.25 152.047C1639.33 152.897 1639.23 153.326 1638.79 154.056C1638.33 153.949 1638.09 153.898 1637.63 153.789Z" fill="#FF4F5D"/>
<path d="M1540.66 238.671C1539.07 237.844 1538.17 237.689 1536.39 237.951C1536.56 236.971 1536.64 236.479 1536.81 235.499C1538.58 235.238 1539.49 235.392 1541.08 236.22C1540.91 237.202 1540.83 237.693 1540.66 238.671Z" fill="#FF4F5D"/>
<path d="M1458.33 232.285C1458.93 232.91 1459.32 233.122 1460.18 233.275C1459.95 233.698 1459.83 233.909 1459.61 234.334C1458.76 234.18 1458.36 233.967 1457.76 233.344C1457.99 232.921 1458.1 232.71 1458.33 232.285Z" fill="#FF4F5D"/>
<path d="M1489.8 165.595C1492.33 162.899 1493.13 161.179 1493.6 157.514C1495.45 158.387 1496.38 158.823 1498.23 159.694C1497.77 163.363 1496.96 165.081 1494.44 167.78C1492.58 166.906 1491.65 166.47 1489.8 165.595H1489.8Z" fill="#FF4F5D"/>
<path d="M1525.02 93.2694C1522.3 92.0652 1520.77 91.909 1517.86 92.5356C1518.03 90.8873 1518.11 90.0651 1518.28 88.4187C1521.2 87.7921 1522.72 87.9502 1525.45 89.1544C1525.28 90.8008 1525.19 91.623 1525.02 93.2694Z" fill="#FF4F5D"/>
<path d="M1577.05 145.863C1576.43 144.864 1575.98 144.473 1574.89 144.025C1575.31 143.53 1575.53 143.282 1575.95 142.787C1577.03 143.233 1577.49 143.626 1578.1 144.625C1577.68 145.12 1577.47 145.369 1577.05 145.863Z" fill="#FF4F5D"/>
<path d="M1572.57 173.401C1568.83 173.593 1567.02 174.28 1564.1 176.633C1563.36 174.686 1562.99 173.713 1562.25 171.764C1565.17 169.41 1566.97 168.721 1570.72 168.533C1571.46 170.479 1571.83 171.453 1572.57 173.401H1572.57Z" fill="#FF4F5D"/>
<path d="M1513.85 242.609C1509.78 243.428 1507.91 244.474 1505.09 247.528C1503.96 245.516 1503.4 244.508 1502.27 242.495C1505.09 239.441 1506.96 238.397 1511.03 237.576C1512.16 239.589 1512.72 240.596 1513.85 242.608L1513.85 242.609Z" fill="#FF4F5D"/>
<path d="M1489.91 285.994C1489.01 287.131 1488.74 287.833 1488.67 289.285C1487.92 288.999 1487.54 288.856 1486.78 288.572C1486.85 287.118 1487.12 286.418 1488.03 285.281C1488.78 285.567 1489.16 285.708 1489.91 285.996V285.994Z" fill="#FF4F5D"/>
<path d="M1528.03 197.45C1527.65 196.404 1527.3 195.952 1526.38 195.323C1526.87 194.945 1527.11 194.759 1527.6 194.379C1528.52 195.005 1528.87 195.459 1529.25 196.507C1528.76 196.885 1528.51 197.073 1528.03 197.45Z" fill="#FF4F5D"/>
<path d="M1462.83 196.444C1463.8 195.599 1464.14 195.033 1464.43 193.781C1465.04 194.148 1465.34 194.333 1465.96 194.699C1465.67 195.951 1465.33 196.517 1464.36 197.362C1463.75 196.995 1463.44 196.809 1462.83 196.442L1462.83 196.444Z" fill="#FF4F5D"/>
<path d="M1464.02 231.943C1467.2 229.592 1468.39 227.937 1469.59 224.166C1471.37 225.445 1472.26 226.085 1474.05 227.365C1472.85 231.135 1471.66 232.789 1468.48 235.139C1466.69 233.86 1465.8 233.22 1464.02 231.943Z" fill="#FF4F5D"/>
<path d="M1413.11 217.095C1411.16 218.724 1410.47 219.829 1409.85 222.292C1408.65 221.541 1408.06 221.166 1406.86 220.416C1407.49 217.955 1408.18 216.846 1410.13 215.219C1411.32 215.968 1411.92 216.342 1413.11 217.093L1413.11 217.095Z" fill="#FFCB00"/>
<path d="M1351.14 232.565C1355.58 231.578 1357.59 230.392 1360.6 226.992C1361.87 229.164 1362.51 230.251 1363.79 232.422C1360.78 235.822 1358.77 237.01 1354.34 237.998C1353.06 235.822 1352.42 234.739 1351.14 232.565Z" fill="#FF4F5D"/>
<path d="M1231.15 183.967C1233.53 185.269 1234.91 185.529 1237.6 185.18C1237.32 186.661 1237.19 187.404 1236.91 188.885C1234.21 189.231 1232.84 188.972 1230.46 187.672C1230.74 186.189 1230.87 185.448 1231.15 183.967Z" fill="#FFCB00"/>
<path d="M1187.97 288.157C1187.1 287.743 1186.61 287.675 1185.66 287.85C1185.73 287.32 1185.76 287.052 1185.83 286.522C1186.78 286.347 1187.28 286.415 1188.15 286.83C1188.08 287.361 1188.04 287.628 1187.97 288.157Z" fill="#FF4F5D"/>
<path d="M1156.26 203.639C1155.22 199.419 1154.03 197.52 1150.71 194.719C1152.76 193.443 1153.79 192.809 1155.83 191.533C1159.15 194.339 1160.33 196.235 1161.38 200.458C1159.33 201.73 1158.3 202.367 1156.26 203.641V203.639Z" fill="#FF4F5D"/>
<path d="M1198.64 289.861C1199.29 288.667 1199.42 287.974 1199.24 286.627C1199.98 286.764 1200.35 286.832 1201.1 286.971C1201.28 288.32 1201.15 289.009 1200.5 290.206C1199.76 290.068 1199.39 289.999 1198.64 289.861Z" fill="#FF4F5D"/>
<path d="M1178.37 223.234C1179.01 225.338 1179.66 226.264 1181.41 227.59C1180.42 228.29 1179.92 228.638 1178.92 229.338C1177.17 228.012 1176.52 227.086 1175.87 224.984C1176.87 224.284 1177.37 223.934 1178.37 223.236V223.234Z" fill="#FF4F5D"/>
<path d="M1108.85 290.04C1111.65 289.573 1112.95 288.9 1114.95 286.873C1115.67 288.275 1116.04 288.975 1116.76 290.377C1114.77 292.401 1113.47 293.075 1110.66 293.541C1109.94 292.141 1109.58 291.441 1108.85 290.04H1108.85Z" fill="#FF4F5D"/>
<path d="M996.045 237.524C999.914 236.469 1001.64 235.336 1004.16 232.209C1005.38 234.072 1005.99 235.005 1007.21 236.868C1004.69 239.995 1002.96 241.128 999.094 242.185C997.874 240.322 997.265 239.389 996.045 237.524Z" fill="#FF4F5D"/>
<path d="M941.184 287.343C940.921 286.47 940.654 286.084 939.928 285.531C940.343 285.243 940.552 285.098 940.968 284.811C941.691 285.362 941.96 285.749 942.223 286.623C941.808 286.91 941.599 287.055 941.184 287.343Z" fill="#FF4F5D"/>
<path d="M909.025 220.854C909.822 222.778 910.514 223.595 912.287 224.686C911.409 225.437 910.969 225.813 910.089 226.562C908.318 225.471 907.622 224.654 906.825 222.729C907.703 221.979 908.145 221.604 909.025 220.854Z" fill="#FF4F5D"/>
<path d="M851.135 206.078C848.709 205.252 847.39 205.233 844.94 205.991C844.959 204.567 844.97 203.856 844.991 202.433C847.44 201.675 848.758 201.696 851.185 202.522C851.165 203.946 851.155 204.657 851.135 206.08V206.078Z" fill="#FF4F5D"/>
<path d="M932.612 237.037C931.588 239.231 931.435 240.467 931.892 242.845C930.559 242.68 929.894 242.597 928.559 242.431C928.102 240.055 928.256 238.819 929.279 236.623C930.614 236.789 931.281 236.871 932.612 237.039V237.037Z" fill="#FF4F5D"/>
<path d="M866.159 135.473C868.787 132.849 869.656 131.148 870.244 127.48C872.079 128.421 872.995 128.89 874.828 129.829C874.239 133.496 873.369 135.195 870.742 137.82C868.907 136.881 867.992 136.41 866.159 135.472V135.473Z" fill="#FF4F5D"/>
<path d="M1206.56 24.1344C1208.79 21.4381 1209.46 19.7635 1209.69 16.2656C1211.5 16.9844 1212.4 17.3438 1214.21 18.0644C1213.98 21.5604 1213.31 23.2369 1211.07 25.9351C1209.27 25.2144 1208.36 24.8569 1206.56 24.1344Z" fill="#FF4F5D"/>
<path d="M1073.72 41.2438C1069.57 41.6465 1067.61 42.5007 1064.49 45.2591C1063.57 43.1405 1063.11 42.0812 1062.19 39.9625C1065.31 37.2022 1067.27 36.348 1071.41 35.9453C1072.34 38.0659 1072.8 39.1252 1073.72 41.2438Z" fill="#FF4F5D"/>
<path d="M1149.78 122.909C1148.48 126.487 1148.4 128.446 1149.45 132.113C1147.34 132.036 1146.28 131.999 1144.17 131.92C1143.13 128.254 1143.2 126.294 1144.5 122.715C1146.61 122.792 1147.67 122.83 1149.78 122.909Z" fill="#FF4F5D"/>
<path d="M917.013 289.893C916.669 286.239 915.923 284.504 913.501 281.748C915.37 280.94 916.304 280.536 918.175 279.73C920.595 282.489 921.345 284.222 921.687 287.876C919.818 288.683 918.884 289.086 917.015 289.893H917.013Z" fill="#FF4F5D"/>
<path d="M1063.57 212.22C1063.25 207.801 1062.39 205.691 1059.54 202.303C1061.81 201.377 1062.95 200.914 1065.23 199.986C1068.08 203.375 1068.94 205.484 1069.26 209.904C1066.99 210.83 1065.85 211.291 1063.57 212.22Z" fill="#FF4F5D"/>
<path d="M1308.64 127.166C1305.88 124.34 1304.09 123.394 1300.19 122.726C1301.21 120.784 1301.72 119.813 1302.74 117.871C1306.63 118.539 1308.43 119.486 1311.19 122.312C1310.17 124.253 1309.66 125.224 1308.64 127.166Z" fill="#FF4F5D"/>
<path d="M1192.92 80.3776C1189.41 80.3437 1187.69 80.8837 1184.83 82.9158C1184.25 81.0568 1183.95 80.1292 1183.37 78.2664C1186.23 76.2362 1187.96 75.6981 1191.46 75.7319C1192.05 77.591 1192.34 78.5186 1192.92 80.3757L1192.92 80.3776Z" fill="#FF4F5D"/>
<path d="M1224.61 138.084C1227.33 140.799 1229.09 141.698 1232.88 142.301C1231.91 144.199 1231.43 145.147 1230.46 147.048C1226.67 146.444 1224.91 145.546 1222.19 142.829C1223.16 140.929 1223.65 139.982 1224.61 138.082V138.084Z" fill="#FF4F5D"/>
<path d="M1202.82 175.092C1201.03 177.258 1200.5 178.601 1200.33 181.403C1198.88 180.829 1198.16 180.543 1196.71 179.971C1196.89 177.171 1197.42 175.828 1199.2 173.662C1200.65 174.234 1201.37 174.52 1202.82 175.094L1202.82 175.092Z" fill="#FF4F5D"/>
<path d="M1610.2 179.956C1610.33 177.491 1610.01 176.264 1608.67 174.191C1609.99 173.837 1610.65 173.66 1611.98 173.307C1613.31 175.38 1613.64 176.605 1613.51 179.072C1612.19 179.426 1611.53 179.602 1610.2 179.954V179.956Z" fill="#FF4F5D"/>
<path d="M1183.31 144.015C1179.21 142.678 1176.99 142.674 1172.88 144C1172.88 141.605 1172.89 140.408 1172.89 138.009C1177 136.683 1179.22 136.687 1183.32 138.023C1183.32 140.418 1183.32 141.618 1183.31 144.014V144.015Z" fill="#FFCB00"/>
<path d="M1347.18 175.58C1344.15 173.829 1342.4 173.452 1338.92 173.812C1339.33 171.913 1339.53 170.965 1339.94 169.07C1343.42 168.713 1345.17 169.087 1348.19 170.841C1347.79 172.737 1347.58 173.687 1347.18 175.582V175.58Z" fill="#FF4F5D"/>
<path d="M1423.36 48.1953C1420.85 51.8494 1420.21 54.032 1420.32 58.4612C1417.96 57.7613 1416.79 57.4132 1414.43 56.7132C1414.32 52.2858 1414.97 50.1014 1417.47 46.4492C1419.83 47.1473 1421.01 47.4954 1423.36 48.1934V48.1953Z" fill="#FF4F5D"/>
<path d="M1272.53 137.439C1270.51 136.95 1269.44 137.029 1267.52 137.819C1267.44 136.667 1267.39 136.092 1267.31 134.94C1269.23 134.15 1270.29 134.069 1272.32 134.56C1272.4 135.712 1272.45 136.285 1272.53 137.437L1272.53 137.439Z" fill="#FFCB00"/>
<path d="M1201.94 104.98C1203.21 107.872 1204.29 109.082 1207.02 110.674C1205.71 111.843 1205.06 112.428 1203.75 113.594C1201.03 112.003 1199.94 110.793 1198.67 107.903C1199.98 106.734 1200.63 106.151 1201.94 104.98Z" fill="#FF4F5D"/>
<path d="M951.385 78.1967C950.086 81.9316 950.043 83.9675 951.182 87.7532C948.988 87.7081 947.894 87.6836 945.698 87.6366C944.562 83.8508 944.606 81.8149 945.903 78.0781C948.097 78.1252 949.191 78.1496 951.385 78.1967Z" fill="#FF4F5D"/>
<path d="M864.54 96.3828C865.469 99.2409 866.379 100.492 868.806 102.257C867.46 103.239 866.786 103.729 865.437 104.709C863.008 102.944 862.099 101.693 861.171 98.8345C862.517 97.8542 863.192 97.3631 864.54 96.3828Z" fill="#FFCB00"/>
<path d="M885.179 261.732C886.056 262.214 886.561 262.308 887.554 262.184C887.451 262.73 887.4 263.004 887.293 263.55C886.3 263.674 885.794 263.578 884.918 263.097C885.022 262.551 885.074 262.278 885.179 261.732Z" fill="#FF4F5D"/>
<path d="M881.705 161.559C881.573 164.341 881.95 165.726 883.476 168.059C881.985 168.466 881.237 168.669 879.746 169.077C878.219 166.744 877.843 165.361 877.975 162.577C879.466 162.17 880.21 161.965 881.703 161.559H881.705Z" fill="#FF4F5D"/>
<path d="M1590.35 13.5401C1587.55 9.29903 1585.5 7.66959 1580.75 5.88209C1582.5 3.67688 1583.38 2.5724 1585.14 0.367188C1589.89 2.15657 1591.94 3.78601 1594.74 8.0271C1592.98 10.2342 1592.1 11.3349 1590.35 13.542V13.5401Z" fill="#01B5D6"/>
<path d="M1529.35 25.2704C1531.9 23.4942 1532.87 22.2204 1533.9 19.2832C1535.27 20.3275 1535.96 20.8487 1537.33 21.8967C1536.31 24.832 1535.34 26.1077 1532.78 27.8839C1531.41 26.8377 1530.72 26.3166 1529.35 25.2704Z" fill="#01B5D6"/>
<path d="M1556.32 247.67C1556.33 246.144 1556.09 245.399 1555.2 244.159C1556 243.903 1556.41 243.773 1557.21 243.516C1558.1 244.754 1558.34 245.501 1558.34 247.025C1557.53 247.284 1557.13 247.412 1556.32 247.67Z" fill="#01B5D6"/>
<path d="M1597.71 138.613C1594.46 142.261 1593.45 144.562 1592.95 149.424C1590.47 148.331 1589.24 147.786 1586.75 146.692C1587.25 141.832 1588.26 139.529 1591.51 135.881C1593.99 136.974 1595.23 137.522 1597.71 138.613Z" fill="#01B5D6"/>
<path d="M1571.08 113.568C1573.19 116.114 1574.63 117.023 1577.84 117.84C1576.86 119.394 1576.37 120.173 1575.39 121.727C1572.19 120.908 1570.74 120 1568.63 117.454C1569.61 115.9 1570.1 115.121 1571.08 113.568H1571.08Z" fill="#01B5D6"/>
<path d="M1558.34 212.984C1557.06 213.866 1556.58 214.498 1556.07 215.96C1555.38 215.439 1555.04 215.179 1554.36 214.658C1554.87 213.196 1555.36 212.562 1556.63 211.68C1557.31 212.203 1557.65 212.462 1558.34 212.984Z" fill="#01B5D6"/>
<path d="M1164.47 101.834C1162.89 102.133 1162.16 102.532 1161.06 103.702C1160.63 102.919 1160.42 102.528 1159.99 101.745C1161.09 100.575 1161.82 100.178 1163.39 99.877C1163.82 100.66 1164.04 101.051 1164.47 101.834Z" fill="#01B5D6"/>
<path d="M1022.66 113.158C1024.15 116.645 1025.43 118.114 1028.68 120.065C1027.09 121.448 1026.3 122.139 1024.72 123.52C1021.47 121.569 1020.19 120.099 1018.7 116.613C1020.29 115.23 1021.08 114.539 1022.66 113.156L1022.66 113.158Z" fill="#01B5D6"/>
<path d="M989.572 189.904C991.61 192.856 993.074 193.976 996.457 195.171C995.248 196.751 994.644 197.542 993.437 199.124C990.055 197.931 988.59 196.81 986.552 193.859C987.759 192.277 988.363 191.487 989.572 189.906V189.904Z" fill="#01B5D6"/>
<path d="M846.408 38.9375C847.44 43.617 848.687 45.7413 852.267 48.9249C849.975 50.2703 848.83 50.9439 846.54 52.2892C842.96 49.1074 841.714 46.9832 840.681 42.3037C842.971 40.9583 844.118 40.2828 846.408 38.9375Z" fill="#01B5D6"/>
<path d="M804.672 58.2341C802.765 57.5323 801.72 57.4928 799.763 58.0441C799.808 56.917 799.831 56.3526 799.874 55.2255C801.829 54.6723 802.873 54.7137 804.781 55.4137C804.736 56.5407 804.713 57.1052 804.67 58.2341H804.672Z" fill="#01B5D6"/>
<path d="M798.772 216.546C800.263 212.662 800.378 210.525 799.308 206.508C801.611 206.63 802.762 206.692 805.065 206.814C806.135 210.834 806.02 212.971 804.527 216.853C802.226 216.73 801.073 216.668 798.77 216.546H798.772Z" fill="#01B5D6"/>
<path d="M1120.49 230.152C1120.28 235.201 1120.98 237.701 1123.76 241.912C1121.06 242.663 1119.72 243.039 1117.02 243.79C1114.23 239.579 1113.54 237.076 1113.75 232.03C1116.45 231.277 1117.8 230.901 1120.49 230.15V230.152Z" fill="#01B5D6"/>
<path d="M1463.08 59.4609C1460.45 59.6735 1459.19 60.1929 1457.18 61.9126C1456.62 60.5579 1456.34 59.8805 1455.77 58.5239C1457.78 56.8041 1459.04 56.2829 1461.67 56.0703C1462.24 57.4269 1462.52 58.1062 1463.08 59.4628L1463.08 59.4609Z" fill="#01B5D6"/>
<path d="M1408.58 159.667C1411.53 159.991 1413.03 159.68 1415.61 158.209C1415.95 159.825 1416.12 160.634 1416.45 162.251C1413.87 163.726 1412.37 164.036 1409.41 163.713C1409.08 162.094 1408.91 161.287 1408.58 159.669V159.667Z" fill="#01B5D6"/>
<path d="M1613.96 216.485C1618.4 217.352 1620.71 217.072 1624.81 215.164C1625.11 217.659 1625.26 218.905 1625.56 221.4C1621.46 223.306 1619.15 223.586 1614.71 222.719C1614.41 220.224 1614.26 218.978 1613.96 216.485Z" fill="#01B5D6"/>
<path d="M1547.8 288.164C1546.58 290.038 1546.27 291.152 1546.38 293.389C1545.18 293.062 1544.58 292.9 1543.38 292.575C1543.28 290.336 1543.58 289.224 1544.8 287.348C1546 287.673 1546.6 287.837 1547.8 288.164Z" fill="#01B5D6"/>
<path d="M1099.3 77.075C1098.14 79.9802 1098.04 81.5851 1098.8 84.6182C1097.07 84.5035 1096.21 84.447 1094.47 84.3303C1093.71 81.2972 1093.82 79.6942 1094.97 76.7871C1096.71 76.9019 1097.57 76.9602 1099.3 77.075H1099.3Z" fill="#01B5D6"/>
<path d="M1305.99 224.633C1307.13 228.441 1308.29 230.123 1311.44 232.537C1309.63 233.79 1308.72 234.419 1306.91 235.672C1303.75 233.26 1302.59 231.578 1301.45 227.769C1303.27 226.516 1304.17 225.888 1305.99 224.635V224.633Z" fill="#01B5D6"/>
<path d="M1044.52 272.57C1041.37 270.848 1039.56 270.504 1036.01 270.955C1036.38 269 1036.56 268.022 1036.94 266.067C1040.49 265.615 1042.3 265.962 1045.44 267.683C1045.07 269.638 1044.89 270.613 1044.52 272.57H1044.52Z" fill="#01B5D6"/>
<path d="M781.74 23.4159C784.574 27.6363 786.629 29.2526 791.398 31.0063C789.657 33.2246 788.787 34.3348 787.044 36.5532C782.274 34.7995 780.219 33.1851 777.386 28.9628C779.125 26.7426 779.998 25.6343 781.74 23.4141V23.4159Z" fill="#01B5D6"/>
<path d="M849.775 163.785C854.451 165.842 857.066 166.103 862.058 165.019C861.776 167.842 861.635 169.253 861.351 172.075C856.359 173.159 853.746 172.896 849.068 170.841C849.354 168.019 849.495 166.608 849.777 163.785H849.775Z" fill="#01B5D6"/>
<path d="M937.17 185.727C933.972 185.2 932.323 185.453 929.426 186.905C929.153 185.125 929.018 184.237 928.749 182.457C931.648 181.003 933.295 180.752 936.497 181.277C936.765 183.057 936.901 183.947 937.17 185.727Z" fill="#01B5D6"/>
<path d="M1497.92 248.559C1499.22 246.256 1499.49 244.927 1499.2 242.299C1500.64 242.594 1501.36 242.743 1502.79 243.038C1503.09 245.665 1502.81 246.997 1501.51 249.296C1500.07 249.001 1499.35 248.852 1497.92 248.559Z" fill="url(#paint20_linear_8_769)"/>
<path d="M1599.08 275.902C1603.16 275.012 1605.01 273.928 1607.79 270.812C1608.95 272.813 1609.54 273.812 1610.71 275.814C1607.93 278.928 1606.08 280.01 1602 280.903C1600.84 278.901 1600.25 277.902 1599.08 275.902Z" fill="url(#paint21_linear_8_769)"/>
<path d="M1277.24 294.399C1276.64 289.577 1275.58 287.315 1272.26 283.766C1274.7 282.622 1275.92 282.048 1278.36 280.904C1281.68 284.451 1282.74 286.715 1283.34 291.537C1280.9 292.681 1279.69 293.253 1277.24 294.399Z" fill="url(#paint22_linear_8_769)"/>
<path d="M1364.11 145.128C1363.55 140.032 1362.47 137.63 1359.04 133.833C1361.63 132.668 1362.93 132.085 1365.52 130.92C1368.95 134.719 1370.03 137.124 1370.59 142.215C1368 143.38 1366.7 143.961 1364.11 145.128Z" fill="url(#paint23_linear_8_769)"/>
<path d="M1258.12 103.746C1260.29 108.036 1262.03 109.79 1266.3 111.987C1264.41 113.869 1263.47 114.812 1261.58 116.691C1257.3 114.494 1255.56 112.742 1253.39 108.448C1255.28 106.567 1256.23 105.628 1258.12 103.746Z" fill="url(#paint24_linear_8_769)"/>
<path d="M953 133.954C958.114 133.903 960.609 133.066 964.721 130.021C965.623 132.712 966.074 134.059 966.975 136.754C962.865 139.798 960.37 140.635 955.254 140.686C954.352 137.994 953.903 136.648 953 133.954Z" fill="url(#paint25_linear_8_769)"/>
<path d="M947.031 105.043C947.053 108.259 947.576 109.824 949.479 112.415C947.789 112.978 946.942 113.258 945.25 113.822C943.348 111.233 942.827 109.664 942.803 106.45C944.493 105.888 945.337 105.606 947.029 105.043H947.031Z" fill="url(#paint26_linear_8_769)"/>
<path d="M913.686 72.7291C913.686 72.7291 917.085 70.5013 914.082 67.2574C914.082 67.2574 912.512 65.7164 900.153 66.4352L896.511 69.5454L896.676 70.5445C896.377 70.3884 896.642 70.7553 899.115 70.7327C901.405 70.7139 908.239 70.2774 913.687 72.7272L913.686 72.7291Z" fill="url(#paint27_linear_8_769)"/>
<path d="M899.209 82.0039C899.209 82.0039 898.878 83.4207 900.655 87.022C900.655 87.022 900.918 84.5703 904.34 82.9296C907.759 81.2926 914.793 78.395 915.859 74.5791C915.859 74.5791 916.226 73.5179 916.207 72.2535C916.19 71.0512 915.543 68.353 914.082 67.2598C914.082 67.2598 916.645 69.5252 912.495 73.2865C910.324 75.2565 900.361 80.587 899.209 82.0057V82.0039Z" fill="url(#paint28_linear_8_769)"/>
<path d="M909.786 56.564C909.786 56.564 913.187 54.3362 910.183 51.0924C910.183 51.0924 908.611 49.5513 896.253 50.272L893.138 51.9353L892.775 54.3795C892.476 54.2233 892.739 54.5902 895.214 54.5695C897.502 54.5507 904.338 54.1142 909.784 56.564H909.786Z" fill="url(#paint29_linear_8_769)"/>
<path d="M895.311 65.8377C895.311 65.8377 894.98 67.2546 896.755 70.8541C896.755 70.8541 897.018 68.4005 900.44 66.7616C903.862 65.1246 910.895 62.227 911.961 58.4111C911.961 58.4111 912.328 57.3499 912.309 56.0855C912.292 54.8832 911.646 52.185 910.185 51.0918C910.185 51.0918 912.747 53.3572 908.598 57.1185C906.425 59.0885 896.464 64.4171 895.313 65.8377H895.311Z" fill="url(#paint30_linear_8_769)"/>
<path d="M891.376 49.444C891.376 49.444 891.045 50.8608 892.82 54.4622C892.82 54.4622 893.085 52.0086 896.505 50.3697C899.925 48.7328 906.958 45.8351 908.024 42.0174L906.496 38.5195C906.133 39.18 905.55 39.9175 904.663 40.7247C902.489 42.6948 892.529 48.0234 891.376 49.444Z" fill="url(#paint31_linear_8_769)"/>
<path d="M1265.24 15.5701C1265.24 15.5701 1263.38 16.8759 1261.72 22.9101C1261.72 22.9101 1264.57 20.3286 1270.25 21.9788C1275.93 23.627 1287.13 27.5633 1292.33 24.231L1294.18 18.5693C1293.07 18.9607 1291.63 19.2147 1289.76 19.2279C1285.18 19.2636 1268.06 15.1147 1265.24 15.5701Z" fill="url(#paint32_linear_8_769)"/>
<path d="M1645.59 33.5555C1645.59 33.5555 1651.31 34.3194 1651.09 28.0406C1651.09 28.0406 1650.83 24.9209 1636.87 14.2015L1630.07 14.1602L1629.32 15.3851C1629.14 14.9391 1629.08 15.5789 1631.76 17.8575C1634.24 19.9667 1642 25.8523 1645.58 33.5555H1645.59Z" fill="url(#paint33_linear_8_769)"/>
<path d="M1621.41 30.0694C1621.41 30.0694 1619.73 31.2868 1618.3 36.8074C1618.3 36.8074 1620.86 34.414 1626.06 35.8346C1631.26 37.2552 1641.51 40.6797 1646.2 37.5657C1646.2 37.5657 1647.58 36.766 1648.74 35.3887C1649.84 34.0791 1651.65 30.5756 1651.09 28.043C1651.09 28.043 1651.74 32.8598 1643.79 33.0461C1639.62 33.144 1623.96 29.6122 1621.41 30.0676L1621.41 30.0694Z" fill="url(#paint34_linear_8_769)"/>
<path d="M1632.23 9.05772C1632.23 9.05772 1630.55 10.2732 1629.12 15.7957C1629.12 15.7957 1631.68 13.4042 1636.88 14.8229C1642.08 16.2435 1652.34 19.6661 1657.02 16.5558C1657.02 16.5558 1658.4 15.7561 1659.56 14.377C1660.66 13.0693 1662.47 9.56574 1661.91 7.03125C1661.91 7.03125 1662.56 11.8481 1654.61 12.0344C1650.44 12.1322 1634.78 8.60049 1632.23 9.05772Z" fill="url(#paint35_linear_8_769)"/>
<path d="M1565.2 248.751C1565.2 248.751 1570.4 249.46 1570.22 243.763C1570.22 243.763 1569.99 240.931 1557.35 231.166L1551.18 231.109L1550.49 232.221C1550.33 231.815 1550.28 232.396 1552.7 234.472C1554.95 236.393 1561.97 241.755 1565.2 248.753V248.751Z" fill="#53BA00"/>
<path d="M1543.27 245.523C1543.27 245.523 1541.75 246.622 1540.43 251.629C1540.43 251.629 1542.77 249.465 1547.48 250.767C1552.2 252.071 1561.49 255.206 1565.75 252.393C1565.75 252.393 1567.01 251.67 1568.06 250.422C1569.06 249.237 1570.71 246.063 1570.22 243.762C1570.22 243.762 1570.79 248.135 1563.58 248.283C1559.8 248.36 1545.59 245.113 1543.27 245.521V245.523Z" fill="#65E200"/>
<path d="M1575.07 229.713C1575.07 229.713 1580.27 230.424 1580.09 224.723C1580.09 224.723 1579.86 221.893 1567.22 212.127L1562.78 211.107L1560.36 213.181C1560.2 212.776 1560.15 213.356 1562.58 215.431C1564.82 217.352 1571.84 222.715 1575.07 229.713Z" fill="#53BA00"/>
<path d="M1553.14 226.484C1553.14 226.484 1551.62 227.583 1550.3 232.589C1550.3 232.589 1552.64 230.426 1557.35 231.728C1562.07 233.03 1571.36 236.164 1575.63 233.351C1575.63 233.351 1576.88 232.629 1577.93 231.381C1578.93 230.198 1580.59 227.022 1580.09 224.721C1580.09 224.721 1580.66 229.095 1573.44 229.244C1569.66 229.319 1555.46 226.074 1553.14 226.482L1553.14 226.484Z" fill="#65E200"/>
<path d="M1563.17 207.191C1563.17 207.191 1561.65 208.292 1560.33 213.297C1560.33 213.297 1562.67 211.133 1567.38 212.435C1572.1 213.738 1581.39 216.874 1585.66 214.061L1587.13 209.361C1586.21 209.694 1585.02 209.922 1583.48 209.954C1579.7 210.031 1565.49 206.785 1563.17 207.191Z" fill="#65E200"/>
<path d="M1574.85 3.43164C1574.85 3.43164 1571.4 5.36027 1574.09 8.71137C1574.09 8.71137 1575.51 10.3126 1587.55 10.4612L1591.29 7.69343L1591.2 6.71501C1591.48 6.88624 1591.25 6.51181 1588.85 6.36504C1586.63 6.22581 1579.97 6.18251 1574.85 3.43352V3.43164Z" fill="url(#paint36_linear_8_769)"/>
<path d="M1577.53 19.3711C1577.53 19.3711 1574.08 21.2997 1576.77 24.6508C1576.77 24.6508 1578.19 26.2521 1590.23 26.3988L1593.36 24.9989L1593.88 22.6507C1594.16 22.8238 1593.93 22.4513 1591.53 22.3007C1589.31 22.1634 1582.65 22.1201 1577.53 19.3711H1577.53Z" fill="url(#paint37_linear_8_769)"/>
<path d="M1592.2 11.3679C1592.2 11.3679 1592.62 10.0151 1591.14 6.4043C1591.14 6.4043 1590.72 8.76568 1587.29 10.1204C1583.86 11.4752 1576.84 13.8046 1575.55 17.4322C1575.55 17.4322 1575.12 18.4351 1575.05 19.6657C1574.99 20.8323 1575.43 23.4928 1576.77 24.6538C1576.77 24.6538 1574.44 22.283 1578.72 18.9187C1580.97 17.1575 1590.99 12.6681 1592.2 11.3698L1592.2 11.3679Z" fill="url(#paint38_linear_8_769)"/>
<path d="M1594.9 27.5339C1594.9 27.5339 1595.32 26.1829 1593.84 22.5703C1593.84 22.5703 1593.42 24.9317 1589.99 26.2864C1586.56 27.6412 1579.54 29.9706 1578.25 33.5983L1579.49 37.0961C1579.89 36.479 1580.5 35.8035 1581.42 35.0828C1583.66 33.3217 1593.69 28.8322 1594.9 27.5339H1594.9Z" fill="url(#paint39_linear_8_769)"/>
<defs>
<linearGradient id="paint0_linear_8_769" x1="720.533" y1="268.388" x2="725.514" y2="268.388" gradientUnits="userSpaceOnUse">
<stop stop-color="#CE38BF"/>
<stop offset="0.73" stop-color="#E051CA"/>
<stop offset="1" stop-color="#E85CCF"/>
</linearGradient>
<linearGradient id="paint1_linear_8_769" x1="821.697" y1="298.449" x2="833.318" y2="298.449" gradientUnits="userSpaceOnUse">
<stop stop-color="#CE38BF"/>
<stop offset="0.73" stop-color="#E051CA"/>
<stop offset="1" stop-color="#E85CCF"/>
</linearGradient>
<linearGradient id="paint2_linear_8_769" x1="494.875" y1="310.242" x2="505.956" y2="310.242" gradientUnits="userSpaceOnUse">
<stop stop-color="#CE38BF"/>
<stop offset="0.73" stop-color="#E051CA"/>
<stop offset="1" stop-color="#E85CCF"/>
</linearGradient>
<linearGradient id="paint3_linear_8_769" x1="585.035" y1="153.273" x2="590.434" y2="167.032" gradientUnits="userSpaceOnUse">
<stop stop-color="#CE38BF"/>
<stop offset="0.73" stop-color="#E051CA"/>
<stop offset="1" stop-color="#E85CCF"/>
</linearGradient>
<linearGradient id="paint4_linear_8_769" x1="476.582" y1="127.273" x2="490.073" y2="141.564" gradientUnits="userSpaceOnUse">
<stop stop-color="#CE38BF"/>
<stop offset="0.73" stop-color="#E051CA"/>
<stop offset="1" stop-color="#E85CCF"/>
</linearGradient>
<linearGradient id="paint5_linear_8_769" x1="175.614" y1="157.944" x2="189.589" y2="157.944" gradientUnits="userSpaceOnUse">
<stop stop-color="#CE38BF"/>
<stop offset="0.73" stop-color="#E051CA"/>
<stop offset="1" stop-color="#E85CCF"/>
</linearGradient>
<linearGradient id="paint6_linear_8_769" x1="168.002" y1="130.816" x2="170.825" y2="136.872" gradientUnits="userSpaceOnUse">
<stop stop-color="#CE38BF"/>
<stop offset="0.73" stop-color="#E051CA"/>
<stop offset="1" stop-color="#E85CCF"/>
</linearGradient>
<linearGradient id="paint7_linear_8_769" x1="119.32" y1="93.8176" x2="137.705" y2="90.806" gradientUnits="userSpaceOnUse">
<stop stop-color="#5C5894"/>
<stop offset="0.47" stop-color="#6862C1"/>
<stop offset="1" stop-color="#7E78E1"/>
</linearGradient>
<linearGradient id="paint8_linear_8_769" x1="121.123" y1="103.885" x2="141.35" y2="94.3431" gradientUnits="userSpaceOnUse">
<stop stop-color="#7E78E1"/>
<stop offset="0.09" stop-color="#7068DC"/>
<stop offset="0.18" stop-color="#6661B8"/>
<stop offset="0.26" stop-color="#6560B6"/>
<stop offset="0.29" stop-color="#635EAF"/>
<stop offset="0.3" stop-color="#625DA9"/>
<stop offset="0.31" stop-color="#6661B9"/>
<stop offset="0.32" stop-color="#6B65CA"/>
<stop offset="0.34" stop-color="#6F68D6"/>
<stop offset="0.36" stop-color="#716ADD"/>
<stop offset="0.43" stop-color="#726BDF"/>
<stop offset="0.49" stop-color="#716ADD"/>
<stop offset="0.51" stop-color="#6E67D6"/>
<stop offset="0.52" stop-color="#6A63CA"/>
<stop offset="0.53" stop-color="#6A63C8"/>
<stop offset="0.58" stop-color="#6B64C9"/>
<stop offset="0.61" stop-color="#726BCE"/>
<stop offset="0.62" stop-color="#7D77D6"/>
<stop offset="0.63" stop-color="#8E88E2"/>
<stop offset="0.64" stop-color="#948EE7"/>
<stop offset="0.69" stop-color="#928CE6"/>
<stop offset="0.71" stop-color="#8B85E4"/>
<stop offset="0.72" stop-color="#7E78E1"/>
<stop offset="0.9" stop-color="#645EB1"/>
<stop offset="1" stop-color="#5F5A9C"/>
</linearGradient>
<linearGradient id="paint9_linear_8_769" x1="115.42" y1="77.6533" x2="133.806" y2="74.6417" gradientUnits="userSpaceOnUse">
<stop stop-color="#5C5894"/>
<stop offset="0.47" stop-color="#6862C1"/>
<stop offset="1" stop-color="#7E78E1"/>
</linearGradient>
<linearGradient id="paint10_linear_8_769" x1="117.222" y1="87.72" x2="137.45" y2="78.1777" gradientUnits="userSpaceOnUse">
<stop stop-color="#7E78E1"/>
<stop offset="0.09" stop-color="#7068DC"/>
<stop offset="0.18" stop-color="#6661B8"/>
<stop offset="0.26" stop-color="#6560B6"/>
<stop offset="0.29" stop-color="#635EAF"/>
<stop offset="0.3" stop-color="#625DA9"/>
<stop offset="0.31" stop-color="#6661B9"/>
<stop offset="0.32" stop-color="#6B65CA"/>
<stop offset="0.34" stop-color="#6F68D6"/>
<stop offset="0.36" stop-color="#716ADD"/>
<stop offset="0.43" stop-color="#726BDF"/>
<stop offset="0.49" stop-color="#716ADD"/>
<stop offset="0.51" stop-color="#6E67D6"/>
<stop offset="0.52" stop-color="#6A63CA"/>
<stop offset="0.53" stop-color="#6A63C8"/>
<stop offset="0.58" stop-color="#6B64C9"/>
<stop offset="0.61" stop-color="#726BCE"/>
<stop offset="0.62" stop-color="#7D77D6"/>
<stop offset="0.63" stop-color="#8E88E2"/>
<stop offset="0.64" stop-color="#948EE7"/>
<stop offset="0.69" stop-color="#928CE6"/>
<stop offset="0.71" stop-color="#8B85E4"/>
<stop offset="0.72" stop-color="#7E78E1"/>
<stop offset="0.9" stop-color="#645EB1"/>
<stop offset="1" stop-color="#5F5A9C"/>
</linearGradient>
<linearGradient id="paint11_linear_8_769" x1="114.005" y1="72.9584" x2="132.456" y2="64.2538" gradientUnits="userSpaceOnUse">
<stop stop-color="#7E78E1"/>
<stop offset="0.09" stop-color="#7068DC"/>
<stop offset="0.18" stop-color="#6661B8"/>
<stop offset="0.26" stop-color="#6560B6"/>
<stop offset="0.29" stop-color="#635EAF"/>
<stop offset="0.3" stop-color="#625DA9"/>
<stop offset="0.31" stop-color="#6661B9"/>
<stop offset="0.32" stop-color="#6B65CA"/>
<stop offset="0.34" stop-color="#6F68D6"/>
<stop offset="0.36" stop-color="#716ADD"/>
<stop offset="0.43" stop-color="#726BDF"/>
<stop offset="0.49" stop-color="#716ADD"/>
<stop offset="0.51" stop-color="#6E67D6"/>
<stop offset="0.52" stop-color="#6A63CA"/>
<stop offset="0.53" stop-color="#6A63C8"/>
<stop offset="0.58" stop-color="#6B64C9"/>
<stop offset="0.61" stop-color="#726BCE"/>
<stop offset="0.62" stop-color="#7D77D6"/>
<stop offset="0.63" stop-color="#8E88E2"/>
<stop offset="0.64" stop-color="#948EE7"/>
<stop offset="0.69" stop-color="#928CE6"/>
<stop offset="0.71" stop-color="#8B85E4"/>
<stop offset="0.72" stop-color="#7E78E1"/>
<stop offset="0.9" stop-color="#645EB1"/>
<stop offset="1" stop-color="#5F5A9C"/>
</linearGradient>
<linearGradient id="paint12_linear_8_769" x1="486.882" y1="39.2223" x2="517.403" y2="48.2364" gradientUnits="userSpaceOnUse">
<stop stop-color="#7E78E1"/>
<stop offset="0.09" stop-color="#7068DC"/>
<stop offset="0.18" stop-color="#6661B8"/>
<stop offset="0.26" stop-color="#6560B6"/>
<stop offset="0.29" stop-color="#635EAF"/>
<stop offset="0.3" stop-color="#625DA9"/>
<stop offset="0.31" stop-color="#6661B9"/>
<stop offset="0.32" stop-color="#6B65CA"/>
<stop offset="0.34" stop-color="#6F68D6"/>
<stop offset="0.36" stop-color="#716ADD"/>
<stop offset="0.43" stop-color="#726BDF"/>
<stop offset="0.49" stop-color="#716ADD"/>
<stop offset="0.51" stop-color="#6E67D6"/>
<stop offset="0.52" stop-color="#6A63CA"/>
<stop offset="0.53" stop-color="#6A63C8"/>
<stop offset="0.58" stop-color="#6B64C9"/>
<stop offset="0.61" stop-color="#726BCE"/>
<stop offset="0.62" stop-color="#7D77D6"/>
<stop offset="0.63" stop-color="#8E88E2"/>
<stop offset="0.64" stop-color="#948EE7"/>
<stop offset="0.69" stop-color="#928CE6"/>
<stop offset="0.71" stop-color="#8B85E4"/>
<stop offset="0.72" stop-color="#7E78E1"/>
<stop offset="0.9" stop-color="#645EB1"/>
<stop offset="1" stop-color="#5F5A9C"/>
</linearGradient>
<linearGradient id="paint13_linear_8_769" x1="851.338" y1="38.6607" x2="873.921" y2="52.499" gradientUnits="userSpaceOnUse">
<stop stop-color="#5C5894"/>
<stop offset="0.47" stop-color="#6862C1"/>
<stop offset="1" stop-color="#7E78E1"/>
</linearGradient>
<linearGradient id="paint14_linear_8_769" x1="843.927" y1="51.1675" x2="874.551" y2="59.6869" gradientUnits="userSpaceOnUse">
<stop stop-color="#7E78E1"/>
<stop offset="0.09" stop-color="#7068DC"/>
<stop offset="0.18" stop-color="#6661B8"/>
<stop offset="0.26" stop-color="#6560B6"/>
<stop offset="0.29" stop-color="#635EAF"/>
<stop offset="0.3" stop-color="#625DA9"/>
<stop offset="0.31" stop-color="#6661B9"/>
<stop offset="0.32" stop-color="#6B65CA"/>
<stop offset="0.34" stop-color="#6F68D6"/>
<stop offset="0.36" stop-color="#716ADD"/>
<stop offset="0.43" stop-color="#726BDF"/>
<stop offset="0.49" stop-color="#716ADD"/>
<stop offset="0.51" stop-color="#6E67D6"/>
<stop offset="0.52" stop-color="#6A63CA"/>
<stop offset="0.53" stop-color="#6A63C8"/>
<stop offset="0.58" stop-color="#6B64C9"/>
<stop offset="0.61" stop-color="#726BCE"/>
<stop offset="0.62" stop-color="#7D77D6"/>
<stop offset="0.63" stop-color="#8E88E2"/>
<stop offset="0.64" stop-color="#948EE7"/>
<stop offset="0.69" stop-color="#928CE6"/>
<stop offset="0.71" stop-color="#8B85E4"/>
<stop offset="0.72" stop-color="#7E78E1"/>
<stop offset="0.9" stop-color="#645EB1"/>
<stop offset="1" stop-color="#5F5A9C"/>
</linearGradient>
<linearGradient id="paint15_linear_8_769" x1="854.742" y1="30.1555" x2="885.364" y2="38.6739" gradientUnits="userSpaceOnUse">
<stop stop-color="#7E78E1"/>
<stop offset="0.09" stop-color="#7068DC"/>
<stop offset="0.18" stop-color="#6661B8"/>
<stop offset="0.26" stop-color="#6560B6"/>
<stop offset="0.29" stop-color="#635EAF"/>
<stop offset="0.3" stop-color="#625DA9"/>
<stop offset="0.31" stop-color="#6661B9"/>
<stop offset="0.32" stop-color="#6B65CA"/>
<stop offset="0.34" stop-color="#6F68D6"/>
<stop offset="0.36" stop-color="#716ADD"/>
<stop offset="0.43" stop-color="#726BDF"/>
<stop offset="0.49" stop-color="#716ADD"/>
<stop offset="0.51" stop-color="#6E67D6"/>
<stop offset="0.52" stop-color="#6A63CA"/>
<stop offset="0.53" stop-color="#6A63C8"/>
<stop offset="0.58" stop-color="#6B64C9"/>
<stop offset="0.61" stop-color="#726BCE"/>
<stop offset="0.62" stop-color="#7D77D6"/>
<stop offset="0.63" stop-color="#8E88E2"/>
<stop offset="0.64" stop-color="#948EE7"/>
<stop offset="0.69" stop-color="#928CE6"/>
<stop offset="0.71" stop-color="#8B85E4"/>
<stop offset="0.72" stop-color="#7E78E1"/>
<stop offset="0.9" stop-color="#645EB1"/>
<stop offset="1" stop-color="#5F5A9C"/>
</linearGradient>
<linearGradient id="paint16_linear_8_769" x1="813.891" y1="28.6971" x2="795.855" y2="30.3626" gradientUnits="userSpaceOnUse">
<stop stop-color="#7F474B"/>
<stop offset="0.47" stop-color="#FF5459"/>
<stop offset="1" stop-color="#FF9A9A"/>
</linearGradient>
<linearGradient id="paint17_linear_8_769" x1="816.568" y1="44.6364" x2="798.533" y2="46.3017" gradientUnits="userSpaceOnUse">
<stop stop-color="#7F474B"/>
<stop offset="0.47" stop-color="#FF5459"/>
<stop offset="1" stop-color="#FF9A9A"/>
</linearGradient>
<linearGradient id="paint18_linear_8_769" x1="815.507" y1="34.749" x2="795.239" y2="42.6213" gradientUnits="userSpaceOnUse">
<stop stop-color="#FF97A1"/>
<stop offset="0.09" stop-color="#FF7E8E"/>
<stop offset="0.18" stop-color="#FA4763"/>
<stop offset="0.25" stop-color="#F84762"/>
<stop offset="0.27" stop-color="#F14760"/>
<stop offset="0.29" stop-color="#E5475D"/>
<stop offset="0.3" stop-color="#D64B5C"/>
<stop offset="0.31" stop-color="#E5616E"/>
<stop offset="0.33" stop-color="#F0727C"/>
<stop offset="0.34" stop-color="#F97E86"/>
<stop offset="0.36" stop-color="#FD858C"/>
<stop offset="0.43" stop-color="#FF878E"/>
<stop offset="0.48" stop-color="#FF858C"/>
<stop offset="0.5" stop-color="#FF7E87"/>
<stop offset="0.51" stop-color="#FF727E"/>
<stop offset="0.53" stop-color="#FF6071"/>
<stop offset="0.58" stop-color="#FF6172"/>
<stop offset="0.6" stop-color="#FF6879"/>
<stop offset="0.61" stop-color="#FF7484"/>
<stop offset="0.62" stop-color="#FF8594"/>
<stop offset="0.63" stop-color="#FFB5C2"/>
<stop offset="0.64" stop-color="#FFB8C5"/>
<stop offset="0.68" stop-color="#FFB6C3"/>
<stop offset="0.7" stop-color="#FFB0BC"/>
<stop offset="0.71" stop-color="#FFA5B0"/>
<stop offset="0.72" stop-color="#FF97A1"/>
<stop offset="0.9" stop-color="#EA475C"/>
<stop offset="1" stop-color="#AA4754"/>
</linearGradient>
<linearGradient id="paint19_linear_8_769" x1="817.618" y1="49.2864" x2="799.129" y2="56.4679" gradientUnits="userSpaceOnUse">
<stop stop-color="#FF97A1"/>
<stop offset="0.09" stop-color="#FF7E8E"/>
<stop offset="0.18" stop-color="#FA4763"/>
<stop offset="0.25" stop-color="#F84762"/>
<stop offset="0.27" stop-color="#F14760"/>
<stop offset="0.29" stop-color="#E5475D"/>
<stop offset="0.3" stop-color="#D64B5C"/>
<stop offset="0.31" stop-color="#E5616E"/>
<stop offset="0.33" stop-color="#F0727C"/>
<stop offset="0.34" stop-color="#F97E86"/>
<stop offset="0.36" stop-color="#FD858C"/>
<stop offset="0.43" stop-color="#FF878E"/>
<stop offset="0.48" stop-color="#FF858C"/>
<stop offset="0.5" stop-color="#FF7E87"/>
<stop offset="0.51" stop-color="#FF727E"/>
<stop offset="0.53" stop-color="#FF6071"/>
<stop offset="0.58" stop-color="#FF6172"/>
<stop offset="0.6" stop-color="#FF6879"/>
<stop offset="0.61" stop-color="#FF7484"/>
<stop offset="0.62" stop-color="#FF8594"/>
<stop offset="0.63" stop-color="#FFB5C2"/>
<stop offset="0.64" stop-color="#FFB8C5"/>
<stop offset="0.68" stop-color="#FFB6C3"/>
<stop offset="0.7" stop-color="#FFB0BC"/>
<stop offset="0.71" stop-color="#FFA5B0"/>
<stop offset="0.72" stop-color="#FF97A1"/>
<stop offset="0.9" stop-color="#EA475C"/>
<stop offset="1" stop-color="#AA4754"/>
</linearGradient>
<linearGradient id="paint20_linear_8_769" x1="1497.92" y1="245.799" x2="1502.9" y2="245.799" gradientUnits="userSpaceOnUse">
<stop stop-color="#CE38BF"/>
<stop offset="0.73" stop-color="#E051CA"/>
<stop offset="1" stop-color="#E85CCF"/>
</linearGradient>
<linearGradient id="paint21_linear_8_769" x1="1599.08" y1="275.859" x2="1610.7" y2="275.859" gradientUnits="userSpaceOnUse">
<stop stop-color="#CE38BF"/>
<stop offset="0.73" stop-color="#E051CA"/>
<stop offset="1" stop-color="#E85CCF"/>
</linearGradient>
<linearGradient id="paint22_linear_8_769" x1="1272.26" y1="287.652" x2="1283.34" y2="287.652" gradientUnits="userSpaceOnUse">
<stop stop-color="#CE38BF"/>
<stop offset="0.73" stop-color="#E051CA"/>
<stop offset="1" stop-color="#E85CCF"/>
</linearGradient>
<linearGradient id="paint23_linear_8_769" x1="1362.42" y1="130.683" x2="1367.82" y2="144.442" gradientUnits="userSpaceOnUse">
<stop stop-color="#CE38BF"/>
<stop offset="0.73" stop-color="#E051CA"/>
<stop offset="1" stop-color="#E85CCF"/>
</linearGradient>
<linearGradient id="paint24_linear_8_769" x1="1253.97" y1="104.683" x2="1267.46" y2="118.974" gradientUnits="userSpaceOnUse">
<stop stop-color="#CE38BF"/>
<stop offset="0.73" stop-color="#E051CA"/>
<stop offset="1" stop-color="#E85CCF"/>
</linearGradient>
<linearGradient id="paint25_linear_8_769" x1="953" y1="135.354" x2="966.975" y2="135.354" gradientUnits="userSpaceOnUse">
<stop stop-color="#CE38BF"/>
<stop offset="0.73" stop-color="#E051CA"/>
<stop offset="1" stop-color="#E85CCF"/>
</linearGradient>
<linearGradient id="paint26_linear_8_769" x1="945.388" y1="108.227" x2="948.211" y2="114.282" gradientUnits="userSpaceOnUse">
<stop stop-color="#CE38BF"/>
<stop offset="0.73" stop-color="#E051CA"/>
<stop offset="1" stop-color="#E85CCF"/>
</linearGradient>
<linearGradient id="paint27_linear_8_769" x1="896.706" y1="71.2278" x2="915.091" y2="68.2162" gradientUnits="userSpaceOnUse">
<stop stop-color="#5C5894"/>
<stop offset="0.47" stop-color="#6862C1"/>
<stop offset="1" stop-color="#7E78E1"/>
</linearGradient>
<linearGradient id="paint28_linear_8_769" x1="898.509" y1="81.2953" x2="918.736" y2="71.7533" gradientUnits="userSpaceOnUse">
<stop stop-color="#7E78E1"/>
<stop offset="0.09" stop-color="#7068DC"/>
<stop offset="0.18" stop-color="#6661B8"/>
<stop offset="0.26" stop-color="#6560B6"/>
<stop offset="0.29" stop-color="#635EAF"/>
<stop offset="0.3" stop-color="#625DA9"/>
<stop offset="0.31" stop-color="#6661B9"/>
<stop offset="0.32" stop-color="#6B65CA"/>
<stop offset="0.34" stop-color="#6F68D6"/>
<stop offset="0.36" stop-color="#716ADD"/>
<stop offset="0.43" stop-color="#726BDF"/>
<stop offset="0.49" stop-color="#716ADD"/>
<stop offset="0.51" stop-color="#6E67D6"/>
<stop offset="0.52" stop-color="#6A63CA"/>
<stop offset="0.53" stop-color="#6A63C8"/>
<stop offset="0.58" stop-color="#6B64C9"/>
<stop offset="0.61" stop-color="#726BCE"/>
<stop offset="0.62" stop-color="#7D77D6"/>
<stop offset="0.63" stop-color="#8E88E2"/>
<stop offset="0.64" stop-color="#948EE7"/>
<stop offset="0.69" stop-color="#928CE6"/>
<stop offset="0.71" stop-color="#8B85E4"/>
<stop offset="0.72" stop-color="#7E78E1"/>
<stop offset="0.9" stop-color="#645EB1"/>
<stop offset="1" stop-color="#5F5A9C"/>
</linearGradient>
<linearGradient id="paint29_linear_8_769" x1="892.807" y1="55.0635" x2="911.192" y2="52.0519" gradientUnits="userSpaceOnUse">
<stop stop-color="#5C5894"/>
<stop offset="0.47" stop-color="#6862C1"/>
<stop offset="1" stop-color="#7E78E1"/>
</linearGradient>
<linearGradient id="paint30_linear_8_769" x1="894.608" y1="65.1302" x2="914.837" y2="55.5879" gradientUnits="userSpaceOnUse">
<stop stop-color="#7E78E1"/>
<stop offset="0.09" stop-color="#7068DC"/>
<stop offset="0.18" stop-color="#6661B8"/>
<stop offset="0.26" stop-color="#6560B6"/>
<stop offset="0.29" stop-color="#635EAF"/>
<stop offset="0.3" stop-color="#625DA9"/>
<stop offset="0.31" stop-color="#6661B9"/>
<stop offset="0.32" stop-color="#6B65CA"/>
<stop offset="0.34" stop-color="#6F68D6"/>
<stop offset="0.36" stop-color="#716ADD"/>
<stop offset="0.43" stop-color="#726BDF"/>
<stop offset="0.49" stop-color="#716ADD"/>
<stop offset="0.51" stop-color="#6E67D6"/>
<stop offset="0.52" stop-color="#6A63CA"/>
<stop offset="0.53" stop-color="#6A63C8"/>
<stop offset="0.58" stop-color="#6B64C9"/>
<stop offset="0.61" stop-color="#726BCE"/>
<stop offset="0.62" stop-color="#7D77D6"/>
<stop offset="0.63" stop-color="#8E88E2"/>
<stop offset="0.64" stop-color="#948EE7"/>
<stop offset="0.69" stop-color="#928CE6"/>
<stop offset="0.71" stop-color="#8B85E4"/>
<stop offset="0.72" stop-color="#7E78E1"/>
<stop offset="0.9" stop-color="#645EB1"/>
<stop offset="1" stop-color="#5F5A9C"/>
</linearGradient>
<linearGradient id="paint31_linear_8_769" x1="891.392" y1="50.3686" x2="909.842" y2="41.664" gradientUnits="userSpaceOnUse">
<stop stop-color="#7E78E1"/>
<stop offset="0.09" stop-color="#7068DC"/>
<stop offset="0.18" stop-color="#6661B8"/>
<stop offset="0.26" stop-color="#6560B6"/>
<stop offset="0.29" stop-color="#635EAF"/>
<stop offset="0.3" stop-color="#625DA9"/>
<stop offset="0.31" stop-color="#6661B9"/>
<stop offset="0.32" stop-color="#6B65CA"/>
<stop offset="0.34" stop-color="#6F68D6"/>
<stop offset="0.36" stop-color="#716ADD"/>
<stop offset="0.43" stop-color="#726BDF"/>
<stop offset="0.49" stop-color="#716ADD"/>
<stop offset="0.51" stop-color="#6E67D6"/>
<stop offset="0.52" stop-color="#6A63CA"/>
<stop offset="0.53" stop-color="#6A63C8"/>
<stop offset="0.58" stop-color="#6B64C9"/>
<stop offset="0.61" stop-color="#726BCE"/>
<stop offset="0.62" stop-color="#7D77D6"/>
<stop offset="0.63" stop-color="#8E88E2"/>
<stop offset="0.64" stop-color="#948EE7"/>
<stop offset="0.69" stop-color="#928CE6"/>
<stop offset="0.71" stop-color="#8B85E4"/>
<stop offset="0.72" stop-color="#7E78E1"/>
<stop offset="0.9" stop-color="#645EB1"/>
<stop offset="1" stop-color="#5F5A9C"/>
</linearGradient>
<linearGradient id="paint32_linear_8_769" x1="1264.27" y1="16.6325" x2="1294.79" y2="25.6465" gradientUnits="userSpaceOnUse">
<stop stop-color="#7E78E1"/>
<stop offset="0.09" stop-color="#7068DC"/>
<stop offset="0.18" stop-color="#6661B8"/>
<stop offset="0.26" stop-color="#6560B6"/>
<stop offset="0.29" stop-color="#635EAF"/>
<stop offset="0.3" stop-color="#625DA9"/>
<stop offset="0.31" stop-color="#6661B9"/>
<stop offset="0.32" stop-color="#6B65CA"/>
<stop offset="0.34" stop-color="#6F68D6"/>
<stop offset="0.36" stop-color="#716ADD"/>
<stop offset="0.43" stop-color="#726BDF"/>
<stop offset="0.49" stop-color="#716ADD"/>
<stop offset="0.51" stop-color="#6E67D6"/>
<stop offset="0.52" stop-color="#6A63CA"/>
<stop offset="0.53" stop-color="#6A63C8"/>
<stop offset="0.58" stop-color="#6B64C9"/>
<stop offset="0.61" stop-color="#726BCE"/>
<stop offset="0.62" stop-color="#7D77D6"/>
<stop offset="0.63" stop-color="#8E88E2"/>
<stop offset="0.64" stop-color="#948EE7"/>
<stop offset="0.69" stop-color="#928CE6"/>
<stop offset="0.71" stop-color="#8B85E4"/>
<stop offset="0.72" stop-color="#7E78E1"/>
<stop offset="0.9" stop-color="#645EB1"/>
<stop offset="1" stop-color="#5F5A9C"/>
</linearGradient>
<linearGradient id="paint33_linear_8_769" x1="1628.72" y1="16.0709" x2="1651.31" y2="29.9092" gradientUnits="userSpaceOnUse">
<stop stop-color="#5C5894"/>
<stop offset="0.47" stop-color="#6862C1"/>
<stop offset="1" stop-color="#7E78E1"/>
</linearGradient>
<linearGradient id="paint34_linear_8_769" x1="1621.31" y1="28.5777" x2="1651.94" y2="37.0971" gradientUnits="userSpaceOnUse">
<stop stop-color="#7E78E1"/>
<stop offset="0.09" stop-color="#7068DC"/>
<stop offset="0.18" stop-color="#6661B8"/>
<stop offset="0.26" stop-color="#6560B6"/>
<stop offset="0.29" stop-color="#635EAF"/>
<stop offset="0.3" stop-color="#625DA9"/>
<stop offset="0.31" stop-color="#6661B9"/>
<stop offset="0.32" stop-color="#6B65CA"/>
<stop offset="0.34" stop-color="#6F68D6"/>
<stop offset="0.36" stop-color="#716ADD"/>
<stop offset="0.43" stop-color="#726BDF"/>
<stop offset="0.49" stop-color="#716ADD"/>
<stop offset="0.51" stop-color="#6E67D6"/>
<stop offset="0.52" stop-color="#6A63CA"/>
<stop offset="0.53" stop-color="#6A63C8"/>
<stop offset="0.58" stop-color="#6B64C9"/>
<stop offset="0.61" stop-color="#726BCE"/>
<stop offset="0.62" stop-color="#7D77D6"/>
<stop offset="0.63" stop-color="#8E88E2"/>
<stop offset="0.64" stop-color="#948EE7"/>
<stop offset="0.69" stop-color="#928CE6"/>
<stop offset="0.71" stop-color="#8B85E4"/>
<stop offset="0.72" stop-color="#7E78E1"/>
<stop offset="0.9" stop-color="#645EB1"/>
<stop offset="1" stop-color="#5F5A9C"/>
</linearGradient>
<linearGradient id="paint35_linear_8_769" x1="1632.13" y1="7.56562" x2="1662.75" y2="16.0841" gradientUnits="userSpaceOnUse">
<stop stop-color="#7E78E1"/>
<stop offset="0.09" stop-color="#7068DC"/>
<stop offset="0.18" stop-color="#6661B8"/>
<stop offset="0.26" stop-color="#6560B6"/>
<stop offset="0.29" stop-color="#635EAF"/>
<stop offset="0.3" stop-color="#625DA9"/>
<stop offset="0.31" stop-color="#6661B9"/>
<stop offset="0.32" stop-color="#6B65CA"/>
<stop offset="0.34" stop-color="#6F68D6"/>
<stop offset="0.36" stop-color="#716ADD"/>
<stop offset="0.43" stop-color="#726BDF"/>
<stop offset="0.49" stop-color="#716ADD"/>
<stop offset="0.51" stop-color="#6E67D6"/>
<stop offset="0.52" stop-color="#6A63CA"/>
<stop offset="0.53" stop-color="#6A63C8"/>
<stop offset="0.58" stop-color="#6B64C9"/>
<stop offset="0.61" stop-color="#726BCE"/>
<stop offset="0.62" stop-color="#7D77D6"/>
<stop offset="0.63" stop-color="#8E88E2"/>
<stop offset="0.64" stop-color="#948EE7"/>
<stop offset="0.69" stop-color="#928CE6"/>
<stop offset="0.71" stop-color="#8B85E4"/>
<stop offset="0.72" stop-color="#7E78E1"/>
<stop offset="0.9" stop-color="#645EB1"/>
<stop offset="1" stop-color="#5F5A9C"/>
</linearGradient>
<linearGradient id="paint36_linear_8_769" x1="1591.28" y1="6.10722" x2="1573.24" y2="7.77273" gradientUnits="userSpaceOnUse">
<stop stop-color="#7F474B"/>
<stop offset="0.47" stop-color="#FF5459"/>
<stop offset="1" stop-color="#FF9A9A"/>
</linearGradient>
<linearGradient id="paint37_linear_8_769" x1="1593.95" y1="22.0466" x2="1575.92" y2="23.7119" gradientUnits="userSpaceOnUse">
<stop stop-color="#7F474B"/>
<stop offset="0.47" stop-color="#FF5459"/>
<stop offset="1" stop-color="#FF9A9A"/>
</linearGradient>
<linearGradient id="paint38_linear_8_769" x1="1592.89" y1="12.1592" x2="1572.63" y2="20.0314" gradientUnits="userSpaceOnUse">
<stop stop-color="#FF97A1"/>
<stop offset="0.09" stop-color="#FF7E8E"/>
<stop offset="0.18" stop-color="#FA4763"/>
<stop offset="0.25" stop-color="#F84762"/>
<stop offset="0.27" stop-color="#F14760"/>
<stop offset="0.29" stop-color="#E5475D"/>
<stop offset="0.3" stop-color="#D64B5C"/>
<stop offset="0.31" stop-color="#E5616E"/>
<stop offset="0.33" stop-color="#F0727C"/>
<stop offset="0.34" stop-color="#F97E86"/>
<stop offset="0.36" stop-color="#FD858C"/>
<stop offset="0.43" stop-color="#FF878E"/>
<stop offset="0.48" stop-color="#FF858C"/>
<stop offset="0.5" stop-color="#FF7E87"/>
<stop offset="0.51" stop-color="#FF727E"/>
<stop offset="0.53" stop-color="#FF6071"/>
<stop offset="0.58" stop-color="#FF6172"/>
<stop offset="0.6" stop-color="#FF6879"/>
<stop offset="0.61" stop-color="#FF7484"/>
<stop offset="0.62" stop-color="#FF8594"/>
<stop offset="0.63" stop-color="#FFB5C2"/>
<stop offset="0.64" stop-color="#FFB8C5"/>
<stop offset="0.68" stop-color="#FFB6C3"/>
<stop offset="0.7" stop-color="#FFB0BC"/>
<stop offset="0.71" stop-color="#FFA5B0"/>
<stop offset="0.72" stop-color="#FF97A1"/>
<stop offset="0.9" stop-color="#EA475C"/>
<stop offset="1" stop-color="#AA4754"/>
</linearGradient>
<linearGradient id="paint39_linear_8_769" x1="1595" y1="26.6966" x2="1576.52" y2="33.8781" gradientUnits="userSpaceOnUse">
<stop stop-color="#FF97A1"/>
<stop offset="0.09" stop-color="#FF7E8E"/>
<stop offset="0.18" stop-color="#FA4763"/>
<stop offset="0.25" stop-color="#F84762"/>
<stop offset="0.27" stop-color="#F14760"/>
<stop offset="0.29" stop-color="#E5475D"/>
<stop offset="0.3" stop-color="#D64B5C"/>
<stop offset="0.31" stop-color="#E5616E"/>
<stop offset="0.33" stop-color="#F0727C"/>
<stop offset="0.34" stop-color="#F97E86"/>
<stop offset="0.36" stop-color="#FD858C"/>
<stop offset="0.43" stop-color="#FF878E"/>
<stop offset="0.48" stop-color="#FF858C"/>
<stop offset="0.5" stop-color="#FF7E87"/>
<stop offset="0.51" stop-color="#FF727E"/>
<stop offset="0.53" stop-color="#FF6071"/>
<stop offset="0.58" stop-color="#FF6172"/>
<stop offset="0.6" stop-color="#FF6879"/>
<stop offset="0.61" stop-color="#FF7484"/>
<stop offset="0.62" stop-color="#FF8594"/>
<stop offset="0.63" stop-color="#FFB5C2"/>
<stop offset="0.64" stop-color="#FFB8C5"/>
<stop offset="0.68" stop-color="#FFB6C3"/>
<stop offset="0.7" stop-color="#FFB0BC"/>
<stop offset="0.71" stop-color="#FFA5B0"/>
<stop offset="0.72" stop-color="#FF97A1"/>
<stop offset="0.9" stop-color="#EA475C"/>
<stop offset="1" stop-color="#AA4754"/>
</linearGradient>
</defs>
</svg>
