<svg width="11" height="11" viewBox="0 0 11 11" fill="none" xmlns="http://www.w3.org/2000/svg">
<path fill-rule="evenodd" clip-rule="evenodd" d="M5.5 0C2.46641 0 0 2.46641 0 5.5C0 8.53359 2.46641 11 5.5 11C8.53359 11 11 8.53359 11 5.5C11 2.46641 8.53359 0 5.5 0Z" fill="#4BAE4F"/>
<path d="M4.81849 6.19752L7.70755 3.30638L8.34126 3.94009L4.58269 7.69455C4.29563 7.40713 4.00735 7.11684 3.71858 6.82607C3.36487 6.4699 3.01044 6.11301 2.65664 5.75976L3.28711 5.1293L4.35542 6.19761L4.587 6.42918L4.81849 6.19752ZM2.56684 5.84956L2.47715 5.75986L2.56684 5.84956L2.56698 5.84943C2.56693 5.84947 2.56689 5.84952 2.56684 5.84956Z" fill="white" stroke="white" stroke-width="0.654762"/>
</svg>
