<svg width="12" height="12" viewBox="0 0 12 12" fill="none" xmlns="http://www.w3.org/2000/svg">
<path fill-rule="evenodd" clip-rule="evenodd" d="M8.54545 0.378745C8.75048 0.173719 9.08289 0.173719 9.28791 0.378745L11.6212 2.71208C11.8263 2.9171 11.8263 3.24951 11.6212 3.45454L4.03791 11.0379C3.93946 11.1363 3.80592 11.1916 3.66668 11.1916H1.33335C1.0434 11.1916 0.80835 10.9566 0.80835 10.6666V8.33331C0.80835 8.19407 0.863662 8.06053 0.962119 7.96208L8.54545 0.378745ZM7.90914 2.49998L9.50002 4.09085L10.5076 3.08331L8.91668 1.49244L7.90914 2.49998ZM8.75755 4.83331L7.16668 3.24244L1.85835 8.55077V10.1416H3.44922L8.75755 4.83331Z" fill="#0094FF"/>
</svg>
