<svg width="210" height="15" viewBox="0 0 210 15" fill="none" xmlns="http://www.w3.org/2000/svg">
<path d="M128.1 14.7127V3.89478H138.372V6.32106H131.185V8.93222H137.478V11.2652H131.201V14.7109H128.101L128.1 14.7127Z" fill="white"/>
<path d="M139.884 14.7127V3.89478H142.97V14.7127H139.884Z" fill="white"/>
<path d="M145.282 14.7127V3.86304H148.027L153.98 10.7246V3.89473H156.756V14.7285H154.012L148.058 8.09759V14.7127H145.282Z" fill="white"/>
<path d="M158.022 14.7128L162.913 3.84729H166.29L171.194 14.7128H167.724L166.875 12.7038H162.124L161.291 14.7128H158.021H158.022ZM162.865 10.494H166.135L164.501 6.19786L162.867 10.494H162.865Z" fill="white"/>
<path d="M172.459 14.7127V3.86304H175.204L181.158 10.7246V3.89473H183.934V14.7285H181.189L175.236 8.09759V14.7127H172.459Z" fill="white"/>
<path d="M185.723 9.53436C185.723 7.52537 186.312 6.05692 187.489 5.12901C188.666 4.20111 190.392 3.73804 192.664 3.73804C193.332 3.73804 193.919 3.75564 194.423 3.79262C194.927 3.8296 195.397 3.8877 195.834 3.97045C196.272 4.05321 196.73 4.16061 197.215 4.29443L196.599 6.50414C195.92 6.37033 195.277 6.26997 194.671 6.20306C194.065 6.13615 193.462 6.1027 192.866 6.1027C191.467 6.1027 190.455 6.36857 189.828 6.89855C189.201 7.42853 188.888 8.28776 188.888 9.47273C188.888 10.5538 189.197 11.3356 189.814 11.8145C190.431 12.2934 191.413 12.5329 192.761 12.5329C193.45 12.5329 194.161 12.4889 194.898 12.4008C195.632 12.3128 196.33 12.1931 196.987 12.0381L197.542 14.1862C197.08 14.32 196.599 14.438 196.1 14.5419C195.6 14.6458 195.043 14.725 194.427 14.7813C193.81 14.8377 193.1 14.8658 192.299 14.8658C190.87 14.8658 189.668 14.688 188.696 14.3323C187.725 13.9767 186.987 13.408 186.482 12.6244C185.978 11.8409 185.727 10.8109 185.727 9.5326L185.723 9.53436Z" fill="white"/>
<path d="M199.28 14.7127V3.89478H209.646V6.24359H202.334V8.08355H209.198V10.2633H202.334V12.3815H209.999V14.7145H199.28V14.7127Z" fill="white"/>
<path fill-rule="evenodd" clip-rule="evenodd" d="M25.7362 3.92291H33.9108C35.7664 3.92291 37.2829 5.38783 37.2829 7.18026V14.6387H25.0597C23.9298 14.6387 23.0055 13.746 23.0055 12.6544V10.0626C23.0055 9.04839 23.8648 8.21733 24.9156 8.21733H31.6967L30.978 9.72627H25.9893C25.7679 9.72627 25.5289 9.89002 25.5289 10.1242V12.1631C25.5289 12.3973 25.7679 12.561 25.9893 12.561H34.6418V7.6715C34.6418 6.72247 33.7984 6.00057 32.8618 6.00057H24.7452L25.7345 3.92291H25.7362ZM92.9182 0.0246502V14.6387H80.9973C79.8674 14.6387 78.9431 13.746 78.9431 12.6544V7.17849C78.9431 5.38783 80.4613 3.92115 82.3152 3.92115H89.1068L88.107 5.99881H83.3625C82.4259 5.99881 81.5824 6.72247 81.5824 7.66974V12.1614C81.5824 12.3955 81.8214 12.5593 82.0428 12.5593H90.2754V0.0246502H92.9165H92.9182ZM51.0349 14.6369H53.676V7.17849C53.676 5.38783 52.1578 3.92115 50.3039 3.92115H44.6949L43.6968 5.99881H49.2549C50.1915 5.99881 51.0349 6.72247 51.0349 7.66974V14.6369ZM40.0505 0.0246502V14.6387H42.6916V0.0246502H40.0505ZM18.0343 14.6387H20.6754V7.18026C20.6754 5.38959 19.1572 3.92291 17.3033 3.92291H0V14.6387H2.6411V6.39673C2.6411 6.16255 2.88008 5.99881 3.10149 5.99881H8.55766C8.77907 5.99881 9.01805 6.16255 9.01805 6.39673V14.6387H11.6592V6.39673C11.6592 6.16255 11.8981 5.99881 12.1195 5.99881H16.256C17.1926 5.99881 18.0361 6.72247 18.0361 7.66974V14.6369L18.0343 14.6387ZM106.695 3.92291H100.07C98.2145 3.92291 96.698 5.38783 96.698 7.18026V14.6387H99.3391V7.6715C99.3391 6.72247 100.183 6.00057 101.119 6.00057H105.697L106.697 3.92291H106.695ZM72.9035 3.92291C74.7591 3.92291 76.2756 5.38783 76.2756 7.18026V14.6387H73.6345V7.6715C73.6345 6.72247 72.7911 6.00057 71.8545 6.00057H65.5109V14.6387H62.8698V3.92819C66.2067 3.92819 69.5543 3.92291 72.9018 3.92291H72.9035ZM56.9532 4.59903L59.5943 3.0936V14.6387H56.9532V4.59903ZM59.5943 1.58642V0H56.9532V3.0936L59.5943 1.58642ZM108.533 3.92291H116.707C118.563 3.92291 120.08 5.38783 120.08 7.18026V14.6387H107.856C106.726 14.6387 105.802 13.746 105.802 12.6544V10.0626C105.802 9.04839 106.661 8.21733 107.712 8.21733H114.493L113.775 9.72627H108.786C108.565 9.72627 108.326 9.89002 108.326 10.1242V12.1631C108.326 12.3973 108.565 12.561 108.786 12.561H117.438V7.6715C117.438 6.72247 116.597 6.00057 115.658 6.00057H107.542L108.531 3.92291H108.533Z" fill="white"/>
</svg>
