<svg width="14" height="14" viewBox="0 0 14 14" fill="none" xmlns="http://www.w3.org/2000/svg">
<path fill-rule="evenodd" clip-rule="evenodd" d="M0.729004 1.89581H13.2707V11.5208H0.729004V1.89581ZM1.604 2.77081V10.6458H12.3957V2.77081H1.604Z" fill="#221F20"/>
<path fill-rule="evenodd" clip-rule="evenodd" d="M4.37516 4.8125C3.97245 4.8125 3.646 5.13896 3.646 5.54167C3.646 5.94437 3.97245 6.27083 4.37516 6.27083C4.77787 6.27083 5.10433 5.94437 5.10433 5.54167C5.10433 5.13896 4.77787 4.8125 4.37516 4.8125ZM2.771 5.54167C2.771 4.65571 3.48921 3.9375 4.37516 3.9375C5.26112 3.9375 5.97933 4.65571 5.97933 5.54167C5.97933 6.42762 5.26112 7.14583 4.37516 7.14583C3.48921 7.14583 2.771 6.42762 2.771 5.54167Z" fill="#221F20"/>
<path fill-rule="evenodd" clip-rule="evenodd" d="M9.33345 5.79797L13.1428 9.60733L12.5241 10.2261L9.33345 7.03541L4.97614 11.3927L4.35742 10.774L9.33345 5.79797Z" fill="#221F20"/>
</svg>
