<svg width="27" height="28" viewBox="0 0 27 28" fill="none" xmlns="http://www.w3.org/2000/svg">
<path d="M3.95344 9.46642L14.0229 4.43829L24.0575 9.39634L24.0641 10.3096H3.93799L3.95344 9.46642Z" fill="#0094FF"/>
<path d="M4.1746 9.84521C4.50967 9.67658 4.84692 9.51014 5.18199 9.34152C5.98134 8.94294 6.78069 8.54217 7.58004 8.14359C8.55022 7.6596 9.52037 7.17561 10.4883 6.69162C11.3271 6.27334 12.1659 5.85503 13.0025 5.43455C13.4098 5.23088 13.8259 5.04035 14.2245 4.82353C14.2311 4.82134 14.2354 4.81696 14.242 4.81477H13.7996C14.1325 4.97902 14.4676 5.14546 14.8004 5.3097C15.5976 5.7039 16.3969 6.09811 17.1941 6.49228C18.1599 6.96971 19.1235 7.44493 20.0893 7.92235C20.9259 8.33626 21.7624 8.75017 22.6012 9.16188C23.0041 9.36117 23.4049 9.58016 23.8167 9.76193C23.8232 9.76412 23.8276 9.7685 23.8342 9.77069C23.7619 9.64367 23.6896 9.51884 23.6174 9.39182C23.6196 9.69623 23.6218 10.0006 23.6239 10.3051C23.7707 10.1583 23.9152 10.0138 24.062 9.86704H23.521H22.0559H19.8922H17.2533H14.3625H11.4323H8.71008H6.41058H4.75714C4.49653 9.86704 4.23374 9.86047 3.97313 9.86704H3.93809L4.37611 10.3051C4.38049 10.0247 4.38706 9.74442 4.39144 9.4641C4.39582 9.23415 4.18777 9.01515 3.95342 9.02608C3.71252 9.03703 3.5198 9.2188 3.5154 9.4641C3.51102 9.74442 3.50445 10.0247 3.50007 10.3051C3.49569 10.5416 3.70374 10.7431 3.93809 10.7431H4.47902H5.94413H8.10784H10.7468H13.6376H16.5678H19.29H21.5895H23.2429C23.5035 10.7431 23.7663 10.7475 24.0269 10.7431H24.062C24.2985 10.7431 24.5021 10.5416 24.5 10.3051C24.4978 10.0006 24.4956 9.69624 24.4934 9.39182C24.4934 9.24509 24.4124 9.08084 24.2766 9.01295C23.9393 8.84651 23.5999 8.68007 23.2626 8.51146C22.4589 8.11507 21.6552 7.71868 20.8537 7.3201C19.8791 6.83831 18.9046 6.35653 17.93 5.8747C17.0978 5.46299 16.2678 5.05344 15.4356 4.64173C15.0414 4.44682 14.6494 4.24753 14.253 4.05699C14.091 3.97814 13.9442 3.98253 13.7822 4.06137C13.7362 4.08327 13.6902 4.10736 13.6442 4.12926C13.4361 4.23438 13.2259 4.3373 13.0178 4.44242C12.2557 4.82348 11.4914 5.20453 10.7293 5.58561C9.76791 6.06523 8.80433 6.54702 7.84291 7.02661C6.96912 7.46242 6.09748 7.89824 5.22369 8.33402C4.74847 8.57053 4.27325 8.80924 3.80019 9.04575C3.77829 9.0567 3.75639 9.06765 3.73449 9.0786C3.52863 9.18153 3.45417 9.48814 3.57681 9.67864C3.7104 9.89764 3.95559 9.95471 4.1746 9.84521Z" fill="#0094FF"/>
<path d="M4.09375 22.0676H23.9087V24.5116H4.09375L4.09375 22.0676Z" fill="#0094FF"/>
<path d="M4.09369 24.9476H4.62585H6.06249H8.20212H10.8038H13.653H16.5285H19.2091H21.4757H23.1051C23.3635 24.9476 23.6219 24.952 23.8782 24.9476H23.911C24.1475 24.9476 24.349 24.7462 24.349 24.5096V22.37V22.0656C24.349 21.8291 24.1476 21.6276 23.911 21.6276H23.3789H21.9422H19.8026H17.2009H14.3517H11.4762H8.79565H6.52899H4.89962C4.6412 21.6276 4.38279 21.6232 4.12653 21.6276H4.09369C3.85717 21.6276 3.65567 21.829 3.65567 22.0656V24.2052V24.5096C3.65567 24.7396 3.85714 24.9586 4.09369 24.9476C4.33023 24.9367 4.5317 24.7549 4.5317 24.5096V22.37V22.0656C4.38497 22.2123 4.24044 22.3568 4.09369 22.5036H4.62585H6.06249H8.20212H10.8038H13.653H16.5285H19.2091H21.4757H23.1051C23.3635 22.5036 23.6219 22.5102 23.8782 22.5036H23.911C23.7643 22.3569 23.6198 22.2123 23.473 22.0656V24.2052V24.5096C23.6197 24.3629 23.7643 24.2184 23.911 24.0716H23.3789H21.9422H19.8026H17.2009H14.3517H11.4762H8.79565H6.52899H4.89962C4.6412 24.0716 4.38279 24.0672 4.12653 24.0716H4.09369C3.86373 24.0716 3.64473 24.2731 3.65567 24.5096C3.66662 24.7483 3.84839 24.9476 4.09369 24.9476Z" fill="#0094FF"/>
<path d="M8.84148 11.8251H6.25073V20.5282H8.84148V11.8251Z" fill="#0094FF"/>
<path d="M8.84152 11.387H6.5705H6.25295C6.01643 11.387 5.81493 11.5884 5.81493 11.825V12.6922V14.7639V17.2802V19.4483C5.81493 19.8009 5.80617 20.1557 5.81493 20.5105V20.5258C5.81493 20.7623 6.01641 20.9638 6.25295 20.9638H8.52397H8.84152C9.07804 20.9638 9.27954 20.7623 9.27954 20.5258V19.6586V17.5869V15.0706V12.9024C9.27954 12.5499 9.29487 12.1929 9.27954 11.8403V11.825C9.13281 11.9717 8.98827 12.1163 8.84152 12.263C9.07147 12.263 9.29047 12.0615 9.27954 11.825C9.26859 11.5885 9.08682 11.387 8.84152 11.387C8.60501 11.387 8.4035 11.5884 8.4035 11.825V12.6922V14.7639V17.2802V19.4483C8.4035 19.8009 8.38817 20.1579 8.4035 20.5105V20.5258C8.55024 20.3791 8.69477 20.2345 8.84152 20.0878H6.5705H6.25295C6.39968 20.2345 6.54422 20.3791 6.69097 20.5258V19.6586V17.5869V15.0706V12.9024C6.69097 12.5499 6.7063 12.1929 6.69097 11.8403V11.825C6.54424 11.9717 6.3997 12.1163 6.25295 12.263H8.52397H8.84152C9.07147 12.263 9.29047 12.0615 9.27954 11.825C9.26859 11.5885 9.08682 11.387 8.84152 11.387Z" fill="#0094FF"/>
<path d="M12.7048 11.8251H15.2956V20.5258H12.7048V11.8251Z" fill="#0094FF"/>
<path d="M15.2956 20.09H13.0246H12.707L13.1451 20.5281V19.6608V17.5891V15.0728V12.9047C13.1451 12.5521 13.1604 12.1951 13.1451 11.8426V11.8272C12.9983 11.974 12.8538 12.1185 12.707 12.2653H14.9781H15.2956C15.1489 12.1185 15.0044 11.974 14.8576 11.8272V12.6945V14.7662V17.2825V19.4506C14.8576 19.8032 14.8488 20.158 14.8576 20.5127V20.5281C14.8576 20.758 15.0591 20.977 15.2956 20.9661C15.5322 20.9551 15.7336 20.7734 15.7336 20.5281V19.6608V17.5891V15.0728V12.9047C15.7336 12.5521 15.7424 12.1973 15.7336 11.8426V11.8272C15.7336 11.5907 15.5322 11.3892 15.2956 11.3892H13.0246H12.707C12.4705 11.3892 12.269 11.5907 12.269 11.8272V12.6945V14.7662V17.2825V19.4506C12.269 19.8032 12.2603 20.158 12.269 20.5127V20.5281C12.269 20.7646 12.4705 20.9661 12.707 20.9661H14.9781H15.2956C15.5256 20.9661 15.7446 20.7646 15.7336 20.5281C15.7227 20.2894 15.5409 20.09 15.2956 20.09Z" fill="#0094FF"/>
<path d="M19.1584 11.8251H21.7492V20.5258H19.1584L19.1584 11.8251Z" fill="#0094FF"/>
<path d="M21.7495 20.09H19.4785H19.1609C19.3076 20.2368 19.4522 20.3813 19.5989 20.5281V19.6608V17.5891V15.0728V12.9047C19.5989 12.5521 19.6143 12.1951 19.5989 11.8426V11.8272C19.4522 11.974 19.3077 12.1185 19.1609 12.2653H21.4319H21.7495C21.6027 12.1185 21.4582 11.974 21.3115 11.8272V12.6945V14.7662V17.2825V19.4506C21.3115 19.8032 21.3027 20.158 21.3115 20.5127V20.5281C21.3115 20.758 21.5129 20.977 21.7495 20.9661C21.986 20.9551 22.1875 20.7734 22.1875 20.5281V19.6608V17.5891V15.0728V12.9047C22.1875 12.5521 22.1963 12.1973 22.1875 11.8426V11.8272C22.1875 11.5907 21.986 11.3892 21.7495 11.3892H19.4785H19.1609C18.9244 11.3892 18.7229 11.5907 18.7229 11.8272V12.6945V14.7662V17.2825V19.4506C18.7229 19.8032 18.7141 20.158 18.7229 20.5127V20.5281C18.7229 20.7646 18.9244 20.9661 19.1609 20.9661H21.4319H21.7495C21.9794 20.9661 22.1984 20.7646 22.1875 20.5281C22.1765 20.2894 21.9948 20.09 21.7495 20.09Z" fill="#0094FF"/>
</svg>
