<svg width="10" height="14" viewBox="0 0 10 14" fill="none" xmlns="http://www.w3.org/2000/svg">
<path fill-rule="evenodd" clip-rule="evenodd" d="M3.91989 0.504395L3.29341 1.13088L4.4568 2.29427H0.930664V13.5167H9.1998V2.29427H5.70976L6.87316 1.13088L6.24667 0.504395L5.08328 1.66779L3.91989 0.504395ZM8.31382 3.18025H1.81664V12.6307H8.31382V3.18025ZM5.06537 6.72416C5.55468 6.72416 5.95135 6.3275 5.95135 5.83819C5.95135 5.34887 5.55468 4.95221 5.06537 4.95221C4.57606 4.95221 4.17939 5.34887 4.17939 5.83819C4.17939 6.3275 4.57606 6.72416 5.06537 6.72416ZM5.06537 7.61014C6.04399 7.61014 6.83733 6.81681 6.83733 5.83819C6.83733 4.85956 6.04399 4.06623 5.06537 4.06623C4.08674 4.06623 3.29341 4.85956 3.29341 5.83819C3.29341 6.81681 4.08674 7.61014 5.06537 7.61014ZM3.29341 9.82509H6.83733V8.93911H3.29341V9.82509ZM6.83733 11.597H3.29341V10.7111H6.83733V11.597Z" fill="#221F20"/>
</svg>
