<svg width="12" height="12" viewBox="0 0 12 12" fill="none" xmlns="http://www.w3.org/2000/svg">
<path fill-rule="evenodd" clip-rule="evenodd" d="M5.78115 0.974946C5.91559 0.892783 6.08472 0.892783 6.21916 0.974946L11.8275 4.40229L11.3895 5.11904L6.00016 1.82554L0.610786 5.11904L0.172768 4.40229L5.78115 0.974946ZM2.92016 5.57999V9.33666H2.08016V5.57999H2.92016ZM5.25349 5.57999V9.33666H4.41349V5.57999H5.25349ZM7.58682 5.57999V9.33666H6.74682V5.57999H7.58682ZM9.92016 5.57999V9.33666H9.08016V5.57999H9.92016ZM1.49682 10.83H10.5035V11.67H1.49682V10.83Z" fill="#221F20"/>
<path fill-rule="evenodd" clip-rule="evenodd" d="M5.729 0.889617C5.89546 0.787893 6.10485 0.787893 6.27131 0.889617L11.8797 4.31696C11.9268 4.34576 11.9417 4.40731 11.9129 4.45443L11.4749 5.17119C11.461 5.19382 11.4388 5.21003 11.413 5.21625C11.3872 5.22248 11.36 5.2182 11.3374 5.20437L6.00016 1.94274L0.662931 5.20437C0.640301 5.2182 0.613103 5.22248 0.587322 5.21625C0.561541 5.21003 0.539288 5.19382 0.525458 5.17119L0.0874401 4.45443C0.0586412 4.40731 0.0734978 4.34576 0.120623 4.31696L5.729 0.889617ZM6.16702 1.06027C6.06458 0.997674 5.93573 0.997674 5.83329 1.06027L0.310241 4.43547L0.643969 4.98157L5.94801 1.74021C5.98002 1.72065 6.02029 1.72065 6.0523 1.74021L11.3563 4.98157L11.6901 4.43547L6.16702 1.06027ZM1.98016 5.57999C1.98016 5.52476 2.02493 5.47999 2.08016 5.47999H2.92016C2.97538 5.47999 3.02016 5.52476 3.02016 5.57999V9.33666C3.02016 9.39189 2.97538 9.43666 2.92016 9.43666H2.08016C2.02493 9.43666 1.98016 9.39189 1.98016 9.33666V5.57999ZM2.18016 5.67999V9.23666H2.82016V5.67999H2.18016ZM4.31349 5.57999C4.31349 5.52476 4.35826 5.47999 4.41349 5.47999H5.25349C5.30872 5.47999 5.35349 5.52476 5.35349 5.57999V9.33666C5.35349 9.39189 5.30872 9.43666 5.25349 9.43666H4.41349C4.35826 9.43666 4.31349 9.39189 4.31349 9.33666V5.57999ZM4.51349 5.67999V9.23666H5.15349V5.67999H4.51349ZM6.64682 5.57999C6.64682 5.52476 6.69159 5.47999 6.74682 5.47999H7.58682C7.64205 5.47999 7.68682 5.52476 7.68682 5.57999V9.33666C7.68682 9.39189 7.64205 9.43666 7.58682 9.43666H6.74682C6.69159 9.43666 6.64682 9.39189 6.64682 9.33666V5.57999ZM6.84682 5.67999V9.23666H7.48682V5.67999H6.84682ZM8.98016 5.57999C8.98016 5.52476 9.02493 5.47999 9.08016 5.47999H9.92016C9.97538 5.47999 10.0202 5.52476 10.0202 5.57999V9.33666C10.0202 9.39189 9.97538 9.43666 9.92016 9.43666H9.08016C9.02493 9.43666 8.98016 9.39189 8.98016 9.33666V5.57999ZM9.18016 5.67999V9.23666H9.82016V5.67999H9.18016ZM1.39682 10.83C1.39682 10.7748 1.44159 10.73 1.49682 10.73H10.5035C10.5587 10.73 10.6035 10.7748 10.6035 10.83V11.67C10.6035 11.7252 10.5587 11.77 10.5035 11.77H1.49682C1.44159 11.77 1.39682 11.7252 1.39682 11.67V10.83ZM1.59682 10.93V11.57H10.4035V10.93H1.59682Z" fill="#221F20"/>
</svg>
