<svg width="20" height="20" viewBox="0 0 20 20" fill="none" xmlns="http://www.w3.org/2000/svg">
<circle cx="10" cy="10" r="10" fill="#F3F4F6"/>
<path d="M4.00032 11.1649C4.08431 10.9962 4.21934 10.9341 4.40606 10.938C4.81373 10.9462 5.22205 10.9406 5.62972 10.9406C6.05903 10.9406 6.10394 10.9816 6.14625 11.4233C6.3026 11.3671 6.45863 11.3173 6.6069 11.251C6.63533 11.2384 6.64308 11.1591 6.64502 11.11C6.66602 10.5978 6.68992 10.0852 6.70091 9.5727C6.70898 9.18887 6.86533 8.87817 7.11601 8.60061C7.59863 8.06631 8.15651 7.61942 8.72312 7.18164C8.79063 7.12964 8.85879 7.07862 8.93761 7.01882C8.77189 6.83746 8.6191 6.65839 8.45338 6.49263C8.30834 6.34736 8.28023 6.18225 8.35162 6.00285C8.5364 5.53842 8.88593 5.24526 9.34335 5.07269C9.41312 5.04636 9.48581 5.02849 9.56753 5.00346C9.5559 4.95991 9.54686 4.91993 9.53458 4.88126C9.46965 4.67618 9.51649 4.49873 9.66251 4.34468C9.87054 4.12497 10.1393 4.02877 10.4271 4.0083C11.4273 3.9368 12.2226 4.32908 12.8292 5.12241C12.8906 5.20269 12.9384 5.29597 12.9801 5.38892C13.099 5.65575 13.107 5.9138 12.8854 6.13643C12.6086 6.41431 12.3279 6.68829 12.0485 6.96356C12.0184 6.99314 11.9851 7.01914 11.9419 7.05684C12.188 7.25249 12.4358 7.4306 12.6613 7.63372C13.0327 7.96815 13.3962 8.31201 13.7502 8.66464C13.9967 8.91002 14.111 9.22105 14.1162 9.57173C14.1265 10.2731 14.1385 10.9744 14.1495 11.6758C14.1505 11.7454 14.1495 11.8149 14.1495 11.8984C14.2671 11.8529 14.3743 11.8071 14.4848 11.7697C14.9364 11.6167 15.3021 11.7756 15.5246 12.2192C15.7249 12.6183 15.6267 12.9973 15.2523 13.2693C14.1996 14.0344 13.1316 14.776 11.9832 15.3919C11.865 15.4553 11.7412 15.5089 11.6256 15.5765C10.83 16.0406 9.98134 16.0731 9.1001 15.9187C8.37391 15.7917 7.71169 15.4816 7.02717 15.2333C6.82592 15.1602 6.62015 15.0988 6.41405 15.0396C6.33362 15.0165 6.24736 15.0152 6.13398 15C6.13398 15.0893 6.13656 15.1569 6.13333 15.2239C6.12396 15.4202 6.01284 15.5375 5.81902 15.5388C5.31993 15.5427 4.82051 15.5391 4.32142 15.5408C4.15893 15.5414 4.06816 15.4452 4 15.3136V11.1646L4.00032 11.1649ZM7.23166 11.1922C7.89065 11.1425 8.40557 11.4607 8.95796 11.6592C9.19443 11.7444 9.46029 11.7714 9.71387 11.7795C10.2501 11.797 10.7873 11.7827 11.3242 11.7853C11.833 11.7879 12.2096 12.15 12.24 12.6606C12.2429 12.7116 12.2455 12.7626 12.2497 12.8358C12.6293 12.6495 12.9882 12.4701 13.3506 12.2985C13.4498 12.2517 13.4953 12.189 13.507 12.0798C13.5919 11.2982 13.557 10.5165 13.526 9.73358C13.5112 9.35625 13.3626 9.06895 13.0886 8.83624C12.5517 8.38059 12.0103 7.9298 11.4667 7.48227C11.4266 7.44945 11.3458 7.43807 11.2938 7.45302C10.7495 7.6087 10.1984 7.61195 9.65378 7.4917C9.46287 7.44945 9.32816 7.45757 9.19766 7.59342C9.18312 7.6087 9.16277 7.61845 9.14565 7.63145C8.57646 8.07411 8.00274 8.51286 7.52724 9.06082C7.43323 9.16905 7.34407 9.31822 7.3318 9.45538C7.28237 10.0189 7.26364 10.5854 7.23133 11.1919L7.23166 11.1922ZM10.4307 13.14C10.4307 13.1302 10.4307 13.1205 10.4307 13.1107C10.7366 13.1107 11.0425 13.1143 11.3484 13.1075C11.4111 13.1062 11.4954 13.0834 11.5309 13.0389C11.6421 12.8998 11.6647 12.7317 11.5981 12.566C11.5393 12.4188 11.405 12.3976 11.2625 12.398C10.7421 12.3999 10.2214 12.395 9.70095 12.3999C9.28068 12.4038 8.8814 12.3193 8.4999 12.1432C8.34419 12.0713 8.18881 11.9963 8.02794 11.9374C7.40965 11.7122 6.80848 11.7213 6.24284 12.096C6.196 12.1269 6.14012 12.1906 6.13979 12.2394C6.13301 12.9251 6.13398 13.6109 6.13915 14.2966C6.13915 14.3301 6.19471 14.3899 6.22798 14.3925C6.70155 14.4283 7.12699 14.6278 7.56729 14.7783C8.08867 14.9564 8.60392 15.1651 9.13854 15.2879C9.82435 15.4459 10.5218 15.4813 11.175 15.1157C11.2825 15.0555 11.3972 15.0081 11.5064 14.9506C12.6881 14.3288 13.7867 13.5764 14.8663 12.7932C14.9852 12.707 15.0592 12.6268 14.97 12.475C14.8792 12.3203 14.822 12.2949 14.6392 12.3648C14.5542 12.3973 14.4709 12.4353 14.3892 12.475C13.7282 12.7964 13.0673 13.1179 12.4077 13.4416C12.0165 13.6336 11.6133 13.7467 11.1695 13.7295C10.6552 13.7097 10.139 13.7162 9.62439 13.7308C9.48257 13.7347 9.33398 13.7909 9.20412 13.8553C9.03872 13.9372 8.87527 13.9255 8.77383 13.7867C8.67692 13.6535 8.68726 13.4692 8.83456 13.3707C8.98284 13.2719 9.15405 13.1653 9.32332 13.15C9.68996 13.1169 10.0615 13.14 10.4307 13.14ZM10.1283 4.73631C10.2042 4.86566 10.2701 4.97551 10.3341 5.08634C10.5521 5.46562 10.6539 5.8722 10.6148 6.31096C10.5948 6.53521 10.4675 6.66456 10.2866 6.64831C10.1028 6.63173 10.0082 6.48386 10.0046 6.26513C10.0017 6.07858 9.96745 5.89235 9.94258 5.70677C9.9303 5.61414 9.86925 5.58457 9.78041 5.59627C9.42249 5.64242 9.15792 5.8306 8.93277 6.1647C9.16406 6.38376 9.39019 6.60606 9.62665 6.81666C9.68673 6.86996 9.77912 6.90994 9.85827 6.91351C10.1787 6.92781 10.5021 6.95089 10.8196 6.91969C11.007 6.90116 11.2137 6.82446 11.3614 6.70876C11.7028 6.44161 12.0123 6.1335 12.3382 5.84555C12.4616 5.73667 12.449 5.6317 12.3595 5.50982C12.0236 5.05286 11.5872 4.75158 11.0283 4.64758C10.7314 4.59233 10.4333 4.57543 10.128 4.73631H10.1283ZM5.51181 14.9207V11.566H4.62378V14.9207H5.51181Z" fill="#17823E"/>
<path d="M10.8986 12C10.8417 12 10.7865 11.9807 10.7419 11.9454L9.47336 10.9381C9.41122 10.8888 9.375 10.8137 9.375 10.7344C9.375 10.5907 9.49146 10.4743 9.63511 10.4743H10.1979C10.3407 10.4743 10.4564 10.4557 10.545 10.4186C10.6336 10.3786 10.6979 10.3171 10.7379 10.2343C10.7807 10.1486 10.8021 10.0371 10.8021 9.9C10.8021 9.77143 10.7821 9.66857 10.7421 9.59143C10.7021 9.51429 10.6379 9.45857 10.5493 9.42429C10.4636 9.39 10.3479 9.37286 10.2021 9.37286H9.56143C9.45847 9.37286 9.375 9.28939 9.375 9.18643C9.375 9.08347 9.45847 9 9.56143 9H11.4386C11.5415 9 11.625 9.08347 11.625 9.18643C11.625 9.28939 11.5415 9.37286 11.4386 9.37286H11.0464C11.1036 9.41 11.1521 9.45429 11.1921 9.50571C11.2321 9.55714 11.2621 9.61857 11.2821 9.69C11.305 9.75857 11.3164 9.84 11.3164 9.93429C11.3164 10.1257 11.2764 10.29 11.1964 10.4271C11.1164 10.5643 11.0036 10.67 10.8579 10.7443C10.715 10.8186 10.5407 10.8557 10.335 10.8557H10.0179L10.0264 10.7271L11.056 11.5514C11.2419 11.7002 11.1367 12 10.8986 12ZM9.56571 10.1143C9.46039 10.1143 9.375 10.0289 9.375 9.92357C9.375 9.81824 9.46039 9.73286 9.56571 9.73286H11.4343C11.5396 9.73286 11.625 9.81824 11.625 9.92357C11.625 10.0289 11.5396 10.1143 11.4343 10.1143H9.56571Z" fill="#17823E"/>
</svg>
