<svg width="30" height="30" viewBox="0 0 30 30" fill="none" xmlns="http://www.w3.org/2000/svg">
<circle cx="15" cy="15" r="15" fill="#F3F4F6"/>
<g clip-path="url(#clip0_2686_12098)">
<path fill-rule="evenodd" clip-rule="evenodd" d="M20.3332 8.91909C20.1349 8.91909 19.9448 8.99785 19.8046 9.13804L13.6018 15.3408L13.2494 16.7504L14.659 16.398L20.8618 10.1952C21.002 10.055 21.0807 9.8649 21.0807 9.66663C21.0807 9.46837 21.002 9.27823 20.8618 9.13804C20.7216 8.99785 20.5314 8.91909 20.3332 8.91909ZM18.8618 8.19523C19.252 7.80499 19.7813 7.58575 20.3332 7.58575C20.8851 7.58575 21.4143 7.80499 21.8046 8.19523C22.1948 8.58547 22.4141 9.11475 22.4141 9.66663C22.4141 10.2185 22.1948 10.7478 21.8046 11.138L15.4712 17.4714C15.3858 17.5568 15.2787 17.6174 15.1615 17.6467L12.4949 18.3134C12.2677 18.3702 12.0274 18.3036 11.8618 18.138C11.6962 17.9725 11.6296 17.7321 11.6864 17.5049L12.3531 14.8383C12.3824 14.7211 12.443 14.614 12.5284 14.5286L18.8618 8.19523ZM8.25229 9.58575C8.62736 9.21068 9.13607 8.99997 9.6665 8.99997H14.3332C14.7014 8.99997 14.9998 9.29844 14.9998 9.66663C14.9998 10.0348 14.7014 10.3333 14.3332 10.3333H9.6665C9.48969 10.3333 9.32012 10.4035 9.1951 10.5286C9.07008 10.6536 8.99984 10.8232 8.99984 11V20.3333C8.99984 20.5101 9.07007 20.6797 9.1951 20.8047C9.32012 20.9297 9.48969 21 9.6665 21H18.9998C19.1766 21 19.3462 20.9297 19.4712 20.8047C19.5963 20.6797 19.6665 20.5101 19.6665 20.3333V15.6666C19.6665 15.2984 19.965 15 20.3332 15C20.7014 15 20.9998 15.2984 20.9998 15.6666V20.3333C20.9998 20.8637 20.7891 21.3724 20.4141 21.7475C20.039 22.1226 19.5303 22.3333 18.9998 22.3333H9.6665C9.13607 22.3333 8.62736 22.1226 8.25229 21.7475C7.87722 21.3724 7.6665 20.8637 7.6665 20.3333V11C7.6665 10.4695 7.87722 9.96083 8.25229 9.58575Z" fill="#231F20"/>
<path fill-rule="evenodd" clip-rule="evenodd" d="M20.3332 8.91927C20.1349 8.91927 19.9448 8.99803 19.8046 9.13822L13.6018 15.341L13.2494 16.7506L14.659 16.3982L20.8618 10.1954C21.002 10.0552 21.0807 9.86508 21.0807 9.66682C21.0807 9.46856 21.002 9.27841 20.8618 9.13822C20.7216 8.99803 20.5314 8.91927 20.3332 8.91927ZM18.8618 8.19541C19.252 7.80517 19.7813 7.58594 20.3332 7.58594C20.8851 7.58594 21.4143 7.80517 21.8046 8.19541C22.1948 8.58565 22.4141 9.11493 22.4141 9.66682C22.4141 10.2187 22.1948 10.748 21.8046 11.1382L15.4713 17.4716C15.3858 17.557 15.2788 17.6176 15.1615 17.6469L12.4949 18.3136C12.2677 18.3704 12.0274 18.3038 11.8618 18.1382C11.6962 17.9726 11.6296 17.7323 11.6864 17.5051L12.3531 14.8385C12.3824 14.7212 12.443 14.6142 12.5284 14.5287L18.8618 8.19541Z" fill="#EF4444"/>
</g>
<defs>
<clipPath id="clip0_2686_12098">
<rect width="16" height="16" fill="white" transform="translate(7 7)"/>
</clipPath>
</defs>
</svg>
