<svg width="470" height="437" viewBox="0 0 470 437" fill="none" xmlns="http://www.w3.org/2000/svg">
<g clip-path="url(#clip0_87_37410)">
<path d="M432.736 312.156C425.978 290.511 408.501 274.275 392.684 258.028C376.867 241.781 361.311 222.667 360.204 200.012C358.62 167.442 387.466 138.793 384.505 106.309C381.923 78.0618 354.411 56.8299 326.26 53.5826C298.108 50.3354 270.184 61.3912 245.743 75.7377C221.302 90.0841 198.889 107.906 173.428 120.352C136.728 138.304 95.558 144.244 55.56 152.509C26.1284 158.591 -4.40979 166.78 -26.291 187.403C-43.0626 203.227 -53.3902 226.055 -52.8478 249.122C-52.3054 272.19 -40.4698 294.996 -21.1814 307.627C8.7059 327.208 48.1832 320.073 82.5291 310.277C116.875 300.481 153.825 288.752 187.357 301.067C220.944 313.405 241.805 346.615 271.074 367.207C303.087 389.731 347.902 394.184 386.284 391.534C422.376 389.036 442.825 344.454 432.736 312.156Z" fill="#EDEDED"/>
<path d="M188.547 211.927C190.733 176.674 186.706 112.573 252.947 121.056C323.954 130.153 303.63 213.217 303.63 213.217L188.531 211.927H188.547Z" fill="#231F20"/>
<path d="M234.259 190.743C250.227 190.743 263.172 177.793 263.172 161.817C263.172 145.842 250.227 132.891 234.259 132.891C218.291 132.891 205.347 145.842 205.347 161.817C205.347 177.793 218.291 190.743 234.259 190.743Z" fill="white"/>
<path d="M249.581 164.965C249.266 171.024 245.979 175.761 242.219 175.572C238.459 175.383 235.675 170.316 235.974 164.257C236.289 158.197 239.576 153.46 243.336 153.649C247.095 153.838 249.88 158.906 249.581 164.965Z" fill="#231F20"/>
<path d="M228.832 164.965C228.518 171.024 225.23 175.761 221.471 175.572C217.711 175.383 214.927 170.316 215.226 164.257C215.54 158.197 218.828 153.46 222.587 153.649C226.347 153.838 229.131 158.906 228.832 164.965Z" fill="#231F20"/>
<path d="M234.259 192.317C217.459 192.317 203.774 178.641 203.774 161.817C203.774 144.993 217.444 131.317 234.259 131.317C251.075 131.317 264.745 144.993 264.745 161.817C264.745 178.641 251.075 192.317 234.259 192.317ZM234.259 134.48C219.19 134.48 206.92 146.74 206.92 161.833C206.92 176.926 219.174 189.185 234.259 189.185C249.345 189.185 261.599 176.926 261.599 161.833C261.599 146.74 249.345 134.48 234.259 134.48Z" fill="#EF4444"/>
<path opacity="0.3" d="M295.561 211.045C295.561 211.045 295.435 211.045 295.372 211.029C294.947 210.935 294.695 210.51 294.79 210.085C294.837 209.881 299.855 188.54 294.648 166.963C294.554 166.539 294.806 166.114 295.23 166.019C295.639 165.925 296.08 166.177 296.174 166.601C301.475 188.556 296.363 210.243 296.316 210.463C296.221 210.825 295.907 211.061 295.545 211.061L295.561 211.045Z" fill="white"/>
<path opacity="0.3" d="M291.172 155.144C290.873 155.144 290.59 154.971 290.464 154.688C288.435 150.266 285.934 146.221 283.008 142.633C282.74 142.302 282.788 141.799 283.118 141.531C283.448 141.248 283.952 141.311 284.219 141.641C287.224 145.324 289.819 149.494 291.895 154.027C292.084 154.42 291.895 154.893 291.502 155.066C291.392 155.113 291.282 155.144 291.172 155.144Z" fill="white"/>
<path d="M41.1216 377.3C40.9329 377.3 40.7284 377.3 40.5396 377.3C36.198 377.174 32.7688 373.555 32.8947 369.211C33.0205 364.867 36.5913 361.515 40.9801 361.562C41.0273 361.562 41.0745 361.562 41.1374 361.562C45.6835 361.562 56.6161 356.038 79.4881 319.967C80.715 318.031 82.7285 316.725 84.9937 316.395C87.2589 316.064 89.5712 316.741 91.2859 318.252C119.506 342.866 149.41 358.194 149.709 358.352C153.578 360.319 155.12 365.056 153.153 368.928C151.187 372.799 146.452 374.357 142.583 372.39C141.387 371.792 115.259 358.415 87.8409 335.957C68.6656 364.789 54.4453 377.3 41.1216 377.3Z" fill="#231F20"/>
<path d="M89.7757 316.835C89.5555 316.835 89.3352 316.835 89.0993 316.788C86.5195 316.426 84.7263 314.034 85.088 311.453C86.2049 303.615 84.8206 274.264 74.9105 251.444C74.0139 249.367 74.706 246.943 76.5779 245.653C98.1285 230.969 144.03 229.207 145.965 229.144C148.56 229.081 150.747 231.095 150.841 233.692C150.935 236.305 148.891 238.476 146.295 238.571C145.87 238.571 105.742 240.129 85.1195 251.476C93.8971 274.201 95.8948 302.53 94.4319 312.775C94.1016 315.136 92.0723 316.835 89.76 316.835H89.7757Z" fill="#231F20"/>
<path d="M97.7038 310.729C94.5578 303.316 80.4161 304.166 72.1105 310.509C67.6745 313.908 61.6655 324.106 61.0363 327.805C60.4071 331.503 62.9711 334.855 67.3599 334.477C72.7869 334.005 80.2274 326.121 80.2274 326.121C75.2723 330.984 81.6588 334.414 91.2072 327.38C96.4926 323.477 101.212 319.023 97.7038 310.729Z" fill="#EF4444"/>
<path d="M163.488 374.672C164.527 374.341 164.18 373.334 163.016 373.334H141.717C101.165 369.038 72.8341 374.798 90.6881 376.151C108.542 377.505 89.4296 377.222 76.3891 382.163C63.3486 387.105 173.367 388.348 183.387 382.163C192.621 376.466 149.126 379.283 163.488 374.672Z" fill="#EBEBEB"/>
<path d="M315.979 380.951L130.675 374.814L122.983 195.04L341.808 199.934L315.979 380.951Z" fill="#EF4444"/>
<path d="M188.547 377.505C188.138 377.505 187.792 377.19 187.76 376.781L172.911 196.236C172.879 195.795 173.194 195.418 173.634 195.386C174.075 195.355 174.452 195.669 174.484 196.11L189.333 376.655C189.365 377.096 189.05 377.473 188.61 377.505C188.594 377.505 188.563 377.505 188.547 377.505Z" fill="#231F20"/>
<path d="M315.979 380.951L365.781 373.366L381.48 206.214L341.808 199.934L315.979 380.951Z" fill="#EF4444"/>
<path opacity="0.2" d="M315.979 380.951L365.781 373.366L381.48 206.214L341.808 199.934L315.979 380.951Z" fill="black"/>
<path d="M146.515 340.159L141.953 233.362C141.482 222.219 150.511 212.981 161.664 213.233L300.185 216.333C311.747 216.585 320.493 226.909 318.857 238.366L303.505 345.998C302.12 355.755 293.61 362.9 283.763 362.57L165.171 358.635C155.088 358.305 146.956 350.247 146.531 340.159H146.515Z" fill="#231F20"/>
<path d="M36.4182 384.776L26.5868 380.07L17.7935 337.326L22.5598 332.069L36.4182 384.776Z" fill="#EF4444"/>
<path d="M36.4182 384.776L49.4902 377.143L38.2901 341.906L22.5598 332.069L36.4182 384.776Z" fill="#EF4444"/>
<path opacity="0.2" d="M36.4182 384.776L49.4902 377.143L38.2901 341.906L22.5598 332.069L36.4182 384.776Z" fill="black"/>
<path d="M250.666 392.55C250.289 392.55 249.927 392.55 249.581 392.55C245.239 392.424 241.81 388.805 241.936 384.461C242.062 380.117 245.648 376.702 250.021 376.812C262.134 377.206 287.79 369.762 302.435 355.535C303.347 354.653 304.448 354.008 305.66 353.646C330.498 346.186 339.732 361.248 340.125 361.893L326.581 369.903C326.581 369.903 326.628 370.014 326.77 370.187C326.613 369.982 323.105 365.402 311.905 368.235C293.516 385.027 265.295 392.55 250.698 392.55H250.666Z" fill="#231F20"/>
<path d="M249.801 403L221.156 401.206L218.891 348.358L257.399 349.79L249.801 403Z" fill="#EF4444"/>
<path d="M249.801 403L256.502 396.343L260.639 363.388L257.399 349.79L249.801 403Z" fill="#EF4444"/>
<path opacity="0.2" d="M249.801 403L256.502 396.343L260.639 363.388L257.399 349.79L249.801 403Z" fill="black"/>
<path d="M415.772 382.997C414.781 382.997 413.775 382.683 412.925 382.037C396.581 369.604 374.464 347.524 365.986 326.231C365.86 325.916 365.765 325.601 365.718 325.271C361.581 300.672 357.633 248.879 357.46 246.692C357.255 244.095 359.206 241.829 361.801 241.624C364.397 241.435 366.662 243.371 366.867 245.968C366.914 246.503 370.894 298.8 374.936 323.193C383.399 343.904 406.334 365.166 418.635 374.515C420.712 376.088 421.121 379.047 419.532 381.124C418.604 382.352 417.188 382.982 415.772 382.982V382.997Z" fill="#231F20"/>
<path d="M427.977 388.33C424.327 388.33 420.19 386.678 415.691 383.42C413.584 381.894 413.112 378.935 414.638 376.826C416.163 374.717 419.121 374.245 421.229 375.772C425.13 378.589 427.253 378.903 427.993 378.903C430.604 378.903 432.712 381.012 432.712 383.625C432.712 386.237 430.604 388.346 427.993 388.346L427.977 388.33Z" fill="#231F20"/>
<path d="M417.013 383.278C422.062 368.264 442.764 371.239 449.89 373.458C457.015 375.693 463.433 378.494 467.303 381.012C471.157 383.53 471.22 387.764 466.076 390.172C459.721 393.146 443.802 390.502 443.802 390.502C452.045 394.106 443.786 399.898 429.314 394.216C424.611 392.359 415.22 388.771 416.997 383.263L417.013 383.278Z" fill="#EF4444"/>
<path d="M376.384 253.16C374.512 265.907 363.957 275.319 355.368 274.044C346.779 272.785 346.433 261.391 348.305 248.643C350.177 235.895 353.574 226.61 362.163 227.869C370.752 229.128 378.271 240.396 376.384 253.144V253.16Z" fill="#231F20"/>
<path d="M168.758 202.264C169.47 202.264 170.048 201.686 170.048 200.973C170.048 200.26 169.47 199.682 168.758 199.682C168.046 199.682 167.468 200.26 167.468 200.973C167.468 201.686 168.046 202.264 168.758 202.264Z" fill="#231F20"/>
<path d="M181.861 210.258C181.861 210.967 181.279 211.549 180.572 211.549C179.864 211.549 179.282 210.967 179.282 210.258C179.282 209.55 179.864 208.968 180.572 208.968C181.279 208.968 181.861 209.55 181.861 210.258Z" fill="#231F20"/>
<path d="M183.309 362.758C183.309 363.467 182.727 364.049 182.019 364.049C181.311 364.049 180.729 363.467 180.729 362.758C180.729 362.05 181.311 361.468 182.019 361.468C182.727 361.468 183.309 362.05 183.309 362.758Z" fill="#231F20"/>
<path d="M195.122 372.059C195.122 372.768 194.54 373.35 193.832 373.35C193.124 373.35 192.542 372.768 192.542 372.059C192.542 371.351 193.124 370.769 193.832 370.769C194.54 370.769 195.122 371.351 195.122 372.059Z" fill="#231F20"/>
<path d="M264.984 248.25C264.006 248.657 263.032 249.028 262.089 249.464C260.537 250.183 259.065 251.038 257.849 252.275C256.95 253.189 256.394 254.266 256.303 255.562C256.252 256.288 256.35 256.994 256.72 257.612C257.327 258.626 257.981 259.611 258.631 260.598C258.827 260.895 259.102 261.141 259.29 261.443C260.665 263.655 263.113 263.905 264.988 263.142C266.618 262.478 267.967 261.401 269.21 260.185C270.002 259.409 270.741 258.577 271.547 257.723C271.525 258.137 271.524 258.516 271.483 258.891C271.123 262.254 269.82 265.173 267.311 267.485C265.874 268.808 264.108 269.488 262.227 269.882C260.221 270.302 258.185 270.39 256.151 270.359C253.911 270.324 251.797 270.75 249.804 271.791C248.901 272.263 247.968 272.691 247.104 273.227C244.779 274.67 242.483 276.16 240.176 277.633C232.366 282.622 224.561 287.622 216.742 292.597C213.147 294.884 209.499 297.089 205.921 299.404C204.281 300.464 202.737 301.675 201.173 302.851C199.443 304.152 198.248 305.867 197.352 307.832C196.503 309.693 195.557 311.507 194.336 313.166C192.374 315.834 189.802 317.393 186.486 317.685C184.109 317.895 181.837 317.547 179.657 316.597C179.603 316.573 179.548 316.549 179.496 316.52C179.478 316.51 179.468 316.488 179.396 316.403C179.684 316.337 179.939 316.292 180.188 316.221C182.261 315.631 184.269 314.883 186.064 313.648C187.242 312.839 188.172 311.829 188.552 310.4C188.808 309.433 188.76 308.489 188.326 307.59C187.92 306.751 187.507 305.913 187.05 305.101C186.675 304.436 186.251 303.797 185.813 303.171C184.68 301.552 182.634 300.951 180.601 301.611C178.832 302.184 177.344 303.232 175.945 304.42C175.18 305.069 174.459 305.773 173.645 306.518C173.758 305.851 173.832 305.246 173.967 304.656C174.621 301.791 176.014 299.351 178.238 297.42C179.835 296.034 181.756 295.388 183.812 295.113C185.662 294.865 187.514 294.958 189.367 295.049C190.559 295.108 191.761 295.204 192.948 295.119C194.652 294.999 196.225 294.32 197.778 293.645C201.816 291.892 205.625 289.711 209.332 287.337C216.722 282.603 224.118 277.879 231.531 273.182C235.308 270.789 238.999 268.285 242.405 265.374C243.786 264.194 245.111 262.959 246.211 261.499C246.881 260.611 247.258 259.581 247.667 258.568C248.493 256.527 249.289 254.479 250.469 252.6C252.326 249.643 254.97 247.971 258.403 247.519C260.616 247.227 262.771 247.43 264.865 248.193C264.904 248.207 264.941 248.23 264.983 248.251L264.984 248.25ZM250.737 253.378C250.548 253.818 250.342 254.252 250.175 254.701C250.038 255.072 250.19 255.366 250.523 255.479C250.844 255.586 251.137 255.423 251.27 255.049C251.628 254.046 252.213 253.187 252.957 252.437C254.532 250.849 256.45 249.842 258.54 249.135C258.988 248.983 259.174 248.695 259.053 248.339C258.94 248.008 258.607 247.856 258.19 248.031C257.109 248.483 256.005 248.902 254.978 249.458C253.247 250.396 251.785 251.663 250.737 253.378ZM192.895 311.939C193.009 311.741 193.131 311.548 193.235 311.345C193.432 310.962 193.357 310.647 193.041 310.481C192.724 310.313 192.429 310.437 192.214 310.804C191.985 311.198 191.769 311.605 191.493 311.966C190.412 313.379 188.972 314.325 187.353 314.979C186.368 315.378 185.334 315.651 184.316 315.964C183.93 316.083 183.726 316.312 183.78 316.646C183.838 316.997 184.125 317.173 184.538 317.109C184.632 317.094 184.727 317.075 184.819 317.054C186.368 316.696 187.85 316.155 189.236 315.367C190.728 314.518 192.011 313.439 192.895 311.939Z" fill="#464646"/>
</g>
<defs>
<clipPath id="clip0_87_37410">
<rect width="470" height="437" fill="white"/>
</clipPath>
</defs>
</svg>
