<svg width="432" height="437" viewBox="0 0 432 437" fill="none" xmlns="http://www.w3.org/2000/svg">
<g clip-path="url(#clip0_87_37169)">
<g opacity="0.4">
<path d="M429.63 274.61C423.4 254.68 407.29 239.73 392.71 224.77C378.13 209.81 363.79 192.21 362.77 171.35C361.31 141.36 387.9 114.98 385.17 85.0699C382.79 59.0599 357.43 39.5099 331.48 36.5199C305.53 33.5299 279.79 43.7099 257.26 56.9199C234.73 70.1299 214.07 86.5399 190.6 97.9999C156.77 114.53 118.82 120 81.95 127.61C54.82 133.21 26.67 140.75 6.5 159.74C-8.96 174.31 -18.48 195.33 -17.98 216.57C-17.48 237.81 -6.57001 258.81 11.21 270.44C38.76 288.47 75.15 281.9 106.81 272.88C138.47 263.86 172.53 253.06 203.44 264.4C234.4 275.76 253.63 306.34 280.61 325.3C310.12 346.04 351.43 350.14 386.81 347.7C420.08 345.4 438.93 304.35 429.63 274.61Z" fill="#D6D6D6"/>
<path d="M37.39 297.78C26.8 293.51 16.21 289.24 5.62997 284.97C2.13997 283.56 -1.58003 282.13 -5.29003 282.77C-12.17 283.96 -16.01 292.17 -14.76 299.04C-13.51 305.91 -8.62003 311.5 -3.55003 316.31C3.05997 322.58 10.43 328.25 18.89 331.65C27.35 335.04 37.03 336 45.6 332.9C52.01 330.59 63.64 322.15 61.87 314.05C60.13 306.03 43.8 300.38 37.39 297.79V297.78Z" fill="#969696"/>
</g>
<path d="M404.3 240.57H266.82V426.65H404.3V240.57Z" stroke="#121D30" stroke-width="0.75" stroke-miterlimit="10"/>
<path d="M397.7 249.52H273.43V417.71H397.7V249.52Z" stroke="#121D30" stroke-width="0.75" stroke-miterlimit="10"/>
<path d="M351.12 343.95H320V354.18H351.12V343.95Z" stroke="#121D30" stroke-width="0.75" stroke-miterlimit="10"/>
<path d="M355.04 359.3H316.1V363.51H355.04V359.3Z" stroke="#121D30" stroke-width="0.75" stroke-miterlimit="10"/>
<path d="M287.63 414.51H277.08H282.44" stroke="#121D30" stroke-width="0.75" stroke-miterlimit="10"/>
<path d="M277.08 410.99H280.93" stroke="#121D30" stroke-width="0.75" stroke-miterlimit="10"/>
<path d="M332.02 345.6H339.87" stroke="#121D30" stroke-width="0.75" stroke-miterlimit="10"/>
<path d="M327.15 348.48H344.73" stroke="#121D30" stroke-width="0.75" stroke-miterlimit="10"/>
<path d="M332.49 351.84H339.39" stroke="#121D30" stroke-width="0.75" stroke-miterlimit="10"/>
<path d="M397.7 335.09H273.43" stroke="#121D30" stroke-width="0.75" stroke-miterlimit="10"/>
<path d="M351.12 256.99H320V267.22H351.12V256.99Z" stroke="#121D30" stroke-width="0.75" stroke-miterlimit="10"/>
<path d="M355.04 272.33H316.1V276.54H355.04V272.33Z" stroke="#121D30" stroke-width="0.75" stroke-miterlimit="10"/>
<path d="M378.43 331.7H394.11" stroke="#121D30" stroke-width="0.75" stroke-miterlimit="10"/>
<path d="M391.16 329.14H394.11" stroke="#121D30" stroke-width="0.75" stroke-miterlimit="10"/>
<path d="M326.96 258.91H344.88" stroke="#121D30" stroke-width="0.75" stroke-miterlimit="10"/>
<path d="M323.43 261.89H348.41" stroke="#121D30" stroke-width="0.75" stroke-miterlimit="10"/>
<path d="M272.6 251.76H278.81" stroke="#121D30" stroke-width="0.75" stroke-miterlimit="10"/>
<path d="M272.6 255.92H291.79" stroke="#121D30" stroke-width="0.75" stroke-miterlimit="10"/>
<path d="M45.3101 234.51C66.7101 239.18 88.1101 243.85 109.51 248.52C99.7301 219.37 136.17 200.3 126.39 171.15C104.99 166.48 83.5901 161.81 62.1901 157.14C71.9701 186.29 35.5301 205.36 45.3101 234.51Z" fill="white"/>
<path d="M277.39 204.22C296.25 193.08 315.11 181.94 333.97 170.8C306.97 156.09 320.7 117.32 293.69 102.61C274.83 113.75 255.97 124.89 237.11 136.03C264.11 150.74 250.38 189.51 277.39 204.22Z" fill="white"/>
<path d="M330.09 311.68C311.23 300.54 292.37 289.4 273.51 278.26C300.52 263.55 286.78 224.78 313.79 210.07C332.65 221.21 351.51 232.35 370.37 243.49C343.36 258.2 357.1 296.97 330.09 311.68Z" fill="white"/>
<path d="M309.943 232L313.531 233.481C325.389 238.376 336.612 244.685 346.958 252.271V252.271" stroke="#4D4D4F"/>
<path d="M292.588 262L297.571 263.79C309.265 267.992 320.113 274.251 329.603 282.271V282.271" stroke="#4D4D4F"/>
<path d="M191.18 154.38C191.18 154.38 207.39 130.74 227.65 142.52C253.02 157.28 222.38 192.43 241.13 202.6C259.88 212.77 279.27 213.56 284.68 241.7C291.74 278.48 225.21 330.2 168.95 297.46C112.69 264.72 132.7 203.44 159.12 191.25C190.91 176.57 191.17 154.39 191.17 154.39L191.18 154.38Z" fill="#121D30"/>
<path d="M214.29 217.12V242.34C214.29 246.55 212.58 250.35 209.82 253.11C207.08 255.87 203.27 257.58 199.07 257.58C190.66 257.58 183.85 250.76 183.85 242.34V217.12H214.29Z" fill="#FCA5A5"/>
<path d="M150.58 199.83C151.84 206 157.87 209.98 164.04 208.72C170.21 207.46 174.19 201.43 172.93 195.26C171.67 189.09 165.64 185.11 159.47 186.37C153.3 187.63 149.32 193.66 150.58 199.83Z" fill="#FCA5A5"/>
<path d="M167.69 180.73V199.96C167.69 199.96 160.06 193.18 160.27 179.83L167.69 180.74V180.73Z" fill="#121D30"/>
<path d="M153.71 195.51L162.74 201.62" stroke="#121D30" stroke-width="0.75" stroke-miterlimit="10"/>
<path d="M216.62 197.54C217.88 203.71 223.91 207.69 230.08 206.43C236.25 205.17 240.23 199.14 238.97 192.97C237.71 186.8 231.68 182.82 225.51 184.08C219.34 185.34 215.36 191.37 216.62 197.54Z" fill="#FCA5A5"/>
<path d="M227.79 195.25C227.79 195.25 234.31 188.12 232.02 171.2H222.88L227.79 195.25Z" fill="#121D30"/>
<path d="M225.91 200.29L234.76 191.72" stroke="#121D30" stroke-width="0.75" stroke-miterlimit="10"/>
<path d="M197.74 150.68C181.14 150.68 167.69 164.13 167.69 180.73V202.61C167.69 207.23 170.07 211.53 173.99 213.98L190.62 224.39C194.97 227.11 200.5 227.11 204.85 224.39L221.48 213.98C225.4 211.53 227.78 207.23 227.78 202.61V180.73C227.78 164.13 214.33 150.68 197.73 150.68H197.74Z" fill="#FCA5A5"/>
<path d="M183.85 220.4L190.63 224.64C194.98 227.36 200.51 227.36 204.86 224.64" stroke="#121D30" stroke-width="0.75" stroke-miterlimit="10"/>
<path d="M195.22 150.68L202.76 202.61H193.3" stroke="#121D30" stroke-width="0.75" stroke-miterlimit="10"/>
<path d="M226.45 196C226.45 200.25 223.01 203.69 218.76 203.69C214.51 203.69 211.07 200.25 211.07 196C211.07 191.75 214.51 188.31 218.76 188.31C223.01 188.31 226.45 191.75 226.45 196Z" fill="#EA8B8B"/>
<path d="M183.267 201.442C186.27 198.439 186.27 193.57 183.267 190.567C180.264 187.564 175.395 187.564 172.392 190.567C169.389 193.57 169.389 198.439 172.392 201.442C175.395 204.445 180.264 204.445 183.267 201.442Z" fill="#EA8B8B"/>
<path d="M214.28 188.65C214.28 191.32 213.1 193.47 211.64 193.47C210.18 193.47 208.99 191.32 208.99 188.65C208.99 186.5 209.78 184.67 210.85 184.06H210.87L212.5 184C212.5 184 214.28 185.438 214.28 188.64V188.65Z" fill="#121D30"/>
<path d="M186.49 188.65C186.49 191.32 185.31 193.47 183.85 193.47C182.39 193.47 180.9 191.8 181.2 188.65C181.5 185.5 183 184.5 183 184.5H185C185.79 185.34 186.49 186.91 186.49 188.66V188.65Z" fill="#121D30"/>
<path d="M232.87 146.59C212.6 134.8 191.17 154.37 191.17 154.37C191.17 154.37 190.91 176.57 159.13 191.24C152.43 194.34 143.45 205.36 139.24 212.06C139.24 212.06 148.53 185.26 151.46 167.93C154.4 150.58 169.81 153.26 169.81 153.26C169.81 153.26 179.15 130.44 204.97 130.55C222.86 130.63 232.88 146.59 232.88 146.59H232.87Z" fill="#121D30"/>
<path d="M209.529 173.398C211.999 169.771 214.335 169.367 215.799 174.283L209.529 173.398Z" fill="#121D30"/>
<path d="M181.648 173.039C183.25 168.954 185.437 168.041 187.957 172.508L181.648 173.039Z" fill="#121D30"/>
<path d="M175.57 174.16C174.74 169.85 176.11 167.91 180.63 170.34L175.57 174.16Z" fill="#121D30"/>
<path d="M203 210C201.5 210 195.5 210.5 193 210" stroke="#121D30" stroke-width="0.75" stroke-miterlimit="10"/>
<path d="M326.85 313.68C331.79 307.48 330.77 298.44 324.57 293.49L268.75 249.01C262.55 244.07 253.51 245.09 248.56 251.29C243.62 257.49 244.64 266.53 250.84 271.48L306.66 315.96C312.86 320.9 321.9 319.88 326.85 313.68Z" fill="#FCA5A5"/>
<path d="M73.65 316.13C68.71 309.93 69.7299 300.89 75.9299 295.94L131.75 251.46C137.95 246.52 146.99 247.54 151.94 253.74C156.88 259.94 155.86 268.98 149.66 273.93L93.8399 318.41C87.6399 323.35 78.5999 322.33 73.65 316.13Z" fill="#FCA5A5"/>
<path d="M244.27 234.58L202.76 248.37V248.81L159.92 234.58C146.36 230.07 133.4 242.85 137.71 256.47L169.86 358.03H227.33L266.48 256.47C270.79 242.84 257.84 230.07 244.27 234.58Z" fill="#EF4444"/>
<path d="M219.9 263.44L224.17 235.25L175.81 230.56L180.3 263.44H219.9Z" fill="#EF4444"/>
<path d="M178.44 245.86C185.14 260.55 196.43 267.21 205.48 267.21C212.66 267.21 218.38 263.18 221.44 256.32C220.97 261.34 220.13 268.34 218.73 275.29C216.36 287.03 211.87 301.03 203.94 301.03C203.17 301.03 202.37 300.9 201.55 300.64C187.18 296.07 180.55 260.39 178.43 245.86M176.89 239.81C176.89 239.81 182.63 295.41 201.33 301.35C202.24 301.64 203.11 301.78 203.94 301.78C220.28 301.78 222.74 249.06 222.74 249.06C220.95 260.75 213.79 266.45 205.47 266.45C194.97 266.45 182.63 257.37 176.89 239.81Z" fill="#121D30"/>
<path d="M158.3 340.32L238.19 335.99L231.19 356.23L164.69 355.51L158.3 340.32Z" fill="#2E363D"/>
<path d="M231.19 356.23C231.19 356.23 258.55 381.53 260.18 426.65H137.81C137.81 384.24 164.69 355.51 164.69 355.51L231.19 356.23Z" fill="#B91C1C"/>
<path d="M199.79 360.8L201.43 394.3C201.43 394.3 194.91 391.66 195.07 380.44" stroke="white" stroke-width="0.75" stroke-miterlimit="10"/>
<path d="M245.85 374.88H226.03C226.03 374.88 235.27 396.48 254.92 394.58" stroke="white" stroke-width="0.75" stroke-miterlimit="10"/>
<path d="M140.73 397.68C140.73 397.68 155.37 401.21 168.35 380.41" stroke="white" stroke-width="0.75" stroke-miterlimit="10"/>
<path d="M180.79 352.78H166.95V359.7H180.79V352.78Z" fill="#5C5C5C"/>
<path d="M227.72 352.78H213.88V359.7H227.72V352.78Z" fill="#5C5C5C"/>
<path d="M208.25 352.78H187.22V359.7H208.25V352.78Z" fill="#5C5C5C"/>
<path d="M202.91 351.39H192.58V361.1H202.91V351.39Z" fill="white"/>
<path d="M77.9899 294.27C86.4799 288.96 97.6599 291.54 102.97 300.03L139.06 364.97L128.01 377.77L72.2399 319.26C66.9299 310.77 69.5099 299.59 77.9999 294.28L77.9899 294.27Z" fill="#FCA5A5"/>
<path d="M134.57 360.99C149.19 360.93 162.4 353.57 162.4 353.57L170.61 379.23C146.55 388.35 134.39 382.34 127.97 377.8L134.56 360.99H134.57Z" fill="#D28A7B"/>
<path d="M162.4 353.57C162.4 353.57 175.87 352.37 185.49 358.73L187.23 374.75C187.23 374.75 175.99 371.08 168.79 373.52C168.79 373.52 181.23 375.88 186.04 381.11L182.63 384.55C182.63 384.55 171.88 379.8 160.24 381.45L162.41 353.58L162.4 353.57Z" fill="#D28A7B"/>
<path d="M185.83 362.81C185.83 362.81 174.61 359.17 166.17 358.94" stroke="#121D30" stroke-width="0.75" stroke-miterlimit="10"/>
<path d="M186.61 369.07C186.61 369.07 176.72 365.08 166.45 365.83" stroke="#121D30" stroke-width="0.75" stroke-miterlimit="10"/>
<path d="M116.17 247.06L134.98 267.27L145.99 295.72L126.79 273.95L116.17 247.06Z" fill="#E69230"/>
<path d="M143.42 237.57L110.97 257.13L133.78 294.62L155.07 280.1L143.42 237.57Z" fill="#EF4444"/>
<path d="M116.17 247.06L126.79 273.95L145.99 295.72L129.88 301.68L114.81 281.09L104.3 254.82L116.17 247.06Z" fill="white"/>
<path d="M107.48 308.14L102.97 300.02" stroke="#121D30" stroke-width="0.75" stroke-miterlimit="10"/>
<path d="M322.51 291.82C314.02 286.51 302.84 289.09 297.53 297.58L261.44 362.52L272.49 375.32L328.26 316.81C333.57 308.32 330.99 297.14 322.5 291.83L322.51 291.82Z" fill="#FCA5A5"/>
<path d="M265.94 358.54C251.32 358.48 238.11 351.12 238.11 351.12L229.9 376.78C253.96 385.9 266.12 379.89 272.54 375.35L265.95 358.54H265.94Z" fill="#D28A7B"/>
<path d="M238.11 351.12C238.11 351.12 224.64 349.92 215.02 356.28L213.28 372.3C213.28 372.3 224.52 368.63 231.72 371.07C231.72 371.07 219.29 373.43 214.47 378.66L217.88 382.1C217.88 382.1 228.63 377.35 240.27 379L238.1 351.13L238.11 351.12Z" fill="#D28A7B"/>
<path d="M214.68 360.36C214.68 360.36 225.9 356.72 234.34 356.49" stroke="#121D30" stroke-width="0.75" stroke-miterlimit="10"/>
<path d="M213.9 366.62C213.9 366.62 223.79 362.63 234.06 363.38" stroke="#121D30" stroke-width="0.75" stroke-miterlimit="10"/>
<path d="M284.33 244.61L265.53 264.83L254.52 293.27L273.71 271.5L284.33 244.61Z" fill="#E69230"/>
<path d="M257.09 235.12L289.54 254.68L266.73 292.17L245.44 277.65L257.09 235.12Z" fill="#EF4444"/>
<path d="M284.33 244.61L273.71 271.5L254.52 293.27L270.63 299.23L285.69 278.64L296.2 252.37L284.33 244.61Z" fill="white"/>
<path d="M293.02 305.69L297.53 297.57" stroke="#121D30" stroke-width="0.75" stroke-miterlimit="10"/>
<path d="M302.459 247L307.549 248.85C318.535 252.842 328.732 258.739 337.671 266.27V266.27" stroke="#4D4D4F"/>
<path d="M139.53 423.86H258.97V425.18C258.97 426 258.31 426.66 257.49 426.66H141.01C140.19 426.66 139.53 426 139.53 425.18V423.86Z" fill="#DEDEDE"/>
<path d="M223.96 381.49H174.66V398.36C190.92 394.65 207.42 391.58 223.96 388.73V381.49Z" fill="#969696"/>
<path d="M174.67 398.36V415.83H223.97V388.73C207.43 391.58 190.93 394.65 174.67 398.36Z" fill="#DEDEDE"/>
<path d="M258.33 424.66H140.29C139.49 424.66 139.31 423.54 140.07 423.29L174.66 411.91H223.96L258.55 423.29C259.31 423.54 259.13 424.66 258.33 424.66Z" fill="#DEDEDE"/>
<path d="M218.37 411.91H222.8" stroke="#121D30" stroke-width="0.75" stroke-miterlimit="10"/>
<path d="M174.67 411.91H213.82" stroke="#121D30" stroke-width="0.75" stroke-miterlimit="10"/>
<path d="M174.67 398.36L211.77 390.88" stroke="#121D30" stroke-width="0.75" stroke-miterlimit="10"/>
<path d="M223.96 381.49V411.91" stroke="#121D30" stroke-width="0.75" stroke-miterlimit="10"/>
<path d="M173.65 424.66H257.53" stroke="#121D30" stroke-width="0.75" stroke-miterlimit="10"/>
<path d="M174.67 383.53V409.32" stroke="#121D30" stroke-width="0.75" stroke-miterlimit="10"/>
<path d="M296.09 240.68H102.47C97.853 240.68 94.1101 244.423 94.1101 249.04V376.92C94.1101 381.537 97.853 385.28 102.47 385.28H296.09C300.707 385.28 304.45 381.537 304.45 376.92V249.04C304.45 244.423 300.707 240.68 296.09 240.68Z" fill="#DEDEDE"/>
<path d="M304.46 271.39V376.92C304.46 381.54 300.72 385.28 296.1 385.28H203.47" stroke="#121D30" stroke-width="0.75" stroke-miterlimit="10"/>
<path d="M94.1101 358.03V249.04C94.1101 244.42 97.8501 240.68 102.47 240.68H296.09" stroke="#121D30" stroke-width="0.75" stroke-miterlimit="10"/>
<path d="M240.59 293.13C234.86 293.13 229.59 295.1 225.41 298.4C225.41 298.32 225.41 298.24 225.41 298.16C225.41 283.73 213.71 272.03 199.28 272.03C184.85 272.03 173.15 283.73 173.15 298.16C173.15 298.24 173.15 298.32 173.15 298.4C168.97 295.1 163.71 293.13 157.97 293.13C144.43 293.13 133.46 304.1 133.46 317.64C133.46 331.18 144.43 342.15 157.97 342.15C158.29 342.15 158.6 342.14 158.92 342.13C159.24 342.14 159.55 342.15 159.87 342.15H239.06C239.32 342.15 239.57 342.14 239.82 342.13C240.07 342.13 240.33 342.15 240.58 342.15C254.12 342.15 265.09 331.18 265.09 317.64C265.09 304.1 254.12 293.13 240.58 293.13H240.59Z" fill="white"/>
<path d="M199.239 317.202C198.539 316.981 197.868 316.61 197.405 316.023C196.762 315.209 196.61 314.053 196.869 313.036C197.129 312.02 197.772 311.142 198.551 310.462C197.862 309.335 197.118 308.278 196.334 307.249C195.386 307.976 194.472 308.655 193.423 308.714C192.407 308.766 191.42 308.191 190.788 307.371C190.156 306.552 189.84 305.512 189.716 304.472C189.683 304.373 189.626 304.356 189.592 304.35C188.526 304.269 187.46 304.187 186.394 304.106C186.202 305.129 185.745 306.047 185.051 306.709C184.352 307.371 183.409 307.767 182.462 307.737C182.072 307.726 181.689 307.645 181.305 307.557C180.685 307.418 180.025 307.244 179.585 306.767C178.739 307.36 177.977 307.993 177.244 308.65C177.622 308.911 177.78 309.277 177.909 309.632C178.191 310.393 178.411 311.218 178.231 312.014C178.045 312.833 177.447 313.513 176.73 313.914C176.014 314.315 175.19 314.477 174.372 314.53C174.147 315.732 174.034 317.011 174 318.3C174.694 318.556 175.354 318.771 175.946 319.131C176.538 319.486 177.069 319.997 177.334 320.648C177.633 321.38 177.559 322.24 177.249 322.966C176.939 323.692 176.409 324.302 175.805 324.802C176.533 326.016 177.232 327.143 177.949 328.253C179.06 327.504 180.453 327.271 181.672 327.672C181.977 327.771 182.27 327.91 182.518 328.114C182.828 328.369 183.06 328.718 183.24 329.084C183.669 329.961 183.833 330.972 183.697 331.943C184.989 332.21 186.247 332.378 187.505 332.483C187.432 331.135 187.99 329.781 189.028 329.043C190.06 328.306 191.538 328.253 192.582 328.985C193.073 329.334 193.457 329.822 193.823 330.304C194.957 329.479 196.08 328.637 197.129 327.707C196.542 326.766 195.944 325.825 195.922 324.767C195.899 323.663 196.542 322.612 197.439 322.013C198.342 321.415 199.459 321.235 200.525 321.345C200.892 320.061 201.202 318.812 201.461 317.545C200.677 317.481 199.944 317.406 199.244 317.191L199.239 317.202ZM192.548 320.026C192.12 321.008 191.414 321.856 190.568 322.495C190.077 322.867 189.536 323.169 188.955 323.361C186.574 324.145 183.782 322.768 182.676 320.456C181.869 318.771 181.909 316.685 182.772 315.035C183.635 313.379 185.305 312.2 187.11 311.961C188.729 311.747 190.783 312.647 191.95 314.274C193.118 315.901 193.355 318.184 192.548 320.026Z" fill="#D6D6D6"/>
<path d="M218.182 305.632C217.651 305.47 217.141 305.196 216.789 304.765C216.3 304.167 216.184 303.316 216.382 302.568C216.579 301.82 217.068 301.175 217.659 300.675C217.136 299.846 216.57 299.068 215.974 298.312C215.254 298.846 214.559 299.346 213.762 299.389C212.99 299.427 212.24 299.004 211.76 298.402C211.279 297.799 211.039 297.034 210.945 296.269C210.919 296.196 210.876 296.184 210.851 296.179C210.04 296.12 209.23 296.06 208.42 296C208.274 296.752 207.927 297.427 207.399 297.914C206.868 298.402 206.152 298.692 205.431 298.671C205.135 298.662 204.844 298.602 204.552 298.538C204.081 298.436 203.579 298.308 203.245 297.957C202.601 298.393 202.023 298.859 201.465 299.342C201.752 299.534 201.873 299.803 201.971 300.064C202.186 300.624 202.353 301.231 202.216 301.816C202.074 302.419 201.62 302.919 201.075 303.214C200.531 303.508 199.905 303.628 199.283 303.667C199.111 304.551 199.026 305.491 199 306.44C199.527 306.628 200.029 306.786 200.479 307.051C200.929 307.312 201.332 307.688 201.534 308.167C201.761 308.705 201.705 309.338 201.47 309.872C201.234 310.406 200.831 310.855 200.372 311.222C200.925 312.115 201.457 312.944 202.001 313.761C202.846 313.209 203.905 313.038 204.831 313.333C205.062 313.406 205.285 313.508 205.474 313.658C205.71 313.846 205.886 314.102 206.023 314.372C206.349 315.017 206.473 315.761 206.37 316.474C207.352 316.671 208.308 316.795 209.264 316.872C209.209 315.88 209.633 314.885 210.422 314.342C211.207 313.799 212.33 313.761 213.123 314.299C213.496 314.555 213.788 314.914 214.066 315.269C214.928 314.662 215.781 314.043 216.579 313.359C216.133 312.667 215.678 311.974 215.661 311.196C215.644 310.385 216.133 309.611 216.815 309.171C217.501 308.731 218.35 308.598 219.16 308.679C219.439 307.735 219.674 306.816 219.872 305.885C219.276 305.838 218.718 305.782 218.187 305.624L218.182 305.632ZM213.097 307.709C212.771 308.432 212.236 309.055 211.592 309.526C211.219 309.799 210.808 310.021 210.366 310.162C208.557 310.739 206.434 309.726 205.594 308.026C204.981 306.786 205.011 305.252 205.667 304.038C206.323 302.82 207.592 301.953 208.964 301.778C210.195 301.62 211.755 302.282 212.643 303.479C213.53 304.675 213.71 306.355 213.097 307.709Z" fill="#D6D6D6"/>
<path d="M240.59 293.13C234.86 293.13 229.59 295.1 225.41 298.4C225.41 298.32 225.41 298.24 225.41 298.16C225.41 283.73 213.71 272.03 199.28 272.03C184.85 272.03 173.15 283.73 173.15 298.16C173.15 298.24 173.15 298.32 173.15 298.4C168.97 295.1 163.71 293.13 157.97 293.13C144.43 293.13 133.46 304.1 133.46 317.64C133.46 331.18 144.43 342.15 157.97 342.15C158.29 342.15 158.6 342.14 158.92 342.13C159.24 342.14 159.55 342.15 159.87 342.15" stroke="#121D30" stroke-width="0.75" stroke-miterlimit="10"/>
<path d="M20.8301 393.96V410.29H131.08V393.96H20.8301Z" fill="#5C5C5C"/>
<path d="M24.9101 395.67V408.58H84.3501V395.67H24.9101Z" fill="white"/>
<path d="M26.5001 396.5V407.77H27.8301V396.5H26.5001Z" fill="#5C5C5C"/>
<path d="M80.4901 396.5V407.77H81.8201V396.5H80.4901Z" fill="#5C5C5C"/>
<path d="M110.44 396.23C113.7 396.23 116.34 398.87 116.34 402.13C116.34 405.39 113.7 408.03 110.44 408.03C107.18 408.03 104.54 405.39 104.54 402.13C104.54 398.87 107.18 396.23 110.44 396.23Z" fill="#969696"/>
<path d="M110.44 397.12C113.2 397.12 115.44 399.36 115.44 402.12C115.44 404.88 113.2 407.12 110.44 407.12C107.68 407.12 105.44 404.88 105.44 402.12C105.44 399.36 107.68 397.12 110.44 397.12Z" fill="#DEDEDE"/>
<path d="M129.27 408.87V406.14" stroke="#121D30" stroke-width="0.75" stroke-miterlimit="10"/>
<path d="M127.22 408.87V407.29" stroke="#121D30" stroke-width="0.75" stroke-miterlimit="10"/>
<path d="M20.8301 410.3V426.63H131.08V410.3H20.8301Z" fill="#EF4444"/>
<path d="M24.9101 412V424.91H84.3501V412H24.9101Z" fill="white"/>
<path d="M26.5001 412.83V424.1H27.8301V412.83H26.5001Z" fill="#DEDEDE"/>
<path d="M80.5001 412.83V424.1H81.8301V412.83H80.5001Z" fill="#DEDEDE"/>
<path d="M110.44 412.56C113.7 412.56 116.34 415.2 116.34 418.46C116.34 421.72 113.7 424.36 110.44 424.36C107.18 424.36 104.54 421.72 104.54 418.46C104.54 415.2 107.18 412.56 110.44 412.56Z" fill="#5C5C5C"/>
<path d="M110.44 413.46C113.2 413.46 115.44 415.7 115.44 418.46C115.44 421.22 113.2 423.46 110.44 423.46C107.68 423.46 105.44 421.22 105.44 418.46C105.44 415.7 107.68 413.46 110.44 413.46Z" fill="#DEDEDE"/>
<path d="M127.45 414.3V415.68" stroke="#121D30" stroke-width="0.75" stroke-miterlimit="10"/>
<path d="M129.49 418.4V414.76" stroke="#121D30" stroke-width="0.75" stroke-miterlimit="10"/>
<path d="M-9.12988 426.66H407.7" stroke="#121D30" stroke-miterlimit="10"/>
<path d="M382.25 186.25C380.36 185.82 378.55 184.95 377.03 183.74L377.52 183.12C378.95 184.26 380.65 185.07 382.42 185.48L382.25 186.25ZM388.04 186.25L387.86 185.48C389.64 185.07 391.33 184.26 392.76 183.11L393.25 183.73C391.73 184.95 389.92 185.82 388.03 186.25H388.04ZM373.4 179.22C372.54 177.45 372.11 175.55 372.1 173.57H372.89C372.89 175.43 373.3 177.21 374.11 178.87L373.4 179.21V179.22ZM396.86 179.2L396.15 178.86C396.95 177.2 397.36 175.41 397.36 173.55L397.93 173.51L398.15 173.53C398.15 175.53 397.72 177.43 396.86 179.2ZM374.09 168.27L373.38 167.93C374.22 166.18 375.46 164.61 376.98 163.39L377.47 164.01C376.04 165.15 374.87 166.63 374.09 168.27ZM396.13 168.2C395.33 166.56 394.15 165.1 392.72 163.96L393.21 163.34C394.74 164.55 395.99 166.11 396.84 167.85L396.13 168.2ZM382.37 161.63L382.19 160.86C383.15 160.64 384.13 160.53 385.12 160.53C386.08 160.53 387.05 160.64 387.98 160.84L387.81 161.61C386.93 161.41 386.03 161.31 385.12 161.31C384.19 161.31 383.27 161.41 382.37 161.62V161.63Z" fill="#2E363D"/>
<path d="M6.86 204.69H6.63V203.9H6.85C8.59 203.9 10.33 203.71 12.02 203.34L12.19 204.11C10.45 204.49 8.65 204.69 6.85 204.69H6.86ZM1.07 204.01C-0.75 203.58 -2.52 202.93 -4.2 202.1L-3.85 201.39C-2.23 202.2 -0.51 202.82 1.25 203.24L1.07 204.01ZM17.5 202.3L17.16 201.59C18.79 200.82 20.34 199.85 21.77 198.73L22.26 199.35C20.79 200.51 19.19 201.51 17.5 202.3ZM-8.9 199.06C-10.35 197.87 -11.66 196.52 -12.8 195.05L-12.18 194.57C-11.07 196 -9.8 197.31 -8.4 198.46L-8.9 199.07V199.06ZM26.23 195.41L25.61 194.92C26.75 193.51 27.73 191.97 28.52 190.34L29.23 190.68C28.41 192.36 27.4 193.95 26.23 195.41ZM-15.72 190.26C-16.51 188.56 -17.1 186.77 -17.48 184.94L-16.71 184.78C-16.34 186.55 -15.77 188.28 -15 189.93L-15.72 190.26ZM31.09 185.39L30.32 185.21C30.72 183.45 30.93 181.64 30.93 179.82H31.72C31.72 181.7 31.51 183.57 31.09 185.38V185.39ZM-17.21 179.38H-18C-17.97 177.49 -17.72 175.62 -17.27 173.81L-16.5 174C-16.93 175.75 -17.17 177.56 -17.2 179.38H-17.21ZM30.51 175.3C30.17 173.52 29.63 171.78 28.9 170.12L29.62 169.8C30.37 171.51 30.93 173.31 31.28 175.15L30.5 175.3H30.51ZM-14.61 168.92L-15.31 168.56C-14.46 166.9 -13.42 165.32 -12.22 163.88L-11.61 164.39C-12.77 165.78 -13.78 167.3 -14.6 168.92H-14.61ZM26.17 165.44C25.09 163.99 23.84 162.66 22.46 161.48L22.97 160.88C24.39 162.09 25.68 163.47 26.8 164.97L26.17 165.44ZM-7.7 160.65L-8.18 160.02C-6.69 158.89 -5.07 157.92 -3.37 157.15L-3.04 157.87C-4.69 158.61 -6.25 159.55 -7.7 160.65ZM17.96 158.46C16.35 157.62 14.65 156.97 12.9 156.52L13.1 155.76C14.91 156.23 16.67 156.9 18.33 157.77L17.97 158.47L17.96 158.46ZM2.12 156.22L1.97 155.45C3.57 155.13 5.21 154.97 6.86 154.97C7.1 154.97 7.32 154.97 7.55 154.97L7.53 155.76C7.31 155.76 7.07 155.74 6.86 155.76C5.27 155.76 3.67 155.92 2.13 156.23L2.12 156.22Z" fill="#2E363D"/>
<path d="M30.14 201.14C34.2822 201.14 37.64 197.782 37.64 193.64C37.64 189.498 34.2822 186.14 30.14 186.14C25.9979 186.14 22.64 189.498 22.64 193.64C22.64 197.782 25.9979 201.14 30.14 201.14Z" fill="#2E363D"/>
<path d="M299.26 61.74C299.26 64.79 296.79 67.27 293.73 67.27C290.67 67.27 288.2 64.8 288.2 61.74C288.2 58.68 290.67 56.21 293.73 56.21C296.79 56.21 299.26 58.68 299.26 61.74Z" fill="#2E363D"/>
<path d="M380.01 164.05C380.01 166.23 378.24 168 376.06 168C373.88 168 372.11 166.23 372.11 164.05C372.11 161.87 373.88 160.1 376.06 160.1C378.24 160.1 380.01 161.87 380.01 164.05Z" fill="#2E363D"/>
<path d="M108.56 139.03C111.83 139.03 114.48 136.38 114.48 133.11C114.48 129.84 111.83 127.19 108.56 127.19C105.29 127.19 102.64 129.84 102.64 133.11C102.64 136.38 105.29 139.03 108.56 139.03Z" fill="#2E363D"/>
<path d="M119.22 151.27C118.75 151.27 118.28 151.24 117.82 151.18L117.92 150.4C119.67 150.63 121.49 150.38 123.12 149.68L123.43 150.4C122.1 150.97 120.68 151.27 119.22 151.27ZM112.6 148.97C111.09 147.77 109.93 146.19 109.25 144.4L109.99 144.12C110.62 145.78 111.69 147.24 113.09 148.35L112.6 148.97ZM127.85 146.86L127.21 146.4C128.25 144.96 128.89 143.26 129.04 141.48L129.83 141.55C129.66 143.47 128.98 145.3 127.85 146.86ZM109.35 140.62H108.56C108.56 138.69 109.08 136.8 110.07 135.16L110.75 135.57C109.84 137.09 109.36 138.84 109.36 140.63L109.35 140.62ZM128.1 136.33C127.32 134.73 126.13 133.36 124.64 132.38L125.07 131.72C126.68 132.78 127.97 134.25 128.81 135.98L128.1 136.32V136.33ZM114.53 131.94L114.15 131.25C115.83 130.34 117.78 129.9 119.67 129.99L119.64 130.78C117.89 130.7 116.08 131.11 114.53 131.95V131.94Z" fill="#2E363D"/>
<path d="M305.85 82.88C303.94 82.74 302.11 82.21 300.42 81.31L300.79 80.61C302.38 81.45 304.1 81.95 305.9 82.09L305.84 82.88H305.85ZM311.45 82.15L311.19 81.41C312.89 80.82 314.42 79.89 315.75 78.66L316.29 79.24C314.88 80.54 313.26 81.53 311.45 82.15ZM296.08 77.7C294.89 76.2 294.03 74.5 293.54 72.66L294.3 72.46C294.76 74.2 295.57 75.8 296.69 77.21L296.07 77.7H296.08ZM319.55 74.63L318.83 74.31C319.55 72.66 319.91 70.91 319.91 69.1H320.7C320.7 71.02 320.31 72.88 319.55 74.63ZM319.84 67.68C319.65 65.89 319.09 64.18 318.19 62.62L318.87 62.23C319.82 63.89 320.41 65.7 320.62 67.6L319.84 67.68ZM294.02 67.14L293.24 67.02C293.53 65.13 294.19 63.35 295.21 61.73L295.88 62.15C294.91 63.68 294.29 65.35 294.02 67.14ZM314.66 58.64C313.21 57.56 311.58 56.81 309.83 56.41L310.01 55.64C311.87 56.07 313.6 56.87 315.14 58.01L314.67 58.64H314.66ZM299.58 58.32L299.14 57.67C300.73 56.59 302.48 55.87 304.36 55.52L304.5 56.3C302.73 56.63 301.07 57.31 299.58 58.33V58.32Z" fill="#2E363D"/>
<path d="M72 182L75.849 182.502C88.5698 184.161 101.044 187.35 113 192V192" stroke="#4D4D4F"/>
<path d="M311.062 153.071L307.986 155.438C297.818 163.259 286.742 169.825 275 174.991V174.991" stroke="#4D4D4F"/>
<path d="M61 208L70.5403 208.954C77.462 209.646 84.2134 211.522 90.5 214.5V214.5" stroke="#4D4D4F"/>
<path d="M301.062 129.071L297.02 132.491C287.535 140.517 276.691 146.783 265 150.991V150.991" stroke="#4D4D4F"/>
<path d="M69 194.5L70.8222 194.717C83.5564 196.233 96.0479 199.352 108 204V204" stroke="#4D4D4F"/>
<path d="M296.843 146.355V146.355C290.765 152.365 283.454 156.984 275.415 159.891L271 161.488" stroke="#4D4D4F"/>
</g>
<defs>
<clipPath id="clip0_87_37169">
<rect width="432" height="437" fill="white"/>
</clipPath>
</defs>
</svg>
