<svg width="286" height="243" viewBox="0 0 286 243" fill="none" xmlns="http://www.w3.org/2000/svg">
<g clip-path="url(#clip0_524_21139)">
<ellipse cx="139.141" cy="110.657" rx="77.5709" ry="77.2929" fill="#EDEDED" fill-opacity="0.9"/>
<g clip-path="url(#clip1_524_21139)">
<path d="M137.527 173.867H136.928V171.806H137.501C142.026 171.806 146.551 171.31 150.946 170.345L151.388 172.354C146.863 173.345 142.182 173.867 137.501 173.867H137.527ZM122.468 172.093C117.735 170.971 113.132 169.276 108.762 167.11L109.673 165.258C113.886 167.371 118.359 168.989 122.936 170.084L122.468 172.093ZM165.198 167.632L164.314 165.78C168.553 163.771 172.584 161.241 176.303 158.319L177.578 159.937C173.755 162.963 169.594 165.571 165.198 167.632ZM96.539 159.18C92.7679 156.076 89.361 152.554 86.3961 148.72L88.0086 147.467C90.8954 151.198 94.1983 154.615 97.8393 157.615L96.539 159.206V159.18ZM187.903 149.659L186.29 148.38C189.255 144.702 191.804 140.685 193.858 136.433L195.705 137.32C193.572 141.702 190.946 145.85 187.903 149.659ZM78.802 136.224C76.7474 131.79 75.213 127.12 74.2247 122.346L76.2273 121.929C77.1895 126.546 78.6719 131.059 80.6745 135.363L78.802 136.224ZM200.542 123.52L198.54 123.051C199.58 118.459 200.126 113.738 200.126 108.99H202.181C202.181 113.894 201.635 118.772 200.542 123.494V123.52ZM74.9269 107.842H72.8723C72.9503 102.912 73.6005 98.0338 74.7708 93.3122L76.7734 93.8079C75.6551 98.373 75.0309 103.095 74.9529 107.842H74.9269ZM199.034 97.1991C198.15 92.5557 196.745 88.0167 194.847 83.6864L196.719 82.8516C198.67 87.3124 200.126 92.0079 201.036 96.8078L199.008 97.1991H199.034ZM81.6888 80.556L79.8683 79.6169C82.0789 75.2866 84.7837 71.1649 87.9046 67.4085L89.491 68.7389C86.4741 72.3649 83.8474 76.33 81.7148 80.556H81.6888ZM187.747 71.478C184.938 67.6955 181.687 64.226 178.098 61.1478L179.424 59.5826C183.117 62.739 186.472 66.339 189.385 70.2519L187.747 71.478ZM99.6599 58.9826L98.4115 57.3392C102.287 54.3914 106.5 51.8611 110.921 49.8524L111.779 51.7306C107.488 53.661 103.431 56.1131 99.6599 58.9826ZM166.395 53.2697C162.207 51.0785 157.786 49.3828 153.235 48.209L153.755 46.2264C158.462 47.4525 163.04 49.2002 167.357 51.4697L166.421 53.2958L166.395 53.2697ZM125.199 47.4264L124.809 45.4177C128.97 44.583 133.235 44.1656 137.527 44.1656C138.151 44.1656 138.723 44.1656 139.321 44.1656L139.269 46.2264C138.697 46.2264 138.073 46.1742 137.527 46.2264C133.391 46.2264 129.23 46.6438 125.225 47.4525L125.199 47.4264Z" fill="#D6D6D6"/>
<path d="M178.83 268.48L165.32 265.245C165.32 265.245 155.53 194.129 132.504 161.9C129.501 157.693 126.276 154.152 122.82 151.52C121.386 169.384 119.7 188.389 118.235 198.505C114.631 223.398 79.7181 271.355 79.7181 271.355L67.4938 266.207C67.4938 266.207 95.5571 214.096 96.906 189.626C98.3814 163.063 99.0242 116.469 99.0769 111.015H140.503C144.434 132.589 174.046 181.909 178.83 268.48Z" fill="#263238"/>
<path opacity="0.3" d="M178.83 268.48L165.32 265.245C165.32 265.245 155.53 194.129 132.504 161.9C129.501 157.693 126.276 154.152 122.82 151.52C121.386 169.384 119.7 188.389 118.235 198.505C114.631 223.398 79.7181 271.355 79.7181 271.355L67.4938 266.207C67.4938 266.207 95.5571 214.096 96.906 189.626C98.3814 163.063 99.0242 116.469 99.0769 111.015H140.503C144.434 132.589 174.046 181.909 178.83 268.48Z" fill="url(#paint0_linear_524_21139)" fill-opacity="0.4"/>
<path d="M165.469 65.1714C165.469 68.3531 165.384 71.5453 165.342 74.7269C165.268 77.9086 165.195 81.1008 165.079 84.2824C164.868 90.6457 164.583 97.0196 164.246 103.383L164.151 102.336C164.604 105.18 165.005 108.034 165.416 110.898C165.837 113.752 166.196 116.617 166.575 119.471C166.933 122.335 167.281 125.2 167.597 128.075C167.882 130.95 168.208 133.825 168.419 136.721L162.982 137.768C162.117 134.999 161.348 132.219 160.547 129.439C159.778 126.659 159.04 123.857 158.313 121.067C157.607 118.266 156.88 115.475 156.216 112.674C155.542 109.873 154.867 107.072 154.224 104.26L154.15 103.911V103.214C154.035 96.8399 153.971 90.466 153.982 84.0922C153.982 80.9105 154.013 77.7183 154.056 74.5367C154.129 71.355 154.15 68.1628 154.266 64.9811L165.447 65.182L165.469 65.1714Z" fill="#FCA5A5"/>
<path d="M164.657 61.8524C168.05 63.977 164.099 86.2696 164.921 103.002C165.015 104.958 165.711 107.981 165.711 107.981L154.256 109.271C154.256 109.271 152.833 103.827 152.644 101.153C152.074 93.3517 152.644 71.2916 152.644 71.2916L164.668 61.8524H164.657Z" fill="#407BFF"/>
<path d="M164.921 103.002C165.015 104.958 165.711 107.992 165.711 107.992L154.245 109.281C154.245 109.281 152.833 103.837 152.633 101.153C152.486 99.1442 152.412 96.1845 152.391 92.9078C152.359 87.9609 152.422 82.2741 152.496 77.9826C152.486 77.972 152.496 77.972 152.496 77.972C152.559 74.0504 152.633 71.2916 152.633 71.2916L164.657 61.8524C168.051 63.977 164.099 86.2696 164.921 103.002Z" fill="#E31837"/>
<path d="M168.261 135.199L170.442 145.939L160.895 146.33C160.895 146.33 158.313 139.036 163.129 134.872L168.251 135.199H168.261Z" fill="#FCA5A5"/>
<path d="M168.24 153.422L161.053 152.006L160.895 146.33L170.443 145.939L168.24 153.422Z" fill="#FCA5A5"/>
<path d="M153.255 107.357L165.711 105.381L166.059 108.827L154.087 110.084L153.255 107.357Z" fill="#407BFF"/>
<path d="M153.255 107.357L165.711 105.381L166.059 108.827L154.087 110.084L153.255 107.357Z" fill="#BD3146"/>
<path opacity="0.1" d="M152.391 92.9077C152.359 87.9608 152.422 82.274 152.496 77.9825C152.486 77.9719 152.496 77.9719 152.496 77.9719C153.771 75.4245 155.036 73.4055 156.069 72.5176C156.069 72.5176 158.313 83.0139 152.391 92.9077Z" fill="black"/>
<path opacity="0.3" d="M132.505 161.9C129.501 157.693 126.277 154.152 122.82 151.52L123.969 136.743C123.969 136.743 131.145 148.539 132.505 161.9Z" fill="black"/>
<path d="M164.656 61.8526C149.039 87.8449 142.104 119.693 142.104 119.693L134.475 132.832L129.163 117.991C128.742 117.928 128.31 117.864 127.867 117.801C127.245 117.706 126.613 117.611 125.97 117.516C125.338 117.42 124.685 117.325 124.031 117.22C122.725 117.019 121.386 116.807 120.048 116.585C119.384 116.48 118.709 116.363 118.035 116.247C117.361 116.141 116.697 116.025 116.022 115.898C115.358 115.782 114.694 115.666 114.031 115.539C113.367 115.423 112.713 115.296 112.06 115.169C110.258 114.82 108.498 114.461 106.843 114.091C106.538 114.017 106.253 113.953 105.958 113.89C104.736 113.605 103.566 113.319 102.481 113.023C101.406 112.727 100.415 112.431 99.5193 112.135C99.298 112.061 99.0767 111.987 98.866 111.913C100.615 99.7893 103.345 89.4516 106.369 80.8474C106.896 79.3358 107.434 77.8877 107.982 76.4819C110.363 70.3511 112.85 65.2351 115.148 61.1021C115.2 60.9964 115.263 60.9013 115.316 60.7956C120.164 52.0857 129.985 48.291 135.887 49.792C140.366 50.9441 147.447 53.6395 152.305 55.6267C158.502 58.1742 164.656 61.8526 164.656 61.8526Z" fill="#407BFF"/>
<path d="M164.656 61.8526C149.039 87.8449 142.104 119.693 142.104 119.693L134.475 132.832L129.163 117.991C128.742 117.928 128.31 117.864 127.867 117.801C127.245 117.706 126.613 117.611 125.97 117.516C125.338 117.42 124.685 117.325 124.031 117.22C122.725 117.019 121.386 116.807 120.048 116.585C119.384 116.48 118.709 116.363 118.035 116.247C117.361 116.141 116.697 116.025 116.022 115.898C115.358 115.782 114.694 115.666 114.031 115.539C113.367 115.423 112.713 115.296 112.06 115.169C110.258 114.82 108.498 114.461 106.843 114.091C106.538 114.017 106.253 113.953 105.958 113.89C104.736 113.605 103.566 113.319 102.481 113.023C101.406 112.738 100.415 112.442 99.5193 112.135C99.298 112.061 99.0767 111.987 98.866 111.913C100.615 99.7893 103.345 89.4516 106.369 80.8474C106.896 79.3358 107.434 77.8877 107.982 76.4819C110.363 70.3511 112.85 65.2351 115.148 61.1021C115.2 60.9964 115.263 60.9013 115.316 60.7956C120.164 52.0857 129.985 48.291 135.887 49.792C140.366 50.9441 147.447 53.6395 152.305 55.6267C158.502 58.1742 164.656 61.8526 164.656 61.8526Z" fill="#E31837"/>
<path opacity="0.1" d="M139.596 80.0123C139.596 80.0123 139.154 82.38 138.616 85.7202C138.079 89.071 136.235 94.7789 135.402 96.5019C134.559 98.2248 131.092 105.095 131.756 108.161C132.42 111.226 129.164 117.991 129.164 117.991C128.742 117.928 128.31 117.864 127.867 117.801C128.668 114.048 131.355 101.903 132.81 100.497C134.527 98.8273 137.204 91.4387 136.646 88.6587C136.098 85.8788 139.596 80.0123 139.596 80.0123Z" fill="black"/>
<path d="M128.183 135.199L130.365 145.939L120.817 146.33C120.817 146.33 118.235 139.036 123.051 134.872L128.173 135.199H128.183Z" fill="#FCA5A5"/>
<path d="M128.173 153.422L120.986 152.006L120.828 146.33L130.376 145.939L128.173 153.422Z" fill="#FCA5A5"/>
<path d="M134.223 50.3202C135.319 53.3116 143.707 64.0193 143.707 64.0193L151.137 55.6159C151.137 55.6159 150.336 54.9711 149.788 53.9035C149.229 52.8254 148.945 51.2927 150.083 49.538C150.42 49.0201 150.947 48.6184 151.432 48.1956C151.516 48.1427 151.59 48.0688 151.663 48.0053L147.954 34.1266C145.636 39.4857 139.681 49.4429 134.223 50.3202Z" fill="#FCA5A5"/>
<path opacity="0.2" d="M149.788 53.9036C149.229 52.8254 148.945 51.2927 150.083 49.5381C150.42 49.0201 150.947 48.6185 151.432 48.1957L145.92 38.5133C142.453 46.219 146.9 51.5887 149.788 53.9036Z" fill="black"/>
<path d="M163.382 22.4358C163.382 22.4358 166.375 32.9215 161.243 37.7732C156.11 42.625 153.55 22.7 153.55 22.7L163.382 22.4358Z" fill="#FCA5A5"/>
<path opacity="0.4" d="M163.382 22.4358C163.382 22.4358 166.375 32.9215 161.243 37.7732C156.11 42.625 153.55 22.7 153.55 22.7L163.382 22.4358Z" fill="black"/>
<path d="M145.909 48.3963C149.166 52.0008 153.782 52.4553 157.512 50.7218C159.915 49.6119 161.938 47.5824 163.024 44.8976C163.171 44.5488 163.287 44.1788 163.403 43.8088C165.353 36.9065 164.32 20.6494 157.322 21.9707C151.59 23.0489 145.741 21.8227 143.296 27.1396C142.59 28.6511 142.263 30.3001 142.316 31.9702C142.453 39.7182 142.168 44.2845 145.92 48.3963H145.909Z" fill="#FCA5A5"/>
<path d="M158.777 35.1307C159.451 37.0862 160.378 38.9466 161.559 40.6484C160.663 41.2403 159.546 41.3989 158.513 41.0924L158.777 35.1307Z" fill="#CD6D6D"/>
<path d="M153.046 31.0774C153.17 31.1435 153.313 31.1381 153.432 31.0605C154.198 30.5217 155.185 30.3812 156.077 30.675C156.263 30.7575 156.481 30.6739 156.564 30.4881C156.646 30.3022 156.563 30.083 156.378 30.0006C155.263 29.6032 154.02 29.7626 153.042 30.4416C152.871 30.5491 152.821 30.7764 152.928 30.9473C152.971 30.9916 153.013 31.0359 153.059 31.0699L153.046 31.0774Z" fill="#263238"/>
<path d="M163.808 30.6356C163.882 30.6171 163.941 30.571 163.994 30.5158C164.087 30.34 164.017 30.1122 163.841 30.0185C162.79 29.4414 161.536 29.4205 160.463 29.9426C160.289 30.0427 160.223 30.2644 160.328 30.4474C160.429 30.6214 160.659 30.6835 160.833 30.5834C161.687 30.1877 162.682 30.2239 163.508 30.6864C163.615 30.7227 163.727 30.7066 163.822 30.6395L163.808 30.6356Z" fill="#263238"/>
<path d="M157.5 45.243C157.428 45.272 157.377 45.3258 157.332 45.388C157.265 45.5753 157.367 45.7907 157.554 45.8586C158.677 46.2809 159.92 46.124 160.909 45.4549C161.066 45.3312 161.101 45.1023 160.97 44.9361C160.846 44.7782 160.609 44.7493 160.452 44.873C159.662 45.3859 158.673 45.491 157.789 45.1504C157.678 45.1294 157.569 45.1613 157.485 45.2412L157.5 45.243Z" fill="#263238"/>
<path d="M143.76 37.3608C143.022 37.5722 142.98 40.8807 143.739 43.8932L142.421 44.2632C141.294 42.6671 140.05 40.3945 139.26 37.382C137.605 31.0927 137.374 27.0337 137.974 23.8837L148.355 22.5413L148.797 25.9555C147.68 26.558 147.016 27.8264 147.543 29.1689C148.66 32.0334 147.069 36.5046 144.877 38.3016C144.877 38.3016 144.803 37.0543 143.749 37.3608H143.76Z" fill="#FCA5A5"/>
<path opacity="0.4" d="M143.76 37.3608C143.022 37.5722 142.98 40.8807 143.739 43.8932L142.421 44.2632C141.294 42.6671 140.05 40.3945 139.26 37.382C137.605 31.0927 137.374 27.0337 137.974 23.8837L148.355 22.5413L148.797 25.9555C147.68 26.558 147.016 27.8264 147.543 29.1689C148.66 32.0334 147.069 36.5046 144.877 38.3016C144.877 38.3016 144.803 37.0543 143.749 37.3608H143.76Z" fill="black"/>
<path d="M138.67 38.1856C139.46 39.9719 140.914 41.3778 142.727 42.086C145.14 43.0056 146.573 40.9021 146.11 38.4921C145.678 36.3569 143.918 33.2281 141.399 33.3655C138.881 33.5029 137.732 35.9764 138.67 38.1856Z" fill="#FCA5A5"/>
<path d="M140.04 20.7658C140.04 20.7658 138.786 18.5883 141.526 15.9986C144.266 13.4195 155.752 12.3413 159.198 14.487C162.634 16.6328 165.437 15.0367 165.268 13.6414C165.268 13.6414 166.417 14.9099 165.458 16.6328C165.458 16.6328 167.66 16.5165 168.735 19.8356C168.735 19.8356 167.365 19.5713 166.459 20.4804C166.459 20.4804 167.829 21.7594 167.365 23.7043C167.365 23.7043 166.153 22.457 164.847 22.457C164.847 22.457 165.447 24.0954 166.122 24.6979C166.122 24.6979 161.569 25.2053 159.209 23.4718C159.209 23.4718 159.978 24.8142 161.021 25.4801C161.021 25.4801 153.602 26.8542 151.179 23.9157C151.179 23.9157 149.882 25.5858 150.441 27.5307C150.441 27.5307 148.165 27.5942 147.111 26.1566C147.111 26.1566 144.223 28.6406 140.851 28.7886C140.851 28.7886 141.188 28.4821 141.884 27.3405C141.884 27.3405 138.101 29.5708 135.614 27.8796C135.614 27.8796 136.119 27.0868 136.246 26.1038L135.255 26.6006C135.255 26.6006 135.182 20.9772 140.04 20.7658Z" fill="#263238"/>
<path d="M153.94 34.6126C153.866 35.2363 154.224 35.7648 154.635 35.7859C155.057 35.807 155.394 35.2997 155.426 34.676C155.457 34.0524 155.131 33.5239 154.73 33.5027C154.319 33.4922 153.971 33.9784 153.94 34.6126Z" fill="#263238"/>
<path d="M161.043 34.9086C160.969 35.5322 161.338 36.0607 161.738 36.0819C162.149 36.0924 162.497 35.5956 162.528 34.972C162.56 34.3483 162.233 33.8198 161.833 33.7987C161.422 33.7881 161.064 34.3166 161.043 34.9086Z" fill="#263238"/>
<path d="M132.811 48.2271C132.811 48.2271 138.122 64.1142 141.315 70.1076L142.01 69.3571C142.01 69.3571 136.172 52.6772 135.266 48.2166H132.8L132.811 48.2271Z" fill="#231F20"/>
<path d="M149.387 55.9222C149.387 55.9222 149.345 62.962 145.151 70.1075V71.2914C145.151 71.2914 149.324 67.7398 150.61 57.1801L149.398 55.9222H149.387Z" fill="#231F20"/>
<path d="M140.778 69.7483L141.821 67.8985C143.728 70.3297 145.341 69.0189 145.341 69.0189L146.036 70.4988L144.203 75.5725H142.306L140.788 69.7377L140.778 69.7483Z" fill="#231F20"/>
<path d="M144.087 73.0671C144.087 73.0671 143.37 90.2121 144.087 100.148C144.54 106.511 145.024 117.917 144.708 120.95L141.852 123.149L139.597 119.693C139.597 119.693 141.368 114.999 140.535 103.076C139.703 91.1634 142.748 73.49 142.748 73.49L144.076 73.0671H144.087Z" fill="#231F20"/>
<path d="M129.27 49.1786L134.95 46.1555L142.716 53.3855L143.085 62.7719L148.628 55.1507L152.022 53.4172L154.477 57.5502L151.379 62.5182L149.398 59.9496L142.737 65.6259L137.816 57.7933L134.518 59.5903L129.27 49.1786Z" fill="#407BFF"/>
<path d="M129.27 49.1786L134.95 46.1555L142.716 53.3855L143.085 62.7719L148.628 55.1507L152.022 53.4172L154.477 57.5502L151.379 62.5182L149.398 59.9496L142.737 65.6259L137.816 57.7933L134.518 59.5903L129.27 49.1786Z" fill="#CC0120"/>
<path opacity="0.1" d="M142.738 65.6259L148.808 57.8145L151.379 62.5182L149.398 59.9496L142.738 65.6259Z" fill="black"/>
<path opacity="0.1" d="M142.738 65.626L139.956 55.5314L134.518 59.5904L137.816 57.7934L142.738 65.626Z" fill="black"/>
<path opacity="0.1" d="M125.633 111.015L115.938 112.061C115.938 112.061 105.568 96.2799 106.369 80.8473C106.896 79.3358 107.434 77.8876 107.982 76.4818C110.363 70.3511 112.85 65.2351 115.148 61.1021C116.591 59.7808 117.614 59.1677 117.614 59.1677L127.635 74.1563C127.635 74.1563 128.278 98.5842 125.633 111.015Z" fill="black"/>
<path d="M125.391 65.1715C125.391 68.3531 125.306 71.5453 125.264 74.727C125.191 77.9086 125.117 81.1008 125.001 84.2825C124.79 90.6458 124.506 97.0196 124.168 103.383L124.073 102.336C124.527 105.18 124.927 108.034 125.338 110.898C125.76 113.752 126.118 116.617 126.497 119.471C126.856 122.335 127.203 125.2 127.52 128.075C127.804 130.95 128.131 133.825 128.341 136.722L122.904 137.768C122.04 134.999 121.27 132.219 120.469 129.439C119.7 126.659 118.962 123.858 118.235 121.067C117.529 118.266 116.802 115.475 116.138 112.674C115.464 109.873 114.789 107.072 114.146 104.26L114.073 103.911V103.214C113.957 96.8399 113.894 90.4661 113.904 84.0922C113.904 80.9106 113.936 77.7184 113.978 74.5367C114.052 71.3551 114.073 68.1628 114.189 64.9812L125.37 65.182L125.391 65.1715Z" fill="#FCA5A5"/>
<path d="M120.807 56.7258C126.224 59.0935 127.868 67.8985 127.868 67.8985C127.868 67.8985 125.117 101.618 125.254 103.002C125.391 104.398 125.633 107.04 125.633 107.04L113.999 109.271C113.999 109.271 113.03 103.002 112.471 90.1701C111.913 77.3378 112.429 66.6618 115.116 61.9369C117.803 57.212 120.817 56.7152 120.817 56.7152L120.807 56.7258Z" fill="#407BFF"/>
<path d="M120.807 56.7258C126.224 59.0935 127.868 67.8985 127.868 67.8985C127.868 67.8985 125.117 101.618 125.254 103.002C125.391 104.398 125.633 107.04 125.633 107.04L113.999 109.271C113.999 109.271 113.03 103.002 112.471 90.1701C111.913 77.3378 112.429 66.6618 115.116 61.9369C117.803 57.212 120.817 56.7152 120.817 56.7152L120.807 56.7258Z" fill="#E31837"/>
<path d="M112.271 107.326L126.508 104.958L125.633 108.583L113.862 111.015L112.271 107.326Z" fill="#407BFF"/>
<path d="M112.271 107.326L126.508 104.958L125.633 108.583L113.862 111.015L112.271 107.326Z" fill="#BD3146"/>
<path d="M189.38 159.87L187.072 193.441C186.998 194.541 185.987 195.386 184.806 195.312L141.515 192.923C140.345 192.86 139.45 191.898 139.523 190.799L141.831 157.228C141.905 156.118 142.927 155.283 144.097 155.357L187.388 157.746C188.568 157.82 189.454 158.76 189.38 159.87Z" fill="#263238"/>
<path d="M146.953 157.534L144.645 191.105C144.571 192.205 143.549 193.05 142.379 192.976L141.515 192.923C140.345 192.86 139.45 191.898 139.523 190.799L141.831 157.228C141.905 156.118 142.927 155.283 144.097 155.357L144.961 155.41C146.131 155.473 147.027 156.424 146.953 157.534Z" fill="black"/>
<path d="M166.912 188.833L186.377 185.323C186.377 185.323 196.23 204.371 202.015 209.529L180.401 217.542C180.401 217.542 170.158 205.217 166.912 188.822V188.833Z" fill="#407BFF"/>
<path d="M166.912 188.833L186.377 185.323C186.377 185.323 196.23 204.371 202.015 209.529L180.401 217.542C180.401 217.542 170.158 205.217 166.912 188.822V188.833Z" fill="#D6D6D6"/>
<path d="M166.407 170.525C170.053 172.724 180.897 190.175 180.897 190.175L203.617 177.565C203.617 177.565 192.046 166.656 188.4 165.293C184.754 163.929 166.407 170.525 166.407 170.525Z" fill="#407BFF"/>
<path d="M166.09 170.525C169.8 172.724 180.823 190.175 180.823 190.175L203.923 177.565C203.923 177.565 192.162 166.656 188.453 165.293C184.743 163.929 166.09 170.525 166.09 170.525Z" fill="#ADADAD"/>
<path d="M152.391 164.658C152.391 164.658 156.659 174.573 157.607 183.685L187.494 178.4C187.494 178.4 183.068 166.667 181.171 164.658C179.274 162.65 152.391 164.658 152.391 164.658Z" fill="#407BFF"/>
<path d="M152.391 164.658C152.391 164.658 156.659 174.573 157.607 183.685L187.494 178.4C187.494 178.4 183.068 166.667 181.171 164.658C179.274 162.65 152.391 164.658 152.391 164.658Z" fill="#EDEDED"/>
<path d="M155.521 156.953C155.521 156.953 158.672 146.552 163.561 147.292C168.451 148.032 175.122 152.492 176.365 158.063" stroke="#263238" stroke-width="1.11681" stroke-miterlimit="10"/>
<path d="M145.562 155.462C146.658 155.526 147.733 156.53 147.933 157.534L150.831 172.755C150.989 173.611 151.885 174.351 152.812 174.404L191.825 176.55C192.752 176.603 193.384 175.958 193.216 175.102L190.307 159.838C190.107 158.771 188.99 157.851 187.831 157.777L144.55 155.378L145.562 155.473V155.462Z" fill="#263238"/>
<path opacity="0.1" d="M145.562 155.462C146.658 155.526 147.733 156.53 147.933 157.534L150.831 172.755C150.989 173.611 151.885 174.351 152.812 174.404L191.825 176.55C192.752 176.603 193.384 175.958 193.216 175.102L190.307 159.838C190.107 158.771 188.99 157.851 187.831 157.777L144.55 155.378L145.562 155.473V155.462Z" fill="white"/>
<path d="M177.767 182.67L174.742 182.491C174.437 182.47 174.131 182.205 174.047 181.899L171.655 172.618L175.775 172.861L178.167 182.142C178.252 182.448 178.062 182.681 177.767 182.67Z" fill="black"/>
<path d="M176.871 179.616C176.871 179.616 176.84 179.616 176.818 179.616L173.92 179.447C173.425 179.415 172.94 179.003 172.803 178.506L172.329 176.656C172.255 176.381 172.308 176.117 172.466 175.927C172.614 175.747 172.846 175.641 173.098 175.673L175.997 175.842C176.492 175.874 176.977 176.286 177.114 176.783L177.588 178.633C177.662 178.907 177.609 179.172 177.451 179.362C177.314 179.531 177.103 179.626 176.871 179.626V179.616ZM176.84 179.129C176.913 179.129 177.019 179.129 177.071 179.045C177.124 178.981 177.145 178.865 177.114 178.749L176.639 176.899C176.566 176.603 176.249 176.328 175.965 176.318L173.067 176.149C172.993 176.149 172.888 176.149 172.835 176.233C172.782 176.297 172.761 176.413 172.793 176.529L173.267 178.379C173.341 178.675 173.657 178.95 173.942 178.96L176.84 179.129Z" fill="#263238"/>
<g opacity="0.5">
<path d="M176.871 179.616C176.871 179.616 176.84 179.616 176.818 179.616L173.92 179.447C173.425 179.415 172.94 179.003 172.803 178.506L172.329 176.656C172.255 176.381 172.308 176.117 172.466 175.927C172.614 175.747 172.846 175.641 173.098 175.673L175.997 175.842C176.492 175.874 176.977 176.286 177.114 176.783L177.588 178.633C177.662 178.907 177.609 179.172 177.451 179.362C177.314 179.531 177.103 179.626 176.871 179.626V179.616ZM176.84 179.129C176.913 179.129 177.019 179.129 177.071 179.045C177.124 178.981 177.145 178.865 177.114 178.749L176.639 176.899C176.566 176.603 176.249 176.328 175.965 176.318L173.067 176.149C172.993 176.149 172.888 176.149 172.835 176.233C172.782 176.297 172.761 176.413 172.793 176.529L173.267 178.379C173.341 178.675 173.657 178.95 173.942 178.96L176.84 179.129Z" fill="white"/>
</g>
</g>
<g filter="url(#filter0_f_524_21139)">
<rect x="42.5723" y="200.026" width="165.646" height="78.135" fill="#F3F4F6"/>
</g>
</g>
<path d="M51.5511 197.946C50.6395 197.667 49.7647 197.196 49.1619 196.454C48.3238 195.425 48.1253 193.962 48.4635 192.675C48.8016 191.389 49.6397 190.279 50.6542 189.418C49.7573 187.992 48.7869 186.654 47.7651 185.353C46.53 186.272 45.3391 187.132 43.9717 187.206C42.6485 187.272 41.362 186.544 40.5386 185.507C39.7152 184.471 39.3035 183.155 39.1418 181.839C39.0977 181.714 39.0242 181.692 38.9801 181.685C37.5907 181.582 36.2012 181.479 34.8118 181.376C34.5619 182.67 33.9664 183.831 33.0622 184.669C32.1506 185.507 30.9229 186.007 29.6878 185.971C29.1806 185.956 28.6807 185.853 28.1808 185.743C27.3721 185.566 26.512 185.346 25.9386 184.743C24.8359 185.493 23.8434 186.294 22.8877 187.125C23.3803 187.456 23.5861 187.919 23.7552 188.367C24.1228 189.33 24.4095 190.374 24.1742 191.381C23.9316 192.418 23.1524 193.278 22.2188 193.785C21.2851 194.292 20.2118 194.498 19.1458 194.564C18.8518 196.086 18.7048 197.704 18.6606 199.336C19.5649 199.659 20.425 199.931 21.1969 200.387C21.9688 200.835 22.6598 201.482 23.0054 202.306C23.395 203.232 23.2994 204.32 22.8951 205.239C22.4908 206.158 21.7997 206.93 21.0131 207.562C21.9614 209.098 22.873 210.525 23.8067 211.929C25.2549 210.98 27.0707 210.686 28.6586 211.193C29.0556 211.318 29.4379 211.495 29.7613 211.752C30.1657 212.076 30.4671 212.517 30.7023 212.98C31.261 214.09 31.4742 215.369 31.2978 216.597C32.9813 216.935 34.6207 217.148 36.26 217.281C36.1645 215.575 36.8923 213.862 38.2449 212.928C39.5903 211.995 41.5163 211.929 42.8764 212.855C43.5159 213.296 44.0158 213.914 44.4937 214.524C45.9713 213.48 47.4343 212.414 48.8016 211.238C48.0371 210.047 47.2578 208.856 47.2284 207.518C47.199 206.121 48.0371 204.79 49.206 204.033C50.3822 203.276 51.8378 203.048 53.2272 203.188C53.7051 201.563 54.1094 199.983 54.4476 198.38C53.4257 198.299 52.47 198.203 51.5584 197.931L51.5511 197.946ZM42.8322 201.519C42.2735 202.761 41.3546 203.835 40.2519 204.643C39.6123 205.114 38.9066 205.496 38.1494 205.739C35.0471 206.731 31.4081 204.989 29.9672 202.063C28.9159 199.931 28.9674 197.292 30.0922 195.204C31.2169 193.109 33.393 191.617 35.7454 191.315C37.8553 191.043 40.5312 192.183 42.053 194.241C43.5747 196.299 43.8835 199.189 42.8322 201.519Z" fill="white"/>
<g opacity="0.13">
<path d="M44.7291 198.123C44.6997 197.88 44.6482 197.638 44.5894 197.402C44.56 197.344 44.5379 197.292 44.5085 197.233C44.0674 196.366 43.5455 195.55 42.95 194.778C42.8545 194.844 42.7736 194.947 42.7442 195.065C42.6854 195.476 43.0015 195.851 43.1044 196.248C43.4646 197.329 43.7072 197.844 43.5896 198.829C43.6043 199.204 42.9794 201.291 42.7809 201.556C42.5457 202.019 42.2737 202.46 41.9649 202.872C41.8694 202.982 41.8399 203.034 41.8547 203.041C41.7003 203.159 41.5606 203.32 41.4136 203.445C41.0901 203.717 40.7666 203.997 40.4432 204.269C40.355 204.335 40.2153 204.445 40.1197 204.548C40.1712 204.467 40.0315 204.607 39.8992 204.717C39.8256 204.761 39.5022 204.989 39.3405 205.07C38.201 205.474 37.0247 205.695 36.3999 205.724C35.5692 205.798 34.7458 205.592 34.1062 205.438C33.6504 205.305 33.2534 204.849 32.7609 204.945C32.5477 204.996 32.408 205.158 32.3566 205.349C32.4007 205.401 32.4521 205.452 32.5036 205.504C32.6727 205.643 32.8344 205.776 33.0035 205.915C33.6137 206.312 34.2238 206.709 34.834 207.099C35.8412 207.393 36.9292 207.452 38.223 207.202C38.201 207.202 38.1716 207.202 38.1495 207.209C39.5095 206.923 39.9359 206.739 40.9284 206.224C41.7958 205.71 42.4942 204.96 43.0309 204.107C43.0456 204.085 43.0603 204.055 43.075 204.033C43.7072 203.247 44.1924 202.343 44.5232 201.387C44.8614 200.336 44.8614 199.204 44.7585 198.116L44.7291 198.123Z" fill="black"/>
</g>
<g opacity="0.13">
<path d="M48.037 209.238C47.9046 209.246 47.765 209.275 47.6473 209.348C47.4709 209.444 47.368 209.606 47.2577 209.767C47.1548 209.9 47.0519 210.025 46.9636 210.164C46.6916 210.51 46.6181 210.664 46.0153 211.267C45.6845 211.627 45.1625 211.848 44.942 212.289C44.942 212.296 44.942 212.304 44.9346 212.311C44.8097 212.385 44.6773 212.458 44.545 212.532C44.3024 212.679 43.9863 212.752 43.8246 212.995C43.3026 213.62 44.1113 214.531 44.8023 214.105C45.5228 213.723 46.1991 213.274 46.8019 212.73C46.8313 212.701 46.8607 212.671 46.8901 212.642C47.3606 212.26 47.8238 211.87 48.2428 211.429C48.3972 211.267 48.581 211.076 48.728 210.863C48.5736 210.547 48.4339 210.216 48.309 209.892C48.2134 209.679 48.1252 209.466 48.0443 209.246L48.037 209.238Z" fill="black"/>
</g>
<g opacity="0.13">
<path d="M52.7198 198.321C52.4478 199.372 52.1391 200.416 51.8009 201.446C51.6465 201.923 51.4921 202.409 51.3378 202.894C51.5216 203.122 51.8377 203.247 52.1244 203.158C52.1391 203.158 52.1538 203.144 52.1685 203.144C52.4184 203.497 53.0727 203.453 53.1977 202.96C53.2565 202.732 53.3521 202.504 53.4329 202.276C53.4844 202.254 53.5285 202.225 53.5726 202.188C53.8667 201.968 53.9549 201.563 54.0652 201.225C54.2269 200.549 54.3225 199.858 54.3445 199.167C54.3445 199.123 54.3445 199.086 54.3519 199.042C53.8005 198.814 53.2565 198.571 52.7125 198.321H52.7198Z" fill="black"/>
</g>
<path d="M36.2601 217.663C36.2601 217.663 36.238 217.663 36.2307 217.663C34.4957 217.523 32.8637 217.303 31.2243 216.972C31.0332 216.935 30.9082 216.751 30.9303 216.56C31.0993 215.406 30.9008 214.2 30.3715 213.156C30.1216 212.664 29.8496 212.304 29.5335 212.054C29.2762 211.848 28.9527 211.686 28.5484 211.554C27.0854 211.083 25.3873 211.341 24.0125 212.245C23.8434 212.355 23.6156 212.311 23.5053 212.142C22.579 210.753 21.6674 209.319 20.7044 207.76C20.6088 207.606 20.6456 207.4 20.7852 207.283C21.6233 206.606 22.2188 205.871 22.5643 205.092C22.9613 204.195 22.998 203.225 22.6672 202.445C22.3143 201.593 21.5718 201.027 21.0131 200.703C20.3662 200.328 19.6384 200.071 18.8739 199.799L18.5357 199.681C18.3887 199.63 18.2857 199.483 18.2931 199.328C18.3446 197.542 18.5063 195.917 18.7856 194.498C18.815 194.337 18.9547 194.212 19.1238 194.204C20.3221 194.131 21.2778 193.896 22.0423 193.469C22.9686 192.962 23.6156 192.168 23.814 191.301C24.0419 190.33 23.7185 189.294 23.4097 188.5C23.2553 188.088 23.0789 187.698 22.6746 187.426C22.579 187.36 22.5202 187.257 22.5128 187.147C22.5128 187.037 22.5496 186.926 22.6378 186.846C23.7405 185.883 24.7256 185.118 25.7254 184.434C25.8724 184.331 26.0709 184.353 26.1959 184.486C26.6885 185 27.4457 185.206 28.247 185.375C28.7542 185.486 29.2174 185.581 29.6805 185.596C30.7906 185.633 31.9301 185.191 32.7902 184.39C33.6209 183.626 34.1869 182.552 34.4295 181.295C34.4663 181.111 34.6354 180.986 34.8192 181.001L38.9875 181.31C39.208 181.325 39.3844 181.472 39.4653 181.7C39.4726 181.729 39.48 181.751 39.4874 181.78C39.6711 183.221 40.1122 184.39 40.8106 185.272C41.6193 186.287 42.8176 186.882 43.935 186.831C45.2141 186.765 46.3977 185.897 47.5298 185.052C47.6916 184.934 47.9121 184.964 48.0371 185.118C49.1766 186.581 50.1323 187.919 50.9483 189.213C51.0438 189.367 51.0144 189.573 50.8748 189.691C50.1323 190.315 49.1766 191.352 48.8017 192.764C48.4708 194.006 48.7134 195.329 49.4265 196.219C49.9191 196.829 50.6836 197.307 51.6393 197.593C52.5141 197.858 53.4331 197.946 54.4476 198.027C54.5505 198.035 54.6461 198.086 54.7122 198.174C54.7784 198.255 54.8004 198.365 54.7784 198.468C54.4476 200.041 54.0432 201.622 53.5507 203.305C53.4992 203.475 53.3375 203.585 53.1611 203.57C51.7349 203.423 50.3896 203.702 49.3751 204.357C48.2503 205.085 47.5372 206.327 47.5593 207.525C47.5887 208.746 48.2944 209.848 49.0516 211.017L49.081 211.061C49.1766 211.216 49.1472 211.422 49.0148 211.539C47.596 212.752 46.0963 213.847 44.6775 214.847C44.5157 214.958 44.2952 214.928 44.1776 214.774C43.7438 214.222 43.2587 213.598 42.6485 213.179C41.4502 212.362 39.6785 212.392 38.4361 213.252C37.2305 214.083 36.5174 215.663 36.6056 217.281C36.6056 217.384 36.5688 217.486 36.4953 217.56C36.4291 217.626 36.3336 217.663 36.238 217.663H36.2601ZM31.7022 216.318C33.0695 216.582 34.4443 216.766 35.8851 216.898C35.9072 215.163 36.7085 213.561 38.0391 212.642C39.5462 211.598 41.6193 211.569 43.0822 212.568C43.685 212.98 44.1555 213.524 44.5599 214.046C45.7949 213.171 47.0814 212.223 48.3165 211.186C47.5887 210.054 46.8903 208.878 46.8609 207.547C46.8315 206.099 47.6695 204.607 49.0075 203.747C50.0882 203.048 51.4776 202.725 52.9626 202.82C53.3669 201.409 53.7124 200.064 53.9991 198.733C53.0949 198.652 52.2715 198.549 51.4482 198.299C50.3528 197.968 49.4706 197.41 48.8825 196.689C48.0224 195.623 47.7283 194.05 48.118 192.587C48.4267 191.418 49.1398 190.308 50.1837 189.36C49.4706 188.25 48.6546 187.103 47.7063 185.868C46.5668 186.706 45.3832 187.507 44.0011 187.581C42.6485 187.654 41.2149 186.949 40.2666 185.743C39.5094 184.795 39.0242 183.545 38.811 182.045L35.1132 181.773C34.8118 183.052 34.1943 184.14 33.3195 184.949C32.3123 185.883 30.9891 186.39 29.6879 186.346C29.1586 186.331 28.6439 186.221 28.1146 186.11C27.3354 185.941 26.5341 185.728 25.9166 185.221C25.1152 185.78 24.3213 186.397 23.4612 187.14C23.792 187.485 23.9684 187.889 24.1081 188.257C24.4536 189.147 24.8138 190.323 24.5418 191.484C24.2919 192.558 23.5126 193.521 22.4026 194.131C21.6013 194.572 20.6382 194.829 19.462 194.932C19.2414 196.175 19.0944 197.571 19.0429 199.1L19.1238 199.13C19.9251 199.409 20.6823 199.674 21.3881 200.086C22.0423 200.468 22.9172 201.144 23.3509 202.181C23.7552 203.151 23.7111 204.327 23.2406 205.408C22.8878 206.209 22.307 206.967 21.4983 207.665C22.329 209.003 23.123 210.253 23.9243 211.458C25.4314 210.591 27.2178 210.37 28.7763 210.878C29.2688 211.039 29.6658 211.238 29.9893 211.502C30.3936 211.826 30.7318 212.26 31.0258 212.848C31.5698 213.914 31.7977 215.141 31.6948 216.34L31.7022 216.318Z" fill="black"/>
<path d="M35.7451 191.315C33.3853 191.617 31.2166 193.109 30.0918 195.204C28.967 197.299 28.9229 199.931 29.9668 202.063C31.4077 204.989 35.0467 206.731 38.149 205.739C38.9062 205.496 39.612 205.114 40.2515 204.644C41.3543 203.835 42.2658 202.762 42.8319 201.519C43.8832 199.189 43.5744 196.3 42.0526 194.241C40.5309 192.183 37.855 191.043 35.7451 191.315Z" fill="white"/>
<path d="M36.3334 206.386C33.6427 206.386 30.8933 204.768 29.6362 202.225C28.5335 199.983 28.5849 197.226 29.7611 195.028C30.9447 192.83 33.2163 191.264 35.6938 190.948C38.0095 190.654 40.803 191.94 42.3468 194.021C43.9568 196.197 44.2803 199.196 43.1702 201.666C42.5968 202.931 41.6705 204.063 40.4722 204.937C39.7591 205.459 39.0166 205.849 38.2594 206.092C37.6346 206.29 36.9876 206.386 36.3334 206.386ZM35.7893 191.675C33.5398 191.962 31.4814 193.381 30.4081 195.373C29.3348 197.365 29.2907 199.872 30.2905 201.901C31.6872 204.746 35.1645 206.312 38.0315 205.393C38.7152 205.173 39.3842 204.827 40.0311 204.349C41.1192 203.548 41.9719 202.519 42.4939 201.365C43.4863 199.167 43.1849 196.395 41.7514 194.454C40.362 192.58 37.8478 191.411 35.782 191.675H35.7893Z" fill="black"/>
<path d="M36.0692 202.982C34.8341 202.982 33.5844 202.299 32.886 201.196C32.1509 200.034 32.0332 198.454 32.5772 197.079C32.9448 196.145 33.577 195.366 34.3563 194.881C35.2238 194.344 36.253 194.175 37.1793 194.425C38.2305 194.704 39.0098 195.175 39.5097 195.807C40.1051 196.572 40.436 197.594 40.4286 198.689C40.4286 199.439 40.2669 200.078 39.9655 200.593C39.6935 201.049 39.3038 201.416 38.9877 201.681C38.1497 202.394 37.3998 202.791 36.6279 202.923C36.4441 202.953 36.2603 202.975 36.0692 202.975V202.982ZM36.3191 195.05C35.7825 195.05 35.2238 195.204 34.7386 195.506C34.0916 195.91 33.5623 196.564 33.2536 197.351C32.7978 198.513 32.8934 199.836 33.5035 200.806C34.1505 201.828 35.3855 202.409 36.4956 202.21C37.1352 202.1 37.7747 201.755 38.5099 201.13C38.7966 200.887 39.1127 200.593 39.3259 200.225C39.5611 199.821 39.6861 199.299 39.6935 198.689C39.6935 197.755 39.4288 196.895 38.9289 196.256C38.5319 195.748 37.8777 195.366 36.9881 195.131C36.7749 195.072 36.547 195.043 36.3191 195.043V195.05Z" fill="black"/>
<path d="M261.551 185.946C260.639 185.667 259.765 185.196 259.162 184.454C258.324 183.425 258.125 181.962 258.463 180.675C258.802 179.389 259.64 178.279 260.654 177.418C259.757 175.992 258.787 174.654 257.765 173.353C256.53 174.272 255.339 175.132 253.972 175.206C252.648 175.272 251.362 174.544 250.539 173.507C249.715 172.471 249.304 171.155 249.142 169.839C249.098 169.714 249.024 169.692 248.98 169.685C247.591 169.582 246.201 169.479 244.812 169.376C244.562 170.67 243.966 171.831 243.062 172.669C242.151 173.507 240.923 174.007 239.688 173.971C239.181 173.956 238.681 173.853 238.181 173.743C237.372 173.566 236.512 173.346 235.939 172.743C234.836 173.493 233.843 174.294 232.888 175.125C233.38 175.456 233.586 175.919 233.755 176.367C234.123 177.33 234.409 178.374 234.174 179.381C233.932 180.418 233.152 181.278 232.219 181.785C231.285 182.292 230.212 182.498 229.146 182.564C228.852 184.086 228.705 185.704 228.661 187.336C229.565 187.659 230.425 187.931 231.197 188.387C231.969 188.835 232.66 189.482 233.005 190.306C233.395 191.232 233.299 192.32 232.895 193.239C232.491 194.158 231.8 194.93 231.013 195.562C231.961 197.098 232.873 198.525 233.807 199.929C235.255 198.98 237.071 198.686 238.659 199.193C239.056 199.318 239.438 199.495 239.761 199.752C240.166 200.076 240.467 200.517 240.702 200.98C241.261 202.09 241.474 203.369 241.298 204.597C242.981 204.935 244.621 205.148 246.26 205.281C246.164 203.575 246.892 201.862 248.245 200.928C249.59 199.995 251.516 199.929 252.876 200.855C253.516 201.296 254.016 201.914 254.494 202.524C255.971 201.48 257.434 200.414 258.802 199.238C258.037 198.047 257.258 196.856 257.228 195.518C257.199 194.121 258.037 192.79 259.206 192.033C260.382 191.276 261.838 191.048 263.227 191.188C263.705 189.563 264.109 187.983 264.448 186.38C263.426 186.299 262.47 186.203 261.558 185.931L261.551 185.946ZM252.832 189.519C252.274 190.761 251.355 191.835 250.252 192.643C249.612 193.114 248.907 193.496 248.149 193.739C245.047 194.731 241.408 192.989 239.967 190.063C238.916 187.931 238.967 185.292 240.092 183.204C241.217 181.109 243.393 179.617 245.745 179.315C247.855 179.043 250.531 180.183 252.053 182.241C253.575 184.299 253.884 187.189 252.832 189.519Z" fill="white"/>
<g opacity="0.13">
<path d="M254.729 186.123C254.7 185.88 254.648 185.638 254.589 185.402C254.56 185.344 254.538 185.292 254.509 185.233C254.067 184.366 253.545 183.55 252.95 182.778C252.854 182.844 252.774 182.947 252.744 183.065C252.685 183.476 253.001 183.851 253.104 184.248C253.465 185.329 253.707 185.844 253.59 186.829C253.604 187.204 252.979 189.291 252.781 189.556C252.546 190.019 252.274 190.46 251.965 190.872C251.869 190.982 251.84 191.034 251.855 191.041C251.7 191.159 251.561 191.32 251.414 191.445C251.09 191.717 250.767 191.997 250.443 192.269C250.355 192.335 250.215 192.445 250.12 192.548C250.171 192.467 250.031 192.607 249.899 192.717C249.826 192.761 249.502 192.989 249.34 193.07C248.201 193.474 247.025 193.695 246.4 193.724C245.569 193.798 244.746 193.592 244.106 193.438C243.65 193.305 243.253 192.849 242.761 192.945C242.548 192.996 242.408 193.158 242.357 193.349C242.401 193.401 242.452 193.452 242.504 193.504C242.673 193.643 242.834 193.776 243.003 193.915C243.614 194.312 244.224 194.709 244.834 195.099C245.841 195.393 246.929 195.452 248.223 195.202C248.201 195.202 248.172 195.202 248.15 195.209C249.51 194.923 249.936 194.739 250.928 194.224C251.796 193.71 252.494 192.96 253.031 192.107C253.046 192.085 253.06 192.055 253.075 192.033C253.707 191.247 254.192 190.343 254.523 189.387C254.861 188.336 254.861 187.204 254.758 186.116L254.729 186.123Z" fill="black"/>
</g>
<g opacity="0.13">
<path d="M258.037 197.238C257.905 197.246 257.765 197.275 257.647 197.348C257.471 197.444 257.368 197.606 257.258 197.767C257.155 197.9 257.052 198.025 256.964 198.164C256.692 198.51 256.618 198.664 256.015 199.267C255.684 199.627 255.163 199.848 254.942 200.289C254.942 200.296 254.942 200.304 254.935 200.311C254.81 200.385 254.677 200.458 254.545 200.532C254.302 200.679 253.986 200.752 253.825 200.995C253.303 201.62 254.111 202.531 254.802 202.105C255.523 201.723 256.199 201.274 256.802 200.73C256.831 200.701 256.861 200.671 256.89 200.642C257.361 200.26 257.824 199.87 258.243 199.429C258.397 199.267 258.581 199.076 258.728 198.863C258.574 198.547 258.434 198.216 258.309 197.892C258.213 197.679 258.125 197.466 258.044 197.246L258.037 197.238Z" fill="black"/>
</g>
<g opacity="0.13">
<path d="M262.72 186.321C262.448 187.372 262.139 188.416 261.801 189.446C261.647 189.923 261.492 190.409 261.338 190.894C261.522 191.122 261.838 191.247 262.124 191.158C262.139 191.158 262.154 191.144 262.168 191.144C262.418 191.497 263.073 191.453 263.198 190.96C263.256 190.732 263.352 190.504 263.433 190.276C263.484 190.254 263.529 190.225 263.573 190.188C263.867 189.968 263.955 189.563 264.065 189.225C264.227 188.549 264.322 187.858 264.345 187.167C264.345 187.123 264.345 187.086 264.352 187.042C263.801 186.814 263.256 186.571 262.712 186.321H262.72Z" fill="black"/>
</g>
<path d="M246.26 205.663C246.26 205.663 246.238 205.663 246.231 205.663C244.496 205.523 242.864 205.303 241.224 204.972C241.033 204.935 240.908 204.751 240.93 204.56C241.099 203.406 240.901 202.2 240.372 201.156C240.122 200.664 239.85 200.304 239.533 200.054C239.276 199.848 238.953 199.686 238.548 199.554C237.085 199.083 235.387 199.341 234.013 200.245C233.843 200.355 233.616 200.311 233.505 200.142C232.579 198.753 231.667 197.319 230.704 195.76C230.609 195.606 230.646 195.4 230.785 195.283C231.623 194.606 232.219 193.871 232.564 193.092C232.961 192.195 232.998 191.225 232.667 190.445C232.314 189.593 231.572 189.027 231.013 188.703C230.366 188.328 229.638 188.071 228.874 187.799L228.536 187.681C228.389 187.63 228.286 187.483 228.293 187.328C228.345 185.542 228.506 183.917 228.786 182.498C228.815 182.337 228.955 182.212 229.124 182.204C230.322 182.131 231.278 181.896 232.042 181.469C232.969 180.962 233.616 180.168 233.814 179.301C234.042 178.33 233.718 177.294 233.41 176.5C233.255 176.088 233.079 175.698 232.675 175.426C232.579 175.36 232.52 175.257 232.513 175.147C232.513 175.037 232.55 174.926 232.638 174.846C233.741 173.883 234.726 173.118 235.725 172.434C235.872 172.331 236.071 172.353 236.196 172.486C236.688 173 237.446 173.206 238.247 173.375C238.754 173.486 239.217 173.581 239.681 173.596C240.791 173.633 241.93 173.191 242.79 172.39C243.621 171.626 244.187 170.552 244.43 169.295C244.466 169.111 244.635 168.986 244.819 169.001L248.987 169.31C249.208 169.325 249.384 169.472 249.465 169.7C249.473 169.729 249.48 169.751 249.487 169.78C249.671 171.221 250.112 172.39 250.811 173.272C251.619 174.287 252.818 174.882 253.935 174.831C255.214 174.765 256.398 173.897 257.53 173.052C257.692 172.934 257.912 172.964 258.037 173.118C259.177 174.581 260.132 175.919 260.948 177.213C261.044 177.367 261.014 177.573 260.875 177.691C260.132 178.315 259.177 179.352 258.802 180.764C258.471 182.006 258.713 183.329 259.427 184.219C259.919 184.829 260.684 185.307 261.639 185.593C262.514 185.858 263.433 185.946 264.448 186.027C264.55 186.035 264.646 186.086 264.712 186.174C264.778 186.255 264.8 186.365 264.778 186.468C264.448 188.041 264.043 189.622 263.551 191.305C263.499 191.475 263.338 191.585 263.161 191.57C261.735 191.423 260.39 191.702 259.375 192.357C258.25 193.085 257.537 194.327 257.559 195.525C257.589 196.746 258.294 197.848 259.052 199.017L259.081 199.061C259.177 199.216 259.147 199.422 259.015 199.539C257.596 200.752 256.096 201.847 254.677 202.847C254.516 202.958 254.295 202.928 254.178 202.774C253.744 202.222 253.259 201.598 252.648 201.179C251.45 200.362 249.678 200.392 248.436 201.252C247.23 202.083 246.517 203.663 246.606 205.281C246.606 205.384 246.569 205.486 246.495 205.56C246.429 205.626 246.334 205.663 246.238 205.663H246.26ZM241.702 204.318C243.07 204.582 244.444 204.766 245.885 204.898C245.907 203.163 246.708 201.561 248.039 200.642C249.546 199.598 251.619 199.569 253.082 200.568C253.685 200.98 254.156 201.524 254.56 202.046C255.795 201.171 257.081 200.223 258.316 199.186C257.589 198.054 256.89 196.878 256.861 195.547C256.831 194.099 257.67 192.607 259.007 191.747C260.088 191.048 261.478 190.725 262.963 190.82C263.367 189.409 263.712 188.064 263.999 186.733C263.095 186.652 262.272 186.549 261.448 186.299C260.353 185.968 259.471 185.41 258.883 184.689C258.022 183.623 257.728 182.05 258.118 180.587C258.427 179.418 259.14 178.308 260.184 177.36C259.471 176.25 258.655 175.103 257.706 173.868C256.567 174.706 255.383 175.507 254.001 175.581C252.648 175.654 251.215 174.949 250.267 173.743C249.509 172.795 249.024 171.545 248.811 170.045L245.113 169.773C244.812 171.052 244.194 172.14 243.319 172.949C242.312 173.883 240.989 174.39 239.688 174.346C239.159 174.331 238.644 174.221 238.115 174.11C237.335 173.941 236.534 173.728 235.917 173.221C235.115 173.78 234.321 174.397 233.461 175.14C233.792 175.485 233.968 175.889 234.108 176.257C234.454 177.147 234.814 178.323 234.542 179.484C234.292 180.558 233.513 181.521 232.403 182.131C231.601 182.572 230.638 182.829 229.462 182.932C229.241 184.175 229.094 185.571 229.043 187.1L229.124 187.13C229.925 187.409 230.682 187.674 231.388 188.086C232.042 188.468 232.917 189.144 233.351 190.181C233.755 191.151 233.711 192.327 233.241 193.408C232.888 194.209 232.307 194.967 231.498 195.665C232.329 197.003 233.123 198.253 233.924 199.458C235.431 198.591 237.218 198.37 238.776 198.878C239.269 199.039 239.666 199.238 239.989 199.502C240.394 199.826 240.732 200.26 241.026 200.848C241.57 201.914 241.798 203.141 241.695 204.34L241.702 204.318Z" fill="black"/>
<path d="M245.745 179.315C243.385 179.617 241.217 181.109 240.092 183.204C238.967 185.299 238.923 187.931 239.967 190.063C241.408 192.989 245.047 194.731 248.149 193.739C248.906 193.496 249.612 193.114 250.252 192.644C251.354 191.835 252.266 190.762 252.832 189.519C253.883 187.189 253.574 184.3 252.053 182.241C250.531 180.183 247.855 179.043 245.745 179.315Z" fill="white"/>
<path d="M246.333 194.386C243.643 194.386 240.893 192.768 239.636 190.225C238.533 187.983 238.585 185.226 239.761 183.028C240.945 180.83 243.216 179.264 245.694 178.948C248.009 178.654 250.803 179.94 252.347 182.021C253.957 184.197 254.28 187.196 253.17 189.666C252.597 190.931 251.671 192.063 250.472 192.937C249.759 193.459 249.017 193.849 248.259 194.092C247.635 194.29 246.988 194.386 246.333 194.386ZM245.789 179.675C243.54 179.962 241.481 181.381 240.408 183.373C239.335 185.365 239.291 187.872 240.29 189.901C241.687 192.746 245.164 194.312 248.032 193.393C248.715 193.173 249.384 192.827 250.031 192.349C251.119 191.548 251.972 190.519 252.494 189.365C253.486 187.167 253.185 184.395 251.751 182.454C250.362 180.58 247.848 179.411 245.782 179.675H245.789Z" fill="black"/>
<path d="M246.069 190.982C244.834 190.982 243.584 190.299 242.886 189.196C242.151 188.034 242.033 186.454 242.577 185.079C242.945 184.145 243.577 183.366 244.356 182.881C245.224 182.344 246.253 182.175 247.179 182.425C248.231 182.704 249.01 183.175 249.51 183.807C250.105 184.572 250.436 185.594 250.429 186.689C250.429 187.439 250.267 188.078 249.965 188.593C249.693 189.049 249.304 189.416 248.988 189.681C248.15 190.394 247.4 190.791 246.628 190.923C246.444 190.953 246.26 190.975 246.069 190.975V190.982ZM246.319 183.05C245.782 183.05 245.224 183.204 244.739 183.506C244.092 183.91 243.562 184.564 243.254 185.351C242.798 186.513 242.893 187.836 243.504 188.806C244.15 189.828 245.386 190.409 246.496 190.21C247.135 190.1 247.775 189.755 248.51 189.13C248.797 188.887 249.113 188.593 249.326 188.225C249.561 187.821 249.686 187.299 249.693 186.689C249.693 185.755 249.429 184.895 248.929 184.256C248.532 183.748 247.878 183.366 246.988 183.131C246.775 183.072 246.547 183.043 246.319 183.043V183.05Z" fill="black"/>
<g clip-path="url(#clip2_524_21139)">
<path d="M200.058 92.6074C201.065 90.9273 202.374 89.5037 204.265 88.7077C205.78 88.0698 207.37 87.8762 208.99 87.9016C210.023 87.9177 211.057 87.9532 212.086 88.0432C213.312 88.1506 214.47 87.9176 215.608 87.4836C217.804 86.6456 219.892 85.5804 221.911 84.3838C223.761 83.2865 225.574 82.1239 227.392 80.9724C230.08 79.2704 232.762 77.559 235.439 75.8411C238.52 73.8642 241.613 71.9076 244.663 69.8822C246.601 68.5947 248.435 67.154 250.112 65.53C250.599 65.0586 251.092 64.5663 251.458 64.0032C251.858 63.3879 252.144 62.6913 252.428 62.0086C252.993 60.6545 253.53 59.2916 254.27 58.0165C255.854 55.2868 258.195 53.7578 261.32 53.4334C263.025 53.2563 264.681 53.4443 266.284 54.0501C266.719 54.2148 266.992 54.6045 266.984 55.0473C266.976 55.5112 266.697 55.8984 266.242 56.053C265.209 56.4041 264.205 56.8221 263.255 57.3642C262.519 57.7849 261.816 58.2527 261.264 58.9137C260.636 59.665 260.313 60.7858 261.122 61.84C261.343 62.127 261.481 62.4761 261.693 62.7707C262.098 63.3333 262.506 63.8967 262.955 64.4227C263.524 65.0875 264.288 65.1941 265.099 65.0106C265.942 64.8194 266.638 64.3305 267.304 63.8022C268.217 63.0783 269.022 62.2448 269.755 61.3404C270.287 60.6843 271.148 60.6775 271.545 61.3447C271.642 61.5079 271.705 61.7202 271.704 61.9104C271.688 64.287 270.961 66.4315 269.572 68.3633C268.05 70.4798 265.918 71.5329 263.417 71.8669C262.137 72.0379 260.835 72.1379 259.547 72.1146C257.82 72.0834 256.262 72.552 254.752 73.342C252.757 74.3869 250.879 75.6185 249.007 76.8674C247.514 77.8639 245.991 78.8156 244.479 79.7822C239.536 82.9409 234.596 86.1045 229.647 89.2518C227.831 90.4069 225.968 91.4903 224.167 92.6685C222.834 93.5399 221.557 94.4983 220.272 95.4423C219.073 96.3236 218.298 97.5277 217.68 98.8682C216.936 100.479 216.103 102.044 214.944 103.412C213.369 105.268 211.374 106.265 208.971 106.475C207.025 106.645 205.165 106.34 203.391 105.53C202.939 105.323 202.697 104.919 202.742 104.445C202.786 103.988 203.091 103.637 203.571 103.512C204.915 103.164 206.224 102.721 207.438 102.03C208.039 101.688 208.615 101.304 209.022 100.728C209.566 99.9573 209.684 99.1473 209.201 98.3012C208.715 97.4506 208.217 96.6071 207.751 95.7462C207.155 94.6426 206.025 94.498 205.214 94.6946C204.334 94.9075 203.551 95.3383 202.854 95.8954C202.02 96.5637 201.227 97.2879 200.44 98.014C199.909 98.5036 199.189 98.4875 198.786 97.9274C198.615 97.6899 198.576 97.421 198.603 97.1329C198.757 95.5372 199.238 94.0458 200.059 92.6086L200.058 92.6074ZM265.914 55.033C265.883 55.0174 265.857 55.0007 265.829 54.9904C264.308 54.4373 262.744 54.29 261.137 54.5014C258.644 54.8295 256.724 56.0434 255.377 58.1898C254.521 59.5537 253.942 61.0407 253.343 62.522C253.045 63.2579 252.771 64.0054 252.286 64.65C251.487 65.71 250.525 66.6063 249.522 67.4629C247.049 69.5759 244.369 71.3942 241.628 73.1311C236.246 76.5402 230.877 79.9701 225.512 83.4061C222.82 85.1301 220.055 86.713 217.124 87.9859C215.996 88.4753 214.854 88.968 213.617 89.0558C212.755 89.117 211.883 89.0469 211.017 89.0047C209.672 88.9388 208.327 88.8712 206.985 89.0511C205.492 89.2511 204.097 89.7192 202.938 90.7257C201.323 92.1274 200.311 93.8989 199.837 95.9784C199.739 96.4074 199.686 96.846 199.603 97.3308C200.194 96.7893 200.717 96.2793 201.273 95.8075C202.289 94.945 203.369 94.1843 204.653 93.768C206.13 93.2898 207.614 93.726 208.437 94.901C208.755 95.3552 209.063 95.8194 209.335 96.3021C209.667 96.891 209.967 97.4995 210.261 98.109C210.577 98.7614 210.612 99.4464 210.425 100.148C210.15 101.186 209.474 101.919 208.619 102.507C207.316 103.402 205.859 103.946 204.353 104.374C204.172 104.425 203.987 104.458 203.778 104.506C203.83 104.569 203.838 104.585 203.851 104.591C203.889 104.612 203.928 104.63 203.968 104.647C205.551 105.336 207.2 105.589 208.925 105.437C211.333 105.224 213.2 104.093 214.625 102.156C215.511 100.953 216.198 99.6355 216.814 98.2844C217.465 96.8576 218.332 95.6128 219.588 94.6684C220.724 93.8151 221.845 92.9354 223.035 92.1659C225.633 90.4867 228.281 88.8855 230.891 87.2246C236.568 83.6127 242.234 79.9833 247.904 76.362C249.579 75.2925 251.246 74.2116 252.934 73.1638C253.561 72.7743 254.238 72.464 254.894 72.1211C256.341 71.3656 257.876 71.0568 259.502 71.0813C260.978 71.104 262.456 71.0399 263.913 70.7352C265.279 70.4491 266.561 69.956 267.604 68.9949C269.426 67.3169 270.372 65.1977 270.633 62.7568C270.662 62.4843 270.664 62.2095 270.679 61.9085C270.094 62.5282 269.558 63.1325 268.982 63.6958C268.08 64.5784 267.101 65.3608 265.918 65.8425C264.557 66.3965 262.779 66.2146 261.781 64.6091C261.644 64.3899 261.444 64.2115 261.302 63.9956C260.831 63.2791 260.356 62.564 259.915 61.8284C259.647 61.3796 259.575 60.8663 259.612 60.3403C259.678 59.3993 260.082 58.6177 260.735 57.9537C261.617 57.0558 262.686 56.435 263.813 55.9136C264.498 55.5965 265.205 55.3278 265.914 55.0321L265.914 55.033Z" fill="black"/>
<path d="M267.777 85.9448C268.099 86.1318 268.222 86.3966 268.292 86.7067C268.67 88.3706 269.054 90.0327 269.436 91.6956C269.51 92.0181 269.585 92.34 269.662 92.6619C269.723 92.9227 269.655 93.1341 269.456 93.3216C267.899 94.7829 266.346 96.2486 264.792 97.7136C264.597 97.8976 264.384 97.952 264.123 97.8732C262.107 97.2642 260.089 96.6596 258.07 96.0577C257.765 95.9668 257.602 95.7814 257.531 95.4639C257.082 93.4771 256.63 91.4909 256.155 89.5105C256.053 89.0853 256.136 88.7969 256.462 88.4959C257.968 87.1067 259.454 85.6967 260.941 84.2878C261.168 84.0725 261.394 84.0095 261.697 84.1019C263.628 84.6899 265.564 85.2661 267.498 85.8474C267.606 85.8799 267.71 85.9215 267.776 85.9445L267.777 85.9448ZM258.291 95.3564C258.359 95.3776 258.383 95.3858 258.408 95.3933C260.317 95.9664 262.227 96.5367 264.133 97.117C264.289 97.1643 264.374 97.1117 264.473 97.0177C265.912 95.66 267.353 94.3034 268.795 92.9491C268.899 92.8516 268.941 92.7631 268.905 92.6097C268.459 90.7032 268.019 88.7947 267.584 86.8848C267.541 86.6931 267.459 86.5927 267.263 86.5348C265.394 85.982 263.527 85.4196 261.662 84.853C261.519 84.8094 261.425 84.8226 261.315 84.9267C259.866 86.2984 258.411 87.664 256.964 89.0387C256.899 89.1004 256.855 89.2412 256.875 89.3282C257.317 91.2809 257.768 93.2306 258.22 95.1809C258.236 95.2508 258.274 95.3151 258.291 95.3557L258.291 95.3564Z" fill="black"/>
<path d="M242.779 110.774C242.631 110.851 242.491 110.97 242.334 110.998C240.22 111.376 238.104 111.741 235.988 112.109C235.737 112.153 235.532 112.087 235.365 111.883C234.032 110.263 232.699 108.644 231.356 107.033C231.129 106.76 231.094 106.506 231.22 106.171C231.936 104.278 232.633 102.378 233.336 100.48C233.482 100.087 233.745 99.8541 234.169 99.7817C236.183 99.4374 238.196 99.0846 240.207 98.7282C240.507 98.675 240.726 98.7664 240.915 98.996C242.242 100.61 243.571 102.222 244.907 103.829C245.113 104.078 245.153 104.318 245.04 104.621C244.301 106.589 243.572 108.561 242.839 110.531C242.814 110.596 242.783 110.66 242.755 110.723C242.763 110.74 242.771 110.757 242.779 110.774ZM234.074 100.603C234.036 100.693 234.021 100.725 234.009 100.758C233.318 102.615 232.625 104.471 231.943 106.331C231.911 106.42 231.943 106.574 232.004 106.649C233.25 108.173 234.506 109.689 235.756 111.211C235.854 111.329 235.945 111.38 236.107 111.352C238.068 111.005 240.031 110.668 241.992 110.319C242.073 110.305 242.175 110.216 242.204 110.139C242.907 108.268 243.603 106.395 244.29 104.518C244.324 104.427 244.31 104.271 244.252 104.2C242.989 102.655 241.719 101.117 240.443 99.583C240.39 99.5192 240.266 99.4676 240.187 99.4811C238.223 99.8156 236.261 100.158 234.299 100.504C234.206 100.52 234.121 100.582 234.073 100.602L234.074 100.603Z" fill="black"/>
<path d="M265.914 55.0328C265.204 55.3283 264.497 55.5977 263.812 55.9143C262.685 56.4357 261.617 57.0564 260.734 57.9544C260.082 58.6184 259.678 59.4 259.612 60.3409C259.575 60.8675 259.646 61.3803 259.915 61.8291C260.355 62.5647 260.83 63.2797 261.302 63.9962C261.444 64.2122 261.644 64.3906 261.78 64.6097C262.779 66.2155 264.556 66.3971 265.917 65.8431C267.101 65.3615 268.08 64.579 268.982 63.6964C269.557 63.1331 270.094 62.5292 270.679 61.9092C270.663 62.2101 270.662 62.485 270.633 62.7575C270.371 65.1984 269.425 67.3175 267.603 68.9956C266.56 69.9567 265.278 70.4498 263.912 70.7359C262.456 71.0408 260.978 71.1049 259.501 71.0819C257.875 71.0572 256.34 71.3662 254.894 72.1218C254.238 72.4647 253.561 72.775 252.933 73.1645C251.245 74.2116 249.578 75.2932 247.904 76.3626C242.234 79.9842 236.567 83.6138 230.891 87.2252C228.281 88.8859 225.633 90.4867 223.035 92.1666C221.844 92.9361 220.723 93.8157 219.588 94.669C218.332 95.6134 217.464 96.8583 216.814 98.2851C216.198 99.6362 215.51 100.953 214.624 102.157C213.2 104.094 211.333 105.225 208.925 105.437C207.199 105.59 205.55 105.337 203.968 104.648C203.928 104.63 203.888 104.613 203.85 104.592C203.838 104.585 203.83 104.569 203.778 104.507C203.987 104.459 204.172 104.426 204.353 104.375C205.858 103.947 207.316 103.403 208.619 102.507C209.474 101.92 210.149 101.187 210.425 100.149C210.611 99.4471 210.576 98.7621 210.261 98.1096C209.967 97.5001 209.666 96.8922 209.335 96.3028C209.063 95.82 208.755 95.3558 208.437 94.9017C207.614 93.7262 206.129 93.2902 204.653 93.7687C203.368 94.1847 202.288 94.9457 201.273 95.8082C200.717 96.2795 200.194 96.79 199.603 97.3315C199.685 96.8467 199.738 96.4081 199.836 95.9791C200.311 93.8998 201.322 92.128 202.937 90.7264C204.097 89.7204 205.491 89.2518 206.984 89.0517C208.327 88.8717 209.671 88.9394 211.017 89.0054C211.882 89.0481 212.755 89.1177 213.617 89.0565C214.854 88.9689 215.996 88.4763 217.123 87.9865C220.055 86.7136 222.82 85.1308 225.511 83.4067C230.877 79.9703 236.245 76.5409 241.627 73.1317C244.37 71.3946 247.049 69.5768 249.522 67.4636C250.524 66.6069 251.486 65.7104 252.285 64.6507C252.771 64.0056 253.045 63.2578 253.342 62.5227C253.942 61.0414 254.52 59.5541 255.376 58.1905C256.724 56.0437 258.644 54.8302 261.137 54.502C262.743 54.2902 264.307 54.4376 265.828 54.991C265.856 55.0013 265.883 55.0178 265.913 55.0337L265.914 55.0328ZM255.571 58.7549C255.434 59.0747 255.284 59.3898 255.163 59.7159C255.064 59.9849 255.174 60.1985 255.416 60.2801C255.648 60.3582 255.861 60.2395 255.958 59.9682C256.218 59.2399 256.643 58.6164 257.183 58.0722C258.326 56.9196 259.718 56.1884 261.236 55.675C261.561 55.5646 261.696 55.3554 261.608 55.0975C261.526 54.8571 261.285 54.7467 260.982 54.8733C260.197 55.2019 259.396 55.5057 258.65 55.9098C257.393 56.5901 256.332 57.5101 255.571 58.7549ZM213.578 101.266C213.661 101.123 213.75 100.982 213.825 100.835C213.968 100.558 213.913 100.329 213.684 100.208C213.454 100.086 213.239 100.176 213.084 100.442C212.917 100.728 212.761 101.024 212.56 101.286C211.775 102.311 210.73 102.998 209.554 103.474C208.84 103.763 208.089 103.961 207.35 104.189C207.07 104.275 206.921 104.441 206.961 104.684C207.003 104.938 207.211 105.066 207.511 105.019C207.579 105.009 207.648 104.995 207.715 104.979C208.839 104.72 209.915 104.327 210.922 103.755C212.005 103.139 212.937 102.355 213.578 101.266Z" fill="white"/>
<path d="M258.291 95.3568C258.274 95.3162 258.236 95.2519 258.22 95.182C257.768 93.232 257.317 91.2816 256.875 89.3293C256.855 89.2423 256.899 89.1015 256.964 89.0398C258.411 87.6654 259.866 86.2996 261.315 84.9279C261.425 84.8237 261.519 84.811 261.662 84.8541C263.527 85.4207 265.394 85.9832 267.263 86.536C267.46 86.5941 267.541 86.6944 267.584 86.886C268.019 88.7955 268.459 90.7038 268.905 92.6109C268.941 92.7642 268.899 92.8523 268.795 92.9503C267.353 94.3046 265.912 95.6611 264.473 97.0189C264.374 97.1129 264.289 97.1655 264.133 97.1181C262.226 96.5379 260.317 95.9676 258.408 95.3944C258.383 95.3867 258.358 95.3785 258.291 95.3575L258.291 95.3568ZM265.561 92.5456C266.43 91.0538 265.944 89.1455 264.479 88.2854C262.998 87.4164 261.076 87.9255 260.211 89.416C259.341 90.9151 259.833 92.8161 261.319 93.6907C262.777 94.549 264.697 94.0312 265.561 92.546L265.561 92.5456ZM268.042 92.6011C268.017 92.5237 268.012 92.3942 267.945 92.3407C267.889 92.2947 267.755 92.3157 267.669 92.345C267.603 92.3675 267.557 92.4505 267.502 92.5062C266.383 93.6649 265.295 94.8584 263.909 95.7192C263.836 95.7647 263.829 95.9182 263.792 96.0211C263.903 96.0523 264.028 96.1307 264.124 96.1049C264.269 96.0662 264.401 95.9619 264.529 95.8721C265.66 95.0753 266.625 94.0934 267.579 93.0998C267.724 92.9491 267.864 92.7929 268.042 92.6002L268.042 92.6011ZM259.952 87.4533C260.11 87.1722 260.092 86.8958 259.939 86.8315C259.78 86.7647 259.629 86.784 259.528 86.9452C259.438 87.0908 259.516 87.4192 259.673 87.4737C259.766 87.506 259.885 87.46 259.953 87.4536L259.952 87.4533ZM262.595 86.6407C262.753 86.3409 262.732 86.0777 262.573 86.0179C262.415 85.9582 262.261 85.9759 262.163 86.1397C262.073 86.2889 262.156 86.6067 262.319 86.6632C262.41 86.6947 262.528 86.6484 262.594 86.6412L262.595 86.6407Z" fill="white"/>
<path d="M234.074 100.603C234.121 100.582 234.206 100.521 234.299 100.505C236.261 100.159 238.223 99.8156 240.187 99.4814C240.267 99.4678 240.39 99.52 240.444 99.5833C241.719 101.117 242.99 102.655 244.253 104.201C244.311 104.272 244.324 104.427 244.291 104.519C243.603 106.395 242.908 108.268 242.205 110.139C242.176 110.217 242.073 110.305 241.993 110.319C240.032 110.668 238.069 111.005 236.107 111.352C235.946 111.38 235.853 111.329 235.757 111.211C234.507 109.69 233.251 108.173 232.004 106.649C231.943 106.574 231.912 106.42 231.944 106.332C232.626 104.471 233.318 102.615 234.009 100.758C234.022 100.725 234.036 100.694 234.074 100.603L234.074 100.603ZM235.439 103.861C234.559 105.363 235.066 107.236 236.594 108.133C238.017 108.968 239.94 108.456 240.781 107.018C241.667 105.505 241.194 103.594 239.721 102.734C238.209 101.853 236.325 102.348 235.439 103.861ZM243.337 104.698C243.323 104.596 243.329 104.508 243.299 104.433C243.252 104.313 243.187 104.198 243.121 104.087C242.412 102.894 241.49 101.871 240.562 100.853C240.422 100.7 240.289 100.534 240.124 100.413C240.054 100.361 239.888 100.375 239.809 100.427C239.764 100.456 239.791 100.622 239.811 100.722C239.821 100.773 239.89 100.81 239.928 100.856C240.771 101.867 241.618 102.872 242.448 103.893C242.626 104.112 242.732 104.389 242.887 104.628C242.937 104.704 243.034 104.768 243.122 104.794C243.175 104.809 243.253 104.738 243.336 104.698L243.337 104.698ZM233.841 105.691C233.811 105.629 233.791 105.497 233.714 105.442C233.496 105.285 233.239 105.299 233.164 105.453C233.085 105.617 233.105 105.779 233.268 105.884C233.407 105.975 233.725 105.887 233.84 105.691L233.841 105.691ZM234.467 108.365C234.434 108.304 234.406 108.171 234.327 108.121C234.084 107.968 233.857 107.999 233.784 108.17C233.715 108.332 233.749 108.478 233.907 108.572C234.047 108.657 234.366 108.564 234.467 108.365L234.467 108.365Z" fill="white"/>
<path d="M255.571 58.7549C256.332 57.5097 257.394 56.59 258.65 55.9097C259.396 55.5056 260.198 55.2017 260.983 54.8732C261.286 54.7463 261.527 54.8565 261.609 55.0974C261.697 55.3557 261.562 55.5649 261.236 55.6748C259.718 56.188 258.327 56.9195 257.184 58.072C256.643 58.6167 256.218 59.2397 255.958 59.9681C255.862 60.2391 255.649 60.358 255.416 60.28C255.174 60.1988 255.064 59.9852 255.164 59.7158C255.284 59.3899 255.434 59.0746 255.571 58.7547L255.571 58.7549Z" fill="black"/>
<path d="M213.578 101.266C212.937 102.355 212.005 103.14 210.922 103.755C209.916 104.327 208.84 104.719 207.716 104.979C207.648 104.995 207.58 105.009 207.511 105.019C207.212 105.066 207.003 104.938 206.962 104.684C206.922 104.441 207.07 104.275 207.351 104.188C208.089 103.961 208.841 103.763 209.555 103.473C210.73 102.998 211.776 102.311 212.561 101.286C212.761 101.024 212.918 100.728 213.085 100.442C213.24 100.176 213.455 100.086 213.685 100.208C213.914 100.328 213.969 100.557 213.826 100.835C213.75 100.982 213.662 101.123 213.579 101.266L213.578 101.266Z" fill="black"/>
<path d="M265.561 92.5456C264.697 94.0305 262.777 94.5491 261.319 93.6903C259.833 92.8156 259.341 90.9147 260.211 89.4155C261.077 87.925 262.998 87.416 264.479 88.285C265.945 89.1454 266.43 91.0539 265.562 92.5451L265.561 92.5456ZM263.599 89.7437C262.67 89.2083 261.502 89.3608 260.748 90.1224C260.678 90.1925 260.62 90.2891 260.594 90.3835C260.308 91.4163 260.756 92.5128 261.677 93.0531C262.582 93.5838 263.759 93.4431 264.515 92.7013C264.608 92.6102 264.683 92.4764 264.714 92.3498C264.966 91.3168 264.514 90.2702 263.599 89.7437ZM262.398 88.6812C263.594 88.7407 264.472 89.2459 265.116 90.2413C264.908 89.1611 263.474 88.3326 262.398 88.6812Z" fill="black"/>
<path d="M268.042 92.6012C267.864 92.7939 267.725 92.9496 267.58 93.1008C266.626 94.0944 265.661 95.0764 264.529 95.8731C264.402 95.9629 264.27 96.0673 264.125 96.1059C264.028 96.1318 263.904 96.0538 263.792 96.0221C263.83 95.9192 263.837 95.7657 263.91 95.7202C265.295 94.8591 266.383 93.6657 267.503 92.5073C267.557 92.4508 267.604 92.3685 267.67 92.346C267.756 92.3163 267.89 92.2958 267.946 92.3417C268.012 92.3957 268.017 92.5249 268.043 92.6022L268.042 92.6012Z" fill="black"/>
<path d="M259.952 87.4529C259.885 87.4594 259.765 87.5053 259.673 87.4731C259.515 87.4186 259.438 87.0905 259.528 86.9446C259.629 86.7829 259.78 86.7643 259.938 86.8308C260.092 86.8952 260.11 87.1716 259.952 87.4527L259.952 87.4529Z" fill="black"/>
<path d="M262.595 86.6403C262.529 86.6475 262.411 86.6938 262.32 86.6623C262.157 86.6059 262.074 86.288 262.164 86.1388C262.262 85.9755 262.415 85.9578 262.574 86.0171C262.733 86.0771 262.753 86.34 262.595 86.6398L262.595 86.6403Z" fill="black"/>
<path d="M235.439 103.861C236.325 102.348 238.21 101.852 239.721 102.734C241.194 103.594 241.667 105.505 240.781 107.018C239.94 108.456 238.017 108.968 236.594 108.133C235.066 107.236 234.559 105.363 235.439 103.861ZM240.183 106.604C240.677 105.746 240.598 104.665 239.97 103.913C239.872 103.795 239.717 103.697 239.569 103.654C238.574 103.365 237.483 103.775 236.938 104.626C236.352 105.542 236.412 106.683 237.1 107.496C237.169 107.576 237.27 107.645 237.371 107.679C238.439 108.042 239.616 107.589 240.183 106.604ZM235.802 105.817C235.919 104.608 236.489 103.744 237.544 103.138C236.425 103.301 235.516 104.704 235.802 105.817Z" fill="black"/>
<path d="M243.337 104.698C243.253 104.738 243.176 104.809 243.123 104.794C243.035 104.768 242.937 104.704 242.888 104.628C242.732 104.388 242.627 104.111 242.449 103.892C241.619 102.873 240.771 101.867 239.929 100.856C239.891 100.81 239.822 100.772 239.811 100.722C239.791 100.622 239.764 100.456 239.81 100.426C239.889 100.375 240.054 100.361 240.125 100.413C240.29 100.534 240.423 100.699 240.563 100.853C241.491 101.871 242.412 102.894 243.122 104.086C243.188 104.198 243.253 104.312 243.3 104.433C243.329 104.507 243.325 104.595 243.337 104.698L243.337 104.698Z" fill="black"/>
<path d="M233.841 105.691C233.725 105.887 233.407 105.975 233.268 105.885C233.106 105.779 233.085 105.617 233.165 105.453C233.239 105.299 233.496 105.285 233.715 105.443C233.791 105.497 233.812 105.629 233.841 105.691L233.841 105.691Z" fill="black"/>
<path d="M234.467 108.365C234.366 108.564 234.047 108.656 233.906 108.572C233.749 108.477 233.714 108.332 233.784 108.169C233.856 107.999 234.084 107.968 234.326 108.121C234.406 108.171 234.433 108.304 234.466 108.365L234.467 108.365Z" fill="black"/>
<path d="M263.599 89.7437C264.514 90.2702 264.966 91.3175 264.714 92.3498C264.683 92.4766 264.608 92.6102 264.515 92.7013C263.759 93.4431 262.582 93.5838 261.677 93.0531C260.757 92.5126 260.309 91.4159 260.594 90.3835C260.62 90.2891 260.678 90.1925 260.748 90.1224C261.502 89.3608 262.67 89.2083 263.599 89.7437Z" fill="white"/>
<path d="M262.398 88.6815C263.474 88.3326 264.908 89.1619 265.116 90.2416C264.473 89.2465 263.594 88.741 262.398 88.6815Z" fill="white"/>
<path d="M240.183 106.604C239.616 107.589 238.439 108.042 237.371 107.679C237.271 107.644 237.168 107.576 237.1 107.496C236.412 106.683 236.352 105.542 236.938 104.626C237.483 103.775 238.574 103.365 239.569 103.654C239.717 103.697 239.871 103.795 239.97 103.913C240.598 104.665 240.677 105.746 240.183 106.604Z" fill="white"/>
<path d="M235.802 105.817C235.517 104.704 236.425 103.301 237.544 103.138C236.489 103.743 235.919 104.607 235.802 105.817Z" fill="white"/>
</g>
<g opacity="0.8">
<path d="M40.7242 79.6788L38.8661 73.418L42.7707 67.7766L33.1439 60.9907C31.9052 63.0642 30.6665 65.1242 29.4278 67.1976C29.3605 67.3054 29.2932 67.4265 29.1855 67.4938C29.0374 67.5881 28.8623 67.5881 28.6873 67.5881C26.5465 67.5612 24.4058 67.5208 22.265 67.4669C21.2148 65.4204 20.178 63.4681 19.0336 61.6101C18.9394 61.462 18.8316 61.3004 18.6701 61.26C18.5085 61.2196 18.3335 61.3139 18.1854 61.4081C15.6407 62.9699 13.096 64.5318 10.5513 66.0936C10.4839 66.134 10.4166 66.1744 10.3762 66.2417C10.2685 66.4033 10.3628 66.6322 10.457 66.8072C11.413 68.544 12.5709 70.1732 13.8634 71.6542C12.719 73.8219 11.5072 75.8281 10.1743 77.7669C9.85113 78.2381 9.48761 78.7229 8.96251 78.8844C8.51819 79.0191 8.04695 78.8844 7.60264 78.7632C5.81192 78.2516 4.03467 77.6592 2.28435 76.9995C0.789842 80.6078 0.507097 84.7278 1.48997 88.5112C1.63808 88.8074 8.27584 87.8245 8.27584 87.8245L12.2343 94.8528L9.05676 100.198L16.3408 105.624L20.1242 99.9691L26.8023 100.104L29.3874 106.068L39.3508 102.554L36.9408 96.4415L40.5222 90.5039L47.2811 89.9519L47.4966 81.5368L40.7107 79.7057L40.7242 79.6788ZM29.2259 82.8563C29.2932 83.1525 29.0374 83.7315 28.9297 84.0008C28.8354 84.2296 28.7412 84.4585 28.6065 84.674C28.3507 85.0644 28.0276 85.4549 27.691 85.7645C26.9774 86.4377 26.183 86.9359 25.2674 87.2725C24.9039 87.4072 24.5 87.5014 24.123 87.5687C23.7864 87.6226 23.4633 87.663 23.1267 87.6226C22.9112 87.5956 22.6958 87.5283 22.4804 87.5283C23.0728 87.5283 22.4265 87.5283 22.1977 87.4745C21.1744 87.1783 20.1646 86.3166 19.6664 85.3741C19.3702 84.7951 19.1009 84.1623 19.074 83.5026C19.0471 82.9102 19.2086 82.2908 19.4241 81.7523C19.7472 80.9713 20.1107 80.1904 20.5954 79.4903C21.134 78.7094 21.7937 77.8881 22.6554 77.4572C23.5171 77.0129 24.4461 76.9456 25.2809 77.2687C25.631 77.1072 26.0214 77.0533 26.358 77.1745C26.9774 77.4168 27.5025 77.713 27.9333 78.2516C28.3642 78.7767 28.6335 79.2749 28.8893 79.9077C28.9701 80.1096 29.0239 80.2981 29.0778 80.5001C29.1047 80.6213 29.1316 80.7425 29.1451 80.8636C29.172 81.0521 29.1989 81.2406 29.2259 81.4291C29.2259 81.3887 29.2259 81.3483 29.2259 81.3079C29.2124 81.1464 29.2124 81.1329 29.2259 81.2945C29.2528 81.483 29.2797 81.6715 29.3067 81.8734C29.3067 81.9677 29.3201 82.0619 29.3067 82.1562C29.3067 82.3985 29.2932 82.6543 29.2259 82.8832V82.8563Z" fill="white"/>
<path d="M11.4264 87.1646C11.4264 87.1646 11.386 87.1646 11.3591 87.1646C11.2379 87.1243 11.1706 87.0031 11.211 86.8819C13.1094 80.2307 15.3579 73.5929 17.8891 67.1706C17.9295 67.0494 18.0642 66.9955 18.1853 67.0494C18.3065 67.0898 18.3604 67.2244 18.3065 67.3456C15.7753 73.7679 13.5402 80.3788 11.6418 87.0165C11.6149 87.1108 11.5206 87.1781 11.4264 87.1781V87.1646Z" fill="black"/>
<path d="M14.348 88.2419C14.348 88.2419 14.3076 88.2419 14.2942 88.2419C14.173 88.215 14.1057 88.0803 14.1326 87.9726C15.8964 81.6849 18.2122 75.5318 21.0397 69.675C21.0935 69.5673 21.2281 69.5134 21.3359 69.5673C21.4436 69.6211 21.4974 69.7558 21.4436 69.8635C18.6296 75.6934 16.3138 81.833 14.5635 88.0938C14.5365 88.188 14.4423 88.2553 14.348 88.2553V88.2419Z" fill="black"/>
<path d="M13.2573 100.292C13.2573 100.292 13.2034 100.292 13.1765 100.279C13.0553 100.238 13.0014 100.104 13.0553 99.9824L17.8889 88.0667C17.9293 87.9456 18.0639 87.8917 18.1851 87.9456C18.2928 87.986 18.3601 88.1206 18.3063 88.2418L13.4727 100.157C13.4323 100.238 13.3515 100.292 13.2707 100.292H13.2573Z" fill="black"/>
<path d="M19.5991 97.7206C19.5991 97.7206 19.5452 97.7206 19.5183 97.7071C19.3971 97.6667 19.3432 97.5321 19.3971 97.4109L22.1034 90.5712C22.1438 90.45 22.2784 90.3962 22.3996 90.45C22.5208 90.4904 22.5746 90.625 22.5208 90.7462L19.8145 97.586C19.7741 97.6802 19.6933 97.7341 19.6125 97.7341L19.5991 97.7206Z" fill="black"/>
<path d="M24.6479 75.1545C24.6479 75.1545 24.6076 75.1545 24.5806 75.1545C24.4594 75.1141 24.3921 74.993 24.4325 74.8718L25.7251 70.671C25.7655 70.5498 25.8866 70.4825 26.0078 70.5229C26.129 70.5633 26.1963 70.6845 26.1559 70.8057L24.8634 75.0064C24.8364 75.1007 24.7422 75.168 24.6479 75.168V75.1545Z" fill="black"/>
<path d="M29.7374 76.2588C29.7374 76.2588 29.6835 76.2588 29.6566 76.2453C29.5354 76.2049 29.4815 76.0703 29.5219 75.9626C30.8414 72.3677 32.3494 68.7863 34.0189 65.3395C34.0728 65.2318 34.2074 65.1779 34.3151 65.2318C34.4228 65.2856 34.4767 65.4203 34.4228 65.528C32.7533 68.9613 31.2453 72.5158 29.9393 76.1107C29.9124 76.2049 29.8181 76.2588 29.7239 76.2588H29.7374Z" fill="black"/>
<path d="M24.6483 97.788C24.6483 97.788 24.5809 97.788 24.554 97.7611C24.4463 97.7072 24.3924 97.5726 24.4463 97.4648L36.7255 70.8599C36.7793 70.7522 36.914 70.6984 37.0217 70.7522C37.1294 70.8061 37.1833 70.9407 37.1294 71.0484L24.8502 97.6533C24.8098 97.7341 24.729 97.788 24.6483 97.788Z" fill="black"/>
<path d="M29.5624 98.8648C29.5624 98.8648 29.4951 98.8648 29.4682 98.8513C29.3605 98.7975 29.3066 98.6628 29.3605 98.5551L37.6005 80.4595C37.6543 80.3518 37.789 80.2979 37.8967 80.3518C38.0044 80.4056 38.0582 80.5403 38.0044 80.648L29.7644 98.7436C29.724 98.8244 29.6432 98.8783 29.5624 98.8783V98.8648Z" fill="black"/>
<path d="M38.3545 89.8037C38.3545 89.8037 38.2872 89.8037 38.2468 89.7767C38.1391 89.7229 38.0987 89.5882 38.1525 89.4805L41.7878 82.762C41.8417 82.6543 41.9763 82.6139 42.084 82.6677C42.1917 82.7216 42.2321 82.8562 42.1783 82.9639L38.543 89.6825C38.5026 89.7633 38.4218 89.8037 38.341 89.8037H38.3545Z" fill="black"/>
<path d="M32.2685 102.541C32.2685 102.541 32.2012 102.541 32.1743 102.514C32.0665 102.46 32.0127 102.325 32.0665 102.217L33.7091 98.8514C33.763 98.7437 33.8976 98.6899 34.0054 98.7437C34.1131 98.7976 34.1669 98.9322 34.1131 99.0399L32.4705 102.406C32.4301 102.487 32.3493 102.527 32.2685 102.527V102.541Z" fill="black"/>
<path d="M4.51948 85.6029C4.51948 85.6029 4.45215 85.6029 4.42523 85.576C4.31751 85.5221 4.26366 85.3875 4.31751 85.2798L6.53908 80.5943C6.59294 80.4866 6.72758 80.4327 6.83529 80.4866C6.943 80.5404 6.99686 80.6751 6.943 80.7828L4.72144 85.4683C4.68104 85.5491 4.60026 85.5895 4.51948 85.5895V85.6029Z" fill="black"/>
<path d="M13.877 67.9515C13.877 67.9515 13.8096 67.9515 13.7692 67.9245C13.6615 67.8707 13.6211 67.736 13.675 67.6149L15.3176 64.6124C15.3715 64.5047 15.5061 64.4643 15.6273 64.5181C15.735 64.572 15.7754 64.7066 15.7215 64.8278L14.0789 67.8303C14.0385 67.9111 13.9577 67.9515 13.877 67.9515Z" fill="black"/>
<g opacity="0.13">
<path d="M31.178 84.1219C31.0972 83.0717 29.5219 82.964 29.2796 83.9873C28.9699 84.9702 29.0911 84.8086 28.0409 85.8184C27.0311 86.6397 27.4081 86.3974 25.8328 86.9763C24.3786 87.4206 24.9711 87.3264 23.7324 87.3264C23.5573 87.2994 23.3958 87.2456 23.2342 87.1917C22.6283 86.9628 22.8168 87.084 21.6724 86.4377C21.2011 86.1954 20.7703 85.7511 20.2317 85.7107C18.5756 85.401 17.7543 87.8649 19.2219 88.6997C21.8339 90.5173 24.4594 91.3521 27.435 89.8441C28.9699 88.9824 30.0874 87.5418 30.6529 85.8453C30.8952 85.2933 31.2184 84.7144 31.1645 84.1085L31.178 84.1219Z" fill="black"/>
</g>
<g opacity="0.13">
<path d="M35.6751 101.019C34.6923 101.383 34.3557 101.625 32.5111 101.962C31.6359 102.244 30.5723 102.096 29.8318 102.675C28.2699 103.806 29.5625 106.432 31.3801 105.866C33.5613 105.408 36.0791 105.314 37.7755 103.658C39.1219 102.123 37.4255 100.117 35.6751 101.006V101.019Z" fill="black"/>
</g>
<g opacity="0.13">
<path d="M48.0887 86.532C48.0887 86.532 48.0887 86.4916 48.0887 86.4781C48.0887 86.4916 48.0887 86.5185 48.0887 86.532C48.0887 86.155 48.0079 85.7915 47.8329 85.4683C47.0789 84.0277 44.8573 84.27 44.3323 85.7511C44.3053 85.8184 44.2649 85.8992 44.2111 85.9934C44.063 86.2896 43.9687 86.5993 43.861 86.8955C43.7668 87.1244 43.6187 87.4475 43.5379 87.6226C43.3494 87.9592 43.2551 88.3092 43.2551 88.6997C43.2821 91.1636 46.6885 91.6348 47.3347 89.2652C47.6713 88.4977 47.9271 87.7168 48.0349 86.8955C48.0618 86.7743 48.0753 86.6532 48.0753 86.532H48.0887Z" fill="black"/>
</g>
<path d="M29.32 106.647C29.0508 106.647 28.7949 106.486 28.7007 106.23C27.9467 104.331 27.2466 102.541 26.1291 100.723C24.0017 100.979 21.8744 100.858 19.8548 100.656C19.2624 101.733 18.6835 102.837 18.0776 103.995C17.741 104.654 17.3774 105.328 17.0139 106.014C16.8523 106.311 16.4888 106.445 16.1791 106.324C12.9612 105.058 10.1607 102.985 8.0738 100.359C7.8853 100.131 7.8853 99.7939 8.04687 99.5516C9.15092 98.0032 10.2819 96.401 11.5071 94.4487C10.2146 92.7523 9.07014 90.7192 8.00648 88.2418C7.50831 88.3495 7.0236 88.4438 6.52543 88.5515C4.96361 88.8881 3.34792 89.2247 1.61106 89.467C1.27446 89.5074 0.964789 89.3055 0.870541 88.9823C-0.112334 85.3201 0.156947 81.1597 1.69185 76.6493C1.79956 76.3127 2.14962 76.1242 2.48622 76.2184H2.56701C4.74818 76.7974 6.99668 77.3629 9.33942 77.9418C10.2954 75.8818 11.4802 73.9699 12.7324 71.9638C11.6418 70.4962 10.43 68.7997 9.33942 66.8071C9.19131 66.5378 9.24517 66.2012 9.47406 65.9858C11.8707 63.7911 14.8866 61.8927 18.4411 60.3174C18.7508 60.1828 19.1278 60.3039 19.3028 60.6001C20.4069 62.5659 21.3897 64.6124 22.2649 66.6994C24.5403 66.3358 26.8427 66.255 29.1315 66.457C30.1548 64.4778 31.2185 62.4447 32.5649 60.3174C32.7534 60.0212 33.1304 59.9135 33.44 60.075C36.0386 61.4349 38.5025 63.091 40.7645 65.0029C41.3703 65.5145 41.9628 66.0396 42.5283 66.5647C42.8379 66.8475 43.188 67.1571 43.3092 67.6418C43.3496 67.8303 43.3092 68.0188 43.2149 68.1804C42.7033 68.9478 42.1782 69.7153 41.6396 70.4962C40.8991 71.5599 40.1451 72.6639 39.3507 73.8757C40.0374 75.5722 40.7241 77.3225 41.3569 79.0593C43.2688 79.2344 45.7058 79.6114 48.3313 80.6885C48.5736 80.7827 48.7352 81.0116 48.7486 81.2674C48.9506 84.6604 48.5063 87.7706 47.3888 90.7461C47.2811 91.0154 47.0252 91.1904 46.729 91.177L45.9885 91.15C44.2786 91.0827 42.5283 91.0154 40.6433 91.15C39.9297 92.8869 38.8391 94.6507 37.2638 96.603C38.2602 98.3802 39.2834 100.225 40.1855 102.406C40.3202 102.716 40.1855 103.093 39.8893 103.254C36.4694 105.126 32.9419 106.27 29.4143 106.647C29.3874 106.647 29.3604 106.647 29.347 106.647H29.32ZM26.4522 99.3227C26.6811 99.3227 26.8965 99.4304 27.0177 99.6324C28.2295 101.517 29.0238 103.416 29.7509 105.247C32.7399 104.856 35.7424 103.887 38.6775 102.352C37.8024 100.333 36.806 98.5687 35.8366 96.8588C35.702 96.6164 35.7289 96.3202 35.9039 96.1048C37.6677 93.964 38.8122 92.1194 39.5123 90.2749C39.6066 90.0325 39.822 89.871 40.0778 89.844C42.2051 89.6421 44.1439 89.7229 46.0154 89.7902H46.2713C47.1599 87.2589 47.5234 84.62 47.4022 81.7521C44.8979 80.7827 42.5686 80.4865 40.7914 80.325C40.5356 80.298 40.3067 80.123 40.2124 79.8806C39.5123 77.9284 38.7314 75.9357 37.9639 74.0238C37.8832 73.8218 37.8966 73.5929 38.0178 73.4044C38.893 72.058 39.7143 70.8597 40.5221 69.7018C40.9799 69.0421 41.4242 68.4093 41.8551 67.763C41.7877 67.6957 41.707 67.6149 41.6396 67.5611C41.0472 67.036 40.4683 66.5109 39.8758 66.0127C37.8562 64.3028 35.6616 62.8082 33.3458 61.5426C32.0936 63.5892 31.0704 65.5549 30.0875 67.4668C29.9663 67.7092 29.697 67.8573 29.4278 67.8303C26.9369 67.5745 24.4191 67.6688 21.9418 68.1131C21.6321 68.1669 21.3224 67.9919 21.2012 67.7092C20.3934 65.6895 19.4509 63.7103 18.4142 61.7984C15.4252 63.1718 12.8535 64.7875 10.7666 66.6186C11.8303 68.5035 13.0286 70.1327 14.0653 71.5195C14.2269 71.7349 14.2403 72.0446 14.0922 72.2735C12.665 74.5489 11.3321 76.6897 10.3088 78.992C10.1742 79.2882 9.85105 79.4498 9.54138 79.369C7.18517 78.7901 4.93668 78.2246 2.75551 77.6725C1.55721 81.4559 1.30139 84.9431 2.01498 88.0533C3.48256 87.8244 4.88282 87.5282 6.24269 87.232C6.92936 87.0839 7.60256 86.9358 8.27576 86.8012C8.5989 86.7338 8.90857 86.9089 9.02974 87.2051C10.1742 89.9787 11.4129 92.1868 12.8401 93.964C13.0151 94.1794 13.042 94.4891 12.8805 94.7315C11.6552 96.7241 10.5243 98.3398 9.4202 99.8882C11.1975 102.002 13.4863 103.699 16.0984 104.829C16.3676 104.331 16.6235 103.833 16.8793 103.348C17.5659 102.042 18.2122 100.804 18.8989 99.592C19.0335 99.3631 19.2893 99.2285 19.5586 99.2554C21.7533 99.4843 24.096 99.6458 26.3714 99.3227C26.3983 99.3227 26.4387 99.3227 26.4657 99.3227H26.4522Z" fill="black"/>
<path d="M23.3825 87.6898C22.4939 87.6898 21.5918 87.5013 20.757 87.1378C20.0434 86.8147 19.5318 86.4242 19.1817 85.9395C18.7239 85.2798 18.6028 84.4719 18.5624 83.8526C18.4008 81.6445 18.9259 79.6383 20.0434 78.2112C21.4033 76.4608 23.6787 75.6934 25.5502 76.3262C25.6714 76.3666 25.7656 76.4339 25.8464 76.5282C25.8599 76.5282 25.8868 76.5282 25.9003 76.5416C27.8929 77.2148 29.3605 79.2075 29.4817 81.4021C29.6029 83.516 28.4988 85.6164 26.6812 86.7608C25.6983 87.3802 24.5404 87.6898 23.3825 87.6898ZM24.1769 77.4302C23.0593 77.4302 21.8745 78.0227 21.0936 79.019C20.178 80.1904 19.7472 81.8734 19.8953 83.7449C19.9357 84.2026 20.003 84.7681 20.2858 85.1721C20.4877 85.4548 20.8243 85.6972 21.309 85.9126C22.8305 86.5858 24.6212 86.4781 25.981 85.6298C27.3678 84.7547 28.243 83.0851 28.1488 81.4829C28.0545 79.8538 26.937 78.3054 25.4829 77.8207C25.429 77.8072 25.3752 77.7803 25.3213 77.7668C25.1732 77.7264 24.9443 77.6591 24.7827 77.4976C24.5942 77.4572 24.3923 77.4437 24.2038 77.4437L24.1769 77.4302Z" fill="black"/>
</g>
<defs>
<filter id="filter0_f_524_21139" x="-1.96471" y="155.489" width="254.72" height="167.209" filterUnits="userSpaceOnUse" color-interpolation-filters="sRGB">
<feFlood flood-opacity="0" result="BackgroundImageFix"/>
<feBlend mode="normal" in="SourceGraphic" in2="BackgroundImageFix" result="shape"/>
<feGaussianBlur stdDeviation="22.2685" result="effect1_foregroundBlur_524_21139"/>
</filter>
<linearGradient id="paint0_linear_524_21139" x1="123.162" y1="111.015" x2="123.162" y2="244.563" gradientUnits="userSpaceOnUse">
<stop stop-color="white"/>
<stop offset="1" stop-color="white" stop-opacity="0"/>
</linearGradient>
<clipPath id="clip0_524_21139">
<rect width="220.201" height="243" fill="white" transform="translate(37.1028)"/>
</clipPath>
<clipPath id="clip1_524_21139">
<rect width="145.133" height="274.14" fill="white" transform="translate(58.7893 13.3455)"/>
</clipPath>
<clipPath id="clip2_524_21139">
<rect width="60.4942" height="76.0499" fill="white" transform="translate(233.318 35) rotate(30)"/>
</clipPath>
</defs>
</svg>
