<svg width="221" height="128" viewBox="0 0 221 128" fill="none" xmlns="http://www.w3.org/2000/svg">
<path d="M29.2777 49.0054H161.763V128.407H29.2777V49.0054Z" fill="white"/>
<path d="M29.2767 128.615H161.763C161.879 128.615 161.972 128.521 161.972 128.406V49.0052C161.972 48.8897 161.878 48.7969 161.763 48.7969H29.2777C29.1619 48.7969 29.0688 48.8897 29.0688 49.0052V128.406C29.0688 128.522 29.1628 128.615 29.2777 128.615H29.2767ZM161.553 128.198H29.4856V49.2134H161.553V128.198Z" fill="#231F20"/>
<path d="M136.234 123.882H153.533L150.093 53.4287H139.673L136.234 123.882Z" fill="white"/>
<path d="M136.234 124.091H153.532C153.589 124.091 153.644 124.067 153.683 124.027C153.723 123.985 153.743 123.93 153.741 123.872L150.302 53.4195C150.296 53.3088 150.204 53.2217 150.093 53.2217H139.673C139.562 53.2217 139.47 53.3088 139.464 53.4195L136.025 123.872C136.022 123.929 136.043 123.985 136.083 124.027C136.123 124.068 136.177 124.091 136.234 124.091ZM153.312 123.675H136.453L139.872 53.6382H149.894L153.313 123.675H153.312Z" fill="#231F20"/>
<path d="M94.8528 20.9927L159.172 47.5547H30.5337L94.8528 20.9927Z" fill="white"/>
<path d="M30.5338 47.7633H159.172C159.272 47.7633 159.357 47.6933 159.377 47.5957C159.396 47.4982 159.344 47.4007 159.252 47.3628L94.9326 20.8008C94.8814 20.7799 94.8235 20.7799 94.7722 20.8008L30.4531 47.3628C30.361 47.4007 30.3088 47.4982 30.3278 47.5957C30.3477 47.6933 30.4332 47.7633 30.5329 47.7633H30.5338ZM158.12 47.3468H31.5849L94.8519 21.2192L158.119 47.3468H158.12Z" fill="#231F20"/>
<path d="M47.4822 44.4013H140.719C140.835 44.4013 140.928 44.3076 140.928 44.1931C140.928 44.0786 140.834 43.9849 140.719 43.9849H47.4822C47.3664 43.9849 47.2733 44.0786 47.2733 44.1931C47.2733 44.3076 47.3673 44.4013 47.4822 44.4013Z" fill="#231F20"/>
<path d="M137.641 56.7436H152.125C153.803 56.7436 155.163 55.3869 155.163 53.7141C155.163 52.0412 153.802 50.6846 152.125 50.6846H137.641C135.963 50.6846 134.603 52.0412 134.603 53.7141C134.603 55.3869 135.963 56.7436 137.641 56.7436Z" fill="white"/>
<path d="M137.641 56.9516H152.125C153.915 56.9516 155.373 55.4993 155.373 53.7128C155.373 51.9264 153.916 50.4741 152.125 50.4741H137.641C135.851 50.4741 134.393 51.9264 134.393 53.7128C134.393 55.4993 135.85 56.9516 137.641 56.9516ZM152.125 50.8916C153.685 50.8916 154.954 52.1574 154.954 53.7128C154.954 55.2683 153.685 56.5341 152.125 56.5341H137.641C136.081 56.5341 134.812 55.2683 134.812 53.7128C134.812 52.1574 136.081 50.8916 137.641 50.8916H152.125Z" fill="#231F20"/>
<path d="M27.1904 47.4014H163.44V50.9658H27.1904V47.4014Z" fill="white"/>
<path d="M27.1906 51.1743H163.44C163.556 51.1743 163.649 51.0806 163.649 50.966V47.4016C163.649 47.2861 163.555 47.1934 163.44 47.1934H27.1906C27.0748 47.1934 26.9817 47.2871 26.9817 47.4016V50.966C26.9817 51.0815 27.0757 51.1743 27.1906 51.1743ZM163.23 50.7577H27.3995V47.6099H163.23V50.7577Z" fill="#231F20"/>
<path d="M26.9474 127H163.197V130.564H26.9474V127Z" fill="white"/>
<path d="M26.9474 130.772H163.197C163.312 130.772 163.406 130.679 163.406 130.564V127C163.406 126.884 163.312 126.792 163.197 126.792H26.9474C26.8316 126.792 26.7385 126.885 26.7385 127V130.564C26.7385 130.68 26.8325 130.772 26.9474 130.772ZM162.987 130.356H27.1563V127.208H162.988V130.356H162.987Z" fill="#231F20"/>
<path d="M132.546 122.959H157.22V127.058H132.546V122.959Z" fill="white"/>
<path d="M132.547 127.268H157.22C157.336 127.268 157.429 127.175 157.429 127.06V122.96C157.429 122.845 157.335 122.752 157.22 122.752H132.547C132.431 122.752 132.338 122.846 132.338 122.96V127.06C132.338 127.175 132.432 127.268 132.547 127.268ZM157.011 126.851H132.755V123.169H157.011V126.851Z" fill="#231F20"/>
<path d="M103.306 123.882H120.605L117.166 53.4287H106.746L103.306 123.882Z" fill="white"/>
<path d="M103.306 124.091H120.605C120.662 124.091 120.717 124.067 120.756 124.027C120.796 123.985 120.816 123.93 120.814 123.872L117.375 53.4195C117.369 53.3088 117.277 53.2217 117.166 53.2217H106.746C106.635 53.2217 106.543 53.3088 106.537 53.4195L103.098 123.872C103.095 123.929 103.116 123.985 103.156 124.027C103.196 124.068 103.25 124.091 103.307 124.091H103.306ZM120.384 123.675H103.525L106.945 53.6382H116.966L120.385 123.675H120.384Z" fill="#231F20"/>
<path d="M104.714 56.7436H119.197C120.876 56.7436 122.236 55.3869 122.236 53.7141C122.236 52.0412 120.875 50.6846 119.197 50.6846H104.714C103.035 50.6846 101.676 52.0412 101.676 53.7141C101.676 55.3869 103.036 56.7436 104.714 56.7436Z" fill="white"/>
<path d="M104.714 56.9516H119.198C120.988 56.9516 122.446 55.4993 122.446 53.7128C122.446 51.9264 120.989 50.4741 119.198 50.4741H104.714C102.924 50.4741 101.466 51.9264 101.466 53.7128C101.466 55.4993 102.923 56.9516 104.714 56.9516ZM119.198 50.8916C120.758 50.8916 122.027 52.1574 122.027 53.7128C122.027 55.2683 120.758 56.5341 119.198 56.5341H104.714C103.154 56.5341 101.885 55.2683 101.885 53.7128C101.885 52.1574 103.154 50.8916 104.714 50.8916H119.198Z" fill="#231F20"/>
<path d="M99.619 122.959H124.292V127.058H99.619V122.959Z" fill="white"/>
<path d="M99.6191 127.268H124.292C124.408 127.268 124.501 127.175 124.501 127.06V122.96C124.501 122.845 124.407 122.752 124.292 122.752H99.6191C99.5033 122.752 99.4102 122.846 99.4102 122.96V127.06C99.4102 127.175 99.5042 127.268 99.6191 127.268ZM124.084 126.851H99.828V123.169H124.084V126.851Z" fill="#231F20"/>
<path d="M70.3788 123.882H87.6766L84.2375 53.4287H73.8179L70.3788 123.882Z" fill="white"/>
<path d="M70.3787 124.091H87.6764C87.7334 124.091 87.7885 124.067 87.8274 124.027C87.8673 123.985 87.8872 123.93 87.8853 123.872L84.4463 53.4195C84.4406 53.3088 84.3485 53.2217 84.2374 53.2217H73.8177C73.7066 53.2217 73.6146 53.3088 73.6089 53.4195L70.1698 123.872C70.167 123.929 70.1879 123.985 70.2277 124.027C70.2676 124.068 70.3217 124.091 70.3787 124.091ZM87.4571 123.675H70.598L74.0171 53.6382H84.0389L87.458 123.675H87.4571Z" fill="#231F20"/>
<path d="M71.7859 56.7436H86.2693C87.948 56.7436 89.3077 55.3869 89.3077 53.7141C89.3077 52.0412 87.9471 50.6846 86.2693 50.6846H71.7859C70.1072 50.6846 68.7475 52.0412 68.7475 53.7141C68.7475 55.3869 70.1081 56.7436 71.7859 56.7436Z" fill="white"/>
<path d="M71.7859 56.9516H86.2693C88.06 56.9516 89.5175 55.4993 89.5175 53.7128C89.5175 51.9264 88.061 50.4741 86.2693 50.4741H71.7859C69.9952 50.4741 68.5377 51.9264 68.5377 53.7128C68.5377 55.4993 69.9942 56.9516 71.7859 56.9516ZM86.2693 50.8916C87.8293 50.8916 89.0988 52.1574 89.0988 53.7128C89.0988 55.2683 87.8293 56.5341 86.2693 56.5341H71.7859C70.2259 56.5341 68.9564 55.2683 68.9564 53.7128C68.9564 52.1574 70.2259 50.8916 71.7859 50.8916H86.2693Z" fill="#231F20"/>
<path d="M66.6911 122.959H91.3644V127.058H66.6911V122.959Z" fill="white"/>
<path d="M66.6909 127.268H91.3642C91.4801 127.268 91.5731 127.175 91.5731 127.06V122.96C91.5731 122.845 91.4791 122.752 91.3642 122.752H66.6909C66.5751 122.752 66.482 122.846 66.482 122.96V127.06C66.482 127.175 66.576 127.268 66.6909 127.268ZM91.1554 126.851H66.8998V123.169H91.1554V126.851Z" fill="#231F20"/>
<path d="M37.4505 123.882H54.7491L51.3101 53.4287H40.8895L37.4505 123.882Z" fill="white"/>
<path d="M37.4508 124.091H54.7495C54.8065 124.091 54.8615 124.067 54.9004 124.027C54.9403 123.985 54.9603 123.93 54.9584 123.872L51.5193 53.4195C51.5136 53.3088 51.4215 53.2217 51.3104 53.2217H40.8908C40.7797 53.2217 40.6876 53.3088 40.6819 53.4195L37.2429 123.872C37.24 123.929 37.2609 123.985 37.3008 124.027C37.3407 124.068 37.3948 124.091 37.4518 124.091H37.4508ZM54.5292 123.675H37.6701L41.0892 53.6382H51.1111L54.5302 123.675H54.5292Z" fill="#231F20"/>
<path d="M38.8575 56.7436H53.341C55.0197 56.7436 56.3793 55.3869 56.3793 53.7141C56.3793 52.0412 55.0187 50.6846 53.341 50.6846H38.8575C37.1788 50.6846 35.8192 52.0412 35.8192 53.7141C35.8192 55.3869 37.1798 56.7436 38.8575 56.7436Z" fill="white"/>
<path d="M38.8576 56.9516H53.341C55.1318 56.9516 56.5892 55.4993 56.5892 53.7128C56.5892 51.9264 55.1327 50.4741 53.341 50.4741H38.8576C37.0669 50.4741 35.6094 51.9264 35.6094 53.7128C35.6094 55.4993 37.0659 56.9516 38.8576 56.9516ZM53.341 50.8916C54.9011 50.8916 56.1705 52.1574 56.1705 53.7128C56.1705 55.2683 54.9011 56.5341 53.341 56.5341H38.8576C37.2976 56.5341 36.0281 55.2683 36.0281 53.7128C36.0281 52.1574 37.2976 50.8916 38.8576 50.8916H53.341Z" fill="#231F20"/>
<path d="M33.7639 122.959H58.4373V127.058H33.7639V122.959Z" fill="white"/>
<path d="M33.7629 127.268H58.4362C58.5521 127.268 58.6451 127.175 58.6451 127.06V122.96C58.6451 122.845 58.5511 122.752 58.4362 122.752H33.7629C33.6471 122.752 33.554 122.846 33.554 122.96V127.06C33.554 127.175 33.648 127.268 33.7629 127.268ZM58.2274 126.851H33.9718V123.169H58.2274V126.851Z" fill="#231F20"/>
<path d="M203.582 68.9081C205.048 68.9043 206.233 67.7162 206.229 66.2544L206.048 2.84799C206.044 1.38626 204.852 0.204753 203.386 0.209487L114.486 0.46226C113.02 0.466047 111.835 1.65418 111.839 3.11591L112.02 66.1664C112.024 67.8241 113.376 69.1646 115.04 69.1599L203.583 68.9081H203.582Z" fill="white"/>
<path d="M115.032 69.3679H115.041L203.584 69.1161C205.163 69.1114 206.444 67.8267 206.44 66.2532L206.259 2.84678C206.254 1.27523 204.971 0 203.395 0H203.387L114.488 0.252774C112.909 0.257507 111.628 1.5422 111.632 3.11565L111.812 66.1661C111.817 67.9337 113.261 69.367 115.033 69.367L115.032 69.3679ZM203.583 68.6996L115.039 68.9514H115.031C113.489 68.9514 112.233 67.7036 112.229 66.1661L112.048 3.11565C112.045 1.77131 113.138 0.675011 114.488 0.671224L203.387 0.418449H203.394C204.739 0.418449 205.836 1.50718 205.839 2.84962L206.021 66.2561C206.025 67.6004 204.931 68.6967 203.583 68.7014V68.6996Z" fill="#231F20"/>
<path d="M182.25 52.5044V52.4591C182.237 48.8887 178.833 46.0039 174.644 46.0132L143.494 46.0892C139.307 46.0999 135.921 49.0021 135.932 52.5711C135.945 56.1361 139.341 59.021 143.524 59.017L174.673 58.9863C178.867 58.9823 182.261 56.0788 182.248 52.5044H182.25Z" fill="#FCE3E7"/>
<path d="M136.336 37.0096H136.338L182.042 36.8407C182.157 36.8407 182.25 36.7195 182.25 36.5702L182.225 25.2753C182.225 25.2044 182.203 25.1358 182.164 25.0857C182.125 25.0355 182.073 25.0085 182.017 25.0073L136.139 25.1774C136.084 25.1774 136.031 25.2056 135.992 25.257C135.954 25.3084 135.932 25.3757 135.932 25.4479L135.957 36.684C135.957 36.755 135.984 36.8382 136.024 36.8884C136.086 36.9692 136.191 37.0108 136.337 37.0108L136.336 37.0096ZM181.834 36.3022L136.371 36.4699L136.347 25.7147L181.81 25.547L181.834 36.3022Z" fill="#231F20"/>
<path d="M136.337 22.0064H136.339L182.043 21.8375C182.098 21.8375 182.151 21.8094 182.189 21.758C182.228 21.7066 182.25 21.6393 182.25 21.567L182.225 10.2722C182.225 10.1241 182.132 10.0029 182.018 10.0029L136.14 10.173C136.025 10.173 135.932 10.2942 135.932 10.4435L135.957 21.6796C135.957 21.7775 135.994 22.0064 136.337 22.0064ZM181.835 21.299L136.372 21.4667L136.348 10.7115L181.811 10.5439L181.835 21.299Z" fill="#231F20"/>
<path d="M195.583 74.752C195.583 74.752 189.251 120.684 199.829 155.091L194.904 160.074C194.28 160.705 194.728 161.773 195.618 161.773H216.977C219.313 161.773 221.075 159.656 220.64 157.366C218.826 147.82 214.61 125.512 213.458 118.336L227.365 156.417L223.977 160.119C223.39 160.76 223.847 161.791 224.718 161.791H246.057C248.63 161.791 250.429 159.257 249.573 156.839C243.666 140.147 224.466 86.0624 218.471 75.4421L195.583 74.752Z" fill="white"/>
<path d="M224.717 162H246.058C247.353 162 248.524 161.395 249.272 160.342C250.02 159.289 250.201 157.988 249.771 156.77C233.448 110.645 222.689 82.4879 218.654 75.3402C218.618 75.2768 218.552 75.2361 218.479 75.2342L195.59 74.544C195.481 74.5412 195.391 74.6188 195.376 74.7239C195.36 74.8385 193.788 86.3998 193.53 102.016C193.293 116.4 194.153 137.259 199.593 155.034L194.755 159.929C194.406 160.282 194.309 160.784 194.5 161.242C194.692 161.699 195.12 161.983 195.618 161.983H216.977C218.154 161.983 219.259 161.465 220.009 160.561C220.759 159.658 221.064 158.48 220.845 157.328C219.226 148.809 215.546 129.339 214.035 120.528L227.125 156.37L223.822 159.979C223.494 160.338 223.411 160.835 223.608 161.279C223.804 161.723 224.229 161.999 224.716 161.999L224.717 162ZM218.347 75.6469C222.414 82.9386 233.14 111.026 249.376 156.908C249.76 157.995 249.598 159.159 248.931 160.101C248.262 161.043 247.215 161.582 246.058 161.582H224.717C224.336 161.582 224.092 161.339 223.991 161.111C223.891 160.884 223.875 160.54 224.131 160.26L227.519 156.557C227.571 156.5 227.587 156.418 227.561 156.345L213.653 118.264C213.616 118.163 213.508 118.107 213.405 118.134C213.3 118.161 213.234 118.263 213.251 118.369C214.407 125.568 218.66 148.066 220.434 157.406C220.629 158.435 220.357 159.487 219.687 160.295C219.016 161.102 218.028 161.565 216.976 161.565H195.617C195.228 161.565 194.984 161.315 194.886 161.08C194.787 160.845 194.78 160.497 195.052 160.22L199.977 155.238C200.031 155.183 200.05 155.103 200.028 155.03C194.573 137.284 193.71 116.413 193.948 102.028C194.187 87.515 195.563 76.5122 195.765 74.9663L218.347 75.6469Z" fill="#231F20"/>
<path d="M213.458 118.545C213.48 118.545 213.502 118.542 213.523 118.535C213.633 118.499 213.693 118.381 213.657 118.272L204.112 89.301C203.733 88.1526 202.765 87.2703 201.583 86.9986L199.877 86.6057C199.765 86.5792 199.652 86.6493 199.627 86.7619C199.601 86.8746 199.671 86.9863 199.783 87.0118L201.49 87.4047C202.529 87.6442 203.382 88.4206 203.715 89.4307L213.26 118.401C213.29 118.489 213.371 118.544 213.459 118.544L213.458 118.545Z" fill="#231F20"/>
<path d="M175.55 51.7295C178.53 50.9693 180.107 49.5606 180.939 48.3374C180.624 47.3358 180.309 46.3341 179.964 45.3486C178.632 41.5456 176.607 37.6821 173.056 35.7603C172.423 35.4175 171.715 35.1383 171 35.2235C170.285 35.3087 169.585 35.8634 169.558 36.5811C169.495 38.1867 172.294 38.4868 172.597 40.065C171.615 39.2281 169.823 39.799 169.51 41.0486C168.528 41.1717 167.812 42.2983 168.116 43.2365C167.515 43.7695 167.289 44.684 167.573 45.4338C167.857 46.1836 168.632 46.7223 169.437 46.727C169.547 48.2248 169.718 49.7168 169.948 51.2012C171.246 51.8119 173.209 52.3278 175.552 51.7304L175.55 51.7295Z" fill="white"/>
<path d="M173.468 52.2042C174.131 52.2042 174.845 52.1246 175.602 51.9325C178.748 51.1306 180.335 49.5988 181.113 48.4552C181.149 48.4021 181.158 48.3368 181.139 48.2753L181.132 48.2526C180.824 47.2737 180.505 46.2616 180.161 45.2799C178.443 40.3721 176.151 37.1987 173.155 35.5769C172.622 35.2882 171.817 34.9152 170.975 35.0165C170.202 35.1083 169.382 35.7152 169.349 36.5729C169.312 37.5291 170.13 38.0583 170.922 38.5705C171.411 38.8867 171.88 39.1896 172.158 39.5768C171.728 39.4235 171.231 39.4197 170.74 39.5768C170.058 39.7936 169.546 40.2708 169.347 40.8653C168.871 40.9666 168.442 41.2743 168.154 41.7259C167.866 42.1794 167.769 42.6991 167.882 43.1725C167.285 43.7736 167.077 44.7137 167.378 45.508C167.671 46.2834 168.42 46.8448 169.242 46.9262C169.352 48.3558 169.52 49.8042 169.741 51.2338C169.751 51.3019 169.795 51.3606 169.859 51.3909C170.733 51.8027 171.972 52.2051 173.468 52.2051L173.468 52.2042ZM175.498 51.5282C173.222 52.1085 171.342 51.6068 170.137 51.0586C169.916 49.6149 169.751 48.1532 169.645 46.7113C169.637 46.6024 169.547 46.5191 169.438 46.5182C168.723 46.5144 168.021 46.0268 167.769 45.3603C167.516 44.6938 167.721 43.8655 168.256 43.3921C168.318 43.3372 168.341 43.251 168.316 43.1725C168.189 42.7843 168.26 42.3394 168.507 41.9493C168.752 41.5649 169.137 41.3065 169.537 41.2554C169.622 41.2449 169.692 41.1825 169.713 41.0992C169.842 40.5832 170.273 40.1619 170.867 39.9735C171.46 39.7851 172.056 39.8779 172.462 40.2244C172.529 40.2821 172.626 40.2907 172.703 40.2462C172.78 40.2017 172.82 40.1136 172.804 40.0265C172.642 39.1839 171.885 38.6945 171.151 38.2211C170.425 37.7516 169.74 37.3094 169.767 36.5899C169.792 35.9642 170.44 35.5012 171.025 35.4321C171.749 35.345 172.473 35.6839 172.957 35.9452C175.856 37.5149 178.085 40.6144 179.767 45.42C180.101 46.3705 180.41 47.3532 180.71 48.3056C179.953 49.3792 178.442 50.7794 175.499 51.5301L175.498 51.5282Z" fill="#231F20"/>
<path d="M201.799 47.0524C201.44 46.8461 199.98 47.9263 199.621 48.1241C198.065 48.9856 196.51 49.8472 194.953 50.7087C191.421 52.6636 187.89 54.6186 184.358 56.5745C182.741 54.0629 181.839 51.2 180.939 48.339C180.107 49.5622 178.53 50.9709 175.55 51.7311C173.207 52.3285 171.244 51.8125 169.946 51.2019C170.645 55.7253 171.888 60.1654 173.648 64.3925C174.471 66.3693 175.469 68.3792 177.188 69.662C178.905 70.9448 181.181 71.3395 183.308 71.0527C185.435 70.7668 187.432 69.8513 189.258 68.7276C193.866 65.8921 197.509 61.5902 199.699 56.6654C200.794 54.203 201.529 51.5787 201.838 48.9023C201.881 48.536 202.195 47.2806 201.799 47.0534V47.0524Z" fill="white"/>
<path d="M181.998 71.35C182.439 71.35 182.885 71.3207 183.335 71.2601C185.236 71.0035 187.209 70.2338 189.368 68.9056C193.911 66.109 197.648 61.792 199.89 56.7507C201.011 54.2286 201.737 51.5958 202.045 48.927C202.053 48.8636 202.069 48.7727 202.088 48.6638C202.228 47.8563 202.32 47.1121 201.904 46.8736C201.572 46.6842 200.964 47.008 199.883 47.7133C199.727 47.8156 199.593 47.9036 199.519 47.9434L184.429 56.2972C182.89 53.8433 182 51.0145 181.138 48.2766C181.115 48.2009 181.048 48.1441 180.969 48.1327C180.889 48.1213 180.811 48.1564 180.766 48.2217C180.029 49.3057 178.517 50.7589 175.498 51.5286C173.158 52.126 171.236 51.5778 170.036 51.0126C169.966 50.9795 169.884 50.988 169.821 51.0344C169.76 51.0808 169.728 51.1565 169.74 51.2332C170.442 55.7831 171.692 60.2374 173.455 64.4731C174.291 66.4801 175.306 68.5184 177.062 69.8296C178.389 70.8199 180.138 71.35 181.999 71.35H181.998ZM201.699 47.2362C201.826 47.3185 201.817 47.7748 201.676 48.5919C201.655 48.7102 201.638 48.8087 201.63 48.8778C201.326 51.5049 200.611 54.097 199.507 56.5803C197.3 61.5458 193.62 65.7966 189.148 68.5496C187.04 69.8466 185.121 70.5983 183.279 70.8464C181.042 71.1484 178.866 70.6551 177.312 69.4954C175.636 68.2438 174.653 66.2652 173.841 64.3131C172.139 60.2261 170.919 55.9337 170.212 51.5485C171.482 52.0777 173.358 52.5056 175.601 51.9328C178.443 51.2076 180.013 49.8879 180.863 48.7964C181.715 51.4983 182.623 54.2674 184.181 56.6873C184.241 56.78 184.363 56.8113 184.459 56.7573L199.722 48.3078C199.808 48.2605 199.942 48.1725 200.111 48.0617C200.446 47.843 201.463 47.1784 201.698 47.2371L201.699 47.2362Z" fill="#231F20"/>
<path d="M174.879 47.4897C175.015 47.4897 175.151 47.4651 175.283 47.4092C175.389 47.3647 175.44 47.2426 175.395 47.1366C175.35 47.0305 175.228 46.9794 175.122 47.0249C174.754 47.1782 174.305 46.9359 174.068 46.6291C173.83 46.3224 173.711 45.9409 173.584 45.5376L173.521 45.3378C173.365 44.8569 173.145 44.3201 172.691 43.9878C172.447 43.8089 172.17 43.7132 171.902 43.6214C171.774 43.5769 171.651 43.5353 171.534 43.4851C171.237 43.3573 170.915 43.1111 170.906 42.8016C170.894 42.4361 171.306 42.1587 171.552 42.0252C172.468 41.5301 173.577 41.372 174.595 41.5935C175.612 41.8141 176.556 42.4172 177.183 43.2465C177.252 43.3383 177.383 43.3573 177.475 43.2872C177.567 43.2181 177.586 43.0875 177.516 42.9956C176.83 42.0868 175.798 41.4279 174.683 41.1855C173.569 40.9431 172.355 41.1154 171.352 41.6579C170.781 41.9665 170.475 42.3765 170.488 42.8129C170.501 43.2418 170.831 43.6366 171.369 43.8676C171.5 43.9234 171.635 43.9698 171.765 44.0152C172.015 44.1004 172.25 44.1819 172.443 44.3229C172.801 44.5852 172.987 45.0472 173.123 45.4656L173.185 45.6616C173.317 46.0829 173.453 46.5174 173.735 46.8829C173.996 47.2208 174.434 47.4888 174.879 47.4888L174.879 47.4897Z" fill="#231F20"/>
<path d="M172.023 45.2696C172.412 45.2696 172.807 45.1314 173.069 44.8019C173.14 44.712 173.125 44.5804 173.034 44.5094C172.944 44.4384 172.812 44.4535 172.741 44.5435C172.462 44.8957 171.916 44.9165 171.545 44.7565C171.173 44.5974 170.841 44.2699 170.53 43.7568C170.076 43.0088 169.804 42.1521 169.744 41.2801C169.737 41.1656 169.637 41.0823 169.521 41.0861C169.406 41.0936 169.319 41.194 169.327 41.3085C169.391 42.2467 169.683 43.1679 170.172 43.9726C170.531 44.5634 170.926 44.9449 171.379 45.1399C171.573 45.2232 171.797 45.2696 172.024 45.2696H172.023Z" fill="#231F20"/>
<path d="M170.676 46.2251C171.37 46.2251 172.027 45.7964 172.219 45.1926C172.254 45.0828 172.193 44.9654 172.083 44.9304C171.973 44.8954 171.855 44.9559 171.82 45.0657C171.669 45.5389 171.108 45.8598 170.541 45.8002C170.034 45.7453 169.524 45.4188 169.143 44.9029C168.802 44.4411 168.596 43.9111 168.363 43.2665C168.324 43.1586 168.203 43.1019 168.095 43.1416C167.987 43.1804 167.93 43.3006 167.97 43.4085C168.162 43.9414 168.404 44.6039 168.807 45.15C169.257 45.7595 169.872 46.1475 170.496 46.2147C170.556 46.2213 170.616 46.2242 170.675 46.2242L170.676 46.2251Z" fill="#231F20"/>
<path d="M169.598 46.8807C170.071 46.8807 170.545 46.6384 170.802 46.2409C170.865 46.1443 170.837 46.0147 170.74 45.9522C170.643 45.8907 170.513 45.9181 170.451 46.0147C170.231 46.3544 169.785 46.5333 169.39 46.4396C169.278 46.4131 169.165 46.4822 169.138 46.5939C169.111 46.7056 169.181 46.8182 169.293 46.8447C169.392 46.8684 169.496 46.8797 169.598 46.8797V46.8807Z" fill="#231F20"/>
<path d="M186.418 59.1569C186.473 59.1569 186.528 59.1351 186.569 59.0925C186.649 59.0092 186.646 58.8777 186.563 58.7982C185.991 58.253 185.025 57.1343 184.575 56.4983C184.509 56.4046 184.379 56.3819 184.284 56.4481C184.19 56.5144 184.167 56.6441 184.234 56.7387C184.704 57.4041 185.676 58.5303 186.274 59.1001C186.315 59.1389 186.367 59.1578 186.418 59.1578V59.1569Z" fill="#231F20"/>
<path d="M200.754 44.6464C200.152 44.8026 199.684 45.2684 199.521 45.8667C197.148 54.6428 191.647 62.4097 189.616 71.2871C189.263 72.8321 189.021 74.4652 189.471 75.9837C189.881 77.3678 190.841 78.5389 191.967 79.4459C193.093 80.3528 194.388 81.0231 195.674 81.6868C197.454 77.6727 198.881 73.5137 200.307 69.3614C201.687 65.3379 203.072 61.302 203.943 57.1393C204.554 54.2234 214.232 54.4828 214.146 51.5016C214.123 50.6552 217.163 46.0949 216.595 45.4019C215.236 43.7432 201.922 44.3406 200.753 44.6455L200.754 44.6464Z" fill="white"/>
<path d="M195.674 81.897C195.698 81.897 195.721 81.8932 195.743 81.8857C195.797 81.8667 195.842 81.826 195.865 81.773C197.65 77.7476 199.101 73.5195 200.504 69.4306C201.865 65.4658 203.272 61.3646 204.147 57.1839C204.42 55.8841 206.848 55.227 209.195 54.5927C211.873 53.8685 214.403 53.185 214.355 51.497C214.347 51.2006 214.91 50.1223 215.406 49.1718C216.508 47.0635 217.148 45.7485 216.756 45.2713C215.309 43.5057 201.769 44.1665 200.7 44.4449C200.028 44.62 199.499 45.1435 199.318 45.8129C198.197 49.9585 196.341 53.9518 194.546 57.8135C192.548 62.1106 190.483 66.5545 189.41 71.2417C189.073 72.7158 188.793 74.4388 189.269 76.0444C189.651 77.3338 190.538 78.5665 191.834 79.6098C192.982 80.5338 194.301 81.2154 195.576 81.8743C195.607 81.8895 195.639 81.898 195.672 81.898L195.674 81.897ZM208.177 44.5045C211.911 44.5045 215.78 44.7393 216.434 45.5355C216.678 45.8346 215.61 47.8805 215.036 48.9796C214.348 50.2965 213.927 51.124 213.937 51.5093C213.976 52.8688 211.49 53.5409 209.085 54.1904C206.616 54.8578 204.063 55.548 203.738 57.0987C202.867 61.2548 201.465 65.3427 200.108 69.2953C198.731 73.3065 197.309 77.4522 195.572 81.4009C194.377 80.7827 193.155 80.1352 192.098 79.285C190.869 78.2957 190.029 77.1341 189.671 75.9261C189.223 74.4132 189.495 72.7555 189.819 71.3345C190.882 66.6889 192.939 62.2659 194.927 57.9886C196.729 54.1108 198.593 50.1015 199.724 45.9217C199.866 45.3973 200.281 44.9854 200.807 44.8491C201.35 44.708 204.705 44.5054 208.178 44.5054L208.177 44.5045Z" fill="#231F20"/>
<path d="M215.237 75.4796H195.947C194.963 75.4796 194.25 74.5462 194.512 73.6014C195.114 71.4305 196.217 67.4647 197.695 62.1631C199.987 53.9475 201.468 48.1621 202.269 46.2412C203.069 44.3203 203.21 43.2818 206.475 43.1369C209.485 43.0034 213.1 42.5433 213.456 45.9335C213.525 46.5915 213.885 47.1841 214.417 47.578L216.555 49.1571L215.237 75.4796Z" fill="#EF4444"/>
<path d="M156.126 82.1888L187.881 134.765C188.696 136.113 190.452 136.548 191.804 135.736L221.621 117.84C222.974 117.028 223.411 115.277 222.596 113.927L190.841 61.3515C190.027 60.0034 188.27 59.5679 186.918 60.3802L157.101 78.276C155.748 79.0883 155.312 80.8397 156.126 82.1888Z" fill="white"/>
<path d="M190.336 136.353C190.874 136.353 191.419 136.212 191.913 135.915L221.729 118.019C222.432 117.598 222.928 116.929 223.125 116.136C223.323 115.343 223.198 114.52 222.776 113.821L191.021 61.2447C190.149 59.8 188.26 59.3323 186.81 60.2023L156.993 78.0982C156.291 78.5194 155.795 79.1888 155.598 79.9821C155.4 80.7755 155.525 81.5982 155.947 82.2978L187.702 134.874C188.277 135.826 189.294 136.354 190.335 136.354L190.336 136.353ZM188.388 60.1815C189.287 60.1815 190.166 60.6378 190.662 61.4596L222.417 114.036C222.782 114.641 222.889 115.351 222.719 116.036C222.548 116.721 222.12 117.299 221.514 117.662L191.697 135.558C190.445 136.309 188.814 135.906 188.061 134.658L156.306 82.0819C155.94 81.477 155.834 80.767 156.004 80.0815C156.175 79.3961 156.603 78.8186 157.209 78.4541L187.026 60.5583C187.452 60.3027 187.923 60.1806 188.388 60.1806V60.1815Z" fill="#231F20"/>
<path d="M178.163 65.6404L212.87 123.099L204.943 127.859L170.236 70.4007L178.163 65.6404Z" fill="white"/>
<path d="M204.942 128.061C204.979 128.061 205.016 128.052 205.049 128.031L212.977 123.273C213.025 123.244 213.059 123.198 213.072 123.145C213.085 123.091 213.077 123.034 213.048 122.987L178.344 65.5268C178.284 65.4283 178.156 65.3961 178.057 65.4558L170.129 70.214C170.081 70.2424 170.047 70.2888 170.034 70.3427C170.021 70.3967 170.029 70.4535 170.058 70.5008L204.762 127.961C204.801 128.026 204.871 128.062 204.942 128.062V128.061ZM212.582 123.024L205.013 127.567L170.524 70.4639L178.093 65.9206L212.582 123.023V123.024Z" fill="#231F20"/>
<path d="M230.078 84.5071C232.532 81.6092 232.069 75.0712 231.078 69.0198C229.682 60.5031 227.132 56.4824 220.476 50.963C219.383 50.057 218.145 49.1235 217.815 47.7461C217.593 46.8202 217.547 45.4863 216.596 45.4029C216.596 45.4029 214.681 45.1918 213.363 47.3901C212.702 48.493 212.507 49.8052 212.333 51.0776C211.203 59.3547 210.959 67.7228 210.715 76.0719C210.683 77.1739 210.661 78.326 211.146 79.3172C211.965 80.9958 215.099 78.7322 215.099 78.7322C215.059 81.56 215.81 85.1206 215.905 87.9475C219.358 88.1283 227.218 87.886 230.078 84.5062V84.5071Z" fill="white"/>
<path d="M217.55 88.1951C220.778 88.1951 227.565 87.8003 230.238 84.6411C232.274 82.2365 232.616 77.1157 231.284 68.9862C229.912 60.6096 227.518 56.5312 220.61 50.8026L220.371 50.6047C219.357 49.7707 218.309 48.9073 218.019 47.6974C217.979 47.5326 217.946 47.3546 217.912 47.1729C217.751 46.3284 217.552 45.2775 216.615 45.1942C216.536 45.1857 214.554 44.9945 213.184 47.2827C212.482 48.4557 212.285 49.8937 212.128 51.0487C210.995 59.3448 210.747 67.8454 210.508 76.0658C210.476 77.1356 210.441 78.3483 210.959 79.4086C211.135 79.7712 211.418 80.0032 211.798 80.0978C212.8 80.3487 214.244 79.5364 214.891 79.1246C214.906 80.6072 215.11 82.2677 215.308 83.8781C215.487 85.3304 215.656 86.7021 215.698 87.9547C215.701 88.0626 215.787 88.1506 215.895 88.1563C216.123 88.1677 216.719 88.1942 217.551 88.1942L217.55 88.1951ZM216.441 45.6061C216.516 45.6061 216.563 45.6108 216.573 45.6117C217.154 45.6629 217.323 46.3246 217.5 47.2524C217.536 47.4408 217.571 47.6254 217.612 47.7958C217.934 49.142 219.037 50.05 220.104 50.9276L220.342 51.1245C227.157 56.7754 229.518 60.7971 230.871 69.0544C232.183 77.056 231.871 82.067 229.919 84.3732C226.828 88.0247 217.841 87.825 216.107 87.7502C216.054 86.5261 215.885 85.1562 215.721 83.8289C215.507 82.0878 215.286 80.2881 215.307 78.7374C215.308 78.6588 215.265 78.5859 215.194 78.549C215.124 78.513 215.04 78.5187 214.975 78.5651C214.955 78.5793 213.008 79.971 211.897 79.6945C211.639 79.6302 211.454 79.4777 211.332 79.2278C210.859 78.2603 210.893 77.1024 210.923 76.08C211.162 67.87 211.409 59.3808 212.539 51.1074C212.699 49.9316 212.881 48.5986 213.54 47.4985C214.588 45.75 216.001 45.6061 216.439 45.6061H216.441Z" fill="#231F20"/>
<path d="M195.385 86.9076C195.482 86.3235 195.903 85.853 196.305 85.4175C195.771 85.7233 195.281 85.7734 194.929 85.4241C194.578 85.0738 194.693 84.6478 194.902 84.1991C195.111 83.7503 195.498 83.4114 195.888 83.1046C200.088 79.8091 205.642 78.8274 210.975 78.4629C213.844 78.2669 212.447 78.4089 215.315 78.1685C216.405 82.6512 216.677 84.4177 216.132 88.0853C212.036 88.2453 214.159 88.2936 210.118 88.4356C207.775 88.518 205.174 88.8001 203.378 90.3035C202.914 90.6916 202.417 91.2114 201.821 91.1063C201.25 91.006 200.935 90.3272 201.033 89.7572C201.131 89.1873 201.523 88.7168 201.919 88.2946C202.315 87.8723 202.741 87.4501 202.939 86.9067C201.911 87.6016 200.883 88.2964 199.854 88.9913C199.641 89.1362 199.413 89.2858 199.155 89.299C198.543 89.3312 198.161 88.5454 198.352 87.966C198.544 87.3867 199.083 87.0023 199.598 86.6728C200.113 86.3434 200.665 85.995 200.916 85.4383C199.629 86.2515 198.342 87.0638 197.055 87.8771C196.816 88.0285 196.56 88.1847 196.277 88.1876C195.682 88.1933 195.289 87.4917 195.386 86.9067L195.385 86.9076Z" fill="white"/>
<path d="M201.98 91.3288C202.509 91.3288 202.946 90.9511 203.336 90.6141C203.396 90.5629 203.454 90.5118 203.513 90.4635C205.257 89.0046 207.835 88.7254 210.126 88.6449C212.177 88.5729 212.647 88.5247 213.143 88.4735C213.625 88.4243 214.123 88.3732 216.141 88.2946C216.241 88.2908 216.325 88.216 216.339 88.1166C216.899 84.3449 216.578 82.4818 215.518 78.1202C215.493 78.0199 215.4 77.9527 215.298 77.9612C213.655 78.0985 213.411 78.1108 212.969 78.1325C212.638 78.1486 212.185 78.1713 210.961 78.2547C206.254 78.5765 200.271 79.4002 195.759 82.9409C195.376 83.241 194.948 83.6036 194.713 84.1111C194.493 84.5806 194.331 85.1222 194.782 85.5718C194.962 85.7517 195.241 85.9136 195.642 85.871C195.426 86.1626 195.243 86.4939 195.18 86.8736C195.113 87.274 195.238 87.7152 195.503 88.0248C195.712 88.2681 195.995 88.4016 196.278 88.3969C196.631 88.3931 196.928 88.2056 197.167 88.0541L198.701 87.0856C198.46 87.3129 198.26 87.5789 198.154 87.9017C198.023 88.2984 198.107 88.7746 198.369 89.1164C198.575 89.3852 198.856 89.5253 199.166 89.5083C199.49 89.4913 199.757 89.3104 199.972 89.1646L202.25 87.6253C202.126 87.7701 201.994 87.9102 201.864 88.0485L201.766 88.1516C201.371 88.5748 200.939 89.0794 200.827 89.7213C200.715 90.3736 201.081 91.1859 201.785 91.3108C201.851 91.3222 201.916 91.3279 201.981 91.3279L201.98 91.3288ZM215.95 87.8837C214.062 87.9595 213.573 88.0096 213.1 88.0579C212.61 88.1081 212.147 88.1554 210.111 88.2274C207.747 88.3107 205.084 88.6032 203.243 90.1435C203.183 90.1937 203.122 90.2458 203.062 90.2988C202.677 90.6311 202.28 90.9748 201.857 90.9009C201.408 90.8214 201.16 90.2505 201.239 89.7923C201.33 89.264 201.716 88.8162 202.07 88.4376L202.167 88.3353C202.546 87.9339 202.938 87.5183 203.135 86.9796C203.166 86.8944 203.138 86.7997 203.066 86.7439C202.995 86.688 202.895 86.6842 202.82 86.7354L199.736 88.82C199.516 88.9677 199.334 89.0823 199.142 89.0917C198.928 89.1097 198.785 88.9734 198.701 88.8626C198.526 88.6345 198.464 88.2927 198.55 88.0324C198.721 87.5164 199.216 87.1652 199.71 86.849L199.728 86.8376C200.245 86.5062 200.833 86.1314 201.106 85.5245C201.144 85.4402 201.122 85.3418 201.052 85.2812C200.981 85.2206 200.881 85.213 200.803 85.2623L196.942 87.701C196.695 87.8572 196.489 87.9765 196.274 87.9793C196.058 87.9888 195.909 87.8572 195.82 87.7531C195.636 87.5382 195.545 87.2201 195.592 86.9417C195.682 86.3993 196.113 85.9335 196.46 85.5586C196.53 85.4829 196.534 85.3674 196.469 85.2869C196.405 85.2064 196.291 85.1846 196.202 85.2358C195.711 85.5169 195.333 85.5302 195.077 85.2755C194.855 85.053 194.859 84.7851 195.092 84.2853C195.289 83.8621 195.674 83.5373 196.018 83.2675C200.44 79.7969 206.342 78.9874 210.99 78.6693C212.209 78.586 212.66 78.5633 212.989 78.5472C213.42 78.5254 213.664 78.5141 215.154 78.39C216.171 82.5859 216.462 84.3326 215.951 87.8828L215.95 87.8837Z" fill="#231F20"/>
<path d="M196.769 85.3617C196.814 85.3617 196.859 85.3475 196.897 85.3182C197.751 84.6633 198.658 84.0566 199.59 83.5171C199.69 83.4594 199.724 83.3316 199.666 83.2322C199.608 83.1329 199.48 83.0988 199.38 83.1565C198.432 83.7055 197.51 84.3216 196.641 84.9879C196.55 85.0579 196.533 85.1885 196.603 85.2804C196.644 85.3334 196.707 85.3617 196.769 85.3617Z" fill="#231F20"/>
<path d="M215.315 78.3763C215.324 78.3763 215.333 78.3763 215.342 78.3744C219.904 77.7714 219.985 77.6095 220.044 77.4911C220.079 77.4201 220.163 77.2545 218.293 61.6601C218.279 61.5456 218.174 61.4632 218.061 61.4784C217.946 61.4916 217.864 61.5957 217.878 61.7103C218.573 67.5071 219.584 76.1544 219.648 77.2658C219.169 77.4069 217.12 77.7193 215.287 77.9617C215.173 77.9768 215.093 78.0819 215.108 78.1955C215.122 78.3006 215.211 78.3763 215.315 78.3763Z" fill="#231F20"/>
<path d="M212.085 30.2113C211.851 29.4142 211.49 28.6142 210.832 28.1039C210.174 27.5937 209.16 27.4696 208.524 28.0055C207.018 26.9745 205.002 26.6469 203.306 27.3238C201.61 28.0008 200.343 29.7351 200.393 31.5557C200.443 33.3762 201.928 35.1021 203.747 35.2668C204.038 36.8469 205.524 38.0426 207.117 38.2887C208.556 38.5112 211.343 38.0312 211.915 36.4739C212.634 34.5161 212.667 32.2023 212.084 30.2113H212.085Z" fill="#231F20"/>
<path d="M204.497 40.9976L205.687 48.5117C205.687 48.5117 211.163 45.1149 211.203 45.0609C211.243 45.007 210.27 38.6138 210.27 38.6138C210.27 38.6138 209.004 36.5007 204.497 40.9967V40.9976Z" fill="white"/>
<path d="M204.872 43.5816C204.884 43.5816 204.894 43.5817 204.906 43.5788C205.02 43.5608 205.097 43.4538 205.079 43.3402L204.72 41.0691C207.156 38.6587 208.575 38.2507 209.338 38.3359C209.789 38.3861 210.006 38.6123 210.071 38.6937C210.129 39.0734 210.51 41.5812 210.762 43.3298C210.778 43.4444 210.885 43.5248 210.999 43.5059C211.112 43.4898 211.192 43.3838 211.175 43.2702C210.902 41.3824 210.48 38.6104 210.475 38.582C210.472 38.5555 210.462 38.53 210.448 38.5063C210.435 38.4864 210.146 38.0149 209.406 37.9241C208.15 37.7716 206.448 38.7534 204.346 40.8494C204.299 40.8968 204.277 40.963 204.288 41.0293L204.665 43.4056C204.681 43.5078 204.77 43.5816 204.871 43.5816H204.872Z" fill="#231F20"/>
<path d="M202.492 34.2419C202.492 34.2419 200.448 39.6126 202.492 41.3423C203.706 42.3685 207.538 42.9063 209.988 39.2131C209.988 39.2131 211.685 39.2964 212.073 37.5658C212.46 35.8352 211.593 35.1839 210.191 36.4014C210.191 36.4014 208.494 37.2629 209.051 34.8639C209.294 33.8197 208.399 32.8673 206.441 32.304C202.898 31.2843 203.227 32.1762 202.492 34.2428V34.2419Z" fill="white"/>
<path d="M205.023 42.3084C205.278 42.3084 205.543 42.2913 205.815 42.2525C207.01 42.083 208.716 41.4525 210.102 39.4199C210.527 39.3991 211.921 39.2079 212.278 37.6117C212.49 36.6602 212.348 35.9578 211.886 35.6842C211.625 35.5289 211.043 35.3945 210.075 36.2257C209.917 36.2995 209.531 36.4273 209.328 36.2674C209.205 36.1717 209.033 35.8678 209.255 34.9107C209.535 33.7112 208.53 32.6869 206.499 32.1027C203.396 31.21 203.06 31.7401 202.545 33.4064C202.473 33.6355 202.394 33.8949 202.296 34.1694C202.199 34.4231 200.231 39.702 202.357 41.4999C202.871 41.9344 203.848 42.3074 205.022 42.3074L205.023 42.3084ZM209.989 39.0043C209.919 39.0043 209.854 39.0393 209.815 39.098C208.503 41.0738 206.884 41.6797 205.756 41.8397C204.372 42.0357 203.165 41.6371 202.628 41.1827C200.72 39.5686 202.668 34.3682 202.688 34.3162C202.688 34.3143 202.689 34.3133 202.69 34.3114C202.79 34.0274 202.873 33.7633 202.945 33.5294C203.397 32.0706 203.518 31.6786 206.384 32.5032C208.173 33.0182 209.071 33.8608 208.849 34.816C208.636 35.7306 208.71 36.3128 209.071 36.5949C209.537 36.9594 210.255 36.6015 210.287 36.5864C210.302 36.5788 210.316 36.5694 210.329 36.558C210.892 36.0695 211.395 35.8764 211.673 36.042C211.961 36.2124 212.036 36.7795 211.869 37.5199C211.525 39.0611 210.063 39.0062 210 39.0043C209.996 39.0043 209.993 39.0043 209.989 39.0043Z" fill="#231F20"/>
<path d="M209.954 38.2835C210.026 38.2835 210.098 38.2457 210.136 38.1785C210.345 37.815 210.767 37.5709 211.187 37.5709H211.192C211.307 37.5709 211.401 37.4781 211.401 37.3636C211.401 37.2481 211.308 37.1544 211.193 37.1544C210.609 37.1469 210.06 37.4734 209.773 37.9712C209.716 38.0715 209.75 38.1984 209.851 38.2561C209.884 38.275 209.919 38.2835 209.954 38.2835Z" fill="#231F20"/>
<path d="M204.734 49.3711C204.773 49.3711 204.812 49.3607 204.846 49.338L209.461 46.4002C209.558 46.3387 209.587 46.2091 209.524 46.1125C209.462 46.016 209.332 45.9876 209.236 46.0491L204.621 48.9869C204.523 49.0484 204.495 49.178 204.557 49.2746C204.597 49.337 204.665 49.3711 204.734 49.3711Z" fill="#231F20"/>
<path d="M30.0537 103.663L33.9636 101.519C53.599 90.756 57.9961 70.8834 59.8723 48.5892L58.4195 48.362C45.1638 47.4361 38.674 45.2132 30.0537 35.5103C19.7641 44.8439 9.9379 48.2502 0.303471 48.2502L0.208523 48.2701C1.98786 70.7414 6.46278 90.7976 26.27 101.599L30.0546 103.663H30.0537Z" fill="white"/>
<path d="M30.0536 103.871C30.0888 103.871 30.123 103.863 30.1543 103.846L34.0643 101.702C43.1727 96.7101 49.6187 89.4337 53.7708 79.459C57.8717 69.6065 59.2617 58.334 60.0811 48.6074C60.0906 48.4985 60.0137 48.401 59.9055 48.384L58.4528 48.1567C45.7524 47.2687 39.0282 45.2967 30.2113 35.3723C30.1742 35.3306 30.122 35.305 30.066 35.3022C30.0109 35.2984 29.9559 35.3192 29.9141 35.3562C20.5037 43.8918 10.818 48.0412 0.304367 48.0412C0.290127 48.0412 0.275887 48.0422 0.261646 48.046L0.166698 48.0659C0.0632019 48.0876 -0.007061 48.1823 0.000537872 48.2864C0.72879 57.4848 2.10174 69.3339 6.28613 79.3899C10.4686 89.4412 16.9726 96.766 26.1693 101.782L29.9539 103.846C29.9853 103.863 30.0195 103.871 30.0546 103.871H30.0536ZM59.6481 48.7655C57.5916 72.974 52.3998 91.1775 33.8639 101.337L30.0546 103.425L26.3706 101.416C7.56319 91.1595 2.38375 72.8273 0.43446 48.4587C10.9481 48.4247 20.6357 44.2847 30.0394 35.8068C38.8858 45.7047 45.6717 47.6815 58.4072 48.5705L59.65 48.7655H59.6481Z" fill="#231F20"/>
<path d="M38.2637 93.227C38.3083 93.227 38.3539 93.2128 38.3919 93.1825C43.9521 88.855 47.9408 83.0895 50.5861 75.5593C53.2485 67.9799 54.2321 59.3846 54.7914 52.7444C54.8009 52.6355 54.724 52.538 54.6157 52.5209L53.4203 52.3344C42.9741 51.6045 37.4443 49.9828 30.195 41.823C30.1579 41.7814 30.1057 41.7558 30.0497 41.753C29.9937 41.752 29.9396 41.77 29.8978 41.8069C22.1585 48.8268 14.1942 52.2388 5.54918 52.2388C5.53494 52.2388 5.52068 52.2398 5.50644 52.2436L5.42765 52.2596C5.31466 52.2833 5.24248 52.3941 5.26526 52.5067C5.289 52.6194 5.4001 52.6904 5.51214 52.6686L5.57007 52.6563C14.2569 52.6506 22.2563 49.2491 30.0212 42.2576C37.299 50.3899 42.8905 52.0163 53.3719 52.7491L54.3575 52.9034C52.862 70.4754 49.5141 83.9965 38.1346 92.8549C38.0434 92.9259 38.0273 93.0566 38.0985 93.1474C38.1393 93.2005 38.201 93.2279 38.2637 93.2279V93.227Z" fill="#231F20"/>
<path d="M30.0374 98.2687C30.1114 98.2687 30.1826 98.2299 30.2206 98.1598C30.2757 98.0585 30.2387 97.9326 30.1371 97.8767L27.0218 96.1774C15.6394 89.9697 9.40884 79.6458 6.81959 62.7024C6.8025 62.5888 6.69426 62.5102 6.58127 62.5272C6.46733 62.5443 6.38852 62.6512 6.40561 62.7649C9.01669 79.8493 15.3127 90.267 26.8205 96.5428L29.9358 98.2412C29.968 98.2583 30.0022 98.2668 30.0355 98.2668L30.0374 98.2687Z" fill="#231F20"/>
<path d="M24.1812 62.0381H35.9892" stroke="#E31837" stroke-width="0.5" stroke-linecap="round"/>
<path d="M24.1812 67.0654H35.9892" stroke="#E31837" stroke-width="0.5" stroke-linecap="round"/>
<path d="M23.6831 72.0933L33.8046 80.4724" stroke="#E31837" stroke-width="0.5" stroke-linecap="round"/>
<path d="M24.9479 62.0381H27.5881C30.3647 62.0381 32.6155 64.2889 32.6155 67.0655V67.0655C32.6155 69.842 30.3647 72.0928 27.5881 72.0928H24.1812" stroke="#E31837" stroke-width="0.5" stroke-linecap="round"/>
</svg>
