<svg width="140" height="74" viewBox="0 0 140 74" fill="none" xmlns="http://www.w3.org/2000/svg">
<path d="M60.3534 76.8232C60.3268 76.8232 60.3002 76.8147 60.2781 76.7983C60.2447 76.7733 60.2266 76.7331 60.2288 76.6917L63.2811 24.357C63.3264 23.8923 63.5751 23.4853 63.9647 23.2365C64.3539 22.9877 64.8274 22.9327 65.2635 23.0852L90.2924 32.0495C90.8554 32.2462 91.4812 32.0144 91.7808 31.4975L99.5359 18.1053C99.8582 17.5487 100.498 17.2608 101.129 17.3895L114.57 20.1316C115.31 20.3272 116.105 19.9094 116.601 19.07L120.743 10.9218L115.589 7.9082C115.549 7.88553 115.526 7.84302 115.527 7.79767C115.528 7.75233 115.553 7.71095 115.593 7.68998L130.098 0.014498C130.136 -0.0059065 130.183 -0.00477305 130.221 0.0178986C130.258 0.0405702 130.281 0.08138 130.281 0.125023L130.204 15.7979C130.204 15.841 130.181 15.8807 130.145 15.9034C130.109 15.926 130.063 15.9283 130.025 15.9096L124.373 13.1703L119.426 23.9331C118.849 25.1007 117.681 25.9078 116.576 25.9078C116.562 25.9078 116.549 25.9083 116.535 25.9067L105.55 24.5373C105.006 24.4698 104.488 24.7595 104.261 25.2599L96.3675 42.6786C96.0622 43.3519 95.2964 43.7039 94.5873 43.497L76.5262 38.2293C76.1478 38.1187 75.7502 38.1907 75.4342 38.4259C75.1181 38.6611 74.9352 39.0222 74.9318 39.4161L75.5056 71.4381C75.5067 71.492 75.4727 71.5401 75.4223 71.5583L60.3953 76.8175C60.3817 76.8221 60.3682 76.8243 60.354 76.8243L60.3534 76.8232ZM64.7679 23.2495C64.534 23.2495 64.3023 23.3164 64.0984 23.4468C63.7739 23.6542 63.5666 23.9932 63.5292 24.3763L60.4882 76.5194L75.2535 71.352L74.6815 39.4172C74.6854 38.9411 74.9052 38.5081 75.2841 38.2259C75.663 37.9436 76.141 37.8574 76.5947 37.9901L94.6558 43.2578C95.2477 43.4301 95.8849 43.1371 96.1392 42.576L104.033 25.1574C104.305 24.5577 104.926 24.2085 105.58 24.2907L116.558 25.659C117.558 25.6714 118.671 24.8978 119.2 23.826L124.199 12.9509C124.214 12.9203 124.239 12.8971 124.271 12.8858C124.303 12.8744 124.337 12.8761 124.367 12.8909L129.955 15.599L130.029 0.332469L115.906 7.80561L120.969 10.7654C121.026 10.7988 121.047 10.8708 121.017 10.9298L116.817 19.1902C116.259 20.135 115.355 20.5975 114.511 20.3742L101.077 17.6338C100.552 17.5261 100.018 17.7664 99.75 18.2306L91.9949 31.6227C91.6358 32.2428 90.8842 32.5217 90.208 32.2847L65.1791 23.3204C65.0443 23.2733 64.9055 23.2501 64.7673 23.2501L64.7679 23.2495Z" fill="#231F20"/>
<path d="M114.596 19.3366C114.596 19.3366 113.377 18.2002 113.699 16.4862C114.021 14.7722 116.084 13.4521 116.084 13.4521C116.084 13.4521 117.169 14.8414 116.786 16.7803C116.403 18.7193 114.596 19.3366 114.596 19.3366H114.596Z" fill="white"/>
<path d="M114.596 19.4614C114.565 19.4614 114.534 19.4495 114.511 19.4279C114.459 19.3798 113.247 18.2246 113.577 16.4631C113.905 14.7162 115.931 13.4018 116.017 13.3468C116.071 13.3123 116.142 13.3242 116.182 13.3752C116.228 13.4336 117.297 14.8324 116.908 16.8043C116.516 18.7909 114.712 19.4285 114.636 19.4546C114.623 19.4591 114.609 19.4614 114.596 19.4614ZM116.052 13.624C115.643 13.9102 114.09 15.0801 113.821 16.509C113.555 17.9316 114.401 18.9484 114.627 19.1899C114.959 19.051 116.342 18.3816 116.664 16.7555C116.976 15.1759 116.277 13.9629 116.052 13.6234V13.624Z" fill="#231F20"/>
<path d="M113.44 20.7754C113.404 20.7754 113.368 20.7601 113.344 20.73C113.3 20.6767 113.308 20.5979 113.362 20.5543C114.648 19.4978 115.373 17.7447 115.209 16.088C115.202 16.0194 115.252 15.9582 115.32 15.9514C115.389 15.944 115.45 15.9945 115.457 16.0631C115.632 17.8275 114.889 19.6225 113.52 20.747C113.496 20.7663 113.469 20.7754 113.441 20.7754H113.44Z" fill="#231F20"/>
<path d="M63.0158 29.5538C63.9827 30.4674 63.7051 32.3322 63.7051 32.3322C63.7051 32.3322 61.8604 32.7159 60.8941 31.8022C59.9273 30.8886 60.2048 29.0238 60.2048 29.0238C60.2048 29.0238 62.0496 28.6401 63.0158 29.5538Z" fill="white"/>
<path d="M62.8082 32.539C62.18 32.539 61.365 32.4188 60.8088 31.8934C59.8063 30.9463 60.0697 29.085 60.0815 29.0062C60.0895 28.9546 60.1286 28.9132 60.1795 28.9024C60.2571 28.886 62.099 28.5165 63.1016 29.4636C64.1041 30.4107 63.8407 32.272 63.8288 32.3508C63.8209 32.4024 63.7818 32.4438 63.7308 32.4545C63.6963 32.4619 63.3117 32.539 62.8076 32.539H62.8082ZM60.3177 29.1309C60.2798 29.5044 60.1886 30.9639 60.9798 31.7115C61.7722 32.4602 63.2222 32.2851 63.5926 32.2255C63.6306 31.8526 63.7218 30.3925 62.9305 29.6444C62.1393 28.8968 60.6882 29.0713 60.3177 29.1309Z" fill="#231F20"/>
<path d="M64.3673 33.5198C64.3208 33.5198 64.2761 33.4938 64.2545 33.449C63.9419 32.7938 63.5726 32.2587 63.1252 31.8127C63.0764 31.7639 63.0764 31.6851 63.1252 31.6364C63.1739 31.5876 63.2526 31.5871 63.3013 31.6364C63.7691 32.1028 64.1549 32.6606 64.48 33.3419C64.5094 33.4042 64.4834 33.4785 64.4211 33.5079C64.4035 33.5164 64.3854 33.5198 64.3673 33.5198Z" fill="#231F20"/>
<path d="M75.537 29.0607C75.2204 31.1204 72.572 32.4218 72.572 32.4218C72.572 32.4218 70.4367 30.3842 70.7533 28.3244C71.0699 26.2647 73.7183 24.9634 73.7183 24.9634C73.7183 24.9634 75.8536 27.001 75.537 29.0607Z" fill="white"/>
<path d="M72.5721 32.5465C72.541 32.5465 72.5098 32.5346 72.4861 32.5119C72.3971 32.4269 70.3071 30.4052 70.63 28.3052C70.9528 26.2053 73.5526 24.9056 73.6636 24.8512C73.7106 24.828 73.7667 24.837 73.8046 24.8727C73.8935 24.9577 75.9835 26.9795 75.6607 29.0795C75.3378 31.1794 72.7381 32.4791 72.6271 32.5335C72.6095 32.542 72.5908 32.5465 72.5721 32.5465ZM73.6953 25.1159C73.2592 25.35 71.1494 26.5686 70.8769 28.3432C70.6039 30.1178 72.2504 31.9145 72.5959 32.2688C73.0321 32.0347 75.1419 30.8161 75.4143 29.0415C75.6873 27.2652 74.0408 25.4701 73.6953 25.1159Z" fill="#231F20"/>
<path d="M71.9541 34.6671C71.9416 34.6671 71.9286 34.6654 71.9162 34.6608C71.8505 34.6399 71.8142 34.5696 71.8352 34.5038C72.6638 31.9096 72.9192 30.5335 73.2228 27.9574C73.2308 27.8888 73.2931 27.8401 73.361 27.848C73.4296 27.8559 73.4783 27.9183 73.4703 27.9863C73.1645 30.5799 72.9073 31.9657 72.0725 34.5792C72.0555 34.6319 72.0068 34.6659 71.9535 34.6659L71.9541 34.6671Z" fill="#231F20"/>
<path d="M133.538 5.94789C132.818 6.46764 131.63 6.05105 131.63 6.05105C131.63 6.05105 131.611 4.79164 132.331 4.27189C133.052 3.75214 134.24 4.16874 134.24 4.16874C134.24 4.16874 134.259 5.42814 133.538 5.94789Z" fill="white"/>
<path d="M132.593 6.33484C132.072 6.33484 131.62 6.17954 131.589 6.16877C131.54 6.1512 131.506 6.10529 131.506 6.05315C131.505 5.9993 131.494 4.72232 132.258 4.17083C133.023 3.61935 134.23 4.0331 134.281 4.05124C134.33 4.06881 134.364 4.11472 134.364 4.16686C134.365 4.22071 134.376 5.49769 133.612 6.04918C133.309 6.26796 132.936 6.33484 132.594 6.33484H132.593ZM131.757 5.95963C132.032 6.03898 132.913 6.24529 133.465 5.84683C134.018 5.44838 134.1 4.54718 134.113 4.26039C133.837 4.1816 132.957 3.97472 132.404 4.37318C131.85 4.77277 131.769 5.67283 131.757 5.95963Z" fill="#231F20"/>
<path d="M130.801 6.62185C130.756 6.62185 130.712 6.59691 130.69 6.55327C130.659 6.49206 130.683 6.41667 130.745 6.3855C131.775 5.86405 132.268 5.53191 133.138 4.85686C133.192 4.81435 133.27 4.82456 133.313 4.87897C133.355 4.93338 133.345 5.0116 133.291 5.05411C132.407 5.73993 131.907 6.07773 130.857 6.60825C130.839 6.61732 130.82 6.62185 130.801 6.62185Z" fill="#231F20"/>
<path d="M65.9007 40.3358C68.0858 41.5192 68.4829 45.0203 68.4829 45.0203C68.4829 45.0203 65.3365 46.6022 63.1514 45.4182C60.9663 44.2347 60.5692 40.7336 60.5692 40.7336C60.5692 40.7336 63.7155 39.1517 65.9007 40.3358Z" fill="white"/>
<path d="M65.0766 45.9861C64.402 45.9861 63.7121 45.8643 63.0919 45.5282C60.8751 44.3271 60.4616 40.8935 60.4452 40.7479C60.4395 40.6957 60.4667 40.6458 60.5132 40.6226C60.644 40.5568 63.7427 39.0254 65.9602 40.2264C68.177 41.4274 68.5905 44.8611 68.6069 45.0067C68.6126 45.0589 68.5854 45.1087 68.5389 45.132C68.4449 45.1796 66.812 45.9867 65.0772 45.9867L65.0766 45.9861ZM60.7046 40.8074C60.7845 41.3515 61.2976 44.2727 63.2103 45.3088C65.1225 46.3449 67.8474 45.1773 68.3464 44.9466C68.2665 44.4025 67.7534 41.4813 65.8407 40.4452C63.9262 39.4085 61.203 40.5761 60.7046 40.8074Z" fill="#231F20"/>
<path d="M70.0449 47.5309C69.9968 47.5309 69.9503 47.5026 69.9305 47.4556C68.9943 45.2694 67.0759 43.5572 64.799 42.8753C64.7333 42.8555 64.6953 42.7858 64.7152 42.72C64.735 42.6543 64.8047 42.6163 64.8704 42.6361C67.2175 43.3389 69.1948 45.1039 70.1599 47.3575C70.1871 47.421 70.1576 47.4941 70.0942 47.5213C70.0783 47.5281 70.0613 47.5315 70.0449 47.5315V47.5309Z" fill="#231F20"/>
<path d="M86.1294 25.4118C85.3568 27.0192 82.8641 27.4239 82.8641 27.4239C82.8641 27.4239 81.6237 25.2225 82.3963 23.6156C83.1688 22.0082 85.6615 21.6035 85.6615 21.6035C85.6615 21.6035 86.9019 23.8049 86.1294 25.4118Z" fill="white"/>
<path d="M82.8642 27.5481C82.82 27.5481 82.7781 27.5243 82.7555 27.4847C82.7034 27.3923 81.4919 25.2079 82.2837 23.5608C83.0749 21.9137 85.537 21.4965 85.6413 21.4795C85.6928 21.4716 85.7443 21.4959 85.7698 21.5413C85.8219 21.6337 87.0329 23.8181 86.2416 25.4652C85.4504 27.1123 82.9888 27.5294 82.8841 27.5464C82.8773 27.5476 82.8705 27.5481 82.8642 27.5481ZM85.5942 21.7425C85.153 21.8321 83.1638 22.3059 82.5085 23.669C81.8527 25.0339 82.7255 26.8833 82.9316 27.284C83.3728 27.1945 85.362 26.7206 86.0173 25.3575C86.6727 23.9944 85.7998 22.1438 85.5942 21.7425Z" fill="#231F20"/>
<path d="M81.2104 28.7506C81.164 28.7506 81.1198 28.7251 81.0983 28.6803C81.0682 28.6185 81.0937 28.5437 81.156 28.5137C82.6796 27.7717 83.8328 26.3462 84.24 24.7008C84.2565 24.634 84.3244 24.5932 84.3913 24.6096C84.4581 24.626 84.4989 24.694 84.4825 24.7609C84.0571 26.4777 82.8546 27.9644 81.2653 28.7381C81.2478 28.7466 81.2291 28.7506 81.211 28.7506H81.2104Z" fill="#231F20"/>
<path d="M94.8646 27.8399C95.6123 28.8788 95.0119 30.5906 95.0119 30.5906C95.0119 30.5906 93.1988 30.6178 92.4512 29.5788C91.7036 28.5399 92.304 26.8282 92.304 26.8282C92.304 26.8282 94.117 26.801 94.8646 27.8399Z" fill="white"/>
<path d="M94.9917 30.7155C94.7708 30.7155 93.0903 30.6809 92.35 29.6516C91.5735 28.5725 92.1608 26.8591 92.1863 26.7865C92.2039 26.7372 92.2497 26.7038 92.3019 26.7032C92.3795 26.7026 94.1885 26.6873 94.965 27.7671C95.7416 28.8468 95.1542 30.5596 95.1287 30.6322C95.1112 30.6815 95.0653 30.7149 95.0132 30.7155C95.0098 30.7155 95.0024 30.7155 94.9917 30.7155ZM92.3947 26.9543C92.29 27.3051 91.9433 28.6598 92.5522 29.506C93.1622 30.3533 94.555 30.4531 94.9209 30.4644C95.0256 30.1136 95.3723 28.7589 94.7634 27.9127C94.1534 27.0654 92.7606 26.9656 92.3953 26.9543H92.3947Z" fill="#231F20"/>
<path d="M95.2757 32.7443C95.2757 32.7443 95.2717 32.7443 95.27 32.7443C95.2015 32.7409 95.1482 32.6825 95.1511 32.614C95.2287 30.9204 94.5286 29.2251 93.2792 28.0802C93.2282 28.0337 93.2248 27.9549 93.2712 27.9039C93.3177 27.8529 93.3964 27.8495 93.4474 27.896C94.7506 29.0902 95.4807 30.858 95.4003 32.6253C95.3975 32.6922 95.342 32.7443 95.2757 32.7443Z" fill="#231F20"/>
<path d="M61.4999 64.5712C63.1442 66.0398 62.7709 69.1424 62.7709 69.1424C62.7709 69.1424 59.7322 69.8639 58.0886 68.3948C56.4443 66.9263 56.8176 63.8237 56.8176 63.8237C56.8176 63.8237 59.8563 63.1021 61.4999 64.5712Z" fill="white"/>
<path d="M61.0677 69.4482C60.0776 69.4482 58.8667 69.2572 58.0058 68.488C56.3326 66.9928 56.6787 63.9378 56.694 63.8086C56.7002 63.7565 56.7382 63.7139 56.7891 63.702C56.916 63.672 59.91 62.9828 61.5837 64.478C63.2568 65.9732 62.9107 69.0282 62.8954 69.1574C62.8892 69.2096 62.8512 69.2521 62.8003 69.264C62.7385 69.2787 62.0017 69.4482 61.0682 69.4482H61.0677ZM56.933 63.9265C56.89 64.4372 56.7478 67.0297 58.1717 68.3015C59.5956 69.5734 62.1534 69.1398 62.6558 69.0389C62.6989 68.5283 62.841 65.9358 61.4171 64.6639C59.9921 63.3909 57.4348 63.8256 56.933 63.9265Z" fill="#231F20"/>
<path d="M64.4065 71.8913C64.3612 71.8913 64.317 71.8664 64.2949 71.8227C63.7376 70.7186 63.037 69.6922 62.2118 68.7717C62.1925 68.7501 60.2962 66.6258 58.1722 65.1397C58.1156 65.1 58.102 65.0224 58.1417 64.9663C58.1813 64.9101 58.2589 64.896 58.315 64.9356C60.4633 66.4388 62.3783 68.5841 62.3975 68.6056C63.2369 69.542 63.9506 70.5871 64.5175 71.7105C64.5487 71.7717 64.5238 71.8471 64.4626 71.8783C64.4445 71.8873 64.4252 71.8919 64.4065 71.8919V71.8913Z" fill="#231F20"/>
<path d="M77.945 60.0151C77.0331 61.2213 74.8927 61.1385 74.8927 61.1385C74.8927 61.1385 74.2311 59.0998 75.1436 57.8936C76.0555 56.6875 78.1959 56.7702 78.1959 56.7702C78.1959 56.7702 78.8574 58.809 77.945 60.0151Z" fill="white"/>
<path d="M74.9952 61.2642C74.9357 61.2642 74.8984 61.2631 74.8876 61.2625C74.8355 61.2602 74.7902 61.2262 74.7737 61.1764C74.746 61.0908 74.1031 59.0617 75.0439 57.8176C75.9847 56.5734 78.1109 56.6409 78.2004 56.6449C78.2525 56.6471 78.2978 56.6811 78.3143 56.731C78.342 56.8166 78.9849 58.8457 78.0441 60.0898C77.2121 61.19 75.4523 61.2642 74.9952 61.2642ZM78.1024 56.8937C77.6958 56.8954 76.0023 56.9645 75.2427 57.9683C74.4826 58.9738 74.8768 60.622 74.9861 61.0143C75.3928 61.0126 77.0863 60.9434 77.8453 59.9396C78.6054 58.9341 78.2112 57.2859 78.1019 56.8937H78.1024Z" fill="#231F20"/>
<path d="M74.4413 62.1676C74.4255 62.1676 74.4091 62.1642 74.3932 62.158C74.3298 62.1313 74.2997 62.0582 74.3269 61.9947C75.0383 60.3029 75.8658 59.154 77.0088 58.2692C77.0632 58.2273 77.1413 58.2369 77.1838 58.2913C77.2257 58.3457 77.2161 58.424 77.1617 58.4665C76.0544 59.3235 75.2513 60.4412 74.5575 62.0917C74.5376 62.1393 74.4912 62.1682 74.4425 62.1682L74.4413 62.1676Z" fill="#231F20"/>
<path d="M100.78 43.146C99.6599 42.6937 99.277 40.9995 99.277 40.9995C99.277 40.9995 100.711 40.0893 101.83 40.5416C102.95 40.9939 103.332 42.6631 103.332 42.6631C103.332 42.6631 101.899 43.5983 100.78 43.146Z" fill="white"/>
<path d="M101.46 43.396C101.216 43.396 100.969 43.358 100.733 43.2628C99.5664 42.7912 99.1716 41.0999 99.1552 41.0285C99.1433 40.9769 99.1654 40.9237 99.2102 40.8959C99.2708 40.8573 100.712 39.9561 101.877 40.4277C103.044 40.8993 103.438 42.5662 103.454 42.6365C103.466 42.6875 103.445 42.7402 103.401 42.7691C103.352 42.8009 102.426 43.3966 101.46 43.3966L101.46 43.396ZM100.827 43.0315C101.731 43.3966 102.884 42.7839 103.189 42.6059C103.093 42.2664 102.688 41.024 101.784 40.6584C100.879 40.2928 99.7273 40.8862 99.4214 41.0602C99.5166 41.4043 99.9227 42.666 100.827 43.031V43.0315Z" fill="#231F20"/>
<path d="M97.4968 41.5658C97.4532 41.5658 97.4107 41.5432 97.3881 41.5023C97.3541 41.4423 97.3756 41.3663 97.4357 41.3323C98.4002 40.7905 99.6276 40.7321 100.639 41.1804C100.702 41.2082 100.73 41.2819 100.703 41.3448C100.675 41.4077 100.601 41.436 100.538 41.4083C99.597 40.9911 98.4552 41.0449 97.558 41.5494C97.5387 41.5602 97.5178 41.5653 97.4968 41.5653V41.5658Z" fill="#231F20"/>
<path d="M123.267 17.038C123.267 17.038 123.256 16.2955 124.025 15.7644C124.794 15.2333 125.999 15.3478 126.756 16.0909C126.756 16.0909 126.516 17.0522 125.214 17.4036C123.911 17.755 123.267 17.038 123.267 17.038H123.267Z" fill="white"/>
<path d="M124.516 17.6259C123.64 17.6259 123.197 17.1464 123.174 17.1209C123.154 17.0982 123.143 17.0693 123.142 17.0393C123.142 17.0064 123.14 16.2237 123.955 15.6614C124.791 15.0838 126.06 15.2329 126.843 16.0015C126.875 16.0327 126.887 16.078 126.877 16.1205C126.866 16.1624 126.604 17.1566 125.245 17.5233C124.975 17.5964 124.732 17.6253 124.515 17.6253L124.516 17.6259ZM123.394 16.9877C123.538 17.1203 124.123 17.5681 125.181 17.2824C126.211 17.0047 126.534 16.3416 126.614 16.1267C125.91 15.4846 124.819 15.3672 124.097 15.866C123.5 16.2786 123.409 16.8245 123.395 16.9871L123.394 16.9877Z" fill="#231F20"/>
<path d="M122.768 17.5747C122.73 17.5747 122.693 17.5577 122.668 17.5248C122.627 17.4698 122.638 17.3916 122.693 17.3502C123.615 16.6576 124.606 15.9922 125.698 16.1237C125.767 16.1316 125.815 16.1939 125.807 16.2625C125.799 16.3311 125.735 16.3799 125.668 16.3714C124.668 16.2518 123.723 16.8877 122.842 17.5497C122.82 17.5667 122.794 17.5747 122.767 17.5747H122.768Z" fill="#231F20"/>
<path d="M34.5562 77.3427H118.528L113.18 38.6714H42.6291L34.5562 77.3427Z" fill="white"/>
<path d="M118.405 77.3427H34.6802C34.6441 77.3427 34.6103 77.3323 34.5867 77.3148C34.563 77.297 34.5523 77.2732 34.5574 77.2498L42.6065 38.742C42.615 38.7015 42.6674 38.6714 42.7293 38.6714H113.072C113.136 38.6714 113.19 38.7037 113.196 38.7457L118.528 77.2535C118.531 77.2766 118.519 77.2992 118.495 77.3159C118.472 77.333 118.439 77.3427 118.404 77.3427H118.405ZM34.8227 77.1792H118.269L112.96 38.8348H42.8375L34.8227 77.1792Z" fill="#231F20"/>
<path d="M39.6821 77.2045C39.677 77.2045 39.6713 77.2045 39.6662 77.2034C39.5977 77.1949 39.5495 77.132 39.558 77.0639L43.6701 44.6667C43.6785 44.5987 43.7408 44.5505 43.8094 44.5585C43.8779 44.567 43.9261 44.6299 43.9176 44.6979L39.8056 77.0951C39.7976 77.158 39.7438 77.2039 39.6821 77.2039V77.2045Z" fill="#231F20"/>
<path d="M45.6052 77.3423H129.577L122.904 46.4053H50.9528L45.6052 77.3423Z" fill="white"/>
<path d="M129.452 77.342H44.6263C44.5909 77.342 44.5572 77.3343 44.5332 77.3206C44.5092 77.3069 44.4978 77.2888 44.5007 77.2707L49.9027 46.4647C49.9084 46.4311 49.9626 46.4053 50.0277 46.4053H122.71C122.774 46.4053 122.828 46.4302 122.835 46.4632L129.576 77.2692C129.58 77.2876 129.569 77.3064 129.546 77.3203C129.522 77.3343 129.488 77.3423 129.452 77.3423V77.342ZM44.7638 77.2113H129.311L122.598 46.536H50.1424L44.7632 77.2113H44.7638Z" fill="#231F20"/>
<path d="M80.2386 50.9429H93.7573V44.6827H80.2386V50.9429Z" fill="white"/>
<path d="M81.2292 52.8268C81.2292 52.8268 86.2678 51.3197 94.6617 54.6241L81.2292 52.8268Z" fill="white"/>
<path d="M90.7015 64.6314C90.7015 66.758 89.4933 68.6017 87.7262 69.5137C87.9097 68.8324 88.2037 68.0916 88.4993 67.429C88.8845 66.567 89.2736 65.8398 89.4293 65.5541C89.4752 65.4702 89.5018 65.4243 89.5018 65.4243C89.4917 65.3943 89.482 65.3642 89.4718 65.3342C88.8924 63.6463 86.8381 60.7001 84.6966 60.9648C84.1693 61.0294 83.6669 61.5537 83.1611 62.1811C83.0252 62.3495 82.8881 62.5269 82.751 62.7026C82.1654 63.4587 81.5644 64.2221 80.9063 64.4438C80.7919 64.4823 80.6758 64.505 80.5574 64.5084C80.243 64.5169 79.9689 64.4959 79.731 64.4472C79.8284 61.4993 82.2464 59.1392 85.216 59.1392C88.1856 59.1392 90.7032 61.5979 90.7032 64.6302L90.7015 64.6314Z" fill="white"/>
<path d="M87.7262 69.6394C87.6984 69.6394 87.6707 69.6298 87.648 69.6116C87.6095 69.5805 87.5931 69.53 87.6061 69.4818C87.7658 68.8873 88.0281 68.1799 88.3855 67.379C88.7531 66.5566 89.1286 65.8459 89.32 65.495C89.3387 65.461 89.354 65.4332 89.3659 65.4123L89.3534 65.3749C88.7791 63.7028 86.7373 60.8394 84.7113 61.0894C84.214 61.1506 83.7184 61.6879 83.2574 62.2603C83.1424 62.4026 83.0268 62.5511 82.9113 62.6996L82.8484 62.7801C82.2871 63.5039 81.6511 64.3246 80.9448 64.5632C80.8162 64.6063 80.6871 64.6307 80.5602 64.6346C80.2425 64.6437 79.9547 64.6222 79.705 64.5712C79.6455 64.5593 79.6036 64.5054 79.6053 64.4448C79.7055 61.4011 82.1693 59.0166 85.2148 59.0166C88.2603 59.0166 90.8266 61.536 90.8266 64.6324C90.8266 66.7442 89.6604 68.6572 87.7834 69.6258C87.7653 69.6349 87.746 69.64 87.7262 69.64V69.6394ZM84.9696 60.8247C87.1185 60.8247 89.0504 63.7261 89.5891 65.2955L89.6197 65.3868C89.631 65.4202 89.627 65.4571 89.6095 65.4877C89.6095 65.4877 89.5834 65.5336 89.5381 65.6163C89.3489 65.9632 88.9768 66.6671 88.6126 67.4816C88.3169 68.1448 88.0876 68.7422 87.929 69.2614C89.5698 68.2989 90.5769 66.5515 90.5769 64.6329C90.5769 61.6737 88.1714 59.2666 85.2143 59.2666C82.2571 59.2666 80.008 61.4889 79.8585 64.3461C80.0646 64.3796 80.298 64.3926 80.5523 64.3858C80.6559 64.3824 80.7584 64.3631 80.8649 64.3274C81.4999 64.1132 82.1116 63.3242 82.6513 62.6276L82.7142 62.5471C82.8309 62.3975 82.9476 62.2479 83.0631 62.1045C83.5576 61.4918 84.0956 60.9148 84.6807 60.8428C84.7776 60.8309 84.8739 60.8252 84.9696 60.8252V60.8247Z" fill="#231F20"/>
<path d="M60.186 54.105C57.0397 59.8641 54.4779 65.8682 54.4779 65.8682H43.252L60.186 54.105Z" fill="#1084CB"/>
<path d="M43.222 65.7679L37.9652 65.7679L37.9647 65.7679C27.5971 65.826 23.4415 63.4006 22.0292 60.5998C21.3219 59.1971 21.2932 57.6843 21.5336 56.3084C21.7741 54.9322 22.2824 53.7009 22.6411 52.8655L22.6411 52.8655C23.3541 51.2034 25.9448 46.6511 29.4587 42.0763C32.9749 37.4987 37.3998 32.9197 41.7766 31.1803C46.1645 29.4364 52.1638 28.668 57.585 28.5345C60.2943 28.4678 62.8565 28.5598 64.9969 28.7671C67.1399 28.9747 68.8524 29.2971 69.867 29.6877L69.903 29.5944L69.867 29.6877C71.9133 30.4754 77.4276 33.3036 82.6547 36.5284C85.2676 38.1403 87.8054 39.8494 89.8002 41.4499C90.7977 42.2501 91.6577 43.022 92.3229 43.7397C92.9895 44.4589 93.4546 45.1176 93.6703 45.6913C94.4301 47.7141 94.6624 51.0449 94.5659 54.479C90.4192 52.8647 87.0954 52.4222 84.7992 52.3861C83.639 52.3679 82.7415 52.4534 82.1328 52.5439C81.8285 52.5891 81.5965 52.6355 81.44 52.6708C81.3618 52.6884 81.3024 52.7033 81.2623 52.7138C81.2593 52.7146 81.2563 52.7154 81.2535 52.7161C80.5801 52.1488 79.3478 51.3801 77.8804 50.5461C76.3803 49.6935 74.6269 48.7687 72.9563 47.9147C71.2855 47.0606 69.6968 46.277 68.5259 45.707C67.9403 45.4219 67.4592 45.1903 67.1245 45.0299C66.9571 44.9496 66.8263 44.8872 66.7374 44.8449L66.6359 44.7967L66.61 44.7844L66.6034 44.7812L66.6017 44.7805L66.6013 44.7803C66.6012 44.7802 66.6012 44.7802 66.5584 44.8706L66.6012 44.7802L66.5409 44.7517L66.4914 44.7963C64.4744 46.6171 62.1648 50.2807 60.1119 54.0354L43.222 65.7679Z" fill="white" stroke="#231F20" stroke-width="0.2"/>
<path d="M87.7263 69.6393C87.7155 69.6393 87.7047 69.6381 87.694 69.6347C87.6277 69.6166 87.5881 69.5486 87.6062 69.4817C87.7659 68.8871 88.0282 68.1798 88.3856 67.3789C88.7531 66.5565 89.1287 65.8457 89.3201 65.4949C89.3388 65.4609 89.3541 65.4331 89.366 65.4121L89.3535 65.3747C88.7792 63.7027 86.7373 60.8393 84.7114 61.0892C84.2141 61.1504 83.7185 61.6877 83.2574 62.2602C83.1436 62.4013 83.0286 62.5487 82.9136 62.6966L82.8485 62.7799C82.2872 63.5037 81.6511 64.3244 80.9449 64.5631C80.8163 64.6061 80.6866 64.6305 80.5603 64.6345C80.49 64.639 80.434 64.5829 80.4317 64.5138C80.4294 64.4452 80.4833 64.3874 80.5524 64.3851C80.656 64.3817 80.7585 64.3624 80.8656 64.3267C81.5005 64.1125 82.1122 63.3235 82.652 62.6269L82.7171 62.543C82.8332 62.3945 82.9488 62.246 83.0637 62.1032C83.5576 61.4905 84.0957 60.9135 84.6814 60.8415C86.9458 60.5615 89.0267 63.6551 89.5897 65.2942L89.6203 65.3849C89.6316 65.4184 89.6276 65.4552 89.6101 65.4858C89.6101 65.4858 89.584 65.5317 89.5387 65.6139C89.3495 65.9608 88.9774 66.6647 88.6132 67.4792C88.2615 68.2682 88.0032 68.9631 87.8469 69.5452C87.8322 69.6007 87.7818 69.6376 87.7268 69.6376L87.7263 69.6393Z" fill="#231F20"/>
<path d="M38.0842 53.0829C38.0633 53.0829 38.0417 53.0778 38.0219 53.0665C37.9624 53.0319 37.942 52.956 37.976 52.8959C39.5025 50.2507 41.2232 47.6814 43.0917 45.259C43.1336 45.2046 43.2123 45.1943 43.2667 45.2363C43.3211 45.2782 43.3313 45.3565 43.2894 45.4114C41.4276 47.8248 39.7126 50.385 38.1924 53.0206C38.1692 53.0608 38.1273 53.0829 38.0842 53.0829Z" fill="#231F20"/>
<path d="M36.4447 53.1084L36.4447 53.1084C36.4306 53.1075 36.4205 53.0956 36.4214 53.0824L36.4214 53.0824C36.4218 53.0761 36.4248 53.0696 36.4306 53.0645C36.4364 53.0594 36.4417 53.0585 36.4447 53.0588L36.4447 53.0588L36.4473 53.059L47.4311 53.7587L47.4311 53.7587C47.4451 53.7596 47.4552 53.7715 47.4544 53.7847C47.4535 53.7985 47.442 53.8086 47.4288 53.8081L47.4288 53.8081L47.4288 53.8081L47.4288 53.8081L47.4288 53.8081L47.4288 53.8081L47.4288 53.8081L47.4288 53.8081L47.4288 53.8081L47.4288 53.8081L47.4288 53.8081L47.4288 53.8081L47.4287 53.8081L47.4287 53.8081L47.4287 53.8081L47.4287 53.8081L47.4287 53.8081L47.4287 53.8081L47.4287 53.8081L47.4287 53.8081L47.4287 53.8081L47.4287 53.8081L47.4287 53.8081L47.4286 53.8081L47.4286 53.8081L47.4286 53.8081L47.4286 53.8081L47.4286 53.8081L47.4286 53.8081L47.4286 53.8081L47.4286 53.8081L47.4286 53.8081L47.4286 53.8081L47.4286 53.8081L47.4285 53.8081L47.4285 53.8081L47.4285 53.8081L47.4285 53.8081L47.4285 53.8081L47.4285 53.8081L47.4285 53.8081L47.4285 53.8081L47.4285 53.8081L47.4285 53.8081L47.4284 53.8081L47.4284 53.8081L47.4284 53.8081L47.4284 53.8081L47.4284 53.8081L47.4284 53.8081L47.4284 53.8081L47.4284 53.8081L47.4284 53.8081L47.4283 53.8081L47.4283 53.8081L47.4283 53.8081L47.4283 53.8081L47.4283 53.8081L47.4283 53.8081L47.4283 53.8081L47.4283 53.8081L47.4282 53.8081L47.4282 53.8081L47.4282 53.8081L47.4282 53.8081L47.4282 53.8081L47.4282 53.8081L47.4282 53.8081L47.4282 53.8081L47.4281 53.8081L47.4281 53.8081L47.4281 53.8081L47.4281 53.8081L47.4281 53.8081L47.4281 53.8081L47.4281 53.8081L47.4281 53.8081L47.428 53.8081L47.428 53.8081L47.428 53.8081L47.428 53.8081L47.428 53.8081L47.428 53.8081L47.428 53.8081L47.428 53.8081L47.4279 53.8081L47.4279 53.8081L47.4279 53.8081L47.4279 53.8081L47.4279 53.8081L47.4279 53.8081L47.4279 53.8081L47.4279 53.8081L47.4278 53.8081L47.4278 53.8081L47.4278 53.8081L47.4278 53.8081L47.4278 53.8081L47.4278 53.8081L47.4278 53.8081L47.4278 53.8081L47.4278 53.8081L47.4277 53.8081L47.4277 53.8081L47.4277 53.8081L47.4277 53.8081L47.4277 53.8081L47.4277 53.8081L47.4277 53.8081L47.4277 53.8081L47.4277 53.8081L47.4277 53.8081L47.4277 53.8081L47.4276 53.8081L47.4276 53.8081L47.4276 53.8081L47.4276 53.8081L47.4276 53.8081L47.4276 53.8081L47.4276 53.8081L47.4276 53.8081L47.4276 53.8081L47.4276 53.8081L47.4276 53.8081L47.4275 53.8081L47.4275 53.8081L47.4275 53.8081L47.4275 53.8081L47.4275 53.8081L47.4275 53.8081L47.4275 53.8081L47.4275 53.8081L47.4275 53.8081L47.4275 53.8081L47.4275 53.8081L47.4275 53.8081L47.4274 53.8081L47.4274 53.8081L47.4274 53.8081L47.4274 53.8081L47.4274 53.8081L47.4274 53.8081L47.4274 53.8081L47.4274 53.808L47.4274 53.808L47.4274 53.808L47.4274 53.808L47.4274 53.808L47.4273 53.808L47.4273 53.808L47.4273 53.808L47.4273 53.808L47.4273 53.808L47.4273 53.808L47.4273 53.808L47.4273 53.808L47.4273 53.808L47.4273 53.808L47.4273 53.808L47.4273 53.808L47.4273 53.808L47.4273 53.808L47.4272 53.808L47.4272 53.808L47.4272 53.808L47.4272 53.808L47.4272 53.808L47.4272 53.808L47.4272 53.808L47.4272 53.808L47.4272 53.808L47.4272 53.808L47.4272 53.808L47.4272 53.808L47.4271 53.808L47.4271 53.808L47.4271 53.808L47.4271 53.808L47.4271 53.808L47.4271 53.808L47.4271 53.808L47.4271 53.808L47.4271 53.808L47.4271 53.808L47.4271 53.808L47.427 53.808L47.427 53.808L47.427 53.808L47.427 53.808L47.427 53.808L47.427 53.808L47.427 53.808L47.427 53.808L47.427 53.808L47.427 53.808L47.4269 53.808L47.4269 53.808L47.4269 53.808L47.4269 53.808L47.4269 53.808L47.4269 53.808L47.4269 53.808L47.4269 53.808L47.4269 53.808L47.4268 53.808L47.4268 53.808L47.4268 53.808L47.4268 53.808L47.4268 53.808L47.4268 53.808L47.4268 53.808L47.4268 53.808L47.4267 53.808L47.4267 53.808L47.4267 53.808L47.4267 53.808L47.4267 53.808L47.4267 53.808L47.4267 53.808L47.4267 53.808L36.4447 53.1084Z" fill="white" stroke="#231F20" stroke-width="0.2"/>
<path d="M81.4557 52.4574C81.4438 52.4574 81.4313 52.4557 81.4194 52.4517C81.3537 52.4319 81.3164 52.3621 81.3367 52.2958L82.6746 47.9038C82.6944 47.838 82.7641 47.8006 82.8303 47.821C82.896 47.8408 82.9334 47.9106 82.913 47.9769L81.5752 52.3689C81.5588 52.4228 81.5095 52.4574 81.4563 52.4574H81.4557Z" fill="white"/>
<path d="M46.6039 53.7254C46.6089 53.7203 46.6132 53.7158 46.617 53.712L46.629 53.6998L46.632 53.6968L46.6327 53.6961L46.6329 53.696L46.5629 53.6256L46.5623 53.6251L46.5629 53.6256L46.6039 53.7254ZM46.6039 53.7254C46.5945 53.7349 46.583 53.7468 46.5693 53.761C46.5275 53.8044 46.466 53.869 46.3879 53.9538C46.2317 54.1233 46.0089 54.3729 45.7437 54.6928C45.2131 55.3327 44.5129 56.253 43.8349 57.3741C42.4892 59.5995 41.2377 62.6045 41.5572 65.7748L41.6356 65.7806C41.7412 65.7882 41.8963 65.799 42.0943 65.8118C42.4903 65.8375 43.058 65.8712 43.7443 65.9037C45.1171 65.9686 46.9638 66.0281 48.8606 66.0068C50.7582 65.9855 52.7023 65.8833 54.2712 65.6257C55.0559 65.4969 55.7428 65.3298 56.2818 65.1163C56.8237 64.9017 57.201 64.646 57.3863 64.3496L57.4274 64.2838L57.5013 64.3073L57.5013 64.3073L57.5014 64.3073L57.5017 64.3074L57.5033 64.3079L57.5101 64.31L57.5373 64.3182C57.5613 64.3253 57.5966 64.3355 57.6414 64.3476C57.7311 64.3718 57.8587 64.4038 58.0097 64.4347C58.3127 64.4968 58.7049 64.5533 59.0721 64.5358C59.443 64.5181 59.7655 64.426 59.9554 64.2139C60.14 64.0079 60.2242 63.659 60.0502 63.0648L60.0114 62.9323L60.1493 62.9367L60.1493 62.9367L60.1493 62.9367L60.1497 62.9367L60.1513 62.9368L60.1581 62.9369L60.1855 62.9374C60.2096 62.9377 60.245 62.9379 60.2898 62.9374C60.3795 62.9365 60.5065 62.9331 60.6555 62.9228C60.9543 62.9023 61.3367 62.8546 61.6807 62.7475C62.0285 62.6393 62.3161 62.4768 62.4533 62.2415C62.5848 62.0157 62.5946 61.6915 62.3131 61.2136L62.1785 60.985L62.4304 61.0678L62.4305 61.0678L62.4305 61.0678L62.4308 61.0679L62.4322 61.0684L62.4384 61.0704L62.463 61.078C62.4848 61.0847 62.5169 61.0942 62.5576 61.1055C62.6391 61.1282 62.7548 61.158 62.8912 61.1865C63.1655 61.2436 63.5177 61.2938 63.8421 61.2719C64.1698 61.2497 64.4452 61.1557 64.5976 60.9492C64.7481 60.7454 64.8026 60.3984 64.6084 59.8107L64.775 59.7096L64.7033 59.7793L64.775 59.7096L64.7752 59.7097L64.7757 59.7103L64.778 59.7126L64.7869 59.7218L64.8222 59.7578C64.8531 59.7893 64.8987 59.8355 64.9569 59.8942C65.0735 60.0116 65.2411 60.1791 65.4449 60.379C65.8525 60.7788 66.4047 61.3081 66.9832 61.8263C67.5623 62.3451 68.1655 62.8506 68.6757 63.2045C68.9311 63.3816 69.1597 63.5182 69.348 63.5998C69.4422 63.6406 69.5231 63.6662 69.5901 63.6772C69.6577 63.6883 69.7041 63.6833 69.7346 63.6711C69.9117 63.5998 70.0346 63.4442 70.0944 63.2074C70.1548 62.9686 70.1482 62.654 70.0667 62.2875C69.9039 61.5555 69.4476 60.642 68.6912 59.7724C67.9312 58.8988 66.5535 57.603 65.0829 56.4862C64.3479 55.9281 63.5916 55.4161 62.8794 55.0243C62.1655 54.6317 61.503 54.3638 60.9541 54.2869C59.8276 54.1292 56.2336 53.9884 52.9124 53.8871C51.2537 53.8366 49.6658 53.7959 48.4926 53.7679C47.9059 53.7539 47.423 53.743 47.0867 53.7357L46.6977 53.7273L46.6039 53.7254Z" fill="white" stroke="#231F20" stroke-width="0.2"/>
<path d="M94.6617 54.6239C94.5247 59.1083 93.8342 63.7163 93.0571 65.7449C91.6746 69.3497 89.3065 72.5883 87.9052 71.6525C87.4204 71.3283 87.4629 70.4827 87.7257 69.5146C89.4934 68.6026 90.7009 66.7589 90.7009 64.6323C90.7009 61.5999 88.2439 59.1412 85.2137 59.1412C82.1835 59.1412 79.8262 61.5013 79.7288 64.4492C76.9501 63.8988 79.0854 59.7766 80.1553 57.0781C81.3181 54.1506 81.2286 52.8271 81.2286 52.8271L94.6612 54.6244L94.6617 54.6239Z" fill="white"/>
<path d="M88.4399 71.9408C88.2224 71.9408 88.0202 71.879 87.8362 71.7565C87.3598 71.438 87.2822 70.6723 87.6056 69.482C87.6147 69.448 87.6379 69.4197 87.6691 69.4038C89.4628 68.4788 90.5769 66.6503 90.5769 64.6326C90.5769 61.6733 88.1715 59.2662 85.2143 59.2662C82.2572 59.2662 79.9503 61.5447 79.854 64.4534C79.8529 64.4897 79.8353 64.5243 79.807 64.547C79.7781 64.5696 79.7413 64.5787 79.705 64.5719C79.1149 64.4551 78.6969 64.1729 78.4624 63.7336C77.7821 62.4566 78.7563 60.1226 79.6161 58.0634C79.7673 57.7007 79.9106 57.3578 80.0398 57.0324C81.1748 54.1758 81.1052 52.8484 81.1046 52.8354C81.1001 52.7668 81.1522 52.7073 81.2207 52.7027C81.2887 52.6959 81.3487 52.7498 81.3532 52.8184C81.3572 52.8733 81.4314 54.2036 80.2714 57.1243C80.1417 57.4519 79.9979 57.7953 79.8461 58.1592C79.0492 60.0676 78.0574 62.443 78.6827 63.6157C78.8639 63.9558 79.1687 64.1791 79.6116 64.2942C79.7866 61.3225 82.2192 59.0162 85.2138 59.0162C88.2083 59.0162 90.8256 61.5356 90.8256 64.632C90.8256 66.7251 89.6798 68.6233 87.8316 69.5993C87.5592 70.6303 87.6085 71.3037 87.9744 71.5485C88.2077 71.7044 88.4711 71.7322 88.7786 71.6341C90.0236 71.2379 91.7737 68.7424 92.9405 65.6998C93.7323 63.6322 94.4035 58.972 94.5366 54.6202C94.5388 54.5516 94.5921 54.4955 94.6651 54.4995C94.7337 54.5017 94.7881 54.559 94.7858 54.6281C94.6521 59.0049 93.9736 63.699 93.1733 65.7894C92.1827 68.3722 90.4087 71.3774 88.8545 71.8722C88.7107 71.9181 88.5725 71.9408 88.4394 71.9408H88.4399Z" fill="#231F20"/>
<path d="M90.7016 64.6318C90.7016 66.7584 89.4935 68.6021 87.7263 69.5141C86.9736 69.9018 86.1195 70.1217 85.2144 70.1217C82.1842 70.1217 79.7272 67.6641 79.7272 64.6318C79.7272 64.5706 79.7283 64.5093 79.7294 64.4481C79.8269 61.5003 82.2448 59.1401 85.2144 59.1401C88.184 59.1401 90.7016 61.5989 90.7016 64.6312V64.6318Z" fill="#EF4444"/>
<path d="M85.2143 69.0732C82.7669 69.0732 80.7761 67.0809 80.7761 64.6318C80.7761 62.1827 82.7669 60.1904 85.2143 60.1904C87.6617 60.1904 89.6526 62.1827 89.6526 64.6318C89.6526 67.0809 87.6617 69.0732 85.2143 69.0732ZM85.2143 60.4398C82.9046 60.4398 81.0253 62.3204 81.0253 64.6318C81.0253 66.9432 82.9046 68.8238 85.2143 68.8238C87.5241 68.8238 89.4034 66.9432 89.4034 64.6318C89.4034 62.3204 87.5241 60.4398 85.2143 60.4398Z" fill="white"/>
<path d="M85.5514 67.8486C85.5072 67.8486 85.4641 67.8248 85.4415 67.7829C85.425 67.7523 85.0382 67.0154 85.2364 65.8337C85.2478 65.7657 85.3112 65.7203 85.3803 65.7311C85.4483 65.7424 85.4941 65.807 85.4828 65.875C85.2993 66.9667 85.6578 67.6582 85.6612 67.665C85.6935 67.7256 85.6709 67.801 85.6103 67.8339C85.5916 67.8441 85.5712 67.8486 85.5514 67.8486Z" fill="white"/>
<path d="M82.7432 61.9517C82.7432 61.9517 85.416 63.1963 85.1934 65.3751C85.1934 65.3751 82.5976 66.0082 82.7432 61.9517Z" fill="white"/>
<path d="M85.1928 65.4997C85.1594 65.4997 85.126 65.4861 85.1017 65.4601C84.4407 64.7459 83.7655 63.8906 83.1504 62.9854C83.1119 62.9288 83.1266 62.8511 83.1833 62.812C83.2399 62.7735 83.3175 62.7882 83.3566 62.8449C83.9649 63.7398 84.6321 64.5855 85.2846 65.29C85.3316 65.3405 85.3282 65.4193 85.2778 65.4663C85.254 65.4884 85.2234 65.4997 85.1928 65.4997Z" fill="#EF4444"/>
<path d="M88.0729 63.6978C88.0729 63.6978 85.9087 63.8536 85.4658 65.5846C85.4658 65.5846 87.2245 66.6349 88.0729 63.6978Z" fill="white"/>
<path d="M85.493 65.712C85.4472 65.712 85.403 65.6865 85.3815 65.6429C85.3509 65.5811 85.3758 65.5063 85.4375 65.4757C86.1144 65.139 86.7527 64.7235 87.3344 64.2401C87.3876 64.1964 87.4658 64.2032 87.51 64.2565C87.5541 64.3098 87.5468 64.388 87.4935 64.4322C86.8971 64.9276 86.2429 65.3538 85.5486 65.699C85.531 65.7081 85.5117 65.712 85.493 65.712Z" fill="#EF4444"/>
<path d="M56.1834 27.1883L60.0305 31.8053L58.2804 33.2426L57.9566 33.5085H58.2981C58.3095 33.5254 58.3229 33.5456 58.3379 33.5689C58.3895 33.6489 58.4604 33.7656 58.5364 33.9104C58.6888 34.2011 58.8589 34.6002 58.9368 35.0418C59.0147 35.4826 58.9996 35.9591 58.7903 36.4128C58.5817 36.865 58.1726 37.3108 57.4327 37.6786C56.7157 38.0351 55.8643 38.0101 54.9908 37.6996C54.1175 37.389 53.235 36.7967 52.4731 36.0417C50.9408 34.5231 49.9445 32.3993 50.4225 30.663C50.7015 29.6498 51.5519 29.0312 52.3618 28.6629C52.7643 28.4799 53.1496 28.3622 53.4346 28.2903C53.5769 28.2544 53.6936 28.23 53.7744 28.2147C53.8148 28.207 53.8462 28.2016 53.8672 28.1982L53.8907 28.1944L53.8964 28.1936L53.8976 28.1934L53.8978 28.1934L53.8978 28.1934L53.8978 28.1934L53.9184 28.1905L53.9375 28.182L56.1834 27.1883Z" fill="white" stroke="#231F20" stroke-width="0.3"/>
<path d="M56.8372 34.5111C56.797 34.5111 56.7574 34.4918 56.7336 34.4556C56.6957 34.3983 56.7109 34.3207 56.7681 34.2827L57.9343 33.5045C57.9916 33.466 58.0692 33.4818 58.1071 33.5391C58.145 33.5963 58.1298 33.674 58.0726 33.7119L56.9064 34.4901C56.8848 34.5043 56.861 34.5111 56.8372 34.5111Z" fill="#231F20"/>
<path d="M52.2778 18.9569C52.5882 18.1554 53.1569 17.4294 53.9328 17.0604C54.7088 16.6914 55.6988 16.7322 56.3683 17.2712C57.4331 16.162 58.6826 15.1871 60.1371 14.6912C61.5921 14.1953 63.2754 14.2287 64.5895 15.0267C65.8633 15.7998 66.6642 17.2145 66.9224 18.6825C67.2221 20.384 66.808 22.2465 65.6384 23.5178C64.4688 24.7886 62.5125 25.3497 60.9164 24.6917C60.7975 25.2851 60.3784 25.7861 59.8754 26.1222C59.3719 26.4583 58.7874 26.6488 58.2045 26.8115C57.2779 27.0699 56.3349 27.2666 55.3822 27.4004C54.8334 27.4774 53.96 27.5948 53.4905 27.2054C53.1523 26.9248 52.9773 26.1772 52.8153 25.7805C52.2602 24.4213 51.9521 22.9612 51.9159 21.4933C51.8944 20.6334 51.968 19.7583 52.2784 18.9563L52.2778 18.9569Z" fill="#231F20"/>
<path d="M55.321 27.1112C55.321 27.1112 56.6157 26.1381 56.5149 23.6549C56.5149 23.6549 58.5602 21.2415 62.1143 20.9219C62.1143 20.9219 65.0442 27.2954 64.6523 30.2739C64.2603 33.2518 59.9603 35.8239 55.3204 30.4525C55.3204 30.4525 52.1475 30.7704 51.414 28.2193C50.6805 25.6682 53.4893 24.712 55.3204 27.1112H55.321Z" fill="white"/>
<path d="M60.7421 33.7013C59.385 33.7013 57.4548 33.0926 55.2679 30.5811C54.8001 30.6083 51.9891 30.6667 51.2952 28.2539C50.9775 27.1492 51.2845 26.2083 52.0967 25.7991C52.9038 25.3927 54.249 25.5809 55.3376 26.9298C55.6225 26.6527 56.4721 25.654 56.3911 23.66C56.3899 23.6289 56.4001 23.5982 56.4205 23.5744C56.4415 23.5501 58.54 21.1185 62.1037 20.7977C62.157 20.7938 62.2062 20.8221 62.2283 20.8697C62.3484 21.1316 65.169 27.3107 64.7765 30.2898C64.58 31.7804 63.4523 33.0807 61.9706 33.5245C61.6455 33.6219 61.2309 33.7007 60.7421 33.7007V33.7013ZM55.3212 30.3278C55.3574 30.3278 55.3914 30.3436 55.4152 30.3708C58.3157 33.7285 60.7223 33.6378 61.8987 33.2858C63.288 32.8693 64.3455 31.6524 64.529 30.2575C64.8881 27.5278 62.3727 21.8021 62.0374 21.0545C58.8594 21.3742 56.9082 23.4067 56.6414 23.7008C56.7241 26.1834 55.4503 27.1702 55.3959 27.2115C55.341 27.2523 55.2634 27.2421 55.222 27.1877C54.2059 25.8563 52.948 25.6506 52.2088 26.023C51.5105 26.375 51.2522 27.2036 51.5348 28.1859C52.2315 30.6089 55.2781 30.3323 55.3093 30.3295C55.3132 30.3295 55.3178 30.3289 55.3217 30.3289L55.3212 30.3278Z" fill="#231F20"/>
<path d="M54.9303 29.1568C54.8957 29.1568 54.8618 29.1426 54.8368 29.1149C54.399 28.6206 53.772 28.2896 53.1173 28.2063C53.0487 28.1978 53.0006 28.1349 53.0091 28.0669C53.0176 27.9983 53.081 27.9495 53.1484 27.9586C53.8626 28.0493 54.5457 28.4103 55.0232 28.9494C55.0691 29.0009 55.064 29.0797 55.0124 29.1256C54.9886 29.1466 54.9592 29.1568 54.9297 29.1568H54.9303Z" fill="#231F20"/>
<path d="M27.2849 67.3152C32.3079 62.2887 32.3078 54.1391 27.2848 49.1125C22.2618 44.086 14.118 44.086 9.09495 49.1125C4.07195 54.1391 4.07195 62.2887 9.09495 67.3152C14.118 72.3418 22.2618 72.3418 27.2849 67.3152Z" fill="white"/>
<path d="M18.2039 71.2168C16.8479 71.2168 15.4863 71.002 14.1604 70.5684C7.35294 68.3443 3.62269 60.993 5.84521 54.1808C8.06773 47.3685 15.4138 43.6356 22.2213 45.8597C25.5188 46.9372 28.2001 49.2349 29.7707 52.3302C31.3414 55.4254 31.6132 58.9475 30.5371 62.2473C29.4604 65.5472 27.1642 68.2304 24.0711 69.8021C22.2219 70.7418 20.2202 71.2168 18.2045 71.2168H18.2039ZM18.1994 45.4663C12.8356 45.4663 7.83438 48.8858 6.08139 54.2584C3.90192 60.9397 7.56025 68.1505 14.2374 70.3315C17.4715 71.388 20.9237 71.121 23.9573 69.5793C26.9909 68.0377 29.2429 65.4061 30.2992 62.1697C31.3549 58.9333 31.0882 55.4787 29.5476 52.443C28.007 49.4072 25.3778 47.1537 22.1431 46.0966C20.8353 45.6693 19.506 45.4663 18.1994 45.4663Z" fill="#231F20"/>
<path d="M18.1905 68.3332C23.7754 68.3332 28.3029 63.8026 28.3029 58.2137C28.3029 52.6249 23.7754 48.0942 18.1905 48.0942C12.6056 48.0942 8.07812 52.6249 8.07812 58.2137C8.07812 63.8026 12.6056 68.3332 18.1905 68.3332Z" fill="white"/>
<path d="M18.2011 68.4633C17.1323 68.4633 16.059 68.2939 15.0134 67.9527C9.64745 66.1996 6.70731 60.4047 8.45859 55.0349C10.2104 49.6652 16.0012 46.7224 21.3672 48.4755C23.9664 49.3245 26.0802 51.136 27.3177 53.576C28.5559 56.016 28.77 58.7922 27.9215 61.3932C27.0731 63.9942 25.2629 66.1095 22.8246 67.3479C21.3672 68.0887 19.7887 68.4633 18.2005 68.4633H18.2011ZM18.1977 48.2187C13.9922 48.2187 10.07 50.9002 8.69591 55.1126C7.86784 57.6507 8.07741 60.3588 9.28496 62.7393C10.4931 65.1198 12.5547 66.8871 15.091 67.7152C17.6268 68.5433 20.3336 68.3341 22.7124 67.1257C25.0913 65.9168 26.8573 63.8536 27.6848 61.3155C28.5128 58.7775 28.3033 56.0693 27.0957 53.6888C25.8882 51.3083 23.8259 49.541 21.2896 48.7129C20.2639 48.378 19.2223 48.2187 18.1971 48.2187H18.1977Z" fill="#231F20"/>
<path d="M15.082 65.6081L15.692 63.7383C14.6255 63.3693 13.6241 62.6733 13.1274 61.9988L13.9758 60.9038C14.4969 61.5658 15.3442 62.2318 16.3802 62.5701C17.6936 62.9992 18.8292 62.5305 19.173 61.4751C19.505 60.4571 18.989 59.5917 17.8012 58.5896C16.1559 57.2327 15.2683 56.0005 15.7934 54.3896C16.2946 52.8531 17.7667 52.0431 19.5593 52.322L20.1693 50.4521L21.3163 50.8268L20.7306 52.6224C21.8283 53.022 22.4904 53.5661 22.9243 54.0558L22.0628 55.1265C21.7467 54.7773 21.1214 54.1221 19.9371 53.7356C18.5126 53.2702 17.6987 53.9464 17.4569 54.6872C17.1431 55.6496 17.6704 56.3547 19.062 57.5467C20.7136 58.9466 21.3622 60.2236 20.8247 61.8713C20.3477 63.3336 18.8831 64.3714 16.8752 64.0636L16.2471 65.989L15.0814 65.6081H15.082Z" fill="white"/>
<path d="M58.7441 67.0908H24.0611C23.4868 67.0908 23.0212 67.5567 23.0212 68.1314V73.2633C23.0212 73.838 23.4868 74.3039 24.0611 74.3039H58.7441C59.3184 74.3039 59.784 73.838 59.784 73.2633V68.1314C59.784 67.5567 59.3184 67.0908 58.7441 67.0908Z" fill="white"/>
<path d="M58.7442 74.4493H24.0611C23.4076 74.4493 22.8765 73.9178 22.8765 73.2638V68.1313C22.8765 67.4773 23.4076 66.9458 24.0611 66.9458H58.7442C59.397 66.9458 59.9288 67.4773 59.9288 68.1313V73.2638C59.9288 73.9178 59.3977 74.4493 58.7442 74.4493ZM24.0611 67.2356C23.5675 67.2356 23.1661 67.6373 23.1661 68.1313V73.2638C23.1661 73.7578 23.5675 74.1596 24.0611 74.1596H58.7442C59.2378 74.1596 59.6392 73.7578 59.6392 73.2638V68.1313C59.6392 67.6373 59.2378 67.2356 58.7442 67.2356H24.0611Z" fill="#231F20"/>
<path d="M55.8595 73.2472C55.7792 73.2472 55.7147 73.182 55.7147 73.1024V68.5336C55.7147 68.4532 55.7798 68.3887 55.8595 68.3887C55.9391 68.3887 56.0042 68.4539 56.0042 68.5336V73.1024C56.0042 73.1827 55.9391 73.2472 55.8595 73.2472Z" fill="#231F20"/>
<path d="M53.4013 73.2472C53.321 73.2472 53.2565 73.182 53.2565 73.1024V68.5336C53.2565 68.4532 53.3216 68.3887 53.4013 68.3887C53.4809 68.3887 53.5461 68.4539 53.5461 68.5336V73.1024C53.5461 73.1827 53.4809 73.2472 53.4013 73.2472Z" fill="#231F20"/>
<path d="M48.4843 73.2472C48.404 73.2472 48.3395 73.182 48.3395 73.1024V68.5336C48.3395 68.4532 48.4046 68.3887 48.4843 68.3887C48.5639 68.3887 48.6291 68.4539 48.6291 68.5336V73.1024C48.6291 73.1827 48.5639 73.2472 48.4843 73.2472Z" fill="#231F20"/>
<path d="M41.109 73.2472C41.0287 73.2472 40.9642 73.182 40.9642 73.1024V68.5336C40.9642 68.4532 41.0294 68.3887 41.109 68.3887C41.1887 68.3887 41.2538 68.4539 41.2538 68.5336V73.1024C41.2538 73.1827 41.1887 73.2472 41.109 73.2472Z" fill="#231F20"/>
<path d="M38.651 73.2472C38.5707 73.2472 38.5062 73.182 38.5062 73.1024V68.5336C38.5062 68.4532 38.5714 68.3887 38.651 68.3887C38.7307 68.3887 38.7958 68.4539 38.7958 68.5336V73.1024C38.7958 73.1827 38.7307 73.2472 38.651 73.2472Z" fill="#231F20"/>
<path d="M21.3325 67.1699H56.0155C56.5898 67.1699 57.0554 66.704 57.0554 66.1293V60.9974C57.0554 60.4227 56.5898 59.9568 56.0155 59.9568L21.3325 59.9568C20.7582 59.9568 20.2926 60.4227 20.2926 60.9974V66.1293C20.2926 66.704 20.7582 67.1699 21.3325 67.1699Z" fill="white"/>
<path d="M56.0161 67.3156H21.3331C20.6802 67.3156 20.1484 66.7841 20.1484 66.1301V60.9975C20.1484 60.3435 20.6796 59.812 21.3331 59.812H56.0161C56.669 59.812 57.2008 60.3435 57.2008 60.9975V66.1301C57.2008 66.7841 56.6697 67.3156 56.0161 67.3156ZM21.3331 60.1018C20.8395 60.1018 20.438 60.5036 20.438 60.9975V66.1301C20.438 66.624 20.8395 67.0258 21.3331 67.0258H56.0161C56.5097 67.0258 56.9112 66.624 56.9112 66.1301V60.9975C56.9112 60.5036 56.5097 60.1018 56.0161 60.1018H21.3331Z" fill="#231F20"/>
<path d="M24.2177 65.8727C24.1374 65.8727 24.0729 65.8075 24.0729 65.7278V61.1591C24.0729 61.0787 24.1381 61.0142 24.2177 61.0142C24.2974 61.0142 24.3625 61.0794 24.3625 61.1591V65.7278C24.3625 65.8082 24.2974 65.8727 24.2177 65.8727Z" fill="#231F20"/>
<path d="M26.676 65.8727C26.5957 65.8727 26.5312 65.8075 26.5312 65.7278V61.1591C26.5312 61.0787 26.5963 61.0142 26.676 61.0142C26.7556 61.0142 26.8208 61.0794 26.8208 61.1591V65.7278C26.8208 65.8082 26.7556 65.8727 26.676 65.8727Z" fill="#231F20"/>
<path d="M31.593 65.8727C31.5127 65.8727 31.4482 65.8075 31.4482 65.7278V61.1591C31.4482 61.0787 31.5133 61.0142 31.593 61.0142C31.6726 61.0142 31.7378 61.0794 31.7378 61.1591V65.7278C31.7378 65.8082 31.6726 65.8727 31.593 65.8727Z" fill="#231F20"/>
<path d="M38.9681 65.8727C38.8878 65.8727 38.8233 65.8075 38.8233 65.7278V61.1591C38.8233 61.0787 38.8885 61.0142 38.9681 61.0142C39.0477 61.0142 39.1129 61.0794 39.1129 61.1591V65.7278C39.1129 65.8082 39.0477 65.8727 38.9681 65.8727Z" fill="#231F20"/>
<path d="M41.4263 65.8727C41.3461 65.8727 41.2816 65.8075 41.2816 65.7278V61.1591C41.2816 61.0787 41.3467 61.0142 41.4263 61.0142C41.506 61.0142 41.5711 61.0794 41.5711 61.1591V65.7278C41.5711 65.8082 41.506 65.8727 41.4263 65.8727Z" fill="#231F20"/>
<path d="M105.343 46.1844C105.343 46.1844 122.988 45.1834 122.245 59.0602C122.245 59.0602 111.109 65.3963 105.343 46.1844Z" fill="#EF4444"/>
<path d="M123.856 66.6337C123.788 66.6337 123.732 66.5787 123.731 66.5107C123.696 63.6756 123.146 61.1948 122.095 59.1379C122.064 59.0767 122.088 59.0013 122.15 58.9701C122.211 58.9389 122.286 58.9633 122.317 59.0245C123.385 61.1165 123.944 63.6342 123.98 66.5079C123.981 66.577 123.926 66.6331 123.857 66.6343H123.856V66.6337Z" fill="#231F20"/>
<path d="M122.207 59.2055C122.161 59.2055 122.118 59.1806 122.096 59.1375C119.703 54.4524 115.463 53.4826 115.42 53.4736C115.353 53.4588 115.31 53.3925 115.325 53.3251C115.34 53.2576 115.407 53.2151 115.473 53.2293C115.517 53.2389 119.869 54.2291 122.318 59.0236C122.349 59.0848 122.325 59.1602 122.263 59.1914C122.245 59.2004 122.226 59.205 122.207 59.205V59.2055Z" fill="white"/>
<path d="M139.86 37.124C139.86 37.124 122.705 41.3761 127.506 54.4163C127.506 54.4163 140.014 57.1833 139.86 37.124Z" fill="#EF4444"/>
<path d="M127.434 54.5106C127.418 54.5106 127.401 54.5072 127.385 54.5004C127.322 54.4732 127.293 54.4 127.32 54.3366C129.077 50.2024 131.557 46.771 134.69 44.1366C134.743 44.0924 134.822 44.0992 134.866 44.1519C134.91 44.2046 134.903 44.2834 134.851 44.3276C131.748 46.936 129.291 50.3367 127.549 54.4341C127.529 54.4817 127.483 54.51 127.434 54.51V54.5106Z" fill="white"/>
<path d="M124.726 66.5049H124.726C124.657 66.5049 124.602 66.4482 124.602 66.3796C124.602 66.3224 124.664 60.5842 127.32 54.3376C127.347 54.2741 127.42 54.2446 127.483 54.2719C127.547 54.2991 127.576 54.3722 127.549 54.4357C124.914 60.6341 124.851 66.3247 124.851 66.3813C124.851 66.4499 124.795 66.5055 124.726 66.5055V66.5049Z" fill="#231F20"/>
<path d="M123.416 65.1359H123.416H123.416H123.416H123.416H123.416H123.416H123.416H123.416H123.417H123.417H123.417H123.417H123.417H123.417H123.417H123.417H123.417H123.417H123.417H123.417H123.417H123.417H123.417H123.417H123.417H123.417H123.417H123.417H123.417H123.417H123.417H123.417H123.417H123.417H123.417H123.417H123.417H123.417H123.417H123.417H123.417H123.417H123.417H123.417H123.417H123.417H123.417H123.417H123.417H123.417H123.417H123.417H123.418H123.418H123.418H123.418H123.418H123.418H123.418H123.418H123.418H123.418H123.418H123.418H123.418H123.418H123.418H123.418H123.418H123.418H123.418H123.418H123.418H123.418H123.418H123.418H123.418H123.418H123.418H123.418H123.418H123.418H123.418H123.418H123.418H123.418H123.418H123.418H123.418H123.418H123.418H123.418H123.418H123.418H123.418H123.418H123.419H123.419H123.419H123.419H123.419H123.419H123.419H123.419H123.419H123.419H123.419H123.419H123.419H123.419H123.419H123.419H123.419H123.419H123.419H123.419H123.419H123.419H123.419H123.419H123.419H123.419H123.419H123.419H123.419H123.419H123.419H123.419H123.419H123.419H123.419H123.419H123.419H123.419H123.419H123.419H123.419H123.419H123.419H123.419H123.419H123.419H123.42H123.42H123.42H123.42H123.42H123.42H123.42H123.42H123.42H123.42H123.42H123.42H123.42H123.42H123.42H123.42H123.42H123.42H123.42H123.42H123.42H123.42H123.42H123.42H123.42H123.42H123.42H123.42H123.42H123.42H123.42H123.42H123.42H123.42H123.42H123.42H123.42H123.42H123.42H123.42H123.42H123.42H123.42H123.42H123.42H123.42H123.421H123.421H123.421H123.421H123.421H123.421H123.421H123.421H123.421H123.421H123.421H123.421H123.421H123.421H123.421H123.421H123.421H123.421H123.421H123.421H123.421H123.421H123.421H123.421H123.421H123.421H123.421H123.421H123.421H123.421H123.421H123.421H123.421H123.421H123.421H123.421H123.421H123.421H123.421H123.421H123.421H123.421H123.421H123.421H123.421H123.421H123.422H123.422H123.422H123.422H123.422H123.422H123.422H123.422H123.422H123.422H123.422H123.422H123.422H123.422H123.422H123.422H123.422H123.422H123.422H123.422H123.422H123.422H123.422H123.422H123.422H123.422H123.422H123.422H123.422H123.422H123.422H123.422H123.422H123.422H123.422H123.422H123.422H123.422H123.422H123.422H123.422H123.422H123.422H123.422H123.422H123.422H123.423H123.423H123.423H123.423H123.423H123.423H123.423H123.423H123.423H123.423H123.423H123.423H123.423H123.423H123.423H123.423H123.423H123.423H123.423H123.423H123.423H123.423H123.423H123.423H123.423H123.423H123.423H123.423H123.423H123.423H123.423H123.423H123.423H123.423H123.423H123.423H123.423H123.423H123.423H123.423H123.423H123.423H123.423H123.423H123.423H123.423H123.424H123.424H123.424H123.424H123.424H123.424H123.424H123.424H123.424H123.424H123.424H123.424H123.424H123.424H123.424H123.424H123.424H123.424H123.424H123.424H123.424H123.424H123.424H123.424H123.424H123.424H123.424H123.424H123.424H123.424H123.424H123.424H123.424H123.424H123.424H123.424H123.424H123.424H123.424H123.424H123.424H123.424H123.424H123.424H123.424H123.424H123.425H123.425H123.425H123.425H123.425H123.425H123.425H123.425H123.425H123.425H123.425H123.425H123.425H123.425H123.425H123.425H123.425H123.425H123.425H123.425H123.425H123.425H123.425H123.425H123.425H123.425H123.425H123.425H123.425H123.425H123.425H123.425H123.425H123.425H123.425H123.425H123.425H123.425H123.425H123.425H123.425H123.425H123.425H123.425H123.425H123.426H123.426H123.426H123.426H123.426H123.426H123.426H123.426H123.426H123.426H123.426H123.426H123.426H123.426H123.426H123.426H123.426H123.426H123.426H123.426H123.426H123.426H123.426H123.426H123.426H123.426H123.426H123.426H123.426H123.426H123.426H123.426H123.426H123.426H123.426H123.426H123.426H123.426H123.426H123.426H123.426H123.426H123.426H123.426H123.426H123.427H123.427H123.427H123.427H123.427H123.427H123.427H123.427H123.427H123.427H123.427H123.427H123.427H123.427H123.427H123.427H123.427H123.427H123.427H123.427H123.427H123.427H123.427H123.427H123.427H123.427H123.427H123.427H123.427H123.427H123.427H123.427H123.427H123.427H123.427H123.427H123.427H123.427H123.427H123.427H123.427H123.427H123.427H123.427H123.428H123.428H123.428H123.428H123.428H123.428C126.851 65.1359 130.171 66.5265 133.596 68.7215C136.812 70.783 140.115 73.5508 143.676 76.5351C143.872 76.6994 144.069 76.8643 144.266 77.0298H102.566C102.764 76.8642 102.961 76.6991 103.157 76.5347C106.718 73.5508 110.02 70.7832 113.236 68.7217C116.661 66.5266 119.982 65.1359 123.405 65.1359H123.405H123.405H123.405H123.405H123.405H123.405H123.405H123.405H123.405H123.405H123.405H123.405H123.405H123.405H123.405H123.405H123.405H123.405H123.405H123.405H123.405H123.405H123.406H123.406H123.406H123.406H123.406H123.406H123.406H123.406H123.406H123.406H123.406H123.406H123.406H123.406H123.406H123.406H123.406H123.406H123.406H123.406H123.406H123.406H123.406H123.406H123.406H123.406H123.406H123.406H123.406H123.406H123.406H123.406H123.406H123.406H123.406H123.406H123.406H123.406H123.406H123.406H123.406H123.406H123.406H123.406H123.407H123.407H123.407H123.407H123.407H123.407H123.407H123.407H123.407H123.407H123.407H123.407H123.407H123.407H123.407H123.407H123.407H123.407H123.407H123.407H123.407H123.407H123.407H123.407H123.407H123.407H123.407H123.407H123.407H123.407H123.407H123.407H123.407H123.407H123.407H123.407H123.407H123.407H123.407H123.407H123.407H123.407H123.407H123.407H123.407H123.408H123.408H123.408H123.408H123.408H123.408H123.408H123.408H123.408H123.408H123.408H123.408H123.408H123.408H123.408H123.408H123.408H123.408H123.408H123.408H123.408H123.408H123.408H123.408H123.408H123.408H123.408H123.408H123.408H123.408H123.408H123.408H123.408H123.408H123.408H123.408H123.408H123.408H123.408H123.408H123.408H123.408H123.408H123.408H123.408H123.408H123.409H123.409H123.409H123.409H123.409H123.409H123.409H123.409H123.409H123.409H123.409H123.409H123.409H123.409H123.409H123.409H123.409H123.409H123.409H123.409H123.409H123.409H123.409H123.409H123.409H123.409H123.409H123.409H123.409H123.409H123.409H123.409H123.409H123.409H123.409H123.409H123.409H123.409H123.409H123.409H123.409H123.409H123.409H123.409H123.409H123.409H123.41H123.41H123.41H123.41H123.41H123.41H123.41H123.41H123.41H123.41H123.41H123.41H123.41H123.41H123.41H123.41H123.41H123.41H123.41H123.41H123.41H123.41H123.41H123.41H123.41H123.41H123.41H123.41H123.41H123.41H123.41H123.41H123.41H123.41H123.41H123.41H123.41H123.41H123.41H123.41H123.41H123.41H123.41H123.41H123.41H123.41H123.411H123.411H123.411H123.411H123.411H123.411H123.411H123.411H123.411H123.411H123.411H123.411H123.411H123.411H123.411H123.411H123.411H123.411H123.411H123.411H123.411H123.411H123.411H123.411H123.411H123.411H123.411H123.411H123.411H123.411H123.411H123.411H123.411H123.411H123.411H123.411H123.411H123.411H123.411H123.411H123.411H123.411H123.411H123.411H123.411H123.411H123.412H123.412H123.412H123.412H123.412H123.412H123.412H123.412H123.412H123.412H123.412H123.412H123.412H123.412H123.412H123.412H123.412H123.412H123.412H123.412H123.412H123.412H123.412H123.412H123.412H123.412H123.412H123.412H123.412H123.412H123.412H123.412H123.412H123.412H123.412H123.412H123.412H123.412H123.412H123.412H123.412H123.412H123.412H123.412H123.412H123.412H123.412H123.413H123.413H123.413H123.413H123.413H123.413H123.413H123.413H123.413H123.413H123.413H123.413H123.413H123.413H123.413H123.413H123.413H123.413H123.413H123.413H123.413H123.413H123.413H123.413H123.413H123.413H123.413H123.413H123.413H123.413H123.413H123.413H123.413H123.413H123.413H123.413H123.413H123.413H123.413H123.413H123.413H123.413H123.413H123.413H123.413H123.414H123.414H123.414H123.414H123.414H123.414H123.414H123.414H123.414H123.414H123.414H123.414H123.414H123.414H123.414H123.414H123.414H123.414H123.414H123.414H123.414H123.414H123.414H123.414H123.414H123.414H123.414H123.414H123.414H123.414H123.414H123.414H123.414H123.414H123.414H123.414H123.414H123.414H123.414H123.414H123.414H123.414H123.414H123.414H123.414H123.415H123.415H123.415H123.415H123.415H123.415H123.415H123.415H123.415H123.415H123.415H123.415H123.415H123.415H123.415H123.415H123.415H123.415H123.415H123.415H123.415H123.415H123.415H123.415H123.415H123.415H123.415H123.415H123.415H123.415H123.415H123.415H123.415H123.415H123.415H123.415H123.415H123.415H123.415H123.415H123.415H123.415H123.415H123.415H123.415H123.416H123.416H123.416H123.416H123.416H123.416H123.416H123.416H123.416H123.416H123.416H123.416H123.416H123.416H123.416H123.416H123.416H123.416H123.416H123.416H123.416H123.416H123.416H123.416H123.416H123.416H123.416H123.416H123.416H123.416H123.416H123.416H123.416H123.416H123.416Z" fill="#FCE3E7" stroke="#231F20" stroke-width="0.1"/>
<path d="M16.9848 54.8657L21.5934 56.0111" stroke="#EF4444" stroke-width="0.5" stroke-linecap="round"/>
<path d="M16.494 56.8403L21.1026 57.9857" stroke="#EF4444" stroke-width="0.5" stroke-linecap="round"/>
<path d="M15.8088 58.7676L18.941 63.0413" stroke="#EF4444" stroke-width="0.5" stroke-linecap="round"/>
<path d="M17.2841 54.9401L18.3016 55.193C19.3924 55.4641 20.0569 56.5681 19.7858 57.659V57.659C19.5147 58.7498 18.4106 59.4143 17.3198 59.1432L16.003 58.816" stroke="#EF4444" stroke-width="0.5" stroke-linecap="round"/>
</svg>
