<svg width="230" height="159" viewBox="0 0 230 159" fill="none" xmlns="http://www.w3.org/2000/svg">
<path fill-rule="evenodd" clip-rule="evenodd" d="M171.943 158.741L170.838 60.625C170.838 60.625 165.332 64.7212 161.818 67.342C159.973 68.7173 158.748 70.7795 158.433 73.0716C157.712 78.1335 156.459 87.4508 156.045 93.6991C155.048 108.507 158.186 149.932 158.837 158.253C158.857 158.422 158.887 158.592 158.945 158.741H171.942H171.943Z" fill="white"/>
<path d="M171.943 158.988H158.947C158.846 158.988 158.756 158.927 158.719 158.833C158.644 158.644 158.613 158.44 158.594 158.282C157.952 150.081 154.805 108.47 155.801 93.6823C156.218 87.4032 157.477 78.0512 158.191 73.0368C158.513 70.7011 159.782 68.5515 161.673 67.1429C165.185 64.5221 170.693 60.4259 170.693 60.4259C170.767 60.3706 170.866 60.3617 170.947 60.404C171.03 60.4451 171.082 60.5299 171.084 60.6236L172.189 158.739C172.189 158.806 172.164 158.869 172.117 158.916C172.072 158.964 172.008 158.99 171.943 158.99V158.988ZM159.126 158.493H171.695L170.598 61.1116C169.287 62.0862 164.92 65.3362 161.963 67.541C160.178 68.8713 158.98 70.9001 158.676 73.1062C157.962 78.1154 156.705 87.452 156.29 93.7157C155.297 108.469 158.442 150.047 159.083 158.233C159.092 158.308 159.104 158.4 159.127 158.493H159.126Z" fill="#231F20"/>
<path d="M177.85 62.4198L177.85 62.4199L177.856 62.4182L186.116 60.1118C187.86 60.9574 189.583 62.75 191.268 65.3106C192.968 67.8926 194.619 71.2395 196.211 75.1416C199.393 82.9455 202.327 92.9516 204.922 103.457C210.085 124.36 213.901 147.219 215.662 158.589H164.342C163.514 142.918 161.319 100.234 161.516 91.6236L161.517 91.6236C161.752 81.0672 164.607 74.3975 167.382 69.552L167.382 69.552C168.922 66.8629 171.533 65.0788 173.771 63.9653C174.889 63.4094 175.91 63.0226 176.652 62.7749C177.022 62.6511 177.323 62.5621 177.53 62.5042C177.634 62.4752 177.714 62.454 177.769 62.4401C177.796 62.4331 177.816 62.428 177.83 62.4246L177.845 62.4209L177.849 62.42L177.85 62.4198L177.85 62.4198Z" fill="white" stroke="#231F20" stroke-width="0.3"/>
<path fill-rule="evenodd" clip-rule="evenodd" d="M136.755 67.789C136.755 65.6394 135.027 63.9033 132.898 63.9033H48.6997C46.5798 63.9033 44.8516 65.6394 44.8516 67.789V119.416C44.8516 121.565 46.5798 123.31 48.6997 123.31H132.897C135.026 123.31 136.754 121.565 136.754 119.416V67.789H136.755Z" fill="white"/>
<path d="M132.898 123.558H48.7C46.4427 123.558 44.6064 121.7 44.6064 119.415V67.7887C44.6064 65.5095 46.4427 63.6553 48.7 63.6553H132.898C135.16 63.6553 137 65.5095 137 67.7887V119.415C137 121.7 135.16 123.558 132.898 123.558ZM48.7 64.1496C46.7136 64.1496 45.0973 65.7817 45.0973 67.7875V119.414C45.0973 121.425 46.7136 123.061 48.7 123.061H132.898C134.889 123.061 136.509 121.425 136.509 119.414V67.7875C136.509 65.7817 134.889 64.1496 132.898 64.1496H48.7Z" fill="#231F20"/>
<path d="M111.837 47.453C111.756 47.453 111.677 47.4119 111.63 47.3374L105.087 36.9376C105.015 36.8221 105.048 36.6692 105.162 36.5961C105.277 36.5229 105.428 36.5575 105.5 36.6718L112.043 47.0716C112.116 47.1872 112.083 47.34 111.968 47.4132C111.928 47.4389 111.882 47.4517 111.837 47.4517V47.453Z" fill="#231F20"/>
<path d="M180.497 38.9075C180.459 38.9075 180.421 38.8985 180.384 38.8792C180.263 38.8163 180.217 38.6661 180.28 38.5454L183.243 32.7863C183.305 32.6643 183.453 32.6168 183.573 32.681C183.694 32.7439 183.74 32.8941 183.678 33.0148L180.715 38.7739C180.671 38.8587 180.585 38.9075 180.496 38.9075H180.497Z" fill="#231F20"/>
<path d="M121.604 112.525C122.554 112.525 123.454 112.903 124.129 113.578C124.794 114.252 125.172 115.167 125.172 116.125V137.562C125.172 138.516 124.794 139.431 124.129 140.105C123.454 140.78 122.553 141.162 121.604 141.162H40.4429C39.5003 141.162 38.5926 140.78 37.9275 140.106C37.262 139.432 36.8834 138.517 36.8834 137.562V116.125C36.8834 115.166 37.262 114.251 37.9275 113.577C38.5923 112.903 39.5012 112.525 40.4429 112.525H121.604Z" fill="white" stroke="#231F20" stroke-width="0.3"/>
<path d="M76.5751 53.4023H67.405C66.1766 53.4023 65.1758 52.393 65.1758 51.1513V41.8918C65.1758 40.6514 66.1753 39.6421 67.405 39.6421H76.5751C77.8035 39.6421 78.8043 40.6514 78.8043 41.8918V51.1513C78.8043 52.3918 77.8048 53.4023 76.5751 53.4023ZM67.405 40.1377C66.4462 40.1377 65.6666 40.9249 65.6666 41.8931V51.1526C65.6666 52.1208 66.4462 52.908 67.405 52.908H76.5751C77.5339 52.908 78.3134 52.1208 78.3134 51.1526V41.8931C78.3134 40.9249 77.5339 40.1377 76.5751 40.1377H67.405Z" fill="#231F20"/>
<path d="M93.8491 56.1345H88.1685C87.4119 56.1345 86.7964 55.513 86.7964 54.749V49.013C86.7964 48.2489 87.4119 47.6274 88.1685 47.6274H93.8491C94.6057 47.6274 95.2212 48.2489 95.2212 49.013V54.749C95.2212 55.513 94.6057 56.1345 93.8491 56.1345ZM88.1685 48.1231C87.6827 48.1231 87.2873 48.5224 87.2873 49.013V54.749C87.2873 55.2395 87.6827 55.6388 88.1685 55.6388H93.8491C94.3349 55.6388 94.7304 55.2395 94.7304 54.749V49.013C94.7304 48.5224 94.3349 48.1231 93.8491 48.1231H88.1685Z" fill="#231F20"/>
<path d="M142.83 134.26C141.842 134.26 141.037 133.447 141.037 132.449C141.037 131.451 141.842 130.639 142.83 130.639C143.818 130.639 144.623 131.451 144.623 132.449C144.623 133.447 143.818 134.26 142.83 134.26ZM142.83 131.134C142.113 131.134 141.528 131.724 141.528 132.449C141.528 133.175 142.112 133.764 142.83 133.764C143.549 133.764 144.132 133.175 144.132 132.449C144.132 131.724 143.549 131.134 142.83 131.134Z" fill="#231F20"/>
<path d="M200.485 47.4493C199.44 47.4493 198.589 46.5902 198.589 45.5347C198.589 44.4792 199.44 43.6201 200.485 43.6201C201.531 43.6201 202.381 44.4792 202.381 45.5347C202.381 46.5902 201.531 47.4493 200.485 47.4493ZM200.485 44.1158C199.711 44.1158 199.08 44.7527 199.08 45.5347C199.08 46.3167 199.711 46.9536 200.485 46.9536C201.26 46.9536 201.891 46.3167 201.891 45.5347C201.891 44.7527 201.26 44.1158 200.485 44.1158Z" fill="#EF4444"/>
<path d="M90.2577 93.6475H51.6751C51.5391 93.6475 51.4297 93.5371 51.4297 93.3997C51.4297 93.2623 51.5391 93.1519 51.6751 93.1519H90.2577C90.3938 93.1519 90.5032 93.2623 90.5032 93.3997C90.5032 93.5371 90.3938 93.6475 90.2577 93.6475Z" fill="#231F20"/>
<path d="M110.721 102.982H51.6819C51.4556 102.982 51.2725 102.797 51.2725 102.567C51.2725 102.337 51.4556 102.152 51.6819 102.152H110.721C110.947 102.152 111.13 102.337 111.13 102.567C111.13 102.797 110.947 102.982 110.721 102.982Z" fill="#231F20"/>
<path d="M78.158 134.692H44.3963C44.2602 134.692 44.1509 134.582 44.1509 134.445C44.1509 134.307 44.2602 134.197 44.3963 134.197H78.158C78.2941 134.197 78.4034 134.307 78.4034 134.445C78.4034 134.582 78.2941 134.692 78.158 134.692Z" fill="#231F20"/>
<path d="M62.9185 128.051H44.4017C44.2656 128.051 44.1562 127.94 44.1562 127.803C44.1562 127.666 44.2656 127.555 44.4017 127.555H62.9185C63.0546 127.555 63.164 127.666 63.164 127.803C63.164 127.94 63.0546 128.051 62.9185 128.051Z" fill="#231F20"/>
<path d="M118.085 133.8C118.023 133.8 117.959 133.775 117.911 133.727L112.277 128.038C112.182 127.942 112.182 127.784 112.277 127.687C112.372 127.591 112.529 127.591 112.624 127.687L118.258 133.376C118.353 133.472 118.353 133.63 118.258 133.727C118.209 133.775 118.147 133.8 118.084 133.8H118.085Z" fill="white"/>
<path d="M112.447 133.8C112.385 133.8 112.322 133.775 112.273 133.727C112.178 133.63 112.178 133.472 112.273 133.376L117.907 127.687C118.002 127.591 118.159 127.591 118.254 127.687C118.349 127.784 118.349 127.942 118.254 128.038L112.62 133.727C112.572 133.775 112.51 133.8 112.446 133.8H112.447Z" fill="white"/>
<path d="M175.967 17.8383L175.493 17.7099L176.311 14.6281C176.517 13.8525 177.21 13.317 178.003 13.317C178.014 13.317 178.024 13.317 178.034 13.317C179.985 13.3209 181.707 11.9995 182.211 10.0978C182.509 8.97424 182.356 7.80187 181.779 6.79515C181.203 5.78971 180.276 5.07191 179.167 4.77144C176.881 4.15251 174.52 5.53418 173.906 7.84938C173.87 7.98165 173.737 8.05997 173.605 8.0253C173.474 7.98935 173.396 7.85324 173.43 7.72098C174.115 5.14125 176.746 3.60292 179.293 4.29119C180.528 4.62505 181.562 5.42632 182.204 6.54476C182.846 7.66576 183.018 8.97296 182.686 10.2237C182.125 12.3373 180.217 13.8101 178.044 13.8101C178.031 13.8101 178.019 13.8101 178.006 13.8101C177.432 13.8101 176.934 14.1953 176.785 14.7539L175.967 17.8357V17.8383Z" fill="#EF4444"/>
<path d="M155.951 9.97956L155.441 8.05857C155.247 7.32664 155.539 6.54592 156.169 6.11704C157.261 5.38896 157.767 4.04453 157.43 2.772C157.221 1.97844 156.716 1.31714 156.011 0.907516C155.308 0.497894 154.489 0.39003 153.707 0.601904C152.925 0.813778 152.271 1.3197 151.868 2.02852C151.464 2.73733 151.357 3.56557 151.567 4.35913C151.602 4.49139 151.525 4.6275 151.394 4.66217C151.263 4.69813 151.128 4.61851 151.094 4.48754C150.849 3.56557 150.973 2.60507 151.443 1.78069C151.913 0.957594 152.672 0.368199 153.581 0.12294C154.49 -0.123604 155.441 0.00351845 156.258 0.478629C157.077 0.955024 157.662 1.72419 157.906 2.64488C158.299 4.12414 157.71 5.68431 156.444 6.52923C155.997 6.83356 155.78 7.41011 155.918 7.93016L156.428 9.85115L155.954 9.97956H155.951Z" fill="#EF4444"/>
<path fill-rule="evenodd" clip-rule="evenodd" d="M175.118 19.9994C175.739 20.1676 176.108 20.8122 175.942 21.4388C175.776 22.0655 175.137 22.4379 174.517 22.2697C173.896 22.1014 173.527 21.4568 173.693 20.8302C173.859 20.2036 174.498 19.8312 175.118 19.9994Z" fill="#EF4444"/>
<path fill-rule="evenodd" clip-rule="evenodd" d="M156.605 11.5333C157.054 11.4126 157.514 11.681 157.634 12.133C157.753 12.5862 157.487 13.0511 157.04 13.1718C156.591 13.2925 156.131 13.0241 156.011 12.5721C155.892 12.1201 156.157 11.654 156.605 11.5333Z" fill="#EF4444"/>
<path fill-rule="evenodd" clip-rule="evenodd" d="M40.9999 85.6177C42.3644 88.1139 40.0576 92.1125 35.8191 94.5844C31.5768 97.0576 26.9975 97.073 25.5351 94.6332C25.5287 94.6229 25.5249 94.6139 25.5186 94.6037C25.5135 94.596 25.5097 94.587 25.5033 94.5767C24.1426 92.0779 26.4443 88.078 30.6854 85.6061C34.9239 83.1355 39.5082 83.1201 40.9681 85.5612H40.9707C40.977 85.5701 40.9808 85.5778 40.9859 85.5855C40.9923 85.5958 40.9961 85.6048 41.0025 85.6151H40.9999V85.6177Z" fill="white"/>
<path d="M29.5967 96.6975C27.59 96.6975 26.0742 96.0105 25.3252 94.7598L25.2896 94.6982C24.5851 93.4064 24.7606 91.723 25.7804 89.9548C26.7774 88.2264 28.4751 86.6059 30.5619 85.3886C32.6475 84.1726 34.8869 83.4984 36.8669 83.4907C36.8783 83.4907 36.8911 83.4907 36.9025 83.4907C38.8927 83.4907 40.3996 84.1649 41.155 85.3937C41.1652 85.4053 41.1741 85.4181 41.1817 85.431L41.2148 85.4888C41.2224 85.5029 41.23 85.5183 41.2351 85.5337C41.9142 86.8152 41.7323 88.482 40.7214 90.2322C39.7244 91.9593 38.0267 93.5798 35.9411 94.7958C33.8543 96.0118 31.6149 96.6873 29.6349 96.6962C29.6222 96.6962 29.6095 96.6962 29.5967 96.6962V96.6975ZM36.9089 83.9877C35.0853 83.9877 32.8993 84.6002 30.8074 85.8201C26.7075 88.2097 24.4248 92.0838 25.7169 94.4568L25.7474 94.5094C27.1322 96.8195 31.5958 96.7592 35.6957 94.3682C39.7968 91.9772 42.0795 88.1057 40.7849 85.7366C40.7798 85.7289 40.776 85.7199 40.7735 85.7109C40.7684 85.7032 40.7633 85.6955 40.7582 85.6878C40.0792 84.5527 38.6625 83.9864 36.9101 83.9864L36.9089 83.9877Z" fill="#231F20"/>
<path d="M64.2653 83.1403C63.0407 83.1403 61.7461 82.9644 60.4528 82.6151C58.1257 81.9859 56.0694 80.8636 54.6629 79.4563C53.2246 78.0155 52.6231 76.4361 52.9716 75.0082L52.9894 74.9389C53.3963 73.5225 54.6985 72.458 56.6581 71.9354C58.5733 71.4256 60.9094 71.4911 63.2365 72.1216C65.5624 72.7508 67.6174 73.8731 69.0239 75.2817C70.4482 76.7096 71.051 78.2724 70.7229 79.6887C70.7229 79.7041 70.7191 79.7195 70.7152 79.7349L70.6987 79.7979C70.6949 79.8145 70.6885 79.83 70.6809 79.8454C70.2638 81.2373 68.968 82.2864 67.0274 82.8013C66.1766 83.0273 65.242 83.1403 64.2628 83.1403H64.2653ZM59.4304 72.0946C56.4114 72.0946 54.0042 73.1951 53.4637 75.0737L53.4484 75.1328C52.8101 77.7549 56.0096 80.8983 60.5813 82.1362C65.1542 83.374 69.4804 82.2659 70.2244 79.6656C70.2269 79.6566 70.2295 79.6476 70.2333 79.6399C70.2333 79.6309 70.2358 79.6219 70.2384 79.6129C70.8818 76.9844 67.6848 73.8397 63.1106 72.6019C61.8415 72.259 60.5902 72.0959 59.4304 72.0959V72.0946Z" fill="#231F20"/>
<path d="M33.2093 95.3802C32.7528 95.3802 32.2937 95.3198 31.841 95.1966C30.4854 94.8293 29.3524 93.9523 28.6517 92.7247C27.2032 90.1912 28.0654 86.9412 30.5744 85.4786C31.7902 84.7698 33.2055 84.5823 34.5599 84.9483C35.9155 85.3155 37.0485 86.1926 37.7492 87.4202C39.1977 89.9537 38.3355 93.2037 35.8264 94.6662C35.0177 95.1375 34.1186 95.3789 33.2081 95.3789L33.2093 95.3802ZM33.1928 85.2642C32.3675 85.2642 31.5536 85.4825 30.8199 85.9101C28.5461 87.2352 27.764 90.1822 29.0777 92.4782C29.7135 93.5902 30.741 94.3863 31.9695 94.7189C33.1979 95.0515 34.481 94.8807 35.5823 94.2386C37.856 92.9135 38.6381 89.9665 37.3245 87.6705C36.6886 86.5585 35.6611 85.7624 34.4327 85.4298C34.0219 85.3194 33.6061 85.2642 33.1928 85.2642Z" fill="#231F20"/>
<path d="M61.8208 82.4958C61.3935 82.4958 60.9586 82.4406 60.5262 82.3225C59.2342 81.9732 58.1545 81.136 57.4856 79.9662C56.8167 78.7964 56.6387 77.434 56.9859 76.1293C57.3318 74.8247 58.1609 73.7345 59.3194 73.0591C60.4779 72.3837 61.8271 72.2039 63.1192 72.5545C64.4112 72.9037 65.4908 73.7409 66.1597 74.9107C66.8286 76.0805 67.0067 77.443 66.6595 78.7476C66.0605 81.0037 64.0322 82.4958 61.8221 82.4958H61.8208ZM61.8144 72.8768C61.0323 72.8768 60.2592 73.0835 59.5636 73.4893C58.5182 74.0979 57.7718 75.0815 57.4589 76.2578C57.1461 77.434 57.3063 78.6628 57.9104 79.7184C58.5132 80.7739 59.4873 81.5276 60.6521 81.8435C63.0568 82.4945 65.5379 81.0474 66.1826 78.6192C66.4955 77.443 66.3352 76.2141 65.7312 75.1586C65.1284 74.1031 64.1543 73.3493 62.9894 73.0334C62.6003 72.9281 62.2061 72.8755 61.8131 72.8755L61.8144 72.8768Z" fill="#231F20"/>
<path d="M29.5166 83.5422C29.4314 83.5422 29.3488 83.4972 29.3043 83.4176L25.5172 76.793C25.4498 76.6749 25.4892 76.5234 25.6075 76.454C25.7258 76.386 25.8745 76.4258 25.9432 76.5452L29.7303 83.1698C29.7977 83.2879 29.7582 83.4395 29.64 83.5088C29.6018 83.5319 29.5586 83.5422 29.5179 83.5422H29.5166Z" fill="#FCE3E7"/>
<path d="M34.7461 80.2961C34.7308 80.2961 34.7155 80.2948 34.699 80.2922C34.5655 80.2666 34.479 80.1369 34.5044 80.002L35.6718 73.8474C35.6973 73.7126 35.8257 73.6253 35.9592 73.651C36.0928 73.6766 36.1792 73.8063 36.1538 73.9412L34.9864 80.0958C34.9635 80.2139 34.8605 80.2974 34.7461 80.2974V80.2961Z" fill="#FCE3E7"/>
<path d="M24.3268 86.8511C24.3001 86.8511 24.2734 86.8473 24.2467 86.837L18.3843 84.7799C18.2558 84.735 18.1884 84.5937 18.2329 84.464C18.2775 84.3343 18.4173 84.2663 18.5458 84.3112L24.4082 86.3683C24.5366 86.4133 24.604 86.5545 24.5595 86.6842C24.5239 86.7869 24.4298 86.8511 24.3281 86.8511H24.3268Z" fill="#FCE3E7"/>
<path fill-rule="evenodd" clip-rule="evenodd" d="M122.317 74.6871C116.795 74.1721 112.464 69.4698 112.464 63.7557C112.464 57.6922 117.341 52.769 123.344 52.769C129.348 52.769 134.225 57.6935 134.225 63.7557C134.225 68.7893 130.859 73.0344 126.283 74.3288L128.448 93.8584C128.511 94.4555 128.093 94.9974 127.501 95.0616C126.938 95.1258 126.255 95.199 125.691 95.2645C125.099 95.3287 124.563 94.9062 124.499 94.3091L122.316 74.6871H122.317ZM123.344 56.1128C127.52 56.1128 130.904 59.5387 130.904 63.7557C130.904 67.9726 127.52 71.3895 123.344 71.3895C119.168 71.3895 115.775 67.9726 115.775 63.7557C115.775 59.5387 119.168 56.1128 123.344 56.1128Z" fill="white"/>
<path d="M125.572 95.519C125.272 95.519 124.984 95.4188 124.746 95.2301C124.467 95.0079 124.293 94.6908 124.256 94.3364L122.096 74.9146C119.429 74.6167 116.966 73.3519 115.139 71.3397C113.256 69.2634 112.22 66.5706 112.22 63.7559C112.22 57.5615 117.211 52.5215 123.346 52.5215C129.48 52.5215 134.471 57.5615 134.471 63.7559C134.471 68.6984 131.225 73.0899 126.551 74.5088L128.693 93.8317C128.731 94.1874 128.632 94.5354 128.414 94.814C128.194 95.0953 127.88 95.2712 127.529 95.3084C127.25 95.3405 126.939 95.3752 126.628 95.4086C126.315 95.4433 126.003 95.4779 125.72 95.51C125.67 95.5152 125.622 95.5177 125.572 95.5177V95.519ZM123.344 53.0171C117.481 53.0171 112.709 57.835 112.709 63.7559C112.709 66.4461 113.701 69.0207 115.501 71.0046C117.29 72.9769 119.718 74.1968 122.34 74.4408C122.455 74.4511 122.548 74.5435 122.561 74.6604L124.744 94.2824C124.769 94.5046 124.877 94.7023 125.051 94.841C125.225 94.9797 125.443 95.0439 125.666 95.0195C125.949 94.9874 126.262 94.9527 126.574 94.9181C126.885 94.8834 127.195 94.85 127.475 94.8179C127.695 94.7935 127.892 94.6844 128.028 94.5084C128.165 94.3325 128.228 94.1117 128.203 93.8869L126.039 74.3573C126.025 74.2366 126.101 74.1236 126.217 74.0915C130.787 72.7972 133.979 68.5481 133.979 63.7572C133.979 57.8363 129.208 53.0184 123.344 53.0184V53.0171ZM123.344 71.6376C119.036 71.6376 115.53 68.1025 115.53 63.7559C115.53 59.4093 119.036 55.8652 123.344 55.8652C127.653 55.8652 131.15 59.4055 131.15 63.7559C131.15 68.1064 127.649 71.6376 123.344 71.6376ZM123.344 56.3609C119.307 56.3609 116.021 59.6777 116.021 63.7559C116.021 67.8342 119.307 71.142 123.344 71.142C127.382 71.142 130.659 67.829 130.659 63.7559C130.659 59.6828 127.378 56.3609 123.344 56.3609Z" fill="#EF4444"/>
<path fill-rule="evenodd" clip-rule="evenodd" d="M122.218 77.6147C122.218 77.6147 121.05 77.9306 120.779 78.7409C120.517 79.5422 121.016 81.2474 121.016 81.2474C121.016 81.2474 119.813 82.6368 121.079 84.6284C121.079 84.6284 120.375 86.4492 121.4 88.021C121.4 88.021 120.889 88.8916 121.701 89.9484C122.514 91.0052 125.408 91.3634 126.066 90.2938C126.396 89.7365 126.062 88.6052 126.062 88.6052C126.062 88.6052 126.777 87.1709 126.297 86.0627C126.297 86.0627 126.957 83.858 125.669 82.7922C125.669 82.7922 126.094 81.1922 125.421 80.1675L123.944 78.2799L122.219 77.616L122.218 77.6147Z" fill="white"/>
<path d="M124.384 91.1863C123.357 91.1863 122.064 90.8242 121.506 90.1C120.791 89.1703 120.992 88.3588 121.119 88.0378C120.276 86.6291 120.666 85.0959 120.808 84.658C120.172 83.6 120.196 82.705 120.333 82.1323C120.441 81.679 120.635 81.3541 120.745 81.1949C120.633 80.7763 120.301 79.4049 120.544 78.6627C120.855 77.7356 122.1 77.3901 122.152 77.3747C122.201 77.3619 122.255 77.3645 122.303 77.3824L124.029 78.0463C124.071 78.0617 124.106 78.0887 124.134 78.1246L125.611 80.0122C125.611 80.0122 125.618 80.0225 125.622 80.0289C126.229 80.9522 126.03 82.2581 125.938 82.7024C127.058 83.7682 126.664 85.6173 126.553 86.0461C126.946 87.0773 126.47 88.2881 126.32 88.6259C126.402 88.9366 126.603 89.8663 126.275 90.4197C125.999 90.8692 125.405 91.1375 124.6 91.1799C124.529 91.1838 124.456 91.185 124.382 91.185L124.384 91.1863ZM122.209 77.8768C121.969 77.9564 121.202 78.2518 121.012 78.8193C120.818 79.4138 121.119 80.7223 121.251 81.1756C121.276 81.2565 121.257 81.3451 121.201 81.4093C121.157 81.4607 120.14 82.6921 121.286 84.4924C121.328 84.5592 121.337 84.6426 121.307 84.7171C121.301 84.7338 120.664 86.4416 121.604 87.8837C121.656 87.9633 121.657 88.0647 121.61 88.1469C121.593 88.1752 121.201 88.8955 121.894 89.7957C122.315 90.3427 123.515 90.742 124.574 90.6855C125.205 90.6522 125.672 90.4608 125.856 90.1616C126.079 89.7854 125.91 88.961 125.826 88.6747C125.808 88.6143 125.813 88.5488 125.841 88.4923C125.847 88.4795 126.497 87.1466 126.07 86.1604C126.047 86.1065 126.043 86.0461 126.06 85.9896C126.066 85.9691 126.655 83.93 125.51 82.9823C125.435 82.9207 125.403 82.8205 125.429 82.7268C125.433 82.7114 125.813 81.2295 125.219 80.3114L123.792 78.4855L122.208 77.8755L122.209 77.8768Z" fill="#231F20"/>
<path d="M125.619 83.1146C125.58 83.1146 125.539 83.1081 125.5 83.0953L120.931 81.5608C120.731 81.4941 120.623 81.277 120.69 81.0754C120.757 80.8738 120.973 80.7647 121.171 80.8327L125.74 82.3672C125.94 82.434 126.048 82.651 125.981 82.8526C125.927 83.0131 125.78 83.1159 125.619 83.1159V83.1146Z" fill="#231F20"/>
<path d="M126.097 86.4804C126.062 86.4804 126.026 86.4753 125.99 86.4637L121.124 84.9639C120.929 84.9036 120.82 84.6968 120.88 84.5003C120.939 84.3039 121.144 84.1934 121.339 84.2538L126.205 85.7536C126.4 85.814 126.509 86.0207 126.45 86.2172C126.401 86.3777 126.255 86.4804 126.099 86.4804H126.097Z" fill="#231F20"/>
<path d="M125.965 88.8738C125.953 88.8738 125.939 88.8738 125.926 88.8712L121.438 88.1418C121.305 88.12 121.213 87.9929 121.235 87.8581C121.256 87.7232 121.382 87.6308 121.516 87.6526L126.003 88.382C126.137 88.4038 126.228 88.5309 126.207 88.6657C126.188 88.7877 126.083 88.8738 125.965 88.8738Z" fill="#231F20"/>
<path fill-rule="evenodd" clip-rule="evenodd" d="M134.599 86.1887C134.599 86.1887 131.152 81.3477 130.087 79.5102C129.023 77.6727 125.074 76.2679 123.646 75.6425C122.218 75.0172 121.636 78.6653 125.838 79.4088L127.203 82.4495L128.359 92.5822L129.769 93.2987L134.6 86.1887H134.599Z" fill="white"/>
<path d="M129.768 93.5468C129.731 93.5468 129.693 93.5378 129.657 93.5198L128.247 92.8033C128.126 92.7416 128.076 92.5927 128.137 92.4707C128.199 92.3487 128.346 92.2986 128.467 92.3603L129.685 92.9792L134.297 86.1915C133.711 85.3659 130.842 81.3069 129.873 79.635C128.997 78.1236 125.922 76.855 124.27 76.1731C123.991 76.0575 123.744 75.9561 123.547 75.8701C123.361 75.7892 123.202 75.8046 123.074 75.9163C122.882 76.0858 122.743 76.5147 122.893 77.0591C123.03 77.5574 123.596 78.7605 125.879 79.165C125.959 79.1792 126.026 79.2318 126.06 79.3063L127.424 82.347C127.48 82.4715 127.424 82.6179 127.302 82.6744C127.179 82.7309 127.032 82.6744 126.978 82.5512L125.667 79.6286C123.215 79.1522 122.58 77.7705 122.421 77.1914C122.238 76.5275 122.368 75.8803 122.752 75.5413C123.023 75.3038 123.384 75.2563 123.743 75.4142C123.938 75.5003 124.181 75.6004 124.457 75.7134C126.283 76.4659 129.338 77.7269 130.298 79.3833C131.345 81.19 134.763 85.9938 134.797 86.0426C134.858 86.1273 134.86 86.2416 134.8 86.3276L129.969 93.4376C129.922 93.507 129.845 93.5455 129.766 93.5455L129.768 93.5468Z" fill="#231F20"/>
<path d="M130.823 86.3543C130.786 86.3543 130.749 86.3466 130.715 86.3286C128.294 85.1203 127.175 82.8577 127.128 82.7614C127.068 82.6381 127.119 82.4905 127.24 82.4301C127.362 82.3698 127.508 82.4211 127.568 82.5431C127.578 82.5649 128.664 84.753 130.931 85.8843C131.053 85.9447 131.103 86.0936 131.043 86.2169C131 86.3042 130.913 86.3556 130.823 86.3556V86.3543Z" fill="#231F20"/>
<path d="M138.324 87.2887L138.392 87.1548L138.324 87.2887L138.324 87.2887L138.324 87.2885L138.323 87.2879L138.318 87.2856L138.3 87.2763L138.229 87.2406L137.968 87.1089L137.1 86.6699C136.416 86.3244 135.591 85.9064 135.022 85.6168C134.681 85.4458 134.265 85.5234 134.01 85.812L138.324 87.2887ZM138.324 87.2887L138.355 87.3045L138.39 87.3048C139.065 87.3111 139.982 87.6815 140.997 88.2596C142.006 88.8338 143.087 89.5988 144.082 90.3655C145.077 91.1319 145.983 91.8977 146.64 92.4721C146.969 92.7592 147.235 92.9984 147.419 93.1657C147.511 93.2493 147.583 93.315 147.631 93.3597L147.657 93.3838V93.4133L147.74 93.4549L154.094 96.6622L157.488 119.312M138.324 87.2887L157.488 119.312M157.488 119.312C154.022 118.437 150.355 116.389 146.796 113.864C143.165 111.287 139.656 108.219 136.601 105.409C133.554 102.607 132.251 100.598 131.707 99.3023C131.436 98.6549 131.354 98.186 131.338 97.8847C131.33 97.7339 131.338 97.6247 131.348 97.5554C131.353 97.5207 131.358 97.496 131.361 97.4811C131.363 97.4736 131.365 97.4685 131.365 97.4659L131.366 97.464L131.366 97.464L131.366 97.4637L131.392 97.387L131.34 97.3229C130.374 96.1288 129.543 94.7155 129.172 94.0298C129.055 93.8069 129.033 93.5511 129.125 93.3197L129.125 93.3185C130.343 90.166 132.91 87.0602 134.01 85.812L157.488 119.312Z" fill="white" stroke="#231F20" stroke-width="0.3"/>
<path d="M132.644 96.3617C132.607 96.3617 132.571 96.354 132.535 96.336C132.414 96.2757 132.363 96.1267 132.424 96.0035C133.8 93.2029 135.528 90.6244 137.562 88.3401C137.652 88.2386 137.807 88.2296 137.909 88.3208C138.01 88.412 138.018 88.5686 137.928 88.6714C135.924 90.9224 134.221 93.4635 132.866 96.223C132.822 96.3104 132.736 96.3604 132.646 96.3604L132.644 96.3617Z" fill="#231F20"/>
<path fill-rule="evenodd" clip-rule="evenodd" d="M135.091 48.5405C135.091 48.5405 137.376 54.1801 139.313 56.399C139.313 56.399 139.247 62.6962 142.773 60.2744C142.773 60.2744 148.777 68.3706 155.881 61.4249L163.261 71.8645L176.068 60.0086L167.581 49.6859L154.949 37.8184L139.907 38.3037L135.091 48.5405Z" fill="white"/>
<path d="M163.261 72.1125C163.252 72.1125 163.245 72.1125 163.236 72.1112C163.166 72.1035 163.102 72.0663 163.061 72.0085L155.846 61.8013C153.774 63.7493 151.592 64.6456 149.355 64.4658C145.844 64.1833 143.335 61.3647 142.72 60.6058C141.901 61.1156 141.19 61.2132 140.601 60.8948C139.17 60.1205 139.073 57.0849 139.067 56.4929C137.14 54.2252 134.956 48.8642 134.863 48.6356C134.837 48.5714 134.839 48.4982 134.868 48.4353L139.684 38.1986C139.724 38.1151 139.806 38.0599 139.898 38.0573L154.94 37.572C155.004 37.5694 155.068 37.5938 155.116 37.6387L167.748 49.5062C167.755 49.5139 167.763 49.5216 167.769 49.5293L176.256 59.8521C176.34 59.9535 176.33 60.1038 176.233 60.1937L163.426 72.0496C163.381 72.092 163.322 72.1151 163.261 72.1151V72.1125ZM155.882 61.1773C155.889 61.1773 155.897 61.1773 155.903 61.1773C155.974 61.1837 156.039 61.2209 156.081 61.28L163.299 71.491L175.73 59.9831L167.402 49.8542L154.855 38.0676L140.063 38.5453L135.359 48.5457C135.677 49.3123 137.75 54.2329 139.497 56.2335C139.538 56.2798 139.56 56.3388 139.558 56.4005C139.549 57.3314 139.76 59.8752 140.833 60.4556C141.292 60.7034 141.897 60.5737 142.634 60.0678C142.743 59.9933 142.89 60.0177 142.969 60.1243C142.996 60.1603 145.645 63.6697 149.396 63.9689C151.558 64.1422 153.684 63.2254 155.71 61.244C155.756 61.1991 155.817 61.1747 155.88 61.1747L155.882 61.1773Z" fill="#231F20"/>
<path d="M153.198 47.5916C153.169 47.5916 153.139 47.5864 153.109 47.5749C152.983 47.5248 152.921 47.381 152.971 47.2539C154.057 44.4468 155.648 42.8161 155.715 42.748C155.81 42.6517 155.965 42.6517 156.062 42.748C156.157 42.8443 156.159 43.001 156.062 43.0986C156.047 43.114 154.475 44.7281 153.427 47.4349C153.389 47.5325 153.296 47.5929 153.198 47.5929V47.5916Z" fill="#231F20"/>
<path d="M156.38 46.2152C156.359 46.2152 156.339 46.2126 156.32 46.2075C156.306 46.2036 154.936 45.8569 154.016 45.8531C153.88 45.8531 153.771 45.7414 153.771 45.604C153.771 45.4679 153.882 45.3574 154.017 45.3574C154.999 45.3626 156.381 45.7118 156.439 45.7272C156.57 45.7606 156.651 45.8954 156.617 46.0277C156.59 46.1394 156.489 46.2152 156.38 46.2152Z" fill="#231F20"/>
<path d="M143.335 45.3911L141.791 38.9744L142.063 38.8596L145.577 44.463C146.359 44.2382 147.048 43.9768 147.694 43.693L147.841 43.6284L147.895 43.7793L147.754 43.8303C147.895 43.7793 147.895 43.7794 147.895 43.7795L147.896 43.7801L147.896 43.7824L147.9 43.7918L147.913 43.829L147.966 43.9741C148.012 44.1012 148.08 44.2875 148.166 44.5245C148.339 44.9983 148.587 45.6745 148.886 46.484C149.484 48.103 150.288 50.2546 151.109 52.3857C151.931 54.5173 152.769 56.6264 153.437 58.1613C153.772 58.9295 154.062 59.5499 154.285 59.9565C154.372 60.1144 154.446 60.2349 154.506 60.3183C154.506 60.3021 154.505 60.2847 154.505 60.2661C154.5 60.1168 154.478 59.9099 154.44 59.6509C154.364 59.1339 154.226 58.426 154.044 57.5899C153.68 55.9188 153.143 53.7471 152.589 51.593C152.036 49.4393 151.465 47.3048 151.033 45.7086C150.817 44.9105 150.635 44.2471 150.508 43.7832C150.444 43.5513 150.394 43.3692 150.36 43.2451L150.337 43.1649H150.096L150.342 42.9107L150.45 43.0149C150.342 42.9107 150.342 42.9106 150.343 42.9105L150.343 42.9103L150.344 42.9095L150.346 42.9066L150.357 42.896C150.366 42.8868 150.379 42.8734 150.397 42.8562C150.432 42.8218 150.483 42.7724 150.549 42.7112C150.682 42.5888 150.873 42.4191 151.113 42.2289C151.591 41.849 152.264 41.3839 153.034 41.0503C153.804 40.7171 154.682 40.5108 155.565 40.6634C156.454 40.8168 157.33 41.33 158.095 42.3999C159.383 44.1901 159.275 46.063 158.621 47.1401M143.335 45.3911L158.492 47.0624M143.335 45.3911C143.306 45.4086 143.271 45.4299 143.229 45.4549C143.098 45.5331 142.906 45.6472 142.658 45.7901C142.163 46.0759 141.45 46.4772 140.576 46.9389C138.856 47.8483 136.517 48.9906 134.007 49.9451C133.999 49.9314 133.991 49.9164 133.981 49.9002C133.924 49.7996 133.84 49.6502 133.737 49.4563C133.532 49.0685 133.251 48.5028 132.948 47.7932C132.343 46.3737 131.652 44.3811 131.311 42.0871C130.628 37.503 131.339 31.7211 136.91 26.8871C142.499 22.037 151.056 19.4289 158.265 21.8151C165.443 24.191 171.346 31.5422 171.622 46.7325L143.335 45.3911ZM158.621 47.1401C158.621 47.1402 158.62 47.1402 158.62 47.1403L158.492 47.0624M158.621 47.1401C158.621 47.1401 158.621 47.14 158.621 47.14L158.492 47.0624M158.621 47.1401C158.184 47.862 157.663 48.3723 157.252 48.7023C157.046 48.8674 156.866 48.9877 156.738 49.0672C156.734 49.0696 156.73 49.072 156.726 49.0744M158.492 47.0624C157.819 48.1757 156.94 48.7731 156.602 48.9742C156.643 49.0079 156.685 49.0414 156.726 49.0744M156.726 49.0744C156.668 49.11 156.621 49.1369 156.588 49.1555M156.726 49.0744L156.588 49.1555M156.588 49.1555C156.545 49.1216 156.503 49.0873 156.461 49.0527L156.588 49.1555ZM165.508 52.1249L165.467 52.1607L165.567 52.2732L165.56 52.1233L165.56 52.1233L165.559 52.1234L165.557 52.1234L165.547 52.1238L165.508 52.1249Z" fill="white" stroke="#231F20" stroke-width="0.3"/>
<path d="M154.984 50.3022C154.879 50.3022 154.783 50.2341 154.75 50.1275C154.709 49.9965 154.781 49.8579 154.911 49.8168C157.515 48.9988 158.397 47.4476 158.406 47.4322C158.472 47.3128 158.621 47.2704 158.739 47.3359C158.857 47.4027 158.9 47.5516 158.835 47.6711C158.797 47.7417 157.864 49.4071 155.057 50.2893C155.033 50.297 155.009 50.3009 154.985 50.3009L154.984 50.3022Z" fill="#231F20"/>
<path d="M168.983 53.8052L157.649 65.8184L161.81 69.8208L173.144 57.8076L168.983 53.8052Z" fill="white"/>
<path d="M161.812 70.0798C161.749 70.0798 161.689 70.0554 161.643 70.0117L157.482 66.0092C157.384 65.9142 157.381 65.7575 157.473 65.6587L168.808 53.6461C168.852 53.5986 168.915 53.5703 168.98 53.569C169.046 53.5665 169.108 53.5921 169.155 53.6371L173.316 57.6396C173.414 57.7346 173.418 57.8912 173.325 57.9901L161.99 70.0027C161.946 70.0502 161.884 70.0785 161.819 70.0798C161.816 70.0798 161.815 70.0798 161.812 70.0798ZM157.999 65.8205L161.803 69.4814L172.798 57.8283L168.994 54.1674L157.999 65.8205Z" fill="#231F20"/>
<path fill-rule="evenodd" clip-rule="evenodd" d="M159.962 63.351C158.425 61.8718 155.987 61.9385 154.527 63.4859C152.71 65.412 150.311 67.9545 148.494 69.8806C147.034 71.4279 147.085 73.8895 148.624 75.3688C149.875 76.572 151.35 77.9922 152.602 79.1953C154.133 80.6682 156.577 80.6078 158.037 79.0592L164.07 72.6645C165.53 71.1172 165.471 68.6492 163.94 67.1763C162.689 65.9731 161.214 64.5529 159.962 63.3498V63.351Z" fill="white"/>
<path d="M155.248 80.5115C154.235 80.5115 153.22 80.134 152.43 79.3751L148.452 75.5485C146.821 73.9781 146.759 71.3585 148.315 69.7098L154.348 63.3151C155.904 61.6663 158.499 61.6008 160.13 63.1712L164.108 66.9978C165.74 68.5682 165.802 71.1878 164.245 72.8365L158.212 79.2313C157.409 80.0826 156.329 80.5115 155.248 80.5115ZM157.312 62.5292C156.361 62.5292 155.411 62.9067 154.704 63.6566L148.671 70.0514C147.302 71.5024 147.356 73.8073 148.792 75.189L152.77 79.0155C154.205 80.3972 156.488 80.3407 157.858 78.8884L163.891 72.4937C165.26 71.0427 165.205 68.7377 163.77 67.3561L159.792 63.5295C159.098 62.8618 158.204 62.5292 157.312 62.5292Z" fill="#231F20"/>
<path fill-rule="evenodd" clip-rule="evenodd" d="M172.965 47.2688C172.446 46.664 171.548 46.605 170.956 47.1238C169.576 48.3321 167.204 50.4059 165.832 51.6078C165.24 52.1265 165.17 53.0318 165.69 53.6366C166.201 54.2324 167.097 54.2915 167.691 53.7727C169.063 52.5721 171.434 50.497 172.815 49.2887C173.407 48.7699 173.477 47.8647 172.966 47.2688H172.965Z" fill="white"/>
<path d="M166.757 54.3726C166.719 54.3726 166.682 54.3726 166.644 54.3687C166.2 54.3392 165.796 54.1363 165.504 53.7986C164.902 53.0962 164.977 52.0291 165.672 51.4205L170.796 46.9365C171.491 46.3278 172.548 46.4036 173.151 47.1072C173.75 47.8045 173.671 48.8677 172.975 49.4764L167.852 53.9604C167.544 54.2301 167.159 54.3739 166.757 54.3739V54.3726ZM171.888 47.0199C171.615 47.0199 171.34 47.1149 171.118 47.3101L165.994 51.7941C165.503 52.2243 165.45 52.9768 165.876 53.4737C166.079 53.7113 166.364 53.8538 166.677 53.8744C166.99 53.8949 167.294 53.7922 167.531 53.5842L172.655 49.1001C173.146 48.67 173.203 47.9213 172.782 47.4308C172.549 47.1599 172.22 47.0199 171.891 47.0199H171.888Z" fill="#231F20"/>
<path d="M191.12 59.2072C191.123 59.2125 191.125 59.2177 191.128 59.2227L187.019 62.275L184.28 60.7888L183.812 60.5352L184.078 60.9956L185.684 63.777L174.217 72.7354C169.648 68.0873 167.956 63.3867 167.406 59.8443C167.129 58.0602 167.141 56.5688 167.223 55.5246C167.264 55.0025 167.322 54.5924 167.369 54.3136C167.393 54.1742 167.414 54.0677 167.429 53.9964C167.434 53.9724 167.439 53.9524 167.442 53.9365L172.776 49.1968C179.082 48.4908 183.678 51.0151 186.704 53.7242C188.222 55.0826 189.343 56.4868 190.085 57.5513C190.456 58.0834 190.732 58.5303 190.915 58.8436C191.007 59.0002 191.075 59.1234 191.12 59.2072Z" fill="white" stroke="#231F20" stroke-width="0.3"/>
<path fill-rule="evenodd" clip-rule="evenodd" d="M154.95 77.0749C154.95 77.0749 154.24 69.5515 151.32 64.4986C151.32 64.4986 146.226 63.5985 140.048 66.3914C140.048 66.3914 137.574 70.4606 141.904 73.2253C141.904 73.2253 143.123 75.1732 145.679 76.266L146.398 79.2245L151.319 82.7519L154.948 77.0749H154.95Z" fill="white"/>
<path d="M151.32 83.0014C151.269 83.0014 151.22 82.986 151.178 82.9552L146.257 79.4278C146.208 79.3932 146.174 79.3431 146.16 79.2853L145.471 76.4475C143.141 75.4138 141.937 73.7214 141.728 73.4081C139.43 71.9198 139.033 70.0605 139.107 68.7597C139.187 67.351 139.813 66.3071 139.84 66.2634C139.865 66.221 139.903 66.1877 139.949 66.1671C146.123 63.3755 151.311 64.2474 151.364 64.2564C151.435 64.2692 151.497 64.3129 151.533 64.3758C154.446 69.4171 155.188 76.9778 155.195 77.0536C155.2 77.1088 155.188 77.164 155.157 77.2115L151.528 82.8884C151.491 82.9449 151.434 82.9848 151.367 82.9976C151.352 83.0002 151.337 83.0014 151.322 83.0014H151.32ZM146.615 79.0773L151.253 82.4018L154.697 77.015C154.608 76.1791 153.814 69.3863 151.166 64.7277C150.396 64.6224 145.725 64.1203 140.22 66.587C139.925 67.1173 138.206 70.5728 142.035 73.0177C142.065 73.037 142.092 73.0639 142.111 73.0947C142.122 73.1127 143.325 74.9926 145.775 76.0391C145.846 76.07 145.899 76.1329 145.917 76.2086L146.614 79.0773H146.615Z" fill="#231F20"/>
<path d="M142.626 74.2888C142.526 74.2888 142.431 74.2259 142.396 74.1257C141.967 72.9354 141.686 71.6487 141.562 70.303C141.549 70.1669 141.648 70.0462 141.783 70.0333C141.92 70.0205 142.037 70.1207 142.05 70.2568C142.171 71.5601 142.442 72.8057 142.856 73.9562C142.903 74.0846 142.837 74.2272 142.71 74.2734C142.682 74.2837 142.654 74.2888 142.626 74.2888Z" fill="#231F20"/>
<mask id="path-59-inside-1_2541_15316" fill="white">
<path fill-rule="evenodd" clip-rule="evenodd" d="M162.819 88.026C164.211 91.6086 165.703 95.9167 165.703 95.9167L171.516 77.562C171.516 77.562 175.791 71.0761 183.242 73.9704C190.693 76.8647 191.384 87.2452 188.474 93.4641C185.563 99.6829 176.947 123.65 167.705 126.185C158.471 128.721 155.132 121.169 152.074 111.846C152.074 111.846 141.867 88.5306 146.089 85.2511C146.089 85.2511 145.443 82.4864 145.434 80.1712C145.443 79.6293 145.78 79.1606 146.288 78.986C148.08 78.3799 152.401 76.9289 154.658 76.3408C155.149 76.2304 155.65 76.4333 155.924 76.8557C156.642 77.9485 157.98 80.0531 158.508 81.2922C158.508 81.2922 159.718 81.2922 161.164 84.1211C161.611 84.9942 162.211 86.4363 162.82 88.0247"/>
</mask>
<path fill-rule="evenodd" clip-rule="evenodd" d="M162.819 88.026C164.211 91.6086 165.703 95.9167 165.703 95.9167L171.516 77.562C171.516 77.562 175.791 71.0761 183.242 73.9704C190.693 76.8647 191.384 87.2452 188.474 93.4641C185.563 99.6829 176.947 123.65 167.705 126.185C158.471 128.721 155.132 121.169 152.074 111.846C152.074 111.846 141.867 88.5306 146.089 85.2511C146.089 85.2511 145.443 82.4864 145.434 80.1712C145.443 79.6293 145.78 79.1606 146.288 78.986C148.08 78.3799 152.401 76.9289 154.658 76.3408C155.149 76.2304 155.65 76.4333 155.924 76.8557C156.642 77.9485 157.98 80.0531 158.508 81.2922C158.508 81.2922 159.718 81.2922 161.164 84.1211C161.611 84.9942 162.211 86.4363 162.82 88.0247" fill="white"/>
<path d="M165.703 95.9167L165.419 96.0148L165.716 96.8702L165.989 96.0072L165.703 95.9167ZM171.516 77.562L171.265 77.3969L171.242 77.4317L171.23 77.4714L171.516 77.562ZM167.705 126.185L167.625 125.896L167.625 125.896L167.705 126.185ZM152.074 111.846L152.36 111.752L152.355 111.739L152.349 111.725L152.074 111.846ZM146.089 85.2511L146.273 85.488L146.425 85.37L146.381 85.1828L146.089 85.2511ZM145.434 80.1712L145.134 80.1663L145.134 80.1724L145.434 80.1712ZM146.288 78.986L146.192 78.7018L146.191 78.7023L146.288 78.986ZM154.658 76.3408L154.593 76.048L154.583 76.0505L154.658 76.3408ZM155.924 76.8557L155.672 77.0187L155.673 77.0205L155.924 76.8557ZM158.508 81.2922L158.232 81.4098L158.31 81.5922L158.508 81.5922L158.508 81.2922ZM161.164 84.1211L160.897 84.2576L160.897 84.2576L161.164 84.1211ZM162.539 88.1346C163.234 89.9224 163.954 91.8923 164.501 93.4161C164.774 94.1778 165.004 94.8276 165.165 95.287C165.246 95.5167 165.309 95.6987 165.353 95.8233C165.375 95.8856 165.391 95.9335 165.402 95.9658C165.408 95.982 165.412 95.9943 165.415 96.0025C165.417 96.0066 165.418 96.0097 165.418 96.0117C165.419 96.0128 165.419 96.0135 165.419 96.0141C165.419 96.0143 165.419 96.0145 165.419 96.0146C165.419 96.0147 165.419 96.0147 165.419 96.0148C165.419 96.0148 165.419 96.0148 165.703 95.9167C165.986 95.8185 165.986 95.8185 165.986 95.8184C165.986 95.8184 165.986 95.8184 165.986 95.8183C165.986 95.8181 165.986 95.8179 165.986 95.8177C165.986 95.8171 165.986 95.8163 165.985 95.8153C165.985 95.8132 165.984 95.81 165.982 95.8059C165.979 95.7976 165.975 95.7852 165.969 95.769C165.958 95.7364 165.941 95.6883 165.919 95.6258C165.876 95.5008 165.812 95.3183 165.731 95.0881C165.569 94.6277 165.339 93.9766 165.065 93.2135C164.518 91.6876 163.796 89.7121 163.098 87.9173L162.539 88.1346ZM165.989 96.0072L171.802 77.6525L171.23 77.4714L165.417 95.8261L165.989 96.0072ZM171.516 77.562C171.766 77.7271 171.766 77.7272 171.766 77.7273C171.766 77.7272 171.766 77.7273 171.766 77.7273C171.766 77.7272 171.766 77.7271 171.766 77.7269C171.767 77.7264 171.767 77.7256 171.768 77.7244C171.77 77.7219 171.772 77.718 171.776 77.7126C171.783 77.7018 171.795 77.6851 171.81 77.6632C171.842 77.6193 171.889 77.554 171.952 77.4713C172.079 77.3058 172.269 77.0708 172.521 76.7968C173.025 76.2481 173.773 75.5469 174.745 74.9347C176.681 73.7151 179.513 72.8438 183.133 74.25L183.351 73.6907C179.52 72.2026 176.489 73.1271 174.425 74.427C173.397 75.0744 172.61 75.8138 172.079 76.3908C171.814 76.6796 171.612 76.9286 171.476 77.1066C171.408 77.1955 171.356 77.2668 171.321 77.3165C171.303 77.3413 171.29 77.3608 171.281 77.3743C171.276 77.3811 171.272 77.3864 171.27 77.3902C171.269 77.3921 171.268 77.3936 171.267 77.3947C171.266 77.3952 171.266 77.3957 171.266 77.3961C171.266 77.3963 171.266 77.3964 171.266 77.3965C171.265 77.3967 171.265 77.3969 171.516 77.562ZM183.133 74.25C186.734 75.6489 188.722 78.8607 189.449 82.5289C190.177 86.201 189.63 90.2858 188.202 93.3369L188.745 93.5912C190.228 90.4235 190.79 86.2087 190.038 82.4122C189.284 78.6118 187.2 75.1862 183.351 73.6907L183.133 74.25ZM188.202 93.3369C186.728 96.4848 183.871 103.981 180.197 111.068C178.365 114.603 176.34 118.012 174.205 120.691C172.062 123.378 169.841 125.288 167.625 125.896L167.784 126.474C170.189 125.815 172.511 123.778 174.674 121.065C176.845 118.342 178.889 114.895 180.73 111.344C184.402 104.259 187.308 96.6621 188.745 93.5912L188.202 93.3369ZM167.625 125.896C165.358 126.518 163.477 126.516 161.883 126.038C160.289 125.561 158.957 124.601 157.8 123.266C155.474 120.582 153.89 116.421 152.36 111.752L151.789 111.939C153.316 116.594 154.93 120.871 157.347 123.659C158.561 125.061 159.986 126.096 161.711 126.613C163.435 127.13 165.434 127.12 167.784 126.474L167.625 125.896ZM152.074 111.846C152.349 111.725 152.349 111.725 152.349 111.725C152.349 111.725 152.349 111.725 152.349 111.724C152.349 111.724 152.348 111.723 152.348 111.721C152.346 111.719 152.344 111.714 152.342 111.709C152.337 111.698 152.33 111.681 152.321 111.659C152.301 111.615 152.273 111.55 152.236 111.465C152.163 111.294 152.056 111.042 151.921 110.721C151.65 110.079 151.269 109.157 150.824 108.04C149.935 105.807 148.793 102.797 147.784 99.6856C146.773 96.5716 145.9 93.3697 145.54 90.7492C145.36 89.438 145.311 88.2881 145.431 87.3744C145.552 86.4537 145.837 85.8263 146.273 85.488L145.905 85.0141C145.285 85.4957 144.965 86.3143 144.836 87.2963C144.706 88.2855 144.762 89.4951 144.946 90.8308C145.312 93.5043 146.199 96.7461 147.213 99.8708C148.228 102.999 149.374 106.022 150.267 108.262C150.713 109.383 151.096 110.308 151.368 110.954C151.503 111.277 151.611 111.529 151.685 111.702C151.722 111.788 151.751 111.854 151.77 111.898C151.78 111.92 151.787 111.937 151.792 111.949C151.795 111.954 151.796 111.959 151.798 111.962C151.798 111.963 151.799 111.964 151.799 111.965C151.799 111.965 151.799 111.966 151.799 111.966C151.8 111.966 151.8 111.966 152.074 111.846ZM146.089 85.2511C146.381 85.1828 146.381 85.1828 146.381 85.1828C146.381 85.1828 146.381 85.1828 146.381 85.1828C146.381 85.1827 146.381 85.1826 146.381 85.1825C146.381 85.1822 146.381 85.1818 146.38 85.1812C146.38 85.18 146.38 85.1782 146.379 85.1756C146.378 85.1706 146.376 85.163 146.374 85.1529C146.369 85.1327 146.363 85.1025 146.354 85.0631C146.336 84.9843 146.311 84.8687 146.281 84.7225C146.221 84.4302 146.141 84.0161 146.061 83.5303C145.899 82.556 145.738 81.3042 145.734 80.1701L145.134 80.1724C145.138 81.3534 145.305 82.6415 145.469 83.6284C145.551 84.1232 145.632 84.5449 145.694 84.8433C145.724 84.9925 145.75 85.111 145.768 85.1924C145.777 85.2331 145.784 85.2646 145.789 85.286C145.791 85.2967 145.793 85.3049 145.794 85.3105C145.795 85.3133 145.796 85.3154 145.796 85.3169C145.796 85.3176 145.796 85.3182 145.796 85.3186C145.796 85.3188 145.796 85.319 145.796 85.3191C145.797 85.3192 145.797 85.3192 145.797 85.3192C145.797 85.3193 145.797 85.3193 146.089 85.2511ZM145.734 80.1762C145.741 79.7587 145.998 79.4027 146.386 79.2698L146.191 78.7023C145.561 78.9186 145.145 79.5 145.134 80.1663L145.734 80.1762ZM146.384 79.2702C148.18 78.6628 152.49 77.2159 154.734 76.6311L154.583 76.0505C152.313 76.6419 147.98 78.0971 146.192 78.7018L146.384 79.2702ZM154.724 76.6335C155.093 76.5505 155.467 76.7024 155.672 77.0187L156.176 76.6927C155.834 76.1641 155.205 75.9103 154.593 76.0481L154.724 76.6335ZM155.673 77.0205C156.395 78.1187 157.717 80.2001 158.232 81.4098L158.784 81.1747C158.244 79.9061 156.889 77.7782 156.174 76.6909L155.673 77.0205ZM158.508 81.2922C158.508 81.5922 158.508 81.5922 158.507 81.5922C158.507 81.5922 158.507 81.5922 158.507 81.5922C158.506 81.5922 158.506 81.5922 158.505 81.5922C158.505 81.5922 158.504 81.5922 158.503 81.5922C158.502 81.5922 158.501 81.5921 158.5 81.5921C158.499 81.5921 158.499 81.592 158.499 81.5921C158.501 81.5922 158.507 81.5927 158.517 81.5943C158.537 81.5974 158.574 81.6047 158.627 81.6218C158.731 81.6557 158.9 81.7291 159.117 81.888C159.552 82.2064 160.189 82.8719 160.897 84.2576L161.432 83.9845C160.694 82.5414 160.003 81.7925 159.471 81.4037C159.205 81.209 158.98 81.1056 158.812 81.0511C158.729 81.0239 158.66 81.0092 158.608 81.0012C158.583 80.9973 158.561 80.995 158.544 80.9938C158.536 80.9931 158.529 80.9927 158.522 80.9925C158.519 80.9924 158.517 80.9923 158.514 80.9923C158.513 80.9923 158.512 80.9923 158.511 80.9922C158.51 80.9922 158.51 80.9922 158.509 80.9922C158.509 80.9922 158.509 80.9922 158.509 80.9922C158.508 80.9922 158.508 80.9922 158.508 81.2922ZM160.897 84.2576C161.336 85.1155 161.931 86.5447 162.54 88.1321L163.1 87.9173C162.491 86.3278 161.886 84.873 161.432 83.9845L160.897 84.2576Z" fill="#231F20" mask="url(#path-59-inside-1_2541_15316)"/>
<path d="M169.625 111.111C169.625 111.111 169.614 111.111 169.607 111.111C169.473 111.102 169.37 110.983 169.38 110.847C169.534 108.627 168.922 105.343 167.612 101.351C166.618 98.3218 165.562 95.9321 165.552 95.909C165.496 95.7844 165.552 95.6367 165.675 95.5815C165.8 95.525 165.945 95.5815 166 95.7061C166.01 95.7305 167.074 98.1394 168.076 101.19C169.427 105.302 170.03 108.562 169.869 110.881C169.86 111.012 169.752 111.113 169.625 111.113V111.111Z" fill="#231F20"/>
<path d="M147.985 84.904C147.888 84.904 147.795 84.8449 147.757 84.7486C147.706 84.6215 147.767 84.4777 147.893 84.4263C150.797 83.2424 153.534 82.3037 156.265 81.5551C156.396 81.5192 156.53 81.5975 156.566 81.7298C156.602 81.862 156.524 81.9981 156.393 82.0341C153.682 82.7776 150.962 83.7111 148.078 84.8873C148.047 84.9002 148.017 84.9053 147.986 84.9053L147.985 84.904Z" fill="#231F20"/>
<path d="M229.755 159H0.245432C0.109363 159 0 158.89 0 158.752C0 158.615 0.109363 158.504 0.245432 158.504H229.755C229.891 158.504 230 158.615 230 158.752C230 158.89 229.891 159 229.755 159Z" fill="#231F20"/>
</svg>
