<svg width="200" height="26" viewBox="0 0 200 26" fill="none" xmlns="http://www.w3.org/2000/svg">
<path d="M121.993 9.68272V19.8833H124.922V16.6339H130.853V14.4336H124.907V11.9714H131.698V9.68272H121.993Z" fill="white"/>
<path d="M133.263 19.8835H136.178V9.68284H133.263V19.8835Z" fill="white"/>
<path d="M138.511 9.65406V19.8833H141.133V13.6471L146.759 19.8977H149.352V9.68271H146.729V16.1236L141.104 9.65406H138.511Z" fill="white"/>
<path d="M155.281 9.63905L150.661 19.8835H153.751L154.537 17.9896H159.025L159.813 19.8835H163.106L158.472 9.63905H155.281ZM156.781 11.8545L158.326 15.9191H155.237L156.781 11.8545Z" fill="white"/>
<path d="M164.417 9.65406V19.8833H167.04V13.6471L172.664 19.8977H175.258V9.68271H172.635V16.1236L167.01 9.65406H164.417Z" fill="white"/>
<path d="M177.114 15.0017C177.114 13.7296 177.362 12.6924 177.857 11.8907C178.353 11.0891 179.089 10.4969 180.065 10.1124C181.041 9.72867 182.243 9.53761 183.671 9.53761C184.148 9.53761 184.575 9.54717 184.954 9.56627C185.333 9.58617 185.687 9.61722 186.017 9.661C186.348 9.70479 186.671 9.75812 186.987 9.82101C187.302 9.88469 187.63 9.9643 187.97 10.0614L187.387 12.1455C186.96 12.0579 186.55 11.9879 186.156 11.9345C185.763 11.8812 185.377 11.8398 184.998 11.8103C184.619 11.7817 184.24 11.7666 183.861 11.7666C183.2 11.7666 182.632 11.8279 182.157 11.9489C181.681 12.0707 181.291 12.2577 180.99 12.5101C180.689 12.7624 180.466 13.0904 180.32 13.4932C180.174 13.8968 180.102 14.38 180.102 14.9436C180.102 15.4483 180.172 15.8861 180.313 16.2547C180.454 16.6241 180.674 16.9226 180.976 17.1511C181.277 17.3795 181.656 17.5499 182.113 17.6613C182.569 17.7728 183.118 17.8285 183.759 17.8285C184.41 17.8285 185.083 17.7871 185.778 17.7043C186.472 17.6223 187.13 17.5085 187.752 17.362L188.277 19.388C187.946 19.4851 187.611 19.5727 187.271 19.6499C186.931 19.7279 186.564 19.794 186.171 19.8465C185.778 19.8998 185.348 19.9436 184.881 19.9778C184.415 20.0121 183.895 20.0288 183.322 20.0288C182.312 20.0288 181.42 19.9341 180.648 19.7446C179.876 19.5551 179.227 19.2614 178.703 18.8634C178.178 18.4646 177.782 17.9479 177.515 17.3111C177.248 16.675 177.114 15.9052 177.114 15.0017Z" fill="white"/>
<path d="M189.873 19.8833V9.68272H199.665V11.8981H192.758V13.6319H199.242V15.6866H192.758V17.6831H200V19.8833H189.873Z" fill="white"/>
<path fill-rule="evenodd" clip-rule="evenodd" d="M103.36 9.70039H111.145C112.912 9.70039 114.357 11.0935 114.357 12.7962V19.8843H102.716C101.641 19.8843 100.76 19.0365 100.76 17.9992V15.5363C100.76 14.5722 101.579 13.7833 102.58 13.7833H109.037L108.352 15.217H103.602C103.391 15.217 103.163 15.3731 103.163 15.5952V17.5328C103.163 17.7549 103.391 17.9109 103.602 17.9109H111.842V13.2627C111.842 12.3616 111.04 11.6746 110.147 11.6746H102.418L103.36 9.70039ZM56.7538 7.4802V5.97168H54.2391V8.9115L56.7538 7.4802ZM54.2391 10.3436L56.7538 8.9115V19.8843H54.2391V10.3436ZM69.4294 9.70039C71.1958 9.70039 72.6414 11.0935 72.6414 12.7962V19.8843H70.1267V13.2627C70.1267 12.3616 69.3243 11.6746 68.4319 11.6746H62.3906V19.8843H59.8759V9.70517C63.053 9.70517 66.242 9.70039 69.4294 9.70039ZM101.61 9.70039H95.3011C93.5346 9.70039 92.089 11.0935 92.089 12.7962V19.8843H94.6037V13.2627C94.6037 12.3616 95.4062 11.6746 96.2985 11.6746H100.657L101.61 9.70039ZM17.1764 19.8851H19.692V12.7962C19.692 11.0935 18.2455 9.70039 16.4799 9.70039H0V19.8851H2.51553V12.0527C2.51553 11.8306 2.7432 11.6746 2.95416 11.6746H8.1492C8.36095 11.6746 8.58862 11.8306 8.58862 12.0527V19.8851H11.1034V12.0527C11.1034 11.8306 11.331 11.6746 11.5428 11.6746H15.4816C16.374 11.6746 17.1764 12.3616 17.1764 13.2627V19.8851ZM38.1421 5.99556V19.8843H40.6576V5.99556H38.1421ZM48.6022 19.8843H51.117V12.7962C51.117 11.0935 49.6713 9.70039 47.9049 9.70039H42.5634L41.6137 11.6746H46.9074C47.7998 11.6746 48.6022 12.3616 48.6022 13.2627V19.8843ZM88.4893 5.99556V19.8843H77.1359C76.0597 19.8843 75.1792 19.0365 75.1792 17.9992V12.7962C75.1792 11.0935 76.6249 9.70039 78.3921 9.70039H84.86L83.9072 11.6746H79.3896C78.4972 11.6746 77.6948 12.3616 77.6948 13.2627V17.5328C77.6948 17.7549 77.9224 17.9109 78.1334 17.9109H85.9737V5.99556H88.4893ZM24.5105 9.70039H32.2951C34.0623 9.70039 35.5071 11.0935 35.5071 12.7962V19.8843H23.8665C22.791 19.8843 21.9106 19.0365 21.9106 17.9992V15.5363C21.9106 14.5722 22.7289 13.7833 23.7295 13.7833H30.1871L29.5025 15.217H24.7517C24.5407 15.217 24.313 15.3731 24.313 15.5952V17.5328C24.313 17.7549 24.5407 17.9109 24.7517 17.9109H32.9924V13.2627C32.9924 12.3616 32.19 11.6746 31.2976 11.6746H23.5679L24.5105 9.70039Z" fill="white"/>
</svg>
