<svg width="16" height="16" viewBox="0 0 16 16" fill="none" xmlns="http://www.w3.org/2000/svg">
<path fill-rule="evenodd" clip-rule="evenodd" d="M13.3307 3.3335C13.3307 2.96531 13.0323 2.66683 12.6641 2.66683L3.33073 2.66683C2.96254 2.66683 2.66406 2.96531 2.66406 3.3335L2.66406 5.3335L13.3307 5.3335L13.3307 3.3335ZM14.6641 3.3335C14.6641 2.22893 13.7686 1.3335 12.6641 1.3335L3.33073 1.3335C2.22616 1.3335 1.33073 2.22893 1.33073 3.3335L1.33073 12.6668C1.33073 13.7714 2.22616 14.6668 3.33073 14.6668L12.6641 14.6668C13.7686 14.6668 14.6641 13.7714 14.6641 12.6668L14.6641 3.3335ZM13.3307 6.66683L2.66406 6.66683L2.66406 12.6668C2.66406 13.035 2.96254 13.3335 3.33073 13.3335L12.6641 13.3335C13.0323 13.3335 13.3307 13.035 13.3307 12.6668L13.3307 6.66683Z" fill="#231F20"/>
</svg>
