<svg width="14" height="14" viewBox="0 0 14 14" fill="none" xmlns="http://www.w3.org/2000/svg">
<path fill-rule="evenodd" clip-rule="evenodd" d="M7 12.7273C10.1631 12.7273 12.7273 10.1631 12.7273 7C12.7273 3.83691 10.1631 1.27273 7 1.27273C3.83691 1.27273 1.27273 3.83692 1.27273 7C1.27273 10.1631 3.83691 12.7273 7 12.7273ZM14 7C14 10.866 10.866 14 7 14C3.13401 14 -2.91459e-07 10.866 -6.50992e-07 7C-1.01052e-06 3.13401 3.13401 8.92979e-07 7 5.75267e-07C10.866 2.57556e-07 14 3.13401 14 7ZM7 10.1818C6.64855 10.1818 6.36364 9.89691 6.36364 9.54546L6.36364 7C6.36364 6.64855 6.64855 6.36364 7 6.36364C7.35145 6.36364 7.63636 6.64855 7.63636 7L7.63636 9.54546C7.63636 9.89691 7.35145 10.1818 7 10.1818ZM7.63636 4.45455C7.63636 4.806 7.35145 5.09091 7 5.09091L6.99364 5.09091C6.64218 5.09091 6.35727 4.806 6.35727 4.45455C6.35727 4.10309 6.64218 3.81818 6.99364 3.81818L7 3.81818C7.35145 3.81818 7.63636 4.10309 7.63636 4.45455Z" fill="white"/>
</svg>
