<svg width="388" height="266" viewBox="0 0 388 266" fill="none" xmlns="http://www.w3.org/2000/svg">
<g clip-path="url(#clip0_2541_7569)">
<mask id="mask0_2541_7569" style="mask-type:luminance" maskUnits="userSpaceOnUse" x="44" y="27" width="309" height="244">
<path d="M44.5075 27.0095L352.342 27L352.344 270.49L44.5094 270.5L44.5075 27.0095Z" fill="white"/>
</mask>
<g mask="url(#mask0_2541_7569)">
<path d="M119.393 203.199C119.143 203.155 118.896 203.116 118.646 203.082C119.069 203.73 119.602 204.27 120.119 204.806C120.698 205.405 121.269 206.019 121.687 206.783C121.855 207.09 121.95 207.475 121.88 207.825C121.802 208.225 121.58 208.614 121.404 208.96C121.232 209.306 121.051 209.651 120.858 209.983C120.764 210.143 120.665 210.328 120.546 210.484C120.546 209.345 118.839 207.592 118.839 207.592L118.543 207.343C118.572 207.358 118.605 207.368 118.634 207.382C118.334 207.071 118.03 206.759 117.751 206.428C117.271 205.853 116.852 205.196 116.627 204.431C116.528 204.095 116.458 203.706 116.528 203.36C116.528 203.36 116.701 202.664 119.389 203.209L119.393 203.199Z" fill="#22C55E"/>
<path d="M223.333 118.762C223.644 119.196 223.665 119.766 223.653 120.321C223.64 121.066 223.608 121.811 223.579 122.556C223.55 123.301 223.525 124.041 223.53 124.786C223.53 124.821 223.53 124.859 223.53 124.894C223.653 124.631 223.764 124.353 223.874 124.08C224.293 123.048 224.749 122.04 225.258 121.066C225.381 120.832 225.508 120.598 225.635 120.364C225.742 120.17 225.84 119.941 226.013 119.819C226.087 119.765 226.177 119.77 226.255 119.79C226.546 119.848 226.838 119.97 227.117 120.092C227.302 120.174 227.515 120.252 227.675 120.403C227.749 120.471 227.782 120.603 227.806 120.71C228.04 121.708 228.098 122.77 228.147 123.807C228.176 124.455 228.2 125.108 228.246 125.755C228.258 125.926 228.27 126.096 228.287 126.272C228.537 125.906 228.726 125.483 228.91 125.064C229.12 124.601 229.333 124.138 229.641 123.759C229.764 123.608 229.932 123.491 230.109 123.496C230.31 123.496 230.519 123.593 230.708 123.666C230.893 123.739 231.082 123.812 231.262 123.9C231.377 123.953 231.517 124.012 231.615 124.104C231.755 124.236 231.775 124.426 231.788 124.63C231.804 124.922 231.808 125.215 231.804 125.512C231.8 125.877 231.763 126.232 231.722 126.593C231.923 126.383 232.12 126.159 232.329 125.96C232.687 125.628 233.126 125.375 233.577 125.414C233.885 125.443 234.197 125.589 234.48 125.716C234.62 125.779 234.767 125.843 234.899 125.925C234.907 125.93 235.051 126.028 234.956 126.018C234.365 125.96 233.873 126.417 233.442 126.87C233.204 127.119 232.974 127.382 232.707 127.591C232.444 127.796 232.186 127.844 231.898 127.781C231.878 127.786 231.825 127.771 231.747 127.742C231.377 127.63 231 127.489 230.655 127.294C230.515 127.216 230.368 127.133 230.285 126.973C230.125 126.666 230.261 126.218 230.298 125.882C230.302 125.833 230.306 125.78 230.31 125.731C230.203 125.969 230.093 126.213 229.973 126.442C229.764 126.836 229.506 127.202 229.173 127.45C229.025 127.562 228.853 127.655 228.677 127.655C228.471 127.655 228.262 127.552 228.073 127.484C227.774 127.377 227.429 127.26 227.162 127.051C227.018 126.939 226.961 126.739 226.928 126.544C226.883 126.281 226.858 126.013 226.834 125.751C226.784 125.229 226.756 124.708 226.731 124.182C226.694 123.403 226.669 122.624 226.6 121.855C226.411 122.225 226.226 122.605 226.046 122.984C225.808 123.491 225.586 124.007 225.377 124.528C225.2 124.967 225.028 125.405 224.806 125.814C224.597 126.204 224.326 126.583 223.985 126.807C223.899 126.861 223.805 126.861 223.714 126.846C223.423 126.788 223.131 126.666 222.852 126.545C222.577 126.423 222.265 126.33 222.159 125.965C222.093 125.741 222.105 125.473 222.097 125.239C222.085 124.947 222.081 124.655 222.077 124.363C222.072 123.798 222.085 123.238 222.101 122.673C222.126 121.86 222.167 121.046 222.187 120.238C222.204 119.6 222.286 118.787 221.917 118.271C221.863 118.197 221.982 118.232 222.007 118.236C222.159 118.266 222.302 118.319 222.45 118.373C222.639 118.441 222.824 118.519 223.004 118.607C223.086 118.645 223.259 118.699 223.324 118.787L223.333 118.762Z" fill="#B91C1C"/>
<path d="M230.658 127.275C230.658 127.275 230.625 127.255 230.609 127.245C231.22 127.279 231.717 126.573 231.717 126.573C231.918 126.364 232.115 126.14 232.325 125.94C232.682 125.609 233.121 125.356 233.572 125.395C233.88 125.424 234.192 125.57 234.475 125.697C234.615 125.76 234.763 125.823 234.894 125.906C234.902 125.911 235.046 126.008 234.951 125.998C234.36 125.94 233.868 126.398 233.437 126.851C233.199 127.099 232.969 127.362 232.702 127.572C232.439 127.776 232.181 127.825 231.894 127.762C231.873 127.766 231.82 127.752 231.742 127.723C231.372 127.611 230.995 127.469 230.65 127.275L230.658 127.275Z" fill="#EF4444"/>
<path d="M228.237 125.75C228.25 125.921 228.262 126.091 228.278 126.266C228.529 125.901 228.718 125.477 228.902 125.059C229.112 124.596 229.325 124.133 229.633 123.753C229.756 123.602 229.924 123.486 230.101 123.49C230.302 123.49 230.511 123.588 230.7 123.661C230.885 123.734 231.074 123.807 231.254 123.895C231.34 123.938 231.443 123.977 231.533 124.041C230.991 124.192 230.388 125.555 230.388 125.555L230.31 125.784C230.31 125.784 230.314 125.74 230.314 125.716C230.207 125.955 230.097 126.198 229.978 126.427C229.768 126.821 229.51 127.187 229.177 127.435C229.029 127.547 228.857 127.64 228.68 127.64C228.68 127.64 228.328 127.615 228.237 125.75Z" fill="#E31837"/>
<path d="M223.54 124.869C223.66 124.611 223.766 124.343 223.873 124.08C224.292 123.047 224.747 122.039 225.256 121.065C225.379 120.831 225.507 120.598 225.634 120.364C225.741 120.169 225.839 119.94 226.011 119.818C226.085 119.765 226.176 119.77 226.254 119.789C226.545 119.848 226.836 119.969 227.115 120.091C227.3 120.174 227.514 120.252 227.674 120.403C227.674 120.403 227.674 120.403 227.678 120.407L227.559 120.383C227.559 120.383 227.132 120.461 226.606 121.834C226.418 122.205 226.233 122.584 226.052 122.964C225.814 123.471 225.593 123.987 225.383 124.508C225.207 124.946 225.034 125.385 224.813 125.794C224.603 126.183 224.332 126.563 223.992 126.787C223.947 126.817 223.897 126.831 223.848 126.836C223.799 126.831 223.59 126.695 223.54 124.874L223.54 124.869Z" fill="#B91C1C"/>
</g>
<g clip-path="url(#clip1_2541_7569)">
<path d="M150.637 162.008C151.149 161.557 151.36 161.112 151.416 160.349C150.948 159.911 150.558 159.679 150.058 159.681C149.61 160.346 149.165 160.665 148.384 161.122C149.293 161.306 149.853 161.45 150.637 162.008Z" fill="#22C55E"/>
<path d="M110.112 125.398C110.3 126.259 110.287 127.045 110.093 128.101C112.195 127.456 113.637 127.136 115.302 127.069C115.797 126.012 115.773 125.359 115.596 124.473C114.38 124.463 112.356 124.785 110.104 125.395L110.112 125.398Z" fill="#22C55E"/>
<path d="M225.568 151.819C225.756 152.68 225.743 153.466 225.549 154.521C227.651 153.877 229.093 153.557 230.758 153.49C231.253 152.433 231.229 151.78 231.052 150.894C229.836 150.884 227.812 151.205 225.56 151.816L225.568 151.819Z" fill="#22C55E"/>
<path d="M297.28 211.668C296.61 211.785 296.186 211.686 295.671 211.068C295.316 212.039 295.279 212.73 295.285 214C295.707 214.472 296.051 214.524 296.768 214.4C296.775 213.309 296.85 212.527 297.29 211.672L297.28 211.668Z" fill="#22C55E"/>
<path d="M321.608 188.385C321.828 188.599 321.968 188.845 321.974 189.328C322.958 188.836 323.541 188.376 324.375 187.661C324.285 187.009 324.094 186.701 323.939 186.489C323.193 187.441 322.578 187.848 321.608 188.385Z" fill="#1084CB"/>
<path d="M92.1171 89.3715C93.3434 89.3029 94.0995 89.0355 95.3499 88.1232C94.5239 86.7732 94.2897 85.7802 94.3068 84.5599C93.1566 84.5272 92.3538 84.7215 91.1344 85.1933C91.7437 86.5317 91.9584 87.6232 92.1171 89.3715Z" fill="#1084CB"/>
<path d="M165.902 56.8969C166.458 56.8388 166.819 56.5108 167.407 55.9589C166.453 54.7016 165.808 53.0014 165.237 50.9184C164.748 51.339 164.375 51.488 163.743 51.5676C164.228 53.8277 164.678 55.0186 165.906 56.8856L165.902 56.8969Z" fill="#1084CB"/>
<path d="M216.127 126.89C216.758 126.29 217.053 125.881 217.228 124.941C216.253 124.128 215.738 123.563 214.971 122.545C214.723 123.027 214.462 123.304 214.21 123.505C215.127 124.64 215.542 125.495 216.127 126.89Z" fill="#EF4444"/>
<path d="M252.296 125.171C252.318 126.115 252.598 126.66 253.339 127.16C254.2 126.777 254.792 126.374 255.225 125.716C254.925 124.749 254.977 123.97 255.183 122.643C254.195 123.773 253.559 124.438 252.291 125.183L252.296 125.171Z" fill="#FDC90F"/>
<path d="M119.801 99.0596C119.087 98.5711 118.269 98.1186 117.245 98.2594C116.671 98.8838 116.263 99.2717 115.572 99.7266C116.174 99.9279 116.374 100.346 116.514 101.379C117.397 100.445 118.409 99.859 119.801 99.0596Z" fill="#22C55E"/>
<path d="M142.977 87.8742C143.208 86.2509 143.686 85.2521 145.169 84.1045C143.619 83.1556 142.357 82.9688 140.024 82.8229C138.882 83.7677 138.537 84.5826 138.286 86.3044C140.284 86.4554 141.687 86.7285 142.977 87.8742Z" fill="#FDC90F"/>
<path d="M278.452 219.591C279.303 219.203 279.854 219.263 280.626 219.483C280.518 217.876 280.25 216.308 279.924 215.69C279.235 215.826 278.658 216.115 277.905 216.637C278.277 217.329 278.357 218.163 278.442 219.587L278.452 219.591Z" fill="#FDC90F"/>
<path d="M92.1862 125.518C93.0373 125.13 93.5886 125.19 94.3604 125.409C94.2527 123.803 93.9844 122.235 93.6582 121.617C92.969 121.752 92.392 122.042 91.639 122.564C92.0119 123.256 92.0915 124.09 92.1768 125.514L92.1862 125.518Z" fill="#FDC90F"/>
<path d="M271.821 58.3154C272.672 57.9281 273.223 57.9877 273.995 58.2073C273.887 56.6006 273.619 55.0328 273.293 54.4146C272.604 54.5501 272.027 54.8398 271.274 55.3621C271.647 56.0534 271.726 56.8877 271.812 58.3114L271.821 58.3154Z" fill="#FDC90F"/>
<path d="M181.716 130.203C182.567 129.816 183.118 129.875 183.89 130.095C183.782 128.488 183.514 126.921 183.188 126.302C182.498 126.438 181.921 126.728 181.168 127.25C181.541 127.941 181.621 128.775 181.706 130.199L181.716 130.203Z" fill="#FDC90F"/>
<path d="M207.339 68.3343C207.131 67.6193 207.117 66.9194 207.552 65.916C205.299 65.764 203.818 65.9914 201.627 66.4794C201.179 67.9579 201.225 68.8448 201.32 69.4587C203.567 68.3671 205.067 68.2542 207.334 68.3456L207.339 68.3343Z" fill="#FDC90F"/>
<path d="M226.451 241.715C226.236 242.825 225.626 243.902 223.635 245.675C224.337 246.426 225.155 246.825 226.408 246.954C227.757 245.416 228.457 244.391 229.138 242.491C228.086 242.593 227.489 242.354 226.446 241.7L226.451 241.715Z" fill="#EF4444"/>
<path d="M318.641 155.059C319.252 155.397 319.697 155.839 320.192 156.582C321.062 154.655 321.72 153.413 322.667 152.145C322.338 151.192 321.954 150.843 321.333 150.474C320.611 151.369 319.61 153.054 318.627 155.066L318.641 155.059Z" fill="#EF4444"/>
<path d="M261.587 163.178C261.228 163.974 260.839 164.396 259.96 164.692C260.54 165.497 261.113 165.846 262.184 166.406C262.87 166.149 263.164 165.793 263.551 164.956C262.635 164.475 262.006 164.049 261.592 163.193L261.587 163.178Z" fill="#22C55E"/>
<path d="M251.007 222.46C249.434 222.169 248.648 221.903 247.678 220.92C247.325 221.597 247.026 221.965 246.615 222.124C247.593 223.272 248.504 223.737 250.137 224.228C250.579 223.681 250.842 223.111 251.016 222.464L251.007 222.46Z" fill="#1084CB"/>
<path d="M85.7815 158.889C85.238 159.099 84.9146 159.55 84.5418 160.353C85.5231 160.994 86.0244 161.513 86.6262 162.528C86.9269 161.948 87.2777 161.643 88.0491 161.182C87.4285 160.159 86.7581 159.542 85.7815 158.889Z" fill="#EF4444"/>
<path d="M286.524 39.0235C285.98 39.234 285.657 39.6843 285.284 40.4873C286.265 41.1291 286.767 41.6479 287.368 42.6629C287.669 42.0829 288.02 41.7776 288.791 41.3166C288.171 40.2936 287.5 39.6766 286.524 39.0235Z" fill="#EF4444"/>
<path d="M151.054 31.3669C150.462 30.276 149.719 29.1747 148.464 28.7104C147.494 29.1678 146.832 29.4217 145.789 29.5811C146.398 30.2122 146.427 30.9048 146.088 32.3359C147.568 31.6674 149.045 31.5312 151.054 31.3669Z" fill="#22C55E"/>
<path d="M266.035 102.561C265.572 101.297 264.948 99.993 263.713 99.2971C262.664 99.6275 261.941 99.7891 260.857 99.7842C261.404 100.562 261.333 101.306 260.805 102.764C262.411 102.296 263.952 102.401 266.04 102.55L266.035 102.561Z" fill="#17823E"/>
<path d="M87.093 59.359C87.297 58.4046 87.3773 57.6379 87.1744 56.9117C86.6423 56.8068 86.2742 56.8646 85.8626 57.0775C86.0314 57.9895 86.0042 58.5518 85.7626 59.4903C86.316 59.204 86.6607 59.1229 87.093 59.359Z" fill="#EF4444"/>
<path d="M280.012 192.452C279.091 191.956 278.65 191.636 278.193 190.803C277.879 191.177 277.633 191.366 277.355 191.395C277.787 192.339 278.279 192.827 279.199 193.456C279.559 193.182 279.797 192.855 279.998 192.46L280.012 192.452Z" fill="#17823E"/>
<path d="M187.053 86.402C186.132 85.9059 185.691 85.5859 185.234 84.7523C184.92 85.1267 184.674 85.3161 184.396 85.3452C184.828 86.2886 185.32 86.7768 186.24 87.4061C186.6 87.1313 186.838 86.8049 187.039 86.4094L187.053 86.402Z" fill="#17823E"/>
<path d="M227.347 89.2433C226.426 88.7472 225.985 88.4272 225.528 87.5936C225.214 87.968 224.968 88.1574 224.689 88.1865C225.122 89.1299 225.614 89.6181 226.534 90.2474C226.894 89.9727 227.132 89.6462 227.333 89.2507L227.347 89.2433Z" fill="#17823E"/>
<path d="M174.498 112.741C174.008 111.827 173.648 111.395 172.636 111.14C171.392 112.589 170.576 113.365 169.159 114.514C169.628 114.872 169.866 115.253 170.001 115.617C171.598 114.251 172.696 113.621 174.488 112.737L174.498 112.741Z" fill="#EF4444"/>
<path d="M138.628 140.944C138.138 140.03 137.778 139.597 136.766 139.342C135.522 140.791 134.706 141.567 133.289 142.716C133.758 143.074 133.996 143.455 134.13 143.819C135.728 142.453 136.826 141.823 138.618 140.94L138.628 140.944Z" fill="#EF4444"/>
<path d="M298.529 135.589C298.11 136.292 297.946 136.783 297.884 137.691C298.776 137.548 299.289 137.645 299.816 137.947C300.249 137.316 300.459 136.818 300.709 136.017C299.913 136.04 299.348 135.908 298.534 135.577L298.529 135.589Z" fill="#B91C1C"/>
<path d="M242.066 8.75829C242.112 9.31612 242.432 9.68344 242.971 10.2832C244.249 9.35636 245.962 8.74814 248.057 8.22123C247.647 7.72408 247.506 7.34757 247.44 6.71373C245.17 7.1509 243.97 7.57521 242.077 8.76332L242.066 8.75829Z" fill="#1084CB"/>
</g>
<path d="M298.866 110.407C299.144 113.893 298.671 116.989 298.2 120.167C298.051 121.181 297.86 122.183 297.629 123.172C297.525 123.618 297.421 124.055 297.317 124.493C295.978 130.147 293.376 135.294 289.61 139.465C289.49 139.599 289.369 139.731 289.246 139.862C285.632 143.692 281.693 147.125 276.936 149.694C272.235 152.519 267.174 154.866 261.913 157.191C261.239 157.489 260.577 157.81 259.927 158.149C257.846 159.237 255.901 160.271 254.125 161.57C246.814 166.389 242.757 173.583 240.209 181.661C238.934 185.701 238.027 189.954 237.257 194.23C237.186 227.841 205.805 252.427 171.547 245.624C170.196 245.304 169.084 244.755 167.777 244.29C163.598 242.619 159.794 240.284 156.412 237.138C150.694 231.738 147.399 225.257 144.985 218.343C144.18 216.039 143.473 213.687 142.807 211.31C140.866 204.218 139.275 196.643 133.823 191.066C125.647 182.703 115.084 178.765 105.319 171.956C89.8596 161.195 90.9252 140.835 101.96 130.496C103.691 128.755 105.43 127.264 107.213 125.625C116.446 117.822 129.041 117.101 141.028 114.481C148.126 112.77 154.463 109.095 157.266 102.212C163.309 88.1339 167.305 73.7737 176.971 62.4646C178.309 60.7572 179.712 59.1079 181.183 57.5339C185.596 52.8141 190.615 48.7819 196.272 45.9243C198.535 44.7813 200.9 43.8268 203.369 43.0912C229.981 34.0224 264.625 43.4539 282.472 70.8417C285.717 75.8213 288.766 80.8835 291.227 86.1921C293.21 90.5605 295.041 94.8647 296.489 99.5835C296.886 101.066 297.327 102.402 297.699 103.881C298.315 106.285 298.712 108.478 298.866 110.406L298.866 110.407Z" fill="#F0F0F0"/>
<path d="M156.182 84.2495C153.539 88.0881 150.101 90.7297 146.653 91.9104C143.206 93.0901 139.721 92.8181 136.972 90.8346C134.223 88.8512 132.729 85.5311 132.563 81.7536C132.398 77.9761 133.587 73.732 136.214 69.8965C138.842 66.0609 142.424 63.3561 146.058 62.098C149.692 60.8409 153.338 61.0446 156.089 63.0301C158.839 65.0157 160.19 68.3989 160.181 72.2497C160.172 76.1006 158.825 80.4099 156.181 84.2495L156.182 84.2495Z" fill="#F0F0F0"/>
<path d="M275.525 177.581C278.752 183.971 274.435 191.916 267.634 195.274C264.03 197.076 260.194 197.487 256.853 196.758C253.513 196.029 250.647 194.174 249.036 191.358C247.424 188.541 247.367 185.294 248.577 182.325C251.332 175.688 259.62 171.901 267.177 172.657C270.819 173.059 273.93 174.693 275.526 177.581L275.525 177.581Z" fill="#F0F0F0"/>
<mask id="mask1_2541_7569" style="mask-type:luminance" maskUnits="userSpaceOnUse" x="93" y="39" width="206" height="208">
<path d="M298.866 110.407C299.144 113.893 298.671 116.989 298.2 120.168C298.051 121.181 297.86 122.184 297.629 123.173C297.525 123.618 297.421 124.055 297.317 124.493C295.978 130.147 293.376 135.295 289.61 139.466C289.49 139.599 289.369 139.732 289.246 139.863C285.632 143.692 281.693 147.126 276.936 149.695C272.235 152.52 267.174 154.867 261.913 157.192C261.239 157.489 260.577 157.81 259.927 158.149C257.846 159.237 255.901 160.271 254.125 161.57C246.814 166.39 242.757 173.583 240.209 181.662C238.934 185.701 238.027 189.954 237.257 194.23C237.186 227.841 205.805 252.428 171.547 245.625C170.196 245.305 169.084 244.756 167.777 244.29C163.598 242.619 159.794 240.284 156.412 237.138C150.694 231.738 147.399 225.258 144.985 218.344C144.18 216.039 143.473 213.687 142.807 211.31C140.866 204.219 139.275 196.644 133.823 191.067C125.647 182.703 115.084 178.766 105.319 171.956C89.8596 161.195 90.9252 140.836 101.96 130.497C103.691 128.756 105.43 127.264 107.213 125.625C116.446 117.822 129.041 117.101 141.028 114.481C148.126 112.771 154.463 109.096 157.266 102.212C163.309 88.1343 167.305 73.7742 176.971 62.4651C178.309 60.7577 179.712 59.1084 181.183 57.5344C185.596 52.8146 190.615 48.7824 196.272 45.9248C198.535 44.7818 200.9 43.8272 203.369 43.0917C229.981 34.0229 264.625 43.4544 282.472 70.8422C285.717 75.8218 288.766 80.884 291.227 86.1926C293.21 90.561 295.041 94.8652 296.489 99.584C296.886 101.066 297.327 102.403 297.699 103.881C298.315 106.285 298.712 108.479 298.866 110.406L298.866 110.407ZM160.182 72.2501C160.191 68.3993 158.84 65.016 156.09 63.0305C153.339 61.045 149.693 60.8402 146.059 62.0984C142.426 63.3555 138.844 66.0613 136.215 69.8968C133.587 73.7324 132.399 77.9765 132.564 81.754C132.729 85.5315 134.224 88.8515 136.973 90.835C139.723 92.8185 143.207 93.0905 146.654 91.9108C150.102 90.7311 153.54 88.0895 156.184 84.2499C158.827 80.4113 160.174 76.101 160.183 72.2501L160.182 72.2501ZM267.177 172.658C259.621 171.901 251.332 175.688 248.576 182.326C247.367 185.295 247.424 188.542 249.035 191.359C250.647 194.176 253.511 196.03 256.853 196.76C260.193 197.489 264.03 197.079 267.633 195.275C274.435 191.917 278.752 183.972 275.524 177.583C273.928 174.696 270.818 173.061 267.176 172.658L267.177 172.658Z" fill="white"/>
</mask>
<g mask="url(#mask1_2541_7569)">
<g style="mix-blend-mode:multiply" opacity="0.19">
<path d="M250.62 76.8853L164.27 76.8853C157.227 76.8853 151.518 82.5948 151.518 89.6379L151.518 195.202C151.518 202.245 157.227 207.954 164.27 207.954L250.62 207.954C257.663 207.954 263.372 202.245 263.372 195.202L263.372 89.6379C263.372 82.5948 257.663 76.8853 250.62 76.8853Z" fill="#231F20"/>
</g>
</g>
<path d="M241.946 68.3882L155.596 68.3882C148.553 68.3882 142.844 74.0977 142.844 81.1408L142.844 186.705C142.844 193.748 148.553 199.457 155.596 199.457L241.946 199.457C248.989 199.457 254.698 193.748 254.698 186.705L254.698 81.1408C254.698 74.0977 248.989 68.3882 241.946 68.3882Z" fill="white"/>
<path d="M200 150C216.845 150 230.5 136.345 230.5 119.5C230.5 102.656 216.845 89.0005 200 89.0005C183.155 89.0005 169.5 102.656 169.5 119.5C169.5 136.345 183.155 150 200 150Z" fill="#22C55E" stroke="#22C55E" stroke-width="6.02585" stroke-miterlimit="10" stroke-linecap="round"/>
<path d="M188.85 121.666L194.973 128.201C195.359 128.613 196.01 128.624 196.41 128.224L213.45 111.184" stroke="white" stroke-width="6" stroke-miterlimit="10" stroke-linecap="round"/>
<path d="M170.955 168L229.045 168" stroke="#414143" stroke-width="4" stroke-miterlimit="10" stroke-linecap="round"/>
<path d="M180.255 178L219.744 178" stroke="#414143" stroke-width="4" stroke-miterlimit="10" stroke-linecap="round"/>
<path d="M58.195 154.253C57.8544 154.885 57.4309 155.331 56.5882 155.533C57.6291 157.767 58.5148 159.021 59.91 160.801C61.0512 160.314 61.5677 159.737 61.8981 159.271C60.0927 157.812 59.2679 156.457 58.1836 154.254L58.195 154.253Z" fill="#22C55E"/>
<path d="M157.229 21.8691C157.018 21.2867 156.546 20.9327 155.701 20.5183C154.997 21.5467 154.434 22.0676 153.342 22.6841C153.951 23.0169 154.268 23.3966 154.74 24.2269C155.842 23.5906 156.513 22.8921 157.229 21.8691Z" fill="#EF4444"/>
</g>
<defs>
<clipPath id="clip0_2541_7569">
<rect width="387" height="266" fill="white" transform="translate(0.5)"/>
</clipPath>
<clipPath id="clip1_2541_7569">
<rect width="433.522" height="281.293" fill="white" transform="translate(44.0488 -53) rotate(22.9201)"/>
</clipPath>
</defs>
</svg>
