<svg width="52" height="53" viewBox="0 0 52 53" fill="none" xmlns="http://www.w3.org/2000/svg">
<path d="M40.95 43.2336V43.8836C40.95 45.3195 39.7859 46.4836 38.35 46.4836H12.35C10.9141 46.4836 9.75 45.3195 9.75 43.8836V8.78359C9.75 7.34765 10.9141 6.18359 12.35 6.18359H25.35H28.4703C29.9062 6.18359 31.0703 7.34765 31.0703 8.78359V13.6586C31.0703 15.0945 32.2343 16.2586 33.6703 16.2586H38.35C39.7859 16.2586 40.95 17.4227 40.95 18.8586V19.8499" stroke="#4D4D4F" stroke-width="2.6" stroke-linecap="round"/>
<circle cx="40.2997" cy="30.9828" r="7.8" stroke="#E31837" stroke-width="2.6"/>
<path d="M36.8315 30.9822L39.1438 33.2945L43.7683 28.6699" stroke="#E31837" stroke-width="2.6" stroke-linecap="round" stroke-linejoin="round"/>
<path d="M30.4839 7.16309L40.3591 17.2186" stroke="#4D4D4F" stroke-width="2.6" stroke-linecap="round" stroke-linejoin="round"/>
<path d="M15.6001 15.9336H26.0001" stroke="#4D4D4F" stroke-width="2.6" stroke-linecap="round" stroke-linejoin="round"/>
<path d="M15.6001 23.7334H30.1104" stroke="#4D4D4F" stroke-width="2.6" stroke-linecap="round" stroke-linejoin="round"/>
<path d="M15.6001 31.5342H26.0001" stroke="#4D4D4F" stroke-width="2.6" stroke-linecap="round" stroke-linejoin="round"/>
</svg>
