<svg width="15" height="15" viewBox="0 0 15 15" fill="none" xmlns="http://www.w3.org/2000/svg">
<path fill-rule="evenodd" clip-rule="evenodd" d="M6.58011 1.4267C6.86092 1.2686 7.17773 1.18555 7.49998 1.18555C7.82223 1.18555 8.13905 1.2686 8.41985 1.4267C8.70066 1.58479 8.93598 1.81259 9.10311 2.08812L9.10491 2.09109L14.3987 10.9286L14.4037 10.9372C14.5674 11.2207 14.6541 11.5422 14.655 11.8696C14.6559 12.197 14.5711 12.5189 14.409 12.8033C14.2468 13.0878 14.013 13.3248 13.7309 13.4908C13.4487 13.6569 13.128 13.7461 12.8006 13.7497L12.7937 13.7498L2.19936 13.7498C1.87199 13.7462 1.55126 13.6569 1.26909 13.4908C0.986918 13.3248 0.75314 13.0878 0.591013 12.8033C0.428886 12.5189 0.344061 12.197 0.344978 11.8696C0.345895 11.5422 0.432521 11.2207 0.596238 10.9372L0.601315 10.9286L5.89685 2.08811C6.06398 1.81259 6.29931 1.58479 6.58011 1.4267ZM7.49998 2.43555C7.39257 2.43555 7.28696 2.46323 7.19336 2.51593C7.10018 2.56839 7.02203 2.64388 6.96636 2.73516L1.67666 11.5659C1.62343 11.6595 1.59527 11.7653 1.59497 11.8731C1.59467 11.9822 1.62294 12.0895 1.67698 12.1843C1.73103 12.2792 1.80895 12.3582 1.90301 12.4135C1.99624 12.4684 2.1021 12.4981 2.21023 12.4998H12.7897C12.8979 12.4981 13.0037 12.4684 13.097 12.4135C13.191 12.3582 13.2689 12.2791 13.323 12.1843C13.377 12.0895 13.4053 11.9822 13.405 11.8731C13.4047 11.7654 13.3765 11.6596 13.3233 11.5659L8.03436 2.7364C8.03411 2.73599 8.03385 2.73557 8.0336 2.73516C7.97794 2.64388 7.89979 2.56839 7.80661 2.51593C7.713 2.46323 7.6074 2.43555 7.49998 2.43555ZM7.49998 4.99976C7.84516 4.99976 8.12498 5.27958 8.12498 5.62476V8.12476C8.12498 8.46994 7.84516 8.74976 7.49998 8.74976C7.1548 8.74976 6.87498 8.46994 6.87498 8.12476V5.62476C6.87498 5.27958 7.1548 4.99976 7.49998 4.99976ZM6.87498 10.6248C6.87498 10.2796 7.1548 9.99976 7.49998 9.99976H7.50623C7.85141 9.99976 8.13123 10.2796 8.13123 10.6248C8.13123 10.9699 7.85141 11.2498 7.50623 11.2498H7.49998C7.1548 11.2498 6.87498 10.9699 6.87498 10.6248Z" fill="#231F20"/>
</svg>
