<svg width="14" height="14" viewBox="0 0 14 14" fill="none" xmlns="http://www.w3.org/2000/svg">
<g clip-path="url(#clip0_1864_2174)">
<path d="M10.5 4.6665H11.0833C11.7022 4.6665 12.2957 4.91234 12.7332 5.34992C13.1708 5.78751 13.4167 6.381 13.4167 6.99984C13.4167 7.61868 13.1708 8.21217 12.7332 8.64975C12.2957 9.08734 11.7022 9.33317 11.0833 9.33317H10.5" stroke="#231F20" stroke-width="1.3" stroke-linecap="round" stroke-linejoin="round"/>
<path d="M1.16663 4.6665H10.5V9.9165C10.5 10.5353 10.2541 11.1288 9.81654 11.5664C9.37896 12.004 8.78546 12.2498 8.16663 12.2498H3.49996C2.88112 12.2498 2.28763 12.004 1.85004 11.5664C1.41246 11.1288 1.16663 10.5353 1.16663 9.9165V4.6665Z" stroke="#231F20" stroke-width="1.3" stroke-linecap="round" stroke-linejoin="round"/>
<path d="M3.5 0.583496V2.3335" stroke="#EF4444" stroke-width="1.3" stroke-linecap="round" stroke-linejoin="round"/>
<path d="M5.83337 0.583496V2.3335" stroke="#EF4444" stroke-width="1.3" stroke-linecap="round" stroke-linejoin="round"/>
<path d="M8.16663 0.583496V2.3335" stroke="#EF4444" stroke-width="1.3" stroke-linecap="round" stroke-linejoin="round"/>
</g>
<defs>
<clipPath id="clip0_1864_2174">
<rect width="14" height="14" fill="white"/>
</clipPath>
</defs>
</svg>
