<svg width="15" height="15" viewBox="0 0 15 15" fill="none" xmlns="http://www.w3.org/2000/svg">
<g clip-path="url(#clip0_1836_611)">
<path fill-rule="evenodd" clip-rule="evenodd" d="M8.66762 13.6377C8.41126 13.8901 7.99563 13.8901 7.73927 13.6377L2.96302 8.93494C2.70666 8.68251 2.70666 8.27328 2.96302 8.02085C3.21938 7.76844 3.63501 7.76844 3.89137 8.02085L8.66762 12.7236C8.92398 12.976 8.92398 13.3853 8.66762 13.6377Z" fill="#231F20"/>
<path d="M5.92718 2.2749C6.59009 2.29129 7.22056 2.63111 7.67989 3.21962C8.13922 3.80813 8.38979 4.59711 8.37648 5.41299C8.36316 6.22888 8.08706 7.00483 7.60889 7.57017C7.13073 8.13551 6.48969 8.44388 5.82678 8.42751" stroke="#231F20" stroke-width="1.2"/>
<path fill-rule="evenodd" clip-rule="evenodd" d="M11.9426 2.30504C11.9426 2.662 11.6487 2.95138 11.2861 2.95138H3.40882C3.04628 2.95138 2.75238 2.662 2.75238 2.30504C2.75238 1.94807 3.04628 1.65869 3.40882 1.65869H11.2861C11.6487 1.65869 11.9426 1.94807 11.9426 2.30504Z" fill="#231F20"/>
<path fill-rule="evenodd" clip-rule="evenodd" d="M6.50238 8.42788C6.50238 8.76776 6.22256 9.04327 5.87738 9.04327H3.37738C3.0322 9.04327 2.75238 8.76776 2.75238 8.42788C2.75238 8.08801 3.0322 7.8125 3.37738 7.8125H5.87738C6.22256 7.8125 6.50238 8.08801 6.50238 8.42788Z" fill="#231F20"/>
<path fill-rule="evenodd" clip-rule="evenodd" d="M11.9426 5.38218C11.9426 5.73915 11.6487 6.02853 11.2861 6.02853H3.40882C3.04628 6.02853 2.75238 5.73915 2.75238 5.38218C2.75238 5.02522 3.04628 4.73584 3.40882 4.73584H11.2861C11.6487 4.73584 11.9426 5.02522 11.9426 5.38218Z" fill="#231F20"/>
</g>
<defs>
<clipPath id="clip0_1836_611">
<rect width="10" height="12.3077" fill="white" transform="translate(2.5 1.65869)"/>
</clipPath>
</defs>
</svg>
