<svg width="14" height="14" viewBox="0 0 14 14" fill="none" xmlns="http://www.w3.org/2000/svg">
<path fill-rule="evenodd" clip-rule="evenodd" d="M3.79167 2.91667C3.30842 2.91667 2.91667 3.30842 2.91667 3.79167C2.91667 4.27492 3.30842 4.66667 3.79167 4.66667C4.27492 4.66667 4.66667 4.27492 4.66667 3.79167C4.66667 3.30842 4.27492 2.91667 3.79167 2.91667ZM1.75 3.79167C1.75 2.66409 2.66409 1.75 3.79167 1.75C4.91925 1.75 5.83333 2.66409 5.83333 3.79167C5.83333 4.91925 4.91925 5.83333 3.79167 5.83333C2.66409 5.83333 1.75 4.91925 1.75 3.79167ZM10.6709 2.50419C10.8987 2.27638 11.268 2.27638 11.4958 2.50419C11.7236 2.73199 11.7236 3.10134 11.4958 3.32915L3.32915 11.4958C3.10134 11.7236 2.73199 11.7236 2.50419 11.4958C2.27638 11.268 2.27638 10.8987 2.50419 10.6709L10.6709 2.50419ZM10.2083 9.33333C9.72508 9.33333 9.33333 9.72508 9.33333 10.2083C9.33333 10.6916 9.72508 11.0833 10.2083 11.0833C10.6916 11.0833 11.0833 10.6916 11.0833 10.2083C11.0833 9.72508 10.6916 9.33333 10.2083 9.33333ZM8.16667 10.2083C8.16667 9.08075 9.08075 8.16667 10.2083 8.16667C11.3359 8.16667 12.25 9.08075 12.25 10.2083C12.25 11.3359 11.3359 12.25 10.2083 12.25C9.08075 12.25 8.16667 11.3359 8.16667 10.2083Z" fill="#231F20"/>
<path fill-rule="evenodd" clip-rule="evenodd" d="M10.6709 2.50435C10.8987 2.27654 11.268 2.27654 11.4959 2.50435C11.7237 2.73216 11.7237 3.1015 11.4959 3.32931L3.32919 11.496C3.10138 11.7238 2.73203 11.7238 2.50423 11.496C2.27642 11.2682 2.27642 10.8988 2.50423 10.671L10.6709 2.50435Z" fill="#EF4444"/>
</svg>
