<svg width="15" height="15" viewBox="0 0 15 15" fill="none" xmlns="http://www.w3.org/2000/svg">
<g clip-path="url(#clip0_1836_635)">
<path fill-rule="evenodd" clip-rule="evenodd" d="M12.8526 2.07249C12.7003 1.94181 12.5054 1.87158 12.3048 1.87513L12.2938 1.87523H11.25V7.50023H12.2938L12.3048 7.50032C12.5054 7.50387 12.7003 7.43364 12.8526 7.30297C12.9956 7.18016 13.0917 7.01201 13.125 6.82719V2.54827C13.0917 2.36344 12.9956 2.19529 12.8526 2.07249ZM10 7.99259L7.74513 13.0661C7.55676 13.006 7.38354 12.9015 7.24114 12.7591C7.00671 12.5247 6.87502 12.2067 6.87502 11.8752V9.37523C6.87502 9.03005 6.5952 8.75023 6.25002 8.75023H2.71252L2.70544 8.75027C2.61485 8.75129 2.52511 8.73261 2.44245 8.69551C2.35979 8.65841 2.28619 8.60379 2.22674 8.53542C2.16729 8.46705 2.12341 8.38657 2.09815 8.29956C2.07292 8.21267 2.06686 8.12134 2.08039 8.03187C2.08037 8.03199 2.08041 8.03175 2.08039 8.03187L2.94295 2.40644C2.96555 2.2574 3.04126 2.12156 3.15611 2.02393C3.27096 1.92631 3.41723 1.87348 3.56795 1.87519L10 1.87523V7.99259ZM12.2887 0.625226C12.7935 0.617768 13.2836 0.795118 13.6667 1.12399C14.0514 1.45417 14.3014 1.91409 14.3694 2.41645C14.3731 2.44422 14.375 2.47221 14.375 2.50023V6.87523C14.375 6.90325 14.3731 6.93124 14.3694 6.959C14.3014 7.46136 14.0514 7.92128 13.6667 8.25146C13.2836 8.58033 12.7935 8.75768 12.2887 8.75023H11.0312L8.69615 14.0041C8.59584 14.2298 8.37201 14.3752 8.12502 14.3752C7.46198 14.3752 6.82609 14.1118 6.35725 13.643C5.88841 13.1742 5.62502 12.5383 5.62502 11.8752V10.0002H2.71572C2.44525 10.0027 2.17742 9.94668 1.93062 9.83592C1.68265 9.72463 1.46183 9.56075 1.28348 9.35564C1.10513 9.15053 0.973498 8.9091 0.897715 8.64808C0.821933 8.38705 0.803808 8.11266 0.844596 7.84394L1.70708 2.21902C1.70706 2.2192 1.70711 2.21883 1.70708 2.21902C1.77499 1.77214 2.00214 1.36426 2.34655 1.07151C2.69012 0.779476 3.12739 0.621064 3.5782 0.625226H12.2887Z" fill="#231F20"/>
</g>
<defs>
<clipPath id="clip0_1836_635">
<rect width="15" height="15" fill="white"/>
</clipPath>
</defs>
</svg>
