<svg width="20" height="20" viewBox="0 0 20 20" fill="none" xmlns="http://www.w3.org/2000/svg">
<g clip-path="url(#clip0_3715_2329)">
<path fill-rule="evenodd" clip-rule="evenodd" d="M12.0837 2.50033C12.0837 2.04009 12.4568 1.66699 12.917 1.66699H15.0003C16.8413 1.66699 18.3337 3.15938 18.3337 5.00033V15.0003C18.3337 16.8413 16.8413 18.3337 15.0003 18.3337H5.00033C3.15938 18.3337 1.66699 16.8413 1.66699 15.0003V13.7503C1.66699 13.2901 2.04009 12.917 2.50033 12.917C2.96056 12.917 3.33366 13.2901 3.33366 13.7503V15.0003C3.33366 15.9208 4.07985 16.667 5.00033 16.667H15.0003C15.9208 16.667 16.667 15.9208 16.667 15.0003V5.00033C16.667 4.07985 15.9208 3.33366 15.0003 3.33366H12.917C12.4568 3.33366 12.0837 2.96056 12.0837 2.50033Z" fill="#231F20"/>
<path fill-rule="evenodd" clip-rule="evenodd" d="M10 9.99984C10 9.5396 10.3731 9.1665 10.8333 9.1665H15C15.4602 9.1665 15.8333 9.5396 15.8333 9.99984C15.8333 10.4601 15.4602 10.8332 15 10.8332H10.8333C10.3731 10.8332 10 10.4601 10 9.99984Z" fill="#231F20"/>
<path fill-rule="evenodd" clip-rule="evenodd" d="M10 12.4998C10 12.0396 10.3731 11.6665 10.8333 11.6665H14.1667C14.6269 11.6665 15 12.0396 15 12.4998C15 12.9601 14.6269 13.3332 14.1667 13.3332H10.8333C10.3731 13.3332 10 12.9601 10 12.4998Z" fill="#231F20"/>
<mask id="mask0_3715_2329" style="mask-type:alpha" maskUnits="userSpaceOnUse" x="-5" y="-4" width="21" height="21">
<path d="M2.7781 2.59259H8.88921M3.79662 2.59259C4.19788 2.59259 4.59522 2.67163 4.96593 2.82518C5.33665 2.97874 5.67349 3.20381 5.95723 3.48754C6.24096 3.77128 6.46603 4.10812 6.61959 4.47884C6.77314 4.84956 6.85218 5.24689 6.85218 5.64815C6.85218 6.04941 6.77314 6.44674 6.61959 6.81746C6.46603 7.18818 6.24096 7.52502 5.95723 7.80875C5.67349 8.09249 5.33665 8.31756 4.96593 8.47111C4.59522 8.62467 4.19788 8.7037 3.79662 8.7037H2.7781L5.83366 11.7593M2.7781 5.64815H8.88921M15.0003 6.66667C15.0003 7.87045 14.7632 9.06245 14.3026 10.1746C13.8419 11.2867 13.1667 12.2973 12.3155 13.1485C11.4643 13.9997 10.4537 14.6749 9.34159 15.1356C8.22944 15.5962 7.03744 15.8333 5.83366 15.8333C4.62988 15.8333 3.43788 15.5962 2.32573 15.1356C1.21358 14.6749 0.20305 13.9997 -0.648153 13.1485C-1.49936 12.2973 -2.17457 11.2867 -2.63524 10.1746C-3.09591 9.06245 -3.33301 7.87045 -3.33301 6.66667C-3.33301 4.23552 -2.36724 1.90394 -0.648153 0.184855C1.07093 -1.53423 3.40251 -2.5 5.83366 -2.5C8.26481 -2.5 10.5964 -1.53423 12.3155 0.184855C14.0346 1.90394 15.0003 4.23552 15.0003 6.66667Z" stroke="#231F20" stroke-width="1.8" stroke-linecap="round" stroke-linejoin="round"/>
</mask>
<g mask="url(#mask0_3715_2329)">
<circle cx="5.62565" cy="6.45866" r="6.66667" fill="#EF4444"/>
</g>
</g>
<defs>
<clipPath id="clip0_3715_2329">
<rect width="20" height="20" fill="white"/>
</clipPath>
</defs>
</svg>
