<svg width="20" height="20" viewBox="0 0 20 20" fill="none" xmlns="http://www.w3.org/2000/svg">
<path fill-rule="evenodd" clip-rule="evenodd" d="M12.7085 4.0835C12.7085 3.66928 13.0443 3.3335 13.4585 3.3335H15.3335C16.9904 3.3335 18.3335 4.67664 18.3335 6.3335V15.3335C18.3335 16.9904 16.9904 18.3335 15.3335 18.3335H6.3335C4.67664 18.3335 3.3335 16.9904 3.3335 15.3335V14.2085C3.3335 13.7943 3.66928 13.4585 4.0835 13.4585C4.49771 13.4585 4.8335 13.7943 4.8335 14.2085V15.3335C4.8335 16.1619 5.50507 16.8335 6.3335 16.8335H15.3335C16.1619 16.8335 16.8335 16.1619 16.8335 15.3335V6.3335C16.8335 5.50507 16.1619 4.8335 15.3335 4.8335H13.4585C13.0443 4.8335 12.7085 4.49771 12.7085 4.0835Z" fill="#231F20"/>
<path fill-rule="evenodd" clip-rule="evenodd" d="M10.8333 10.8333C10.8333 10.3731 11.153 10 11.5475 10H15.119C15.5135 10 15.8333 10.3731 15.8333 10.8333C15.8333 11.2936 15.5135 11.6667 15.119 11.6667H11.5475C11.153 11.6667 10.8333 11.2936 10.8333 10.8333Z" fill="#231F20"/>
<path fill-rule="evenodd" clip-rule="evenodd" d="M10.8333 13.3333C10.8333 12.8731 11.2063 12.5 11.6666 12.5H14.9999C15.4602 12.5 15.8333 12.8731 15.8333 13.3333C15.8333 13.7936 15.4602 14.1667 14.9999 14.1667H11.6666C11.2063 14.1667 10.8333 13.7936 10.8333 13.3333Z" fill="#231F20"/>
<path fill-rule="evenodd" clip-rule="evenodd" d="M7.49825 2.92976C6.69245 2.57071 5.79218 2.48176 4.93169 2.67618C4.07121 2.87059 3.29662 3.33795 2.72346 4.00856C2.15029 4.67916 1.80926 5.51708 1.75121 6.39734C1.69317 7.2776 1.92122 8.15304 2.40137 8.8931C2.88152 9.63316 3.58803 10.1982 4.41553 10.5039C5.24304 10.8096 6.1472 10.8397 6.99317 10.5895C7.83914 10.3394 8.58159 9.82252 9.1098 9.11596C9.638 8.40939 9.92366 7.55102 9.92416 6.66885V6.25092C9.92416 5.99988 10.1277 5.79638 10.3787 5.79638C10.6297 5.79638 10.8333 5.99988 10.8333 6.25092V6.66911C10.8326 7.74732 10.4835 8.7967 9.83792 9.66028C9.19233 10.5239 8.28489 11.1556 7.25093 11.4613C6.21697 11.767 5.11188 11.7303 4.10049 11.3567C3.08909 10.983 2.22558 10.2924 1.63873 9.3879C1.05189 8.48338 0.773148 7.4134 0.84409 6.33752C0.915033 5.26165 1.33186 4.23753 2.03239 3.4179C2.73293 2.59828 3.67964 2.02706 4.73135 1.78944C5.78305 1.55182 6.88338 1.66053 7.86825 2.09937C8.09756 2.20154 8.20062 2.47025 8.09845 2.69956C7.99627 2.92887 7.72756 3.03193 7.49825 2.92976ZM10.7 2.71117C10.8776 2.88859 10.8777 3.17639 10.7003 3.35399L6.15483 7.90399C6.0696 7.98931 5.95396 8.03726 5.83337 8.03729C5.71278 8.03732 5.59711 7.98943 5.51184 7.90415L4.14821 6.54052C3.97069 6.36301 3.97069 6.0752 4.14821 5.89769C4.32572 5.72018 4.61352 5.72018 4.79103 5.89769L5.83309 6.93976L10.0571 2.71149C10.2346 2.53389 10.5224 2.53375 10.7 2.71117Z" fill="#EF4444" stroke="#EF4444" stroke-width="0.35" stroke-linecap="round" stroke-linejoin="round"/>
</svg>
