<svg width="21" height="21" viewBox="0 0 21 21" fill="none" xmlns="http://www.w3.org/2000/svg">
<path d="M17.3818 5.04321C17.3818 4.57908 17.1975 4.13396 16.8693 3.80578C16.5411 3.47759 16.096 3.29321 15.6318 3.29321C15.1677 3.29321 14.7226 3.47759 14.3944 3.80578C14.0662 4.13396 13.8818 4.57908 13.8818 5.04321" stroke="#231F20" stroke-width="0.75"/>
<path d="M2.83186 15.0685C2.83186 15.295 2.87648 15.5193 2.96317 15.7286C3.04986 15.9379 3.17692 16.128 3.3371 16.2882C3.49728 16.4484 3.68745 16.5755 3.89673 16.6621C4.10602 16.7488 4.33033 16.7935 4.55686 16.7935" stroke="#231F20" stroke-width="0.75"/>
<path d="M10.307 15.0685C10.307 15.295 10.3516 15.5193 10.4383 15.7286C10.525 15.9379 10.652 16.128 10.8122 16.2882C10.9724 16.4484 11.1625 16.5755 11.3718 16.6621C11.5811 16.7488 11.8054 16.7935 12.032 16.7935" stroke="#231F20" stroke-width="0.75"/>
<path d="M8.10723 3.30435C7.84626 3.27846 7.58201 3.29781 7.32959 3.36128C7.07716 3.42475 6.84149 3.53111 6.63603 3.67427C6.43058 3.81744 6.25937 3.99461 6.13217 4.19567C6.00496 4.39673 5.92427 4.61775 5.89469 4.8461" stroke="#231F20" stroke-width="0.75"/>
<path d="M8.00696 3.29321H15.482" stroke="#231F20" stroke-width="0.75"/>
<path d="M4.55688 16.7935L12.0319 16.7935" stroke="#231F20" stroke-width="0.75" stroke-linecap="round"/>
<path d="M13.8818 5.29321H17.3818" stroke="#231F20" stroke-width="0.75" stroke-linecap="square"/>
<path d="M10.3069 15.0681L2.83189 15.0681" stroke="#231F20" stroke-width="0.75" stroke-linecap="square"/>
<path d="M5.88196 4.79321V15.2932" stroke="#231F20" stroke-width="0.75"/>
<path d="M13.8818 4.79321V10.7932" stroke="#231F20" stroke-width="0.75" stroke-linecap="round"/>
<path d="M7.43188 8.24292H12.0319" stroke="#EF4444" stroke-width="0.75"/>
<path d="M7.43188 6.79297H12.0319" stroke="#EF4444" stroke-width="0.75"/>
<path d="M7.43188 9.96826H12.0319" stroke="#EF4444" stroke-width="0.75"/>
<path d="M7.43188 11.6929H10.3069" stroke="#EF4444" stroke-width="0.75"/>
<path d="M17.993 14.4001C17.993 15.9901 16.7041 17.2791 15.1141 17.2791C13.5242 17.2791 12.2352 15.9901 12.2352 14.4001C12.2352 12.8102 13.5242 11.5212 15.1141 11.5212C16.7041 11.5212 17.993 12.8102 17.993 14.4001Z" fill="#EF4444" stroke="#EF4444" stroke-width="0.75"/>
<path d="M15.5125 16.067L14.0669 14.8013V14.4602H14.8636C15.0032 14.4602 15.1169 14.4393 15.2045 14.3974C15.2921 14.3525 15.3578 14.2837 15.4016 14.191C15.4454 14.0982 15.4673 13.9785 15.4673 13.8319C15.4673 13.6913 15.4468 13.5791 15.4057 13.4953C15.3674 13.4115 15.3044 13.3517 15.2168 13.3158C15.1292 13.2769 15.0128 13.2574 14.8677 13.2574H14.0669V12.9253H16.1614V13.2574H15.5946C15.6521 13.2933 15.7014 13.3382 15.7425 13.3921C15.7835 13.4429 15.815 13.5073 15.8369 13.5851C15.8588 13.6599 15.8698 13.7511 15.8698 13.8588C15.8698 14.0533 15.8342 14.2209 15.763 14.3615C15.6918 14.5021 15.5891 14.6098 15.455 14.6846C15.3236 14.7594 15.162 14.7968 14.9704 14.7968H14.5885L14.5844 14.6891L16.149 16.067H15.5125ZM14.0669 14.0249V13.6838H16.1614V14.0249H14.0669Z" fill="white"/>
</svg>
