<svg width="12" height="12" viewBox="0 0 12 12" fill="none" xmlns="http://www.w3.org/2000/svg">
<g clip-path="url(#clip0_2663_77413)">
<path fill-rule="evenodd" clip-rule="evenodd" d="M11.2563 0.743895C11.3896 0.877244 11.4348 1.07519 11.3725 1.25319L7.93616 11.0714C7.86967 11.2613 7.69394 11.3915 7.49283 11.3997C7.29171 11.4079 7.10597 11.2925 7.02422 11.1086L5.13727 6.86292L0.891632 4.97597C0.707698 4.89423 0.592303 4.70848 0.600508 4.50737C0.608713 4.30625 0.738855 4.13052 0.928837 4.06403L10.747 0.627672C10.925 0.565373 11.1229 0.610546 11.2563 0.743895ZM6.09471 6.59973L7.41852 9.5783L9.73518 2.95926L6.09471 6.59973ZM9.04093 2.26501L2.4219 4.58167L5.40046 5.90548L9.04093 2.26501Z" fill="#231F20"/>
<path fill-rule="evenodd" clip-rule="evenodd" d="M6.09464 6.59966L5.40039 5.90541L9.04086 2.26495L9.92727 2.07275L9.73511 2.9592L6.09464 6.59966Z" fill="#EF4444"/>
</g>
<defs>
<clipPath id="clip0_2663_77413">
<rect width="12" height="12" fill="white"/>
</clipPath>
</defs>
</svg>
