<svg width="200" height="20" viewBox="0 0 200 20" fill="none" xmlns="http://www.w3.org/2000/svg">
<mask id="path-1-inside-1_1450_13402" fill="white">
<path fill-rule="evenodd" clip-rule="evenodd" d="M184.831 20L200 10L184.831 0V6H0V14H184.831V20Z"/>
</mask>
<path fill-rule="evenodd" clip-rule="evenodd" d="M184.831 20L200 10L184.831 0V6H0V14H184.831V20Z" fill="#D6D6D6"/>
<path d="M200 10L200.55 10.8349L201.817 10L200.55 9.16509L200 10ZM184.831 20H183.831V21.857L185.381 20.8349L184.831 20ZM184.831 0L185.381 -0.834907L183.831 -1.85696V0H184.831ZM184.831 6V7H185.831V6H184.831ZM0 6V5H-1V6H0ZM0 14H-1V15H0V14ZM184.831 14H185.831V13H184.831V14ZM199.45 9.16509L184.28 19.1651L185.381 20.8349L200.55 10.8349L199.45 9.16509ZM184.28 0.834907L199.45 10.8349L200.55 9.16509L185.381 -0.834907L184.28 0.834907ZM185.831 6V0H183.831V6H185.831ZM0 7H184.831V5H0V7ZM1 14V6H-1V14H1ZM184.831 13H0V15H184.831V13ZM185.831 20V14H183.831V20H185.831Z" fill="#D6D6D6" mask="url(#path-1-inside-1_1450_13402)"/>
</svg>
