<svg width="24" height="24" viewBox="0 0 24 24" fill="none" xmlns="http://www.w3.org/2000/svg">
<path fill-rule="evenodd" clip-rule="evenodd" d="M11.4454 2.16795C11.7813 1.94402 12.2189 1.94402 12.5548 2.16795L21.5548 8.16795C22.0143 8.4743 22.1385 9.09517 21.8322 9.5547C21.5258 10.0142 20.9049 10.1384 20.4454 9.83205L12.0001 4.20185L3.55481 9.83205C3.09528 10.1384 2.47441 10.0142 2.16806 9.5547C1.8617 9.09517 1.98588 8.4743 2.44541 8.16795L11.4454 2.16795Z" fill="#231F20"/>
<path fill-rule="evenodd" clip-rule="evenodd" d="M17 9C17.5523 9 18 9.44772 18 10V15C18 15.5523 17.5523 16 17 16C16.4477 16 16 15.5523 16 15V10C16 9.44772 16.4477 9 17 9Z" fill="#231F20"/>
<path fill-rule="evenodd" clip-rule="evenodd" d="M12 9C12.5523 9 13 9.44772 13 10V15C13 15.5523 12.5523 16 12 16C11.4477 16 11 15.5523 11 15V10C11 9.44772 11.4477 9 12 9Z" fill="#231F20"/>
<path fill-rule="evenodd" clip-rule="evenodd" d="M7 9C7.55228 9 8 9.44772 8 10V15C8 15.5523 7.55228 16 7 16C6.44772 16 6 15.5523 6 15V10C6 9.44772 6.44772 9 7 9Z" fill="#231F20"/>
<path fill-rule="evenodd" clip-rule="evenodd" d="M20 18C20 18.5523 19.5523 19 19 19H5C4.44772 19 4 18.5523 4 18C4 17.4477 4.44772 17 5 17H19C19.5523 17 20 17.4477 20 18Z" fill="#231F20"/>
<path fill-rule="evenodd" clip-rule="evenodd" d="M22 21C22 21.5523 21.5523 22 21 22H3C2.44772 22 2 21.5523 2 21C2 20.4477 2.44772 20 3 20H21C21.5523 20 22 20.4477 22 21Z" fill="#231F20"/>
</svg>
