<svg width="20" height="20" viewBox="0 0 20 20" fill="none" xmlns="http://www.w3.org/2000/svg">
<g clip-path="url(#clip0_2244_11809)">
<path d="M1.72312 5.38685L9.66251 1.42236L17.5744 5.33159L17.5796 6.05165H1.71094L1.72312 5.38685Z" fill="#0094FF"/>
<path d="M1.8335 15.3223H17.4568V17.2493H1.8335L1.8335 15.3223Z" fill="#0094FF"/>
<path d="M5.57692 6.90137H3.78631H3.53593C3.34945 6.90137 3.19057 7.06022 3.19057 7.24673V7.9305V9.56398V11.548V13.2575C3.19057 13.5355 3.18366 13.8152 3.19057 14.0949V14.107C3.19057 14.2935 3.34943 14.4524 3.53593 14.4524H5.32655H5.57692C5.76341 14.4524 5.92228 14.2935 5.92228 14.107V13.4232V11.7897V9.80573V8.09626C5.92228 7.81826 5.93437 7.5368 5.92228 7.25882V7.24673C5.80659 7.36242 5.69263 7.47638 5.57692 7.59209C5.75823 7.59209 5.9309 7.43323 5.92228 7.24673C5.91365 7.06024 5.77033 6.90137 5.57692 6.90137C5.39044 6.90137 5.23156 7.06023 5.23156 7.24673V7.93051V9.56398V11.548V13.2575C5.23156 13.5355 5.21948 13.8169 5.23156 14.0949V14.107C5.34725 13.9913 5.46122 13.8773 5.57692 13.7616H3.78631H3.53593C3.65162 13.8773 3.76558 13.9913 3.88129 14.107V13.4232V11.7897V9.80573V8.09626C3.88129 7.81826 3.89338 7.5368 3.88129 7.25882V7.24673C3.7656 7.36242 3.65164 7.47638 3.53593 7.59209H5.32655H5.57692C5.75823 7.59209 5.9309 7.43323 5.92228 7.24673C5.91365 7.06024 5.77033 6.90137 5.57692 6.90137Z" fill="#0094FF"/>
<path d="M10.6658 13.7631H8.87517H8.6248L8.97016 14.1085V13.4247V11.7912V9.8072V8.09773C8.97016 7.81973 8.98225 7.53826 8.97016 7.26028V7.24819C8.85447 7.36389 8.7405 7.47785 8.6248 7.59355H10.4154H10.6658C10.5501 7.47786 10.4361 7.3639 10.3204 7.24819V7.93197V9.56544V11.5495V13.2589C10.3204 13.5369 10.3135 13.8167 10.3204 14.0964V14.1085C10.3204 14.2898 10.4793 14.4624 10.6658 14.4538C10.8523 14.4452 11.0112 14.3019 11.0112 14.1085V13.4247V11.7912V9.8072V8.09773C11.0112 7.81973 11.0181 7.54 11.0112 7.26028V7.24819C11.0112 7.06171 10.8523 6.90283 10.6658 6.90283H8.87517H8.6248C8.43831 6.90283 8.27944 7.06169 8.27944 7.24819V7.93197V9.56544V11.5495V13.2589C8.27944 13.5369 8.27253 13.8167 8.27944 14.0964V14.1085C8.27944 14.2949 8.43829 14.4538 8.6248 14.4538H10.4154H10.6658C10.8471 14.4538 11.0198 14.295 11.0112 14.1085C11.0025 13.9202 10.8592 13.7631 10.6658 13.7631Z" fill="#0094FF"/>
<path d="M15.7547 13.7631H13.964H13.7137C13.8294 13.8788 13.9433 13.9927 14.059 14.1085V13.4247V11.7912V9.8072V8.09773C14.059 7.81973 14.0711 7.53826 14.059 7.26028V7.24819C13.9433 7.36389 13.8294 7.47785 13.7137 7.59355H15.5043H15.7547C15.639 7.47786 15.525 7.3639 15.4093 7.24819V7.93197V9.56544V11.5495V13.2589C15.4093 13.5369 15.4024 13.8167 15.4093 14.0964V14.1085C15.4093 14.2898 15.5682 14.4624 15.7547 14.4538C15.9412 14.4452 16.1 14.3019 16.1 14.1085V13.4247V11.7912V9.8072V8.09773C16.1 7.81973 16.1069 7.54 16.1 7.26028V7.24819C16.1 7.06171 15.9412 6.90283 15.7547 6.90283H13.964H13.7137C13.5272 6.90283 13.3683 7.06169 13.3683 7.24819V7.93197V9.56544V11.5495V13.2589C13.3683 13.5369 13.3614 13.8167 13.3683 14.0964V14.1085C13.3683 14.2949 13.5272 14.4538 13.7137 14.4538H15.5043H15.7547C15.936 14.4538 16.1086 14.295 16.1 14.1085C16.0914 13.9202 15.9481 13.7631 15.7547 13.7631Z" fill="#0094FF"/>
<path d="M1.89713 5.68538C2.16132 5.55243 2.42723 5.4212 2.69142 5.28824C3.32167 4.97398 3.95193 4.65798 4.58219 4.34372C5.34714 3.96212 6.11206 3.58051 6.87528 3.1989C7.53661 2.8691 8.19796 2.53928 8.85755 2.20775C9.17873 2.04716 9.50679 1.89693 9.82108 1.72598C9.82626 1.72426 9.82971 1.7208 9.83489 1.71908H9.48609C9.74855 1.84858 10.0127 1.97981 10.2752 2.10931C10.9037 2.42012 11.534 2.73094 12.1625 3.04173C12.924 3.41816 13.6838 3.79285 14.4452 4.16928C15.1049 4.49564 15.7644 4.82199 16.4258 5.14661C16.7435 5.30374 17.0595 5.4764 17.3841 5.61972C17.3893 5.62144 17.3928 5.6249 17.398 5.62662C17.341 5.52647 17.284 5.42805 17.227 5.3279C17.2287 5.56792 17.2305 5.80793 17.2322 6.04796C17.3479 5.93226 17.4618 5.8183 17.5776 5.7026H17.151H15.9959H14.2899H12.2092H9.92988H7.61952H5.47318H3.66012H2.35644C2.15096 5.7026 1.94376 5.69742 1.73828 5.7026H1.71065L2.05601 6.04796C2.05946 5.82694 2.06464 5.60591 2.0681 5.38489C2.07155 5.20359 1.90751 5.03091 1.72274 5.03953C1.5328 5.04817 1.38085 5.19148 1.37738 5.38489C1.37392 5.60591 1.36874 5.82694 1.36529 6.04796C1.36183 6.23444 1.52587 6.39332 1.71065 6.39332H2.13716H3.29234H4.99834H7.07903H9.35832H11.6687H13.815H15.6281H16.9318C17.1372 6.39332 17.3444 6.39677 17.5499 6.39332H17.5776C17.764 6.39332 17.9246 6.23446 17.9229 6.04796C17.9212 5.80794 17.9195 5.56793 17.9177 5.3279C17.9177 5.21221 17.8538 5.08271 17.7468 5.02918C17.4809 4.89795 17.2132 4.76672 16.9473 4.63377C16.3136 4.32124 15.6799 4.00869 15.0479 3.69443C14.2795 3.31456 13.5111 2.93469 12.7427 2.55479C12.0866 2.23017 11.4322 1.90726 10.776 1.58264C10.4652 1.42896 10.1561 1.27183 9.84358 1.12159C9.7158 1.05943 9.60011 1.06288 9.47233 1.12505C9.43607 1.14231 9.39981 1.16131 9.36355 1.17857C9.19951 1.26146 9.03375 1.34261 8.86969 1.42549C8.2688 1.72594 7.66617 2.02639 7.06528 2.32685C6.30724 2.70502 5.54749 3.08489 4.78945 3.46302C4.1005 3.80665 3.41325 4.15027 2.7243 4.49387C2.3496 4.68035 1.97491 4.86856 1.60192 5.05504C1.58465 5.06367 1.56739 5.07231 1.55012 5.08094C1.38781 5.16209 1.3291 5.40385 1.4258 5.55405C1.53112 5.72672 1.72445 5.77172 1.89713 5.68538Z" fill="#0094FF"/>
<path d="M1.83298 17.5929H2.25257H3.3853H5.07232H7.12368H9.37014H11.6373H13.7509H15.538H16.8227C17.0265 17.5929 17.2302 17.5964 17.4323 17.5929H17.4582C17.6447 17.5929 17.8035 17.4341 17.8035 17.2476V15.5605V15.3205C17.8035 15.134 17.6447 14.9752 17.4582 14.9752H17.0386H15.9059H14.2188H12.1675H9.92103H7.65382H5.5403H3.75312H2.46842C2.26467 14.9752 2.06092 14.9717 1.85888 14.9752H1.83298C1.64649 14.9752 1.48761 15.134 1.48761 15.3205V17.0076V17.2476C1.48761 17.4289 1.64647 17.6015 1.83298 17.5929C2.01948 17.5843 2.17834 17.441 2.17834 17.2476V15.5605V15.3205C2.06264 15.4362 1.94868 15.5502 1.83298 15.6659H2.25257H3.3853H5.07232H7.12368H9.37014H11.6373H13.7509H15.538H16.8227C17.0265 15.6659 17.2302 15.6711 17.4323 15.6659H17.4582C17.3425 15.5502 17.2285 15.4362 17.1128 15.3205V17.0076V17.2476C17.2285 17.1319 17.3425 17.0179 17.4582 16.9022H17.0386H15.9059H14.2188H12.1675H9.92103H7.65382H5.5403H3.75312H2.46842C2.26467 16.9022 2.06092 16.8988 1.85888 16.9022H1.83298C1.65167 16.9022 1.47899 17.0611 1.48761 17.2476C1.49625 17.4358 1.63957 17.5929 1.83298 17.5929Z" fill="#0094FF"/>
<path d="M5.57786 7.24658H3.53516V14.1087H5.57786V7.24658Z" fill="#0094FF"/>
<path d="M8.62305 7.24658H10.6658V14.1068H8.62305V7.24658Z" fill="#0094FF"/>
<path d="M13.7119 7.24658H15.7546V14.1068H13.7119L13.7119 7.24658Z" fill="#0094FF"/>
</g>
<defs>
<clipPath id="clip0_2244_11809">
<rect width="20" height="20" fill="white"/>
</clipPath>
</defs>
</svg>
