<svg width="20" height="20" viewBox="0 0 20 20" fill="none" xmlns="http://www.w3.org/2000/svg">
<path fill-rule="evenodd" clip-rule="evenodd" d="M9.53768 1.80671C9.81759 1.6201 10.1823 1.6201 10.4622 1.80671L17.9622 6.80671C18.3451 7.062 18.4486 7.57939 18.1933 7.96233C17.938 8.34527 17.4206 8.44875 17.0377 8.19346L9.99993 3.50162L2.96218 8.19346C2.57924 8.44875 2.06184 8.34527 1.80655 7.96233C1.55126 7.57939 1.65474 7.062 2.03768 6.80671L9.53768 1.80671Z" fill="#231F20"/>
<path fill-rule="evenodd" clip-rule="evenodd" d="M14.1668 7.5C14.6271 7.5 15.0002 7.8731 15.0002 8.33333V12.5C15.0002 12.9602 14.6271 13.3333 14.1668 13.3333C13.7066 13.3333 13.3335 12.9602 13.3335 12.5V8.33333C13.3335 7.8731 13.7066 7.5 14.1668 7.5Z" fill="#231F20"/>
<path fill-rule="evenodd" clip-rule="evenodd" d="M9.99984 7.5C10.4601 7.5 10.8332 7.8731 10.8332 8.33333V12.5C10.8332 12.9602 10.4601 13.3333 9.99984 13.3333C9.5396 13.3333 9.1665 12.9602 9.1665 12.5V8.33333C9.1665 7.8731 9.5396 7.5 9.99984 7.5Z" fill="#231F20"/>
<path fill-rule="evenodd" clip-rule="evenodd" d="M5.83333 7.5C6.29357 7.5 6.66667 7.8731 6.66667 8.33333V12.5C6.66667 12.9602 6.29357 13.3333 5.83333 13.3333C5.3731 13.3333 5 12.9602 5 12.5V8.33333C5 7.8731 5.3731 7.5 5.83333 7.5Z" fill="#231F20"/>
<path fill-rule="evenodd" clip-rule="evenodd" d="M16.6668 15.0001C16.6668 15.4603 16.2937 15.8334 15.8335 15.8334H4.16683C3.70659 15.8334 3.3335 15.4603 3.3335 15.0001C3.3335 14.5398 3.70659 14.1667 4.16683 14.1667H15.8335C16.2937 14.1667 16.6668 14.5398 16.6668 15.0001Z" fill="#EF4444"/>
<path fill-rule="evenodd" clip-rule="evenodd" d="M18.3332 17.5001C18.3332 17.9603 17.9601 18.3334 17.4998 18.3334H2.49984C2.0396 18.3334 1.6665 17.9603 1.6665 17.5001C1.6665 17.0398 2.0396 16.6667 2.49984 16.6667H17.4998C17.9601 16.6667 18.3332 17.0398 18.3332 17.5001Z" fill="#231F20"/>
</svg>
