<svg width="152" height="106" viewBox="0 0 152 106" fill="none" xmlns="http://www.w3.org/2000/svg">
<g clip-path="url(#clip0_2553_37161)">
<path d="M0.320267 109.357H12.4693C10.8079 108.511 9.65553 106.8 9.65553 104.81V97.1409C9.65553 94.4028 11.8804 92.1758 14.615 92.1758H18C17.9957 92.133 17.9837 92.0983 17.9837 92.053C17.9837 89.2859 22.1301 87.7093 25.448 88.7416C26.0256 86.7744 28.5679 85.3333 31.5718 85.3333C32.0921 85.3333 32.6012 85.3793 33.0911 85.4625V82.0156L30.5693 80.8162C29.2349 81.2671 27.8772 81.4833 26.5399 81.4833C21.2789 81.4833 16.3481 78.1702 14.5464 72.9149C14.4895 72.7468 14.5715 72.5593 14.7451 72.4998C21.2772 70.254 28.413 73.7045 30.7553 80.1952L33.0911 81.306V66.4426C31.7242 65.4492 27.5325 62.4029 27.8019 62.5986C15.2566 64.4969 3.72932 55.8761 1.74944 43.5356C1.72221 43.3664 1.83037 43.1866 2.01701 43.1562C14.5132 41.15 26.2596 49.6363 28.289 62.1616L33.0911 65.6548V48.2193C27.2402 47.4033 22.473 44.2462 19.4069 39.7415C13.2417 30.6844 15.5828 18.2925 24.6265 12.1182C33.3014 6.20431 44.9786 8.0495 51.4188 16.2669C51.8005 15.8595 52.3403 15.6762 52.8691 15.6762C54.7525 15.6762 61.4801 18.582 62.3341 24.1806C62.3341 24.1809 62.3338 24.1816 62.3341 24.182C62.3341 24.182 62.3341 24.182 62.3341 24.1827C63.1108 29.2932 63.2232 33.3987 63.2334 33.8708L70.1162 56.9353L84.5085 49.6629C86.1105 48.8079 87.9023 48.3559 89.6906 48.3559C89.8398 48.3559 100.946 48.369 101.095 48.369L102.527 48.0573C103.762 47.7982 104.728 46.791 104.93 45.5485L105.377 42.8926L103.775 42.4714C101.704 41.9356 100.365 39.8629 100.726 37.7491L103.032 25.2146C103.541 23.1228 104.111 21.4616 104.709 20.131C92.2021 7.04374 113.205 2.1059 128.1 12.453C132.975 15.8394 133.376 17.3349 132.273 18.3753C131.649 19.0796 130.914 19.6557 130.05 20.1041C139.657 23.5 129.292 39.1534 122.168 40.553L121.614 44.392C121.426 45.9721 122.473 47.4174 124.048 47.7529C124.531 47.8527 125.059 47.979 125.844 48.1645C129.814 48.1645 132.774 48.1638 132.912 48.1698C133.811 48.2091 134.683 48.3471 135.524 48.5658L142.514 38.0499H134.544C134.368 38.0499 134.224 37.9066 134.224 37.7293C134.224 37.552 134.368 37.4087 134.544 37.4087H149.241C150.409 37.4087 151.36 36.4571 151.36 35.2878V23.7538C151.36 23.5765 151.504 23.4331 151.68 23.4331C151.856 23.4331 152 23.5765 152 23.7538V35.2878C152 36.8109 150.762 38.0496 149.242 38.0496H143.284L136.165 48.7597C141.426 50.4333 145.232 55.4695 145.279 61.4361C145.32 66.644 145.614 103.95 145.656 109.357H151.615C151.791 109.357 151.935 109.501 151.935 109.678C151.935 109.855 151.791 109.998 151.615 109.998C131.045 110.002 0.453522 109.998 0.319916 109.998C0.143524 109.998 -0.000335693 109.855 -0.000335693 109.678C-0.000335693 109.501 0.143524 109.357 0.319916 109.357H0.320267ZM15.259 73.0059C17.4341 78.8522 23.735 82.0396 29.6976 80.4018L20.6352 76.0925C20.4751 76.0168 20.4076 75.8257 20.4839 75.6657C20.5603 75.5072 20.7466 75.4396 20.9102 75.5143L29.9023 79.79C27.5 74.1337 21.1616 71.1508 15.259 73.0059ZM2.43378 43.7412C4.46387 55.3874 15.2226 63.4763 27.039 62.0441L8.59366 48.6263C8.44978 48.5223 8.41869 48.322 8.52226 48.1786C8.62617 48.0346 8.82872 48.0035 8.9687 48.1079L27.5261 61.607C25.256 49.7857 14.1342 42.0269 2.43341 43.7412H2.43378ZM31.5718 85.9742C28.7418 85.9742 26.2935 87.3965 25.9969 89.2123C25.9616 89.4172 25.7495 89.5305 25.5682 89.46C24.8778 89.2003 24.0839 89.0626 23.2708 89.0626C20.0944 89.0626 18.4507 90.928 18.6338 92.1754H51.7737C51.1809 90.9393 49.3714 90.0503 47.3307 90.0503C46.828 90.0503 46.3427 90.1016 45.8877 90.2032C45.6452 90.2545 45.4501 90.0355 45.5077 89.8107C45.5116 89.7962 45.5116 89.7626 45.5116 89.7301C45.5116 86.8604 39.6844 85.5956 37.0519 88.025C36.9151 88.1492 36.6992 88.1368 36.5818 87.9861C35.6214 86.7446 33.7019 85.9742 31.5722 85.9742H31.5718ZM36.7928 87.261V48.4005C36.0774 48.4342 35.3976 48.4897 33.7316 48.311V85.6002C34.9784 85.9119 36.0548 86.4874 36.7928 87.2613V87.261ZM51.061 16.826C44.8584 8.72472 33.4439 6.88307 24.9867 12.6483C16.2357 18.6238 13.9695 30.6161 19.9371 39.3816C27.8072 50.9432 44.9577 50.4644 52.218 38.5747C55.3294 33.4642 55.8971 27.1101 53.7387 21.571C52.8596 20.4806 52.0766 19.9955 52.0469 19.976C51.0777 19.2686 50.6489 17.8452 51.0614 16.826H51.061ZM77.4391 54.4227C77.3263 54.3891 77.2082 54.3685 77.0849 54.3632C76.6009 54.3413 76.1432 54.5618 75.7091 54.7766C73.7076 55.7675 71.7062 56.7584 69.7047 57.7493C67.8274 51.5034 65.95 45.2576 64.0723 39.0114C63.4483 36.9359 62.822 34.8497 62.5363 32.7008C62.0376 28.9485 62.5363 24.8887 60.6643 21.5996C59.3564 19.3015 57.0431 17.7281 54.6023 16.7159C53.5977 16.2994 52.182 16.0938 51.6514 17.044C51.0692 18.0866 52.1979 19.2095 53.083 20.0103C55.4323 22.1347 56.8038 25.3024 56.7469 28.4715C56.5345 28.5805 56.3471 28.2885 56.2838 28.0582C55.9091 26.6893 55.5344 25.3205 55.1594 23.9516C56.1746 28.3699 55.631 33.1312 53.6461 37.2066C53.4386 37.6327 53.2134 38.0584 53.1222 38.5234C52.9819 39.2369 53.1685 39.9698 53.3538 40.673C55.5048 48.8316 57.6557 56.9905 59.8067 65.1491C60.7183 68.6067 61.8944 72.4223 64.9995 74.19C67.8906 75.8363 71.574 75.125 74.58 73.6999C77.5861 72.2744 80.274 70.196 83.3907 69.0331C82.7523 67.2445 82.1139 65.4556 81.4755 63.667C81.1563 62.7728 80.8371 61.8785 80.5179 60.9842C80.3592 60.5401 80.1715 60.0963 80.0397 59.6437C79.9435 59.3138 79.7671 59.0721 79.6226 58.7603C79.2935 58.0504 79.2139 57.2567 79.0248 56.5046C78.8025 55.6213 78.2683 54.6701 77.4391 54.4234V54.4227ZM123.917 48.3804C122.015 47.9748 120.752 46.2269 120.981 44.3078L122.037 36.9928C122.063 36.7993 122.263 36.6694 122.453 36.7341C122.468 36.7391 123.924 37.2073 125.126 36.467C125.945 35.963 126.465 35.0086 126.674 33.6295C126.934 31.8965 126.963 29.4033 125.356 30.0891C125.297 30.1104 123.929 30.5938 122.917 29.8825C122.257 29.4185 121.922 28.5791 121.922 27.3868C121.924 24.0935 122.048 23.3833 119.814 22.4309C117.378 21.3866 114.17 20.0804 113.062 17.6955C112.656 16.8299 111.39 15.6836 109.783 15.8422C108.325 15.9898 105.59 17.4234 103.659 25.3488L101.357 37.8613C101.053 39.6453 102.185 41.3981 103.937 41.8511C107.811 42.8632 105.83 42.298 109.494 43.1562C109.667 43.1944 109.775 43.3661 109.738 43.5388C109.7 43.7136 109.526 43.8201 109.357 43.7822L106.001 43.0391L105.563 45.6533C105.319 47.1538 104.151 48.3719 102.63 48.6843L101.434 48.9512C101.313 51.0919 102.043 53.1045 103.573 54.7826C105.667 57.0801 108.957 58.4096 112.601 58.4302C119.028 58.4369 124.869 54.0546 125.506 48.7431C124.89 48.5973 124.36 48.4717 123.918 48.3811L123.917 48.3804ZM129.76 96.7247V109.358H145.016L144.813 83.6095C143.288 84.2787 138.958 84.3789 137.285 84.3739C135.356 84.3682 131.316 84.0625 129.76 83.6095M129.119 109.358V76.6449C129.119 76.4676 129.263 76.3243 129.44 76.3243C129.616 76.3243 129.76 76.4676 129.76 76.6449V82.735C131.05 83.7274 135.657 83.733 137.286 83.733C142.006 83.733 144.541 83.2266 144.808 82.8759L144.639 61.4414C144.593 55.6921 140.889 50.8502 135.795 49.3171L130.145 57.8172C130.05 57.9616 129.853 58.0058 129.701 57.906C129.554 57.8084 129.515 57.6095 129.613 57.4616L135.149 49.1327C134.417 48.9576 133.662 48.8443 132.886 48.8107C132.768 48.8057 126.262 48.7979 126.144 48.7979C125.524 54.0777 119.822 59.0711 112.598 59.0711C108.775 59.0498 105.313 57.6438 103.099 55.2143C101.498 53.4566 100.693 51.2653 100.792 49.0103C89.7238 49.006 89.6839 49.0375 89.5556 48.9979C87.9175 49.0205 86.278 49.4449 84.8022 50.2323L78.4677 53.4332L83.9655 68.7234L88.8458 66.1931L88.8829 64.5259C88.8868 64.3486 89.0405 64.2375 89.2106 64.2124C89.387 64.2163 89.527 64.3631 89.5231 64.5397C89.1926 79.4467 89.0006 88.1025 88.529 109.358H129.119V109.358ZM87.8885 109.358L88.8299 66.9239L73.9834 74.621C68.6421 77.633 61.9092 74.8921 60.2252 68.9892L52.3622 39.4956C48.8786 44.7731 43.3158 47.8962 37.4334 48.3687V73.4726L39.9453 72.2779C42.4264 65.387 49.9995 61.7224 56.9339 64.1059C57.0937 64.1604 57.1919 64.3469 57.1326 64.521C54.7525 71.4611 47.173 75.2825 40.1269 72.9008L37.433 74.1819V86.9778C40.8251 84.9762 45.8782 86.6056 46.1415 89.5022C46.5244 89.4409 46.9231 89.4094 47.3307 89.4094C49.7878 89.4094 51.8712 90.5617 52.4453 92.1754H55.9166C58.6515 92.1754 60.876 94.4025 60.876 97.1405V104.797C60.876 106.794 59.7201 108.509 58.0534 109.357H87.8878L87.8885 109.358ZM50.6736 67.8858L40.9976 72.4871C47.3653 74.2618 54.1053 70.8609 56.421 64.6116C50.1116 62.6185 43.3391 65.8166 40.7961 71.8738L50.3986 67.3075C50.7829 67.1256 51.055 67.7053 50.6736 67.8858ZM55.7508 109.289C58.2241 109.289 60.2365 107.274 60.2365 104.798V97.1412C60.2365 94.7571 58.2994 92.8171 55.9173 92.8171H14.6153C12.2332 92.8171 10.2961 94.7571 10.2961 97.1412V97.9343H32.3976C32.574 97.9343 32.7178 98.0776 32.7178 98.2549C32.7178 98.4322 32.574 98.5756 32.3976 98.5756H10.2961V104.81C10.2961 107.28 12.3032 109.29 14.7705 109.29H55.7511L55.7508 109.289Z" fill="#231F20"/>
<path d="M124.571 32.7256C124.51 32.5597 124.594 32.3749 124.759 32.313C124.926 32.2472 125.109 32.3349 125.171 32.5002C125.57 33.5686 125.34 34.3673 124.486 34.8737C124.338 34.9622 124.14 34.9159 124.048 34.7612C123.958 34.609 124.008 34.4126 124.161 34.3217C124.738 33.9788 124.861 33.5017 124.571 32.7256H124.571Z" fill="#231F20"/>
<path d="M35.8448 43.507C21.0195 43.507 15.4655 24.343 27.4049 16.1827C34.2088 11.5393 43.5204 13.3108 48.1596 20.1264C54.9505 30.1062 47.6216 43.507 35.8444 43.507H35.8448ZM47.6297 20.487C41.1743 11.0045 26.741 12.654 22.5487 23.2421C18.3818 33.7675 27.4258 44.6928 38.4581 42.6116C48.6064 40.6967 53.3874 28.9472 47.6297 20.487Z" fill="#231F20"/>
<path d="M93.663 19.8567C92.8465 19.8567 92.1964 19.1893 92.1964 18.3881C92.1964 18.1343 92.2756 17.9082 92.3866 17.7008L82.2726 8.816C81.6914 9.51636 80.7593 9.50609 80.1704 8.94199L72.8694 16.2488C72.974 16.4519 73.0479 16.6727 73.0479 16.9198C73.0479 17.7206 72.3979 18.3881 71.5979 18.3881C70.798 18.3881 70.1313 17.7206 70.1313 16.9198C70.1313 16.7187 70.1723 16.5284 70.2437 16.3546L55.7949 1.12241L56.3668 5.17305C56.4269 5.59383 55.7931 5.68194 55.7341 5.26329L55.0426 0.365791C55.0154 0.173628 55.166 -0.0160575 55.3866 0.00163705C56.644 0.108512 61.2768 0.501685 61.0488 0.482221C61.4662 0.517964 61.4266 1.15355 60.9936 1.12064L56.2989 0.721806L70.6294 15.8305C71.1412 15.3761 71.8404 15.3021 72.4502 15.7622L79.813 8.3931C79.7536 8.2335 79.7108 8.06469 79.7108 7.88562C79.7108 7.06778 80.3609 6.41698 81.1775 6.41698C81.994 6.41698 82.6275 7.06778 82.6275 7.88562C82.6275 8.00241 82.5868 8.10716 82.561 8.21651L92.8111 17.2209C93.0532 17.0443 93.3367 16.9198 93.6627 16.9198C94.4626 16.9198 95.1127 17.5706 95.1127 18.3881C95.1127 19.2055 94.4626 19.8567 93.6627 19.8567H93.663Z" fill="#EF4444"/>
<g clip-path="url(#clip1_2553_37161)">
<path d="M140.84 29.5179C141.845 29.5179 142.679 28.7558 142.679 27.7585C142.679 26.7611 141.867 26 140.84 26C139.813 26 139 26.7808 139 27.7588C139 28.7367 139.822 29.5182 140.84 29.5182V29.5179ZM140.84 26.7032C141.462 26.7032 141.94 27.1803 141.94 27.7585C141.94 28.3366 141.448 28.8144 140.84 28.8144C140.231 28.8144 139.735 28.3379 139.735 27.7585C139.735 27.1791 140.203 26.7032 140.84 26.7032Z" fill="#EF4444"/>
<path d="M143.32 31.2408C143.32 32.2028 144.126 33.0002 145.16 33.0002C146.194 33.0002 147 32.2034 147 31.2408C147 30.2783 146.194 29.4814 145.16 29.4814C144.127 29.4814 143.32 30.2666 143.32 31.2408ZM145.16 30.1899C145.739 30.1899 146.259 30.6134 146.259 31.2408C146.259 31.8683 145.758 32.2967 145.16 32.2967C144.563 32.2967 144.056 31.8298 144.056 31.2408C144.056 30.6519 144.542 30.1899 145.16 30.1899Z" fill="#EF4444"/>
<path d="M141.003 32.904H141.504C141.622 32.904 141.692 32.8464 141.744 32.7438C142.288 31.6716 142.827 30.6049 143.361 29.5435C143.417 29.432 145.082 26.1381 144.978 26.3426C144.978 26.2305 145.065 26.1187 144.802 26.1187H144.372C144.21 26.1187 144.149 26.1658 144.08 26.3198L140.863 32.7124C140.814 32.8427 140.853 32.9043 141.003 32.9043V32.904Z" fill="#EF4444"/>
</g>
<path d="M32.3068 24H39.5794" stroke="#EF4444" stroke-width="0.5" stroke-linecap="round"/>
<path d="M32.3068 27.1167H39.5794" stroke="#EF4444" stroke-width="0.5" stroke-linecap="round"/>
<path d="M32 30.2339L38.2338 35.4287" stroke="#EF4444" stroke-width="0.5" stroke-linecap="round"/>
<path d="M32.779 24H34.3847C36.106 24 37.5015 25.3955 37.5015 27.1168V27.1168C37.5015 28.8382 36.106 30.2337 34.3847 30.2337H32.3068" stroke="#EF4444" stroke-width="0.5" stroke-linecap="round"/>
</g>
<defs>
<clipPath id="clip0_2553_37161">
<rect width="152" height="110" fill="white" transform="matrix(-1 0 0 1 152 0)"/>
</clipPath>
<clipPath id="clip1_2553_37161">
<rect width="8" height="7" fill="white" transform="translate(139 26)"/>
</clipPath>
</defs>
</svg>
