<svg width="40" height="40" viewBox="0 0 40 40" fill="none" xmlns="http://www.w3.org/2000/svg">
<circle cx="20" cy="20" r="20" fill="#CB1531"/>
<path fill-rule="evenodd" clip-rule="evenodd" d="M25.4551 11.8182C24.451 11.8182 23.6369 12.6322 23.6369 13.6364C23.6369 13.9521 23.7174 14.249 23.859 14.5078C23.8682 14.5218 23.8772 14.5362 23.8857 14.5509C23.8943 14.5655 23.9023 14.5802 23.9099 14.5951C24.2308 15.111 24.8028 15.4545 25.4551 15.4545C26.4593 15.4545 27.2733 14.6405 27.2733 13.6364C27.2733 12.6322 26.4593 11.8182 25.4551 11.8182ZM22.8715 16.1953C23.5305 16.8606 24.4447 17.2727 25.4551 17.2727C27.4634 17.2727 29.0915 15.6447 29.0915 13.6364C29.0915 11.6281 27.4634 10 25.4551 10C23.4468 10 21.8188 11.6281 21.8188 13.6364C21.8188 13.9791 21.8662 14.3108 21.9548 14.6252L17.1296 17.441C16.4706 16.7757 15.5564 16.3636 14.546 16.3636C12.5377 16.3636 10.9097 17.9917 10.9097 20C10.9097 22.0083 12.5377 23.6364 14.546 23.6364C15.5566 23.6364 16.471 23.2241 17.13 22.5586L21.956 25.3708C21.8666 25.6864 21.8188 26.0194 21.8188 26.3636C21.8188 28.3719 23.4468 30 25.4551 30C27.4634 30 29.0915 28.3719 29.0915 26.3636C29.0915 24.3553 27.4634 22.7273 25.4551 22.7273C24.4462 22.7273 23.5333 23.1381 22.8745 23.8017L18.0465 20.9883C18.135 20.6741 18.1824 20.3426 18.1824 20C18.1824 19.6573 18.135 19.3256 18.0463 19.0112L22.8715 16.1953ZM16.0912 19.0413C16.0988 19.0562 16.1069 19.0709 16.1154 19.0855C16.124 19.1002 16.1329 19.1145 16.1422 19.1286C16.2837 19.3873 16.3642 19.6843 16.3642 20C16.3642 20.3157 16.2837 20.6127 16.1422 20.8714C16.1328 20.8856 16.1238 20.9001 16.1151 20.915C16.1067 20.9294 16.0987 20.944 16.0912 20.9587C15.7704 21.4747 15.1983 21.8182 14.546 21.8182C13.5419 21.8182 12.7278 21.0042 12.7278 20C12.7278 18.9958 13.5419 18.1818 14.546 18.1818C15.1983 18.1818 15.7704 18.5253 16.0912 19.0413ZM23.8326 25.5422C23.8551 25.5127 23.876 25.4815 23.8951 25.4486C23.9135 25.4171 23.9297 25.385 23.9439 25.3523C24.2702 24.8657 24.8253 24.5455 25.4551 24.5455C26.4593 24.5455 27.2733 25.3595 27.2733 26.3636C27.2733 27.3678 26.4593 28.1818 25.4551 28.1818C24.451 28.1818 23.6369 27.3678 23.6369 26.3636C23.6369 26.0681 23.7075 25.7889 23.8326 25.5422Z" fill="white"/>
</svg>
