<svg width="40" height="40" viewBox="0 0 40 40" fill="none" xmlns="http://www.w3.org/2000/svg">
<circle cx="20" cy="20" r="20" fill="#CB1531"/>
<g clip-path="url(#clip0_1065_31227)">
<path fill-rule="evenodd" clip-rule="evenodd" d="M11.8188 13.6361C11.3167 13.6361 10.9097 14.0431 10.9097 14.5451V17.2724H29.0915V14.5451C29.0915 14.0431 28.6845 13.6361 28.1825 13.6361H11.8188ZM30.9097 14.5451C30.9097 13.0389 29.6887 11.8179 28.1825 11.8179H11.8188C10.3126 11.8179 9.09155 13.0389 9.09155 14.5451V25.4542C9.09155 26.9605 10.3126 28.1815 11.8188 28.1815H28.1825C29.6887 28.1815 30.9097 26.9605 30.9097 25.4542V14.5451ZM29.0915 19.0906H10.9097V25.4542C10.9097 25.9563 11.3167 26.3633 11.8188 26.3633H28.1825C28.6845 26.3633 29.0915 25.9563 29.0915 25.4542V19.0906Z" fill="white"/>
</g>
<defs>
<clipPath id="clip0_1065_31227">
<rect width="21.8182" height="21.8182" fill="white" transform="translate(9.09155 9.09082)"/>
</clipPath>
</defs>
</svg>
