<svg width="40" height="40" viewBox="0 0 40 40" fill="none" xmlns="http://www.w3.org/2000/svg">
<circle cx="20" cy="20" r="20" fill="#CB1531"/>
<path fill-rule="evenodd" clip-rule="evenodd" d="M14.5461 11.8182C14.044 11.8182 13.637 12.2252 13.637 12.7273V27.2727C13.637 27.7748 14.044 28.1818 14.5461 28.1818H25.4552C25.9573 28.1818 26.3643 27.7748 26.3643 27.2727V12.7273C26.3643 12.2252 25.9573 11.8182 25.4552 11.8182H14.5461ZM11.8188 12.7273C11.8188 11.221 13.0399 10 14.5461 10H25.4552C26.9614 10 28.1825 11.221 28.1825 12.7273V27.2727C28.1825 28.779 26.9614 30 25.4552 30H14.5461C13.0399 30 11.8188 28.779 11.8188 27.2727V12.7273ZM19.0916 25.4545C19.0916 24.9525 19.4986 24.5455 20.0007 24.5455H20.0098C20.5118 24.5455 20.9188 24.9525 20.9188 25.4545C20.9188 25.9566 20.5118 26.3636 20.0098 26.3636H20.0007C19.4986 26.3636 19.0916 25.9566 19.0916 25.4545Z" fill="white"/>
</svg>
