<svg width="40" height="40" viewBox="0 0 40 40" fill="none" xmlns="http://www.w3.org/2000/svg">
<circle cx="20" cy="20" r="20" fill="#CB1531"/>
<g clip-path="url(#clip0_1065_31220)">
<path fill-rule="evenodd" clip-rule="evenodd" d="M13.0856 11.2676C13.5875 11.2676 13.9943 11.6744 13.9943 12.1763V18.537C13.9943 19.0388 13.5875 19.4456 13.0856 19.4456C12.5838 19.4456 12.1769 19.0388 12.1769 18.537V12.1763C12.1769 11.6744 12.5838 11.2676 13.0856 11.2676ZM20.355 11.2676C20.8569 11.2676 21.2637 11.6744 21.2637 12.1763V15.8109H23.081C23.5829 15.8109 23.9897 16.2178 23.9897 16.7196C23.9897 17.2215 23.5829 17.6283 23.081 17.6283H17.629C17.1271 17.6283 16.7203 17.2215 16.7203 16.7196C16.7203 16.2178 17.1271 15.8109 17.629 15.8109H19.4463V12.1763C19.4463 11.6744 19.8532 11.2676 20.355 11.2676ZM27.6244 11.2676C28.1262 11.2676 28.5331 11.6744 28.5331 12.1763V20.3543C28.5331 20.8562 28.1262 21.263 27.6244 21.263C27.1225 21.263 26.7157 20.8562 26.7157 20.3543V12.1763C26.7157 11.6744 27.1225 11.2676 27.6244 11.2676ZM20.355 19.4456C20.8569 19.4456 21.2637 19.8525 21.2637 20.3543V28.5324C21.2637 29.0342 20.8569 29.441 20.355 29.441C19.8532 29.441 19.4463 29.0342 19.4463 28.5324V20.3543C19.4463 19.8525 19.8532 19.4456 20.355 19.4456ZM9.45093 22.1717C9.45093 21.6698 9.85775 21.263 10.3596 21.263H15.8116C16.3135 21.263 16.7203 21.6698 16.7203 22.1717C16.7203 22.6735 16.3135 23.0803 15.8116 23.0803H13.9943V28.5324C13.9943 29.0342 13.5875 29.441 13.0856 29.441C12.5838 29.441 12.1769 29.0342 12.1769 28.5324V23.0803H10.3596C9.85775 23.0803 9.45093 22.6735 9.45093 22.1717ZM23.9897 23.989C23.9897 23.4872 24.3965 23.0803 24.8984 23.0803H30.3504C30.8523 23.0803 31.2591 23.4872 31.2591 23.989C31.2591 24.4909 30.8523 24.8977 30.3504 24.8977H28.5331V28.5324C28.5331 29.0342 28.1262 29.441 27.6244 29.441C27.1225 29.441 26.7157 29.0342 26.7157 28.5324V24.8977H24.8984C24.3965 24.8977 23.9897 24.4909 23.9897 23.989Z" fill="white"/>
</g>
<defs>
<clipPath id="clip0_1065_31220">
<rect width="21.8082" height="21.8082" fill="white" transform="translate(9.45093 9.4502)"/>
</clipPath>
</defs>
</svg>
