<svg width="106" height="76" viewBox="0 0 106 76" fill="none" xmlns="http://www.w3.org/2000/svg">
<g clip-path="url(#clip0_1112_53091)">
<path d="M54.1212 41.4546H70.0121L77.1515 64.4849H61.2606L54.1212 41.4546Z" fill="white"/>
<path d="M68.4 53.4304C68.4 52.1407 72.3919 52.893 74.3879 53.4304L76.6909 61.7213L72.0849 59.4183L70.9334 55.5032C70.0889 55.3496 68.4 54.7201 68.4 53.4304Z" fill="white"/>
<path d="M104.797 75.4429H96.7912L96.3166 64.5692L101.17 65.1098C103.562 65.1098 105.364 62.9544 104.961 60.591L101.529 40.8402C100.756 36.3661 97.6474 32.7922 93.5466 31.3208C94.4051 28.4208 94.3797 24.6286 93.4599 20.8616C91.5078 12.9005 85.6177 8.78737 85.2184 8.67345C84.0593 8.35275 82.8318 8.19081 81.5689 8.19081C76.4917 8.19081 72.3608 10.8181 72.3608 14.0466C72.3608 15.261 72.9435 16.4196 74.0394 17.4055C73.9473 18.1936 73.9524 18.7603 73.9541 18.7603L73.4591 23.3041C73.3089 24.7226 73.767 26.1429 74.7159 27.2017C75.6056 28.1939 76.8558 28.789 78.1793 28.8576L78.0332 29.7795C77.9607 30.2362 77.5763 30.5682 77.1193 30.5682C77.0038 30.5682 74.0606 30.5682 74.192 30.5682C74.1036 30.5917 67.4371 30.2778 63.645 36.4855L61.6079 39.8284H57.6807C57.2763 39.8284 56.9917 40.2233 57.1148 40.6065L57.3043 41.1984H54.4759C54.0175 41.1984 53.6993 41.6438 53.8317 42.0823L55.7039 47.9707L50.241 37.9701L50.1463 28.533C50.1458 28.5122 50.1428 28.4914 50.1367 28.4715C49.7189 27.078 47.6864 27.0974 47.2612 28.4872L47.017 29.388L44.9342 25.0289C44.1908 23.5687 42.4924 23.7544 42.4819 25.1293V32.4338L39.8159 34.9528C39.4737 35.3257 39.3531 35.8024 39.3824 35.932L40.3818 40.4301C40.3864 40.4509 40.3942 40.4707 40.4047 40.4889L52.5424 62.3833C53.6524 64.3002 56.2236 64.7889 57.976 63.2967L59.8878 61.129L60.8115 64.0341C60.9299 64.4016 61.2667 64.6493 61.6497 64.6493H66.9875L66.7579 75.4431H59.4636C59.5256 75.3275 59.5698 75.2013 59.5698 75.0609V71.3498C59.5698 71.2109 59.5266 71.0859 59.4655 70.971H61.2201C61.6724 70.971 62.0402 70.6018 62.0402 70.1479V66.4367C62.0402 65.9828 61.6721 65.6135 61.2201 65.6135H39.4879C39.0356 65.6135 38.6683 65.9828 38.6683 66.4367V70.1479C38.6683 70.2873 38.7117 70.4125 38.7728 70.5274H37.018C36.5657 70.5274 36.1979 70.8966 36.1979 71.3496V75.0607C36.1979 75.2011 36.2421 75.3272 36.3041 75.4429H25.4074C28.3755 74.8789 30.4431 73.9085 31.7288 72.4897C33.8523 70.1459 33.5566 66.9458 33.2435 63.5588C33.1753 63.367 33.2171 57.116 27.4206 50.35C26.4156 49.176 26.2993 49.2358 26.1071 48.7711C26.1061 48.7679 26.1088 48.7649 26.1076 48.7618C26.1059 48.7571 26.1 48.7556 26.0983 48.751C25.8895 48.2238 26.0346 47.6696 26.2873 47.3712C26.9187 46.6793 29.2804 44.9137 28.7184 44.0187C28.2001 43.1958 26.9011 43.4827 25.7676 43.5197C25.1729 43.5535 24.5096 43.1791 23.9127 42.8584C23.4208 42.5933 22.9959 42.3645 22.652 42.3594C21.8788 42.3393 20.2896 43.4494 19.4179 43.3055C19.0509 43.248 18.5729 43.0652 18.1135 42.8991V40.9551C23.4272 39.0513 32.5034 35.197 36.8016 31.4242C36.8146 31.4129 36.8263 31.3989 36.8358 31.3842C38.6023 29.8324 40.2067 27.7385 39.0239 25.7019C38.7608 25.2391 38.1632 24.8691 37.3839 24.6871C33.8704 23.8595 29.0659 26.8291 26.1308 29.1011C22.1545 32.1991 19.4177 36.0187 18.1135 39.457V25.1381C22.3589 25.0646 26.038 22.9523 28.2739 19.6555C32.1649 13.9227 30.6864 6.08192 24.978 2.17748C19.2734 -1.72353 11.4615 -0.240101 7.56407 5.4839C3.67913 11.2079 5.16135 19.0479 10.8685 22.9611C12.9085 24.3561 15.2585 25.0953 17.6707 25.1396V34.8663C14.9134 27.9531 6.044 21.7989 1.72164 22.82C1.06296 22.9751 0.556918 23.2904 0.333449 23.6849C-2.40997 28.4553 12.4997 34.5382 17.6707 36.3852V42.7421C16.2987 42.2705 15.9802 42.4103 15.1481 42.7884C14.4411 43.1115 13.64 43.478 12.4919 42.9998C10.7613 42.2719 8.22691 42.6046 7.47029 43.6573C6.65994 44.7757 8.44696 46.045 9.49641 46.9726C10.1822 47.5777 10.1675 48.4526 9.59019 49.0166C8.54245 50.059 3.27933 55.6365 2.58694 63.0745C2.28068 66.3867 1.81591 69.883 3.95096 72.3633C5.23047 73.8502 7.4085 74.8622 10.5141 75.4429H0.289732C0.167618 75.4429 0.0687054 75.5426 0.0687054 75.6646C0.0687054 75.7866 0.167618 75.8863 0.289732 75.8863C26.8122 75.9809 13.2268 76.085 104.797 75.8863C104.918 75.8863 105.018 75.7866 105.018 75.6646C105.018 75.5426 104.918 75.4429 104.797 75.4429ZM101.194 64.6681C91.4394 63.5791 87.3681 62.9446 76.6211 61.6043L72.424 59.4346C72.2133 59.2577 72.0638 59.023 71.9925 58.7587L71.7566 57.8306L73.7656 58.4659C73.884 58.5031 74.0064 58.4365 74.0428 58.3211C74.0794 58.2043 74.0152 58.0793 73.8984 58.043L71.6279 57.3252L71.2388 55.7952L72.7305 56.2296C72.8463 56.2634 72.9704 56.1968 73.0048 56.078C73.039 55.9611 72.9711 55.8379 72.8541 55.8033L71.0016 55.2639C70.0521 54.9167 68.5498 54.1406 68.5516 53.5323C68.5557 52.4538 72.7413 53.1608 73.9199 53.424C74.0889 53.4565 74.2343 53.2895 74.1795 53.1251C74.148 53.0317 73.0329 49.7407 73.1008 49.9414C73.473 49.7162 73.9375 49.8125 74.1786 50.1149L77.4527 53.5896C77.4891 53.6278 77.5374 53.6521 77.5892 53.6572C94.356 55.4963 75.0751 53.3816 98.9196 55.9966C99.0493 56.0182 99.1502 55.9221 99.1631 55.8009C99.177 55.6786 99.0889 55.5696 98.968 55.5566L97.9549 55.4454L97.0779 48.8174C97.359 48.8237 97.6472 48.8274 97.9408 48.8274C100.266 48.8274 101.747 48.675 102.39 48.3776L104.526 60.6672C104.885 62.781 103.258 64.6649 101.194 64.6686L101.194 64.6681ZM77.1196 31.0118C77.7951 31.0118 78.3634 30.5231 78.4706 29.8491L78.6269 28.863H81.9941C82.116 28.863 82.2151 28.7633 82.2151 28.6413C82.2151 28.5193 82.1157 28.4196 81.9941 28.4196H78.4369C78.4355 28.4196 78.4347 28.421 78.4333 28.421C77.1428 28.4198 75.9077 27.8674 75.0451 26.9058C74.1796 25.9405 73.7619 24.645 73.8989 23.3522L74.3952 18.7823C74.3952 18.7755 74.3884 18.1644 74.4914 17.3474C74.7 15.5604 75.3531 13.2695 77.1516 13.1718C77.2497 13.5226 77.5352 14.3409 78.2513 15.3272C78.3537 15.4681 78.4648 15.6124 78.5854 15.7591C80.0825 17.585 82.2459 18.8551 84.5006 19.6359C84.4125 19.7667 84.3289 19.9061 84.2527 20.0639C84.1265 20.3275 84.5253 20.5225 84.6518 20.2562C85.7101 18.0417 88.2298 19.0604 88.2298 21.7041C88.2298 23.0371 87.4404 24.3745 86.2837 24.3745C85.9914 24.3745 85.9912 24.8182 86.2837 24.8182C86.6022 24.8182 86.9109 24.7327 87.1969 24.5783L87.1149 29.6247V29.6257C87.1041 30.3888 87.7181 31.0121 88.4864 31.0121H90.0204C89.6956 34.4902 86.4305 37.1876 82.4977 37.1876C78.5649 37.1876 75.3809 34.4937 74.9835 31.0121L77.1196 31.0118ZM64.0228 36.7177C67.8259 30.4915 74.4108 31.0464 74.5461 31.0118C74.9447 34.7394 78.39 37.631 82.4975 37.631C86.6049 37.631 90.0834 34.7744 90.4483 31.088C95.8875 31.5834 100.183 35.6459 101.094 40.9169L102.315 47.9442C102.075 48.1334 100.614 48.3835 97.9413 48.3835C97.4154 48.3835 96.9507 48.3715 96.5186 48.3546C95.2569 48.2424 94.0541 48.1008 93.5412 47.8301L93.4455 47.1296C93.4291 47.0091 93.328 46.9339 93.1959 46.9398C93.075 46.9571 92.9902 47.0689 93.0066 47.1901C93.0178 47.282 94.0204 55.5336 93.9564 55.0064L77.7184 53.2253L74.5136 49.8253C74.1949 49.4183 73.5485 49.2314 72.9682 49.5225L71.9624 46.3594L73.674 44.3639C73.7539 44.2713 73.7431 44.1309 73.6508 44.0511C73.558 43.9705 73.4185 43.9817 73.3389 44.0743L71.8047 45.863L70.5203 41.8231C70.4033 41.4497 70.066 41.1984 69.6811 41.1984H65.5834L65.3292 40.4039C65.219 40.0599 64.9025 39.8286 64.5418 39.8286H62.1269L64.0228 36.7177ZM57.6675 62.9804C56.1572 64.2627 53.8966 63.8398 52.9266 62.1641L40.8067 40.3014L39.8237 35.8771C39.866 35.6466 39.9722 35.4369 40.1305 35.2637L41.2136 34.2408L41.6945 36.2022C41.7639 36.4877 42.1949 36.384 42.1238 36.0966L41.5834 33.892L42.5808 32.95L42.9501 34.3222C43.0258 34.6056 43.4529 34.4885 43.3767 34.206L42.9222 32.5176C42.9222 32.5154 42.9244 32.5144 42.9244 32.5122V25.1313C42.9315 24.1748 44.0467 24.2599 44.538 25.2259L46.8394 30.0439L46.1045 32.7532C46.0276 33.0367 46.456 33.1526 46.5312 32.8694L47.6864 28.6107C47.9785 27.6515 49.3889 27.6243 49.7047 28.5717L49.8031 38.39C49.8043 38.5113 49.9033 38.6093 50.0241 38.6093H50.0263C50.0452 38.6093 50.0571 38.5934 50.0745 38.589C56.704 50.7215 56.3575 50.0176 56.3511 50.0071L59.731 60.6378L57.6673 62.9811L57.6675 62.9804ZM61.2323 63.8979C58.9243 56.6392 57.4101 51.8768 54.2542 41.9505C54.2088 41.7993 54.3152 41.642 54.4762 41.642H57.4467L57.5662 42.0147C57.6768 42.3586 57.9928 42.5899 58.3531 42.5899H65.2142C65.6198 42.5899 65.9039 42.1947 65.78 41.8118L65.7258 41.642H69.6813C69.8723 41.642 70.0394 41.7685 70.0985 41.9574C70.2895 42.5578 72.7227 50.2114 72.6902 50.1097L73.5768 52.8982C72.0281 52.5912 68.1122 51.953 68.1095 53.5303C68.1068 54.5553 70.1862 55.4263 70.7437 55.6411L71.5653 58.8714C71.6613 59.2266 71.8599 59.5395 72.1813 59.8011L76.4531 62.0158C76.4619 62.0205 76.4719 62.0215 76.4812 62.0247L77.0766 63.8969C77.1218 64.0466 77.0167 64.2053 76.8546 64.2053H61.6497C61.4623 64.2053 61.2901 64.0792 61.2323 63.8979ZM76.8543 64.649C77.3142 64.649 77.6298 64.2031 77.4986 63.7651L76.9679 62.0955L95.8712 64.5172L96.3484 75.4385H67.2002L67.4296 64.6488L76.8543 64.649ZM37.2832 25.1188C37.9329 25.2712 38.4399 25.5711 38.6402 25.9238C41.6134 31.0429 24.6222 38.0436 19.0987 40.1197C30.6837 30.7624 31.4535 31.8867 31.138 31.2919C31.0806 31.1836 30.9458 31.1429 30.839 31.2C27.2147 33.13 22.714 36.6175 18.336 40.166C21.3429 31.1713 32.5393 24.0163 37.2832 25.1188ZM7.92944 5.73354C11.6771 0.230039 19.2077 -1.23281 24.7289 2.54473C30.2351 6.31148 31.6618 13.8751 27.908 19.4058C24.1604 24.9306 16.6496 26.3778 11.1176 22.5946C5.61171 18.8193 4.18127 11.2557 7.92944 5.73354ZM0.71762 23.9049C1.0505 23.323 2.08554 23.151 2.76743 23.151C6.80061 23.151 14.6758 28.4152 17.298 35.1429C13.7206 32.408 9.66908 29.402 6.14144 27.2772C6.03691 27.214 5.90137 27.2478 5.83787 27.3526C5.53869 27.8502 5.94313 26.9991 17.4949 35.8499C12.8294 34.1455 -1.74029 28.1797 0.71762 23.9049ZM10.4455 48.2385C10.4855 47.9033 10.4274 47.7409 10.4059 47.65C11.7531 48.3093 13.545 48.5202 15.4995 48.0082C18.7949 47.1441 20.356 48.1059 21.5029 48.1312C22.5841 48.1512 24.4461 48.2921 25.5857 47.9016C25.5341 48.1642 25.5469 48.4298 25.6103 48.6841C21.7706 49.8713 17.2453 48.1321 14.444 48.7725C12.1807 49.29 10.7979 48.4827 10.4455 48.2385ZM7.82857 43.9183C8.37809 43.1529 10.5715 42.6737 12.3221 43.4087C14.0935 44.1468 15.1649 43.137 16.0268 42.9192C16.812 42.7011 18.3846 43.5919 19.3491 43.7441C20.3792 43.9077 21.9806 42.8031 22.6298 42.8031H22.6427C23.2335 42.8116 24.588 44.0003 25.784 43.9633C26.8337 43.9256 27.9925 43.698 28.3442 44.2554C28.642 44.7302 26.3406 46.6556 25.9562 47.0774C25.8944 47.1497 25.847 47.2406 25.7977 47.3286C25.4838 47.3771 25.6546 47.8254 21.9982 47.7022C21.3085 47.6789 21.3552 47.7083 20.5358 47.5228C19.478 47.2854 17.8795 46.9258 15.3879 47.5782C12.1981 48.4126 10.1856 47.0211 10.1658 47.0064C10.147 46.9934 10.1246 46.9993 10.1038 46.9924C10.0137 46.8685 9.91282 46.7489 9.78899 46.6399C8.88852 45.84 7.27344 44.6846 7.82857 43.9183ZM4.2858 72.0733C2.28019 69.7441 2.72664 66.3711 3.02778 63.1154C3.70575 55.8308 8.87314 50.3554 9.90061 49.3328C10.0904 49.1474 10.2296 48.9257 10.3246 48.6895C10.4792 48.7875 10.7078 48.9051 11.0028 49.0227C10.9508 49.5487 10.4633 53.7096 7.98585 54.4997C7.70817 54.5884 7.83907 55.011 8.11969 54.9226C10.774 54.0756 11.3403 50.0362 11.4326 49.1682C11.5909 49.2145 11.7536 49.2586 11.9384 49.2927C11.8183 49.8093 11.2429 52.7412 13.0985 54.8118C13.2917 55.0267 13.6239 54.7344 13.4278 54.5154C11.6483 52.5297 12.3287 49.5587 12.3803 49.3473C12.9901 49.4107 13.7028 49.3973 14.5429 49.2057C17.2533 48.5844 21.8126 50.3405 25.7698 49.0994C26.1061 49.7359 32.0079 55.0723 32.7584 63.1146C33.061 66.3885 33.527 69.8463 31.4015 72.1911C29.7647 73.9977 26.6285 75.0693 21.8785 75.4431H14.0833C9.15009 75.0771 5.9253 73.9778 4.28628 72.0733H4.2858ZM45.1928 70.971V75.4404H40.6946V70.971H45.1928ZM53.0455 70.5274V66.0572H57.5432V70.5274H53.0455ZM50.1328 70.971V75.4404H45.6351V70.971H50.1328ZM50.5751 70.971H55.0733V75.4404H50.5751V70.971ZM52.6032 70.5274H48.105V66.0572H52.6032V70.5274ZM47.6627 70.5274H43.1645V66.0572H47.6627V70.5274ZM59.1275 71.3496V75.0607C59.1275 75.2704 58.9583 75.4402 58.7499 75.4402H55.5154V70.9708H58.7499C58.958 70.9708 59.1275 71.1406 59.1275 71.3496ZM61.5979 66.4365V70.1476C61.5979 70.3573 61.4281 70.5271 61.2201 70.5271H57.9855V66.057H61.2201C61.4281 66.057 61.5979 66.2268 61.5979 66.4365ZM39.1103 70.1476V66.4365C39.1103 66.2268 39.2796 66.057 39.4879 66.057H42.7225V70.5271H39.4879C39.2798 70.5271 39.1103 70.3573 39.1103 70.1476ZM36.6399 71.3496C36.6399 71.1408 36.8097 70.9708 37.0178 70.9708H40.2523V75.4402H37.0178C36.8097 75.4402 36.6399 75.2704 36.6399 75.0607V71.3496Z" fill="#231F20"/>
<path d="M26.0447 18.1199H26.0452C29.0858 13.6297 27.9248 7.48893 23.4573 4.43192C18.9828 1.36266 12.8742 2.50555 9.80205 7.0183C6.75238 11.499 7.91734 17.6434 12.3987 20.7151C16.8661 23.7738 22.9784 22.6427 26.0449 18.1199H26.0447ZM12.648 20.3493C8.36795 17.4145 7.255 11.5465 10.1672 7.26795C12.9572 3.16996 18.3918 1.96901 22.605 4.41673C22.8094 4.53555 23.0104 4.66246 23.2075 4.79745C27.4742 7.71849 28.583 13.5819 25.6793 17.8702C22.7633 22.1703 16.933 23.2806 12.648 20.3493Z" fill="#231F20"/>
<path d="M85.533 8.54176C86.5705 9.0435 88.7238 10.558 91.4905 15.0681C91.5647 15.1896 91.7342 15.21 91.8343 15.1098C93.8565 13.1003 94.144 10.0737 92.4908 8.22106C90.8003 6.31037 87.7252 6.28955 85.4871 8.17158C85.3635 8.27521 85.3884 8.47096 85.5328 8.54151L85.533 8.54176Z" fill="#231F20"/>
<path d="M86.6397 22.5432C86.521 22.8124 86.9264 22.9903 87.0439 22.7235C87.5318 21.6196 86.9962 20.6786 86.6448 20.3356C86.5566 20.2498 86.4184 20.2533 86.3329 20.339C86.2474 20.4265 86.2482 20.5668 86.3356 20.6526C86.3676 20.6847 87.1225 21.4515 86.6397 22.5432Z" fill="#231F20"/>
<path d="M38.1008 5.36673C37.5391 10.9957 38.484 16.6986 43.54 14.1284C45.188 13.291 46.2077 11.9455 46.9682 10.5824C47.9791 10.8203 48.8285 10.0429 48.7877 9.05557C48.7696 8.62022 48.5638 8.23608 48.2497 7.97663C48.9164 6.59071 49.5529 5.57007 50.7179 5.51544C55.3438 5.28368 55.1645 12.7804 59.5443 13.975C59.5894 14.8043 60.2799 15.4376 61.1098 15.4031C61.9462 15.3685 62.5546 14.6705 62.5199 13.8312C62.5187 13.8023 62.5109 13.7751 62.508 13.7462C65.4653 12.1062 65.3364 5.65753 68.2283 4.06435C68.4591 4.6418 69.0255 5.03746 69.6839 5.01002C70.5206 4.97548 71.1287 4.27749 71.0941 3.43815C71.0609 2.63262 70.3973 1.98755 69.5606 2.02234C68.7238 2.05688 68.0822 2.75634 68.1155 3.56187C68.1162 3.58 68.1216 3.59641 68.1228 3.61454C64.9569 5.2114 65.1029 11.6155 62.3883 13.278C62.1512 12.7518 61.6187 12.3889 60.9864 12.4152C60.3019 12.4438 59.7548 12.9193 59.5941 13.5316C55.5362 12.3502 55.6647 4.85518 50.6971 5.07151C49.3065 5.13742 48.5757 6.28814 47.8699 7.74658C47.6819 7.67088 47.4747 7.63046 47.2545 7.63952C45.749 7.70224 45.2628 9.66585 46.555 10.4212C45.826 11.7208 44.8764 12.9524 43.3407 13.733C38.6637 16.106 38.0405 10.6353 38.5441 5.42014C39.38 5.38486 39.9877 4.68736 39.9532 3.84851C39.92 3.04273 39.2565 2.39767 38.4197 2.4327C37.583 2.46725 36.9414 3.1667 36.9749 3.97223C37.0032 4.65699 37.4751 5.20454 38.1013 5.36673H38.1008Z" fill="#E31837"/>
<path d="M15.4277 59.418H20.8293" stroke="#E31837" stroke-width="0.8" stroke-linecap="round"/>
<path d="M15.4277 61.7329H20.8293" stroke="#E31837" stroke-width="0.8" stroke-linecap="round"/>
<path d="M15.2 64.0479L19.83 67.9062" stroke="#E31837" stroke-width="0.8" stroke-linecap="round"/>
<path d="M15.7785 59.418H16.971C18.2496 59.418 19.286 60.4544 19.286 61.7329V61.7329C19.286 63.0115 18.2496 64.0479 16.971 64.0479H15.4277" stroke="#E31837" stroke-width="0.8" stroke-linecap="round"/>
<path d="M15.4277 8.75146H20.8293" stroke="#EF4444" stroke-width="0.7" stroke-linecap="round"/>
<path d="M15.4277 11.0664H20.8293" stroke="#EF4444" stroke-width="0.8" stroke-linecap="round"/>
<path d="M15.2 13.3813L19.83 17.2397" stroke="#EF4444" stroke-width="0.8" stroke-linecap="round"/>
<path d="M15.7785 8.75146H16.971C18.2496 8.75146 19.286 9.78791 19.286 11.0664V11.0664C19.286 12.3449 18.2496 13.3814 16.971 13.3814H15.4277" stroke="#EF4444" stroke-width="0.8" stroke-linecap="round"/>
</g>
<defs>
<clipPath id="clip0_1112_53091">
<rect width="105.018" height="76" fill="white"/>
</clipPath>
</defs>
</svg>
