<svg width="120" height="120" viewBox="0 0 120 120" fill="none" xmlns="http://www.w3.org/2000/svg">
<circle opacity="0.8" cx="60" cy="60" r="60" fill="#F3F4F6"/>
<path d="M84.4145 40.7143C84.4145 39.0434 83.7507 37.441 82.5692 36.2595C81.3877 35.0781 79.7853 34.4143 78.1145 34.4143C76.4436 34.4143 74.8412 35.0781 73.6597 36.2595C72.4782 37.441 71.8145 39.0434 71.8145 40.7143" stroke="#231F20"/>
<path d="M32.0346 76.8044C32.0346 77.6199 32.1952 78.4274 32.5073 79.1809C32.8194 79.9343 33.2768 80.6189 33.8535 81.1955C34.4301 81.7722 35.1147 82.2296 35.8681 82.5417C36.6216 82.8538 37.4291 83.0144 38.2446 83.0144" stroke="#231F20"/>
<path d="M58.9447 76.8044C58.9447 77.6199 59.1054 78.4274 59.4175 79.1809C59.7295 79.9343 60.187 80.6189 60.7636 81.1955C61.3403 81.7722 62.0249 82.2296 62.7783 82.5417C63.5317 82.8538 64.3392 83.0144 65.1547 83.0144" stroke="#231F20"/>
<path d="M51.0256 34.4544C50.0861 34.3612 49.1348 34.4309 48.2261 34.6594C47.3174 34.8878 46.469 35.2707 45.7293 35.7861C44.9897 36.3015 44.3733 36.9393 43.9154 37.6632C43.4575 38.387 43.167 39.1826 43.0605 40.0047" stroke="#231F20"/>
<path d="M50.6646 34.4143H77.5745" stroke="#231F20"/>
<path d="M38.2446 83.0144L65.1546 83.0144" stroke="#231F20" stroke-linecap="round"/>
<path d="M71.8145 41.6143H84.4145" stroke="#231F20" stroke-linecap="square"/>
<path d="M58.9448 76.8042H32.0348" stroke="#231F20" stroke-linecap="square"/>
<path d="M43.0146 39.8142V77.6142" stroke="#231F20"/>
<path d="M71.8145 39.8142V61.4142" stroke="#231F20" stroke-linecap="round"/>
<path d="M48.5947 52.2344H65.1547" stroke="#EF4444"/>
<path d="M48.5947 47.0144H65.1547" stroke="#EF4444"/>
<path d="M48.5947 58.4443H65.1547" stroke="#EF4444"/>
<path d="M48.5947 64.6543H58.9447" stroke="#EF4444"/>
<path d="M87.4648 74.3999C87.4648 80.5932 82.444 85.6139 76.2507 85.6139C70.0573 85.6139 65.0366 80.5932 65.0366 74.3999C65.0366 68.2065 70.0573 63.1858 76.2507 63.1858C82.444 63.1858 87.4648 68.2065 87.4648 74.3999Z" stroke="#231F20"/>
<path d="M77.6851 80.401L72.481 75.8446V74.6166H75.3491C75.8518 74.6166 76.2609 74.5412 76.5763 74.3904C76.8917 74.2289 77.1282 73.9811 77.2859 73.6472C77.4436 73.3133 77.5225 72.8824 77.5225 72.3546C77.5225 71.8483 77.4485 71.4444 77.3007 71.1428C77.1627 70.8412 76.936 70.6258 76.6206 70.4965C76.3052 70.3565 75.8863 70.2865 75.3639 70.2865H72.481V69.0908H80.021V70.2865H77.9808C78.1878 70.4157 78.3652 70.5773 78.513 70.7712C78.6609 70.9543 78.7742 71.1859 78.8531 71.4659C78.9319 71.7352 78.9713 72.0638 78.9713 72.4515C78.9713 73.1517 78.8432 73.7549 78.587 74.2612C78.3307 74.7674 77.9611 75.1552 77.4781 75.4245C77.005 75.6938 76.4235 75.8284 75.7335 75.8284H74.3586L74.3438 75.4407L79.9767 80.401H77.6851ZM72.481 73.0494V71.8214H80.021V73.0494H72.481Z" fill="#231F20"/>
</svg>
