<svg width="20" height="20" viewBox="0 0 20 20" fill="none" xmlns="http://www.w3.org/2000/svg">
<path fill-rule="evenodd" clip-rule="evenodd" d="M6.63408 2.70294C7.0949 2.25286 7.71989 2 8.37158 2H11.6478C12.2995 2 12.9245 2.25286 13.3853 2.70294C13.8461 3.15303 14.105 3.76348 14.105 4.4V5.2H16.5622C17.9193 5.2 19.0194 6.27452 19.0194 7.6V15.6C19.0194 16.9255 17.9193 18 16.5622 18H3.45719C2.10012 18 1 16.9255 1 15.6V7.6C1 6.27452 2.10012 5.2 3.45719 5.2H5.91439V4.4C5.91439 3.76348 6.17327 3.15303 6.63408 2.70294ZM5.91439 6.8H3.45719C3.00484 6.8 2.63813 7.15817 2.63813 7.6V15.6C2.63813 16.0418 3.00484 16.4 3.45719 16.4H5.91439V6.8ZM7.55252 16.4V6.8H12.4669V16.4H7.55252ZM14.105 16.4H16.5622C17.0146 16.4 17.3813 16.0418 17.3813 15.6V7.6C17.3813 7.15817 17.0146 6.8 16.5622 6.8H14.105V16.4ZM12.4669 5.2H7.55252V4.4C7.55252 4.18783 7.63881 3.98434 7.79241 3.83431C7.94602 3.68429 8.15435 3.6 8.37158 3.6H11.6478C11.8651 3.6 12.0734 3.68429 12.227 3.83431C12.3806 3.98434 12.4669 4.18783 12.4669 4.4V5.2Z" fill="#231F20"/>
<mask id="mask0_2683_5878" style="mask-type:alpha" maskUnits="userSpaceOnUse" x="5" y="6" width="11" height="11">
<rect x="5.34961" y="6.81543" width="9.94175" height="9.63107" fill="#D9D9D9"/>
</mask>
<g mask="url(#mask0_2683_5878)">
<path fill-rule="evenodd" clip-rule="evenodd" d="M6.63408 2.70282C7.0949 2.25273 7.71989 1.99988 8.37158 1.99988H11.6478C12.2995 1.99988 12.9245 2.25273 13.3853 2.70282C13.8461 3.15291 14.105 3.76336 14.105 4.39988V5.19988H16.5622C17.9193 5.19988 19.0194 6.27439 19.0194 7.59988V15.5999C19.0194 16.9254 17.9193 17.9999 16.5622 17.9999H3.45719C2.10012 17.9999 1 16.9254 1 15.5999V7.59988C1 6.27439 2.10012 5.19988 3.45719 5.19988H5.91439V4.39988C5.91439 3.76336 6.17327 3.15291 6.63408 2.70282ZM5.91439 6.79988H3.45719C3.00484 6.79988 2.63813 7.15805 2.63813 7.59988V15.5999C2.63813 16.0417 3.00484 16.3999 3.45719 16.3999H5.91439V6.79988ZM7.55252 16.3999V6.79988H12.4669V16.3999H7.55252ZM14.105 16.3999H16.5622C17.0146 16.3999 17.3813 16.0417 17.3813 15.5999V7.59988C17.3813 7.15805 17.0146 6.79988 16.5622 6.79988H14.105V16.3999ZM12.4669 5.19988H7.55252V4.39988C7.55252 4.18771 7.63881 3.98422 7.79241 3.83419C7.94602 3.68416 8.15435 3.59988 8.37158 3.59988H11.6478C11.8651 3.59988 12.0734 3.68416 12.227 3.83419C12.3806 3.98422 12.4669 4.18771 12.4669 4.39988V5.19988Z" fill="#EF4444"/>
</g>
</svg>
