<svg width="25" height="25" viewBox="0 0 25 25" fill="none" xmlns="http://www.w3.org/2000/svg">
<circle cx="12.5" cy="12.5" r="12.5" fill="#F3F4F6"/>
<path d="M7.55566 10.5933H8.55566H16.5557H17.5557V11.5557H16.5557H7.55566V10.5933Z" fill="#EF4444" stroke="#EF4444" stroke-width="0.2" stroke-linecap="round" stroke-linejoin="round"/>
<path fill-rule="evenodd" clip-rule="evenodd" d="M10.2226 6.13818C10.5448 6.13818 10.806 6.39935 10.806 6.72151V7.30485H14.306V6.72151C14.306 6.39935 14.5671 6.13818 14.8893 6.13818C15.2115 6.13818 15.4726 6.39935 15.4726 6.72151V7.30485H16.6393C17.6058 7.30485 18.3893 8.08834 18.3893 9.05484V17.2215C18.3893 18.188 17.6058 18.9715 16.6393 18.9715H8.47265C7.50616 18.9715 6.72266 18.188 6.72266 17.2215V9.05484C6.72266 8.08834 7.50615 7.30485 8.47265 7.30485H9.63931V6.72151C9.63931 6.39935 9.90048 6.13818 10.2226 6.13818ZM9.63931 8.47151H8.47265C8.15048 8.47151 7.88932 8.73267 7.88932 9.05484V10.8048H17.2226V9.05484C17.2226 8.73267 16.9615 8.47151 16.6393 8.47151H15.4726V9.05484C15.4726 9.377 15.2115 9.63817 14.8893 9.63817C14.5671 9.63817 14.306 9.377 14.306 9.05484V8.47151H10.806V9.05484C10.806 9.377 10.5448 9.63817 10.2226 9.63817C9.90048 9.63817 9.63931 9.377 9.63931 9.05484V8.47151ZM17.2226 10.8048H7.88932V17.2215C7.88932 17.5436 8.15048 17.8048 8.47265 17.8048H16.6393C16.9615 17.8048 17.2226 17.5436 17.2226 17.2215V10.8048Z" fill="#231F20"/>
</svg>
