<svg width="10" height="10" viewBox="0 0 10 10" fill="none" xmlns="http://www.w3.org/2000/svg">
<g clip-path="url(#clip0_1777_4817)">
<path fill-rule="evenodd" clip-rule="evenodd" d="M3.33325 0.416504C3.56337 0.416504 3.74992 0.603052 3.74992 0.833171V1.24984H6.24992V0.833171C6.24992 0.603052 6.43647 0.416504 6.66659 0.416504C6.8967 0.416504 7.08325 0.603052 7.08325 0.833171V1.24984H7.91659C8.60694 1.24984 9.16659 1.80948 9.16659 2.49984V8.33317C9.16659 9.02353 8.60694 9.58317 7.91659 9.58317H2.08325C1.3929 9.58317 0.833252 9.02353 0.833252 8.33317V2.49984C0.833252 1.80948 1.3929 1.24984 2.08325 1.24984H2.91659V0.833171C2.91659 0.603052 3.10313 0.416504 3.33325 0.416504ZM2.91659 2.08317H2.08325C1.85313 2.08317 1.66659 2.26972 1.66659 2.49984V3.74984H8.33325V2.49984C8.33325 2.26972 8.1467 2.08317 7.91659 2.08317H7.08325V2.49984C7.08325 2.72996 6.8967 2.9165 6.66659 2.9165C6.43647 2.9165 6.24992 2.72996 6.24992 2.49984V2.08317H3.74992V2.49984C3.74992 2.72996 3.56337 2.9165 3.33325 2.9165C3.10313 2.9165 2.91659 2.72996 2.91659 2.49984V2.08317ZM8.33325 4.58317H1.66659V8.33317C1.66659 8.56329 1.85313 8.74984 2.08325 8.74984H7.91659C8.1467 8.74984 8.33325 8.56329 8.33325 8.33317V4.58317Z" fill="#6B7280"/>
</g>
<defs>
<clipPath id="clip0_1777_4817">
<rect width="10" height="10" fill="white"/>
</clipPath>
</defs>
</svg>
