<svg width="10" height="10" viewBox="0 0 10 10" fill="none" xmlns="http://www.w3.org/2000/svg">
<g clip-path="url(#clip0_821_8984)">
<path fill-rule="evenodd" clip-rule="evenodd" d="M3.33331 0.416748C3.56343 0.416748 3.74998 0.603296 3.74998 0.833415V1.25008H6.24998V0.833415C6.24998 0.603296 6.43653 0.416748 6.66665 0.416748C6.89677 0.416748 7.08331 0.603296 7.08331 0.833415V1.25008H7.91665C8.607 1.25008 9.16665 1.80973 9.16665 2.50008V8.33341C9.16665 9.02377 8.607 9.58341 7.91665 9.58341H2.08331C1.39296 9.58341 0.833313 9.02377 0.833313 8.33341V2.50008C0.833313 1.80973 1.39296 1.25008 2.08331 1.25008H2.91665V0.833415C2.91665 0.603296 3.10319 0.416748 3.33331 0.416748ZM2.91665 2.08341H2.08331C1.85319 2.08341 1.66665 2.26996 1.66665 2.50008V3.75008H8.33331V2.50008C8.33331 2.26996 8.14677 2.08341 7.91665 2.08341H7.08331V2.50008C7.08331 2.7302 6.89677 2.91675 6.66665 2.91675C6.43653 2.91675 6.24998 2.7302 6.24998 2.50008V2.08341H3.74998V2.50008C3.74998 2.7302 3.56343 2.91675 3.33331 2.91675C3.10319 2.91675 2.91665 2.7302 2.91665 2.50008V2.08341ZM8.33331 4.58341H1.66665V8.33341C1.66665 8.56353 1.85319 8.75008 2.08331 8.75008H7.91665C8.14677 8.75008 8.33331 8.56353 8.33331 8.33341V4.58341Z" fill="#17823E"/>
</g>
<defs>
<clipPath id="clip0_821_8984">
<rect width="10" height="10" fill="white"/>
</clipPath>
</defs>
</svg>
