<svg width="14" height="14" viewBox="0 0 14 14" fill="none" xmlns="http://www.w3.org/2000/svg">
<path d="M2 5.03765H3H11H12V6H11H2V5.03765Z" fill="#EF4444" stroke="#EF4444" stroke-width="0.2" stroke-linecap="round" stroke-linejoin="round"/>
<path fill-rule="evenodd" clip-rule="evenodd" d="M4.66698 0.582031C4.98914 0.582031 5.25031 0.843197 5.25031 1.16536V1.74869H8.7503V1.16536C8.7503 0.843197 9.01146 0.582031 9.33363 0.582031C9.65579 0.582031 9.91696 0.843197 9.91696 1.16536V1.74869H11.0836C12.0501 1.74869 12.8336 2.53219 12.8336 3.49869V11.6653C12.8336 12.6318 12.0501 13.4153 11.0836 13.4153H2.91699C1.95049 13.4153 1.16699 12.6318 1.16699 11.6653V3.49869C1.16699 2.53219 1.95049 1.74869 2.91699 1.74869H4.08365V1.16536C4.08365 0.843197 4.34481 0.582031 4.66698 0.582031ZM4.08365 2.91536H2.91699C2.59482 2.91536 2.33365 3.17652 2.33365 3.49869V5.24868H11.667V3.49869C11.667 3.17652 11.4058 2.91536 11.0836 2.91536H9.91696V3.49869C9.91696 3.82085 9.65579 4.08202 9.33363 4.08202C9.01146 4.08202 8.7503 3.82085 8.7503 3.49869V2.91536H5.25031V3.49869C5.25031 3.82085 4.98914 4.08202 4.66698 4.08202C4.34481 4.08202 4.08365 3.82085 4.08365 3.49869V2.91536ZM11.667 5.24868H2.33365V11.6653C2.33365 11.9875 2.59482 12.2487 2.91699 12.2487H11.0836C11.4058 12.2487 11.667 11.9875 11.667 11.6653V5.24868Z" fill="#231F20"/>
</svg>
