<svg width="15" height="16" viewBox="0 0 15 16" fill="none" xmlns="http://www.w3.org/2000/svg">
<path d="M4.02771 7.16672C4.02771 6.79836 4.17404 6.4451 4.43451 6.18463C4.69497 5.92416 5.04824 5.77783 5.4166 5.77783H12.361C12.7294 5.77783 13.0827 5.92416 13.3431 6.18463C13.6036 6.4451 13.7499 6.79836 13.7499 7.16672V11.3334C13.7499 11.7017 13.6036 12.055 13.3431 12.3155C13.0827 12.5759 12.7294 12.7223 12.361 12.7223H5.4166C5.04824 12.7223 4.69497 12.5759 4.43451 12.3155C4.17404 12.055 4.02771 11.7017 4.02771 11.3334V7.16672Z" stroke="#231F20" stroke-width="1.2" stroke-linecap="round" stroke-linejoin="round"/>
<path d="M7.5 9.24997C7.5 9.61833 7.64633 9.9716 7.9068 10.2321C8.16726 10.4925 8.52053 10.6389 8.88889 10.6389C9.25725 10.6389 9.61051 10.4925 9.87098 10.2321C10.1314 9.9716 10.2778 9.61833 10.2778 9.24997C10.2778 8.88162 10.1314 8.52835 9.87098 8.26788C9.61051 8.00741 9.25725 7.86108 8.88889 7.86108C8.52053 7.86108 8.16726 8.00741 7.9068 8.26788C7.64633 8.52835 7.5 8.88162 7.5 9.24997Z" stroke="#231F20" stroke-width="1.2" stroke-linecap="round" stroke-linejoin="round"/>
<path d="M10.9722 5.77778V4.38889C10.9722 4.02053 10.8259 3.66726 10.5654 3.4068C10.305 3.14633 9.95169 3 9.58333 3H2.63889C2.27053 3 1.91726 3.14633 1.6568 3.4068C1.39633 3.66726 1.25 4.02053 1.25 4.38889V8.55556C1.25 8.92391 1.39633 9.27718 1.6568 9.53765C1.91726 9.79812 2.27053 9.94444 2.63889 9.94444H4.02778" stroke="#231F20" stroke-width="1.2" stroke-linecap="round" stroke-linejoin="round"/>
</svg>
