<svg width="20" height="20" viewBox="0 0 20 20" fill="none" xmlns="http://www.w3.org/2000/svg">
<path d="M5.37036 8.88896C5.37036 8.39782 5.56547 7.92679 5.91276 7.5795C6.26005 7.23221 6.73107 7.03711 7.22221 7.03711H16.4815C16.9726 7.03711 17.4436 7.23221 17.7909 7.5795C18.1382 7.92679 18.3333 8.39782 18.3333 8.88896V14.4445C18.3333 14.9357 18.1382 15.4067 17.7909 15.754C17.4436 16.1013 16.9726 16.2964 16.4815 16.2964H7.22221C6.73107 16.2964 6.26005 16.1013 5.91276 15.754C5.56547 15.4067 5.37036 14.9357 5.37036 14.4445V8.88896Z" stroke="#231F20" stroke-width="1.5" stroke-linecap="round" stroke-linejoin="round"/>
<path d="M10 11.6668C10 12.1579 10.1951 12.629 10.5424 12.9763C10.8897 13.3235 11.3607 13.5186 11.8519 13.5186C12.343 13.5186 12.814 13.3235 13.1613 12.9763C13.5086 12.629 13.7037 12.1579 13.7037 11.6668C13.7037 11.1757 13.5086 10.7046 13.1613 10.3573C12.814 10.01 12.343 9.81494 11.8519 9.81494C11.3607 9.81494 10.8897 10.01 10.5424 10.3573C10.1951 10.7046 10 11.1757 10 11.6668Z" stroke="#231F20" stroke-width="1.5" stroke-linecap="round" stroke-linejoin="round"/>
<path d="M14.6297 7.0372V5.18535C14.6297 4.69421 14.4346 4.22318 14.0873 3.87589C13.74 3.5286 13.269 3.3335 12.7779 3.3335H3.5186C3.02746 3.3335 2.55643 3.5286 2.20914 3.87589C1.86185 4.22318 1.66675 4.69421 1.66675 5.18535V10.7409C1.66675 11.232 1.86185 11.7031 2.20914 12.0504C2.55643 12.3976 3.02746 12.5928 3.5186 12.5928H5.37045" stroke="#231F20" stroke-width="1.5" stroke-linecap="round" stroke-linejoin="round"/>
</svg>
