<svg width="8" height="8" viewBox="0 0 8 8" fill="none" xmlns="http://www.w3.org/2000/svg">
<path d="M2.09521 3.8332C2.09521 3.63113 2.17549 3.43733 2.31837 3.29445C2.46126 3.15156 2.65505 3.07129 2.85712 3.07129H6.66666C6.86873 3.07129 7.06253 3.15156 7.20541 3.29445C7.3483 3.43733 7.42857 3.63113 7.42857 3.8332V6.11892C7.42857 6.32099 7.3483 6.51478 7.20541 6.65767C7.06253 6.80056 6.86873 6.88083 6.66666 6.88083H2.85712C2.65505 6.88083 2.46126 6.80056 2.31837 6.65767C2.17549 6.51478 2.09521 6.32099 2.09521 6.11892V3.8332Z" stroke="#231F20" stroke-width="0.72" stroke-linecap="round" stroke-linejoin="round"/>
<path d="M4 4.97626C4 5.17833 4.08027 5.37213 4.22316 5.51501C4.36604 5.6579 4.55984 5.73817 4.76191 5.73817C4.96398 5.73817 5.15777 5.6579 5.30066 5.51501C5.44354 5.37213 5.52382 5.17833 5.52382 4.97626C5.52382 4.77419 5.44354 4.5804 5.30066 4.43751C5.15777 4.29463 4.96398 4.21436 4.76191 4.21436C4.55984 4.21436 4.36604 4.29463 4.22316 4.43751C4.08027 4.5804 4 4.77419 4 4.97626Z" stroke="#EF4444" stroke-width="0.72" stroke-linecap="round" stroke-linejoin="round"/>
<path d="M5.90476 3.07142V2.30952C5.90476 2.10744 5.82449 1.91365 5.68161 1.77076C5.53872 1.62788 5.34493 1.54761 5.14286 1.54761H1.33332C1.13125 1.54761 0.937454 1.62788 0.794569 1.77076C0.651683 1.91365 0.571411 2.10744 0.571411 2.30952V4.59524C0.571411 4.79731 0.651683 4.9911 0.794569 5.13399C0.937454 5.27687 1.13125 5.35715 1.33332 5.35715H2.09523" stroke="#231F20" stroke-width="0.72" stroke-linecap="round" stroke-linejoin="round"/>
</svg>
