<svg width="20" height="20" viewBox="0 0 20 20" fill="none" xmlns="http://www.w3.org/2000/svg">
<path fill-rule="evenodd" clip-rule="evenodd" d="M9.99984 2.4165C5.81168 2.4165 2.4165 5.81168 2.4165 9.99984C2.4165 14.188 5.81168 17.5832 9.99984 17.5832H10.7498V19.0832H9.99984C4.98325 19.0832 0.916504 15.0164 0.916504 9.99984C0.916504 4.98325 4.98325 0.916504 9.99984 0.916504C15.0164 0.916504 19.0832 4.98325 19.0832 9.99984C19.0832 13.1693 17.4595 15.9588 15.0015 17.5832H16.6668V19.0832H12.5835V14.9998H14.0835V16.391C16.1896 15.0423 17.5832 12.6834 17.5832 9.99984C17.5832 5.81168 14.188 2.4165 9.99984 2.4165ZM9.25013 5.4165V9.62484L6.2168 11.8998L7.1168 13.0998L10.7501 10.3748V5.4165H9.25013Z" fill="#221F20"/>
</svg>
