<svg width="24" height="24" viewBox="0 0 24 24" fill="none" xmlns="http://www.w3.org/2000/svg">
<circle cx="12" cy="12" r="12" fill="white"/>
<path fill-rule="evenodd" clip-rule="evenodd" d="M11.9999 6.74992C9.10042 6.74992 6.74992 9.10042 6.74992 11.9999C6.74992 14.8994 9.10042 17.2499 11.9999 17.2499C14.8994 17.2499 17.2499 14.8994 17.2499 11.9999C17.2499 9.10042 14.8994 6.74992 11.9999 6.74992ZM5.58325 11.9999C5.58325 8.45609 8.45609 5.58325 11.9999 5.58325C15.5437 5.58325 18.4166 8.45609 18.4166 11.9999C18.4166 15.5437 15.5437 18.4166 11.9999 18.4166C8.45609 18.4166 5.58325 15.5437 5.58325 11.9999ZM11.9999 7.91659C12.3221 7.91659 12.5833 8.17775 12.5833 8.49992V11.6394L14.5941 12.6448C14.8823 12.7889 14.9991 13.1393 14.855 13.4275C14.7109 13.7156 14.3605 13.8324 14.0724 13.6883L11.739 12.5217C11.5414 12.4229 11.4166 12.2209 11.4166 11.9999V8.49992C11.4166 8.17775 11.6778 7.91659 11.9999 7.91659Z" fill="#231F20"/>
<path fill-rule="evenodd" clip-rule="evenodd" d="M12.0001 7.91602C12.3222 7.91602 12.5834 8.17718 12.5834 8.49935V11.6388L14.5943 12.6443C14.8824 12.7883 14.9992 13.1387 14.8552 13.4269C14.7111 13.715 14.3607 13.8318 14.0725 13.6878L11.7392 12.5211C11.5416 12.4223 11.4167 12.2203 11.4167 11.9994V8.49935C11.4167 8.17718 11.6779 7.91602 12.0001 7.91602Z" fill="#EF4444"/>
</svg>
