<svg width="24" height="24" viewBox="0 0 24 24" fill="none" xmlns="http://www.w3.org/2000/svg">
<circle cx="12" cy="12" r="12" fill="#F3F4F6"/>
<path d="M15.5 9.66675H16.0833C16.7022 9.66675 17.2957 9.91258 17.7332 10.3502C18.1708 10.7878 18.4167 11.3812 18.4167 12.0001C18.4167 12.6189 18.1708 13.2124 17.7332 13.65C17.2957 14.0876 16.7022 14.3334 16.0833 14.3334H15.5" stroke="#231F20" stroke-width="1.12" stroke-linecap="round" stroke-linejoin="round"/>
<path d="M6.1665 9.66675H15.4998V14.9167C15.4998 15.5356 15.254 16.1291 14.8164 16.5667C14.3788 17.0042 13.7853 17.2501 13.1665 17.2501H8.49984C7.881 17.2501 7.28751 17.0042 6.84992 16.5667C6.41234 16.1291 6.1665 15.5356 6.1665 14.9167V9.66675Z" stroke="#231F20" stroke-width="1.12" stroke-linecap="round" stroke-linejoin="round"/>
<path d="M8.5 5.58325V7.33325" stroke="#231F20" stroke-width="1.12" stroke-linecap="round" stroke-linejoin="round"/>
<path d="M10.8335 5.58325V7.33325" stroke="#231F20" stroke-width="1.12" stroke-linecap="round" stroke-linejoin="round"/>
<path d="M13.1665 5.58325V7.33325" stroke="#231F20" stroke-width="1.12" stroke-linecap="round" stroke-linejoin="round"/>
</svg>
