<svg width="21" height="20" viewBox="0 0 21 20" fill="none" xmlns="http://www.w3.org/2000/svg">
<path fill-rule="evenodd" clip-rule="evenodd" d="M10.7769 1.6665C11.2372 1.6665 11.6103 2.0396 11.6103 2.49984V10.488L14.3543 7.74392C14.6798 7.41848 15.2074 7.41848 15.5329 7.74392C15.8583 8.06935 15.8583 8.59699 15.5329 8.92243L11.3662 13.0891C11.0408 13.4145 10.5131 13.4145 10.1877 13.0891L6.02101 8.92243C5.69558 8.59699 5.69558 8.06935 6.02101 7.74392C6.34645 7.41848 6.87409 7.41848 7.19953 7.74392L9.9436 10.488V2.49984C9.9436 2.0396 10.3167 1.6665 10.7769 1.6665ZM3.27694 11.6665C3.73717 11.6665 4.11027 12.0396 4.11027 12.4998V15.8332C4.11027 16.0542 4.19807 16.2661 4.35435 16.4224C4.51063 16.5787 4.72259 16.6665 4.9436 16.6665H16.6103C16.8313 16.6665 17.0432 16.5787 17.1995 16.4224C17.3558 16.2661 17.4436 16.0542 17.4436 15.8332V12.4998C17.4436 12.0396 17.8167 11.6665 18.2769 11.6665C18.7372 11.6665 19.1103 12.0396 19.1103 12.4998V15.8332C19.1103 16.4962 18.8469 17.1321 18.378 17.6009C17.9092 18.0698 17.2733 18.3332 16.6103 18.3332H4.9436C4.28056 18.3332 3.64468 18.0698 3.17584 17.6009C2.707 17.1321 2.4436 16.4962 2.4436 15.8332V12.4998C2.4436 12.0396 2.8167 11.6665 3.27694 11.6665Z" fill="#231F20"/>
</svg>
