<svg width="14" height="14" viewBox="0 0 14 14" fill="none" xmlns="http://www.w3.org/2000/svg">
<g clip-path="url(#clip0_2783_12437)">
<path fill-rule="evenodd" clip-rule="evenodd" d="M5.25 2.33317C4.2835 2.33317 3.5 3.11667 3.5 4.08317C3.5 5.04967 4.2835 5.83317 5.25 5.83317C6.2165 5.83317 7 5.04967 7 4.08317C7 3.11667 6.2165 2.33317 5.25 2.33317ZM2.33333 4.08317C2.33333 2.47234 3.63917 1.1665 5.25 1.1665C6.86083 1.1665 8.16667 2.47234 8.16667 4.08317C8.16667 5.694 6.86083 6.99984 5.25 6.99984C3.63917 6.99984 2.33333 5.694 2.33333 4.08317ZM8.76823 1.68098C8.84814 1.36888 9.16592 1.18066 9.47802 1.26057C10.1054 1.4212 10.6615 1.78608 11.0586 2.29767C11.4557 2.80926 11.6712 3.43846 11.6712 4.08609C11.6712 4.73371 11.4557 5.36292 11.0586 5.87451C10.6615 6.3861 10.1054 6.75097 9.47802 6.91161C9.16592 6.99152 8.84814 6.80329 8.76823 6.49119C8.68832 6.1791 8.87654 5.86131 9.18864 5.7814C9.56507 5.68502 9.89872 5.46609 10.137 5.15914C10.3752 4.85218 10.5046 4.47466 10.5046 4.08609C10.5046 3.69751 10.3752 3.31999 10.137 3.01304C9.89872 2.70608 9.56507 2.48716 9.18864 2.39077C8.87654 2.31087 8.68832 1.99308 8.76823 1.68098ZM0.854272 9.02078C1.40125 8.4738 2.14312 8.1665 2.91667 8.1665H7.58333C8.35688 8.1665 9.09875 8.4738 9.64573 9.02078C10.1927 9.56776 10.5 10.3096 10.5 11.0832V12.2498C10.5 12.572 10.2388 12.8332 9.91667 12.8332C9.5945 12.8332 9.33333 12.572 9.33333 12.2498V11.0832C9.33333 10.619 9.14896 10.1739 8.82077 9.84573C8.49258 9.51755 8.04746 9.33317 7.58333 9.33317H2.91667C2.45254 9.33317 2.00742 9.51755 1.67923 9.84573C1.35104 10.1739 1.16667 10.619 1.16667 11.0832V12.2498C1.16667 12.572 0.905499 12.8332 0.583333 12.8332C0.261167 12.8332 0 12.572 0 12.2498V11.0832C0 10.3096 0.307291 9.56776 0.854272 9.02078ZM11.1019 8.67984C11.1824 8.3679 11.5006 8.18032 11.8125 8.26086C12.4382 8.42242 12.9926 8.78722 13.3885 9.29797C13.7844 9.80872 13.9995 10.4365 14 11.0827V12.2498C14 12.572 13.7388 12.8332 13.4167 12.8332C13.0945 12.8332 12.8333 12.572 12.8333 12.2498V11.0836C12.833 10.6959 12.704 10.3192 12.4664 10.0127C12.2289 9.70629 11.8963 9.48742 11.5208 9.39048C11.2089 9.30994 11.0213 8.99177 11.1019 8.67984Z" fill="#231F20"/>
</g>
<g clip-path="url(#clip1_2783_12437)">
<path fill-rule="evenodd" clip-rule="evenodd" d="M8.76813 1.68097C8.84804 1.36887 9.16582 1.18065 9.47792 1.26056C10.1053 1.42119 10.6614 1.78607 11.0585 2.29766C11.4556 2.80925 11.6711 3.43845 11.6711 4.08608C11.6711 4.7337 11.4556 5.36291 11.0585 5.8745C10.6614 6.38609 10.1053 6.75096 9.47792 6.9116C9.16582 6.99151 8.84804 6.80328 8.76813 6.49118C8.68822 6.17909 8.87644 5.8613 9.18854 5.78139C9.56497 5.68501 9.89862 5.46608 10.1369 5.15913C10.3751 4.85217 10.5045 4.47465 10.5045 4.08608C10.5045 3.6975 10.3751 3.31998 10.1369 3.01303C9.89862 2.70607 9.56497 2.48715 9.18854 2.39077C8.87644 2.31086 8.68822 1.99307 8.76813 1.68097ZM11.1018 8.67983C11.1823 8.36789 11.5005 8.18031 11.8124 8.26085C12.4381 8.42241 12.9925 8.78721 13.3884 9.29796C13.7843 9.80871 13.9994 10.4365 13.9999 11.0827V12.2498C13.9999 12.572 13.7387 12.8332 13.4166 12.8332C13.0944 12.8332 12.8332 12.572 12.8332 12.2498V11.0836C12.8329 10.6959 12.7039 10.3192 12.4663 10.0127C12.2288 9.70628 11.8962 9.48741 11.5207 9.39047C11.2088 9.30993 11.0212 8.99176 11.1018 8.67983Z" fill="#EF4444"/>
</g>
<defs>
<clipPath id="clip0_2783_12437">
<rect width="14" height="14" fill="white"/>
</clipPath>
<clipPath id="clip1_2783_12437">
<rect width="14" height="14" fill="white"/>
</clipPath>
</defs>
</svg>
