<svg width="24" height="24" viewBox="0 0 24 24" fill="none" xmlns="http://www.w3.org/2000/svg">
<circle cx="12" cy="12" r="12" fill="white"/>
<g clip-path="url(#clip0_2472_243)">
<path fill-rule="evenodd" clip-rule="evenodd" d="M10.25 7.33317C9.2835 7.33317 8.5 8.11667 8.5 9.08317C8.5 10.0497 9.2835 10.8332 10.25 10.8332C11.2165 10.8332 12 10.0497 12 9.08317C12 8.11667 11.2165 7.33317 10.25 7.33317ZM7.33333 9.08317C7.33333 7.47234 8.63917 6.1665 10.25 6.1665C11.8608 6.1665 13.1667 7.47234 13.1667 9.08317C13.1667 10.694 11.8608 11.9998 10.25 11.9998C8.63917 11.9998 7.33333 10.694 7.33333 9.08317ZM13.7682 6.68098C13.8481 6.36888 14.1659 6.18066 14.478 6.26057C15.1054 6.4212 15.6615 6.78608 16.0586 7.29767C16.4557 7.80926 16.6712 8.43846 16.6712 9.08609C16.6712 9.73371 16.4557 10.3629 16.0586 10.8745C15.6615 11.3861 15.1054 11.751 14.478 11.9116C14.1659 11.9915 13.8481 11.8033 13.7682 11.4912C13.6883 11.1791 13.8765 10.8613 14.1886 10.7814C14.5651 10.685 14.8987 10.4661 15.137 10.1591C15.3752 9.85218 15.5046 9.47466 15.5046 9.08609C15.5046 8.69751 15.3752 8.31999 15.137 8.01304C14.8987 7.70608 14.5651 7.48716 14.1886 7.39077C13.8765 7.31087 13.6883 6.99308 13.7682 6.68098ZM5.85427 14.0208C6.40125 13.4738 7.14312 13.1665 7.91667 13.1665H12.5833C13.3569 13.1665 14.0987 13.4738 14.6457 14.0208C15.1927 14.5678 15.5 15.3096 15.5 16.0832V17.2498C15.5 17.572 15.2388 17.8332 14.9167 17.8332C14.5945 17.8332 14.3333 17.572 14.3333 17.2498V16.0832C14.3333 15.619 14.149 15.1739 13.8208 14.8457C13.4926 14.5175 13.0475 14.3332 12.5833 14.3332H7.91667C7.45254 14.3332 7.00742 14.5175 6.67923 14.8457C6.35104 15.1739 6.16667 15.619 6.16667 16.0832V17.2498C6.16667 17.572 5.9055 17.8332 5.58333 17.8332C5.26117 17.8332 5 17.572 5 17.2498V16.0832C5 15.3096 5.30729 14.5678 5.85427 14.0208ZM16.1019 13.6798C16.1824 13.3679 16.5006 13.1803 16.8125 13.2609C17.4382 13.4224 17.9926 13.7872 18.3885 14.298C18.7844 14.8087 18.9995 15.4365 19 16.0827V17.2498C19 17.572 18.7388 17.8332 18.4167 17.8332C18.0945 17.8332 17.8333 17.572 17.8333 17.2498V16.0836C17.833 15.6959 17.704 15.3192 17.4664 15.0127C17.2289 14.7063 16.8963 14.4874 16.5208 14.3905C16.2089 14.3099 16.0213 13.9918 16.1019 13.6798Z" fill="#231F20"/>
</g>
<g clip-path="url(#clip1_2472_243)">
<path fill-rule="evenodd" clip-rule="evenodd" d="M13.7681 6.68097C13.848 6.36887 14.1658 6.18065 14.4779 6.26056C15.1053 6.42119 15.6614 6.78607 16.0585 7.29766C16.4556 7.80925 16.6711 8.43845 16.6711 9.08608C16.6711 9.7337 16.4556 10.3629 16.0585 10.8745C15.6614 11.3861 15.1053 11.751 14.4779 11.9116C14.1658 11.9915 13.848 11.8033 13.7681 11.4912C13.6882 11.1791 13.8764 10.8613 14.1885 10.7814C14.565 10.685 14.8986 10.4661 15.1369 10.1591C15.3751 9.85217 15.5045 9.47465 15.5045 9.08608C15.5045 8.6975 15.3751 8.31998 15.1369 8.01303C14.8986 7.70607 14.565 7.48715 14.1885 7.39077C13.8764 7.31086 13.6882 6.99307 13.7681 6.68097ZM16.1018 13.6798C16.1823 13.3679 16.5005 13.1803 16.8124 13.2609C17.4381 13.4224 17.9925 13.7872 18.3884 14.298C18.7843 14.8087 18.9994 15.4365 18.9999 16.0827V17.2498C18.9999 17.572 18.7387 17.8332 18.4166 17.8332C18.0944 17.8332 17.8332 17.572 17.8332 17.2498V16.0836C17.8329 15.6959 17.7039 15.3192 17.4663 15.0127C17.2288 14.7063 16.8962 14.4874 16.5207 14.3905C16.2088 14.3099 16.0212 13.9918 16.1018 13.6798Z" fill="#EF4444"/>
</g>
<defs>
<clipPath id="clip0_2472_243">
<rect width="14" height="14" fill="white" transform="translate(5 5)"/>
</clipPath>
<clipPath id="clip1_2472_243">
<rect width="14" height="14" fill="white" transform="translate(5 5)"/>
</clipPath>
</defs>
</svg>
