<svg width="14" height="14" viewBox="0 0 14 14" fill="none" xmlns="http://www.w3.org/2000/svg">
<path fill-rule="evenodd" clip-rule="evenodd" d="M9.5457 1.37887C9.75072 1.17384 10.0831 1.17384 10.2882 1.37887L12.6215 3.7122C12.8265 3.91723 12.8265 4.24964 12.6215 4.45466L5.03816 12.038C4.9397 12.1365 4.80617 12.1918 4.66693 12.1918H2.33359C2.04364 12.1918 1.80859 11.9567 1.80859 11.6668V9.33343C1.80859 9.19419 1.86391 9.06066 1.96236 8.9622L9.5457 1.37887ZM8.90939 3.5001L10.5003 5.09097L11.5078 4.08343L9.91693 2.49256L8.90939 3.5001ZM9.7578 5.83343L8.16693 4.24256L2.85859 9.55089V11.1418H4.44947L9.7578 5.83343Z" fill="#1084CB"/>
</svg>
