<svg width="16" height="16" viewBox="0 0 16 16" fill="none" xmlns="http://www.w3.org/2000/svg">
<path fill-rule="evenodd" clip-rule="evenodd" d="M8.0488 3.33355L13.8351 9.12509C14.1021 8.76415 14.3482 8.388 14.572 7.99851C14.4992 7.87283 14.4029 7.7129 14.2837 7.52835C13.9764 7.05246 13.5212 6.4196 12.9303 5.78929C11.7457 4.52575 10.0933 3.35198 8.0488 3.33355ZM15.3333 8L15.9296 7.70186C16.0263 7.89527 16.0232 8.12357 15.9213 8.31428C15.4947 9.11227 14.986 9.86355 14.4034 10.5559C14.2832 10.6988 14.1084 10.7847 13.9218 10.7927C13.7352 10.8007 13.5537 10.73 13.4217 10.5979L6.12838 3.29786C5.95739 3.12671 5.89254 2.87637 5.95892 2.64374C6.0253 2.4111 6.2125 2.23268 6.44806 2.17755C6.957 2.05841 7.47807 1.99883 8.00077 2L8.00157 2L8 2.66667V2H8.00077C10.6001 2.00029 12.5971 3.48443 13.903 4.87737C14.5621 5.5804 15.0653 6.28088 15.4038 6.80498C15.5734 7.06768 15.7028 7.28776 15.7907 7.44399C15.8347 7.52215 15.8683 7.58447 15.8915 7.62829C15.9031 7.65021 15.9121 7.66752 15.9184 7.67988L15.926 7.69469L15.9283 7.69925L15.9296 7.70186C15.9296 7.70186 15.9296 7.70186 15.3333 8ZM3.6354 3.51015C3.90082 3.30747 4.27526 3.33245 4.5114 3.5686L7.05545 6.11265C7.057 6.11418 7.05855 6.11573 7.06009 6.11728L9.88269 8.93988C9.88426 8.94144 9.88583 8.94301 9.88739 8.94458L12.4314 11.4886C12.5674 11.6246 12.6381 11.8127 12.6252 12.0047C12.6123 12.1966 12.5171 12.3736 12.3641 12.4902C11.1114 13.4451 9.58591 13.9742 8.0109 13.9999L8 14C5.40033 14 3.40299 12.5157 2.09698 11.1226C1.43789 10.4196 0.93471 9.71913 0.596224 9.19502C0.426567 8.93232 0.297195 8.71224 0.209314 8.55601C0.165349 8.47785 0.131693 8.41553 0.108502 8.37171C0.0969045 8.34979 0.0879168 8.33249 0.0815587 8.32012L0.0739934 8.30531L0.0716927 8.30075L0.0709135 8.2992C0.0709135 8.2992 0.070382 8.29814 0.666667 8L0.0703819 8.29814C-0.0264925 8.10439 -0.023193 7.87566 0.0792296 7.68478C0.953436 6.05562 2.16594 4.63224 3.6354 3.51015ZM1.42838 8.00211C1.5011 8.1277 1.59728 8.2874 1.71628 8.47165C2.02362 8.94754 2.47878 9.5804 3.06969 10.2107C4.26263 11.4832 5.93008 12.6646 7.99456 12.6667C9.02487 12.6489 10.0291 12.3683 10.9143 11.8571L9.3665 10.3093C9.26066 10.3757 9.15005 10.4346 9.03543 10.4857C8.70832 10.6315 8.35521 10.7098 7.99715 10.7161C7.6391 10.7225 7.28344 10.6566 6.95139 10.5225C6.61935 10.3884 6.31772 10.1887 6.06449 9.93551C5.81127 9.68229 5.61165 9.38065 5.47753 9.04861C5.34341 8.71656 5.27754 8.3609 5.28386 8.00285C5.29018 7.64479 5.36855 7.29168 5.5143 6.96457C5.56537 6.84995 5.62435 6.73934 5.69069 6.6335L3.9914 4.93421C2.96688 5.80091 2.09956 6.83878 1.42838 8.00211ZM6.68526 7.62807C6.64248 7.75636 6.61938 7.89065 6.61699 8.02637C6.61383 8.20539 6.64676 8.38322 6.71382 8.54925C6.78088 8.71527 6.88069 8.86609 7.0073 8.9927C7.13391 9.11931 7.28473 9.21912 7.45075 9.28618C7.61678 9.35324 7.79461 9.38617 7.97363 9.38301C8.10935 9.38062 8.24364 9.35752 8.37193 9.31474L6.68526 7.62807Z" fill="#231F20"/>
<path fill-rule="evenodd" clip-rule="evenodd" d="M0.195262 0.195262C0.455612 -0.0650874 0.877722 -0.0650874 1.13807 0.195262L15.8047 14.8619C16.0651 15.1223 16.0651 15.5444 15.8047 15.8047C15.5444 16.0651 15.1223 16.0651 14.8619 15.8047L0.195262 1.13807C-0.0650873 0.877722 -0.0650873 0.455612 0.195262 0.195262Z" fill="#231F20"/>
</svg>
