<svg width="95" height="95" viewBox="0 0 95 95" fill="none" xmlns="http://www.w3.org/2000/svg">
<g filter="url(#filter0_d_1352_53013)">
<circle cx="47.5" cy="43.5" r="38.5" fill="white"/>
<circle cx="47.5" cy="43.5" r="38.4" stroke="#A19FA0" stroke-width="0.2"/>
</g>
<g clip-path="url(#clip0_1352_53013)">
<path d="M41.0525 49.7701L36.9862 46.5644H37.9601C39.1948 46.5644 40.2171 45.6253 40.3809 44.4108H41.0156V43.3917H40.3117C40.2309 43.0998 40.0994 42.8315 39.9263 42.5914H41.0156V41.5723H35.5347V42.5914H37.9601C38.5186 42.5938 39.0009 42.9186 39.2432 43.3917H35.5347V44.4108H39.3655C39.2132 45.0604 38.6432 45.5453 37.9601 45.5453H35.6154V46.5644H35.6201L39.6978 49.7583L41.0548 49.7677L41.0525 49.7701Z" fill="#4D4D4F"/>
<path d="M40.0741 52.7992C43.1134 52.1966 45.5896 49.5888 46.0604 46.4654C46.1227 46.0488 46.1596 45.6322 46.1619 45.2133C46.1435 41.9699 44.1334 39.0561 41.1518 37.9334C38.2094 36.8272 34.7432 37.7828 32.7493 40.2518C30.7162 42.7678 30.4046 46.4019 32.0708 49.2075C33.7209 51.9895 36.9517 53.4182 40.0718 52.7992H40.0741ZM33.0678 41.8099C34.4524 39.4774 37.2148 38.2205 39.8433 38.7737C42.4695 39.3244 44.498 41.4968 44.9365 44.1918C44.9919 44.5284 45.0081 44.8697 45.0104 45.2109C44.9942 47.9153 43.3257 50.4384 40.8126 51.3681C38.2371 52.3214 35.3432 51.5117 33.5939 49.3699C31.87 47.2586 31.6831 44.1471 33.0701 41.8099H33.0678Z" fill="#4D4D4F"/>
<path d="M44.9297 53.4771C44.2927 53.1806 43.4804 53.2818 42.795 53.2818H35.5463C34.8702 53.2818 34.1917 53.27 33.5155 53.2818C32.7494 53.2959 32.0132 53.7102 31.6809 54.4327C31.3001 55.2612 31.4178 56.3675 32.064 57.0265C32.7286 57.7043 33.5894 57.6267 34.4386 57.6267H44.0804C45.1604 57.5961 46.0281 56.7605 46.0905 55.6543C46.1412 54.7505 45.7697 53.8679 44.9297 53.4771ZM44.8212 56.0168C44.6596 56.2898 44.3896 56.4428 44.0804 56.4498H33.6101C33.2801 56.4498 32.9847 56.3675 32.7863 56.0803C32.4724 55.6284 32.5924 54.8611 33.0563 54.5787C33.2686 54.4492 33.4878 54.4586 33.7255 54.4586H43.8242C44.0435 54.4586 44.2489 54.4469 44.4473 54.541C44.9481 54.7834 45.0981 55.546 44.8212 56.0168Z" fill="#4D4D4F"/>
<path d="M44.9297 58.8458C44.2927 58.5492 43.4804 58.6504 42.795 58.6504H35.5463C34.8702 58.6504 34.1917 58.6387 33.5155 58.6504C32.7494 58.6646 32.0132 59.0788 31.6809 59.8014C31.3001 60.6299 31.4178 61.7361 32.064 62.3951C32.7286 63.073 33.5894 62.9953 34.4386 62.9953H44.0804C45.1604 62.9647 46.0281 62.1292 46.0905 61.0229C46.1412 60.1191 45.7697 59.2365 44.9297 58.8458ZM44.8212 61.3854C44.6596 61.6584 44.3896 61.8114 44.0804 61.8185H33.6101C33.2801 61.8185 32.9847 61.7361 32.7863 61.449C32.4724 60.9971 32.5924 60.2298 33.0563 59.9473C33.2686 59.8179 33.4878 59.8273 33.7255 59.8273H43.8242C44.0435 59.8273 44.2489 59.8155 44.4473 59.9097C44.9481 60.1521 45.0981 60.9147 44.8212 61.3854Z" fill="#4D4D4F"/>
<path d="M55.9537 25.5627C52.3721 24.207 48.1674 25.365 45.7373 28.3683C43.268 31.4187 42.9011 35.8365 44.9273 39.2352C46.9373 42.6057 50.8674 44.3403 54.6521 43.5683C58.333 42.8175 61.3123 39.6612 61.88 35.8742C61.9539 35.3775 61.9977 34.8809 62 34.3796C61.9816 30.4631 59.5538 26.9279 55.9537 25.5651V25.5627ZM55.5752 42.0831C52.3698 43.2647 48.7558 42.2526 46.5773 39.5835C44.4242 36.9474 44.1773 33.0733 45.9035 30.1453C47.632 27.2127 51.089 25.6404 54.3844 26.3277C57.6684 27.0126 60.2184 29.7429 60.7538 33.1133C60.8208 33.5299 60.8438 33.9536 60.8438 34.3749C60.8277 37.7665 58.723 40.9228 55.5729 42.0808L55.5752 42.0831Z" fill="#4D4D4F"/>
<path d="M52.0562 61.5803C52.2708 61.9192 52.4831 62.2558 52.6977 62.5947C52.94 62.976 53.4523 62.9713 53.6947 62.5947C55.2501 60.1822 56.8055 57.7673 58.3632 55.3548C58.5871 55.0088 58.8086 54.6628 59.0325 54.3168C59.2794 53.9355 58.9517 53.4366 58.534 53.4319C57.6409 53.4224 56.7478 53.413 55.8547 53.4013L55.8547 45.154C55.8547 44.3961 54.7008 44.3961 54.7008 45.154L54.7008 53.9826C54.7008 54.3027 54.9662 54.5687 55.2778 54.571C56.0093 54.5781 56.7409 54.5875 57.4748 54.5946C56.1063 56.7176 54.7378 58.8382 53.3693 60.9612C53.3139 61.046 53.2585 61.1331 53.2031 61.2178C51.8415 59.0665 50.4823 56.9153 49.1207 54.764C49.093 54.7217 49.0653 54.677 49.0399 54.6346L51.2554 54.6346C51.5669 54.6346 51.8323 54.3639 51.8323 54.0462L51.8323 45.0551C51.8323 44.2973 50.6784 44.2973 50.6784 45.0551L50.6784 53.4578L47.983 53.4578C47.5607 53.4578 47.2445 53.9638 47.4845 54.3427C49.0099 56.7552 50.5353 59.1654 52.0608 61.5779L52.0562 61.5803Z" fill="#4D4D4F"/>
<path d="M56.1312 29.9145C56.505 29.2578 55.5081 28.6647 55.1342 29.3214C54.5296 30.3852 53.9227 31.4468 53.318 32.5106C52.3465 34.2147 51.3772 35.9211 50.4057 37.6251C50.1841 38.0158 49.9626 38.4066 49.7387 38.7949C49.3649 39.4516 50.3618 40.0447 50.7357 39.388C51.3403 38.3242 51.9472 37.2627 52.5519 36.1988C53.5234 34.4948 54.4927 32.7883 55.4643 31.0843C55.6858 30.6936 55.9073 30.3052 56.1312 29.9145Z" fill="#D1343F"/>
<path d="M50.5994 30.2817C50.5994 30.2817 50.581 30.2817 50.5625 30.2817C50.5763 30.2841 50.5948 30.2864 50.6017 30.2817H50.5994Z" fill="#D1343F"/>
<path d="M51.4143 33.2753C52.1805 32.8964 52.6928 32.002 52.6028 31.1311C52.5059 30.2014 51.8874 29.3894 50.9781 29.1635C50.0781 28.9399 49.1504 29.3212 48.6358 30.1002C48.1535 30.8299 48.1719 31.8772 48.6888 32.581C48.9935 32.9952 49.4043 33.3059 49.9004 33.4377C50.4197 33.5742 50.932 33.4989 51.4143 33.2753ZM50.0666 32.2609C50.0666 32.2609 50.0804 32.2656 50.0804 32.268C50.0804 32.268 50.0735 32.2656 50.0666 32.2609ZM50.5812 32.3291C50.5443 32.3386 50.5558 32.3339 50.5812 32.3291V32.3291ZM50.6274 32.3221H50.6366C50.6366 32.3221 50.632 32.3221 50.6274 32.3221ZM51.2274 31.969C51.2274 31.969 51.2458 31.9455 51.2643 31.9173C51.2643 31.9243 51.2481 31.9455 51.2274 31.969ZM51.2505 30.6675C51.2389 30.6533 51.2251 30.6369 51.2228 30.6369C51.232 30.6416 51.2412 30.6533 51.2505 30.6675ZM50.8858 30.3709C50.8858 30.3709 50.8651 30.3638 50.8489 30.3544C50.8697 30.3615 50.8858 30.3685 50.8858 30.3709ZM49.6558 31.9479L49.6512 31.9431C49.6166 31.8867 49.5796 31.8302 49.5473 31.7713C49.5335 31.7478 49.515 31.7148 49.5035 31.6842C49.5035 31.6725 49.4989 31.6607 49.4966 31.6513C49.4943 31.6442 49.4619 31.5195 49.4481 31.4559C49.4504 31.4842 49.4481 31.5054 49.4481 31.4465C49.4458 31.4324 49.4435 31.4206 49.4435 31.4206C49.4435 31.4206 49.4435 31.423 49.4458 31.4277V31.4206C49.4435 31.383 49.4412 31.343 49.4412 31.3053C49.4412 31.2771 49.4412 31.2488 49.4435 31.2206C49.4435 31.2253 49.4389 31.2276 49.4366 31.2323C49.4389 31.2276 49.4412 31.2206 49.4435 31.2159C49.4435 31.2088 49.4435 31.1994 49.4435 31.1923C49.4435 31.1405 49.4573 31.157 49.4527 31.1923C49.4666 31.1358 49.4712 31.0511 49.4827 31.0134C49.4919 30.9781 49.5058 30.9428 49.5173 30.9075C49.5543 30.8369 49.5866 30.7687 49.6304 30.7051C49.6466 30.6816 49.7158 30.6227 49.6512 30.6722C49.5819 30.7239 49.665 30.658 49.6789 30.6416C49.7043 30.611 49.8058 30.4792 49.845 30.4792L49.7896 30.5215C49.8058 30.5098 49.822 30.498 49.8381 30.4862C49.875 30.4603 49.9143 30.4344 49.9558 30.4109C49.9904 30.3897 50.0273 30.3732 50.062 30.3544C50.062 30.3544 50.0666 30.3544 50.0712 30.3521C50.1335 30.3332 50.1958 30.3121 50.2604 30.2979L50.2881 30.2909C50.3204 30.2885 50.3666 30.2815 50.3735 30.2815C50.392 30.2815 50.4958 30.2885 50.5581 30.2909C50.5304 30.2838 50.5143 30.272 50.5951 30.2909C50.632 30.2979 50.6666 30.3073 50.7035 30.3168C50.7174 30.3215 50.7889 30.3427 50.8374 30.3591C50.8466 30.3638 50.8581 30.3709 50.8812 30.3827C50.9135 30.3991 50.9481 30.418 50.9804 30.4392C51.0012 30.4533 51.022 30.4674 51.0428 30.4815C51.052 30.4886 51.0589 30.4933 51.0681 30.5003L51.0751 30.5074C51.1304 30.5615 51.1835 30.6157 51.2366 30.6722C51.2458 30.6816 51.2528 30.6886 51.2574 30.6933C51.2689 30.7122 51.2781 30.7334 51.2851 30.7428C51.3128 30.7851 51.3543 30.844 51.3774 30.8981C51.3774 30.9075 51.3774 30.9193 51.382 30.9311C51.3958 30.9828 51.4143 31.0323 51.4258 31.0841C51.4258 31.0888 51.4397 31.1453 51.4443 31.1782C51.4443 31.1923 51.4466 31.2064 51.4466 31.2182C51.4466 31.2418 51.4374 31.3736 51.4374 31.4371C51.442 31.4042 51.4581 31.3712 51.4397 31.4654V31.4701C51.4328 31.503 51.4235 31.5407 51.4143 31.5783C51.4051 31.616 51.3935 31.6513 51.382 31.6889C51.3774 31.7007 51.3751 31.7101 51.3705 31.7219V31.7266C51.3312 31.7949 51.2989 31.8608 51.2574 31.9267L51.2366 31.9573C51.2274 31.969 51.2205 31.9785 51.2181 31.9832C51.1928 32.009 51.1628 32.0373 51.1558 32.0444C51.1374 32.0632 51.1189 32.0797 51.1004 32.0985C51.0889 32.1103 51.0751 32.122 51.0612 32.1314C50.9851 32.1809 50.9089 32.2303 50.8258 32.2703C50.8212 32.2703 50.8212 32.2703 50.8166 32.2727C50.7797 32.2844 50.7427 32.2985 50.7035 32.308C50.6712 32.3174 50.6389 32.3244 50.6066 32.3315C50.5535 32.3315 50.4197 32.3433 50.4012 32.3433C50.392 32.3433 50.3158 32.3339 50.2974 32.3362H50.2927C50.2189 32.3221 50.1473 32.3009 50.0758 32.275L50.0504 32.2656C50.032 32.2562 50.0135 32.2468 50.0089 32.2444C49.942 32.2091 49.8796 32.1667 49.8173 32.1267L49.8127 32.122C49.785 32.0961 49.755 32.0702 49.7296 32.042C49.7043 32.0138 49.6789 31.9832 49.6512 31.9549L49.6558 31.9479Z" fill="#D1343F"/>
<path d="M51.4492 31.4572C51.4492 31.4572 51.4468 31.4403 51.4468 31.4258C51.4468 31.4379 51.4468 31.4499 51.4492 31.4572Z" fill="#D1343F"/>
<path d="M49.4414 31.2097V31.2145C49.4414 31.2145 49.4509 31.1903 49.4533 31.1807C49.4509 31.1927 49.4462 31.2 49.4414 31.2072V31.2097Z" fill="#D1343F"/>
<path d="M57.5808 37.1072C57.4839 36.1775 56.8654 35.3655 55.9562 35.1395C55.0561 34.9159 54.1284 35.2972 53.6138 36.0763C53.1315 36.8059 53.1499 37.8533 53.6669 38.5571C53.9715 38.9713 54.3823 39.282 54.8784 39.4138C55.3977 39.5503 55.91 39.475 56.3923 39.2514C57.1585 38.8725 57.6708 37.9781 57.5808 37.1072ZM55.5592 38.3029C55.5223 38.3123 55.5338 38.3076 55.5592 38.3029V38.3029ZM55.6054 38.2958H55.6146C55.6146 38.2958 55.61 38.2958 55.6054 38.2958ZM56.2054 37.9428C56.2054 37.9428 56.2239 37.9192 56.2423 37.891C56.2423 37.898 56.2262 37.9192 56.2054 37.9428ZM56.2285 36.6388C56.2169 36.6247 56.2031 36.6106 56.2031 36.6082C56.2123 36.6129 56.2216 36.6247 56.2285 36.6388ZM55.8639 36.3423C55.8639 36.3423 55.8431 36.3352 55.8269 36.3258C55.8477 36.3328 55.8639 36.3399 55.8639 36.3423ZM55.0446 38.2346C55.0446 38.2346 55.0584 38.2393 55.0584 38.2417C55.0584 38.2417 55.0515 38.2393 55.0446 38.2346ZM55.3861 38.3076C55.3861 38.3076 55.3008 38.2982 55.2823 38.3005H55.2777C55.2038 38.284 55.1323 38.2652 55.0608 38.2393L55.0354 38.2299C55.0169 38.2205 54.9984 38.2111 54.9938 38.2087C54.9269 38.1734 54.8646 38.131 54.8023 38.091L54.7977 38.0863C54.77 38.0604 54.74 38.0345 54.7146 38.0063C54.6892 37.9781 54.6638 37.9475 54.6361 37.9192L54.6315 37.9145C54.5969 37.858 54.56 37.8015 54.5277 37.7427C54.5138 37.7192 54.4954 37.6862 54.4838 37.6556C54.4838 37.6438 54.4792 37.6321 54.4769 37.6227C54.4746 37.6156 54.4423 37.4909 54.4284 37.4273C54.4307 37.4555 54.4284 37.4767 54.4284 37.4179C54.4261 37.4038 54.4238 37.392 54.4238 37.392C54.4238 37.392 54.4238 37.3944 54.4261 37.3991V37.392C54.4238 37.3543 54.4215 37.3143 54.4215 37.2767C54.4215 37.2484 54.4215 37.2202 54.4238 37.1919C54.4238 37.1966 54.4192 37.199 54.4169 37.2037C54.4192 37.199 54.4215 37.1919 54.4238 37.1872C54.4238 37.1802 54.4238 37.1708 54.4238 37.1637C54.4238 37.1119 54.4377 37.1284 54.433 37.1637C54.4469 37.1072 54.4515 37.0225 54.4631 36.9848C54.4723 36.9495 54.4861 36.9142 54.4977 36.8789C54.5346 36.8083 54.5669 36.74 54.6107 36.6765C54.6269 36.6529 54.6961 36.5941 54.6315 36.6435C54.5623 36.6953 54.6454 36.6294 54.6592 36.6153C54.6846 36.5847 54.7861 36.4529 54.8254 36.4529L54.77 36.4952C54.7861 36.4835 54.8023 36.4717 54.8184 36.4599C54.8554 36.4341 54.8946 36.4082 54.9361 36.3846C54.9708 36.3634 55.0077 36.347 55.0423 36.3281C55.0423 36.3281 55.0469 36.3281 55.0515 36.3258C55.1138 36.307 55.1761 36.2858 55.2408 36.2717L55.2685 36.2646C55.3008 36.2622 55.3469 36.2552 55.3538 36.2552C55.3723 36.2552 55.4762 36.2622 55.5385 36.2646C55.5108 36.2575 55.4946 36.2458 55.5754 36.2646C55.6123 36.2717 55.6469 36.2811 55.6838 36.2905C55.6977 36.2952 55.7692 36.3164 55.8177 36.3328C55.8269 36.3376 55.8385 36.3446 55.8615 36.3564C55.8939 36.3729 55.9285 36.3917 55.9608 36.4129C55.9816 36.427 56.0023 36.4411 56.0231 36.4552C56.0323 36.4623 56.0392 36.467 56.0485 36.4741L56.0554 36.4811C56.1108 36.5353 56.1639 36.5894 56.2169 36.6459C56.2262 36.6553 56.2331 36.6624 56.2377 36.6671C56.2492 36.6859 56.2585 36.7071 56.2654 36.7165C56.2931 36.7589 56.3346 36.8177 56.3577 36.8718C56.3577 36.8813 56.3577 36.893 56.3623 36.9048C56.3762 36.9566 56.3946 37.006 56.4062 37.0578C56.4062 37.0625 56.42 37.119 56.4246 37.1519C56.4246 37.166 56.4269 37.1802 56.4269 37.1919C56.4269 37.2155 56.4177 37.3473 56.4177 37.4108C56.4223 37.3779 56.4385 37.3449 56.42 37.4391V37.4438C56.4131 37.4767 56.4039 37.5144 56.3946 37.552C56.3854 37.5897 56.3739 37.625 56.3623 37.6627C56.3577 37.6744 56.3554 37.6839 56.3508 37.6956V37.7003C56.3116 37.7686 56.2792 37.8345 56.2377 37.9004L56.2169 37.931C56.2077 37.9428 56.2008 37.9522 56.1985 37.9569C56.1731 37.9828 56.1431 38.011 56.1362 38.0181C56.1177 38.0369 56.0992 38.0534 56.0808 38.0722C56.0692 38.084 56.0554 38.0957 56.0416 38.1052C55.9654 38.1546 55.8892 38.204 55.8062 38.244C55.8015 38.244 55.8015 38.244 55.7969 38.2464C55.76 38.2581 55.7231 38.2723 55.6838 38.2817C55.6515 38.2911 55.6192 38.2982 55.5869 38.3052C55.5338 38.3052 55.4 38.317 55.3815 38.317L55.3861 38.3076Z" fill="#D1343F"/>
<path d="M56.4267 37.4328C56.4267 37.4328 56.4243 37.4159 56.4243 37.4014C56.4243 37.4134 56.4243 37.4255 56.4267 37.4328Z" fill="#D1343F"/>
<path d="M55.5775 36.2578C55.5775 36.2578 55.559 36.2578 55.5405 36.2578C55.5544 36.2602 55.5728 36.2625 55.5798 36.2578H55.5775Z" fill="#D1343F"/>
<path d="M54.4214 37.1857V37.1906C54.4214 37.1906 54.4309 37.1664 54.4333 37.1567C54.4309 37.1688 54.4262 37.1761 54.4214 37.1833V37.1857Z" fill="#D1343F"/>
</g>
<defs>
<filter id="filter0_d_1352_53013" x="0" y="0" width="95" height="95" filterUnits="userSpaceOnUse" color-interpolation-filters="sRGB">
<feFlood flood-opacity="0" result="BackgroundImageFix"/>
<feColorMatrix in="SourceAlpha" type="matrix" values="0 0 0 0 0 0 0 0 0 0 0 0 0 0 0 0 0 0 127 0" result="hardAlpha"/>
<feOffset dy="4"/>
<feGaussianBlur stdDeviation="4.5"/>
<feComposite in2="hardAlpha" operator="out"/>
<feColorMatrix type="matrix" values="0 0 0 0 0 0 0 0 0 0 0 0 0 0 0 0 0 0 0.1 0"/>
<feBlend mode="normal" in2="BackgroundImageFix" result="effect1_dropShadow_1352_53013"/>
<feBlend mode="normal" in="SourceGraphic" in2="effect1_dropShadow_1352_53013" result="shape"/>
</filter>
<clipPath id="clip0_1352_53013">
<rect width="31" height="38" fill="white" transform="translate(31 25)"/>
</clipPath>
</defs>
</svg>
