<svg width="95" height="95" viewBox="0 0 95 95" fill="none" xmlns="http://www.w3.org/2000/svg">
<g filter="url(#filter0_d_1352_53014)">
<circle cx="47.5" cy="43.5" r="38.5" fill="white"/>
<circle cx="47.5" cy="43.5" r="38.4" stroke="#979797" stroke-width="0.2"/>
</g>
<path d="M33.6445 45.5C33.6445 42 33.9612 39.0833 34.5945 36.75C35.2279 34.4167 36.1112 32.5833 37.2445 31.25C38.4112 29.8833 39.7779 28.9167 41.3445 28.35C42.9112 27.7833 44.6279 27.5 46.4945 27.5C48.3612 27.5 50.0779 27.7833 51.6445 28.35C53.2112 28.9167 54.5612 29.8833 55.6945 31.25C56.8279 32.6167 57.7112 34.4667 58.3445 36.8C58.9779 39.1 59.2945 42 59.2945 45.5C59.2945 49 58.9779 51.9167 58.3445 54.25C57.7112 56.55 56.8112 58.3833 55.6445 59.75C54.5112 61.1167 53.1612 62.0833 51.5945 62.65C50.0279 63.2167 48.3279 63.5 46.4945 63.5C44.6279 63.5 42.9112 63.2167 41.3445 62.65C39.7779 62.0833 38.4112 61.1167 37.2445 59.75C36.1112 58.3833 35.2279 56.55 34.5945 54.25C33.9612 51.9167 33.6445 49 33.6445 45.5ZM35.5945 45.55C35.5945 48.7167 35.8612 51.3667 36.3945 53.5C36.9612 55.6 37.7279 57.25 38.6945 58.45C39.6945 59.65 40.8612 60.5167 42.1945 61.05C43.5279 61.55 44.9612 61.8 46.4945 61.8C48.0279 61.8 49.4445 61.55 50.7445 61.05C52.0779 60.5167 53.2279 59.65 54.1945 58.45C55.1945 57.25 55.9612 55.6 56.4945 53.5C57.0612 51.3667 57.3445 48.7167 57.3445 45.55C57.3445 42.35 57.0612 39.6833 56.4945 37.55C55.9612 35.4167 55.1945 33.75 54.1945 32.55C53.2279 31.3167 52.0779 30.45 50.7445 29.95C49.4445 29.45 48.0279 29.2 46.4945 29.2C44.9612 29.2 43.5279 29.45 42.1945 29.95C40.8612 30.45 39.6945 31.3167 38.6945 32.55C37.7279 33.75 36.9612 35.4167 36.3945 37.55C35.8612 39.6833 35.5945 42.35 35.5945 45.55Z" fill="#4D4D4F" fill-opacity="0.9"/>
<rect x="50" y="48" width="14" height="15" fill="white"/>
<path d="M51.3885 53.888C51.3885 53.3373 51.4445 52.8753 51.5565 52.502C51.6778 52.1287 51.8458 51.8347 52.0605 51.62C52.2845 51.396 52.5505 51.242 52.8585 51.158C53.1758 51.0647 53.5305 51.018 53.9225 51.018C54.3145 51.018 54.6645 51.0647 54.9725 51.158C55.2898 51.2513 55.5558 51.4053 55.7705 51.62C55.9945 51.8347 56.1625 52.1287 56.2745 52.502C56.3865 52.8753 56.4425 53.3373 56.4425 53.888C56.4425 54.4387 56.3818 54.9007 56.2605 55.274C56.1485 55.638 55.9805 55.932 55.7565 56.156C55.5325 56.38 55.2665 56.5387 54.9585 56.632C54.6505 56.7253 54.3051 56.772 53.9225 56.772C53.5305 56.772 53.1758 56.7253 52.8585 56.632C52.5505 56.5387 52.2845 56.3847 52.0605 56.17C51.8458 55.946 51.6778 55.652 51.5565 55.288C51.4445 54.9147 51.3885 54.448 51.3885 53.888ZM52.7885 53.93C52.7885 54.462 52.8351 54.868 52.9285 55.148C53.0218 55.428 53.1525 55.6193 53.3205 55.722C53.4978 55.8153 53.6985 55.862 53.9225 55.862C54.1465 55.862 54.3425 55.8153 54.5105 55.722C54.6785 55.6193 54.8091 55.428 54.9025 55.148C55.0051 54.868 55.0565 54.462 55.0565 53.93C55.0565 53.3513 55.0051 52.922 54.9025 52.642C54.8091 52.3527 54.6785 52.1613 54.5105 52.068C54.3425 51.9747 54.1465 51.928 53.9225 51.928C53.6985 51.928 53.4978 51.9793 53.3205 52.082C53.1525 52.1753 53.0218 52.3667 52.9285 52.656C52.8351 52.936 52.7885 53.3607 52.7885 53.93ZM55.5325 61.112L54.3425 61.056L59.4805 50.822L60.6845 50.864L55.5325 61.112ZM58.5565 58.242C58.5565 57.6913 58.6125 57.2293 58.7245 56.856C58.8458 56.4827 59.0138 56.1887 59.2285 55.974C59.4525 55.75 59.7185 55.596 60.0265 55.512C60.3438 55.4187 60.6985 55.372 61.0905 55.372C61.4825 55.372 61.8325 55.4187 62.1405 55.512C62.4578 55.6053 62.7238 55.7593 62.9385 55.974C63.1625 56.1887 63.3305 56.4827 63.4425 56.856C63.5545 57.2293 63.6105 57.6913 63.6105 58.242C63.6105 58.7927 63.5498 59.2547 63.4285 59.628C63.3165 59.992 63.1485 60.286 62.9245 60.51C62.7005 60.734 62.4345 60.8927 62.1265 60.986C61.8185 61.0793 61.4731 61.126 61.0905 61.126C60.6985 61.126 60.3438 61.0793 60.0265 60.986C59.7185 60.8927 59.4525 60.7387 59.2285 60.524C59.0138 60.3 58.8458 60.006 58.7245 59.642C58.6125 59.2687 58.5565 58.802 58.5565 58.242ZM59.9565 58.284C59.9565 58.816 60.0031 59.222 60.0965 59.502C60.1898 59.782 60.3205 59.9733 60.4885 60.076C60.6658 60.1693 60.8665 60.216 61.0905 60.216C61.3145 60.216 61.5105 60.1693 61.6785 60.076C61.8465 59.9733 61.9771 59.782 62.0705 59.502C62.1731 59.222 62.2245 58.816 62.2245 58.284C62.2245 57.7053 62.1731 57.276 62.0705 56.996C61.9771 56.7067 61.8465 56.5153 61.6785 56.422C61.5105 56.3287 61.3145 56.282 61.0905 56.282C60.8665 56.282 60.6658 56.3333 60.4885 56.436C60.3205 56.5293 60.1898 56.7207 60.0965 57.01C60.0031 57.29 59.9565 57.7147 59.9565 58.284Z" fill="#D1343F"/>
<defs>
<filter id="filter0_d_1352_53014" x="0" y="0" width="95" height="95" filterUnits="userSpaceOnUse" color-interpolation-filters="sRGB">
<feFlood flood-opacity="0" result="BackgroundImageFix"/>
<feColorMatrix in="SourceAlpha" type="matrix" values="0 0 0 0 0 0 0 0 0 0 0 0 0 0 0 0 0 0 127 0" result="hardAlpha"/>
<feOffset dy="4"/>
<feGaussianBlur stdDeviation="4.5"/>
<feComposite in2="hardAlpha" operator="out"/>
<feColorMatrix type="matrix" values="0 0 0 0 0 0 0 0 0 0 0 0 0 0 0 0 0 0 0.1 0"/>
<feBlend mode="normal" in2="BackgroundImageFix" result="effect1_dropShadow_1352_53014"/>
<feBlend mode="normal" in="SourceGraphic" in2="effect1_dropShadow_1352_53014" result="shape"/>
</filter>
</defs>
</svg>
