<svg width="214" height="116" viewBox="0 0 214 116" fill="none" xmlns="http://www.w3.org/2000/svg">
<path d="M25.0622 42.0474H138.47V110.176H25.0622V42.0474Z" fill="white"/>
<path d="M25.0613 110.354H138.47C138.569 110.354 138.648 110.274 138.648 110.176V42.0474C138.648 41.9483 138.568 41.8687 138.47 41.8687H25.0621C24.9629 41.8687 24.8833 41.9483 24.8833 42.0474V110.176C24.8833 110.275 24.9637 110.354 25.0621 110.354H25.0613ZM138.29 109.997H25.2401V42.2261H138.29V109.997Z" fill="#231F20"/>
<path d="M116.616 106.294H131.424L128.48 45.8433H119.56L116.616 106.294Z" fill="white"/>
<path d="M116.616 106.473H131.423C131.472 106.473 131.519 106.453 131.552 106.418C131.587 106.382 131.604 106.335 131.602 106.286L128.658 45.8353C128.653 45.7403 128.574 45.6655 128.479 45.6655H119.56C119.465 45.6655 119.386 45.7403 119.381 45.8353L116.437 106.286C116.435 106.334 116.453 106.382 116.487 106.418C116.521 106.454 116.568 106.473 116.616 106.473ZM131.235 106.116H116.804L119.731 46.0229H128.309L131.236 106.116H131.235Z" fill="#231F20"/>
<path d="M81.1943 18.0122L136.251 40.8031H26.1372L81.1943 18.0122Z" fill="white"/>
<path d="M26.1371 40.9819H136.251C136.337 40.9819 136.41 40.9218 136.427 40.8381C136.443 40.7545 136.398 40.6708 136.32 40.6383L81.2625 17.8474C81.2186 17.8295 81.169 17.8295 81.1251 17.8474L26.068 40.6383C25.9892 40.6708 25.9444 40.7545 25.9607 40.8381C25.9778 40.9218 26.0509 40.9819 26.1363 40.9819H26.1371ZM135.351 40.6245H27.0368L81.1934 18.2064L135.35 40.6245H135.351Z" fill="#231F20"/>
<path d="M40.645 38.0971H120.455C120.555 38.0971 120.634 38.0167 120.634 37.9184C120.634 37.8201 120.554 37.7397 120.455 37.7397H40.645C40.5458 37.7397 40.4661 37.8201 40.4661 37.9184C40.4661 38.0167 40.5466 38.0971 40.645 38.0971Z" fill="#231F20"/>
<path d="M117.821 48.6875H130.219C131.656 48.6875 132.82 47.5235 132.82 46.0882C132.82 44.6528 131.655 43.4888 130.219 43.4888H117.821C116.384 43.4888 115.22 44.6528 115.22 46.0882C115.22 47.5235 116.385 48.6875 117.821 48.6875Z" fill="white"/>
<path d="M117.821 48.8659H130.219C131.752 48.8659 133 47.6198 133 46.087C133 44.5542 131.753 43.3081 130.219 43.3081H117.821C116.288 43.3081 115.041 44.5542 115.041 46.087C115.041 47.6198 116.288 48.8659 117.821 48.8659ZM130.219 43.6663C131.554 43.6663 132.641 44.7524 132.641 46.087C132.641 47.4216 131.554 48.5077 130.219 48.5077H117.821C116.486 48.5077 115.399 47.4216 115.399 46.087C115.399 44.7524 116.486 43.6663 117.821 43.6663H130.219Z" fill="#231F20"/>
<path d="M23.275 40.6714H139.904V43.7297H23.275V40.6714Z" fill="white"/>
<path d="M23.2753 43.9084H139.905C140.004 43.9084 140.083 43.828 140.083 43.7297V40.6714C140.083 40.5723 140.003 40.4927 139.905 40.4927H23.2753C23.1762 40.4927 23.0965 40.5731 23.0965 40.6714V43.7297C23.0965 43.8288 23.177 43.9084 23.2753 43.9084ZM139.725 43.551H23.4541V40.8501H139.725V43.551Z" fill="#231F20"/>
<path d="M23.0674 108.969H139.697V112.027H23.0674V108.969Z" fill="white"/>
<path d="M23.0674 112.206H139.697C139.796 112.206 139.875 112.125 139.875 112.027V108.969C139.875 108.87 139.795 108.79 139.697 108.79H23.0674C22.9682 108.79 22.8886 108.87 22.8886 108.969V112.027C22.8886 112.126 22.969 112.206 23.0674 112.206ZM139.517 111.848H23.2462V109.147H139.518V111.848H139.517Z" fill="#231F20"/>
<path d="M113.46 105.502H134.581V109.019H113.46V105.502Z" fill="white"/>
<path d="M113.46 109.199H134.58C134.68 109.199 134.759 109.119 134.759 109.02V105.503C134.759 105.404 134.679 105.324 134.58 105.324H113.46C113.361 105.324 113.281 105.405 113.281 105.503V109.02C113.281 109.119 113.362 109.199 113.46 109.199ZM134.402 108.842H113.639V105.682H134.402V108.842Z" fill="#231F20"/>
<path d="M88.4306 106.294H103.238L100.294 45.8433H91.3753L88.4306 106.294Z" fill="white"/>
<path d="M88.4304 106.473H103.238C103.287 106.473 103.334 106.453 103.367 106.418C103.401 106.382 103.419 106.335 103.417 106.286L100.473 45.8353C100.468 45.7403 100.389 45.6655 100.294 45.6655H91.375C91.2799 45.6655 91.2011 45.7403 91.1962 45.8353L88.2524 106.286C88.25 106.334 88.2679 106.382 88.302 106.418C88.3361 106.454 88.3825 106.473 88.4312 106.473H88.4304ZM103.05 106.116H88.6182L91.5449 46.0229H100.124L103.05 106.116H103.05Z" fill="#231F20"/>
<path d="M89.6356 48.6875H102.033C103.47 48.6875 104.634 47.5235 104.634 46.0882C104.634 44.6528 103.47 43.4888 102.033 43.4888H89.6356C88.1987 43.4888 87.0348 44.6528 87.0348 46.0882C87.0348 47.5235 88.1995 48.6875 89.6356 48.6875Z" fill="white"/>
<path d="M89.6357 48.8659H102.034C103.566 48.8659 104.814 47.6198 104.814 46.087C104.814 44.5542 103.567 43.3081 102.034 43.3081H89.6357C88.1028 43.3081 86.8552 44.5542 86.8552 46.087C86.8552 47.6198 88.102 48.8659 89.6357 48.8659ZM102.034 43.6663C103.369 43.6663 104.456 44.7524 104.456 46.087C104.456 47.4216 103.369 48.5077 102.034 48.5077H89.6357C88.3003 48.5077 87.2137 47.4216 87.2137 46.087C87.2137 44.7524 88.3003 43.6663 89.6357 43.6663H102.034Z" fill="#231F20"/>
<path d="M85.2742 105.502H106.395V109.019H85.2742V105.502Z" fill="white"/>
<path d="M85.2741 109.199H106.394C106.494 109.199 106.573 109.119 106.573 109.02V105.503C106.573 105.404 106.493 105.324 106.394 105.324H85.2741C85.1749 105.324 85.0953 105.405 85.0953 105.503V109.02C85.0953 109.119 85.1757 109.199 85.2741 109.199ZM106.216 108.842H85.4529V105.682H106.216V108.842Z" fill="#231F20"/>
<path d="M60.2444 106.294H75.0513L72.1074 45.8433H63.1882L60.2444 106.294Z" fill="white"/>
<path d="M60.2442 106.473H75.0511C75.0998 106.473 75.147 106.453 75.1803 106.418C75.2144 106.382 75.2315 106.335 75.2299 106.286L72.2861 45.8353C72.2812 45.7403 72.2023 45.6655 72.1073 45.6655H63.188C63.0929 45.6655 63.0141 45.7403 63.0092 45.8353L60.0654 106.286C60.063 106.334 60.0809 106.382 60.115 106.418C60.1491 106.454 60.1955 106.473 60.2442 106.473ZM74.8633 106.116H60.432L63.3587 46.0229H71.9374L74.8641 106.116H74.8633Z" fill="#231F20"/>
<path d="M61.4486 48.6875H73.8464C75.2834 48.6875 76.4473 47.5235 76.4473 46.0882C76.4473 44.6528 75.2826 43.4888 73.8464 43.4888H61.4486C60.0117 43.4888 58.8478 44.6528 58.8478 46.0882C58.8478 47.5235 60.0125 48.6875 61.4486 48.6875Z" fill="white"/>
<path d="M61.4487 48.8659H73.8465C75.3794 48.8659 76.627 47.6198 76.627 46.087C76.627 44.5542 75.3802 43.3081 73.8465 43.3081H61.4487C59.9158 43.3081 58.6682 44.5542 58.6682 46.087C58.6682 47.6198 59.915 48.8659 61.4487 48.8659ZM73.8465 43.6663C75.1819 43.6663 76.2685 44.7524 76.2685 46.087C76.2685 47.4216 75.1819 48.5077 73.8465 48.5077H61.4487C60.1133 48.5077 59.0266 47.4216 59.0266 46.087C59.0266 44.7524 60.1133 43.6663 61.4487 43.6663H73.8465Z" fill="#231F20"/>
<path d="M57.0876 105.502H78.208V109.019H57.0876V105.502Z" fill="white"/>
<path d="M57.0876 109.199H78.2079C78.3071 109.199 78.3867 109.119 78.3867 109.02V105.503C78.3867 105.404 78.3063 105.324 78.2079 105.324H57.0876C56.9884 105.324 56.9087 105.405 56.9087 105.503V109.02C56.9087 109.119 56.9892 109.199 57.0876 109.199ZM78.0291 108.842H57.2664V105.682H78.0291V108.842Z" fill="#231F20"/>
<path d="M32.0576 106.294H46.8652L43.9214 45.8433H35.0014L32.0576 106.294Z" fill="white"/>
<path d="M32.0578 106.473H46.8655C46.9143 106.473 46.9614 106.453 46.9947 106.418C47.0289 106.382 47.046 106.335 47.0443 106.286L44.1005 45.8353C44.0956 45.7403 44.0168 45.6655 43.9217 45.6655H35.0025C34.9074 45.6655 34.8285 45.7403 34.8237 45.8353L31.8799 106.286C31.8774 106.334 31.8953 106.382 31.9294 106.418C31.9636 106.454 32.0099 106.473 32.0587 106.473H32.0578ZM46.677 106.116H32.2456L35.1723 46.0229H43.751L46.6778 106.116H46.677Z" fill="#231F20"/>
<path d="M33.2621 48.6875H45.6599C47.0969 48.6875 48.2607 47.5235 48.2607 46.0882C48.2607 44.6528 47.0961 43.4888 45.6599 43.4888H33.2621C31.8251 43.4888 30.6613 44.6528 30.6613 46.0882C30.6613 47.5235 31.8259 48.6875 33.2621 48.6875Z" fill="white"/>
<path d="M33.2621 48.8659H45.66C47.1928 48.8659 48.4404 47.6198 48.4404 46.087C48.4404 44.5542 47.1937 43.3081 45.66 43.3081H33.2621C31.7293 43.3081 30.4817 44.5542 30.4817 46.087C30.4817 47.6198 31.7285 48.8659 33.2621 48.8659ZM45.66 43.6663C46.9953 43.6663 48.082 44.7524 48.082 46.087C48.082 47.4216 46.9953 48.5077 45.66 48.5077H33.2621C31.9268 48.5077 30.8401 47.4216 30.8401 46.087C30.8401 44.7524 31.9268 43.6663 33.2621 43.6663H45.66Z" fill="#231F20"/>
<path d="M28.9021 105.502H50.0225V109.019H28.9021V105.502Z" fill="white"/>
<path d="M28.901 109.199H50.0214C50.1205 109.199 50.2002 109.119 50.2002 109.02V105.503C50.2002 105.404 50.1197 105.324 50.0214 105.324H28.901C28.8019 105.324 28.7222 105.405 28.7222 105.503V109.02C28.7222 109.119 28.8027 109.199 28.901 109.199ZM49.8426 108.842H29.0798V105.682H49.8426V108.842Z" fill="#231F20"/>
<path d="M174.266 59.1248C175.521 59.1215 176.535 58.1021 176.532 56.8479L176.377 2.4436C176.374 1.1894 175.353 0.175638 174.098 0.1797L98.0002 0.396586C96.7453 0.399835 95.7309 1.41928 95.7342 2.67348L95.8886 56.7724C95.8927 58.1947 97.05 59.3449 98.474 59.3409L174.267 59.1248H174.266Z" fill="white"/>
<path d="M98.4669 59.5194H98.475L174.268 59.3033C175.62 59.2993 176.716 58.197 176.713 56.8469L176.558 2.44261C176.554 1.09418 175.455 0 174.106 0H174.099L98.0012 0.216886C96.6496 0.220948 95.5532 1.32325 95.5564 2.6733L95.7108 56.7722C95.7149 58.2888 96.9511 59.5186 98.4677 59.5186L98.4669 59.5194ZM174.266 58.9459L98.4734 59.162H98.4661C97.1462 59.162 96.0709 58.0914 96.0676 56.7722L95.9132 2.6733C95.91 1.51983 96.8463 0.579176 98.0012 0.575926L174.099 0.35904H174.105C175.256 0.35904 176.195 1.29319 176.198 2.44505L176.354 56.8493C176.357 58.0028 175.421 58.9435 174.266 58.9475V58.9459Z" fill="#231F20"/>
<path d="M156.005 45.0501V45.0112C155.995 41.9477 153.081 39.4725 149.494 39.4805L122.831 39.5457C119.246 39.5549 116.348 42.045 116.358 45.1073C116.368 48.1662 119.276 50.6415 122.856 50.638L149.52 50.6117C153.11 50.6083 156.015 48.117 156.004 45.0501H156.005Z" fill="#FCE3E7"/>
<path d="M116.703 31.7553H116.705L155.828 31.6103C155.926 31.6103 156.005 31.5064 156.005 31.3783L155.984 21.687C155.984 21.6261 155.965 21.5673 155.932 21.5242C155.899 21.4812 155.854 21.4581 155.806 21.457L116.534 21.603C116.487 21.603 116.442 21.6271 116.409 21.6713C116.376 21.7154 116.358 21.7731 116.358 21.8351L116.378 31.4759C116.378 31.5368 116.402 31.6083 116.436 31.6513C116.489 31.7206 116.579 31.7563 116.704 31.7563L116.703 31.7553ZM155.649 31.1483L116.733 31.2922L116.713 22.064L155.629 21.9201L155.649 31.1483Z" fill="#231F20"/>
<path d="M116.704 18.8818H116.706L155.829 18.7369C155.876 18.7369 155.921 18.7127 155.954 18.6686C155.987 18.6245 156.006 18.5668 156.006 18.5048L155.985 8.81354C155.985 8.68648 155.905 8.58252 155.807 8.58252L116.536 8.72848C116.437 8.72848 116.358 8.83244 116.358 8.96055L116.379 18.6014C116.379 18.6854 116.411 18.8818 116.704 18.8818ZM155.651 18.2749L116.734 18.4187L116.714 9.19052L155.631 9.04666L155.651 18.2749Z" fill="#231F20"/>
<path d="M167.419 64.1392C167.419 64.1392 161.999 103.55 171.054 133.072L166.838 137.348C166.304 137.889 166.688 138.806 167.449 138.806H185.732C187.732 138.806 189.24 136.989 188.868 135.024C187.315 126.833 183.707 107.693 182.72 101.535L194.625 134.21L191.725 137.387C191.222 137.937 191.613 138.821 192.359 138.821H210.625C212.827 138.821 214.367 136.647 213.635 134.572C208.578 120.249 192.143 73.8438 187.011 64.7313L167.419 64.1392Z" fill="white"/>
<path d="M192.358 139H210.625C211.734 139 212.737 138.481 213.377 137.577C214.017 136.673 214.172 135.557 213.804 134.513C199.832 94.9362 190.622 70.7766 187.168 64.6437C187.137 64.5892 187.081 64.5543 187.018 64.5527L167.425 63.9605C167.332 63.9581 167.255 64.0247 167.242 64.1149C167.228 64.2131 165.883 74.133 165.662 87.5321C165.459 99.8743 166.195 117.772 170.851 133.023L166.71 137.223C166.412 137.526 166.328 137.957 166.492 138.349C166.657 138.742 167.023 138.985 167.449 138.985H185.732C186.74 138.985 187.686 138.541 188.328 137.765C188.97 136.99 189.231 135.98 189.043 134.991C187.658 127.682 184.507 110.976 183.214 103.416L194.419 134.169L191.591 137.266C191.311 137.573 191.24 138.001 191.408 138.382C191.577 138.763 191.94 138.999 192.357 138.999L192.358 139ZM186.905 64.9069C190.387 71.1632 199.568 95.2628 213.466 134.631C213.795 135.564 213.656 136.562 213.085 137.37C212.513 138.179 211.616 138.642 210.625 138.642H192.358C192.032 138.642 191.823 138.433 191.737 138.237C191.651 138.042 191.637 137.747 191.856 137.507L194.756 134.33C194.801 134.281 194.815 134.21 194.792 134.148L182.887 101.474C182.856 101.387 182.763 101.339 182.675 101.362C182.585 101.385 182.528 101.472 182.543 101.563C183.533 107.741 187.173 127.044 188.691 135.058C188.859 135.941 188.626 136.844 188.052 137.537C187.478 138.23 186.632 138.627 185.731 138.627H167.448C167.115 138.627 166.906 138.412 166.822 138.21C166.738 138.009 166.731 137.71 166.965 137.473L171.18 133.198C171.227 133.15 171.243 133.082 171.224 133.02C166.554 117.793 165.816 99.8848 166.019 87.5426C166.224 75.0899 167.402 65.6493 167.575 64.3228L186.905 64.9069Z" fill="#231F20"/>
<path d="M182.72 101.715C182.738 101.715 182.757 101.712 182.776 101.706C182.87 101.675 182.921 101.574 182.89 101.48L174.72 76.6226C174.395 75.6373 173.566 74.8802 172.555 74.6471L171.095 74.31C170.999 74.2872 170.902 74.3474 170.88 74.444C170.858 74.5407 170.918 74.6365 171.014 74.6585L172.475 74.9956C173.365 75.2011 174.095 75.8672 174.38 76.7339L182.551 101.591C182.576 101.667 182.646 101.714 182.721 101.714L182.72 101.715Z" fill="#231F20"/>
<path d="M150.27 44.3853C152.821 43.733 154.171 42.5243 154.883 41.4748C154.613 40.6154 154.344 39.756 154.049 38.9104C152.908 35.6473 151.175 32.3323 148.135 30.6833C147.594 30.3893 146.987 30.1496 146.375 30.2227C145.763 30.2958 145.164 30.7719 145.141 31.3876C145.087 32.7653 147.483 33.0228 147.742 34.3769C146.902 33.6588 145.368 34.1486 145.1 35.2209C144.26 35.3265 143.646 36.2931 143.907 37.0981C143.392 37.5554 143.199 38.3401 143.442 38.9835C143.685 39.6268 144.348 40.089 145.038 40.0931C145.132 41.3782 145.278 42.6584 145.475 43.9321C146.586 44.456 148.267 44.8987 150.272 44.3861L150.27 44.3853Z" fill="white"/>
<path d="M148.488 44.7923C149.056 44.7923 149.667 44.7241 150.315 44.5592C153.007 43.8711 154.366 42.5568 155.032 41.5756C155.063 41.5301 155.071 41.474 155.055 41.4212L155.048 41.4017C154.785 40.5618 154.512 39.6934 154.218 38.8511C152.747 34.6401 150.785 31.9172 148.22 30.5257C147.764 30.278 147.075 29.9579 146.354 30.0448C145.693 30.1236 144.99 30.6443 144.962 31.3803C144.93 32.2007 145.631 32.6548 146.309 33.0942C146.727 33.3656 147.129 33.6255 147.367 33.9577C146.999 33.8261 146.573 33.8229 146.153 33.9577C145.569 34.1437 145.131 34.5531 144.96 35.0633C144.553 35.1502 144.186 35.4142 143.94 35.8017C143.692 36.1908 143.61 36.6367 143.706 37.0429C143.196 37.5587 143.018 38.3653 143.275 39.0468C143.526 39.7121 144.167 40.1938 144.871 40.2637C144.965 41.4903 145.108 42.7331 145.298 43.9597C145.307 44.0182 145.344 44.0685 145.398 44.0945C146.147 44.4479 147.208 44.7931 148.489 44.7931L148.488 44.7923ZM150.226 44.2123C148.277 44.7102 146.668 44.2797 145.637 43.8094C145.448 42.5706 145.307 41.3164 145.216 40.0793C145.209 39.9859 145.132 39.9144 145.038 39.9136C144.426 39.9103 143.826 39.492 143.61 38.9201C143.393 38.3483 143.569 37.6375 144.026 37.2313C144.079 37.1842 144.1 37.1103 144.078 37.0429C143.97 36.7098 144.03 36.328 144.242 35.9934C144.452 35.6636 144.781 35.4418 145.123 35.3979C145.196 35.389 145.256 35.3354 145.274 35.2639C145.385 34.8212 145.754 34.4597 146.262 34.2981C146.77 34.1364 147.279 34.216 147.627 34.5133C147.685 34.5629 147.768 34.5702 147.833 34.532C147.899 34.4939 147.933 34.4183 147.92 34.3436C147.781 33.6206 147.133 33.2007 146.505 32.7945C145.884 32.3916 145.297 32.0123 145.32 31.3949C145.342 30.858 145.896 30.4607 146.397 30.4014C147.017 30.3267 147.637 30.6175 148.05 30.8417C150.533 32.1885 152.44 34.848 153.88 38.9713C154.166 39.7868 154.431 40.63 154.687 41.4472C154.04 42.3684 152.746 43.5698 150.227 44.2139L150.226 44.2123Z" fill="#231F20"/>
<path d="M172.74 40.372C172.432 40.1949 171.182 41.1217 170.875 41.2915C169.543 42.0307 168.212 42.7699 166.88 43.5091C163.856 45.1865 160.833 46.8639 157.81 48.5422C156.426 46.3871 155.654 43.9307 154.883 41.4759C154.171 42.5254 152.821 43.7341 150.27 44.3864C148.265 44.899 146.584 44.4563 145.473 43.9323C146.071 47.8135 147.136 51.6233 148.642 55.2502C149.347 56.9463 150.201 58.6708 151.672 59.7715C153.142 60.8722 155.09 61.2109 156.911 60.9648C158.732 60.7195 160.442 59.934 162.005 58.9698C165.949 56.5369 169.068 52.8458 170.942 48.6202C171.879 46.5073 172.508 44.2556 172.773 41.9592C172.809 41.6449 173.078 40.5677 172.74 40.3728V40.372Z" fill="white"/>
<path d="M155.79 61.2199C156.168 61.2199 156.55 61.1948 156.935 61.1428C158.562 60.9226 160.251 60.2622 162.098 59.1226C165.987 56.723 169.186 53.0189 171.105 48.6934C172.065 46.5294 172.686 44.2703 172.95 41.9804C172.957 41.926 172.971 41.848 172.987 41.7546C173.107 41.0617 173.185 40.4233 172.829 40.2185C172.546 40.0561 172.025 40.3339 171.1 40.9391C170.966 41.0268 170.851 41.1023 170.788 41.1365L157.871 48.3043C156.554 46.1988 155.791 43.7716 155.054 41.4224C155.034 41.3574 154.977 41.3087 154.909 41.2989C154.84 41.2892 154.774 41.3192 154.736 41.3753C154.105 42.3054 152.81 43.5523 150.226 44.2127C148.223 44.7252 146.578 44.2549 145.551 43.77C145.49 43.7415 145.42 43.7488 145.367 43.7886C145.314 43.8284 145.287 43.8934 145.297 43.9592C145.898 47.8632 146.968 51.6851 148.477 55.3193C149.193 57.0414 150.061 58.7903 151.565 59.9154C152.7 60.7651 154.197 61.2199 155.79 61.2199H155.79ZM172.654 40.5297C172.763 40.6003 172.755 40.9919 172.634 41.6929C172.616 41.7944 172.602 41.8789 172.595 41.9382C172.335 44.1924 171.723 46.4165 170.778 48.5471C168.888 52.8077 165.739 56.455 161.911 58.8171C160.106 59.93 158.464 60.575 156.887 60.7878C154.971 61.0469 153.109 60.6237 151.779 59.6286C150.344 58.5548 149.503 56.857 148.807 55.1821C147.351 51.6753 146.306 47.9923 145.701 44.2297C146.788 44.6838 148.394 45.051 150.314 44.5595C152.747 43.9373 154.091 42.8049 154.818 41.8683C155.547 44.1867 156.325 46.5627 157.659 48.6389C157.71 48.7185 157.814 48.7453 157.896 48.699L170.961 41.4492C171.035 41.4086 171.15 41.333 171.295 41.238C171.582 41.0504 172.452 40.4801 172.653 40.5305L172.654 40.5297Z" fill="#231F20"/>
<path d="M149.696 40.7474C149.813 40.7474 149.929 40.7263 150.042 40.6783C150.133 40.6402 150.176 40.5354 150.138 40.4444C150.099 40.3534 149.995 40.3095 149.904 40.3485C149.589 40.4801 149.205 40.2722 149.001 40.009C148.798 39.7458 148.696 39.4184 148.588 39.0724L148.533 38.901C148.4 38.4884 148.211 38.0278 147.823 37.7427C147.614 37.5891 147.377 37.5071 147.148 37.4283C147.038 37.3901 146.933 37.3544 146.833 37.3113C146.579 37.2017 146.303 36.9905 146.295 36.7248C146.285 36.4113 146.637 36.1733 146.848 36.0587C147.632 35.6339 148.581 35.4983 149.452 35.6883C150.324 35.8776 151.132 36.395 151.668 37.1066C151.727 37.1854 151.84 37.2017 151.918 37.1415C151.997 37.0823 152.013 36.9702 151.953 36.8914C151.366 36.1115 150.482 35.5462 149.528 35.3382C148.575 35.1303 147.535 35.2781 146.677 35.7436C146.188 36.0084 145.926 36.3601 145.937 36.7346C145.949 37.1026 146.231 37.4413 146.692 37.6395C146.804 37.6874 146.919 37.7272 147.03 37.7662C147.244 37.8393 147.446 37.9092 147.611 38.0302C147.917 38.2552 148.076 38.6516 148.193 39.0107L148.246 39.1788C148.359 39.5403 148.476 39.9131 148.717 40.2267C148.94 40.5167 149.315 40.7466 149.696 40.7466L149.696 40.7474Z" fill="#231F20"/>
<path d="M147.251 38.8421C147.585 38.8421 147.923 38.7235 148.146 38.4409C148.207 38.3637 148.194 38.2508 148.117 38.1898C148.04 38.1289 147.927 38.1419 147.866 38.2191C147.627 38.5213 147.159 38.5391 146.842 38.4019C146.524 38.2654 146.239 37.9843 145.973 37.5441C145.584 36.9023 145.352 36.1672 145.301 35.4191C145.294 35.3208 145.209 35.2493 145.11 35.2525C145.011 35.259 144.937 35.3451 144.943 35.4434C144.998 36.2484 145.248 37.0388 145.666 37.7293C145.974 38.2362 146.312 38.5635 146.7 38.7308C146.866 38.8023 147.058 38.8421 147.252 38.8421H147.251Z" fill="#231F20"/>
<path d="M146.098 39.662C146.692 39.662 147.255 39.2941 147.419 38.776C147.449 38.6818 147.397 38.5811 147.302 38.5511C147.208 38.521 147.107 38.573 147.077 38.6672C146.948 39.0732 146.468 39.3485 145.983 39.2974C145.549 39.2503 145.112 38.9701 144.786 38.5275C144.494 38.1312 144.318 37.6765 144.118 37.1235C144.085 37.0309 143.982 36.9822 143.889 37.0163C143.796 37.0496 143.747 37.1527 143.782 37.2453C143.947 37.7025 144.153 38.2709 144.498 38.7395C144.884 39.2625 145.41 39.5954 145.944 39.6531C145.996 39.6588 146.047 39.6612 146.097 39.6612L146.098 39.662Z" fill="#231F20"/>
<path d="M145.176 40.2247C145.581 40.2247 145.986 40.0168 146.206 39.6757C146.26 39.5929 146.236 39.4816 146.153 39.428C146.07 39.3752 145.958 39.3988 145.906 39.4816C145.717 39.7732 145.335 39.9266 144.997 39.8462C144.901 39.8235 144.804 39.8828 144.782 39.9786C144.759 40.0744 144.818 40.1711 144.914 40.1938C144.999 40.2141 145.088 40.2239 145.176 40.2239V40.2247Z" fill="#231F20"/>
<path d="M159.574 50.7581C159.621 50.7581 159.668 50.7394 159.703 50.7029C159.771 50.6314 159.769 50.5185 159.697 50.4503C159.208 49.9826 158.381 49.0227 157.996 48.477C157.939 48.3966 157.828 48.3771 157.747 48.434C157.666 48.4908 157.647 48.6021 157.703 48.6833C158.106 49.2542 158.938 50.2205 159.45 50.7094C159.485 50.7427 159.53 50.7589 159.574 50.7589V50.7581Z" fill="#231F20"/>
<path d="M171.845 38.3077C171.33 38.4417 170.929 38.8413 170.79 39.3547C168.758 46.8848 164.05 53.549 162.312 61.166C162.009 62.4917 161.802 63.8929 162.187 65.1959C162.538 66.3834 163.36 67.3883 164.324 68.1665C165.288 68.9447 166.397 69.5198 167.497 70.0892C169.021 66.645 170.242 63.0765 171.462 59.5138C172.644 56.0615 173.829 52.5986 174.575 49.0269C175.098 46.525 183.382 46.7475 183.309 44.1896C183.289 43.4634 185.891 39.5505 185.405 38.9559C184.242 37.5327 172.845 38.0453 171.844 38.3068L171.845 38.3077Z" fill="white"/>
<path d="M167.497 70.2696C167.517 70.2696 167.537 70.2664 167.556 70.2599C167.603 70.2437 167.641 70.2087 167.66 70.1632C169.188 66.7093 170.43 63.0815 171.631 59.5732C172.796 56.1712 174.001 52.6523 174.75 49.0652C174.983 47.9499 177.061 47.3861 179.071 46.8419C181.363 46.2205 183.529 45.634 183.488 44.1856C183.481 43.9314 183.963 43.0062 184.388 42.1906C185.33 40.3816 185.879 39.2533 185.543 38.8439C184.305 37.329 172.714 37.8959 171.799 38.1348C171.224 38.285 170.771 38.7342 170.616 39.3085C169.656 42.8656 168.067 46.292 166.531 49.6054C164.821 53.2924 163.053 57.1054 162.135 61.1271C161.847 62.3919 161.607 63.8703 162.014 65.248C162.342 66.3543 163.101 67.4119 164.21 68.3071C165.193 69.0999 166.322 69.6848 167.413 70.2502C167.439 70.2631 167.467 70.2705 167.495 70.2705L167.497 70.2696ZM178.199 38.1859C181.396 38.1859 184.708 38.3874 185.267 39.0705C185.477 39.3272 184.562 41.0826 184.071 42.0257C183.481 43.1556 183.121 43.8656 183.13 44.1962C183.164 45.3627 181.035 45.9394 178.977 46.4967C176.863 47.0693 174.678 47.6615 174.4 48.9921C173.654 52.5581 172.454 56.0656 171.292 59.457C170.114 62.8988 168.896 66.4559 167.41 69.844C166.387 69.3136 165.341 68.7579 164.436 68.0285C163.383 67.1796 162.665 66.1829 162.359 65.1464C161.975 63.8484 162.207 62.426 162.485 61.2067C163.395 57.2207 165.155 53.4256 166.857 49.7556C168.4 46.4284 169.995 42.9883 170.963 39.402C171.085 38.9519 171.44 38.5986 171.891 38.4816C172.356 38.3606 175.228 38.1867 178.2 38.1867L178.199 38.1859Z" fill="#231F20"/>
<path d="M184.242 64.7631H167.73C166.888 64.7631 166.278 63.9622 166.502 63.1515C167.018 61.2889 167.961 57.8861 169.227 53.3372C171.189 46.288 172.457 41.324 173.142 39.6758C173.827 38.0276 173.947 37.1365 176.742 37.0123C179.319 36.8977 182.413 36.5029 182.718 39.4118C182.777 39.9764 183.085 40.4849 183.541 40.8228L185.371 42.1777L184.242 64.7631Z" fill="#EF4444"/>
<path d="M133.644 70.5198L160.826 115.631C161.523 116.788 163.027 117.162 164.184 116.465L189.707 101.11C190.865 100.413 191.239 98.9099 190.542 97.7524L163.36 52.6409C162.663 51.4842 161.159 51.1105 160.002 51.8075L134.479 67.1625C133.32 67.8595 132.947 69.3622 133.644 70.5198Z" fill="white"/>
<path d="M162.927 116.994C163.388 116.994 163.854 116.873 164.277 116.618L189.8 101.263C190.402 100.902 190.826 100.328 190.995 99.6476C191.164 98.9669 191.057 98.261 190.696 97.6607L163.514 52.5492C162.767 51.3096 161.15 50.9083 159.909 51.6549L134.386 67.0099C133.785 67.3714 133.36 67.9457 133.191 68.6264C133.022 69.3071 133.129 70.013 133.49 70.6133L160.672 115.725C161.165 116.542 162.035 116.995 162.926 116.995L162.927 116.994ZM161.26 51.637C162.03 51.637 162.782 52.0285 163.207 52.7336L190.389 97.8451C190.701 98.3642 190.792 98.9734 190.647 99.5615C190.501 100.15 190.134 100.645 189.616 100.957L164.093 116.312C163.02 116.956 161.624 116.61 160.98 115.54L133.798 70.4281C133.485 69.909 133.394 69.2998 133.539 68.7117C133.686 68.1236 134.052 67.6281 134.571 67.3153L160.094 51.9603C160.459 51.741 160.862 51.6362 161.26 51.6362V51.637Z" fill="#231F20"/>
<path d="M152.507 56.3205L182.217 105.621L175.431 109.706L145.722 60.405L152.507 56.3205Z" fill="white"/>
<path d="M175.43 109.88C175.462 109.88 175.494 109.871 175.522 109.854L182.309 105.771C182.349 105.747 182.378 105.707 182.39 105.661C182.401 105.615 182.394 105.566 182.369 105.526L152.662 56.2234C152.611 56.1389 152.501 56.1113 152.417 56.1625L145.63 60.2451C145.59 60.2695 145.56 60.3093 145.549 60.3556C145.538 60.4019 145.545 60.4506 145.569 60.4912L175.277 109.793C175.31 109.849 175.369 109.88 175.43 109.88V109.88ZM181.97 105.557L175.491 109.456L145.968 60.4596L152.448 56.5613L181.97 105.556V105.557Z" fill="#231F20"/>
<path d="M196.947 72.5092C199.047 70.0227 198.651 64.4129 197.803 59.2207C196.608 51.9132 194.425 48.4633 188.727 43.7275C187.792 42.9502 186.732 42.1492 186.449 40.9673C186.259 40.1729 186.22 39.0283 185.406 38.9569C185.406 38.9569 183.766 38.7757 182.638 40.6619C182.072 41.6082 181.906 42.7341 181.757 43.8258C180.789 50.9278 180.58 58.1078 180.372 65.2716C180.345 66.2171 180.326 67.2057 180.74 68.0561C181.442 69.4964 184.125 67.5541 184.125 67.5541C184.091 69.9805 184.733 73.0356 184.815 75.4611C187.77 75.6163 194.498 75.4083 196.947 72.5084V72.5092Z" fill="white"/>
<path d="M186.223 75.6735C188.986 75.6735 194.796 75.3348 197.084 72.6241C198.826 70.5608 199.119 66.1671 197.979 59.1918C196.805 52.0045 194.755 48.5051 188.842 43.5898L188.637 43.42C187.769 42.7044 186.872 41.9636 186.624 40.9254C186.59 40.7841 186.562 40.6314 186.532 40.4754C186.395 39.7508 186.224 38.8492 185.422 38.7777C185.355 38.7704 183.659 38.6063 182.486 40.5696C181.884 41.5761 181.716 42.81 181.581 43.801C180.611 50.9192 180.399 58.2129 180.195 65.2662C180.168 66.1841 180.138 67.2247 180.581 68.1345C180.732 68.4456 180.974 68.6446 181.299 68.7258C182.157 68.9411 183.393 68.2441 183.946 67.8908C183.959 69.1629 184.134 70.5876 184.304 71.9694C184.457 73.2155 184.601 74.3925 184.637 75.4672C184.64 75.5598 184.713 75.6353 184.806 75.6402C185.001 75.6499 185.512 75.6727 186.224 75.6727L186.223 75.6735ZM185.273 39.131C185.338 39.131 185.377 39.1351 185.386 39.1359C185.884 39.1798 186.029 39.7476 186.18 40.5436C186.211 40.7053 186.241 40.8637 186.276 41.0099C186.551 42.165 187.496 42.944 188.409 43.697L188.613 43.866C194.446 48.7146 196.468 52.1653 197.626 59.2503C198.748 66.1159 198.482 70.4154 196.811 72.3942C194.165 75.5273 186.471 75.3559 184.987 75.2917C184.942 74.2414 184.797 73.066 184.657 71.9271C184.474 70.4333 184.284 68.8891 184.303 67.5585C184.304 67.4911 184.266 67.4286 184.206 67.3969C184.146 67.366 184.074 67.3709 184.019 67.4107C184.001 67.4229 182.335 68.617 181.384 68.3798C181.163 68.3246 181.005 68.1938 180.9 67.9793C180.495 67.1491 180.525 66.1557 180.55 65.2784C180.755 58.2341 180.966 50.9501 181.933 43.8514C182.07 42.8425 182.226 41.6987 182.79 40.7548C183.687 39.2545 184.897 39.131 185.272 39.131H185.273Z" fill="#231F20"/>
<path d="M167.25 74.5687C167.333 74.0675 167.693 73.6638 168.037 73.2902C167.58 73.5525 167.16 73.5956 166.86 73.2958C166.559 72.9953 166.657 72.6297 166.836 72.2447C167.015 71.8597 167.347 71.5689 167.681 71.3057C171.275 68.478 176.03 67.6357 180.595 67.3229C183.051 67.1548 181.855 67.2766 184.31 67.0703C185.243 70.9166 185.476 72.4324 185.009 75.5792C181.503 75.7165 183.321 75.7579 179.861 75.8798C177.856 75.9505 175.629 76.1925 174.092 77.4825C173.694 77.8155 173.269 78.2615 172.759 78.1713C172.27 78.0852 172 77.5028 172.084 77.0138C172.168 76.5248 172.503 76.121 172.842 75.7588C173.181 75.3965 173.546 75.0342 173.716 74.5679C172.836 75.1642 171.956 75.7604 171.075 76.3566C170.893 76.4809 170.698 76.6092 170.476 76.6206C169.953 76.6482 169.626 75.974 169.79 75.4769C169.954 74.9798 170.416 74.65 170.856 74.3673C171.297 74.0846 171.77 73.7857 171.984 73.308C170.883 74.0058 169.781 74.7028 168.679 75.4005C168.475 75.5305 168.255 75.6645 168.013 75.667C167.504 75.6718 167.168 75.0699 167.251 74.5679L167.25 74.5687Z" fill="white"/>
<path d="M172.895 78.3625C173.348 78.3625 173.721 78.0384 174.056 77.7492C174.107 77.7053 174.156 77.6615 174.207 77.62C175.7 76.3683 177.906 76.1287 179.868 76.0596C181.623 75.9979 182.025 75.9564 182.45 75.9126C182.863 75.8703 183.289 75.8265 185.016 75.759C185.103 75.7558 185.174 75.6916 185.186 75.6063C185.666 72.3701 185.391 70.7715 184.483 67.0292C184.462 66.9431 184.382 66.8854 184.295 66.8927C182.889 67.0105 182.68 67.0211 182.301 67.0397C182.018 67.0536 181.63 67.073 180.583 67.1445C176.553 67.4207 171.432 68.1274 167.57 71.1654C167.242 71.4229 166.876 71.7341 166.674 72.1695C166.486 72.5724 166.347 73.037 166.733 73.4229C166.888 73.5772 167.126 73.7161 167.47 73.6795C167.284 73.9297 167.128 74.214 167.074 74.5398C167.017 74.8834 167.123 75.2619 167.35 75.5275C167.529 75.7363 167.771 75.8508 168.014 75.8468C168.316 75.8435 168.57 75.6827 168.775 75.5527L170.088 74.7217C169.882 74.9167 169.711 75.1449 169.619 75.4219C169.507 75.7623 169.58 76.1709 169.804 76.4641C169.98 76.6948 170.221 76.8151 170.486 76.8004C170.763 76.7858 170.992 76.6307 171.176 76.5056L173.126 75.1847C173.02 75.309 172.907 75.4293 172.796 75.5478L172.712 75.6364C172.373 75.9995 172.003 76.4325 171.908 76.9832C171.812 77.5429 172.125 78.2398 172.727 78.3471C172.784 78.3568 172.84 78.3617 172.896 78.3617L172.895 78.3625ZM184.853 75.4065C183.237 75.4715 182.819 75.5145 182.413 75.556C181.994 75.599 181.598 75.6396 179.855 75.7014C177.832 75.7729 175.552 76.0239 173.976 77.3455C173.925 77.3885 173.873 77.4332 173.821 77.4787C173.491 77.7638 173.152 78.0587 172.789 77.9953C172.405 77.9271 172.193 77.4373 172.26 77.0441C172.338 76.5909 172.669 76.2066 172.972 75.8817L173.055 75.794C173.379 75.4496 173.715 75.093 173.883 74.6307C173.91 74.5576 173.886 74.4764 173.825 74.4285C173.764 74.3806 173.678 74.3773 173.614 74.4212L170.974 76.2099C170.786 76.3366 170.63 76.4349 170.466 76.443C170.282 76.4584 170.16 76.3415 170.088 76.2464C169.938 76.0507 169.885 75.7574 169.958 75.534C170.105 75.0913 170.529 74.79 170.952 74.5187L170.967 74.5089C171.41 74.2246 171.913 73.9029 172.146 73.3822C172.179 73.3099 172.16 73.2255 172.1 73.1735C172.04 73.1215 171.954 73.115 171.887 73.1572L168.582 75.2497C168.371 75.3838 168.195 75.4861 168.01 75.4886C167.826 75.4967 167.698 75.3838 167.622 75.2944C167.464 75.11 167.387 74.8371 167.427 74.5983C167.504 74.1328 167.873 73.7332 168.17 73.4115C168.23 73.3465 168.233 73.2474 168.178 73.1783C168.122 73.1093 168.025 73.0906 167.948 73.1345C167.528 73.3757 167.205 73.3871 166.986 73.1686C166.796 72.9777 166.799 72.7478 166.998 72.3189C167.167 71.9558 167.497 71.6772 167.792 71.4457C171.577 68.4678 176.629 67.7733 180.607 67.5003C181.651 67.4288 182.037 67.4093 182.319 67.3955C182.687 67.3768 182.897 67.3671 184.172 67.2607C185.042 70.8608 185.291 72.3595 184.854 75.4057L184.853 75.4065Z" fill="#231F20"/>
<path d="M168.435 73.2429C168.473 73.2429 168.511 73.2307 168.544 73.2056C169.275 72.6436 170.051 72.1231 170.849 71.6602C170.935 71.6106 170.964 71.501 170.914 71.4157C170.865 71.3305 170.755 71.3012 170.67 71.3508C169.858 71.8218 169.069 72.3504 168.325 72.9221C168.247 72.9822 168.232 73.0943 168.292 73.1731C168.327 73.2186 168.381 73.2429 168.435 73.2429Z" fill="#231F20"/>
<path d="M184.31 67.249C184.318 67.249 184.325 67.249 184.333 67.2473C188.238 66.7299 188.308 66.591 188.358 66.4894C188.388 66.4285 188.46 66.2864 186.859 52.906C186.847 52.8077 186.757 52.7371 186.66 52.7501C186.562 52.7614 186.492 52.8508 186.503 52.9491C187.098 57.9228 187.964 65.3425 188.019 66.2961C187.609 66.4172 185.855 66.6852 184.286 66.8932C184.188 66.9062 184.12 66.9963 184.133 67.0938C184.145 67.184 184.221 67.249 184.31 67.249Z" fill="#231F20"/>
<path d="M181.545 25.9219C181.345 25.238 181.035 24.5516 180.472 24.1137C179.909 23.6759 179.042 23.5695 178.497 24.0293C177.208 23.1447 175.482 22.8636 174.03 23.4444C172.578 24.0252 171.493 25.5133 171.537 27.0754C171.58 28.6375 172.851 30.1183 174.408 30.2597C174.657 31.6154 175.929 32.6413 177.292 32.8525C178.524 33.0434 180.91 32.6316 181.399 31.2954C182.015 29.6155 182.043 27.6302 181.544 25.9219H181.545Z" fill="#231F20"/>
<path d="M175.049 35.1766L176.069 41.6239C176.069 41.6239 180.756 38.7093 180.79 38.663C180.824 38.6167 179.992 33.1312 179.992 33.1312C179.992 33.1312 178.908 31.3182 175.049 35.1758V35.1766Z" fill="white"/>
<path d="M175.371 37.3939C175.381 37.3939 175.39 37.3939 175.399 37.3915C175.497 37.376 175.564 37.2842 175.548 37.1868L175.24 35.238C177.326 33.1699 178.541 32.8198 179.193 32.8929C179.579 32.936 179.766 33.1301 179.821 33.2C179.87 33.5257 180.196 35.6775 180.413 37.1778C180.426 37.2761 180.517 37.3452 180.615 37.3289C180.712 37.3151 180.781 37.2241 180.766 37.1267C180.532 35.5069 180.171 33.1285 180.167 33.1041C180.164 33.0814 180.156 33.0594 180.144 33.0391C180.133 33.0221 179.885 32.6175 179.252 32.5396C178.177 32.4088 176.719 33.2511 174.921 35.0496C174.88 35.0902 174.861 35.1471 174.87 35.2039L175.193 37.2428C175.207 37.3305 175.283 37.3939 175.369 37.3939H175.371Z" fill="#231F20"/>
<path d="M173.333 29.3803C173.333 29.3803 171.583 33.9885 173.333 35.4726C174.372 36.3532 177.652 36.8146 179.75 33.6457C179.75 33.6457 181.202 33.7172 181.534 32.2323C181.866 30.7474 181.124 30.1886 179.923 31.2332C179.923 31.2332 178.471 31.9724 178.948 29.914C179.156 29.018 178.389 28.2008 176.714 27.7175C173.68 26.8427 173.962 27.6079 173.333 29.3811V29.3803Z" fill="white"/>
<path d="M175.5 36.3014C175.718 36.3014 175.945 36.2868 176.177 36.2535C177.201 36.1081 178.661 35.5671 179.848 33.823C180.211 33.8052 181.404 33.6411 181.71 32.2715C181.892 31.4552 181.77 30.8524 181.375 30.6177C181.151 30.4844 180.653 30.3691 179.824 31.0823C179.689 31.1457 179.359 31.2553 179.185 31.118C179.08 31.036 178.933 30.7753 179.123 29.954C179.362 28.9248 178.502 28.0459 176.763 27.5447C174.107 26.7787 173.82 27.2336 173.378 28.6633C173.317 28.8598 173.249 29.0824 173.165 29.318C173.082 29.5357 171.398 34.0651 173.218 35.6077C173.658 35.9805 174.494 36.3006 175.499 36.3006L175.5 36.3014ZM179.751 33.4664C179.691 33.4664 179.635 33.4965 179.602 33.5468C178.479 35.2421 177.093 35.762 176.127 35.8993C174.943 36.0674 173.91 35.7255 173.45 35.3355C171.816 33.9506 173.484 29.4886 173.501 29.4439C173.501 29.4423 173.502 29.4414 173.503 29.4398C173.589 29.1961 173.659 28.9695 173.721 28.7689C174.108 27.5171 174.211 27.1808 176.665 27.8883C178.196 28.3302 178.965 29.0532 178.775 29.8728C178.593 30.6575 178.656 31.157 178.965 31.3991C179.364 31.7118 179.979 31.4048 180.005 31.3918C180.018 31.3853 180.031 31.3772 180.042 31.3674C180.524 30.9483 180.954 30.7826 181.192 30.9247C181.438 31.0709 181.503 31.5575 181.36 32.1927C181.065 33.5152 179.814 33.4681 179.76 33.4664C179.757 33.4664 179.754 33.4664 179.751 33.4664Z" fill="#231F20"/>
<path d="M179.721 32.8478C179.783 32.8478 179.844 32.8153 179.876 32.7577C180.055 32.4458 180.417 32.2363 180.776 32.2363H180.781C180.879 32.2363 180.959 32.1567 180.959 32.0585C180.959 31.9594 180.88 31.879 180.781 31.879C180.282 31.8725 179.811 32.1527 179.566 32.5798C179.517 32.6659 179.546 32.7747 179.632 32.8243C179.661 32.8405 179.691 32.8478 179.721 32.8478Z" fill="#231F20"/>
<path d="M175.253 42.3617C175.286 42.3617 175.319 42.3527 175.348 42.3332L179.298 39.8126C179.382 39.7598 179.407 39.6485 179.353 39.5657C179.299 39.4829 179.189 39.4585 179.106 39.5113L175.156 42.032C175.072 42.0847 175.048 42.196 175.101 42.2788C175.135 42.3324 175.193 42.3617 175.253 42.3617Z" fill="#231F20"/>
<path d="M25.7258 88.9451L29.0727 87.1061C45.8806 77.871 49.6445 60.8198 51.2505 41.6908L50.007 41.4958C38.66 40.7014 33.1048 38.7941 25.7258 30.4688C16.9179 38.4773 8.50668 41.4 0.259609 41.4L0.178333 41.417C1.70144 60.698 5.53197 77.9067 22.4869 87.1743L25.7266 88.9451H25.7258Z" fill="white"/>
<path d="M25.726 89.1237C25.7561 89.1237 25.7853 89.1164 25.8121 89.1018L29.1591 87.2627C36.9559 82.9794 42.4737 76.7361 46.0279 68.1776C49.5382 59.7239 50.7281 50.0517 51.4295 41.7061C51.4376 41.6127 51.3718 41.529 51.2791 41.5144L50.0356 41.3194C39.1642 40.5575 33.4082 38.8655 25.8609 30.35C25.8292 30.3143 25.7845 30.2924 25.7366 30.2899C25.6894 30.2867 25.6423 30.3046 25.6065 30.3362C17.5513 37.66 9.26028 41.2203 0.260601 41.2203C0.248409 41.2203 0.236221 41.2212 0.224033 41.2244L0.142757 41.2415C0.0541649 41.2601 -0.00597763 41.3414 0.000522614 41.4307C0.623909 49.3231 1.79916 59.49 5.38099 68.1183C8.96119 76.7426 14.5286 83.0274 22.401 87.331L25.6406 89.1018C25.6675 89.1164 25.6967 89.1237 25.7268 89.1237H25.726ZM51.0589 41.8418C49.2984 62.6133 44.8543 78.2323 28.9876 86.9492L25.7268 88.7411L22.5733 87.0174C6.47415 78.2169 2.04055 62.4874 0.37196 41.5786C9.37164 41.5493 17.6642 37.9971 25.7138 30.7229C33.2863 39.2156 39.0951 40.9117 49.9966 41.6744L51.0605 41.8418H51.0589Z" fill="#231F20"/>
<path d="M32.754 79.9912C32.7922 79.9912 32.8312 79.979 32.8637 79.953C37.6232 76.2399 41.0376 71.293 43.302 64.8319C45.5809 58.3286 46.423 50.9536 46.9017 45.2561C46.9098 45.1627 46.844 45.079 46.7513 45.0644L45.728 44.9044C36.7861 44.2781 32.0525 42.8866 25.8471 35.8853C25.8154 35.8496 25.7707 35.8277 25.7228 35.8252C25.6748 35.8244 25.6285 35.8399 25.5927 35.8715C18.9679 41.8948 12.1505 44.8223 4.75034 44.8223C4.73815 44.8223 4.72594 44.8232 4.71375 44.8264L4.64631 44.8402C4.54959 44.8605 4.4878 44.9556 4.50731 45.0522C4.52763 45.1489 4.62273 45.2098 4.71864 45.1911L4.76822 45.1806C12.2042 45.1757 19.0517 42.2571 25.6984 36.2582C31.9282 43.2359 36.7145 44.6315 45.6866 45.2602L46.5302 45.3926C45.2501 60.4698 42.3844 72.0712 32.6434 79.672C32.5654 79.7329 32.5516 79.845 32.6125 79.923C32.6475 79.9684 32.7003 79.992 32.754 79.992V79.9912Z" fill="#231F20"/>
<path d="M25.7119 84.3165C25.7753 84.3165 25.8363 84.2832 25.8688 84.2231C25.9159 84.1362 25.8843 84.0281 25.7973 83.9802L23.1306 82.5221C13.3873 77.1958 8.05393 68.3376 5.83754 53.7997C5.82291 53.7023 5.73026 53.6348 5.63354 53.6495C5.53601 53.6641 5.46854 53.7559 5.48317 53.8533C7.71826 68.5122 13.1077 77.4509 22.9583 82.8357L25.625 84.2929C25.6526 84.3076 25.6819 84.3149 25.7103 84.3149L25.7119 84.3165Z" fill="#231F20"/>
<path d="M20.6992 53.23H30.8069" stroke="#FF1212" stroke-width="0.5" stroke-linecap="round"/>
<path d="M20.6992 57.5435H30.8069" stroke="#FF1212" stroke-width="0.5" stroke-linecap="round"/>
<path d="M20.2729 61.8574L28.9369 69.0469" stroke="#FF1212" stroke-width="0.5" stroke-linecap="round"/>
<path d="M21.3556 53.23H23.6054C25.9877 53.23 27.919 55.1612 27.919 57.5436V57.5436C27.919 59.9259 25.9878 61.8572 23.6054 61.8572H20.6992" stroke="#FF1212" stroke-width="0.5" stroke-linecap="round"/>
</svg>
