<svg width="95" height="95" viewBox="0 0 95 95" fill="none" xmlns="http://www.w3.org/2000/svg">
<g filter="url(#filter0_d_1352_53015)">
<circle cx="47.5" cy="43.5" r="38.5" fill="white"/>
<circle cx="47.5" cy="43.5" r="38.4" stroke="#979797" stroke-width="0.2"/>
</g>
<g clip-path="url(#clip0_1352_53015)">
<path d="M35.2982 54.6427C35.4708 55.5277 35.6873 56.4037 35.9634 57.2645C36.1893 57.9707 36.4152 58.7072 36.7918 59.3558C37.5009 60.5773 38.7434 61.5047 40.1553 61.8351C41.1688 62.0715 42.2795 61.9836 43.3118 61.9836H57.3529C58.1091 61.9836 58.1122 60.847 57.3529 60.847H49.6217C46.895 60.847 44.1684 60.8713 41.4418 60.847C40.1522 60.8349 38.9254 60.2742 38.1378 59.277C37.6546 58.6647 37.413 57.9282 37.1746 57.2038C36.8639 56.2642 36.6192 55.3095 36.4341 54.3426C36.296 53.6243 35.1602 53.9274 35.2982 54.6457V54.6427Z" fill="#4D4D4F"/>
<path d="M53.9331 25.3579C53.9331 25.3579 53.9414 25.3538 53.9414 25.3496C53.9414 25.3496 53.9373 25.3538 53.9331 25.3579Z" fill="#4D4D4F"/>
<path d="M55.3544 30.6565C56.1138 30.2655 56.8542 30.2867 57.692 30.3474C58.3415 30.3959 58.991 30.3959 59.6028 30.1625C60.29 29.9018 60.8705 29.4684 61.3882 28.9653C61.9216 28.447 61.0901 27.6407 60.5567 28.1621C60.108 28.5985 59.5903 29.0107 58.9628 29.1714C58.2725 29.3502 57.4504 29.1471 56.7036 29.1592C55.8784 29.1744 55.1191 29.4472 54.4226 29.8624C53.9801 30.1261 53.5283 30.4201 53.1706 30.7929C53.1643 30.7868 53.1549 30.7808 53.1487 30.7747C53.6664 29.6897 54.181 28.6015 54.6987 27.5165C55.1003 26.6769 55.6431 24.9978 54.5543 24.3795C54.1464 24.1491 53.6475 24.2006 53.2177 24.3492C53.0075 24.4219 52.8035 24.5159 52.609 24.6189C52.54 24.6553 52.4709 24.6947 52.4019 24.7371C52.3956 24.7402 52.3768 24.7492 52.358 24.7583C52.336 24.7371 52.314 24.7129 52.2889 24.6917C51.7398 24.1916 51.0401 23.9279 50.2871 24.0491C49.9984 24.0946 49.7223 24.2006 49.4682 24.334C49.3019 24.4189 48.8783 24.628 48.7748 24.8038C48.7308 24.7614 48.6838 24.722 48.6336 24.6826C48.4767 24.5613 48.3167 24.4431 48.1409 24.3522C47.8115 24.1825 47.4601 24.0764 47.0867 24.0491C46.5188 24.0067 45.9383 24.1916 45.4708 24.4946C45.408 24.534 45.2731 24.6098 45.1915 24.6765C45.1476 24.6341 45.1005 24.5916 45.088 24.5795C44.8401 24.3522 44.542 24.134 44.2063 24.0461C43.8329 23.946 43.4313 24.0097 43.1395 24.2643C42.4712 24.8493 42.4837 25.7979 42.6845 26.5769C43.0642 28.053 43.993 29.4441 44.9594 30.6595C44.4479 31.0778 44.1216 31.7022 44.1028 32.3326C41.2255 34.5179 38.8629 37.37 37.2564 40.5434C36.9238 41.1981 37.9404 41.7739 38.273 41.1162C39.7571 38.1884 41.8876 35.5787 44.4856 33.4965C44.5138 33.5329 44.542 33.5723 44.5766 33.6086C45.1351 34.2179 45.9352 34.236 46.7164 34.2936C47.6232 34.3603 48.5363 34.3846 49.4462 34.3724C49.9608 34.3664 50.4754 34.3451 50.9899 34.3148C51.4669 34.2845 51.9846 34.2876 52.449 34.1724C52.9667 34.0421 53.3652 33.7117 53.6068 33.2874C54.2563 33.7935 54.9497 34.3936 55.5615 34.9907C57.008 36.4001 58.2599 37.9762 59.2891 39.6917C59.6687 40.3252 60.6853 39.7523 60.3057 39.1189C58.8498 36.6971 56.9546 34.5149 54.7269 32.7175C55.6494 32.7145 56.5624 32.9509 57.3625 33.4419C57.8175 33.7208 58.216 34.0754 58.5674 34.4724C58.7494 34.6786 58.8843 34.8543 59.0694 35.1514C59.4585 35.7788 60.4751 35.2059 60.086 34.5785C59.5432 33.7087 58.7808 32.9509 57.8834 32.4175C56.713 31.7204 55.3293 31.4688 53.9833 31.6294C54.341 31.2112 54.8744 30.9081 55.3544 30.6626V30.6565ZM43.9271 25.1008H43.9208C43.9835 25.0342 43.971 25.116 43.9271 25.1008ZM43.8549 25.1372C43.8737 25.1372 43.88 25.119 43.8549 25.1372V25.1372ZM43.7482 25.9465C43.7419 25.901 43.7294 25.6434 43.7419 25.5161V25.4979C43.7514 25.4615 43.7608 25.4251 43.7702 25.3918C43.7796 25.3585 43.789 25.3221 43.8016 25.2887C43.8016 25.2857 43.8078 25.2766 43.8204 25.2524C43.88 25.1311 43.8423 25.213 43.8831 25.1554C43.9302 25.1736 43.993 25.1887 44.0306 25.213C44.1749 25.2978 44.2816 25.4191 44.3977 25.5312C44.6707 25.7919 45.0158 25.9556 45.4112 25.8677C45.8693 25.7616 46.1046 25.3706 46.5721 25.2372C47.1777 25.0675 47.6264 25.3645 48.0751 25.7222C48.37 25.9586 48.7151 26.0647 49.0917 25.9556C49.3458 25.8798 49.5027 25.6919 49.7066 25.5403C50.0549 25.2766 50.513 25.0584 50.9586 25.1978C51.2943 25.3039 51.4731 25.5676 51.7461 25.7585C52.0473 25.9677 52.4301 26.001 52.769 25.8495C53.089 25.707 53.3652 25.4949 53.6475 25.41C53.7009 25.3948 53.8797 25.3554 53.864 25.3585C53.8735 25.3585 53.9362 25.3494 53.9362 25.3554C53.9362 25.3645 53.9582 25.3766 53.9707 25.4554C54.0429 25.9646 53.908 26.4587 53.6883 26.9224C53.1706 28.0287 52.6404 29.1289 52.1132 30.2322C51.7304 30.1443 51.3288 30.1382 50.899 30.1594C49.9263 30.2019 48.9505 30.214 47.9778 30.1898C47.3534 30.1746 46.6725 30.0685 46.0418 30.1716C45.9948 30.1109 45.9446 30.0503 45.8975 29.9867C45.7093 29.7412 45.5304 29.4926 45.3547 29.2411C44.884 28.5621 44.4385 27.8529 44.1059 27.0982C43.9427 26.7315 43.8047 26.3374 43.7451 25.9434L43.7482 25.9465ZM51.881 33.1085C51.197 33.1813 50.5067 33.2116 49.8196 33.2298C49.1042 33.248 48.3888 33.2419 47.6734 33.2116C47.0836 33.1873 46.387 33.2207 45.8128 33.0691C44.8809 32.8176 45.2982 31.6294 45.9822 31.3536C46.5031 31.1415 47.2091 31.3051 47.7582 31.3203C48.4861 31.3415 49.214 31.3415 49.942 31.3263C50.3342 31.3173 50.7232 31.3051 51.1155 31.2839C51.4041 31.2688 51.6896 31.2415 51.9626 31.3506C52.3925 31.5264 52.678 31.9447 52.678 32.3932C52.6592 32.8509 52.3109 33.057 51.8779 33.1055L51.881 33.1085Z" fill="#4D4D4F"/>
<path d="M32.8793 44.3953H37.6329C38.0439 44.3953 38.4361 44.0468 38.4173 43.6376C38.3985 43.2284 38.0721 42.8799 37.6329 42.8799H32.8793C32.4683 42.8799 32.0761 43.2284 32.0949 43.6376C32.1137 44.0468 32.44 44.3953 32.8793 44.3953Z" fill="#D1343F"/>
<path d="M24.1284 44.3953H30.0617C31.072 44.3953 31.072 42.8799 30.0617 42.8799H24.1284C23.118 42.8799 23.118 44.3953 24.1284 44.3953Z" fill="#D1343F"/>
<path d="M21.7563 48.578H38.0847C39.095 48.578 39.095 47.0625 38.0847 47.0625H21.7563C20.746 47.0625 20.746 48.578 21.7563 48.578Z" fill="#D1343F"/>
<path d="M31.8315 52.7576H38.5367C39.547 52.7576 39.547 51.2422 38.5367 51.2422H31.8315C30.8211 51.2422 30.8211 52.7576 31.8315 52.7576Z" fill="#D1343F"/>
<path d="M25.0351 52.7576H28.3735C28.7846 52.7576 29.1768 52.4091 29.158 51.9999C29.1391 51.5907 28.8128 51.2422 28.3735 51.2422H25.0351C24.624 51.2422 24.2318 51.5907 24.2507 51.9999C24.2695 52.4091 24.5958 52.7576 25.0351 52.7576Z" fill="#D1343F"/>
<path d="M64.1839 51.2061V46.6749C64.1839 46.2778 63.823 45.8989 63.3995 45.9171C62.9759 45.9353 62.615 46.2505 62.615 46.6749V51.1849C62.2228 51.4304 61.9624 51.8517 61.9624 52.3366C61.9624 53.0944 62.5993 53.7066 63.3806 53.7066C64.1619 53.7066 64.7988 53.0913 64.7988 52.3366C64.7988 51.8668 64.5541 51.4546 64.1807 51.2061H64.1839Z" fill="#D1343F"/>
<path d="M66.3865 42.5924C65.6711 42.3378 64.9338 42.1741 64.1901 42.0953C64.1901 41.8346 64.1964 41.574 64.1964 41.3133C64.1964 41.2194 64.1996 41.1163 64.1964 41.0193C64.1964 41.0163 64.1964 41.0132 64.1964 41.0072C64.1964 41.0072 64.209 41.0072 64.2152 41.0042C64.3188 41.0042 64.4255 41.0072 64.5259 41.0072C64.9369 41.0072 65.3291 40.6586 65.3103 40.2495C65.2915 39.8403 64.9651 39.4917 64.5259 39.4917C64.347 39.4917 64.165 39.4857 63.9893 39.4948C63.9423 39.4948 63.9015 39.5008 63.8607 39.5069C63.8136 39.5069 63.7666 39.5038 63.7226 39.5038C63.2426 39.5008 62.7625 39.4948 62.2856 39.4917C61.8745 39.4887 61.4823 39.8433 61.5012 40.2495C61.52 40.6647 61.8463 41.0042 62.2856 41.0072C62.3954 41.0072 62.5052 41.0072 62.615 41.0072V42.0529C59.948 42.1923 57.3532 43.3774 55.6212 45.4051C53.0138 48.4633 52.6153 52.8763 54.7552 56.283C56.8762 59.6595 61.0148 61.3871 65.0153 60.6355C68.9061 59.902 72.0845 56.7286 72.6807 52.9369C72.7591 52.4368 72.8062 51.9337 72.8124 51.4275C72.7873 47.4873 70.2113 43.9502 66.3865 42.5893V42.5924ZM65.919 58.823C62.6495 59.9656 58.9848 58.9927 56.7633 56.4164C54.5763 53.8795 54.3504 50.1424 56.1107 47.3388C57.8677 44.5382 61.3757 43.0349 64.7047 43.7047C68.4825 44.4624 71.2185 47.7086 71.2436 51.4305C71.2248 54.6767 69.11 57.7106 65.9221 58.826L65.919 58.823Z" fill="#D1343F"/>
<path d="M52.9009 54.6614L46.3651 49.7816H47.9277C49.9138 49.7816 51.5548 48.351 51.8152 46.5022H52.835V44.9503H51.7023C51.5705 44.5048 51.3603 44.0956 51.081 43.7349H52.8318V42.1831H44.0244V43.7349H44.6739V43.741H47.9245C48.8188 43.741 49.5875 44.235 49.9766 44.9534H44.0276V46.5052H50.1805C49.9358 47.4933 49.0196 48.2328 47.9245 48.2328H44.1562V49.7847H44.1625L50.7171 54.6493L52.8977 54.6645L52.9009 54.6614Z" fill="#4D4D4F"/>
</g>
<defs>
<filter id="filter0_d_1352_53015" x="0" y="0" width="95" height="95" filterUnits="userSpaceOnUse" color-interpolation-filters="sRGB">
<feFlood flood-opacity="0" result="BackgroundImageFix"/>
<feColorMatrix in="SourceAlpha" type="matrix" values="0 0 0 0 0 0 0 0 0 0 0 0 0 0 0 0 0 0 127 0" result="hardAlpha"/>
<feOffset dy="4"/>
<feGaussianBlur stdDeviation="4.5"/>
<feComposite in2="hardAlpha" operator="out"/>
<feColorMatrix type="matrix" values="0 0 0 0 0 0 0 0 0 0 0 0 0 0 0 0 0 0 0.1 0"/>
<feBlend mode="normal" in2="BackgroundImageFix" result="effect1_dropShadow_1352_53015"/>
<feBlend mode="normal" in="SourceGraphic" in2="effect1_dropShadow_1352_53015" result="shape"/>
</filter>
<clipPath id="clip0_1352_53015">
<rect width="51.8182" height="38" fill="white" transform="translate(21 24)"/>
</clipPath>
</defs>
</svg>
