<svg width="16" height="16" viewBox="0 0 16 16" fill="none" xmlns="http://www.w3.org/2000/svg">
<path fill-rule="evenodd" clip-rule="evenodd" d="M2.58579 1.25229C2.96086 0.877217 3.46957 0.666504 4 0.666504H9.33333C9.51014 0.666504 9.67971 0.736742 9.80474 0.861766L13.8047 4.86177C13.9298 4.98679 14 5.15636 14 5.33317V13.3332C14 13.8636 13.7893 14.3723 13.4142 14.7474C13.0391 15.1225 12.5304 15.3332 12 15.3332H4C3.46957 15.3332 2.96086 15.1225 2.58579 14.7474C2.21071 14.3723 2 13.8636 2 13.3332V2.6665C2 2.13607 2.21071 1.62736 2.58579 1.25229ZM4 1.99984C3.82319 1.99984 3.65362 2.07008 3.5286 2.1951C3.40357 2.32012 3.33333 2.48969 3.33333 2.6665V13.3332C3.33333 13.51 3.40357 13.6795 3.5286 13.8046C3.65362 13.9296 3.82319 13.9998 4 13.9998H12C12.1768 13.9998 12.3464 13.9296 12.4714 13.8046C12.5964 13.6795 12.6667 13.51 12.6667 13.3332V5.99984H9.33333C8.96514 5.99984 8.66667 5.70136 8.66667 5.33317V1.99984H4ZM10 2.94265L11.7239 4.6665H10V2.94265ZM4.66667 5.99984C4.66667 5.63165 4.96514 5.33317 5.33333 5.33317H6.66667C7.03486 5.33317 7.33333 5.63165 7.33333 5.99984C7.33333 6.36803 7.03486 6.6665 6.66667 6.6665H5.33333C4.96514 6.6665 4.66667 6.36803 4.66667 5.99984ZM4.66667 8.6665C4.66667 8.29831 4.96514 7.99984 5.33333 7.99984H10.6667C11.0349 7.99984 11.3333 8.29831 11.3333 8.6665C11.3333 9.03469 11.0349 9.33317 10.6667 9.33317H5.33333C4.96514 9.33317 4.66667 9.03469 4.66667 8.6665ZM4.66667 11.3332C4.66667 10.965 4.96514 10.6665 5.33333 10.6665H10.6667C11.0349 10.6665 11.3333 10.965 11.3333 11.3332C11.3333 11.7014 11.0349 11.9998 10.6667 11.9998H5.33333C4.96514 11.9998 4.66667 11.7014 4.66667 11.3332Z" fill="#231F20"/>
<path fill-rule="evenodd" clip-rule="evenodd" d="M4.6665 6.00016C4.6665 5.63197 4.96498 5.3335 5.33317 5.3335H6.6665C7.03469 5.3335 7.33317 5.63197 7.33317 6.00016C7.33317 6.36835 7.03469 6.66683 6.6665 6.66683H5.33317C4.96498 6.66683 4.6665 6.36835 4.6665 6.00016ZM4.6665 8.66683C4.6665 8.29864 4.96498 8.00016 5.33317 8.00016H10.6665C11.0347 8.00016 11.3332 8.29864 11.3332 8.66683C11.3332 9.03502 11.0347 9.3335 10.6665 9.3335H5.33317C4.96498 9.3335 4.6665 9.03502 4.6665 8.66683ZM4.6665 11.3335C4.6665 10.9653 4.96498 10.6668 5.33317 10.6668H10.6665C11.0347 10.6668 11.3332 10.9653 11.3332 11.3335C11.3332 11.7017 11.0347 12.0002 10.6665 12.0002H5.33317C4.96498 12.0002 4.6665 11.7017 4.6665 11.3335Z" fill="#EF4444"/>
</svg>
