<svg width="20" height="20" viewBox="0 0 20 20" fill="none" xmlns="http://www.w3.org/2000/svg">
<g clip-path="url(#clip0_2384_592)">
<path d="M12.292 1.14551V4.89551C12.292 5.14415 12.3908 5.3826 12.5666 5.55842C12.7424 5.73424 12.9809 5.83301 13.2295 5.83301H16.9795" stroke="#231F20" stroke-width="1.5" stroke-linecap="round" stroke-linejoin="round"/>
<path d="M15.1045 18.0205H5.72949C5.23221 18.0205 4.7553 17.823 4.40367 17.4713C4.05204 17.1197 3.85449 16.6428 3.85449 16.1455V3.02051C3.85449 2.52323 4.05204 2.04631 4.40367 1.69468C4.7553 1.34305 5.23221 1.14551 5.72949 1.14551H12.292L16.9795 5.83301V16.1455C16.9795 16.6428 16.7819 17.1197 16.4303 17.4713C16.0787 17.823 15.6018 18.0205 15.1045 18.0205Z" stroke="#231F20" stroke-width="1.5" stroke-linecap="round" stroke-linejoin="round"/>
<path d="M6.66699 10.5205H7.60449V13.333H6.66699V10.5205Z" stroke="#231F20" stroke-width="1.3" stroke-linecap="round" stroke-linejoin="round"/>
<path d="M10.417 10.5205V13.333" stroke="#231F20" stroke-width="1.3" stroke-linecap="round" stroke-linejoin="round"/>
<path d="M13.2295 10.5205H14.167V13.333H13.2295V10.5205Z" stroke="#231F20" stroke-width="1.3" stroke-linecap="round" stroke-linejoin="round"/>
</g>
<defs>
<clipPath id="clip0_2384_592">
<rect width="20" height="20" fill="white"/>
</clipPath>
</defs>
</svg>
