<svg width="20" height="20" viewBox="0 0 20 20" fill="none" xmlns="http://www.w3.org/2000/svg">
<path fill-rule="evenodd" clip-rule="evenodd" d="M3.68342 2.67898C4.121 2.24424 4.7145 2 5.33333 2H11.5556C11.7618 2 11.9597 2.08141 12.1055 2.22633L16.7722 6.86269C16.9181 7.0076 17 7.20415 17 7.40909V16.6818C17 17.2966 16.7542 17.8863 16.3166 18.321C15.879 18.7558 15.2855 19 14.6667 19H5.33333C4.71449 19 4.121 18.7558 3.68342 18.321C3.24583 17.8863 3 17.2966 3 16.6818V4.31818C3 3.70336 3.24583 3.11372 3.68342 2.67898ZM5.33333 3.54545C5.12705 3.54545 4.92922 3.62687 4.78336 3.77178C4.6375 3.9167 4.55556 4.11324 4.55556 4.31818V16.6818C4.55556 16.8868 4.6375 17.0833 4.78336 17.2282C4.92922 17.3731 5.12705 17.4545 5.33333 17.4545H14.6667C14.8729 17.4545 15.0708 17.3731 15.2166 17.2282C15.3625 17.0833 15.4444 16.8868 15.4444 16.6818V8.18182H11.5556C11.126 8.18182 10.7778 7.83586 10.7778 7.40909V3.54545H5.33333ZM12.3333 4.63826L14.3445 6.63636H12.3333V4.63826ZM6.11111 8.18182C6.11111 7.75505 6.45933 7.40909 6.88889 7.40909H8.44444C8.874 7.40909 9.22222 7.75505 9.22222 8.18182C9.22222 8.60858 8.874 8.95455 8.44444 8.95455H6.88889C6.45933 8.95455 6.11111 8.60858 6.11111 8.18182ZM6.11111 11.2727C6.11111 10.846 6.45933 10.5 6.88889 10.5H13.1111C13.5407 10.5 13.8889 10.846 13.8889 11.2727C13.8889 11.6995 13.5407 12.0455 13.1111 12.0455H6.88889C6.45933 12.0455 6.11111 11.6995 6.11111 11.2727ZM6.11111 14.3636C6.11111 13.9369 6.45933 13.5909 6.88889 13.5909H13.1111C13.5407 13.5909 13.8889 13.9369 13.8889 14.3636C13.8889 14.7904 13.5407 15.1364 13.1111 15.1364H6.88889C6.45933 15.1364 6.11111 14.7904 6.11111 14.3636Z" fill="#231F20"/>
<path fill-rule="evenodd" clip-rule="evenodd" d="M6.11108 8.18191C6.11108 7.75514 6.45931 7.40918 6.88886 7.40918H8.44442C8.87397 7.40918 9.2222 7.75514 9.2222 8.18191C9.2222 8.60867 8.87397 8.95463 8.44442 8.95463H6.88886C6.45931 8.95463 6.11108 8.60867 6.11108 8.18191ZM6.11108 11.2728C6.11108 10.846 6.45931 10.5001 6.88886 10.5001H13.1111C13.5406 10.5001 13.8889 10.846 13.8889 11.2728C13.8889 11.6996 13.5406 12.0455 13.1111 12.0455H6.88886C6.45931 12.0455 6.11108 11.6996 6.11108 11.2728ZM6.11108 14.3637C6.11108 13.937 6.45931 13.591 6.88886 13.591H13.1111C13.5406 13.591 13.8889 13.937 13.8889 14.3637C13.8889 14.7905 13.5406 15.1365 13.1111 15.1365H6.88886C6.45931 15.1365 6.11108 14.7905 6.11108 14.3637Z" fill="#EF4444"/>
</svg>
