<svg width="20" height="20" viewBox="0 0 20 20" fill="none" xmlns="http://www.w3.org/2000/svg">
<g clip-path="url(#clip0_2683_5869)">
<path d="M14.5475 13.9289C11.1066 15.4951 7.27493 13.8488 5.78003 10.6164C4.30908 7.43664 5.41158 3.55686 8.49035 1.74271C11.3205 0.0747616 14.9684 0.733868 17.0508 3.45042C19.3271 6.41962 18.8275 10.679 15.9934 13.0206C16.286 13.5095 16.5786 14.0002 16.882 14.5079C17.3959 14.185 17.9069 13.864 18.4311 13.5347C18.7248 14.0265 19.0088 14.5014 19.3014 14.9909C18.7864 15.3149 18.2748 15.636 17.7501 15.9658C18.0461 16.4606 18.333 16.9413 18.6278 17.4349C18.1476 17.7367 17.6805 18.0303 17.198 18.3333C16.9088 17.8496 16.6219 17.3689 16.3253 16.8729C15.7995 17.2034 15.2878 17.525 14.7637 17.8543C14.4711 17.3642 14.1876 16.8899 13.8945 16.4004L15.4424 15.4278L14.5481 13.9312L14.5475 13.9289ZM15.9466 5.09088C14.5475 2.74628 11.5691 1.98541 9.2803 3.42644C6.96865 4.88209 6.25627 7.91971 7.6719 10.2783C9.14911 12.7393 12.1321 13.2604 14.2726 11.9609C16.623 10.5339 17.3411 7.40389 15.9466 5.09088Z" fill="#EF4444"/>
<path d="M2.19564 2.86626C2.14871 3.09479 2.10157 3.32408 2.05705 3.54107C1.54424 3.40831 1.07276 3.28652 0.618495 3.16873C0.917649 2.10413 1.22358 1.01536 1.52506 -0.0575504C2.589 0.213727 3.6808 0.491725 4.76098 0.767562C4.63423 1.22714 4.50324 1.70183 4.36723 2.19589C4.15085 2.13205 3.93068 2.06724 3.66682 1.98964C3.70217 2.06995 3.71429 2.10666 3.73322 2.13944C4.05968 2.70601 4.38857 3.27118 4.71163 3.83971C4.76545 3.93406 4.80718 3.96255 4.9231 3.91526C7.41457 2.89867 10.3318 3.53659 12.1101 5.48194C14.3256 7.90593 14.3742 11.5385 12.1573 14.0454C10.5233 15.8927 8.43933 16.6284 6.01317 16.2416C4.31532 15.9702 2.95567 15.1171 1.95266 13.7503C-0.133613 10.909 0.530685 7.01054 3.25523 4.8744C3.32426 4.81998 3.36337 4.78219 3.31132 4.69316C2.95786 4.0877 2.60878 3.47971 2.25825 2.87256C2.23763 2.87052 2.21674 2.86802 2.19612 2.86598L2.19564 2.86626ZM9.64652 13.8981C11.9006 12.5657 12.6739 9.65763 11.359 7.44853C10.0914 5.31917 7.19599 4.471 4.82571 5.90853C2.64836 7.22897 1.81905 10.0211 3.1237 12.2786C4.48568 14.6353 7.45729 15.2114 9.6463 13.8988L9.64652 13.8981Z" fill="#231F20"/>
</g>
<defs>
<clipPath id="clip0_2683_5869">
<rect width="20" height="20" fill="white"/>
</clipPath>
</defs>
</svg>
