<svg width="20" height="20" viewBox="0 0 20 20" fill="none" xmlns="http://www.w3.org/2000/svg">
<path fill-rule="evenodd" clip-rule="evenodd" d="M9.53816 1.80695C9.81808 1.62034 10.1827 1.62034 10.4627 1.80695L17.9627 6.80695C18.3456 7.06224 18.4491 7.57964 18.1938 7.96258C17.9385 8.34552 17.4211 8.449 17.0382 8.1937L10.0004 3.50187L2.96266 8.1937C2.57972 8.449 2.06233 8.34552 1.80704 7.96258C1.55175 7.57964 1.65522 7.06224 2.03816 6.80695L9.53816 1.80695Z" fill="#231F20"/>
<path fill-rule="evenodd" clip-rule="evenodd" d="M14.1663 7.5C14.6266 7.5 14.9997 7.8731 14.9997 8.33333V12.5C14.9997 12.9602 14.6266 13.3333 14.1663 13.3333C13.7061 13.3333 13.333 12.9602 13.333 12.5V8.33333C13.333 7.8731 13.7061 7.5 14.1663 7.5Z" fill="#231F20"/>
<path fill-rule="evenodd" clip-rule="evenodd" d="M10.0003 7.5C10.4606 7.5 10.8337 7.8731 10.8337 8.33333V12.5C10.8337 12.9602 10.4606 13.3333 10.0003 13.3333C9.54009 13.3333 9.16699 12.9602 9.16699 12.5V8.33333C9.16699 7.8731 9.54009 7.5 10.0003 7.5Z" fill="#231F20"/>
<path fill-rule="evenodd" clip-rule="evenodd" d="M5.83333 7.5C6.29357 7.5 6.66667 7.8731 6.66667 8.33333V12.5C6.66667 12.9602 6.29357 13.3333 5.83333 13.3333C5.3731 13.3333 5 12.9602 5 12.5V8.33333C5 7.8731 5.3731 7.5 5.83333 7.5Z" fill="#231F20"/>
<path fill-rule="evenodd" clip-rule="evenodd" d="M16.6663 15.0003C16.6663 15.4606 16.2932 15.8337 15.833 15.8337H4.16634C3.7061 15.8337 3.33301 15.4606 3.33301 15.0003C3.33301 14.5401 3.7061 14.167 4.16634 14.167H15.833C16.2932 14.167 16.6663 14.5401 16.6663 15.0003Z" fill="#EF4444"/>
<path fill-rule="evenodd" clip-rule="evenodd" d="M18.3337 17.5003C18.3337 17.9606 17.9606 18.3337 17.5003 18.3337H2.50033C2.04009 18.3337 1.66699 17.9606 1.66699 17.5003C1.66699 17.0401 2.04009 16.667 2.50032 16.667H17.5003C17.9606 16.667 18.3337 17.0401 18.3337 17.5003Z" fill="#231F20"/>
</svg>
