<svg width="14" height="14" viewBox="0 0 14 14" fill="none" xmlns="http://www.w3.org/2000/svg">
<path fill-rule="evenodd" clip-rule="evenodd" d="M6.99968 1.75016C4.10018 1.75016 1.74967 4.10067 1.74967 7.00016C1.74967 9.89966 4.10018 12.2502 6.99968 12.2502C9.89917 12.2502 12.2497 9.89966 12.2497 7.00016C12.2497 4.10067 9.89917 1.75016 6.99968 1.75016ZM0.583008 7.00016C0.583008 3.45634 3.45585 0.583496 6.99968 0.583496C10.5435 0.583496 13.4163 3.45634 13.4163 7.00016C13.4163 10.544 10.5435 13.4168 6.99968 13.4168C3.45585 13.4168 0.583008 10.544 0.583008 7.00016ZM6.99968 2.91683C7.32184 2.91683 7.58301 3.178 7.58301 3.50016V6.63964L9.59388 7.64508C9.88204 7.78916 9.99884 8.13955 9.85476 8.42771C9.71068 8.71586 9.36029 8.83266 9.07214 8.68858L6.7388 7.52191C6.54118 7.4231 6.41634 7.22111 6.41634 7.00016V3.50016C6.41634 3.178 6.67751 2.91683 6.99968 2.91683Z" fill="#231F20"/>
<path fill-rule="evenodd" clip-rule="evenodd" d="M7.00033 2.91602C7.32249 2.91602 7.58366 3.17718 7.58366 3.49935V6.63883L9.59453 7.64427C9.88269 7.78834 9.99949 8.13874 9.85541 8.42689C9.71133 8.71505 9.36094 8.83184 9.07279 8.68777L6.73945 7.5211C6.54183 7.42229 6.41699 7.2203 6.41699 6.99935V3.49935C6.41699 3.17718 6.67816 2.91602 7.00033 2.91602Z" fill="#EF4444"/>
</svg>
