<svg width="11" height="12" viewBox="0 0 11 12" fill="none" xmlns="http://www.w3.org/2000/svg">
<path fill-rule="evenodd" clip-rule="evenodd" d="M5.5 10.5C7.98528 10.5 10 8.48528 10 6C10 3.51472 7.98528 1.5 5.5 1.5C3.01472 1.5 1 3.51472 1 6C0.999999 8.48528 3.01472 10.5 5.5 10.5ZM11 6C11 9.03757 8.53757 11.5 5.5 11.5C2.46243 11.5 -7.38402e-07 9.03757 -4.72849e-07 6C-2.07297e-07 2.96243 2.46243 0.5 5.5 0.5C8.53757 0.500001 11 2.96243 11 6ZM5.5 8.5C5.22386 8.5 5 8.27614 5 8L5 6C5 5.72386 5.22386 5.5 5.5 5.5C5.77614 5.5 6 5.72386 6 6L6 8C6 8.27614 5.77614 8.5 5.5 8.5ZM6 4C6 4.27614 5.77614 4.5 5.5 4.5L5.495 4.5C5.21886 4.5 4.995 4.27614 4.995 4C4.995 3.72386 5.21886 3.5 5.495 3.5L5.5 3.5C5.77614 3.5 6 3.72386 6 4Z" fill="#231F20"/>
</svg>
