<svg width="39" height="38" viewBox="0 0 39 38" fill="none" xmlns="http://www.w3.org/2000/svg">
<rect x="0.5" width="38" height="38" rx="19" fill="#F3F4F6"/>
<path fill-rule="evenodd" clip-rule="evenodd" d="M19.5003 11.8751C15.5653 11.8751 12.3753 15.0651 12.3753 19.0001C12.3753 22.9351 15.5653 26.1251 19.5003 26.1251C23.4354 26.1251 26.6253 22.9351 26.6253 19.0001C26.6253 15.0651 23.4354 11.8751 19.5003 11.8751ZM10.792 19.0001C10.792 14.1906 14.6908 10.2917 19.5003 10.2917C24.3098 10.2917 28.2087 14.1906 28.2087 19.0001C28.2087 23.8096 24.3098 27.7084 19.5003 27.7084C14.6908 27.7084 10.792 23.8096 10.792 19.0001ZM19.5003 15.0417C19.9376 15.0417 20.292 15.3962 20.292 15.8334V19.0001C20.292 19.4373 19.9376 19.7917 19.5003 19.7917C19.0631 19.7917 18.7087 19.4373 18.7087 19.0001V15.8334C18.7087 15.3962 19.0631 15.0417 19.5003 15.0417ZM18.7087 22.1667C18.7087 21.7295 19.0631 21.3751 19.5003 21.3751H19.5082C19.9455 21.3751 20.2999 21.7295 20.2999 22.1667C20.2999 22.604 19.9455 22.9584 19.5082 22.9584H19.5003C19.0631 22.9584 18.7087 22.604 18.7087 22.1667Z" fill="#231F20"/>
</svg>
