<svg width="16" height="16" viewBox="0 0 16 16" fill="none" xmlns="http://www.w3.org/2000/svg">
<path fill-rule="evenodd" clip-rule="evenodd" d="M8 14.5455C11.615 14.5455 14.5455 11.615 14.5455 8C14.5455 4.38505 11.615 1.45455 8 1.45455C4.38505 1.45454 1.45455 4.38504 1.45454 8C1.45454 11.615 4.38504 14.5455 8 14.5455ZM16 8C16 12.4183 12.4183 16 8 16C3.58172 16 -1.59422e-06 12.4183 -1.20797e-06 8C-8.21708e-07 3.58172 3.58172 -1.31966e-07 8 2.54292e-07C12.4183 6.4055e-07 16 3.58172 16 8ZM8 11.6364C7.59834 11.6364 7.27273 11.3108 7.27273 10.9091L7.27273 8C7.27273 7.59834 7.59834 7.27273 8 7.27273C8.40166 7.27273 8.72727 7.59834 8.72727 8L8.72727 10.9091C8.72727 11.3108 8.40166 11.6364 8 11.6364ZM8.72727 5.09091C8.72727 5.49257 8.40166 5.81818 8 5.81818L7.99273 5.81818C7.59107 5.81818 7.26545 5.49257 7.26545 5.09091C7.26545 4.68925 7.59107 4.36364 7.99273 4.36364L8 4.36364C8.40166 4.36364 8.72727 4.68925 8.72727 5.09091Z" fill="#6B7280"/>
</svg>
