<svg width="20" height="20" viewBox="0 0 20 20" fill="none" xmlns="http://www.w3.org/2000/svg">
<g clip-path="url(#clip0_124_3124)">
<path fill-rule="evenodd" clip-rule="evenodd" d="M12.8106 3.41662L9.99995 0.605957L7.18929 3.41662H3.41662V7.18929L0.605957 9.99995L3.41662 12.8106V16.5833H7.18929L9.99995 19.3939L12.8106 16.5833H16.5833V12.8106L19.3939 9.99995L16.5833 7.18929V3.41662H12.8106ZM7.81061 4.91662L9.99995 2.72728L12.1893 4.91662H15.0833V7.81061L17.2726 9.99995L15.0833 12.1893V15.0833H12.1893L9.99995 17.2726L7.81061 15.0833H4.91662V12.1893L2.72728 9.99995L4.91662 7.81061V4.91662H7.81061ZM9.5427 9.0012C9.62003 8.8252 9.6587 8.63054 9.6587 8.4172C9.6587 8.19587 9.62403 7.99587 9.5547 7.8172C9.48537 7.63587 9.38803 7.4812 9.2627 7.3532C9.14003 7.2252 8.99203 7.12653 8.8187 7.0572C8.64803 6.9852 8.46137 6.9492 8.2587 6.9492C8.05603 6.9492 7.86937 6.9852 7.6987 7.0572C7.5307 7.12653 7.38403 7.2252 7.2587 7.3532C7.13603 7.4812 7.04003 7.63587 6.9707 7.8172C6.90137 7.99587 6.8667 8.19587 6.8667 8.4172C6.8667 8.63054 6.90137 8.8252 6.9707 9.0012C7.04003 9.1772 7.13603 9.3292 7.2587 9.4572C7.38403 9.58253 7.5307 9.67987 7.6987 9.7492C7.86937 9.81853 8.05603 9.8532 8.2587 9.8532C8.4427 9.8532 8.6187 9.81853 8.7867 9.7492C8.95737 9.67987 9.1067 9.58253 9.2347 9.4572C9.3627 9.3292 9.46537 9.1772 9.5427 9.0012ZM8.6707 8.0812C8.6947 8.1692 8.7067 8.2812 8.7067 8.4172C8.7067 8.5452 8.6947 8.65187 8.6707 8.7372C8.64937 8.82253 8.6187 8.89054 8.5787 8.9412C8.5387 8.99187 8.4907 9.02787 8.4347 9.0492C8.38137 9.07053 8.3227 9.0812 8.2587 9.0812C8.1947 9.0812 8.13603 9.07053 8.0827 9.0492C8.02937 9.02787 7.98403 8.99187 7.9467 8.9412C7.90937 8.89054 7.88003 8.82253 7.8587 8.7372C7.83737 8.65187 7.8267 8.5452 7.8267 8.4172C7.8267 8.2812 7.83737 8.1692 7.8587 8.0812C7.88003 7.99054 7.90937 7.91854 7.9467 7.8652C7.98403 7.81187 8.02937 7.77453 8.0827 7.7532C8.13603 7.73187 8.1947 7.7212 8.2587 7.7212C8.3227 7.7212 8.38137 7.73187 8.4347 7.7532C8.4907 7.77453 8.5387 7.81187 8.5787 7.8652C8.6187 7.91854 8.64937 7.99054 8.6707 8.0812ZM11.6387 7.0652C11.58 7.10253 11.5307 7.14387 11.4907 7.1892L7.0987 12.8332H8.0267C8.11203 12.8332 8.18403 12.8172 8.2427 12.7852C8.30403 12.7505 8.3547 12.7079 8.3947 12.6572L12.7867 7.0052H11.8827C11.7787 7.0052 11.6974 7.0252 11.6387 7.0652ZM12.8947 12.0532C12.972 11.8745 13.0107 11.6785 13.0107 11.4652C13.0107 11.2439 12.976 11.0439 12.9067 10.8652C12.8374 10.6839 12.74 10.5292 12.6147 10.4012C12.492 10.2732 12.344 10.1745 12.1707 10.1052C12 10.0332 11.8134 9.9972 11.6107 9.9972C11.408 9.9972 11.2214 10.0332 11.0507 10.1052C10.8827 10.1745 10.736 10.2732 10.6107 10.4012C10.488 10.5292 10.392 10.6839 10.3227 10.8652C10.2534 11.0439 10.2187 11.2439 10.2187 11.4652C10.2187 11.6785 10.2534 11.8745 10.3227 12.0532C10.392 12.2292 10.488 12.3812 10.6107 12.5092C10.736 12.6345 10.8827 12.7319 11.0507 12.8012C11.2214 12.8705 11.408 12.9052 11.6107 12.9052C11.7947 12.9052 11.9707 12.8705 12.1387 12.8012C12.3094 12.7319 12.4587 12.6345 12.5867 12.5092C12.7147 12.3812 12.8174 12.2292 12.8947 12.0532ZM12.0227 11.1332C12.0467 11.2212 12.0587 11.3319 12.0587 11.4652C12.0587 11.5932 12.0467 11.6999 12.0227 11.7852C12.0014 11.8705 11.9707 11.9385 11.9307 11.9892C11.8907 12.0399 11.8427 12.0759 11.7867 12.0972C11.7334 12.1185 11.6747 12.1292 11.6107 12.1292C11.5467 12.1292 11.488 12.1185 11.4347 12.0972C11.3814 12.0759 11.336 12.0399 11.2987 11.9892C11.2614 11.9385 11.232 11.8705 11.2107 11.7852C11.1894 11.6999 11.1787 11.5932 11.1787 11.4652C11.1787 11.3319 11.1894 11.2212 11.2107 11.1332C11.232 11.0425 11.2614 10.9705 11.2987 10.9172C11.336 10.8639 11.3814 10.8265 11.4347 10.8052C11.488 10.7839 11.5467 10.7732 11.6107 10.7732C11.6747 10.7732 11.7334 10.7839 11.7867 10.8052C11.8427 10.8265 11.8907 10.8639 11.9307 10.9172C11.9707 10.9705 12.0014 11.0425 12.0227 11.1332Z" fill="#221F20"/>
</g>
<defs>
<clipPath id="clip0_124_3124">
<rect width="20" height="20" fill="white"/>
</clipPath>
</defs>
</svg>
