<svg width="18" height="19" viewBox="0 0 18 19" fill="none" xmlns="http://www.w3.org/2000/svg">
<path fill-rule="evenodd" clip-rule="evenodd" d="M1.65543 14.0207C3.8409 12.7922 6.34311 12.0951 9.00061 12.0951C11.6581 12.0951 14.1603 12.7922 16.3458 14.0207L16.5885 14.1571V17.7344H1.41275V14.1571L1.65543 14.0207ZM2.33847 14.7337V16.7723H15.6628V14.7337C13.6674 13.6624 11.4026 13.0572 9.00061 13.0572C6.59857 13.0572 4.33378 13.6624 2.33847 14.7337Z" fill="#221F20"/>
<path fill-rule="evenodd" clip-rule="evenodd" d="M1.59427 13.9031C3.79805 12.6644 6.32123 11.9614 9.00061 11.9614C11.68 11.9614 14.2032 12.6644 16.4069 13.9031L16.717 14.0774V17.8681H1.28418V14.0774L1.59427 13.9031ZM9.00061 12.2287C6.36499 12.2287 3.88374 12.9201 1.71659 14.1382L1.54132 14.2367V17.6008H16.4599V14.2367L16.2846 14.1382C14.1175 12.9201 11.6362 12.2287 9.00061 12.2287ZM2.46704 14.8153V16.6386H15.5342V14.8153C13.5737 13.7767 11.3538 13.1909 9.00061 13.1909C6.64745 13.1909 4.42755 13.7767 2.46704 14.8153ZM2.27946 14.6149C4.29259 13.5341 6.57756 12.9236 9.00061 12.9236C11.4237 12.9236 13.7086 13.5341 15.7218 14.6149L15.7913 14.6523V16.9059H2.20989V14.6523L2.27946 14.6149Z" fill="#221F20"/>
<path fill-rule="evenodd" clip-rule="evenodd" d="M4.78677 1.96078H13.2125V6.33954C13.2125 8.75785 11.3263 10.7183 8.99963 10.7183C6.67294 10.7183 4.78677 8.75785 4.78677 6.33954V1.96078ZM5.71249 2.92295V6.33954C5.71249 8.22646 7.1842 9.75614 8.99963 9.75614C10.8151 9.75614 12.2868 8.22646 12.2868 6.33954V2.92295H5.71249Z" fill="#221F20"/>
<path fill-rule="evenodd" clip-rule="evenodd" d="M4.6582 1.82715H13.3411V6.33954C13.3411 8.83165 11.3973 10.8519 8.99963 10.8519C6.60193 10.8519 4.6582 8.83165 4.6582 6.33954V1.82715ZM4.91535 2.09442V6.33954C4.91535 8.68404 6.74394 10.5847 8.99963 10.5847C11.2553 10.5847 13.0839 8.68404 13.0839 6.33954V2.09442H4.91535ZM5.58392 2.78932H12.4153V6.33954C12.4153 8.30026 10.8861 9.88977 8.99963 9.88977C7.11319 9.88977 5.58392 8.30026 5.58392 6.33954V2.78932ZM5.84106 3.05659V6.33954C5.84106 8.15266 7.25521 9.6225 8.99963 9.6225C10.744 9.6225 12.1582 8.15265 12.1582 6.33954V3.05659H5.84106Z" fill="#221F20"/>
</svg>
