<svg width="16" height="16" viewBox="0 0 16 16" fill="none" xmlns="http://www.w3.org/2000/svg">
<path fill-rule="evenodd" clip-rule="evenodd" d="M8.00004 1.99996C7.2928 1.99996 6.61452 2.28091 6.11442 2.78101C5.61433 3.28111 5.33337 3.95938 5.33337 4.66663V6.66663H10.6667V4.66663C10.6667 3.95938 10.3858 3.28111 9.88566 2.78101C9.38556 2.28091 8.70728 1.99996 8.00004 1.99996ZM12 6.66663V4.66663C12 3.60576 11.5786 2.58834 10.8285 1.8382C10.0783 1.08805 9.06091 0.666626 8.00004 0.666626C6.93917 0.666626 5.92176 1.08805 5.17161 1.8382C4.42147 2.58834 4.00004 3.60576 4.00004 4.66663V6.66663H3.33337C2.2288 6.66663 1.33337 7.56206 1.33337 8.66663V13.3333C1.33337 14.4379 2.2288 15.3333 3.33337 15.3333H12.6667C13.7713 15.3333 14.6667 14.4379 14.6667 13.3333V8.66663C14.6667 7.56206 13.7713 6.66663 12.6667 6.66663H12ZM3.33337 7.99996C2.96518 7.99996 2.66671 8.29844 2.66671 8.66663V13.3333C2.66671 13.7015 2.96518 14 3.33337 14H12.6667C13.0349 14 13.3334 13.7015 13.3334 13.3333V8.66663C13.3334 8.29844 13.0349 7.99996 12.6667 7.99996H3.33337Z" fill="#231F20"/>
<path d="M8 1.99996C7.29276 1.99996 6.61448 2.28091 6.11438 2.78101C5.61428 3.28111 5.33333 3.95938 5.33333 4.66663V6.66663H4V4.66663C4 3.60576 4.42143 2.58834 5.17157 1.8382C5.92172 1.08805 6.93913 0.666626 8 0.666626C9.06087 0.666626 10.0783 1.08805 10.8284 1.8382C11.5786 2.58834 12 3.60576 12 4.66663V6.66663H10.6667V4.66663C10.6667 3.95938 10.3857 3.28111 9.88562 2.78101C9.38552 2.28091 8.70724 1.99996 8 1.99996Z" fill="#EF4444"/>
</svg>
