<svg width="20" height="20" viewBox="0 0 20 20" fill="none" xmlns="http://www.w3.org/2000/svg">
<path fill-rule="evenodd" clip-rule="evenodd" d="M10 1.66667C8.2319 1.66667 6.5362 2.36905 5.28596 3.61929C4.03572 4.86953 3.33334 6.56522 3.33334 8.33333C3.33334 10.915 5.01312 13.4202 6.85497 15.3644C7.75885 16.3185 8.66556 17.0996 9.34724 17.6424C9.60093 17.8444 9.82252 18.0127 10 18.1438C10.1775 18.0127 10.3991 17.8444 10.6528 17.6424C11.3344 17.0996 12.2412 16.3185 13.145 15.3644C14.9869 13.4202 16.6667 10.915 16.6667 8.33333C16.6667 6.56522 15.9643 4.86953 14.7141 3.61929C13.4638 2.36905 11.7681 1.66667 10 1.66667ZM10 19.1667C9.53776 19.86 9.5373 19.8597 9.5373 19.8597L9.53492 19.8582L9.52937 19.8544L9.51027 19.8415C9.49404 19.8305 9.4709 19.8147 9.4413 19.7942C9.38211 19.7532 9.29706 19.6934 9.18983 19.616C8.97546 19.4612 8.67197 19.2352 8.30902 18.9462C7.58445 18.3692 6.61616 17.5357 5.64504 16.5106C3.73689 14.4965 1.66667 11.585 1.66667 8.33333C1.66667 6.1232 2.54465 4.00358 4.10745 2.44078C5.67025 0.877974 7.78987 0 10 0C12.2101 0 14.3298 0.877974 15.8926 2.44078C17.4554 4.00358 18.3333 6.1232 18.3333 8.33333C18.3333 11.585 16.2631 14.4965 14.355 16.5106C13.3838 17.5357 12.4156 18.3692 11.691 18.9462C11.328 19.2352 11.0246 19.4612 10.8102 19.616C10.703 19.6934 10.6179 19.7532 10.5587 19.7942C10.5291 19.8147 10.506 19.8305 10.4897 19.8415L10.4706 19.8544L10.4651 19.8582L10.4633 19.8593C10.4633 19.8593 10.4623 19.86 10 19.1667ZM10 19.1667L10.4623 19.86C10.1823 20.0467 9.81722 20.0464 9.5373 19.8597L10 19.1667ZM10 6.66667C9.07953 6.66667 8.33334 7.41286 8.33334 8.33333C8.33334 9.25381 9.07953 10 10 10C10.9205 10 11.6667 9.25381 11.6667 8.33333C11.6667 7.41286 10.9205 6.66667 10 6.66667ZM6.66667 8.33333C6.66667 6.49238 8.15906 5 10 5C11.841 5 13.3333 6.49238 13.3333 8.33333C13.3333 10.1743 11.841 11.6667 10 11.6667C8.15906 11.6667 6.66667 10.1743 6.66667 8.33333Z" fill="white"/>
<path d="M12.3333 8.33333C12.3333 9.622 11.2887 10.6667 10 10.6667C8.71134 10.6667 7.66667 9.622 7.66667 8.33333C7.66667 7.04467 8.71134 6 10 6C11.2887 6 12.3333 7.04467 12.3333 8.33333Z" stroke="#EF4444" stroke-width="2"/>
</svg>
