<svg width="20" height="20" viewBox="0 0 20 20" fill="none" xmlns="http://www.w3.org/2000/svg">
<path d="M8.24331 7.49275C8.78369 7.95544 9.15385 8.50349 9.36864 9.1536C9.40206 9.25442 9.40702 9.3769 9.38659 9.48143C8.87035 12.0738 10.5559 14.464 13.1767 14.8506C15.4787 15.1902 17.7634 13.5163 18.146 11.2103C18.6306 8.28761 16.3781 5.77934 13.4199 5.96119C12.7335 6.00325 12.0891 6.21542 11.4918 6.56862C11.0981 6.12202 10.7063 5.67727 10.3151 5.23376C12.1343 3.83581 15.6378 3.5723 18.0896 5.90923C20.4226 8.13297 20.6541 11.9118 18.5892 14.3774C16.4462 16.937 12.736 17.4195 10.083 15.4735C7.39343 13.4996 6.8481 9.96144 8.24269 7.49214L8.24331 7.49275Z" fill="#EF4444"/>
<path d="M4.38826 6.3046C3.0339 6.92903 2.14623 7.96072 1.79972 9.45075C1.54409 10.5489 1.70005 11.6101 2.21541 12.6024C3.19161 14.4831 5.60016 15.6717 8.04506 14.3213C8.41385 14.7624 8.78381 15.2047 9.16667 15.6618C8.30069 16.2697 7.33973 16.6203 6.29963 16.6609C3.93622 16.7526 2.09991 15.7449 0.838177 13.6384C-0.475737 11.4459 -0.21659 8.36676 1.41686 6.4221C1.86656 5.88687 2.37547 5.43285 2.96178 5.0705C3.10894 4.97945 3.20217 4.95976 3.33115 5.11356C3.66535 5.51221 4.02006 5.89241 4.38885 6.30521L4.38826 6.3046Z" fill="#231F20"/>
<path d="M5.84003 1.67036C6.46946 1.67036 7.09827 1.67859 7.7277 1.66684C8.04118 1.66097 8.25491 1.77609 8.41289 2.02924C8.61176 2.34877 8.83292 2.65596 9.03675 2.97255C9.23251 3.2768 9.20959 3.50587 8.95063 3.76725C8.06906 4.65828 7.18562 5.54873 6.29847 6.43447C5.98809 6.7446 5.674 6.74342 5.36671 6.43447C4.48886 5.55284 3.61471 4.66885 2.74243 3.78252C2.44258 3.47827 2.42772 3.30147 2.66003 2.9467C2.86633 2.63129 3.08688 2.3241 3.28637 2.00457C3.43319 1.76963 3.6364 1.66625 3.92138 1.6686C4.56072 1.67448 5.20006 1.67036 5.84003 1.67036Z" fill="#231F20"/>
<path d="M7.5 6.323C7.96 5.87176 8.40664 5.43403 8.84928 5C11.7248 6.22833 13.6489 10.0523 11.7261 13.3333C11.1119 12.8704 10.714 12.2771 10.4696 11.6003C10.4162 11.4521 10.5037 11.2615 10.525 11.09C10.7814 9.06431 9.72654 7.30296 7.73567 6.42998C7.66624 6.39985 7.59747 6.36788 7.5 6.323Z" fill="#231F20"/>
</svg>
