<svg width="20" height="20" viewBox="0 0 20 20" fill="none" xmlns="http://www.w3.org/2000/svg">
<g clip-path="url(#clip0_1517_3255)">
<path fill-rule="evenodd" clip-rule="evenodd" d="M14.5 5.5C14.0398 5.5 14.5 5 14.5 5C14.5 4.53976 15.0398 4.5 15.5 4.5L17.5 5L19 4.5C19.4602 4.5 19.5 5.03976 19.5 5.5V10C19.5 10.4602 19.4602 10.5 19 10.5C18.5398 10.5 18.3333 10.4603 18.3333 10V7.01187L11.8393 13.5059C11.5138 13.8314 10.9862 13.8314 10.6607 13.5059L7.08333 9.92853L1.42259 15.5893C1.09715 15.9147 0.569515 15.9147 0.244078 15.5893C-0.0813592 15.2638 -0.0813592 14.7362 0.244078 14.4108L6.49408 8.16076C6.81951 7.83533 7.34715 7.83533 7.67259 8.16076L11.25 11.7382L17.1548 5.83335L14.5 5.5Z" fill="#231F20"/>
</g>
<path d="M14 5H18.8C18.9105 5 19 5.08954 19 5.2V10" stroke="#E31837" stroke-width="2" stroke-linecap="round"/>
<defs>
<clipPath id="clip0_1517_3255">
<rect width="20" height="20" fill="white"/>
</clipPath>
</defs>
</svg>
