<svg width="14" height="14" viewBox="0 0 14 14" fill="none" xmlns="http://www.w3.org/2000/svg">
<path fill-rule="evenodd" clip-rule="evenodd" d="M2.51257 1.51256C2.84076 1.18438 3.28588 1 3.75001 1H8.41669C8.5714 1 8.71978 1.06146 8.82917 1.17086L12.3292 4.67087C12.4386 4.78026 12.5 4.92864 12.5 5.08335V12.0834C12.5 12.5475 12.3157 12.9926 11.9875 13.3208C11.6593 13.649 11.2142 13.8334 10.75 13.8334H3.75001C3.28588 13.8334 2.84075 13.649 2.51257 13.3208C2.18438 12.9926 2 12.5475 2 12.0834V2.75001C2 2.28588 2.18438 1.84075 2.51257 1.51256ZM3.75001 2.16667C3.5953 2.16667 3.44692 2.22813 3.33753 2.33753C3.22813 2.44692 3.16667 2.5953 3.16667 2.75001V12.0834C3.16667 12.2381 3.22813 12.3865 3.33753 12.4959C3.44692 12.6053 3.5953 12.6667 3.75001 12.6667H10.75C10.9047 12.6667 11.0531 12.6053 11.1625 12.4959C11.2719 12.3865 11.3334 12.2381 11.3334 12.0834V5.66668H8.41669C8.09452 5.66668 7.83336 5.40552 7.83336 5.08335V2.16667H3.75001ZM9.00003 2.99163L10.5084 4.50001H9.00003V2.99163ZM4.91668 9.1667C4.91668 8.84453 5.17785 8.58336 5.50001 8.58336H9.00003C9.3222 8.58336 9.58336 8.84453 9.58336 9.1667C9.58336 9.48886 9.3222 9.75003 9.00003 9.75003H5.50001C5.17785 9.75003 4.91668 9.48886 4.91668 9.1667Z" fill="#231F20"/>
<path fill-rule="evenodd" clip-rule="evenodd" d="M4.91699 9.16634C4.91699 8.84418 5.17816 8.58301 5.50033 8.58301H9.00034C9.32251 8.58301 9.58368 8.84418 9.58368 9.16634C9.58368 9.48851 9.32251 9.74968 9.00034 9.74968H5.50033C5.17816 9.74968 4.91699 9.48851 4.91699 9.16634Z" fill="#EF4444"/>
</svg>
