<svg width="16" height="16" viewBox="0 0 16 16" fill="none" xmlns="http://www.w3.org/2000/svg">
<g clip-path="url(#clip0_3259_90)">
<path fill-rule="evenodd" clip-rule="evenodd" d="M8.00051 2.00033C4.6868 2.00033 2.00051 4.68662 2.00051 8.00033C2.00051 11.314 4.6868 14.0003 8.00051 14.0003C11.3142 14.0003 14.0005 11.314 14.0005 8.00033C14.0005 4.68662 11.3142 2.00033 8.00051 2.00033ZM0.667175 8.00033C0.667175 3.95024 3.95042 0.666992 8.00051 0.666992C12.0506 0.666992 15.3338 3.95024 15.3338 8.00033C15.3338 12.0504 12.0506 15.3337 8.00051 15.3337C3.95042 15.3337 0.667175 12.0504 0.667175 8.00033ZM4.66718 8.00033C4.66718 7.63213 4.96565 7.33366 5.33384 7.33366H10.6672C11.0354 7.33366 11.3338 7.63213 11.3338 8.00033C11.3338 8.36852 11.0354 8.66699 10.6672 8.66699H5.33384C4.96565 8.66699 4.66718 8.36852 4.66718 8.00033Z" fill="#E31837"/>
</g>
<defs>
<clipPath id="clip0_3259_90">
<rect width="16" height="16" fill="white" transform="translate(0.000488281)"/>
</clipPath>
</defs>
</svg>
