<svg width="20" height="20" viewBox="0 0 20 20" fill="none" xmlns="http://www.w3.org/2000/svg">
<path fill-rule="evenodd" clip-rule="evenodd" d="M5.83337 2.50016C5.37314 2.50016 5.00004 2.87326 5.00004 3.3335V16.6668C5.00004 17.1271 5.37314 17.5002 5.83337 17.5002H14.1667C14.6269 17.5002 15 17.1271 15 16.6668V3.3335C15 2.87326 14.6269 2.50016 14.1667 2.50016H5.83337ZM3.33337 3.3335C3.33337 1.95278 4.45266 0.833496 5.83337 0.833496H14.1667C15.5474 0.833496 16.6667 1.95278 16.6667 3.3335V16.6668C16.6667 18.0475 15.5474 19.1668 14.1667 19.1668H5.83337C4.45266 19.1668 3.33337 18.0475 3.33337 16.6668V3.3335Z" fill="#231F20"/>
<path d="M9.16663 2.5H10.8333" stroke="#231F20" stroke-width="2" stroke-linecap="round" stroke-linejoin="round"/>
<path d="M7.5 15H12.5" stroke="#EF4444" stroke-width="2" stroke-linecap="round" stroke-linejoin="round"/>
</svg>
