<svg width="40" height="40" viewBox="0 0 40 40" fill="none" xmlns="http://www.w3.org/2000/svg">
<circle opacity="0.5" cx="20" cy="20" r="20" fill="#F3F4F6"/>
<path d="M29.7231 31.2694H18.9539C18.9073 31.2576 18.8613 31.2442 18.8142 31.2346C18.1877 31.1028 17.5606 30.9755 16.9358 30.8375C16.7899 30.8056 16.6514 30.7377 16.5028 30.6833C16.3384 31.0041 16.0647 31.1595 15.7568 31.2694H9.61493C9.1679 31.1494 8.8852 30.856 8.73152 30.4281C8.73152 30.2738 8.73152 30.1196 8.73152 29.9653C8.87735 29.7264 9.02375 29.488 9.18304 29.2272C9.16004 29.1016 9.10115 28.9249 9.10171 28.7487C9.10227 28.5726 9.16285 28.3971 9.19987 28.2075C8.95644 28.0527 8.82967 27.7991 8.73152 27.526C8.73152 27.3858 8.73152 27.2455 8.73152 27.1053C8.80724 26.9589 8.88633 26.8142 8.95588 26.6656C8.97214 26.6308 8.96934 26.5747 8.95307 26.5388C8.88408 26.3891 8.80612 26.2432 8.73152 26.0963C8.73152 25.956 8.73152 25.8158 8.73152 25.6756C8.80612 25.5281 8.88408 25.3822 8.95307 25.2325C8.9699 25.196 8.97383 25.1399 8.957 25.1052C8.88689 24.9565 8.80724 24.8124 8.73096 24.6665C8.73096 24.5263 8.73096 24.3861 8.73096 24.2459C9.02823 23.538 9.28625 23.3703 10.0771 23.3703C10.799 23.3703 11.5203 23.3624 12.2416 23.3753C12.4385 23.3787 12.5125 23.3226 12.5641 23.1297C13.014 21.4604 13.8407 19.9999 15.0444 18.7592C15.4129 18.3794 15.819 18.0356 16.2145 17.6688C16.2049 17.6553 16.1898 17.6334 16.1729 17.6121C15.7478 17.0636 15.8448 16.3916 16.4192 16.008C16.5431 15.9249 16.5168 15.8498 16.487 15.7455C16.1948 14.7162 15.8998 13.6875 15.6165 12.6555C15.3894 11.8287 15.8555 11.0255 16.6744 10.8522C16.924 10.7995 17.1899 10.8163 17.4484 10.8157C17.5724 10.8157 17.6447 10.7742 17.7255 10.6772C17.8899 10.4798 18.0559 10.2616 18.2696 10.1331C18.5584 9.95756 18.8922 9.86052 19.2063 9.73096C19.4026 9.73096 19.5989 9.73096 19.7952 9.73096C19.8137 9.74049 19.8317 9.75508 19.8513 9.75844C20.4705 9.86782 20.9501 10.1881 21.3091 10.703C21.3506 10.7619 21.4544 10.7995 21.5329 10.8062C21.7976 10.8286 22.0713 10.7961 22.3277 10.8505C23.1696 11.0294 23.6138 11.8388 23.3693 12.7166C23.0877 13.7279 22.8005 14.7375 22.5111 15.746C22.4757 15.8683 22.4786 15.9384 22.6025 16.0181C22.9323 16.2306 23.1202 16.5487 23.0742 16.9413C23.0439 17.2004 22.9217 17.4483 22.8409 17.7013C22.791 17.7204 22.8179 17.731 22.8398 17.7484C24.6599 19.1647 25.8697 20.9865 26.462 23.2155C26.4979 23.3512 26.5641 23.3703 26.6825 23.3697C27.5659 23.3664 28.4493 23.381 29.3316 23.3624C29.7713 23.3535 30.0933 23.4898 30.2694 23.9071V30.722C30.1657 30.9828 29.9834 31.1651 29.7225 31.2689L29.7231 31.2694ZM16.496 27.8395C16.5566 27.8939 16.6037 27.9343 16.6491 27.9775C17.0973 28.4032 17.0979 29.11 16.6508 29.534C16.4607 29.7146 16.4949 29.8924 16.7434 29.9951C17.4535 30.289 18.1905 30.4741 18.9589 30.5245C20.9658 30.6564 22.7444 30.0994 24.2224 28.7151C25.3178 27.6892 25.923 26.4165 25.9589 24.9016C25.983 23.8953 25.7161 22.9468 25.306 22.0382C24.5892 20.4497 23.5745 19.0974 22.1106 18.1169C21.9923 18.0378 21.8285 17.9902 21.6854 17.989C20.3051 17.9795 18.9241 17.9947 17.5438 17.9756C17.1988 17.9711 16.9274 18.0681 16.6587 18.2689C15.3832 19.2213 14.4465 20.4447 13.7774 21.8761C13.5569 22.3472 13.3943 22.8459 13.1912 23.3681C13.3314 23.3681 13.4077 23.3681 13.484 23.3681C14.1565 23.3681 14.8296 23.3636 15.5021 23.3697C16.1174 23.3753 16.5572 23.7612 16.6233 24.3457C16.6581 24.6536 16.5459 24.9212 16.3597 25.1652C16.7249 25.6464 16.7187 26.1249 16.362 26.605C16.6598 26.9847 16.7142 27.3919 16.4971 27.8395H16.496ZM17.3503 11.5292C17.2577 11.5292 17.1691 11.5292 17.0805 11.5292C16.4646 11.5326 16.1589 11.9386 16.3261 12.5321C16.6183 13.5692 16.9139 14.6057 17.2028 15.6445C17.2392 15.7763 17.2841 15.8374 17.44 15.8363C18.8142 15.829 20.1884 15.8302 21.5626 15.8346C21.6955 15.8346 21.7556 15.8016 21.7937 15.6641C22.0865 14.6052 22.3922 13.5495 22.6866 12.4911C22.7192 12.3733 22.7332 12.2387 22.7124 12.1198C22.6306 11.6543 22.2138 11.4383 21.6524 11.5572C21.6524 12.1092 21.6529 12.6616 21.6524 13.2141C21.6524 13.5125 21.5166 13.6847 21.2906 13.6802C21.0662 13.6757 20.9366 13.5019 20.9361 13.2024C20.935 12.7749 20.9417 12.347 20.9327 11.9196C20.9294 11.7603 20.9103 11.5959 20.8632 11.4445C20.6556 10.7804 19.9775 10.3564 19.3117 10.4596C18.5921 10.5712 18.0817 11.1422 18.071 11.859C18.0637 12.3358 18.0744 12.8125 18.0665 13.2893C18.0615 13.5916 17.7956 13.7655 17.5499 13.6393C17.403 13.5636 17.3503 13.4362 17.3514 13.2747C17.3542 12.7015 17.3525 12.1288 17.3525 11.5298L17.3503 11.5292ZM26.6578 24.0866C26.8524 27.1154 25.4154 29.1537 22.8426 30.5464H27.7706C28.212 29.3786 28.3994 29.1913 29.5436 28.7729V25.8607C28.6411 25.6408 28.0494 25.1119 27.8116 24.2088C27.7987 24.16 27.7252 24.0939 27.6786 24.0927C27.3438 24.0826 27.0089 24.0871 26.6578 24.0871V24.0866ZM12.664 25.5241C11.7671 25.5241 10.8702 25.5241 9.97335 25.5247C9.88977 25.5247 9.80395 25.5247 9.72262 25.5432C9.54987 25.5814 9.45732 25.7031 9.45283 25.8736C9.44834 26.0536 9.54145 26.1815 9.72206 26.2253C9.79554 26.2432 9.87463 26.2438 9.95147 26.2438C11.7733 26.2449 13.5951 26.2443 15.4174 26.2443C15.4595 26.2443 15.5016 26.2455 15.5436 26.2415C15.7652 26.2219 15.9099 26.08 15.9099 25.8842C15.9099 25.6891 15.7646 25.5455 15.5442 25.527C15.4814 25.5219 15.418 25.5241 15.3552 25.5241C14.4583 25.5241 13.5614 25.5241 12.6645 25.5241H12.664ZM12.6808 30.5526C13.4307 30.5526 14.1806 30.5526 14.9306 30.5526C15.1409 30.5526 15.3512 30.5593 15.561 30.5487C15.7641 30.5386 15.9082 30.3838 15.911 30.197C15.9138 30.0024 15.7612 29.8503 15.5487 29.8369C15.5139 29.8346 15.4786 29.8358 15.4438 29.8358C13.6007 29.8358 11.7576 29.8358 9.91445 29.8358C9.86565 29.8358 9.81573 29.833 9.7675 29.8397C9.58464 29.8661 9.47415 29.9777 9.45451 30.1566C9.43488 30.3383 9.52631 30.469 9.69907 30.5274C9.76974 30.5515 9.85051 30.5515 9.92679 30.5515C10.845 30.5532 11.7632 30.5526 12.6808 30.5526ZM12.669 24.8045C13.6153 24.8045 14.5609 24.8068 15.5072 24.8034C15.7556 24.8023 15.9138 24.6531 15.9104 24.4433C15.9071 24.2414 15.754 24.1017 15.5184 24.0877C15.4763 24.0849 15.4342 24.0866 15.3922 24.0866C13.5844 24.0866 11.7761 24.0866 9.9683 24.0877C9.87799 24.0877 9.76413 24.0725 9.70299 24.1191C9.60147 24.1965 9.47527 24.3143 9.46742 24.4231C9.459 24.5319 9.56333 24.6716 9.65532 24.758C9.71309 24.8118 9.84041 24.8028 9.93633 24.8034C10.8472 24.8062 11.7581 24.8051 12.669 24.8045ZM12.6847 26.9645C11.7806 26.9645 10.877 26.9645 9.97278 26.9645C9.89594 26.9645 9.81742 26.9623 9.74226 26.9746C9.56782 27.0038 9.47022 27.1199 9.45395 27.2893C9.43769 27.4604 9.51958 27.5899 9.68336 27.6494C9.75347 27.6752 9.83424 27.6814 9.90996 27.6814C11.7598 27.683 13.6096 27.683 15.46 27.6814C15.529 27.6814 15.6014 27.6741 15.6665 27.6533C15.8342 27.5989 15.9172 27.4688 15.906 27.2999C15.8942 27.1221 15.7927 27.0004 15.6064 26.9729C15.5307 26.9617 15.4528 26.9645 15.3759 26.9645C14.479 26.9645 13.5822 26.9645 12.6853 26.9645H12.6847ZM13.0656 28.401C12.7223 28.401 12.379 28.401 12.0358 28.401C11.4193 28.401 10.8029 28.3987 10.1859 28.4032C9.95932 28.4049 9.82022 28.5423 9.81461 28.7459C9.80956 28.949 9.94586 29.0943 10.1641 29.1161C10.2056 29.1201 10.2482 29.1184 10.2903 29.1184C12.1261 29.1184 13.9613 29.1184 15.7971 29.1173C15.8796 29.1173 15.9682 29.1111 16.0434 29.0814C16.2049 29.0185 16.2806 28.8884 16.2604 28.7151C16.2403 28.5418 16.1376 28.4363 15.9649 28.4083C15.8964 28.3971 15.8252 28.4016 15.7551 28.4016C14.8582 28.4016 13.9613 28.4016 13.0645 28.4016L13.0656 28.401ZM19.4878 17.2661C20.3141 17.2661 21.1408 17.2677 21.967 17.2649C22.2419 17.2638 22.4028 17.0854 22.3613 16.8437C22.3288 16.6519 22.1779 16.5498 21.9177 16.5492C20.3068 16.5487 18.6964 16.5492 17.0855 16.5492C17.0294 16.5492 16.9722 16.5481 16.9184 16.5599C16.7176 16.6042 16.6003 16.7876 16.6402 16.9867C16.6761 17.1662 16.8157 17.2649 17.0507 17.2655C17.8629 17.2672 18.6757 17.2661 19.4878 17.2655V17.2661ZM28.5475 24.095C28.6473 24.5852 29.0904 25.021 29.5358 25.0878V24.095H28.5475ZM28.5553 30.5358H29.5369V29.548C29.0528 29.6507 28.6159 30.0949 28.5553 30.5358Z" fill="#231F20"/>
<path d="M28.1223 26.249C28.727 26.253 29.1942 26.7314 29.1863 27.3377C29.1785 27.9267 28.6972 28.4006 28.1083 28.399C27.53 28.3978 27.0364 27.902 27.0381 27.3243C27.0398 26.7247 27.5238 26.2451 28.1229 26.249H28.1223ZM28.1161 27.6793C28.3124 27.6793 28.4712 27.515 28.4684 27.3148C28.4661 27.119 28.3203 26.972 28.1246 26.9681C27.9232 26.9636 27.7594 27.119 27.756 27.317C27.7527 27.5088 27.9221 27.6793 28.1156 27.6799L28.1161 27.6793Z" fill="#231F20"/>
<path d="M16.6744 29.9604C16.4933 29.855 16.4837 29.6957 16.6537 29.5347C17.1013 29.1107 17.1007 28.4034 16.652 27.9782C16.6066 27.935 16.5595 27.8946 16.4989 27.8402C16.7159 27.3926 16.6615 26.986 16.3637 26.6057C16.721 26.1256 16.7266 25.6471 16.3615 25.1659C16.5477 24.9219 16.6599 24.6543 16.6251 24.3464C16.5595 23.7614 16.1192 23.3761 15.5038 23.3704C14.8313 23.3643 14.1583 23.3688 13.4857 23.3688C13.4095 23.3688 13.3332 23.3688 13.1929 23.3688C13.1941 23.366 13.1952 23.3632 13.1963 23.3604H12.3864C12.3477 23.371 12.3017 23.3749 12.245 23.3738C11.5237 23.3609 10.8018 23.3688 10.0805 23.3688C9.28966 23.3688 9.03165 23.5365 8.73438 24.2443V24.665C8.81066 24.8108 8.8903 24.955 8.96042 25.1036C8.97668 25.1384 8.97276 25.195 8.95649 25.2309C8.8875 25.3807 8.80954 25.5271 8.73494 25.6741V26.0947C8.80954 26.2417 8.8875 26.3875 8.95649 26.5373C8.97332 26.5732 8.97556 26.6293 8.95929 26.664C8.88974 26.8132 8.81066 26.9579 8.73494 27.1038V27.5245C8.83309 27.7976 8.95986 28.0517 9.20329 28.2059C9.16627 28.3955 9.10625 28.5711 9.10513 28.7472C9.10457 28.9233 9.1629 29.1 9.18646 29.2257C9.02716 29.4865 8.88133 29.7249 8.73494 29.9638V30.4265C8.88862 30.8545 9.17131 31.1479 9.61835 31.2679C9.61835 31.2679 15.754 31.2679 15.7602 31.2679C16.1736 31.2679 16.9476 30.4658 16.7098 30.0479C16.6924 30.0176 16.6812 29.9874 16.6744 29.9576V29.9604ZM9.70641 24.1198C9.76755 24.0733 9.88141 24.0884 9.97171 24.0884C11.7795 24.0867 13.5878 24.0873 15.3956 24.0873C15.4377 24.0873 15.4797 24.0856 15.5218 24.0884C15.7574 24.1024 15.9105 24.2421 15.9139 24.444C15.9172 24.6538 15.7591 24.8035 15.5106 24.8041C14.5643 24.8075 13.6187 24.8052 12.6724 24.8052C11.7615 24.8052 10.8506 24.8069 9.93974 24.8041C9.84383 24.8041 9.71651 24.8125 9.65873 24.7587C9.56675 24.6729 9.46242 24.5326 9.47083 24.4238C9.47925 24.315 9.60489 24.1972 9.70641 24.1198ZM9.72604 25.5445C9.80681 25.5265 9.89263 25.526 9.97676 25.526C10.8736 25.5249 11.7705 25.5254 12.6674 25.5254C13.5643 25.5254 14.4611 25.5254 15.358 25.5254C15.4208 25.5254 15.4842 25.5232 15.547 25.5282C15.768 25.5467 15.9133 25.6903 15.9127 25.8855C15.9127 26.0818 15.768 26.2232 15.5465 26.2428C15.505 26.2467 15.4623 26.2456 15.4203 26.2456C13.5985 26.2456 11.7767 26.2456 9.95433 26.245C9.87748 26.245 9.7984 26.2439 9.72492 26.2265C9.54431 26.1828 9.4512 26.0549 9.45569 25.8749C9.46018 25.7043 9.55272 25.5826 9.72548 25.5445H9.72604ZM9.45737 27.2906C9.47364 27.1217 9.57123 27.0056 9.74567 26.9759C9.82083 26.963 9.89936 26.9658 9.9762 26.9658C10.8804 26.9652 11.784 26.9658 12.6881 26.9658C13.585 26.9658 14.4819 26.9658 15.3788 26.9658C15.4556 26.9658 15.5336 26.9636 15.6093 26.9742C15.7955 27.0011 15.897 27.1234 15.9088 27.3012C15.92 27.47 15.837 27.6002 15.6693 27.6546C15.6042 27.6759 15.5319 27.6826 15.4629 27.6826C13.6131 27.6843 11.7632 27.6843 9.91282 27.6826C9.8371 27.6826 9.75633 27.6765 9.68622 27.6507C9.52244 27.5912 9.44054 27.4616 9.45681 27.2906H9.45737ZM15.5639 30.5499C15.3541 30.5606 15.1438 30.5539 14.9334 30.5539C14.1835 30.5539 13.4336 30.5539 12.6837 30.5539C11.7655 30.5539 10.8473 30.5539 9.92965 30.5527C9.85337 30.5527 9.7726 30.5527 9.70192 30.5286C9.52917 30.4703 9.43774 30.3396 9.45737 30.1579C9.477 29.9789 9.58694 29.8679 9.77035 29.841C9.81859 29.8342 9.86851 29.837 9.91731 29.837C11.7604 29.837 13.6035 29.837 15.4466 29.837C15.4814 29.837 15.5167 29.8359 15.5515 29.8382C15.7641 29.8516 15.9167 30.0036 15.9139 30.1983C15.9111 30.385 15.7669 30.5398 15.5639 30.5499ZM16.0474 29.0826C15.9716 29.1118 15.8836 29.118 15.8011 29.1185C13.9653 29.1202 12.13 29.1202 10.2942 29.1196C10.2522 29.1196 10.2101 29.1219 10.168 29.1174C9.94984 29.0955 9.81298 28.9503 9.81859 28.7472C9.82364 28.5436 9.96274 28.4062 10.1899 28.4045C10.8063 28.4 11.4228 28.4023 12.0397 28.4023C12.383 28.4023 12.7263 28.4023 13.0696 28.4023C13.9664 28.4023 14.8633 28.4023 15.7602 28.4023C15.8303 28.4023 15.9015 28.3978 15.97 28.409C16.1421 28.437 16.2454 28.5425 16.2655 28.7158C16.2857 28.8891 16.21 29.0192 16.0485 29.0821L16.0474 29.0826Z" fill="#EF4444"/>
</svg>
