<svg width="14" height="14" viewBox="0 0 14 14" fill="none" xmlns="http://www.w3.org/2000/svg">
<path d="M3.66675 6.70833C3.66675 6.35471 3.80722 6.01557 4.05727 5.76552C4.30732 5.51548 4.64646 5.375 5.00008 5.375H11.6667C12.0204 5.375 12.3595 5.51548 12.6096 5.76552C12.8596 6.01557 13.0001 6.35471 13.0001 6.70833V10.7083C13.0001 11.062 12.8596 11.4011 12.6096 11.6511C12.3595 11.9012 12.0204 12.0417 11.6667 12.0417H5.00008C4.64646 12.0417 4.30732 11.9012 4.05727 11.6511C3.80722 11.4011 3.66675 11.062 3.66675 10.7083V6.70833Z" stroke="#231F20" stroke-width="1.2" stroke-linecap="round" stroke-linejoin="round"/>
<path d="M7 8.70833C7 9.06196 7.14048 9.40109 7.39052 9.65114C7.64057 9.90119 7.97971 10.0417 8.33333 10.0417C8.68696 10.0417 9.02609 9.90119 9.27614 9.65114C9.52619 9.40109 9.66667 9.06196 9.66667 8.70833C9.66667 8.35471 9.52619 8.01557 9.27614 7.76552C9.02609 7.51548 8.68696 7.375 8.33333 7.375C7.97971 7.375 7.64057 7.51548 7.39052 7.76552C7.14048 8.01557 7 8.35471 7 8.70833Z" stroke="#EF4444" stroke-width="1.2" stroke-linecap="round" stroke-linejoin="round"/>
<path d="M10.3333 5.37467V4.04134C10.3333 3.68772 10.1929 3.34858 9.94281 3.09853C9.69276 2.84848 9.35362 2.70801 9 2.70801H2.33333C1.97971 2.70801 1.64057 2.84848 1.39052 3.09853C1.14048 3.34858 1 3.68772 1 4.04134V8.04134C1 8.39496 1.14048 8.7341 1.39052 8.98415C1.64057 9.2342 1.97971 9.37467 2.33333 9.37467H3.66667" stroke="#231F20" stroke-width="1.2" stroke-linecap="round" stroke-linejoin="round"/>
</svg>
