<svg width="25" height="25" viewBox="0 0 25 25" fill="none" xmlns="http://www.w3.org/2000/svg">
<circle cx="12.5" cy="12.5" r="12.5" fill="#F3F4F6"/>
<g clip-path="url(#clip0_1072_31546)">
<path d="M10.6747 10.0218H14.5921M11.3276 10.0218C11.5848 10.0218 11.8395 10.0725 12.0772 10.1709C12.3148 10.2693 12.5307 10.4136 12.7126 10.5955C12.8945 10.7774 13.0388 10.9933 13.1372 11.2309C13.2356 11.4686 13.2863 11.7233 13.2863 11.9805C13.2863 12.2377 13.2356 12.4924 13.1372 12.7301C13.0388 12.9677 12.8945 13.1836 12.7126 13.3655C12.5307 13.5474 12.3148 13.6917 12.0772 13.7901C11.8395 13.8885 11.5848 13.9392 11.3276 13.9392H10.6747L12.6334 15.8979M10.6747 11.9805H14.5921M18.5095 12.6334C18.5095 13.405 18.3575 14.1691 18.0622 14.8821C17.7669 15.595 17.334 16.2428 16.7884 16.7884C16.2428 17.334 15.595 17.7669 14.8821 18.0622C14.1691 18.3575 13.405 18.5095 12.6334 18.5095C11.8617 18.5095 11.0976 18.3575 10.3847 18.0622C9.6718 17.7669 9.02403 17.334 8.47838 16.7884C7.93274 16.2428 7.49991 15.595 7.20461 14.8821C6.90931 14.1691 6.75732 13.405 6.75732 12.6334C6.75732 11.075 7.37641 9.58036 8.47838 8.47838C9.58036 7.37641 11.075 6.75732 12.6334 6.75732C14.1918 6.75732 15.6864 7.37641 16.7884 8.47838C17.8904 9.58036 18.5095 11.075 18.5095 12.6334Z" stroke="#231F20" stroke-width="1.5" stroke-linecap="round" stroke-linejoin="round"/>
<mask id="mask0_1072_31546" style="mask-type:alpha" maskUnits="userSpaceOnUse" x="6" y="6" width="14" height="14">
<path d="M10.6747 10.0218H14.5921M11.3276 10.0218C11.5848 10.0218 11.8395 10.0725 12.0772 10.1709C12.3148 10.2693 12.5307 10.4136 12.7126 10.5955C12.8945 10.7774 13.0388 10.9933 13.1372 11.2309C13.2356 11.4686 13.2863 11.7233 13.2863 11.9805C13.2863 12.2377 13.2356 12.4924 13.1372 12.7301C13.0388 12.9677 12.8945 13.1836 12.7126 13.3655C12.5307 13.5474 12.3148 13.6917 12.0772 13.7901C11.8395 13.8885 11.5848 13.9392 11.3276 13.9392H10.6747L12.6334 15.8979M10.6747 11.9805H14.5921M18.5095 12.6334C18.5095 13.405 18.3575 14.1691 18.0622 14.8821C17.7669 15.595 17.334 16.2428 16.7884 16.7884C16.2428 17.334 15.595 17.7669 14.8821 18.0622C14.1691 18.3575 13.405 18.5095 12.6334 18.5095C11.8617 18.5095 11.0976 18.3575 10.3847 18.0622C9.6718 17.7669 9.02403 17.334 8.47838 16.7884C7.93274 16.2428 7.49991 15.595 7.20461 14.8821C6.90931 14.1691 6.75732 13.405 6.75732 12.6334C6.75732 11.075 7.37641 9.58036 8.47838 8.47838C9.58036 7.37641 11.075 6.75732 12.6334 6.75732C14.1918 6.75732 15.6864 7.37641 16.7884 8.47838C17.8904 9.58036 18.5095 11.075 18.5095 12.6334Z" stroke="#231F20" stroke-width="1.5" stroke-linecap="round" stroke-linejoin="round"/>
</mask>
<g mask="url(#mask0_1072_31546)">
<circle cx="12.4998" cy="12.5001" r="4.2735" fill="#EF4444"/>
</g>
</g>
<defs>
<clipPath id="clip0_1072_31546">
<rect width="13.8889" height="13.8889" fill="white" transform="translate(5.55566 5.55566)"/>
</clipPath>
</defs>
</svg>
