<svg width="20" height="20" viewBox="0 0 20 20" fill="none" xmlns="http://www.w3.org/2000/svg">
<path fill-rule="evenodd" clip-rule="evenodd" d="M0.916504 3.65723H16.5832V14.9168H0.916504V3.65723ZM2.4165 5.15723V13.4168H15.0832V5.15723H2.4165ZM19.0832 6.90723V17.4168H4.1665V15.9168H17.5832V6.90723H19.0832ZM7.4165 9.16675C7.4165 8.43037 8.01346 7.83342 8.74984 7.83342C9.48622 7.83342 10.0832 8.43037 10.0832 9.16675C10.0832 9.90313 9.48622 10.5001 8.74984 10.5001C8.01346 10.5001 7.4165 9.90313 7.4165 9.16675ZM8.74984 6.33342C7.18503 6.33342 5.9165 7.60195 5.9165 9.16675C5.9165 10.7316 7.18503 12.0001 8.74984 12.0001C10.3146 12.0001 11.5832 10.7316 11.5832 9.16675C11.5832 7.60195 10.3146 6.33342 8.74984 6.33342Z" fill="#221F20"/>
</svg>
