<svg width="24" height="24" viewBox="0 0 24 24" fill="none" xmlns="http://www.w3.org/2000/svg">
<circle cx="12" cy="12" r="12" fill="#F3F4F6"/>
<g clip-path="url(#clip0_1287_2380)">
<path fill-rule="evenodd" clip-rule="evenodd" d="M13.4135 18.0014C13.1802 18.2311 12.802 18.2311 12.5687 18.0014L8.22233 13.7219C7.98904 13.4922 7.98904 13.1198 8.22233 12.89C8.45561 12.6604 8.83384 12.6604 9.06712 12.89L13.4135 17.1696C13.6468 17.3993 13.6468 17.7717 13.4135 18.0014Z" fill="#231F20"/>
<path d="M10.919 7.66064C11.5222 7.67556 12.096 7.98479 12.514 8.52033C12.932 9.05588 13.16 9.77385 13.1479 10.5163C13.1357 11.2588 12.8845 11.9649 12.4494 12.4793C12.0142 12.9938 11.4309 13.2744 10.8276 13.2595" stroke="#231F20" stroke-width="1.19467"/>
<path fill-rule="evenodd" clip-rule="evenodd" d="M16.3928 7.68827C16.3928 8.01311 16.1254 8.27644 15.7955 8.27644H8.62715C8.29723 8.27644 8.02979 8.01311 8.02979 7.68827C8.02979 7.36343 8.29723 7.1001 8.62715 7.1001H15.7955C16.1254 7.1001 16.3928 7.36343 16.3928 7.68827Z" fill="#231F20"/>
<path fill-rule="evenodd" clip-rule="evenodd" d="M11.4423 13.26C11.4423 13.5692 11.1876 13.82 10.8735 13.82H8.59854C8.28442 13.82 8.02979 13.5692 8.02979 13.26C8.02979 12.9507 8.28442 12.7 8.59854 12.7H10.8735C11.1876 12.7 11.4423 12.9507 11.4423 13.26Z" fill="#231F20"/>
<path fill-rule="evenodd" clip-rule="evenodd" d="M16.3928 10.4881C16.3928 10.8129 16.1254 11.0762 15.7955 11.0762H8.62715C8.29723 11.0762 8.02979 10.8129 8.02979 10.4881C8.02979 10.1632 8.29723 9.8999 8.62715 9.8999H15.7955C16.1254 9.8999 16.3928 10.1632 16.3928 10.4881Z" fill="#231F20"/>
</g>
<defs>
<clipPath id="clip0_1287_2380">
<rect width="9.1" height="11.2" fill="white" transform="translate(7.7998 7.1001)"/>
</clipPath>
</defs>
</svg>
