<svg width="32" height="32" viewBox="0 0 32 32" fill="none" xmlns="http://www.w3.org/2000/svg">
<circle opacity="0.5" cx="16" cy="16" r="16" fill="#F3F4F6"/>
<path d="M11.9383 14.004L13.4678 12.7878H18.8053L20.1874 14.1001C21.0446 14.9142 21.6839 15.9303 22.0464 17.0555L22.2823 17.7875C22.3968 18.1427 22.4551 18.5137 22.4551 18.887C22.4551 21.2169 20.5663 23.1057 18.2363 23.1057H13.5786C11.2815 23.1057 9.41943 21.2436 9.41943 18.9466C9.41943 18.528 9.47622 18.1114 9.58824 17.7081L9.66272 17.4399C10.0396 16.0831 10.8361 14.8804 11.9383 14.004Z" stroke="#231F20" stroke-width="0.75"/>
<path d="M15.209 9.19448C15.209 9.19448 15.136 9.05407 14.9248 8.72128C14.2654 7.68227 12.6384 9.01748 13.3811 9.83704C13.7503 10.2444 14.0899 10.668 14.3101 10.9829" stroke="#231F20" stroke-width="0.75" stroke-linecap="round" stroke-linejoin="round"/>
<path d="M15.0386 8.80469C15.1418 8.60986 15.4582 8.23188 15.8984 8.27862C16.4487 8.33706 16.4333 9.0926 17.172 9.0926C17.8494 9.0926 17.7644 8.65886 18.4088 8.68878C19.0531 8.7187 19.2292 9.0926 19.0856 9.62305C18.9331 10.1868 18.4077 10.5124 18.044 10.9429" stroke="#231F20" stroke-width="0.75" stroke-linecap="round" stroke-linejoin="round"/>
<path d="M16.7418 21.0564L14.0508 18.7003V18.0654H15.5339C15.7938 18.0654 16.0053 18.0264 16.1684 17.9484C16.3315 17.8648 16.4538 17.7367 16.5354 17.5641C16.6169 17.3914 16.6577 17.1686 16.6577 16.8957C16.6577 16.6339 16.6195 16.425 16.543 16.2691C16.4717 16.1131 16.3545 16.0017 16.1914 15.9349C16.0283 15.8625 15.8117 15.8263 15.5415 15.8263H14.0508V15.208H17.9497V15.8263H16.8947C17.0017 15.8931 17.0935 15.9767 17.1699 16.0769C17.2464 16.1716 17.305 16.2913 17.3457 16.4362C17.3865 16.5754 17.4069 16.7453 17.4069 16.9458C17.4069 17.3079 17.3406 17.6198 17.2081 17.8815C17.0756 18.1433 16.8845 18.3438 16.6348 18.4831C16.3901 18.6223 16.0894 18.692 15.7327 18.692H15.0217L15.014 18.4915L17.9268 21.0564H16.7418ZM14.0508 17.2549V16.62H17.9497V17.2549H14.0508Z" fill="#EF4444"/>
<rect x="12.375" y="11.3752" width="7.25" height="1.25" rx="0.625" stroke="#231F20" stroke-width="0.75"/>
</svg>
