<svg width="20" height="20" viewBox="0 0 20 20" fill="none" xmlns="http://www.w3.org/2000/svg">
<path d="M11.4839 16.5527C11.4839 16.8537 11.4716 17.1346 11.4879 17.4138C11.4999 17.6186 11.6369 17.7673 11.7903 17.8922C12.1038 18.1482 12.4676 18.2989 12.8553 18.4067C12.9389 18.4299 13.0335 18.5153 13.0643 18.5946C13.0902 18.6615 13.0541 18.7829 13.0017 18.8401C12.9534 18.893 12.8472 18.9125 12.7663 18.9127C11.4128 18.9168 10.0594 18.9157 8.70598 18.9157C8.21118 18.9157 7.71638 18.9159 7.22157 18.9157C7.03821 18.9157 6.94274 18.8401 6.9276 18.6864C6.91305 18.538 6.99746 18.4398 7.16948 18.3968C7.55018 18.3015 7.90295 18.147 8.20943 17.898C8.42394 17.7234 8.54968 17.5096 8.53163 17.2197C8.51824 17.0039 8.52901 16.7863 8.52901 16.553H8.34477C6.41883 16.553 4.49318 16.5533 2.56724 16.5524C2.41705 16.5524 2.26628 16.5481 2.11668 16.5362C1.44404 16.4827 1.07614 16.1187 1.0156 15.4483C1.00483 15.328 1.00076 15.2066 1.00076 15.0857C0.999883 11.5411 0.99901 7.99698 1.00279 4.4529C1.00279 4.25129 1.02521 4.0462 1.0677 3.84895C1.15851 3.42424 1.43385 3.16308 1.85414 3.06693C2.03227 3.02626 2.21855 3.00447 2.40134 3.00418C5.08374 3.00011 7.76644 3.00041 10.4491 3.00011C12.8117 3.00011 15.1739 2.99953 17.5364 3.00099C17.6814 3.00099 17.8281 3.00476 17.9713 3.02597C18.6061 3.1198 18.9501 3.4957 18.9938 4.13393C18.999 4.2112 18.9999 4.28877 18.9999 4.36604C18.9999 7.95369 19.0005 11.5413 18.999 15.129C18.999 15.2737 18.992 15.4201 18.9699 15.5627C18.8791 16.1469 18.533 16.4723 17.9436 16.5321C17.8039 16.5463 17.6628 16.5516 17.5225 16.5516C15.5724 16.5527 13.6223 16.5524 11.6722 16.5524C11.6145 16.5524 11.5566 16.5527 11.4839 16.5527ZM10.0024 4.59001C7.62586 4.59001 5.24965 4.59001 2.87314 4.59001C2.78583 4.59001 2.69822 4.58943 2.61148 4.59727C2.44703 4.6118 2.38678 4.66874 2.36845 4.82996C2.35739 4.92583 2.3536 5.02286 2.3536 5.11959C2.35273 7.71897 2.35302 10.3183 2.35302 12.9174C2.35302 13.4313 2.37048 13.4493 2.88071 13.4496C7.62382 13.4525 12.3666 13.4554 17.1097 13.4583C17.5737 13.4583 17.6619 13.37 17.6616 12.9073C17.6596 10.2934 17.6572 7.67975 17.6552 5.06585C17.6549 4.62313 17.6223 4.59001 17.1747 4.59001C14.7836 4.59001 12.3934 4.59001 10.0024 4.59001Z" fill="#0094FF"/>
<path d="M14.6252 11.6813C14.5276 11.6813 14.4331 11.6471 14.3581 11.5846L12.3255 9.88991C12.2244 9.80565 12.166 9.68087 12.166 9.5493C12.166 9.30438 12.3646 9.10584 12.6095 9.10584H13.4889C13.7186 9.10584 13.9046 9.07449 14.047 9.01179C14.1894 8.94427 14.2927 8.84058 14.357 8.70071C14.4259 8.55602 14.4604 8.36793 14.4604 8.13642C14.4604 7.91939 14.4282 7.74576 14.3639 7.61554C14.2996 7.48532 14.1963 7.39127 14.0539 7.3334C13.9161 7.27552 13.73 7.24659 13.4958 7.24659H12.4807C12.3069 7.24659 12.166 7.10569 12.166 6.93189C12.166 6.75808 12.3069 6.61719 12.4807 6.61719H15.4685C15.6423 6.61719 15.7832 6.75808 15.7832 6.93189C15.7832 7.10569 15.6423 7.24659 15.4685 7.24659H14.8531C14.945 7.30928 15.0231 7.38404 15.0874 7.47085C15.1517 7.55767 15.1999 7.66136 15.232 7.78193C15.2688 7.89769 15.2872 8.03514 15.2872 8.1943C15.2872 8.51744 15.2229 8.79476 15.0942 9.02626C14.9656 9.25776 14.7842 9.43621 14.5499 9.56161C14.3203 9.68701 14.0401 9.74971 13.7094 9.74971H13.1995L13.2133 9.53267L14.8935 10.945C15.1914 11.1954 15.0144 11.6813 14.6252 11.6813ZM12.4879 8.49815C12.3102 8.49815 12.166 8.35401 12.166 8.17621C12.166 7.99841 12.3102 7.85428 12.4879 7.85428H15.4613C15.6391 7.85428 15.7832 7.99841 15.7832 8.17621C15.7832 8.35401 15.6391 8.49815 15.4613 8.49815H12.4879Z" fill="#0094FF"/>
<rect x="4.20801" y="7.34082" width="5.78756" height="0.723446" rx="0.361723" fill="#0094FF"/>
<rect x="4.20801" y="9.51123" width="5.78756" height="0.723446" rx="0.361723" fill="#0094FF"/>
</svg>
