<svg width="48" height="48" viewBox="0 0 48 48" fill="none" xmlns="http://www.w3.org/2000/svg">
<path d="M6.00193 18.8862V9.06233C6.2084 8.51715 6.54897 8.10706 7.17416 8.1032C9.0999 8.09162 11.0256 8.09451 12.9523 8.11285C13.5331 8.11864 14.003 8.4139 14.2915 8.90698C14.4507 9.17909 14.6166 9.21768 14.8954 9.19067C17.2418 8.96294 19.5197 8.45153 21.733 7.63424C22.6505 7.29556 23.5092 7.46442 24.2771 8.07328C24.4151 8.18232 24.5511 8.29618 24.6987 8.4168C25.678 7.43836 26.639 6.47634 27.6009 5.5172C28.2907 4.82921 28.9506 4.82728 29.6366 5.51334C31.8575 7.73556 34.0785 9.95778 36.2985 12.1819C37.0105 12.896 37.0057 13.5473 36.2831 14.27C34.751 15.8023 33.2198 17.3356 31.6829 18.8631C31.5932 18.9528 31.4562 18.9953 31.3404 19.0589C31.6993 19.2712 31.9579 19.3648 32.2126 19.4632C35.4611 20.7234 38.7095 21.9846 41.958 23.2467C42.7607 23.5584 42.9846 23.8893 42.9855 24.7414C42.9855 25.3435 43.0125 25.9466 42.973 26.5458C42.9547 26.8189 42.8717 27.1431 42.6971 27.3361C42.4703 27.5869 42.124 27.7307 41.8287 27.9208C41.7795 27.8648 41.7699 27.8745 41.7689 27.8851C41.7641 30.1237 41.7573 32.3623 41.7602 34.6C41.7602 34.6897 41.8268 34.8026 41.8982 34.8634C42.2368 35.151 42.3738 35.5157 42.3671 35.9499C42.3613 36.2992 42.3545 36.6485 42.3729 36.9969C42.3796 37.1127 42.4356 37.2564 42.5195 37.3307C42.8495 37.6241 42.9923 37.9821 42.9865 38.4182C42.9788 39.0686 42.9518 39.7199 42.9932 40.3674C43.0434 41.1432 42.7752 41.696 42.0458 42H20.5192C19.7966 41.7163 19.512 41.1895 19.5583 40.4175C19.5998 39.7218 19.5458 39.0203 19.5795 38.3246C19.5921 38.0631 19.6577 37.7128 19.8352 37.57C20.2163 37.2632 20.1729 36.8917 20.1719 36.5028C20.1719 36.2857 20.1237 36.0551 20.1835 35.8563C20.2809 35.534 20.4488 35.233 20.5858 34.9233C20.6572 34.7621 20.7865 34.601 20.7894 34.4379C20.8077 33.3552 20.799 32.2716 20.799 31.188C20.799 30.0813 20.799 28.9745 20.799 27.8639C20.7267 27.8388 20.6717 27.8147 20.6148 27.8002C19.9018 27.6236 19.5757 27.2193 19.568 26.4966C19.5641 26.1473 19.5506 25.797 19.5728 25.4496C19.5892 25.1852 19.4985 25.0029 19.3123 24.8186C17.8062 23.3287 16.3127 21.8263 14.8086 20.3336C14.4545 19.9814 14.2442 19.5935 14.3339 19.0763C14.3465 19.0059 14.2934 18.8939 14.2345 18.8476C14.0474 18.7029 13.8428 18.5803 13.6316 18.4395C13.2562 19.4439 12.5298 19.8318 11.5138 19.8145C10.2142 19.7913 8.91272 19.7846 7.61411 19.8183C6.85963 19.8376 6.30584 19.6022 6 18.8881L6.00193 18.8862ZM19.8873 23.5989C20.141 23.4764 20.39 23.3336 20.6543 23.2303C23.2506 22.2162 25.8507 21.2098 28.447 20.1937C28.6197 20.1261 28.7895 20.0161 28.9207 19.8859C30.3399 18.479 31.7505 17.0635 33.1629 15.6499C33.244 15.5688 33.3183 15.481 33.3925 15.399C32.339 14.2343 32.1113 12.5071 33.3713 11.053C32.5098 10.198 31.6492 9.34409 30.7799 8.48145C29.3568 9.62006 27.9009 9.63453 26.4653 8.48531C26.2 8.7468 25.9424 9.00154 25.678 9.26207C26.5444 9.99348 27.4137 10.7181 28.2714 11.4544C29.0982 12.1636 29.3356 13.2202 28.8831 14.1996C28.7972 14.3848 28.8069 14.518 28.8918 14.6946C29.2381 15.4212 29.3336 16.1825 29.1908 16.9795C28.8339 18.9731 26.8666 20.294 24.8232 19.9023C22.855 19.525 21.5207 17.5305 21.9269 15.5785C22.1237 14.6338 22.6138 13.8744 23.404 13.2684C23.3027 13.1777 23.2226 13.1063 23.1435 13.0349C22.5463 12.4994 22.3591 12.5042 21.788 13.0754C20.5192 14.3434 19.2515 15.6122 17.9838 16.8811C17.9017 16.9631 17.8275 17.0529 17.7532 17.1349C18.9331 18.6131 18.9061 20.0692 17.7811 21.477C18.5047 22.2065 19.2071 22.9148 19.8863 23.5999L19.8873 23.5989ZM41.7573 26.5718C41.7573 25.9475 41.7458 25.358 41.7631 24.7694C41.7699 24.5455 41.6782 24.4558 41.4862 24.3815C38.1808 23.1029 34.8783 21.8157 31.5691 20.5459C31.3916 20.4774 31.1426 20.4851 30.9632 20.5526C29.5237 21.094 28.0929 21.6584 26.6592 22.2152C24.8001 22.9379 22.9399 23.6597 21.0837 24.3892C20.9775 24.4307 20.8193 24.5368 20.8164 24.6169C20.7942 25.2615 20.8039 25.908 20.8039 26.5718H41.7573ZM14.5983 10.5001C14.5896 10.5348 14.5655 10.6033 14.5578 10.6728C14.3146 12.7252 14.0705 14.7785 13.8361 16.8329C13.8264 16.9197 13.8776 17.0519 13.9451 17.104C14.333 17.4012 14.7343 17.681 15.1907 18.0091C15.292 17.875 15.3605 17.7582 15.4531 17.6656C17.2968 15.8178 19.1425 13.9728 20.9891 12.1279C21.9153 11.2025 22.8685 11.1659 23.8574 12.0189C24.6042 12.6634 25.3423 13.3167 26.0958 13.9535C26.5888 14.3704 27.2458 14.3405 27.6211 13.9082C28.0128 13.4576 27.9453 12.7898 27.4484 12.3672C26.1652 11.2768 24.8753 10.1942 23.5921 9.10479C23.1281 8.7111 22.6389 8.64162 22.0504 8.82207C20.7209 9.23119 19.3875 9.64322 18.032 9.95296C16.9119 10.2087 15.7589 10.3206 14.5973 10.5001H14.5983ZM7.24362 18.563C8.8201 18.563 10.358 18.5726 11.8959 18.5553C12.221 18.5514 12.4101 18.3208 12.4506 17.9908C12.5288 17.3462 12.6069 16.7016 12.6832 16.0571C12.9128 14.1108 13.1482 12.1646 13.3682 10.2173C13.4434 9.54769 13.235 9.32865 12.5761 9.32769C10.9156 9.32479 9.25426 9.32672 7.59385 9.32769C7.48 9.32769 7.36615 9.34216 7.24459 9.35084V18.563H7.24362ZM41.738 38.3275H20.8318V40.7466H41.738V38.3275ZM33.1542 27.8417C33.1436 27.9353 33.1253 28.0163 33.1253 28.0983C33.1234 30.2395 33.1214 32.3816 33.1311 34.5228C33.1311 34.6444 33.2102 34.794 33.3009 34.8808C33.598 35.1645 33.7476 35.4974 33.7437 35.9075C33.7399 36.278 33.7437 36.6485 33.7437 37.0413H37.437C37.437 36.6514 37.437 36.2809 37.437 35.9113C37.437 35.5331 37.5421 35.1857 37.8374 34.9445C38.0168 34.7968 38.0699 34.6463 38.0689 34.4254C38.0622 32.3556 38.0651 30.2868 38.0651 28.217V27.8426H33.1562L33.1542 27.8417ZM29.4214 27.8465H24.4961C24.4961 30.1228 24.4952 32.371 24.5019 34.6193C24.5019 34.6984 24.5627 34.8007 24.6274 34.8528C24.9978 35.151 25.1233 35.5447 25.1155 36.002C25.1098 36.3455 25.1146 36.69 25.1146 37.0393H28.8184C28.8184 36.6138 28.7712 36.2105 28.8339 35.8255C28.8821 35.5234 29.0153 35.2021 29.2053 34.9647C29.3529 34.7795 29.4263 34.628 29.4253 34.3993C29.4195 32.3421 29.4214 30.2839 29.4214 28.2267V27.8465ZM24.3987 14.134C23.238 14.7177 22.7991 16.1835 23.4127 17.3713C24.0379 18.5823 25.5497 19.0532 26.7538 18.4134C27.8787 17.8161 28.3698 16.3388 27.789 15.3006C26.5502 15.6412 26.0379 15.5264 25.049 14.6878C24.83 14.5016 24.611 14.3154 24.3987 14.1349V14.134ZM30.6853 27.8426V34.5759H31.8653V27.8426H30.6853ZM40.505 34.5768V27.8533H39.3096V34.5768H40.505ZM23.2448 34.5701V27.8455H22.06V34.5701H23.2448ZM32.4876 37.048V35.8631H30.0678V37.048H32.4876ZM21.4233 37.049H23.8497V35.8689H21.4233V37.049ZM41.1148 35.8544H38.6883V37.0374H41.1148V35.8544ZM35.5054 13.2569C35.0751 12.8236 34.6574 12.4029 34.2406 11.9832C33.5556 12.6943 33.5759 13.9091 34.2946 14.464C34.7114 14.0491 35.1263 13.6341 35.5054 13.2569ZM28.5907 6.24861C28.3688 6.47827 28.1624 6.69537 27.952 6.90959C27.7456 7.11994 27.5362 7.3274 27.3288 7.53679C28.1016 8.27495 29.3491 8.2489 29.873 7.53486C29.4571 7.11801 29.0423 6.70213 28.5898 6.24861H28.5907ZM16.8955 18.0728C16.4584 18.5051 16.0349 18.9239 15.5708 19.3812C15.9239 19.7218 16.2944 20.0808 16.6658 20.4369C16.7247 20.4938 16.7913 20.544 16.854 20.5961C17.565 19.8521 17.5718 18.838 16.8955 18.0718V18.0728Z" fill="#231F20"/>
<mask id="mask0_1148_37341" style="mask-type:alpha" maskUnits="userSpaceOnUse" x="14" y="3" width="31" height="22">
<path d="M16 17L14 19.5L16 25L32 19L45 16L29 3L22.5 6.5L26 9.5L29 11.5C29.3333 11.6667 29.8 12.4 29 14C28.2 15.6 26.6667 15.6667 26 15.5L21.5 11.5L16 17Z" fill="#D9D9D9"/>
</mask>
<g mask="url(#mask0_1148_37341)">
<path d="M6.00193 18.8862V9.06233C6.2084 8.51715 6.54897 8.10706 7.17416 8.1032C9.0999 8.09162 11.0256 8.09451 12.9523 8.11285C13.5331 8.11864 14.003 8.4139 14.2915 8.90698C14.4507 9.17909 14.6166 9.21768 14.8954 9.19067C17.2418 8.96294 19.5197 8.45153 21.733 7.63424C22.6505 7.29556 23.5092 7.46442 24.2771 8.07328C24.4151 8.18232 24.5511 8.29618 24.6987 8.4168C25.678 7.43836 26.639 6.47634 27.6009 5.5172C28.2907 4.82921 28.9506 4.82728 29.6366 5.51334C31.8575 7.73556 34.0785 9.95778 36.2985 12.1819C37.0105 12.896 37.0057 13.5473 36.2831 14.27C34.751 15.8023 33.2198 17.3356 31.6829 18.8631C31.5932 18.9528 31.4562 18.9953 31.3404 19.0589C31.6993 19.2712 31.9579 19.3648 32.2126 19.4632C35.4611 20.7234 38.7095 21.9846 41.958 23.2467C42.7607 23.5584 42.9846 23.8893 42.9855 24.7414C42.9855 25.3435 43.0125 25.9466 42.973 26.5458C42.9547 26.8189 42.8717 27.1431 42.6971 27.3361C42.4703 27.5869 42.124 27.7307 41.8287 27.9208C41.7795 27.8648 41.7699 27.8745 41.7689 27.8851C41.7641 30.1237 41.7573 32.3623 41.7602 34.6C41.7602 34.6897 41.8268 34.8026 41.8982 34.8634C42.2368 35.151 42.3738 35.5157 42.3671 35.9499C42.3613 36.2992 42.3545 36.6485 42.3729 36.9969C42.3796 37.1127 42.4356 37.2564 42.5195 37.3307C42.8495 37.6241 42.9923 37.9821 42.9865 38.4182C42.9788 39.0686 42.9518 39.7199 42.9932 40.3674C43.0434 41.1432 42.7752 41.696 42.0458 42H20.5192C19.7966 41.7163 19.512 41.1895 19.5583 40.4175C19.5998 39.7218 19.5458 39.0203 19.5795 38.3246C19.5921 38.0631 19.6577 37.7128 19.8352 37.57C20.2163 37.2632 20.1729 36.8917 20.1719 36.5028C20.1719 36.2857 20.1237 36.0551 20.1835 35.8563C20.2809 35.534 20.4488 35.233 20.5858 34.9233C20.6572 34.7621 20.7865 34.601 20.7894 34.4379C20.8077 33.3552 20.799 32.2716 20.799 31.188C20.799 30.0813 20.799 28.9745 20.799 27.8639C20.7267 27.8388 20.6717 27.8147 20.6148 27.8002C19.9018 27.6236 19.5757 27.2193 19.568 26.4966C19.5641 26.1473 19.5506 25.797 19.5728 25.4496C19.5892 25.1852 19.4985 25.0029 19.3123 24.8186C17.8062 23.3287 16.3127 21.8263 14.8086 20.3336C14.4545 19.9814 14.2442 19.5935 14.3339 19.0763C14.3465 19.0059 14.2934 18.8939 14.2345 18.8476C14.0474 18.7029 13.8428 18.5803 13.6316 18.4395C13.2562 19.4439 12.5298 19.8318 11.5138 19.8145C10.2142 19.7913 8.91272 19.7846 7.61411 19.8183C6.85963 19.8376 6.30584 19.6022 6 18.8881L6.00193 18.8862ZM19.8873 23.5989C20.141 23.4764 20.39 23.3336 20.6543 23.2303C23.2506 22.2162 25.8507 21.2098 28.447 20.1937C28.6197 20.1261 28.7895 20.0161 28.9207 19.8859C30.3399 18.479 31.7505 17.0635 33.1629 15.6499C33.244 15.5688 33.3183 15.481 33.3925 15.399C32.339 14.2343 32.1113 12.5071 33.3713 11.053C32.5098 10.198 31.6492 9.34409 30.7799 8.48145C29.3568 9.62006 27.9009 9.63453 26.4653 8.48531C26.2 8.7468 25.9424 9.00154 25.678 9.26207C26.5444 9.99348 27.4137 10.7181 28.2714 11.4544C29.0982 12.1636 29.3356 13.2202 28.8831 14.1996C28.7972 14.3848 28.8069 14.518 28.8918 14.6946C29.2381 15.4212 29.3336 16.1825 29.1908 16.9795C28.8339 18.9731 26.8666 20.294 24.8232 19.9023C22.855 19.525 21.5207 17.5305 21.9269 15.5785C22.1237 14.6338 22.6138 13.8744 23.404 13.2684C23.3027 13.1777 23.2226 13.1063 23.1435 13.0349C22.5463 12.4994 22.3591 12.5042 21.788 13.0754C20.5192 14.3434 19.2515 15.6122 17.9838 16.8811C17.9017 16.9631 17.8275 17.0529 17.7532 17.1349C18.9331 18.6131 18.9061 20.0692 17.7811 21.477C18.5047 22.2065 19.2071 22.9148 19.8863 23.5999L19.8873 23.5989ZM41.7573 26.5718C41.7573 25.9475 41.7458 25.358 41.7631 24.7694C41.7699 24.5455 41.6782 24.4558 41.4862 24.3815C38.1808 23.1029 34.8783 21.8157 31.5691 20.5459C31.3916 20.4774 31.1426 20.4851 30.9632 20.5526C29.5237 21.094 28.0929 21.6584 26.6592 22.2152C24.8001 22.9379 22.9399 23.6597 21.0837 24.3892C20.9775 24.4307 20.8193 24.5368 20.8164 24.6169C20.7942 25.2615 20.8039 25.908 20.8039 26.5718H41.7573ZM14.5983 10.5001C14.5896 10.5348 14.5655 10.6033 14.5578 10.6728C14.3146 12.7252 14.0705 14.7785 13.8361 16.8329C13.8264 16.9197 13.8776 17.0519 13.9451 17.104C14.333 17.4012 14.7343 17.681 15.1907 18.0091C15.292 17.875 15.3605 17.7582 15.4531 17.6656C17.2968 15.8178 19.1425 13.9728 20.9891 12.1279C21.9153 11.2025 22.8685 11.1659 23.8574 12.0189C24.6042 12.6634 25.3423 13.3167 26.0958 13.9535C26.5888 14.3704 27.2458 14.3405 27.6211 13.9082C28.0128 13.4576 27.9453 12.7898 27.4484 12.3672C26.1652 11.2768 24.8753 10.1942 23.5921 9.10479C23.1281 8.7111 22.6389 8.64162 22.0504 8.82207C20.7209 9.23119 19.3875 9.64322 18.032 9.95296C16.9119 10.2087 15.7589 10.3206 14.5973 10.5001H14.5983ZM7.24362 18.563C8.8201 18.563 10.358 18.5726 11.8959 18.5553C12.221 18.5514 12.4101 18.3208 12.4506 17.9908C12.5288 17.3462 12.6069 16.7016 12.6832 16.0571C12.9128 14.1108 13.1482 12.1646 13.3682 10.2173C13.4434 9.54769 13.235 9.32865 12.5761 9.32769C10.9156 9.32479 9.25426 9.32672 7.59385 9.32769C7.48 9.32769 7.36615 9.34216 7.24459 9.35084V18.563H7.24362ZM41.738 38.3275H20.8318V40.7466H41.738V38.3275ZM33.1542 27.8417C33.1436 27.9353 33.1253 28.0163 33.1253 28.0983C33.1234 30.2395 33.1214 32.3816 33.1311 34.5228C33.1311 34.6444 33.2102 34.794 33.3009 34.8808C33.598 35.1645 33.7476 35.4974 33.7437 35.9075C33.7399 36.278 33.7437 36.6485 33.7437 37.0413H37.437C37.437 36.6514 37.437 36.2809 37.437 35.9113C37.437 35.5331 37.5421 35.1857 37.8374 34.9445C38.0168 34.7968 38.0699 34.6463 38.0689 34.4254C38.0622 32.3556 38.0651 30.2868 38.0651 28.217V27.8426H33.1562L33.1542 27.8417ZM29.4214 27.8465H24.4961C24.4961 30.1228 24.4952 32.371 24.5019 34.6193C24.5019 34.6984 24.5627 34.8007 24.6274 34.8528C24.9978 35.151 25.1233 35.5447 25.1155 36.002C25.1098 36.3455 25.1146 36.69 25.1146 37.0393H28.8184C28.8184 36.6138 28.7712 36.2105 28.8339 35.8255C28.8821 35.5234 29.0153 35.2021 29.2053 34.9647C29.3529 34.7795 29.4263 34.628 29.4253 34.3993C29.4195 32.3421 29.4214 30.2839 29.4214 28.2267V27.8465ZM24.3987 14.134C23.238 14.7177 22.7991 16.1835 23.4127 17.3713C24.0379 18.5823 25.5497 19.0532 26.7538 18.4134C27.8787 17.8161 28.3698 16.3388 27.789 15.3006C26.5502 15.6412 26.0379 15.5264 25.049 14.6878C24.83 14.5016 24.611 14.3154 24.3987 14.1349V14.134ZM30.6853 27.8426V34.5759H31.8653V27.8426H30.6853ZM40.505 34.5768V27.8533H39.3096V34.5768H40.505ZM23.2448 34.5701V27.8455H22.06V34.5701H23.2448ZM32.4876 37.048V35.8631H30.0678V37.048H32.4876ZM21.4233 37.049H23.8497V35.8689H21.4233V37.049ZM41.1148 35.8544H38.6883V37.0374H41.1148V35.8544ZM35.5054 13.2569C35.0751 12.8236 34.6574 12.4029 34.2406 11.9832C33.5556 12.6943 33.5759 13.9091 34.2946 14.464C34.7114 14.0491 35.1263 13.6341 35.5054 13.2569ZM28.5907 6.24861C28.3688 6.47827 28.1624 6.69537 27.952 6.90959C27.7456 7.11994 27.5362 7.3274 27.3288 7.53679C28.1016 8.27495 29.3491 8.2489 29.873 7.53486C29.4571 7.11801 29.0423 6.70213 28.5898 6.24861H28.5907ZM16.8955 18.0728C16.4584 18.5051 16.0349 18.9239 15.5708 19.3812C15.9239 19.7218 16.2944 20.0808 16.6658 20.4369C16.7247 20.4938 16.7913 20.544 16.854 20.5961C17.565 19.8521 17.5718 18.838 16.8955 18.0718V18.0728Z" fill="#EF4444"/>
</g>
<path d="M31.2991 23.5035C31.6831 23.5035 32.0671 23.4978 32.4501 23.5055C32.8553 23.5142 33.1081 23.7486 33.1139 24.1066C33.1196 24.4781 32.8592 24.729 32.4366 24.7319C31.657 24.7387 30.8775 24.7387 30.0979 24.7319C29.7043 24.728 29.4322 24.4733 29.4245 24.1288C29.4168 23.7737 29.6975 23.518 30.1114 23.5045C30.1355 23.5045 30.1596 23.5045 30.1838 23.5045C30.5552 23.5045 30.9276 23.5045 31.2991 23.5045V23.5035Z" fill="#231F20"/>
</svg>
