<svg width="20" height="20" viewBox="0 0 20 20" fill="none" xmlns="http://www.w3.org/2000/svg">
<path fill-rule="evenodd" clip-rule="evenodd" d="M7.5 3.33329C6.11929 3.33329 5 4.45258 5 5.83329C5 7.21401 6.11929 8.33329 7.5 8.33329C8.88071 8.33329 10 7.21401 10 5.83329C10 4.45258 8.88071 3.33329 7.5 3.33329ZM3.33333 5.83329C3.33333 3.53211 5.19881 1.66663 7.5 1.66663C9.80119 1.66663 11.6667 3.53211 11.6667 5.83329C11.6667 8.13448 9.80119 9.99996 7.5 9.99996C5.19881 9.99996 3.33333 8.13448 3.33333 5.83329ZM12.526 2.40159C12.6402 1.95574 13.0942 1.68684 13.54 1.801C14.4363 2.03048 15.2307 2.55173 15.798 3.28257C16.3653 4.01342 16.6732 4.91228 16.6732 5.83746C16.6732 6.76264 16.3653 7.6615 15.798 8.39235C15.2307 9.12319 14.4363 9.64444 13.54 9.87392C13.0942 9.98808 12.6402 9.71918 12.526 9.27333C12.4119 8.82747 12.6808 8.37349 13.1266 8.25934C13.6644 8.12165 14.141 7.8089 14.4814 7.37039C14.8218 6.93188 15.0065 6.39257 15.0065 5.83746C15.0065 5.28235 14.8218 4.74304 14.4814 4.30453C14.141 3.86602 13.6644 3.55327 13.1266 3.41558C12.6808 3.30143 12.4119 2.84745 12.526 2.40159ZM1.22039 12.887C2.00179 12.1056 3.0616 11.6666 4.16667 11.6666H10.8333C11.9384 11.6666 12.9982 12.1056 13.7796 12.887C14.561 13.6684 15 14.7282 15 15.8333V17.5C15 17.9602 14.6269 18.3333 14.1667 18.3333C13.7064 18.3333 13.3333 17.9602 13.3333 17.5V15.8333C13.3333 15.1703 13.0699 14.5344 12.6011 14.0655C12.1323 13.5967 11.4964 13.3333 10.8333 13.3333H4.16667C3.50363 13.3333 2.86774 13.5967 2.3989 14.0655C1.93006 14.5344 1.66667 15.1703 1.66667 15.8333V17.5C1.66667 17.9602 1.29357 18.3333 0.833333 18.3333C0.373096 18.3333 0 17.9602 0 17.5V15.8333C0 14.7282 0.438987 13.6684 1.22039 12.887ZM15.8598 12.4C15.9749 11.9543 16.4294 11.6864 16.875 11.8014C17.7689 12.0322 18.5608 12.5534 19.1264 13.283C19.692 14.0126 19.9993 14.9095 20 15.8327V17.5C20 17.9602 19.6269 18.3333 19.1667 18.3333C18.7064 18.3333 18.3333 17.9602 18.3333 17.5V15.8339C18.3329 15.28 18.1486 14.7419 17.8092 14.3041C17.4698 13.8663 16.9947 13.5536 16.4583 13.4152C16.0127 13.3001 15.7447 12.8456 15.8598 12.4Z" fill="#231F20"/>
<g clip-path="url(#clip0_2683_5873)">
<path fill-rule="evenodd" clip-rule="evenodd" d="M12.5262 2.40149C12.6404 1.95564 13.0944 1.68674 13.5402 1.8009C14.4365 2.03038 15.2309 2.55163 15.7982 3.28247C16.3655 4.01332 16.6734 4.91218 16.6734 5.83736C16.6734 6.76254 16.3655 7.6614 15.7982 8.39224C15.2309 9.12309 14.4365 9.64434 13.5402 9.87382C13.0944 9.98797 12.6404 9.71908 12.5262 9.27322C12.4121 8.82737 12.681 8.37339 13.1268 8.25923C13.6646 8.12155 14.1412 7.8088 14.4816 7.37029C14.822 6.93178 15.0067 6.39246 15.0067 5.83736C15.0067 5.28225 14.822 4.74293 14.4816 4.30443C14.1412 3.86592 13.6646 3.55317 13.1268 3.41548C12.681 3.30133 12.4121 2.84735 12.5262 2.40149ZM15.86 12.3999C15.9751 11.9542 16.4296 11.6863 16.8752 11.8013C17.7691 12.0321 18.561 12.5533 19.1266 13.2829C19.6922 14.0125 19.9995 14.9094 20.0002 15.8326V17.4999C20.0002 17.9601 19.6271 18.3332 19.1669 18.3332C18.7066 18.3332 18.3335 17.9601 18.3335 17.4999V15.8338C18.3331 15.2799 18.1488 14.7418 17.8094 14.304C17.47 13.8662 16.9949 13.5535 16.4585 13.4151C16.0129 13.3 15.7449 12.8455 15.86 12.3999Z" fill="#EF4444"/>
</g>
<defs>
<clipPath id="clip0_2683_5873">
<rect width="20" height="20" fill="white"/>
</clipPath>
</defs>
</svg>
