<svg width="21" height="22" viewBox="0 0 21 22" fill="none" xmlns="http://www.w3.org/2000/svg">
<path fill-rule="evenodd" clip-rule="evenodd" d="M4.375 3.125C3.89175 3.125 3.5 3.51675 3.5 4V18C3.5 18.4832 3.89175 18.875 4.375 18.875H13.125C13.6082 18.875 14 18.4832 14 18V14.5H14.875V6.625H14V4C14 3.51675 13.6082 3.125 13.125 3.125H4.375ZM1.75 4C1.75 2.55025 2.92525 1.375 4.375 1.375H13.125C14.5747 1.375 15.75 2.55025 15.75 4V6.625H14.875V14.5H15.75V18C15.75 19.4497 14.5747 20.625 13.125 20.625H4.375C2.92525 20.625 1.75 19.4497 1.75 18V4ZM7.875 16.25C7.875 15.7668 8.26675 15.375 8.75 15.375H8.75875C9.242 15.375 9.63375 15.7668 9.63375 16.25C9.63375 16.7332 9.242 17.125 8.75875 17.125H8.75C8.26675 17.125 7.875 16.7332 7.875 16.25Z" fill="#231F20"/>
<rect x="13.125" y="6.625" width="3.5" height="7.875" fill="#F3F4F6"/>
<path fill-rule="evenodd" clip-rule="evenodd" d="M10.1091 7.97736L14 10.474L17.8909 7.97736C17.8185 7.84621 17.6697 7.75521 17.5 7.75521H10.5C10.3303 7.75521 10.1815 7.84621 10.1091 7.97736ZM17.9375 8.92651L14.2509 11.2921C14.1002 11.3887 13.8998 11.3887 13.7491 11.2921L10.0625 8.92651V12.9688C10.0625 13.1884 10.2604 13.3698 10.5 13.3698H17.5C17.7396 13.3698 17.9375 13.1884 17.9375 12.9688V8.92651ZM9.1875 8.15625C9.1875 7.49361 9.77713 6.95312 10.5 6.95312H17.5C18.2229 6.95312 18.8125 7.49361 18.8125 8.15625V12.9688C18.8125 13.6314 18.2229 14.1719 17.5 14.1719H10.5C9.77713 14.1719 9.1875 13.6314 9.1875 12.9688V8.15625Z" fill="#EF4444"/>
</svg>
