<svg width="22" height="22" viewBox="0 0 22 22" fill="none" xmlns="http://www.w3.org/2000/svg">
<path fill-rule="evenodd" clip-rule="evenodd" d="M4.875 3.125C4.39175 3.125 4 3.51675 4 4V18C4 18.4832 4.39175 18.875 4.875 18.875H13.625C14.1082 18.875 14.5 18.4832 14.5 18V14.5H15.375V6.625H14.5V4C14.5 3.51675 14.1082 3.125 13.625 3.125H4.875ZM2.25 4C2.25 2.55025 3.42525 1.375 4.875 1.375H13.625C15.0747 1.375 16.25 2.55025 16.25 4V6.625H15.375V14.5H16.25V18C16.25 19.4497 15.0747 20.625 13.625 20.625H4.875C3.42525 20.625 2.25 19.4497 2.25 18V4ZM8.375 16.25C8.375 15.7668 8.76675 15.375 9.25 15.375H9.25875C9.742 15.375 10.1337 15.7668 10.1337 16.25C10.1337 16.7332 9.742 17.125 9.25875 17.125H9.25C8.76675 17.125 8.375 16.7332 8.375 16.25Z" fill="#231F20"/>
<rect x="13.625" y="6.625" width="3.5" height="7.875" fill="#F3F4F6"/>
<g clip-path="url(#clip0_1466_16854)">
<path fill-rule="evenodd" clip-rule="evenodd" d="M10.6091 7.97736L14.5 10.474L18.3909 7.97736C18.3185 7.84621 18.1697 7.75521 18 7.75521H11C10.8303 7.75521 10.6815 7.84621 10.6091 7.97736ZM18.4375 8.92651L14.7509 11.2921C14.6002 11.3887 14.3998 11.3887 14.2491 11.2921L10.5625 8.92651V12.9688C10.5625 13.1884 10.7604 13.3698 11 13.3698H18C18.2396 13.3698 18.4375 13.1884 18.4375 12.9688V8.92651ZM9.6875 8.15625C9.6875 7.49361 10.2771 6.95312 11 6.95312H18C18.7229 6.95312 19.3125 7.49361 19.3125 8.15625V12.9688C19.3125 13.6314 18.7229 14.1719 18 14.1719H11C10.2771 14.1719 9.6875 13.6314 9.6875 12.9688V8.15625Z" fill="#231F20"/>
</g>
<defs>
<clipPath id="clip0_1466_16854">
<rect width="10.5" height="9.625" fill="white" transform="translate(9.25 5.75)"/>
</clipPath>
</defs>
</svg>
