<svg width="20" height="20" viewBox="0 0 20 20" fill="none" xmlns="http://www.w3.org/2000/svg">
<path fill-rule="evenodd" clip-rule="evenodd" d="M10.5 3.54545C9.70435 3.54545 8.94129 3.8711 8.37868 4.45076C7.81607 5.03042 7.5 5.8166 7.5 6.63636V8.95455H13.5V6.63636C13.5 5.8166 13.1839 5.03042 12.6213 4.45076C12.0587 3.8711 11.2956 3.54545 10.5 3.54545ZM15 8.95455V6.63636C15 5.40672 14.5259 4.22745 13.682 3.35796C12.8381 2.48847 11.6935 2 10.5 2C9.30653 2 8.16193 2.48847 7.31802 3.35796C6.47411 4.22745 6 5.40672 6 6.63636V8.95455H5.25C4.00736 8.95455 3 9.99243 3 11.2727V16.6818C3 17.9621 4.00736 19 5.25 19H15.75C16.9926 19 18 17.9621 18 16.6818V11.2727C18 9.99243 16.9926 8.95455 15.75 8.95455H15ZM5.25 10.5C4.83579 10.5 4.5 10.846 4.5 11.2727V16.6818C4.5 17.1086 4.83579 17.4545 5.25 17.4545H15.75C16.1642 17.4545 16.5 17.1086 16.5 16.6818V11.2727C16.5 10.846 16.1642 10.5 15.75 10.5H5.25Z" fill="#231F20"/>
<path d="M10.5 3.54545C9.70435 3.54545 8.94129 3.8711 8.37868 4.45076C7.81607 5.03042 7.5 5.8166 7.5 6.63636V8.95454H6V6.63636C6 5.40672 6.47411 4.22745 7.31802 3.35796C8.16193 2.48847 9.30653 2 10.5 2C11.6935 2 12.8381 2.48847 13.682 3.35796C14.5259 4.22745 15 5.40672 15 6.63636V8.95454H13.5V6.63636C13.5 5.8166 13.1839 5.03042 12.6213 4.45076C12.0587 3.8711 11.2956 3.54545 10.5 3.54545Z" fill="#EF4444"/>
</svg>
