<svg width="396" height="64" viewBox="0 0 396 64" fill="none" xmlns="http://www.w3.org/2000/svg">
<path d="M38.3238 84.8261C59.3886 84.8261 76.465 67.883 76.465 46.9826C76.465 26.0823 59.3886 9.13916 38.3238 9.13916C17.259 9.13916 0.182617 26.0823 0.182617 46.9826C0.182617 67.883 17.259 84.8261 38.3238 84.8261Z" fill="white"/>
<path d="M38.325 85.0081C38.3016 85.0081 38.2783 85.0039 38.2557 84.9948C38.1889 84.9675 31.4694 82.2141 24.8426 76.1822C20.9485 72.6379 17.8459 68.6704 15.62 64.3908C12.8363 59.0388 11.4253 53.1816 11.4253 46.9824C11.4253 40.7833 12.8363 34.9965 15.62 29.6536C17.8459 25.3814 20.9485 21.4115 24.8426 17.8531C31.4686 11.798 38.1881 8.99739 38.2549 8.96923C38.2991 8.95101 38.3492 8.95101 38.3943 8.96923C38.4611 8.99656 45.1806 11.731 51.8074 17.7537C55.7015 21.293 58.8041 25.2588 61.0301 29.5418C63.8137 34.8979 65.2247 40.7659 65.2247 46.9824C65.2247 53.199 63.8137 58.9899 61.0301 64.3353C58.8041 68.6092 55.7015 72.5791 51.8074 76.1325C45.1806 82.1809 38.4619 84.9675 38.3951 84.9948C38.3726 85.0039 38.3492 85.0089 38.325 85.0089V85.0081ZM38.3258 9.33608C37.5961 9.6491 31.2999 12.4456 25.0822 18.1297C19.0198 23.673 11.7927 33.178 11.7927 46.9816C11.7927 60.7853 19.0198 70.383 25.0822 75.9047C31.2991 81.5665 37.5953 84.3191 38.325 84.628C39.0539 84.3166 45.3509 81.5334 51.5678 75.8559C57.6302 70.3192 64.8574 60.8159 64.8574 46.9824C64.8574 33.149 57.6311 23.5438 51.5686 18.0312C45.3518 12.3785 39.0564 9.64248 38.3267 9.33691L38.3258 9.33608Z" fill="#FCE3E7"/>
<path d="M38.0829 85.0082C38.0211 85.0082 37.9627 84.9768 37.9284 84.9254C37.9001 84.8832 35.1072 80.5961 32.352 73.8098C29.8096 67.5469 26.7788 57.8075 26.7788 46.9818C26.7788 36.156 29.8096 26.4175 32.352 20.1537C35.1064 13.3674 37.9001 9.08032 37.9284 9.03808C37.9961 8.93457 38.1689 8.93457 38.2365 9.03808C38.2649 9.08032 41.0578 13.3674 43.813 20.1537C46.3554 26.4166 49.3862 36.156 49.3862 46.9818C49.3862 57.8075 46.3554 67.546 43.813 73.8098C41.0586 80.5961 38.2649 84.8832 38.2365 84.9254C38.2023 84.9768 38.1447 85.0082 38.0821 85.0082H38.0829ZM38.0829 9.48029C37.4617 10.474 35.0621 14.453 32.6901 20.2995C30.1611 26.5309 27.147 36.2189 27.147 46.9826C27.147 66.2484 36.7428 82.3326 38.0829 84.484C38.7049 83.4903 41.1037 79.5105 43.4757 73.6657C46.0047 67.4342 49.0188 57.7463 49.0188 46.9826C49.0188 36.2189 46.0047 26.5309 43.4757 20.2995C41.1037 14.4539 38.7041 10.474 38.0829 9.48029Z" fill="#FCE3E7"/>
<path d="M76.4537 47.1266H0.190521C0.0886599 47.1266 0.00683594 47.0446 0.00683594 46.9444C0.00683594 46.8442 0.0886599 46.7622 0.190521 46.7622H76.4537C76.5555 46.7622 76.6374 46.8442 76.6374 46.9444C76.6374 47.0446 76.5555 47.1266 76.4537 47.1266Z" fill="#FCE3E7"/>
<path d="M71.0578 27.7667H5.58603C5.48417 27.7667 5.40234 27.6847 5.40234 27.5845C5.40234 27.4843 5.48417 27.4023 5.58603 27.4023H71.0578C71.1596 27.4023 71.2414 27.4843 71.2414 27.5845C71.2414 27.6847 71.1596 27.7667 71.0578 27.7667Z" fill="#FCE3E7"/>
<path d="M38.3249 85.008C17.192 85.008 0 67.9499 0 46.9815C0 26.0132 17.1928 8.95508 38.3249 8.95508C59.4569 8.95508 76.6497 26.0132 76.6497 46.9815C76.6497 67.9499 59.4569 85.008 38.3249 85.008ZM38.3249 9.32027C17.3949 9.32027 0.367365 26.2152 0.367365 46.9815C0.367365 67.7479 17.3949 84.6428 38.3249 84.6428C59.2548 84.6428 76.2824 67.7479 76.2824 46.9815C76.2824 26.2152 59.2548 9.32027 38.3249 9.32027Z" fill="#231F20"/>
<path d="M18.618 17.2092C18.6186 18.2628 18.1339 19.6683 17.3744 21.2101C16.6193 22.7431 15.6098 24.3775 14.5965 25.8784C13.5838 27.3783 12.5705 28.7402 11.8102 29.7272C11.4301 30.2207 11.1135 30.6202 10.892 30.8961C10.8336 30.9688 10.7819 31.033 10.7373 31.088C10.6927 31.033 10.6409 30.9689 10.5825 30.8963C10.3607 30.6205 10.0437 30.2214 9.66314 29.7283C8.90187 28.742 7.8873 27.3813 6.87314 25.8823C5.85837 24.3825 4.84725 22.7491 4.0906 21.2169C3.32956 19.6758 2.84337 18.2708 2.84277 17.2172C2.84035 12.8978 6.36853 9.39157 10.7268 9.38916C15.0849 9.38675 18.6156 12.8905 18.618 17.2092Z" fill="white" stroke="black" stroke-width="0.5"/>
<path d="M14.5516 17.4585C14.5612 19.5481 12.8611 21.2531 10.7504 21.2626C8.63958 21.2721 6.92402 19.5825 6.91446 17.4929C6.9049 15.4032 8.60492 13.6982 10.7157 13.6887C12.8265 13.6792 14.542 15.3688 14.5516 17.4585Z" fill="white" stroke="black" stroke-width="0.5"/>
<path d="M40.7627 60.0394H40.7602C40.1457 60.0303 39.5245 60.0022 38.9133 59.9549C38.8123 59.9475 38.7363 59.8597 38.7438 59.7595C38.7513 59.6593 38.8365 59.584 38.9417 59.5914C39.5454 59.6378 40.159 59.6651 40.766 59.6742C40.8679 59.6759 40.948 59.7587 40.9472 59.8597C40.9455 59.9591 40.8637 60.0394 40.7635 60.0394H40.7627ZM42.6004 60.0113C42.5027 60.0113 42.4217 59.9351 42.4167 59.8374C42.4117 59.7363 42.4901 59.651 42.592 59.6469C43.1982 59.6187 43.8102 59.5724 44.4122 59.5069C44.514 59.4962 44.6042 59.5682 44.615 59.6684C44.6259 59.7686 44.5533 59.8589 44.4522 59.8697C43.8427 59.9351 43.2232 59.9831 42.6095 60.0113C42.607 60.0113 42.6037 60.0113 42.6012 60.0113H42.6004ZM37.1007 59.7595C37.0923 59.7595 37.084 59.7595 37.0748 59.7579C36.4661 59.6734 35.8533 59.5691 35.2522 59.4473C35.1528 59.4274 35.0885 59.3306 35.1085 59.232C35.1286 59.1335 35.2271 59.0697 35.3256 59.0896C35.9193 59.2097 36.5246 59.3132 37.1249 59.396C37.2251 59.4101 37.2952 59.502 37.2819 59.6022C37.2693 59.6933 37.19 59.7595 37.0999 59.7595H37.1007ZM46.2515 59.6171C46.1638 59.6171 46.0862 59.5541 46.0703 59.4655C46.0528 59.3662 46.1204 59.2718 46.2206 59.2552C46.8167 59.1534 47.4187 59.0316 48.009 58.8925C48.1075 58.8693 48.2069 58.9298 48.2303 59.0275C48.2537 59.1252 48.1927 59.2237 48.0942 59.2469C47.4964 59.3877 46.8869 59.5111 46.2832 59.6146C46.2724 59.6163 46.2624 59.6171 46.2515 59.6171ZM33.4988 59.0291C33.483 59.0291 33.4671 59.0275 33.4504 59.0225C32.8584 58.8635 32.2623 58.6838 31.6787 58.4884C31.5826 58.4561 31.5309 58.3526 31.5634 58.2573C31.596 58.1621 31.7004 58.1108 31.7964 58.1431C32.3725 58.336 32.9611 58.5132 33.5456 58.6706C33.6433 58.6971 33.7017 58.7973 33.675 58.8941C33.6524 58.9753 33.579 59.0291 33.498 59.0291H33.4988ZM49.825 58.7757C49.7465 58.7757 49.673 58.7252 49.6488 58.6465C49.6196 58.5505 49.6739 58.4486 49.7716 58.4188C50.3518 58.2441 50.9338 58.0487 51.5015 57.8383C51.5967 57.8035 51.7027 57.8507 51.7378 57.9451C51.7737 58.0396 51.7253 58.1447 51.6301 58.1795C51.0548 58.3923 50.4662 58.5902 49.8784 58.7675C49.8609 58.7724 49.8425 58.7757 49.825 58.7757ZM30.0147 57.8607C29.9913 57.8607 29.9679 57.8565 29.9454 57.8474C29.3776 57.6172 28.809 57.3663 28.2546 57.1013C28.1636 57.0574 28.1252 56.9489 28.1686 56.8578C28.2129 56.7676 28.3223 56.7295 28.4141 56.7726C28.961 57.0342 29.5229 57.2818 30.084 57.5096C30.1783 57.5477 30.2234 57.6545 30.185 57.7472C30.1558 57.8176 30.0873 57.8607 30.0147 57.8607ZM53.2666 57.5021C53.1956 57.5021 53.1288 57.4615 53.0979 57.3936C53.057 57.3017 53.0979 57.1941 53.1914 57.1527C53.745 56.9084 54.2985 56.6434 54.8371 56.366C54.9272 56.3196 55.0383 56.3544 55.085 56.4438C55.1318 56.5332 55.0967 56.6434 55.0066 56.6897C54.4614 56.9705 53.9011 57.2388 53.3409 57.4864C53.3167 57.4971 53.2916 57.5021 53.2666 57.5021ZM26.7025 56.2782C26.6724 56.2782 26.6415 56.2707 26.6132 56.255C26.0788 55.9585 25.5453 55.6414 25.0268 55.3126C24.9408 55.258 24.9166 55.1453 24.9709 55.0609C25.0251 54.9764 25.1395 54.9516 25.2247 55.0054C25.7365 55.3308 26.2642 55.6439 26.7918 55.937C26.8803 55.9859 26.9121 56.0977 26.8628 56.1854C26.8294 56.2451 26.7668 56.279 26.7025 56.279V56.2782ZM56.5261 55.8211C56.4635 55.8211 56.4026 55.7896 56.3683 55.7325C56.3157 55.6463 56.3441 55.5337 56.4318 55.4824C56.9503 55.1743 57.4679 54.8456 57.9706 54.5044C58.0549 54.4472 58.1693 54.4688 58.226 54.5516C58.2836 54.6344 58.2619 54.7478 58.1785 54.805C57.67 55.1495 57.1456 55.4824 56.6213 55.7946C56.5921 55.812 56.5595 55.8202 56.527 55.8202L56.5261 55.8211ZM23.6082 54.3131C23.5707 54.3131 23.5331 54.3015 23.5006 54.2783C23.0054 53.9206 22.5137 53.5438 22.0386 53.1562C21.9601 53.0925 21.9484 52.9774 22.0135 52.8995C22.0778 52.8217 22.1939 52.8101 22.2724 52.8747C22.7416 53.2573 23.2275 53.6299 23.7168 53.9835C23.7986 54.0431 23.817 54.1566 23.7577 54.2386C23.7218 54.2874 23.6659 54.3139 23.6091 54.3139L23.6082 54.3131ZM59.5603 53.7649C59.5052 53.7649 59.4509 53.7409 59.415 53.6945C59.3532 53.615 59.3674 53.5007 59.4475 53.4386C59.9259 53.0718 60.401 52.6842 60.8602 52.2876C60.9362 52.2213 61.0531 52.2296 61.1199 52.3049C61.1867 52.3811 61.1783 52.4962 61.1024 52.5625C60.6381 52.9641 60.1572 53.3558 59.6738 53.7268C59.6404 53.7525 59.6003 53.7649 59.5611 53.7649H59.5603ZM20.7703 52.001C20.7252 52.001 20.681 51.9853 20.6459 51.953C20.1967 51.5414 19.7517 51.11 19.3251 50.6719C19.2549 50.5991 19.2566 50.4839 19.3301 50.4144C19.4027 50.3448 19.5196 50.3465 19.5897 50.4185C20.0114 50.8516 20.4514 51.2781 20.8956 51.6847C20.9699 51.7534 20.9749 51.8685 20.9056 51.9422C20.8697 51.9812 20.8204 52.001 20.7703 52.001ZM18.2196 49.3817C18.1679 49.3817 18.1169 49.3602 18.0802 49.318C17.6803 48.8576 17.2878 48.3789 16.9146 47.897C16.8528 47.8175 16.8679 47.7024 16.948 47.6411C17.029 47.5798 17.1442 47.5947 17.206 47.675C17.5751 48.152 17.9625 48.624 18.3582 49.0795C18.4242 49.1557 18.4158 49.2708 18.339 49.337C18.304 49.3668 18.2614 49.3809 18.2188 49.3809L18.2196 49.3817ZM15.9829 46.4941C15.9244 46.4941 15.8668 46.466 15.8309 46.4147C15.4852 45.9128 15.1496 45.3944 14.8323 44.8744C14.7797 44.7883 14.8073 44.6765 14.8941 44.6243C14.9818 44.5721 15.0945 44.5994 15.1463 44.6864C15.4594 45.2006 15.7917 45.7132 16.134 46.2093C16.1916 46.2921 16.1699 46.4055 16.0856 46.4627C16.0538 46.4842 16.0179 46.4941 15.982 46.4941H15.9829ZM14.0834 43.3797C14.0174 43.3797 13.954 43.3449 13.9206 43.2828C13.6334 42.7478 13.357 42.1963 13.099 41.6439C13.0564 41.5529 13.0965 41.4444 13.1883 41.4021C13.281 41.3599 13.3904 41.3997 13.4322 41.4908C13.6876 42.0373 13.9615 42.5822 14.2454 43.1113C14.293 43.2 14.2587 43.3109 14.1694 43.3581C14.1418 43.373 14.1126 43.3797 14.0834 43.3797ZM12.5388 40.0755C12.4661 40.0755 12.3968 40.0325 12.3676 39.9604C12.1405 39.3965 11.9259 38.8176 11.7297 38.2404C11.6972 38.1452 11.7489 38.0417 11.845 38.0094C11.9418 37.9771 12.0453 38.0285 12.0779 38.1237C12.2724 38.6951 12.4845 39.2673 12.7091 39.8254C12.7467 39.919 12.7008 40.025 12.6064 40.0623C12.5839 40.0714 12.5613 40.0755 12.5388 40.0755ZM11.3632 36.6223C11.283 36.6223 11.2087 36.5693 11.1862 36.489C11.0225 35.9044 10.8714 35.3057 10.7387 34.7111C10.717 34.6125 10.7796 34.5156 10.8789 34.4933C10.9775 34.4709 11.076 34.5339 11.0985 34.6316C11.2296 35.2204 11.3791 35.8125 11.541 36.3905C11.5678 36.4874 11.511 36.5884 11.4133 36.6149C11.3966 36.6199 11.3799 36.6215 11.364 36.6215L11.3632 36.6223Z" fill="#231F20"/>
<path d="M64.4596 50.6674C64.4596 51.5564 63.7318 52.284 62.8255 52.284C61.9191 52.284 61.1914 51.5564 61.1914 50.6674C61.1914 49.7784 61.9191 49.0508 62.8255 49.0508C63.7318 49.0508 64.4596 49.7784 64.4596 50.6674Z" stroke="black"/>
<path d="M183.819 32.7708C192.003 30.8905 197.105 22.791 195.214 14.68C193.323 6.56895 185.156 1.51792 176.972 3.3982C168.787 5.27847 163.686 13.378 165.576 21.489C167.467 29.6001 175.634 34.6511 183.819 32.7708Z" fill="white"/>
<path d="M180.405 33.3885C179.89 33.3885 179.372 33.3634 178.849 33.3112C174.748 32.9022 171.053 30.9356 168.445 27.7721C165.837 24.6086 164.629 20.6281 165.042 16.5623C165.897 8.17022 173.485 2.0302 181.948 2.87332C186.049 3.28232 189.744 5.24894 192.352 8.41241C194.96 11.5759 196.168 15.5563 195.754 19.6222C194.953 27.4957 188.226 33.3885 180.405 33.3885ZM180.393 3.23911C172.797 3.23911 166.265 8.96109 165.487 16.6075C165.085 20.5548 166.258 24.4207 168.79 27.4927C171.322 30.5647 174.911 32.4751 178.894 32.872C179.4 32.9223 179.905 32.9474 180.405 32.9474C188 32.9474 194.533 27.2254 195.311 19.579C195.713 15.6317 194.54 11.7658 192.008 8.69378C189.476 5.62176 185.887 3.71142 181.904 3.31448C181.397 3.26423 180.893 3.23911 180.393 3.23911Z" fill="#231F20"/>
<path d="M183.082 29.6291C189.517 28.1542 193.532 21.7884 192.048 15.4108C190.565 9.03313 184.146 5.05866 177.711 6.53356C171.276 8.00846 167.262 14.3742 168.745 20.7519C170.228 27.1295 176.647 31.104 183.082 29.6291Z" fill="white"/>
<path d="M180.402 30.1664C179.996 30.1664 179.587 30.1463 179.176 30.1051C175.938 29.7825 173.021 28.2299 170.964 25.7327C168.906 23.2355 167.952 20.0941 168.279 16.8854C168.953 10.262 174.941 5.41534 181.621 6.0806C184.859 6.40317 187.776 7.95577 189.833 10.453C191.891 12.9502 192.845 16.0916 192.518 19.3002C191.885 25.5146 186.576 30.1654 180.404 30.1654L180.402 30.1664ZM180.393 6.46247C174.446 6.46247 169.331 10.9424 168.721 16.9297C168.406 20.0208 169.325 23.0476 171.308 25.4523C173.291 27.8581 176.1 29.3534 179.219 29.6639C179.616 29.7031 180.011 29.7232 180.401 29.7232C186.349 29.7232 191.464 25.2433 192.074 19.256C192.389 16.1649 191.47 13.1381 189.487 10.7334C187.504 8.32759 184.694 6.83227 181.576 6.52176C181.179 6.48256 180.783 6.46247 180.393 6.46247Z" fill="#231F20"/>
<path d="M177.46 13.4243H185.844" stroke="#FF1212" stroke-width="0.5" stroke-linecap="round"/>
<path d="M177.443 16.9121H185.826" stroke="#FF1212" stroke-width="0.5" stroke-linecap="round"/>
<path d="M177.305 19.9902L183.911 25.4621" stroke="#FF1212" stroke-width="0.5" stroke-linecap="round"/>
<path d="M177.968 13.4243H179.808C181.598 13.4243 183.049 14.8753 183.049 16.6653V16.6653C183.049 18.4552 181.598 19.9063 179.808 19.9063H177.46" stroke="#FF1212" stroke-width="0.5" stroke-linecap="round"/>
<path d="M343.941 107.875H390.376C393.412 107.875 395.873 105.434 395.873 102.423V9.55674C395.873 6.54585 393.412 4.10505 390.376 4.10505H343.941C340.906 4.10505 338.445 6.54585 338.445 9.55674V102.423C338.445 105.434 340.906 107.875 343.941 107.875Z" fill="white"/>
<path d="M390.377 108H343.942C340.842 108 338.319 105.498 338.319 102.423V9.55691C338.319 6.48183 340.842 3.97998 343.942 3.97998H390.377C393.477 3.97998 396 6.48183 396 9.55691V102.423C396 105.498 393.477 108 390.377 108ZM343.942 4.23045C340.981 4.23045 338.572 6.61959 338.572 9.55691V102.423C338.572 105.36 340.981 107.749 343.942 107.749H390.377C393.338 107.749 395.747 105.36 395.747 102.423V9.55691C395.747 6.62016 393.338 4.23045 390.377 4.23045H343.942Z" fill="#231F20"/>
<path d="M345.428 104.58H388.891C391.191 104.58 393.056 102.731 393.056 100.449V11.2438C393.056 8.9623 391.191 7.11277 388.891 7.11277H345.428C343.127 7.11277 341.263 8.9623 341.263 11.2438V100.449C341.263 102.731 343.127 104.58 345.428 104.58Z" fill="white"/>
<path d="M388.89 104.706H345.428C343.061 104.706 341.136 102.796 341.136 100.449V11.2441C341.136 8.89713 343.061 6.9873 345.428 6.9873H388.89C391.257 6.9873 393.182 8.89656 393.182 11.2441V100.449C393.182 102.796 391.257 104.706 388.89 104.706ZM345.428 7.23834C343.201 7.23834 341.389 9.03546 341.389 11.2441V100.449C341.389 102.657 343.201 104.455 345.428 104.455H388.89C391.117 104.455 392.929 102.657 392.929 100.449V11.2441C392.929 9.03546 391.117 7.23834 388.89 7.23834H345.428Z" fill="#231F20"/>
<path d="M372.541 10.1743H361.127C361.057 10.1743 361.001 10.1179 361.001 10.0491C361.001 9.98018 361.057 9.92383 361.127 9.92383H372.541C372.611 9.92383 372.667 9.98018 372.667 10.0491C372.667 10.1179 372.611 10.1743 372.541 10.1743Z" fill="#231F20"/>
<path d="M292.649 28.2124H364.325V71.1972H292.649V28.2124Z" fill="white"/>
<path d="M292.649 71.3099H364.325C364.388 71.3099 364.438 71.2592 364.438 71.1972V28.2124C364.438 28.1498 364.388 28.0996 364.325 28.0996H292.649C292.587 28.0996 292.536 28.1498 292.536 28.2124V71.1972C292.536 71.2597 292.587 71.3099 292.649 71.3099H292.649ZM364.212 71.0844H292.762V28.3251H364.212V71.0844Z" fill="#231F20"/>
<path d="M350.514 68.7479H359.873L358.012 30.6074H352.375L350.514 68.7479Z" fill="white"/>
<path d="M350.514 68.8611H359.872C359.903 68.8611 359.933 68.8483 359.954 68.8263C359.976 68.8037 359.986 68.774 359.985 68.7427L358.125 30.6022C358.122 30.5423 358.072 30.4951 358.012 30.4951H352.375C352.314 30.4951 352.265 30.5423 352.262 30.6022L350.401 68.7427C350.399 68.7735 350.411 68.8037 350.432 68.8263C350.454 68.8488 350.483 68.8611 350.514 68.8611ZM359.754 68.6356H350.633L352.482 30.7206H357.904L359.754 68.6356H359.754Z" fill="#231F20"/>
<path d="M328.125 13.0474L362.922 27.4271H293.328L328.125 13.0474Z" fill="white"/>
<path d="M293.328 27.54H362.923C362.977 27.54 363.023 27.5021 363.034 27.4493C363.044 27.3965 363.016 27.3437 362.966 27.3232L328.169 12.9435C328.141 12.9322 328.11 12.9322 328.082 12.9435L293.285 27.3232C293.235 27.3437 293.207 27.3965 293.217 27.4493C293.228 27.5021 293.274 27.54 293.328 27.54H293.328ZM362.354 27.3145H293.897L328.125 13.17L362.353 27.3145H362.354Z" fill="#231F20"/>
<path d="M302.498 25.7196H352.94C353.002 25.7196 353.053 25.6689 353.053 25.6069C353.053 25.5449 353.002 25.4941 352.94 25.4941H302.498C302.435 25.4941 302.385 25.5449 302.385 25.6069C302.385 25.6689 302.436 25.7196 302.498 25.7196Z" fill="#231F20"/>
<path d="M351.274 32.4017H359.11C360.018 32.4017 360.754 31.6673 360.754 30.7616C360.754 29.856 360.018 29.1216 359.11 29.1216H351.274C350.366 29.1216 349.631 29.856 349.631 30.7616C349.631 31.6673 350.367 32.4017 351.274 32.4017Z" fill="white"/>
<path d="M351.274 32.5145H359.11C360.079 32.5145 360.867 31.7283 360.867 30.7611C360.867 29.794 360.079 29.0078 359.11 29.0078H351.274C350.305 29.0078 349.517 29.794 349.517 30.7611C349.517 31.7283 350.305 32.5145 351.274 32.5145ZM359.11 29.2338C359.954 29.2338 360.641 29.9191 360.641 30.7611C360.641 31.6032 359.954 32.2884 359.11 32.2884H351.274C350.43 32.2884 349.743 31.6032 349.743 30.7611C349.743 29.9191 350.43 29.2338 351.274 29.2338H359.11Z" fill="#231F20"/>
<path d="M291.52 27.3447H365.232V29.2744H291.52V27.3447Z" fill="white"/>
<path d="M291.52 29.3871H365.232C365.295 29.3871 365.345 29.3363 365.345 29.2743V27.3447C365.345 27.2822 365.294 27.2319 365.232 27.2319H291.52C291.457 27.2319 291.407 27.2827 291.407 27.3447V29.2743C291.407 29.3368 291.458 29.3871 291.52 29.3871ZM365.119 29.1616H291.633V27.4574H365.119V29.1616Z" fill="#231F20"/>
<path d="M332.7 68.7479H342.059L340.199 30.6074H334.561L332.7 68.7479Z" fill="white"/>
<path d="M332.7 68.8611H342.058C342.089 68.8611 342.119 68.8483 342.14 68.8263C342.162 68.8037 342.172 68.774 342.171 68.7427L340.311 30.6022C340.308 30.5423 340.258 30.4951 340.198 30.4951H334.561C334.501 30.4951 334.451 30.5423 334.448 30.6022L332.587 68.7427C332.585 68.7735 332.597 68.8037 332.618 68.8263C332.64 68.8488 332.669 68.8611 332.7 68.8611H332.7ZM341.939 68.6356H332.818L334.668 30.7206H340.09L341.94 68.6356H341.939Z" fill="#231F20"/>
<path d="M333.461 32.4017H341.297C342.205 32.4017 342.94 31.6673 342.94 30.7616C342.94 29.856 342.204 29.1216 341.297 29.1216H333.461C332.553 29.1216 331.817 29.856 331.817 30.7616C331.817 31.6673 332.553 32.4017 333.461 32.4017Z" fill="white"/>
<path d="M333.461 32.5145H341.296C342.265 32.5145 343.054 31.7283 343.054 30.7611C343.054 29.794 342.266 29.0078 341.296 29.0078H333.461C332.492 29.0078 331.703 29.794 331.703 30.7611C331.703 31.7283 332.491 32.5145 333.461 32.5145ZM341.296 29.2338C342.14 29.2338 342.827 29.9191 342.827 30.7611C342.827 31.6032 342.14 32.2884 341.296 32.2884H333.461C332.617 32.2884 331.93 31.6032 331.93 30.7611C331.93 29.9191 332.617 29.2338 333.461 29.2338H341.296Z" fill="#231F20"/>
<path d="M314.886 68.7479H324.245L322.384 30.6074H316.747L314.886 68.7479Z" fill="white"/>
<path d="M314.886 68.8611H324.244C324.275 68.8611 324.304 68.8483 324.326 68.8263C324.347 68.8037 324.358 68.774 324.357 68.7427L322.496 30.6022C322.493 30.5423 322.443 30.4951 322.383 30.4951H316.746C316.686 30.4951 316.636 30.5423 316.633 30.6022L314.773 68.7427C314.771 68.7735 314.782 68.8037 314.804 68.8263C314.825 68.8488 314.855 68.8611 314.886 68.8611ZM324.125 68.6356H315.004L316.854 30.7206H322.276L324.126 68.6356H324.125Z" fill="#231F20"/>
<path d="M315.646 32.4017H323.482C324.39 32.4017 325.126 31.6673 325.126 30.7616C325.126 29.856 324.39 29.1216 323.482 29.1216H315.646C314.738 29.1216 314.003 29.856 314.003 30.7616C314.003 31.6673 314.739 32.4017 315.646 32.4017Z" fill="white"/>
<path d="M315.646 32.5145H323.482C324.451 32.5145 325.239 31.7283 325.239 30.7611C325.239 29.794 324.451 29.0078 323.482 29.0078H315.646C314.677 29.0078 313.889 29.794 313.889 30.7611C313.889 31.7283 314.677 32.5145 315.646 32.5145ZM323.482 29.2338C324.326 29.2338 325.013 29.9191 325.013 30.7611C325.013 31.6032 324.326 32.2884 323.482 32.2884H315.646C314.802 32.2884 314.115 31.6032 314.115 30.7611C314.115 29.9191 314.802 29.2338 315.646 29.2338H323.482Z" fill="#231F20"/>
<path d="M297.071 68.7479H306.43L304.569 30.6074H298.931L297.071 68.7479Z" fill="white"/>
<path d="M297.071 68.8611H306.43C306.461 68.8611 306.491 68.8483 306.512 68.8263C306.533 68.8037 306.544 68.774 306.543 68.7427L304.682 30.6022C304.679 30.5423 304.629 30.4951 304.569 30.4951H298.932C298.872 30.4951 298.822 30.5423 298.819 30.6022L296.959 68.7427C296.957 68.7735 296.968 68.8037 296.99 68.8263C297.012 68.8488 297.041 68.8611 297.072 68.8611H297.071ZM306.311 68.6356H297.19L299.04 30.7206H304.461L306.311 68.6356H306.311Z" fill="#231F20"/>
<path d="M297.833 32.4017H305.669C306.577 32.4017 307.312 31.6673 307.312 30.7616C307.312 29.856 306.576 29.1216 305.669 29.1216H297.833C296.925 29.1216 296.189 29.856 296.189 30.7616C296.189 31.6673 296.925 32.4017 297.833 32.4017Z" fill="white"/>
<path d="M297.832 32.5145H305.668C306.637 32.5145 307.425 31.7283 307.425 30.7611C307.425 29.794 306.637 29.0078 305.668 29.0078H297.832C296.863 29.0078 296.075 29.794 296.075 30.7611C296.075 31.7283 296.863 32.5145 297.832 32.5145ZM305.668 29.2338C306.512 29.2338 307.199 29.9191 307.199 30.7611C307.199 31.6032 306.512 32.2884 305.668 32.2884H297.832C296.988 32.2884 296.302 31.6032 296.302 30.7611C296.302 29.9191 296.988 29.2338 297.832 29.2338H305.668Z" fill="#231F20"/>
<path d="M77.2224 49.7588C77.1394 49.7588 77.0728 49.6932 77.0728 49.6129C77.0728 49.5326 77.1394 49.4669 77.2224 49.4669L309.738 49.4656V44.2539C309.738 44.1729 309.805 44.1079 309.888 44.1079C309.971 44.1079 310.038 44.1736 310.038 44.2539V49.6116C310.038 49.6925 309.971 49.7575 309.888 49.7575L77.2224 49.7588Z" fill="#231F20"/>
<path d="M311.795 42.1471C311.795 43.155 310.953 43.9935 309.888 43.9935C308.823 43.9935 307.982 43.155 307.982 42.1471C307.982 41.1393 308.823 40.3008 309.888 40.3008C310.953 40.3008 311.795 41.1393 311.795 42.1471Z" stroke="black"/>
<path d="M118.214 65.269C125.078 63.7059 129.368 56.9245 127.796 50.1223C126.224 43.3201 119.386 39.0729 112.522 40.6361C105.659 42.1992 101.369 48.9806 102.941 55.7828C104.512 62.585 111.351 66.8321 118.214 65.269Z" fill="white"/>
<path d="M115.375 65.8138C114.935 65.8138 114.492 65.7917 114.047 65.7465C110.6 65.3978 107.496 63.7387 105.309 61.0757C103.121 58.4127 102.111 55.0653 102.465 51.6486C103.194 44.5961 109.577 39.4439 116.694 40.1644C120.141 40.5131 123.244 42.1722 125.432 44.8353C127.619 47.4983 128.629 50.8457 128.276 54.2624C127.592 60.8727 121.94 65.8138 115.375 65.8138ZM115.366 40.5403C109.026 40.5403 103.569 45.3106 102.908 51.6938C102.567 54.9929 103.542 58.2257 105.654 60.7963C107.767 63.3679 110.763 64.9687 114.092 65.3064C120.965 66.0028 127.128 61.0284 127.832 54.2181C128.174 50.919 127.198 47.6862 125.086 45.1156C122.974 42.5441 119.978 40.9432 116.648 40.6056C116.218 40.5624 115.789 40.5403 115.366 40.5403Z" fill="#231F20"/>
<path d="M117.611 62.6293C123.007 61.3995 126.379 56.0672 125.142 50.7194C123.905 45.3715 118.529 42.0332 113.133 43.263C107.737 44.4928 104.365 49.825 105.602 55.1729C106.839 60.5207 112.216 63.8591 117.611 62.6293Z" fill="white"/>
<path d="M115.374 63.1131C115.026 63.1131 114.677 63.096 114.324 63.0598C111.601 62.7845 109.15 61.4741 107.422 59.3708C105.695 57.2675 104.896 54.6226 105.176 51.9244C105.752 46.3531 110.791 42.2842 116.415 42.854C119.139 43.1294 121.59 44.4398 123.317 46.5431C125.045 48.6463 125.843 51.2913 125.563 53.9895C125.022 59.211 120.559 63.1131 115.373 63.1131H115.374ZM115.367 43.2429C110.406 43.2429 106.136 46.9752 105.621 51.9696C105.353 54.5502 106.116 57.0796 107.769 59.0914C109.421 61.1033 111.766 62.3564 114.371 62.6197C119.75 63.1643 124.569 59.2723 125.121 53.9443C125.388 51.3636 124.625 48.8343 122.973 46.8224C121.32 44.8106 118.976 43.5575 116.371 43.2942C116.033 43.26 115.699 43.2429 115.367 43.2429Z" fill="#231F20"/>
<path d="M111.623 48.9609H118.143" stroke="#FF1212" stroke-width="0.5" stroke-linecap="round"/>
<path d="M111.623 51.7383H118.143" stroke="#FF1212" stroke-width="0.5" stroke-linecap="round"/>
<path d="M111.348 54.5166L116.937 59.1467" stroke="#FF1212" stroke-width="0.5" stroke-linecap="round"/>
<path d="M112.046 48.9609H113.502C115.036 48.9609 116.28 50.2047 116.28 51.7389V51.7389C116.28 53.2731 115.036 54.5169 113.502 54.5169H111.623" stroke="#FF1212" stroke-width="0.5" stroke-linecap="round"/>
<path d="M249.311 67.295C258.413 65.2037 264.088 56.195 261.985 47.1735C259.882 38.1521 250.798 32.5341 241.695 34.6254C232.592 36.7168 226.918 45.7254 229.021 54.7469C231.124 63.7683 240.208 69.3863 249.311 67.295Z" fill="white"/>
<path d="M245.513 67.9821C244.94 67.9821 244.364 67.9542 243.783 67.896C239.221 67.4411 235.111 65.2538 232.211 61.7352C229.31 58.2167 227.967 53.7894 228.426 49.2671C229.376 39.9331 237.817 33.1039 247.229 34.0417C251.791 34.4966 255.901 36.6839 258.801 40.2025C261.702 43.7211 263.045 48.1483 262.586 52.6706C261.694 61.4278 254.213 67.9821 245.513 67.9821ZM245.5 34.4485C237.052 34.4485 229.787 40.8128 228.921 49.3174C228.474 53.7078 229.779 58.0077 232.595 61.4245C235.411 64.8413 239.403 66.9661 243.833 67.4076C244.396 67.4635 244.957 67.4914 245.513 67.4914C253.961 67.4914 261.227 61.1272 262.092 52.6225C262.539 48.2321 261.234 43.9323 258.418 40.5155C255.602 37.0986 251.611 34.9739 247.181 34.5324C246.617 34.4765 246.056 34.4485 245.5 34.4485Z" fill="#231F20"/>
<path d="M248.491 63.8001C255.648 62.1597 260.113 55.0794 258.464 47.9859C256.814 40.8924 249.675 36.4718 242.517 38.1122C235.36 39.7527 230.895 46.833 232.544 53.9265C234.194 61.02 241.334 65.4406 248.491 63.8001Z" fill="white"/>
<path d="M245.511 64.3978C245.059 64.3978 244.603 64.3754 244.146 64.3296C240.545 63.9708 237.301 62.2439 235.012 59.4664C232.723 56.6889 231.663 53.1949 232.026 49.6261C232.776 42.2592 239.437 36.8685 246.866 37.6084C250.467 37.9672 253.711 39.6941 256 42.4716C258.289 45.2491 259.349 48.7431 258.986 52.3119C258.282 59.2239 252.377 64.3966 245.512 64.3966L245.511 64.3978ZM245.5 38.0332C238.885 38.0332 233.197 43.0159 232.518 49.6753C232.168 53.1133 233.19 56.4799 235.395 59.1546C237.601 61.8304 240.726 63.4935 244.194 63.8389C244.636 63.8825 245.076 63.9049 245.509 63.9049C252.125 63.9049 257.813 58.9221 258.492 52.2628C258.842 48.8247 257.82 45.4581 255.615 42.7835C253.409 40.1077 250.284 38.4445 246.816 38.0991C246.374 38.0555 245.934 38.0332 245.5 38.0332Z" fill="#231F20"/>
<path d="M240.971 46.3398H250.296" stroke="#FF1212" stroke-width="0.556123" stroke-linecap="round"/>
<path d="M240.952 50.2192H250.277" stroke="#FF1212" stroke-width="0.556123" stroke-linecap="round"/>
<path d="M240.799 53.6431L248.146 59.7292" stroke="#FF1212" stroke-width="0.556123" stroke-linecap="round"/>
<path d="M241.536 46.3398H243.583C245.574 46.3398 247.188 47.9537 247.188 49.9446V49.9446C247.188 51.9355 245.574 53.5494 243.583 53.5494H240.971" stroke="#FF1212" stroke-width="0.556123" stroke-linecap="round"/>
</svg>
