<svg width="12" height="12" viewBox="0 0 12 12" fill="none" xmlns="http://www.w3.org/2000/svg">
<path fill-rule="evenodd" clip-rule="evenodd" d="M8.51049 2.71359C8.37461 2.71359 8.2443 2.76757 8.14822 2.86365L2.52655 8.48532L2.28504 9.45137L3.25108 9.20985L8.87276 3.58818C8.92033 3.54061 8.95807 3.48413 8.98381 3.42197C9.00956 3.35981 9.02281 3.29319 9.02281 3.22591C9.02281 3.15863 9.00956 3.09201 8.98381 3.02986C8.95807 2.9677 8.92033 2.91122 8.87276 2.86365C8.82518 2.81607 8.76871 2.77834 8.70655 2.75259C8.64439 2.72684 8.57777 2.71359 8.51049 2.71359ZM7.50208 2.2175C7.76953 1.95005 8.13226 1.7998 8.51049 1.7998C8.69777 1.7998 8.88321 1.83669 9.05624 1.90836C9.22926 1.98003 9.38647 2.08508 9.5189 2.2175C9.65133 2.34993 9.75637 2.50714 9.82804 2.68017C9.89971 2.85319 9.9366 3.03863 9.9366 3.22591C9.9366 3.41319 9.89971 3.59864 9.82804 3.77166C9.75637 3.94469 9.65133 4.1019 9.5189 4.23432L3.80774 9.94548C3.74919 10.004 3.67582 10.0456 3.59548 10.0657L1.76791 10.5226C1.61221 10.5615 1.44751 10.5159 1.33403 10.4024C1.22054 10.2889 1.17492 10.1242 1.21385 9.96849L1.67074 8.14092C1.69082 8.06058 1.73236 7.98722 1.79092 7.92866L7.50208 2.2175ZM5.31224 10.0793C5.31224 9.82697 5.5168 9.62241 5.76913 9.62241H9.88117C10.1335 9.62241 10.3381 9.82697 10.3381 10.0793C10.3381 10.3316 10.1335 10.5362 9.88117 10.5362H5.76913C5.5168 10.5362 5.31224 10.3316 5.31224 10.0793Z" fill="#231F20"/>
<path fill-rule="evenodd" clip-rule="evenodd" d="M5.31201 10.0795C5.31201 9.82712 5.51657 9.62256 5.7689 9.62256H9.88094C10.1333 9.62256 10.3378 9.82712 10.3378 10.0795C10.3378 10.3318 10.1333 10.5363 9.88094 10.5363H5.7689C5.51657 10.5363 5.31201 10.3318 5.31201 10.0795Z" fill="#EF4444"/>
</svg>
