<svg width="24" height="24" viewBox="0 0 24 24" fill="none" xmlns="http://www.w3.org/2000/svg">
<circle cx="12" cy="12" r="12" fill="#F3F4F6"/>
<path fill-rule="evenodd" clip-rule="evenodd" d="M8.79167 7.91667C8.30842 7.91667 7.91667 8.30842 7.91667 8.79167C7.91667 9.27492 8.30842 9.66667 8.79167 9.66667C9.27492 9.66667 9.66667 9.27492 9.66667 8.79167C9.66667 8.30842 9.27492 7.91667 8.79167 7.91667ZM6.75 8.79167C6.75 7.66409 7.66409 6.75 8.79167 6.75C9.91925 6.75 10.8333 7.66409 10.8333 8.79167C10.8333 9.91925 9.91925 10.8333 8.79167 10.8333C7.66409 10.8333 6.75 9.91925 6.75 8.79167ZM15.6709 7.50419C15.8987 7.27638 16.268 7.27638 16.4958 7.50419C16.7236 7.73199 16.7236 8.10134 16.4958 8.32915L8.32915 16.4958C8.10134 16.7236 7.73199 16.7236 7.50419 16.4958C7.27638 16.268 7.27638 15.8987 7.50419 15.6709L15.6709 7.50419ZM15.2083 14.3333C14.7251 14.3333 14.3333 14.7251 14.3333 15.2083C14.3333 15.6916 14.7251 16.0833 15.2083 16.0833C15.6916 16.0833 16.0833 15.6916 16.0833 15.2083C16.0833 14.7251 15.6916 14.3333 15.2083 14.3333ZM13.1667 15.2083C13.1667 14.0808 14.0808 13.1667 15.2083 13.1667C16.3359 13.1667 17.25 14.0808 17.25 15.2083C17.25 16.3359 16.3359 17.25 15.2083 17.25C14.0808 17.25 13.1667 16.3359 13.1667 15.2083Z" fill="#231F20"/>
</svg>
