<svg width="20" height="20" viewBox="0 0 20 20" fill="none" xmlns="http://www.w3.org/2000/svg">
<g clip-path="url(#clip0_2663_77699)">
<path d="M9.65919 8.41722C9.65919 8.63055 9.62052 8.82522 9.54319 9.00122C9.46585 9.17722 9.36319 9.32922 9.23519 9.45722C9.10719 9.58255 8.95785 9.67989 8.78719 9.74922C8.61919 9.81855 8.44319 9.85322 8.25919 9.85322C8.05652 9.85322 7.86985 9.81855 7.69919 9.74922C7.53119 9.67989 7.38452 9.58255 7.25919 9.45722C7.13652 9.32922 7.04052 9.17722 6.97119 9.00122C6.90185 8.82522 6.86719 8.63055 6.86719 8.41722C6.86719 8.19589 6.90185 7.99589 6.97119 7.81722C7.04052 7.63589 7.13652 7.48122 7.25919 7.35322C7.38452 7.22522 7.53119 7.12655 7.69919 7.05722C7.86985 6.98522 8.05652 6.94922 8.25919 6.94922C8.46185 6.94922 8.64852 6.98522 8.81919 7.05722C8.99252 7.12655 9.14052 7.22522 9.26319 7.35322C9.38852 7.48122 9.48585 7.63589 9.55519 7.81722C9.62452 7.99589 9.65919 8.19589 9.65919 8.41722ZM8.70719 8.41722C8.70719 8.28122 8.69519 8.16922 8.67119 8.08122C8.64985 7.99055 8.61919 7.91855 8.57919 7.86522C8.53919 7.81189 8.49119 7.77455 8.43519 7.75322C8.38185 7.73189 8.32319 7.72122 8.25919 7.72122C8.19519 7.72122 8.13652 7.73189 8.08319 7.75322C8.02985 7.77455 7.98452 7.81189 7.94719 7.86522C7.90985 7.91855 7.88052 7.99055 7.85919 8.08122C7.83785 8.16922 7.82719 8.28122 7.82719 8.41722C7.82719 8.54522 7.83785 8.65189 7.85919 8.73722C7.88052 8.82255 7.90985 8.89055 7.94719 8.94122C7.98452 8.99189 8.02985 9.02789 8.08319 9.04922C8.13652 9.07055 8.19519 9.08122 8.25919 9.08122C8.32319 9.08122 8.38185 9.07055 8.43519 9.04922C8.49119 9.02789 8.53919 8.99189 8.57919 8.94122C8.61919 8.89055 8.64985 8.82255 8.67119 8.73722C8.69519 8.65189 8.70719 8.54522 8.70719 8.41722ZM11.4912 7.18922C11.5312 7.14389 11.5805 7.10255 11.6392 7.06522C11.6979 7.02522 11.7792 7.00522 11.8832 7.00522H12.7872L8.39519 12.6572C8.35519 12.7079 8.30452 12.7506 8.24319 12.7852C8.18452 12.8172 8.11252 12.8332 8.02719 12.8332H7.09919L11.4912 7.18922ZM13.0112 11.4652C13.0112 11.6786 12.9725 11.8746 12.8952 12.0532C12.8179 12.2292 12.7152 12.3812 12.5872 12.5092C12.4592 12.6346 12.3099 12.7319 12.1392 12.8012C11.9712 12.8706 11.7952 12.9052 11.6112 12.9052C11.4085 12.9052 11.2219 12.8706 11.0512 12.8012C10.8832 12.7319 10.7365 12.6346 10.6112 12.5092C10.4885 12.3812 10.3925 12.2292 10.3232 12.0532C10.2539 11.8746 10.2192 11.6786 10.2192 11.4652C10.2192 11.2439 10.2539 11.0439 10.3232 10.8652C10.3925 10.6839 10.4885 10.5292 10.6112 10.4012C10.7365 10.2732 10.8832 10.1746 11.0512 10.1052C11.2219 10.0332 11.4085 9.99722 11.6112 9.99722C11.8139 9.99722 12.0005 10.0332 12.1712 10.1052C12.3445 10.1746 12.4925 10.2732 12.6152 10.4012C12.7405 10.5292 12.8379 10.6839 12.9072 10.8652C12.9765 11.0439 13.0112 11.2439 13.0112 11.4652ZM12.0592 11.4652C12.0592 11.3319 12.0472 11.2212 12.0232 11.1332C12.0019 11.0426 11.9712 10.9706 11.9312 10.9172C11.8912 10.8639 11.8432 10.8266 11.7872 10.8052C11.7339 10.7839 11.6752 10.7732 11.6112 10.7732C11.5472 10.7732 11.4885 10.7839 11.4352 10.8052C11.3819 10.8266 11.3365 10.8639 11.2992 10.9172C11.2619 10.9706 11.2325 11.0426 11.2112 11.1332C11.1899 11.2212 11.1792 11.3319 11.1792 11.4652C11.1792 11.5932 11.1899 11.6999 11.2112 11.7852C11.2325 11.8706 11.2619 11.9386 11.2992 11.9892C11.3365 12.0399 11.3819 12.0759 11.4352 12.0972C11.4885 12.1186 11.5472 12.1292 11.6112 12.1292C11.6752 12.1292 11.7339 12.1186 11.7872 12.0972C11.8432 12.0759 11.8912 12.0399 11.9312 11.9892C11.9712 11.9386 12.0019 11.8706 12.0232 11.7852C12.0472 11.6999 12.0592 11.5932 12.0592 11.4652Z" fill="#EF4444"/>
<path fill-rule="evenodd" clip-rule="evenodd" d="M9.29236 1.31306C9.68288 0.922539 10.316 0.922539 10.7066 1.31306L12.5172 3.12372C12.7048 3.31126 12.9591 3.41662 13.2243 3.41662H15.5828C16.1351 3.41662 16.5828 3.86433 16.5828 4.41662V6.77508C16.5828 7.04029 16.6882 7.29465 16.8757 7.48218L18.6863 9.29284C19.0769 9.68337 19.0769 10.3165 18.6863 10.7071L16.8757 12.5177C16.6882 12.7053 16.5828 12.9596 16.5828 13.2248V15.5833C16.5828 16.1356 16.1351 16.5833 15.5828 16.5833H13.2243C12.9591 16.5833 12.7048 16.6886 12.5172 16.8762L10.7066 18.6868C10.316 19.0774 9.68288 19.0774 9.29236 18.6868L7.4817 16.8762C7.29416 16.6886 7.0398 16.5833 6.77459 16.5833H4.41613C3.86384 16.5833 3.41613 16.1356 3.41613 15.5833V13.2248C3.41613 12.9596 3.31077 12.7053 3.12324 12.5177L1.31258 10.7071C0.922051 10.3165 0.922051 9.68337 1.31257 9.29284L3.12324 7.48218C3.31077 7.29465 3.41613 7.04029 3.41613 6.77508V4.41662C3.41613 3.86433 3.86384 3.41662 4.41613 3.41662H6.77459C7.0398 3.41662 7.29416 3.31126 7.48169 3.12372L9.29236 1.31306ZM10.7066 3.43438C10.316 3.04386 9.68288 3.04386 9.29235 3.43438L8.10302 4.62372C7.91548 4.81126 7.66113 4.91662 7.39591 4.91662H5.91613C5.36384 4.91662 4.91613 5.36433 4.91613 5.91662V7.3964C4.91613 7.66161 4.81077 7.91597 4.62324 8.1035L3.4339 9.29284C3.04337 9.68337 3.04337 10.3165 3.4339 10.7071L4.62324 11.8964C4.81077 12.0839 4.91613 12.3383 4.91613 12.6035V14.0833C4.91613 14.6356 5.36384 15.0833 5.91613 15.0833H7.39591C7.66113 15.0833 7.91548 15.1886 8.10302 15.3762L9.29236 16.5655C9.68288 16.956 10.316 16.956 10.7066 16.5655L11.8959 15.3762C12.0834 15.1886 12.3378 15.0833 12.603 15.0833H14.0828C14.6351 15.0833 15.0828 14.6356 15.0828 14.0833V12.6035C15.0828 12.3383 15.1882 12.0839 15.3757 11.8964L16.565 10.7071C16.9556 10.3165 16.9556 9.68337 16.565 9.29284L15.3757 8.1035C15.1882 7.91597 15.0828 7.66161 15.0828 7.3964V5.91662C15.0828 5.36433 14.6351 4.91662 14.0828 4.91662H12.603C12.3378 4.91662 12.0834 4.81126 11.8959 4.62372L10.7066 3.43438Z" fill="#231F20"/>
</g>
<defs>
<clipPath id="clip0_2663_77699">
<rect width="20" height="20" fill="white"/>
</clipPath>
</defs>
</svg>
