<svg width="24" height="24" viewBox="0 0 24 24" fill="none" xmlns="http://www.w3.org/2000/svg">
<circle cx="12" cy="12" r="12" fill="white"/>
<path fill-rule="evenodd" clip-rule="evenodd" d="M9.08337 6.75016C8.76121 6.75016 8.50004 7.01133 8.50004 7.3335V16.6668C8.50004 16.989 8.76121 17.2502 9.08337 17.2502H14.9167C15.2389 17.2502 15.5 16.989 15.5 16.6668V7.3335C15.5 7.01133 15.2389 6.75016 14.9167 6.75016H9.08337ZM7.33337 7.3335C7.33337 6.367 8.11688 5.5835 9.08337 5.5835H14.9167C15.8832 5.5835 16.6667 6.367 16.6667 7.3335V16.6668C16.6667 17.6333 15.8832 18.4168 14.9167 18.4168H9.08337C8.11688 18.4168 7.33337 17.6333 7.33337 16.6668V7.3335Z" fill="#231F20"/>
<path d="M11.4166 6.75H12.5833" stroke="#231F20" stroke-width="2" stroke-linecap="round" stroke-linejoin="round"/>
<path d="M10.25 15.5H13.75" stroke="#EF4444" stroke-linecap="round" stroke-linejoin="round"/>
</svg>
