<svg width="14" height="14" viewBox="0 0 14 14" fill="none" xmlns="http://www.w3.org/2000/svg">
<path fill-rule="evenodd" clip-rule="evenodd" d="M4.08337 1.75016C3.76121 1.75016 3.50004 2.01133 3.50004 2.3335V11.6668C3.50004 11.989 3.76121 12.2502 4.08337 12.2502H9.91671C10.2389 12.2502 10.5 11.989 10.5 11.6668V2.3335C10.5 2.01133 10.2389 1.75016 9.91671 1.75016H4.08337ZM2.33337 2.3335C2.33337 1.367 3.11688 0.583496 4.08337 0.583496H9.91671C10.8832 0.583496 11.6667 1.367 11.6667 2.3335V11.6668C11.6667 12.6333 10.8832 13.4168 9.91671 13.4168H4.08337C3.11688 13.4168 2.33337 12.6333 2.33337 11.6668V2.3335Z" fill="#231F20"/>
<path d="M6.41663 1.75H7.58329" stroke="#231F20" stroke-width="2" stroke-linecap="round" stroke-linejoin="round"/>
<path d="M5.25 10.5H8.75" stroke="#EF4444" stroke-linecap="round" stroke-linejoin="round"/>
</svg>
