<svg width="20" height="20" viewBox="0 0 20 20" fill="none" xmlns="http://www.w3.org/2000/svg">
<path fill-rule="evenodd" clip-rule="evenodd" d="M10.0002 2.49992C5.85803 2.49992 2.50016 5.85778 2.50016 9.99992C2.50016 14.1421 5.85803 17.4999 10.0002 17.4999C14.1423 17.4999 17.5002 14.1421 17.5002 9.99992C17.5002 5.85778 14.1423 2.49992 10.0002 2.49992ZM0.833496 9.99992C0.833496 4.93731 4.93755 0.833252 10.0002 0.833252C15.0628 0.833252 19.1668 4.93731 19.1668 9.99992C19.1668 15.0625 15.0628 19.1666 10.0002 19.1666C4.93755 19.1666 0.833496 15.0625 0.833496 9.99992ZM10.0002 5.83325C10.4604 5.83325 10.8335 6.20635 10.8335 6.66658V9.16658H13.3335C13.7937 9.16658 14.1668 9.53968 14.1668 9.99992C14.1668 10.4602 13.7937 10.8333 13.3335 10.8333H10.8335V13.3333C10.8335 13.7935 10.4604 14.1666 10.0002 14.1666C9.53992 14.1666 9.16683 13.7935 9.16683 13.3333V10.8333H6.66683C6.20659 10.8333 5.8335 10.4602 5.8335 9.99992C5.8335 9.53968 6.20659 9.16658 6.66683 9.16658H9.16683V6.66658C9.16683 6.20635 9.53992 5.83325 10.0002 5.83325Z" fill="#231F20"/>
</svg>
