<svg width="20" height="20" viewBox="0 0 20 20" fill="none" xmlns="http://www.w3.org/2000/svg">
<path fill-rule="evenodd" clip-rule="evenodd" d="M2.76776 5.12829L10.2308 10.3161L17.6938 5.12829C17.555 4.85577 17.2696 4.66667 16.9441 4.66667H3.51748C3.19192 4.66667 2.90654 4.85577 2.76776 5.12829ZM17.7832 7.10055L10.712 12.016C10.4231 12.2169 10.0385 12.2169 9.74954 12.016L2.67832 7.10055V15.5C2.67832 15.9564 3.05786 16.3333 3.51748 16.3333H16.9441C17.4037 16.3333 17.7832 15.9564 17.7832 15.5V7.10055ZM1 5.5C1 4.1231 2.13095 3 3.51748 3H16.9441C18.3306 3 19.4615 4.1231 19.4615 5.5V15.5C19.4615 16.8769 18.3306 18 16.9441 18H3.51748C2.13095 18 1 16.8769 1 15.5V5.5Z" fill="#231F20"/>
<path d="M2.76766 5.12842L10.2307 10.3162L17.6937 5.12842L17.7831 7.10067L10.7119 12.0162C10.423 12.217 10.0384 12.217 9.74944 12.0162L2.67822 7.10067L2.76766 5.12842Z" fill="#EF4444"/>
</svg>
