<svg width="23" height="22" viewBox="0 0 23 22" fill="none" xmlns="http://www.w3.org/2000/svg">
<g clip-path="url(#clip0_2663_64381)">
<path d="M11.3738 20.1661C8.47539 20.1661 5.57701 20.1686 2.678 20.1648C1.19014 20.163 0.502962 19.4784 0.502338 17.9923C0.499221 13.3316 0.499221 8.67093 0.502338 4.01025C0.502962 2.5191 1.18453 1.83647 2.67426 1.83584C8.53837 1.83271 14.4019 1.83271 20.266 1.83584C21.7096 1.83647 22.4055 2.53225 22.4067 3.97267C22.4105 8.6559 22.4105 13.3391 22.4067 18.0224C22.4055 19.464 21.7083 20.1623 20.2691 20.1642C17.304 20.1686 14.3383 20.1655 11.3725 20.1655L11.3738 20.1661ZM2.39614 6.45457C2.37432 6.61677 2.34688 6.72387 2.34688 6.83096C2.34438 10.484 2.35311 14.137 2.33441 17.79C2.33191 18.3355 2.62312 18.3386 3.01223 18.338C8.63191 18.3336 14.2516 18.3274 19.8713 18.3468C20.4424 18.3487 20.5759 18.1558 20.5728 17.614C20.5516 14.1182 20.5628 10.6218 20.5603 7.12593C20.5603 6.91112 20.5335 6.69631 20.5173 6.4552H2.39614V6.45457ZM16.8962 3.60317H2.39178V4.69726H16.8962V3.60317ZM18.8037 4.65217C19.4098 4.65217 19.7808 4.66219 20.5722 4.66219V3.92758C20.5722 3.7134 20.3994 3.53992 20.1862 3.53992C19.7696 3.54055 19.1223 3.5418 18.8037 3.5418V4.65155V4.65217Z" fill="#231F20"/>
<path fill-rule="evenodd" clip-rule="evenodd" d="M9.20833 11.0002C8.9552 11.0002 8.75 10.795 8.75 10.5418C8.75 10.2887 8.9552 10.0835 9.20833 10.0835H13.7917C14.0448 10.0835 14.25 10.2887 14.25 10.5418V15.1252C14.25 15.3783 14.0448 15.5835 13.7917 15.5835C13.5385 15.5835 13.3333 15.3783 13.3333 15.1252V11.6483L9.53242 15.4493C9.35343 15.6282 9.06323 15.6282 8.88424 15.4493C8.70525 15.2703 8.70525 14.9801 8.88424 14.8011L12.6852 11.0002H9.20833Z" fill="#231F20" stroke="#EF4444" stroke-width="0.8" stroke-linecap="round" stroke-linejoin="round"/>
</g>
<defs>
<clipPath id="clip0_2663_64381">
<rect width="22" height="22" fill="white" transform="translate(0.5)"/>
</clipPath>
</defs>
</svg>
