<svg width="10" height="10" viewBox="0 0 10 10" fill="none" xmlns="http://www.w3.org/2000/svg">
<g clip-path="url(#clip0_3962_3681)">
<path fill-rule="evenodd" clip-rule="evenodd" d="M5.92389 1.79907C5.38299 1.64261 4.81126 1.62573 4.26207 1.74999C3.71288 1.87425 3.20411 2.13561 2.78325 2.50968C2.36238 2.88375 2.04314 3.35833 1.8553 3.88915C1.77853 4.10609 1.54044 4.21972 1.3235 4.14295C1.10656 4.06619 0.992935 3.82809 1.0697 3.61116C1.3045 2.94763 1.70356 2.3544 2.22964 1.88681C2.75572 1.41923 3.39168 1.09253 4.07817 0.937201C4.76466 0.781873 5.47931 0.80298 6.15544 0.99855C6.82942 1.1935 7.44322 1.55547 7.93995 2.05086L9.16667 3.20354V1.66682C9.16667 1.4367 9.35321 1.25015 9.58333 1.25015C9.81345 1.25015 10 1.4367 10 1.66682V4.16682C10 4.39694 9.81345 4.58349 9.58333 4.58349H7.08333C6.85321 4.58349 6.66667 4.39694 6.66667 4.16682C6.66667 3.9367 6.85321 3.75015 7.08333 3.75015H8.53144L7.36468 2.6538C7.3615 2.65082 7.35838 2.64779 7.3553 2.64471C6.95724 2.24645 6.46479 1.95552 5.92389 1.79907ZM0 5.83349C0 5.60337 0.186548 5.41682 0.416667 5.41682H2.91667C3.14679 5.41682 3.33333 5.60337 3.33333 5.83349C3.33333 6.06361 3.14679 6.25015 2.91667 6.25015H1.46856L2.63532 7.34651C2.6385 7.34949 2.64162 7.35252 2.6447 7.3556C3.04276 7.75385 3.53521 8.04478 4.07611 8.20124C4.61701 8.3577 5.18874 8.37458 5.73793 8.25032C6.28712 8.12606 6.79589 7.8647 7.21675 7.49063C7.63762 7.11656 7.95686 6.64198 8.1447 6.11116C8.22147 5.89422 8.45956 5.78059 8.6765 5.85736C8.89343 5.93412 9.00706 6.17222 8.9303 6.38915C8.6955 7.05268 8.29644 7.64591 7.77036 8.1135C7.24428 8.58108 6.60832 8.90778 5.92183 9.06311C5.23534 9.21843 4.52069 9.19733 3.84456 9.00176C3.17058 8.80681 2.55678 8.44483 2.06004 7.94945L0.833333 6.79676V8.33349C0.833333 8.56361 0.646785 8.75015 0.416667 8.75015C0.186548 8.75015 0 8.56361 0 8.33349V5.83349Z" fill="#BD9400"/>
</g>
<defs>
<clipPath id="clip0_3962_3681">
<rect width="10" height="10" fill="white"/>
</clipPath>
</defs>
</svg>
