<svg width="11" height="10" viewBox="0 0 11 10" fill="none" xmlns="http://www.w3.org/2000/svg">
<path fill-rule="evenodd" clip-rule="evenodd" d="M6.42389 1.79907C5.88299 1.64261 5.31126 1.62573 4.76207 1.74999C4.21288 1.87425 3.70411 2.13561 3.28325 2.50968C2.86238 2.88375 2.54314 3.35833 2.3553 3.88915C2.27853 4.10609 2.04044 4.21972 1.8235 4.14295C1.60656 4.06619 1.49293 3.82809 1.5697 3.61116C1.8045 2.94763 2.20356 2.3544 2.72964 1.88681C3.25572 1.41923 3.89168 1.09253 4.57817 0.937201C5.26466 0.781873 5.97931 0.80298 6.65544 0.99855C7.32942 1.1935 7.94322 1.55547 8.43995 2.05086L9.66667 3.20354V1.66682C9.66667 1.4367 9.85321 1.25015 10.0833 1.25015C10.3135 1.25015 10.5 1.4367 10.5 1.66682V4.16682C10.5 4.39694 10.3135 4.58349 10.0833 4.58349H7.58333C7.35321 4.58349 7.16667 4.39694 7.16667 4.16682C7.16667 3.9367 7.35321 3.75015 7.58333 3.75015H9.03144L7.86468 2.6538C7.8615 2.65082 7.85838 2.64779 7.8553 2.64471C7.45724 2.24645 6.96479 1.95552 6.42389 1.79907ZM0.5 5.83349C0.5 5.60337 0.686548 5.41682 0.916667 5.41682H3.41667C3.64679 5.41682 3.83333 5.60337 3.83333 5.83349C3.83333 6.06361 3.64679 6.25015 3.41667 6.25015H1.96856L3.13532 7.34651C3.1385 7.34949 3.14162 7.35252 3.1447 7.3556C3.54276 7.75385 4.03521 8.04478 4.57611 8.20124C5.11701 8.3577 5.68874 8.37458 6.23793 8.25032C6.78712 8.12606 7.29589 7.8647 7.71675 7.49063C8.13762 7.11656 8.45686 6.64198 8.6447 6.11116C8.72147 5.89422 8.95956 5.78059 9.1765 5.85736C9.39343 5.93412 9.50706 6.17222 9.4303 6.38915C9.1955 7.05268 8.79644 7.64591 8.27036 8.1135C7.74428 8.58108 7.10832 8.90778 6.42183 9.06311C5.73534 9.21843 5.02069 9.19733 4.34456 9.00176C3.67058 8.80681 3.05678 8.44483 2.56004 7.94945L1.33333 6.79676V8.33349C1.33333 8.56361 1.14679 8.75015 0.916667 8.75015C0.686548 8.75015 0.5 8.56361 0.5 8.33349V5.83349Z" fill="#DC2626"/>
</svg>
