<svg width="10" height="10" viewBox="0 0 10 10" fill="none" xmlns="http://www.w3.org/2000/svg">
<path fill-rule="evenodd" clip-rule="evenodd" d="M6.665 1.26325C5.8592 0.904207 4.95892 0.81526 4.09844 1.00967C3.23796 1.20409 2.46337 1.67145 1.89021 2.34205C1.31704 3.01266 0.976003 3.85057 0.917959 4.73083C0.859915 5.61109 1.08797 6.48654 1.56812 7.22659C2.04827 7.96665 2.75478 8.53168 3.58228 8.8374C4.40979 9.14312 5.31395 9.17315 6.15992 8.92303C7.00589 8.6729 7.74834 8.15601 8.27654 7.44945C8.80475 6.74289 9.0904 5.88451 9.09091 5.00234V4.58442C9.09091 4.33338 9.29442 4.12987 9.54545 4.12987C9.79649 4.12987 10 4.33338 10 4.58442V5.0026C9.99938 6.08081 9.65025 7.1302 9.00466 7.99377C8.35908 8.85735 7.45164 9.4891 6.41768 9.79481C5.38371 10.1005 4.27863 10.0638 3.26723 9.69015C2.25584 9.31649 1.39233 8.62591 0.80548 7.72139C0.218633 6.81688 -0.0601044 5.74689 0.0108384 4.67102C0.0817812 3.59514 0.498603 2.57102 1.19914 1.7514C1.89968 0.931771 2.84639 0.360553 3.89809 0.122935C4.9498 -0.114683 6.05013 -0.00596965 7.035 0.432862C7.26431 0.535035 7.36737 0.803751 7.2652 1.03306C7.16302 1.26236 6.89431 1.36542 6.665 1.26325ZM9.86671 1.04467C10.0443 1.22209 10.0444 1.50989 9.86703 1.68749L5.32157 6.23749C5.23635 6.3228 5.12071 6.37075 5.00011 6.37078C4.87952 6.37081 4.76386 6.32292 4.67859 6.23765L3.31495 4.87401C3.13744 4.6965 3.13744 4.4087 3.31495 4.23119C3.49246 4.05368 3.78027 4.05368 3.95778 4.23119L4.99984 5.27325L9.22388 1.04499C9.4013 0.867387 9.68911 0.867243 9.86671 1.04467Z" fill="#17823E"/>
</svg>
