<svg width="10" height="10" viewBox="0 0 10 10" fill="none" xmlns="http://www.w3.org/2000/svg">
<g clip-path="url(#clip0_2451_22844)">
<path d="M3.68265 7.0835C3.55986 7.0835 3.44136 7.03828 3.34979 6.95648L1.01855 4.87402C0.900654 4.76871 0.833252 4.61812 0.833252 4.46003C0.833252 4.15346 1.08178 3.90493 1.38836 3.90493H2.35706C2.62161 3.90493 2.8359 3.86623 2.99992 3.78885C3.16394 3.70552 3.28299 3.57754 3.35706 3.40492C3.43643 3.22635 3.47611 2.99421 3.47611 2.7085C3.47611 2.44064 3.43907 2.22635 3.365 2.06564C3.29092 1.90492 3.17188 1.78885 3.00785 1.71742C2.84912 1.646 2.63484 1.61028 2.365 1.61028H1.22164C1.00714 1.61028 0.833252 1.43639 0.833252 1.22189C0.833252 1.00739 1.00714 0.833496 1.22165 0.833496H4.61153C4.82603 0.833496 4.99992 1.00739 4.99992 1.22189C4.99992 1.43639 4.82603 1.61028 4.61153 1.61028H3.92849C4.03431 1.68766 4.12426 1.77992 4.19833 1.88707C4.2724 1.99421 4.32796 2.12219 4.365 2.271C4.40733 2.41385 4.42849 2.5835 4.42849 2.77992C4.42849 3.17873 4.35442 3.521 4.20627 3.80671C4.05812 4.09243 3.84912 4.31266 3.57928 4.46742C3.31473 4.62219 2.99198 4.69957 2.61103 4.69957H2.02373L2.0396 4.43171L4.01702 6.21258C4.35722 6.51897 4.14048 7.0835 3.68265 7.0835ZM1.23057 3.15492C1.01114 3.15492 0.833252 2.97704 0.833252 2.7576C0.833252 2.53817 1.01114 2.36028 1.23057 2.36028H4.6026C4.82203 2.36028 4.99992 2.53817 4.99992 2.7576C4.99992 2.97704 4.82203 3.15492 4.6026 3.15492H1.23057Z" fill="#17823E"/>
<path fill-rule="evenodd" clip-rule="evenodd" d="M6.04159 1.25016C6.04159 1.02004 6.22813 0.833496 6.45825 0.833496H7.49992C8.42039 0.833496 9.16659 1.57969 9.16659 2.50016V7.50016C9.16659 8.42064 8.42039 9.16683 7.49992 9.16683H2.49992C1.57944 9.16683 0.833252 8.42064 0.833252 7.50016V6.87516C0.833252 6.64504 1.0198 6.4585 1.24992 6.4585C1.48004 6.4585 1.66659 6.64504 1.66659 6.87516V7.50016C1.66659 7.9604 2.03968 8.3335 2.49992 8.3335H7.49992C7.96016 8.3335 8.33325 7.9604 8.33325 7.50016V2.50016C8.33325 2.03993 7.96016 1.66683 7.49992 1.66683H6.45825C6.22813 1.66683 6.04159 1.48028 6.04159 1.25016Z" fill="#17823E"/>
<path fill-rule="evenodd" clip-rule="evenodd" d="M5 5.00016C5 4.77004 5.18655 4.5835 5.41667 4.5835H7.5C7.73012 4.5835 7.91667 4.77004 7.91667 5.00016C7.91667 5.23028 7.73012 5.41683 7.5 5.41683H5.41667C5.18655 5.41683 5 5.23028 5 5.00016Z" fill="#17823E"/>
<path fill-rule="evenodd" clip-rule="evenodd" d="M5 6.25016C5 6.02004 5.18655 5.8335 5.41667 5.8335H7.08333C7.31345 5.8335 7.5 6.02004 7.5 6.25016C7.5 6.48028 7.31345 6.66683 7.08333 6.66683H5.41667C5.18655 6.66683 5 6.48028 5 6.25016Z" fill="#17823E"/>
</g>
<defs>
<clipPath id="clip0_2451_22844">
<rect width="10" height="10" fill="white"/>
</clipPath>
</defs>
</svg>
