<svg width="10" height="10" viewBox="0 0 10 10" fill="none" xmlns="http://www.w3.org/2000/svg">
<g clip-path="url(#clip0_2625_27064)">
<path d="M3.68289 7.08325C3.5601 7.08325 3.44161 7.03804 3.35003 6.95623L1.0188 4.87378C0.900898 4.76846 0.833496 4.61787 0.833496 4.45979C0.833496 4.15321 1.08203 3.90468 1.3886 3.90468H2.35731C2.62186 3.90468 2.83614 3.86599 3.00016 3.78861C3.16418 3.70528 3.28323 3.5773 3.35731 3.40468C3.43667 3.22611 3.47635 2.99397 3.47635 2.70825C3.47635 2.4404 3.43932 2.22611 3.36524 2.06539C3.29117 1.90468 3.17212 1.78861 3.0081 1.71718C2.84937 1.64575 2.63508 1.61004 2.36524 1.61004H1.22189C1.00739 1.61004 0.833496 1.43615 0.833496 1.22164C0.833496 1.00714 1.00739 0.833252 1.22189 0.833252H4.61177C4.82627 0.833252 5.00016 1.00714 5.00016 1.22164C5.00016 1.43615 4.82627 1.61004 4.61177 1.61004H3.92873C4.03455 1.68742 4.1245 1.77968 4.19858 1.88682C4.27265 1.99397 4.3282 2.12194 4.36524 2.27075C4.40757 2.41361 4.42873 2.58325 4.42873 2.77968C4.42873 3.17849 4.35466 3.52075 4.20651 3.80647C4.05836 4.09218 3.84937 4.31242 3.57953 4.46718C3.31498 4.62194 2.99223 4.69932 2.61127 4.69932H2.02397L2.03985 4.43147L4.01726 6.21234C4.35746 6.51873 4.14072 7.08325 3.68289 7.08325ZM1.23082 3.15468C1.01138 3.15468 0.833496 2.97679 0.833496 2.75736C0.833496 2.53792 1.01138 2.36004 1.23082 2.36004H4.60284C4.82228 2.36004 5.00016 2.53792 5.00016 2.75736C5.00016 2.97679 4.82228 3.15468 4.60284 3.15468H1.23082Z" fill="#BD9400"/>
<path fill-rule="evenodd" clip-rule="evenodd" d="M6.04183 1.24992C6.04183 1.0198 6.22838 0.833252 6.4585 0.833252H7.50016C8.42064 0.833252 9.16683 1.57944 9.16683 2.49992V7.49992C9.16683 8.42039 8.42064 9.16659 7.50016 9.16659H2.50016C1.57969 9.16659 0.833496 8.42039 0.833496 7.49992V6.87492C0.833496 6.6448 1.02004 6.45825 1.25016 6.45825C1.48028 6.45825 1.66683 6.6448 1.66683 6.87492V7.49992C1.66683 7.96016 2.03993 8.33325 2.50016 8.33325H7.50016C7.9604 8.33325 8.3335 7.96016 8.3335 7.49992V2.49992C8.3335 2.03968 7.9604 1.66659 7.50016 1.66659H6.4585C6.22838 1.66659 6.04183 1.48004 6.04183 1.24992Z" fill="#BD9400"/>
<path fill-rule="evenodd" clip-rule="evenodd" d="M5 4.99992C5 4.7698 5.18655 4.58325 5.41667 4.58325H7.5C7.73012 4.58325 7.91667 4.7698 7.91667 4.99992C7.91667 5.23004 7.73012 5.41658 7.5 5.41658H5.41667C5.18655 5.41658 5 5.23004 5 4.99992Z" fill="#BD9400"/>
<path fill-rule="evenodd" clip-rule="evenodd" d="M5 6.24992C5 6.0198 5.18655 5.83325 5.41667 5.83325H7.08333C7.31345 5.83325 7.5 6.0198 7.5 6.24992C7.5 6.48004 7.31345 6.66658 7.08333 6.66658H5.41667C5.18655 6.66658 5 6.48004 5 6.24992Z" fill="#BD9400"/>
</g>
<defs>
<clipPath id="clip0_2625_27064">
<rect width="10" height="10" fill="white"/>
</clipPath>
</defs>
</svg>
