<svg width="28" height="28" viewBox="0 0 28 28" fill="none" xmlns="http://www.w3.org/2000/svg">
<g clip-path="url(#clip0_542_25536)">
<g clip-path="url(#clip1_542_25536)">
<path fill-rule="evenodd" clip-rule="evenodd" d="M16.745 4.11757C16.745 3.51114 17.2366 3.01953 17.8431 3.01953H20.5882C23.0139 3.01953 24.9803 4.98597 24.9803 7.41169V20.5882C24.9803 23.0139 23.0139 24.9803 20.5882 24.9803H7.41169C4.98597 24.9803 3.01953 23.0139 3.01953 20.5882V18.9411C3.01953 18.3347 3.51114 17.8431 4.11757 17.8431C4.724 17.8431 5.21561 18.3347 5.21561 18.9411V20.5882C5.21561 21.801 6.19883 22.7842 7.41169 22.7842H20.5882C21.801 22.7842 22.7842 21.801 22.7842 20.5882V7.41169C22.7842 6.19883 21.801 5.21561 20.5882 5.21561H17.8431C17.2366 5.21561 16.745 4.724 16.745 4.11757Z" fill="#231F20"/>
<path fill-rule="evenodd" clip-rule="evenodd" d="M13.9995 13.9994C13.9995 13.393 14.4911 12.9014 15.0976 12.9014H20.5877C21.1942 12.9014 21.6858 13.393 21.6858 13.9994C21.6858 14.6058 21.1942 15.0974 20.5877 15.0974H15.0976C14.4911 15.0974 13.9995 14.6058 13.9995 13.9994Z" fill="#231F20"/>
<path fill-rule="evenodd" clip-rule="evenodd" d="M13.9995 17.2938C13.9995 16.6874 14.4911 16.1958 15.0976 16.1958H19.4897C20.0961 16.1958 20.5877 16.6874 20.5877 17.2938C20.5877 17.9003 20.0961 18.3919 19.4897 18.3919H15.0976C14.4911 18.3919 13.9995 17.9003 13.9995 17.2938Z" fill="#231F20"/>
<mask id="mask0_542_25536" style="mask-type:alpha" maskUnits="userSpaceOnUse" x="-5" y="-4" width="27" height="27">
<path d="M4.48344 4.23954H12.5357M5.82549 4.23954C6.35421 4.23954 6.87775 4.34368 7.36623 4.54601C7.8547 4.74834 8.29854 5.0449 8.6724 5.41877C9.04627 5.79263 9.34283 6.23647 9.54516 6.72494C9.74749 7.21342 9.85163 7.73696 9.85163 8.26568C9.85163 8.7944 9.74749 9.31794 9.54516 9.80642C9.34283 10.2949 9.04627 10.7387 8.6724 11.1126C8.29854 11.4865 7.8547 11.783 7.36623 11.9854C6.87775 12.1877 6.35421 12.2918 5.82549 12.2918H4.48344L8.50959 16.318M4.48344 8.26568H12.5357M20.588 9.60773C20.588 11.1939 20.2756 12.7645 19.6686 14.2299C19.0616 15.6954 18.1719 17.0269 17.0503 18.1485C15.9287 19.2701 14.5972 20.1597 13.1318 20.7667C11.6664 21.3737 10.0957 21.6862 8.50959 21.6862C6.92342 21.6862 5.35279 21.3737 3.88737 20.7667C2.42195 20.1597 1.09043 19.2701 -0.0311568 18.1485C-1.15274 17.0269 -2.04243 15.6954 -2.64943 14.2299C-3.25643 12.7645 -3.56885 11.1939 -3.56885 9.60773C-3.56885 6.40433 -2.2963 3.33213 -0.0311568 1.06699C2.23399 -1.19816 5.30619 -2.4707 8.50959 -2.4707C11.713 -2.4707 14.7852 -1.19816 17.0503 1.06699C19.3155 3.33213 20.588 6.40433 20.588 9.60773Z" stroke="#231F20" stroke-width="1.48235" stroke-linecap="round" stroke-linejoin="round"/>
</mask>
<g mask="url(#mask0_542_25536)">
<circle cx="8.23549" cy="9.33314" r="8.78431" fill="#EF4444"/>
</g>
</g>
</g>
<defs>
<clipPath id="clip0_542_25536">
<rect width="28" height="28" fill="white"/>
</clipPath>
<clipPath id="clip1_542_25536">
<rect width="26.3529" height="26.3529" fill="white" transform="translate(0.823242 0.823242)"/>
</clipPath>
</defs>
</svg>
