<svg width="20" height="20" viewBox="0 0 20 20" fill="none" xmlns="http://www.w3.org/2000/svg">
<g clip-path="url(#clip0_2538_3187)">
<path fill-rule="evenodd" clip-rule="evenodd" d="M12.0194 18.5734C11.6862 18.9016 11.1459 18.9016 10.8126 18.5734L4.60346 12.4598C4.2702 12.1316 4.2702 11.5996 4.60346 11.2715C4.93673 10.9434 5.47705 10.9434 5.81032 11.2715L12.0194 17.3851C12.3527 17.7132 12.3527 18.2452 12.0194 18.5734Z" fill="#231F20"/>
<path d="M8.45572 3.80078C9.31749 3.82209 10.1371 4.26385 10.7342 5.02891C11.3314 5.79397 11.6571 6.81965 11.6398 7.88029C11.6225 8.94095 11.2636 9.94969 10.6419 10.6846C10.0203 11.4196 9.18697 11.8205 8.3252 11.7992" stroke="#231F20" stroke-width="1.6"/>
<path fill-rule="evenodd" clip-rule="evenodd" d="M16.2754 3.84025C16.2754 4.3043 15.8933 4.6805 15.422 4.6805H5.1815C4.71019 4.6805 4.32812 4.3043 4.32812 3.84025C4.32812 3.37619 4.71019 3 5.1815 3H15.422C15.8933 3 16.2754 3.37619 16.2754 3.84025Z" fill="#231F20"/>
<path fill-rule="evenodd" clip-rule="evenodd" d="M9.20313 11.8C9.20313 12.2418 8.83935 12.6 8.39063 12.6H5.14063C4.69189 12.6 4.32812 12.2418 4.32812 11.8C4.32812 11.3582 4.69189 11 5.14063 11H8.39063C8.83935 11 9.20313 11.3582 9.20313 11.8Z" fill="#231F20"/>
<path fill-rule="evenodd" clip-rule="evenodd" d="M16.2754 7.84025C16.2754 8.3043 15.8933 8.6805 15.422 8.6805H5.1815C4.71019 8.6805 4.32812 8.3043 4.32812 7.84025C4.32812 7.37619 4.71019 7 5.1815 7H15.422C15.8933 7 16.2754 7.37619 16.2754 7.84025Z" fill="#231F20"/>
</g>
<defs>
<clipPath id="clip0_2538_3187">
<rect width="13" height="16" fill="white" transform="translate(4 3)"/>
</clipPath>
</defs>
</svg>