<svg width="20" height="20" viewBox="0 0 20 20" fill="none" xmlns="http://www.w3.org/2000/svg">
<path d="M5.93835 8.00395L7.4678 6.78784H12.8053L14.1874 8.10015C15.0446 8.91415 15.6839 9.93034 16.0464 11.0555L16.2823 11.7875C16.3968 12.1427 16.4551 12.5137 16.4551 12.887C16.4551 15.2169 14.5663 17.1057 12.2363 17.1057H7.57856C5.28154 17.1057 3.41943 15.2436 3.41943 12.9466C3.41943 12.528 3.47622 12.1114 3.58824 11.7081L3.66272 11.4399C4.03956 10.0831 4.83613 8.88035 5.93835 8.00395Z" stroke="#231F20" stroke-width="0.75"/>
<path d="M9.20904 3.19448C9.20904 3.19448 9.136 3.05407 8.9248 2.72128C8.26543 1.68227 6.63843 3.01748 7.38109 3.83704C7.75025 4.24442 8.08988 4.66797 8.31012 4.98292" stroke="#231F20" stroke-width="0.75" stroke-linecap="round" stroke-linejoin="round"/>
<path d="M9.03857 2.80469C9.14176 2.60986 9.45818 2.23188 9.89843 2.27862C10.4487 2.33706 10.4333 3.0926 11.172 3.0926C11.8494 3.0926 11.7644 2.65886 12.4088 2.68878C13.0531 2.7187 13.2292 3.0926 13.0856 3.62305C12.9331 4.18679 12.4077 4.51238 12.044 4.94287" stroke="#231F20" stroke-width="0.75" stroke-linecap="round" stroke-linejoin="round"/>
<path d="M10.7418 15.0564L8.05078 12.7003V12.0654H9.5339C9.79383 12.0654 10.0053 12.0264 10.1684 11.9484C10.3315 11.8648 10.4538 11.7367 10.5354 11.5641C10.6169 11.3914 10.6577 11.1686 10.6577 10.8957C10.6577 10.6339 10.6195 10.425 10.543 10.2691C10.4717 10.1131 10.3545 10.0017 10.1914 9.93488C10.0283 9.86247 9.81166 9.82626 9.54154 9.82626H8.05078V9.20801H11.9497V9.82626H10.8947C11.0017 9.8931 11.0935 9.97665 11.1699 10.0769C11.2464 10.1716 11.305 10.2913 11.3457 10.4362C11.3865 10.5754 11.4069 10.7453 11.4069 10.9458C11.4069 11.3079 11.3406 11.6198 11.2081 11.8815C11.0756 12.1433 10.8845 12.3438 10.6348 12.4831C10.3901 12.6223 10.0894 12.692 9.73267 12.692H9.02169L9.01404 12.4915L11.9268 15.0564H10.7418ZM8.05078 11.2549V10.62H11.9497V11.2549H8.05078Z" fill="#EF4444"/>
<rect x="6.375" y="5.37524" width="7.25" height="1.25" rx="0.625" stroke="#231F20" stroke-width="0.75"/>
</svg>
