<svg width="28" height="28" viewBox="0 0 28 28" fill="none" xmlns="http://www.w3.org/2000/svg">
<g clip-path="url(#clip0_542_25544)">
<path d="M8.2124 10.2734H14.1235M9.19759 10.2734C9.58572 10.2734 9.97004 10.3499 10.3286 10.4984C10.6872 10.6469 11.013 10.8647 11.2875 11.1391C11.5619 11.4135 11.7796 11.7394 11.9282 12.0979C12.0767 12.4565 12.1531 12.8409 12.1531 13.229C12.1531 13.6171 12.0767 14.0014 11.9282 14.36C11.7796 14.7186 11.5619 15.0444 11.2875 15.3189C11.013 15.5933 10.6872 15.811 10.3286 15.9596C9.97004 16.1081 9.58572 16.1845 9.19759 16.1845H8.2124L11.168 19.1401M8.2124 13.229H14.1235" stroke="#231F20" stroke-width="1.57182" stroke-linecap="round" stroke-linejoin="round"/>
<mask id="mask0_542_25544" style="mask-type:alpha" maskUnits="userSpaceOnUse" x="7" y="9" width="8" height="11">
<path d="M8.2124 10.2734H14.1235M9.19759 10.2734C9.58572 10.2734 9.97004 10.3499 10.3286 10.4984C10.6872 10.6469 11.013 10.8647 11.2875 11.1391C11.5619 11.4135 11.7796 11.7394 11.9282 12.0979C12.0767 12.4565 12.1531 12.8409 12.1531 13.229C12.1531 13.6171 12.0767 14.0014 11.9282 14.36C11.7796 14.7186 11.5619 15.0444 11.2875 15.3189C11.013 15.5933 10.6872 15.811 10.3286 15.9596C9.97004 16.1081 9.58572 16.1845 9.19759 16.1845H8.2124L11.168 19.1401M8.2124 13.229H14.1235" stroke="#231F20" stroke-width="1.57182" stroke-linecap="round" stroke-linejoin="round"/>
</mask>
<g mask="url(#mask0_542_25544)">
<circle cx="10.9661" cy="14.0124" r="6.44848" fill="#EF4444"/>
</g>
<path fill-rule="evenodd" clip-rule="evenodd" d="M22.5976 10.4357C22.814 10.2193 23.1649 10.2193 23.3813 10.4357L27.2605 14.3149C27.4769 14.5313 27.4769 14.8822 27.2605 15.0986L23.3813 18.9778C23.1649 19.1942 22.814 19.1942 22.5976 18.9778C22.3812 18.7614 22.3812 18.4105 22.5976 18.1941L25.5308 15.2609H19.1103C18.8043 15.2609 18.5562 15.0128 18.5562 14.7068C18.5562 14.4007 18.8043 14.1526 19.1103 14.1526H25.5308L22.5976 11.2195C22.3812 11.003 22.3812 10.6522 22.5976 10.4357Z" fill="#231F20" stroke="#231F20" stroke-width="0.738889" stroke-linecap="round" stroke-linejoin="round"/>
<mask id="path-5-inside-1_542_25544" fill="white">
<path d="M20.1011 11.3162C20.6442 11.155 20.9585 10.5814 20.7443 10.0569C19.975 8.17317 18.6636 6.55038 16.966 5.40135C14.9841 4.05988 12.5983 3.44712 10.2152 3.66748C7.83214 3.88784 5.5992 4.92768 3.89685 6.60982C2.1945 8.29197 1.12808 10.5123 0.879289 12.8926C0.630498 15.2729 1.21473 17.6658 2.53244 19.6636C3.85016 21.6614 5.81982 23.1405 8.10582 23.8489C10.3918 24.5573 12.8527 24.4511 15.0692 23.5485C16.9678 22.7753 18.5864 21.4588 19.7286 19.7748C20.0466 19.306 19.8577 18.6798 19.3596 18.4097C18.8616 18.1397 18.2439 18.3292 17.9145 18.7901C17.0067 20.0602 15.7541 21.0544 14.2954 21.6484C12.5185 22.372 10.5457 22.4571 8.71307 21.8892C6.88045 21.3214 5.30142 20.1356 4.24505 18.534C3.18867 16.9324 2.72031 15.0141 2.91976 13.1059C3.11921 11.1977 3.97413 9.41768 5.33885 8.06914C6.70358 6.72061 8.49367 5.887 10.4041 5.71035C12.3146 5.53369 14.2272 6.02492 15.816 7.10034C17.1204 7.98317 18.1403 9.21485 18.7658 10.6452C18.9928 11.1643 19.558 11.4774 20.1011 11.3162Z"/>
</mask>
<path d="M20.1011 11.3162C20.6442 11.155 20.9585 10.5814 20.7443 10.0569C19.975 8.17317 18.6636 6.55038 16.966 5.40135C14.9841 4.05988 12.5983 3.44712 10.2152 3.66748C7.83214 3.88784 5.5992 4.92768 3.89685 6.60982C2.1945 8.29197 1.12808 10.5123 0.879289 12.8926C0.630498 15.2729 1.21473 17.6658 2.53244 19.6636C3.85016 21.6614 5.81982 23.1405 8.10582 23.8489C10.3918 24.5573 12.8527 24.4511 15.0692 23.5485C16.9678 22.7753 18.5864 21.4588 19.7286 19.7748C20.0466 19.306 19.8577 18.6798 19.3596 18.4097C18.8616 18.1397 18.2439 18.3292 17.9145 18.7901C17.0067 20.0602 15.7541 21.0544 14.2954 21.6484C12.5185 22.372 10.5457 22.4571 8.71307 21.8892C6.88045 21.3214 5.30142 20.1356 4.24505 18.534C3.18867 16.9324 2.72031 15.0141 2.91976 13.1059C3.11921 11.1977 3.97413 9.41768 5.33885 8.06914C6.70358 6.72061 8.49367 5.887 10.4041 5.71035C12.3146 5.53369 14.2272 6.02492 15.816 7.10034C17.1204 7.98317 18.1403 9.21485 18.7658 10.6452C18.9928 11.1643 19.558 11.4774 20.1011 11.3162Z" stroke="#231F20" stroke-width="2.75852" mask="url(#path-5-inside-1_542_25544)"/>
</g>
<defs>
<clipPath id="clip0_542_25544">
<rect width="28" height="28" fill="white" transform="translate(0.823242 0.823486)"/>
</clipPath>
</defs>
</svg>
