<svg width="13" height="13" viewBox="0 0 13 13" fill="none" xmlns="http://www.w3.org/2000/svg">
<path fill-rule="evenodd" clip-rule="evenodd" d="M5.625 1.25C3.20875 1.25 1.25 3.20875 1.25 5.625C1.25 8.04125 3.20875 10 5.625 10C6.80372 10 7.87356 9.53386 8.66024 8.77587C8.67669 8.75447 8.69471 8.7339 8.71431 8.71431C8.7339 8.69471 8.75447 8.67669 8.77587 8.66024C9.53386 7.87356 10 6.80372 10 5.625C10 3.20875 8.04125 1.25 5.625 1.25ZM10.0199 9.13605C10.7897 8.17376 11.25 6.95313 11.25 5.625C11.25 2.5184 8.7316 0 5.625 0C2.5184 0 0 2.5184 0 5.625C0 8.7316 2.5184 11.25 5.625 11.25C6.95313 11.25 8.17376 10.7897 9.13605 10.0199L11.4331 12.3169C11.6771 12.561 12.0729 12.561 12.3169 12.3169C12.561 12.0729 12.561 11.6771 12.3169 11.4331L10.0199 9.13605Z" fill="#231F20"/>
<path fill-rule="evenodd" clip-rule="evenodd" d="M7.39268 3.73212C7.63675 3.9762 7.63675 4.37193 7.39268 4.61601L6.50879 5.49989L7.39268 6.38377C7.63675 6.62785 7.63675 7.02358 7.39268 7.26766C7.1486 7.51173 6.75287 7.51173 6.50879 7.26766L5.62491 6.38377L4.74102 7.26766C4.49695 7.51173 4.10122 7.51173 3.85714 7.26766C3.61306 7.02358 3.61306 6.62785 3.85714 6.38377L4.74102 5.49989L3.85714 4.61601C3.61306 4.37193 3.61306 3.9762 3.85714 3.73212C4.10122 3.48804 4.49695 3.48804 4.74102 3.73212L5.62491 4.61601L6.50879 3.73212C6.75287 3.48804 7.1486 3.48804 7.39268 3.73212Z" fill="#EF4444"/>
</svg>
