<svg width="14" height="14" viewBox="0 0 14 14" fill="none" xmlns="http://www.w3.org/2000/svg">
<g clip-path="url(#clip0_2783_12354)">
<path fill-rule="evenodd" clip-rule="evenodd" d="M7 2.33317C6.0335 2.33317 5.25 3.11667 5.25 4.08317C5.25 5.04967 6.0335 5.83317 7 5.83317C7.9665 5.83317 8.75 5.04967 8.75 4.08317C8.75 3.11667 7.9665 2.33317 7 2.33317ZM4.08333 4.08317C4.08333 2.47234 5.38917 1.1665 7 1.1665C8.61083 1.1665 9.91667 2.47234 9.91667 4.08317C9.91667 5.694 8.61083 6.99984 7 6.99984C5.38917 6.99984 4.08333 5.694 4.08333 4.08317ZM2.60427 9.02078C3.15125 8.4738 3.89312 8.1665 4.66667 8.1665H9.33333C10.1069 8.1665 10.8487 8.4738 11.3957 9.02078C11.9427 9.56776 12.25 10.3096 12.25 11.0832V12.2498C12.25 12.572 11.9888 12.8332 11.6667 12.8332C11.3445 12.8332 11.0833 12.572 11.0833 12.2498V11.0832C11.0833 10.619 10.899 10.1739 10.5708 9.84573C10.2426 9.51755 9.79746 9.33317 9.33333 9.33317H4.66667C4.20254 9.33317 3.75742 9.51755 3.42923 9.84573C3.10104 10.1739 2.91667 10.619 2.91667 11.0832V12.2498C2.91667 12.572 2.6555 12.8332 2.33333 12.8332C2.01117 12.8332 1.75 12.572 1.75 12.2498V11.0832C1.75 10.3096 2.05729 9.56776 2.60427 9.02078Z" fill="#231F20"/>
<path fill-rule="evenodd" clip-rule="evenodd" d="M7.00004 2.33317C6.03354 2.33317 5.25004 3.11667 5.25004 4.08317C5.25004 5.04967 6.03354 5.83317 7.00004 5.83317C7.96654 5.83317 8.75004 5.04967 8.75004 4.08317C8.75004 3.11667 7.96654 2.33317 7.00004 2.33317ZM4.08337 4.08317C4.08337 2.47234 5.38921 1.1665 7.00004 1.1665C8.61087 1.1665 9.91671 2.47234 9.91671 4.08317C9.91671 5.694 8.61087 6.99984 7.00004 6.99984C5.38921 6.99984 4.08337 5.694 4.08337 4.08317Z" fill="#EF4444"/>
</g>
<defs>
<clipPath id="clip0_2783_12354">
<rect width="14" height="14" fill="white"/>
</clipPath>
</defs>
</svg>
