<svg width="24" height="24" viewBox="0 0 24 24" fill="none" xmlns="http://www.w3.org/2000/svg">
<circle cx="12" cy="12" r="12" fill="white"/>
<g clip-path="url(#clip0_2472_1184)">
<path fill-rule="evenodd" clip-rule="evenodd" d="M12 7.33317C11.0335 7.33317 10.25 8.11667 10.25 9.08317C10.25 10.0497 11.0335 10.8332 12 10.8332C12.9665 10.8332 13.75 10.0497 13.75 9.08317C13.75 8.11667 12.9665 7.33317 12 7.33317ZM9.08333 9.08317C9.08333 7.47234 10.3892 6.1665 12 6.1665C13.6108 6.1665 14.9167 7.47234 14.9167 9.08317C14.9167 10.694 13.6108 11.9998 12 11.9998C10.3892 11.9998 9.08333 10.694 9.08333 9.08317ZM7.60427 14.0208C8.15125 13.4738 8.89312 13.1665 9.66667 13.1665H14.3333C15.1069 13.1665 15.8487 13.4738 16.3957 14.0208C16.9427 14.5678 17.25 15.3096 17.25 16.0832V17.2498C17.25 17.572 16.9888 17.8332 16.6667 17.8332C16.3445 17.8332 16.0833 17.572 16.0833 17.2498V16.0832C16.0833 15.619 15.899 15.1739 15.5708 14.8457C15.2426 14.5175 14.7975 14.3332 14.3333 14.3332H9.66667C9.20254 14.3332 8.75742 14.5175 8.42923 14.8457C8.10104 15.1739 7.91667 15.619 7.91667 16.0832V17.2498C7.91667 17.572 7.6555 17.8332 7.33333 17.8332C7.01117 17.8332 6.75 17.572 6.75 17.2498V16.0832C6.75 15.3096 7.05729 14.5678 7.60427 14.0208Z" fill="#231F20"/>
<path fill-rule="evenodd" clip-rule="evenodd" d="M12 7.33317C11.0335 7.33317 10.25 8.11667 10.25 9.08317C10.25 10.0497 11.0335 10.8332 12 10.8332C12.9665 10.8332 13.75 10.0497 13.75 9.08317C13.75 8.11667 12.9665 7.33317 12 7.33317ZM9.08337 9.08317C9.08337 7.47234 10.3892 6.1665 12 6.1665C13.6109 6.1665 14.9167 7.47234 14.9167 9.08317C14.9167 10.694 13.6109 11.9998 12 11.9998C10.3892 11.9998 9.08337 10.694 9.08337 9.08317Z" fill="#EF4444"/>
</g>
<defs>
<clipPath id="clip0_2472_1184">
<rect width="14" height="14" fill="white" transform="translate(5 5)"/>
</clipPath>
</defs>
</svg>
