<svg width="24" height="24" viewBox="0 0 24 24" fill="none" xmlns="http://www.w3.org/2000/svg">
<path fill-rule="evenodd" clip-rule="evenodd" d="M7 3C6.44772 3 6 3.44772 6 4V20C6 20.5523 6.44771 21 7 21H17C17.5523 21 18 20.5523 18 20V4C18 3.44772 17.5523 3 17 3H7ZM4 4C4 2.34315 5.34315 1 7 1H17C18.6569 1 20 2.34315 20 4V20C20 21.6569 18.6569 23 17 23H7C5.34315 23 4 21.6569 4 20V4Z" fill="#231F20"/>
<path d="M11 3H13" stroke="#231F20" stroke-width="3" stroke-linecap="round" stroke-linejoin="round"/>
<path d="M9 18H15" stroke="#231F20" stroke-width="2" stroke-linecap="round" stroke-linejoin="round"/>
</svg>
