<svg width="25" height="25" viewBox="0 0 25 25" fill="none" xmlns="http://www.w3.org/2000/svg">
<circle cx="12.5" cy="12.5" r="12.5" fill="#F3F4F6"/>
<path fill-rule="evenodd" clip-rule="evenodd" d="M7.42857 6.6C7.21387 6.6 7.00797 6.68429 6.85615 6.83431C6.70434 6.98434 6.61905 7.18783 6.61905 7.4V18.6C6.61905 18.8122 6.70434 19.0157 6.85615 19.1657C7.00797 19.3157 7.21387 19.4 7.42857 19.4H18.7619C18.9766 19.4 19.1825 19.3157 19.3343 19.1657C19.4861 19.0157 19.5714 18.8122 19.5714 18.6V13C19.5714 12.5582 19.9339 12.2 20.381 12.2C20.828 12.2 21.1905 12.5582 21.1905 13V18.6C21.1905 19.2365 20.9346 19.847 20.4792 20.2971C20.0237 20.7471 19.406 21 18.7619 21H7.42857C6.78447 21 6.16676 20.7471 5.71131 20.2971C5.25587 19.847 5 19.2365 5 18.6V7.4C5 6.76348 5.25587 6.15303 5.71131 5.70294C6.16676 5.25286 6.78447 5 7.42857 5H16.3333C16.7804 5 17.1429 5.35817 17.1429 5.8C17.1429 6.24183 16.7804 6.6 16.3333 6.6H7.42857ZM20.6181 6.03431C20.9342 5.7219 21.4468 5.7219 21.7629 6.03431C22.079 6.34673 22.079 6.85327 21.7629 7.16569L13.6677 15.1657C13.3515 15.4781 12.839 15.4781 12.5228 15.1657L10.0942 12.7657C9.77811 12.4533 9.77811 11.9467 10.0942 11.6343C10.4104 11.3219 10.9229 11.3219 11.2391 11.6343L13.0952 13.4686L20.6181 6.03431Z" fill="#231F20"/>
<path fill-rule="evenodd" clip-rule="evenodd" d="M20.6181 6.03412C20.9342 5.7217 21.4468 5.7217 21.7629 6.03412C22.0791 6.34654 22.0791 6.85307 21.7629 7.16549L13.6677 15.1655C13.3516 15.4779 12.839 15.4779 12.5229 15.1655L10.0943 12.7655C9.77814 12.4531 9.77814 11.9465 10.0943 11.6341C10.4104 11.3217 10.923 11.3217 11.2391 11.6341L13.0953 13.4684L20.6181 6.03412Z" fill="#EF4444"/>
</svg>
