<svg width="20" height="20" viewBox="0 0 20 20" fill="none" xmlns="http://www.w3.org/2000/svg">
<path d="M10.619 3.23197L12.3976 6.83541C12.4471 6.93568 12.5202 7.02241 12.6107 7.08813C12.7012 7.15385 12.8063 7.19659 12.9169 7.21266L16.8935 7.79059C17.0208 7.80909 17.1405 7.86286 17.2389 7.94583C17.3373 8.0288 17.4105 8.13766 17.4503 8.26008C17.49 8.3825 17.4947 8.5136 17.4639 8.63856C17.433 8.76351 17.3677 8.87733 17.2755 8.96714L14.3976 11.772C14.2348 11.9306 14.1611 12.1589 14.199 12.3823L14.8783 16.343C14.9 16.4698 14.8858 16.6002 14.8373 16.7194C14.7888 16.8386 14.708 16.9418 14.6039 17.0175C14.4998 17.0931 14.3766 17.1381 14.2482 17.1473C14.1199 17.1566 13.9915 17.1298 13.8776 17.0699L10.3204 15.1996C10.2213 15.1476 10.1112 15.1205 9.99933 15.1205C9.8875 15.1205 9.77733 15.1476 9.6783 15.1996L6.12106 17.0699C6.00716 17.1298 5.87878 17.1566 5.75044 17.1473C5.6221 17.1381 5.49891 17.0931 5.3948 17.0175C5.29069 16.9418 5.20981 16.8386 5.16132 16.7194C5.11282 16.6002 5.09863 16.4698 5.12037 16.343L5.79968 12.3823C5.81859 12.2721 5.81039 12.1589 5.77578 12.0526C5.74118 11.9463 5.68121 11.8499 5.60106 11.772L2.72312 8.96714C2.63092 8.87733 2.56568 8.76351 2.53479 8.63856C2.50391 8.5136 2.50861 8.3825 2.54837 8.26008C2.58812 8.13766 2.66134 8.0288 2.75975 7.94583C2.85815 7.86286 2.97781 7.80909 3.10519 7.79059L7.08174 7.21266C7.1924 7.19659 7.29749 7.15385 7.38796 7.08813C7.47843 7.02241 7.55156 6.93568 7.60105 6.83541L9.37968 3.23197C9.63485 2.71955 10.3659 2.71955 10.619 3.23197Z" fill="white"/>
</svg>
