<svg width="20" height="20" viewBox="0 0 20 20" fill="none" xmlns="http://www.w3.org/2000/svg">
<g clip-path="url(#clip0_124_3118)">
<path fill-rule="evenodd" clip-rule="evenodd" d="M10.0001 0.733398C4.88223 0.733398 0.733398 4.88223 0.733398 10.0001C0.733398 15.1179 4.88222 19.2667 10.0001 19.2667C15.1179 19.2667 19.2667 15.1179 19.2667 10.0001C19.2667 4.88222 15.1179 0.733398 10.0001 0.733398ZM2.1834 10.0001C2.1834 5.68304 5.68304 2.1834 10.0001 2.1834C14.3171 2.1834 17.8167 5.68304 17.8167 10.0001C17.8167 14.3171 14.3171 17.8167 10.0001 17.8167C5.68304 17.8167 2.1834 14.3171 2.1834 10.0001ZM9.2749 6.15007H10.7249V10.4709L13.8482 12.8134L12.9782 13.9734L9.2749 11.1959V6.15007Z" fill="#221F20"/>
</g>
<defs>
<clipPath id="clip0_124_3118">
<rect width="20" height="20" fill="white"/>
</clipPath>
</defs>
</svg>
