<svg width="20" height="20" viewBox="0 0 20 20" fill="none" xmlns="http://www.w3.org/2000/svg">
<path fill-rule="evenodd" clip-rule="evenodd" d="M8.40515 1.32826C8.5389 1.02732 8.83734 0.833374 9.16666 0.833374C10.0507 0.833374 10.8986 1.18456 11.5237 1.80968C12.1488 2.43481 12.5 3.28265 12.5 4.16671V6.66671H16.3791C16.7397 6.66337 17.0968 6.7381 17.4259 6.88578C17.7565 7.03417 18.0509 7.25268 18.2887 7.52615C18.5265 7.79963 18.702 8.12154 18.8031 8.46957C18.9041 8.81761 18.9283 9.18346 18.8739 9.54176L17.7239 17.0417C17.7239 17.0419 17.7239 17.0414 17.7239 17.0417C17.6334 17.6375 17.3305 18.1813 16.8713 18.5717C16.4132 18.9611 15.8301 19.1723 15.229 19.1667H3.33333C2.67029 19.1667 2.0344 18.9033 1.56556 18.4345C1.09672 17.9656 0.833328 17.3297 0.833328 16.6667V10.8334C0.833328 10.1703 1.09672 9.53445 1.56556 9.06561C2.0344 8.59677 2.67029 8.33337 3.33333 8.33337H5.29177L8.40515 1.32826ZM6.66666 9.34355L9.67319 2.57887C9.92434 2.659 10.1553 2.79833 10.3452 2.9882C10.6577 3.30076 10.8333 3.72468 10.8333 4.16671V7.50004C10.8333 7.96028 11.2064 8.33337 11.6667 8.33337H16.3833L16.3928 8.33332C16.5136 8.33195 16.6332 8.35686 16.7434 8.40633C16.8536 8.45579 16.9518 8.52863 17.031 8.61978C17.1103 8.71094 17.1688 8.81825 17.2025 8.93426C17.2361 9.05016 17.2442 9.17199 17.2261 9.29132C17.2261 9.29143 17.2262 9.29121 17.2261 9.29132L16.0761 16.7918C16.0459 16.9905 15.945 17.1716 15.7919 17.3018C15.6387 17.4319 15.4437 17.5024 15.2427 17.5001L6.66666 17.5V9.34355ZM4.99999 17.5V10H3.33333C3.11231 10 2.90035 10.0878 2.74407 10.2441C2.58779 10.4004 2.49999 10.6124 2.49999 10.8334V16.6667C2.49999 16.8877 2.58779 17.0997 2.74407 17.256C2.90035 17.4122 3.11231 17.5 3.33333 17.5H4.99999Z" fill="white"/>
</svg>
