<svg width="20" height="20" viewBox="0 0 20 20" fill="none" xmlns="http://www.w3.org/2000/svg">
<path fill-rule="evenodd" clip-rule="evenodd" d="M12.7084 4.08301C12.7084 3.66879 13.0442 3.33301 13.4584 3.33301H15.3334C16.9902 3.33301 18.3334 4.67615 18.3334 6.33301V15.333C18.3334 16.9899 16.9902 18.333 15.3334 18.333H6.33337C4.67652 18.333 3.33337 16.9899 3.33337 15.333V14.208C3.33337 13.7938 3.66916 13.458 4.08337 13.458C4.49759 13.458 4.83337 13.7938 4.83337 14.208V15.333C4.83337 16.1614 5.50495 16.833 6.33337 16.833H15.3334C16.1618 16.833 16.8334 16.1614 16.8334 15.333V6.33301C16.8334 5.50458 16.1618 4.83301 15.3334 4.83301H13.4584C13.0442 4.83301 12.7084 4.49722 12.7084 4.08301Z" fill="#231F20"/>
<path fill-rule="evenodd" clip-rule="evenodd" d="M10.8334 10.8333C10.8334 10.3731 11.1532 10 11.5477 10H15.1191C15.5136 10 15.8334 10.3731 15.8334 10.8333C15.8334 11.2936 15.5136 11.6667 15.1191 11.6667H11.5477C11.1532 11.6667 10.8334 11.2936 10.8334 10.8333Z" fill="#231F20"/>
<path fill-rule="evenodd" clip-rule="evenodd" d="M10.8334 13.3333C10.8334 12.8731 11.2065 12.5 11.6667 12.5H15C15.4603 12.5 15.8334 12.8731 15.8334 13.3333C15.8334 13.7936 15.4603 14.1667 15 14.1667H11.6667C11.2065 14.1667 10.8334 13.7936 10.8334 13.3333Z" fill="#231F20"/>
<path fill-rule="evenodd" clip-rule="evenodd" d="M7.49825 2.92976C6.69245 2.57071 5.79218 2.48176 4.93169 2.67618C4.07121 2.87059 3.29662 3.33795 2.72346 4.00856C2.15029 4.67916 1.80926 5.51708 1.75121 6.39734C1.69317 7.2776 1.92122 8.15304 2.40137 8.8931C2.88152 9.63316 3.58803 10.1982 4.41553 10.5039C5.24304 10.8096 6.1472 10.8397 6.99317 10.5895C7.83914 10.3394 8.58159 9.82252 9.1098 9.11596C9.638 8.40939 9.92366 7.55102 9.92416 6.66885V6.25092C9.92416 5.99988 10.1277 5.79638 10.3787 5.79638C10.6297 5.79638 10.8333 5.99988 10.8333 6.25092V6.66911C10.8326 7.74732 10.4835 8.7967 9.83792 9.66028C9.19233 10.5239 8.28489 11.1556 7.25093 11.4613C6.21697 11.767 5.11188 11.7303 4.10049 11.3567C3.08909 10.983 2.22558 10.2924 1.63873 9.3879C1.05189 8.48338 0.773148 7.4134 0.84409 6.33752C0.915033 5.26165 1.33186 4.23753 2.03239 3.4179C2.73293 2.59828 3.67964 2.02706 4.73135 1.78944C5.78305 1.55182 6.88338 1.66053 7.86825 2.09937C8.09756 2.20154 8.20062 2.47025 8.09845 2.69956C7.99627 2.92887 7.72756 3.03193 7.49825 2.92976ZM10.7 2.71117C10.8776 2.88859 10.8777 3.17639 10.7003 3.35399L6.15483 7.90399C6.0696 7.98931 5.95396 8.03726 5.83337 8.03729C5.71278 8.03732 5.59711 7.98943 5.51184 7.90415L4.14821 6.54052C3.97069 6.36301 3.97069 6.0752 4.14821 5.89769C4.32572 5.72018 4.61352 5.72018 4.79103 5.89769L5.83309 6.93976L10.0571 2.71149C10.2346 2.53389 10.5224 2.53375 10.7 2.71117Z" fill="#EF4444" stroke="#EF4444" stroke-width="0.35" stroke-linecap="round" stroke-linejoin="round"/>
</svg>
