<svg width="16" height="16" viewBox="0 0 16 16" fill="none" xmlns="http://www.w3.org/2000/svg">
<path fill-rule="evenodd" clip-rule="evenodd" d="M6.66665 1.99984C6.48984 1.99984 6.32027 2.07007 6.19524 2.1951C6.07022 2.32012 5.99998 2.48969 5.99998 2.6665V3.33317H9.99998V2.6665C9.99998 2.48969 9.92974 2.32012 9.80472 2.1951C9.67969 2.07007 9.51012 1.99984 9.33331 1.99984H6.66665ZM11.3333 3.33317V2.6665C11.3333 2.13607 11.1226 1.62736 10.7475 1.25229C10.3725 0.877218 9.86375 0.666504 9.33331 0.666504H6.66665C6.13621 0.666504 5.62751 0.877218 5.25243 1.25229C4.87736 1.62736 4.66665 2.13607 4.66665 2.6665V3.33317H1.99998C1.63179 3.33317 1.33331 3.63165 1.33331 3.99984C1.33331 4.36803 1.63179 4.6665 1.99998 4.6665H2.66665V13.3332C2.66665 13.8636 2.87736 14.3723 3.25243 14.7474C3.62751 15.1225 4.13621 15.3332 4.66665 15.3332H11.3333C11.8637 15.3332 12.3725 15.1225 12.7475 14.7474C13.1226 14.3723 13.3333 13.8636 13.3333 13.3332V4.6665H14C14.3682 4.6665 14.6666 4.36803 14.6666 3.99984C14.6666 3.63165 14.3682 3.33317 14 3.33317H11.3333ZM3.99998 4.6665V13.3332C3.99998 13.51 4.07022 13.6795 4.19524 13.8046C4.32027 13.9296 4.48984 13.9998 4.66665 13.9998H11.3333C11.5101 13.9998 11.6797 13.9296 11.8047 13.8046C11.9297 13.6795 12 13.51 12 13.3332V4.6665H3.99998ZM6.66665 6.6665C7.03484 6.6665 7.33331 6.96498 7.33331 7.33317V11.3332C7.33331 11.7014 7.03484 11.9998 6.66665 11.9998C6.29846 11.9998 5.99998 11.7014 5.99998 11.3332V7.33317C5.99998 6.96498 6.29846 6.6665 6.66665 6.6665ZM8.66665 7.33317C8.66665 6.96498 8.96512 6.6665 9.33331 6.6665C9.7015 6.6665 9.99998 6.96498 9.99998 7.33317V11.3332C9.99998 11.7014 9.7015 11.9998 9.33331 11.9998C8.96512 11.9998 8.66665 11.7014 8.66665 11.3332V7.33317Z" fill="#1084CB"/>
</svg>
