<svg width="52" height="15" viewBox="0 0 52 15" fill="none" xmlns="http://www.w3.org/2000/svg">
<mask id="path-1-inside-1_334_5736" fill="white">
<path fill-rule="evenodd" clip-rule="evenodd" d="M41.4903 14.7224L51.9614 7.36122L41.4903 0V4.72266H0V10.7227H41.4903V14.7224Z"/>
</mask>
<path fill-rule="evenodd" clip-rule="evenodd" d="M41.4903 14.7224L51.9614 7.36122L41.4903 0V4.72266H0V10.7227H41.4903V14.7224Z" fill="#D6D6D6"/>
<path d="M51.9614 7.36122L52.5365 8.17929L53.7002 7.36122L52.5365 6.54314L51.9614 7.36122ZM41.4903 14.7224H40.4903V16.6478L42.0654 15.5405L41.4903 14.7224ZM41.4903 0L42.0654 -0.818077L40.4903 -1.92538V0H41.4903ZM41.4903 4.72266V5.72266H42.4903V4.72266H41.4903ZM0 4.72266V3.72266H-1V4.72266H0ZM0 10.7227H-1V11.7227H0V10.7227ZM41.4903 10.7227H42.4903V9.72266H41.4903V10.7227ZM51.3863 6.54314L40.9152 13.9044L42.0654 15.5405L52.5365 8.17929L51.3863 6.54314ZM40.9152 0.818077L51.3863 8.17929L52.5365 6.54314L42.0654 -0.818077L40.9152 0.818077ZM42.4903 4.72266V0H40.4903V4.72266H42.4903ZM0 5.72266H41.4903V3.72266H0V5.72266ZM1 10.7227V4.72266H-1V10.7227H1ZM41.4903 9.72266H0V11.7227H41.4903V9.72266ZM42.4903 14.7224V10.7227H40.4903V14.7224H42.4903Z" fill="#D6D6D6" mask="url(#path-1-inside-1_334_5736)"/>
</svg>
