<svg width="39" height="23" viewBox="0 0 39 23" fill="none" xmlns="http://www.w3.org/2000/svg">
<mask id="path-1-inside-1_364_8632" fill="white">
<path fill-rule="evenodd" clip-rule="evenodd" d="M23.25 22.3254L39 11.5001L23.25 0.674805V7.12286H0V15.8611H23.25V22.3254Z"/>
</mask>
<path fill-rule="evenodd" clip-rule="evenodd" d="M23.25 22.3254L39 11.5001L23.25 0.674805V7.12286H0V15.8611H23.25V22.3254Z" fill="#D6D6D6"/>
<path d="M39 11.5001L39.5664 12.3242L40.7654 11.5001L39.5664 10.676L39 11.5001ZM23.25 22.3254H22.25V24.2262L23.8164 23.1496L23.25 22.3254ZM23.25 0.674805L23.8164 -0.149306L22.25 -1.22595V0.674805H23.25ZM23.25 7.12286V8.12286H24.25V7.12286H23.25ZM0 7.12286V6.12286H-1V7.12286H0ZM0 15.8611H-1V16.8611H0V15.8611ZM23.25 15.8611H24.25V14.8611H23.25V15.8611ZM38.4336 10.676L22.6836 21.5013L23.8164 23.1496L39.5664 12.3242L38.4336 10.676ZM22.6836 1.49892L38.4336 12.3242L39.5664 10.676L23.8164 -0.149306L22.6836 1.49892ZM24.25 7.12286V0.674805H22.25V7.12286H24.25ZM0 8.12286H23.25V6.12286H0V8.12286ZM1 15.8611V7.12286H-1V15.8611H1ZM23.25 14.8611H0V16.8611H23.25V14.8611ZM24.25 22.3254V15.8611H22.25V22.3254H24.25Z" fill="#D6D6D6" mask="url(#path-1-inside-1_364_8632)"/>
</svg>
