<svg width="16" height="16" viewBox="0 0 16 16" fill="none" xmlns="http://www.w3.org/2000/svg">
<path fill-rule="evenodd" clip-rule="evenodd" d="M7.52729 1.52827C7.78764 1.26792 8.20975 1.26792 8.4701 1.52827L11.8034 4.8616C12.0638 5.12195 12.0638 5.54406 11.8034 5.80441C11.5431 6.06476 11.121 6.06476 10.8606 5.80441L8.66536 3.60915V9.99967C8.66536 10.3679 8.36689 10.6663 7.9987 10.6663C7.63051 10.6663 7.33203 10.3679 7.33203 9.99967V3.60915L5.13677 5.80441C4.87642 6.06476 4.45431 6.06476 4.19396 5.80441C3.93361 5.54406 3.93361 5.12195 4.19396 4.8616L7.52729 1.52827ZM1.9987 9.33301C2.36689 9.33301 2.66536 9.63148 2.66536 9.99967V12.6663C2.66536 12.8432 2.7356 13.0127 2.86063 13.1377C2.98565 13.2628 3.15522 13.333 3.33203 13.333H12.6654C12.8422 13.333 13.0117 13.2628 13.1368 13.1377C13.2618 13.0127 13.332 12.8432 13.332 12.6663V9.99967C13.332 9.63148 13.6305 9.33301 13.9987 9.33301C14.3669 9.33301 14.6654 9.63148 14.6654 9.99967V12.6663C14.6654 13.1968 14.4547 13.7055 14.0796 14.0806C13.7045 14.4556 13.1958 14.6663 12.6654 14.6663H3.33203C2.8016 14.6663 2.29289 14.4556 1.91782 14.0806C1.54274 13.7055 1.33203 13.1968 1.33203 12.6663V9.99967C1.33203 9.63148 1.63051 9.33301 1.9987 9.33301Z" fill="#E31837"/>
</svg>
