<svg width="14" height="14" viewBox="0 0 14 14" fill="none" xmlns="http://www.w3.org/2000/svg">
<g clip-path="url(#clip0_2551_38885)">
<path d="M7.00144 12.8314C5.15569 12.8314 3.30953 12.8314 1.46378 12.8314C0.463052 12.8319 -0.000403092 12.3118 2.63052e-07 11.1952C0.00121033 8.38135 -0.00161316 5.56792 0.00161368 2.75405C0.00282375 1.68779 0.463052 1.16948 1.41376 1.16903C5.15085 1.16544 8.88834 1.16589 12.6254 1.16903C13.518 1.16993 13.9952 1.70171 13.9968 2.69746C14.0009 5.5787 14.0005 8.4595 13.9988 11.3407C13.9984 12.2601 13.4991 12.827 12.6758 12.8296C10.7845 12.8359 8.89318 12.8319 7.00184 12.8319L7.00144 12.8314ZM6.96312 11.8873C8.82501 11.8873 10.6865 11.8806 12.5484 11.8923C12.9715 11.895 13.1526 11.7104 13.1514 11.2347C13.1441 8.43704 13.1502 5.63934 13.1466 2.84164C13.1457 2.21553 13.0457 2.10819 12.4838 2.10774C8.85123 2.10504 5.21861 2.1046 1.58599 2.10684C0.925297 2.10684 0.851483 2.18769 0.850676 2.91305C0.847853 5.66 0.850273 8.4074 0.851886 11.1543C0.851886 11.7746 0.948288 11.8847 1.5142 11.8855C3.3305 11.8887 5.14681 11.8869 6.96312 11.8864V11.8873Z" fill="#231F20"/>
<path d="M3.32105 7.16533C2.44042 5.93486 2.4388 4.9158 3.29836 4.15343C4.03681 3.49858 5.18883 3.49899 5.92403 4.15464C6.78562 4.92268 6.78035 5.95265 5.89325 7.16169C6.88446 7.67991 7.48882 8.47907 7.63667 9.59797C7.64639 9.67316 7.66017 9.74835 7.66138 9.82353C7.66584 10.0988 7.56255 10.305 7.26401 10.3365C6.96101 10.3684 6.8399 10.1833 6.77914 9.91125C6.70136 9.56078 6.65195 9.18728 6.48992 8.87602C6.04474 8.02068 5.06164 7.59866 4.13564 7.80725C3.22585 8.01178 2.54169 8.7875 2.45622 9.72611C2.42665 10.0487 2.38938 10.3551 1.96163 10.3381C1.64446 10.3256 1.512 10.0564 1.5764 9.60444C1.73479 8.4916 2.32781 7.68315 3.32064 7.16533H3.32105ZM4.62659 6.69764C5.21273 6.69198 5.70084 6.21338 5.71056 5.63452C5.72028 5.04556 5.20868 4.52492 4.61646 4.52128C4.02465 4.51764 3.50657 5.03263 3.50981 5.62118C3.51305 6.21944 4.01534 6.7033 4.62699 6.69764H4.62659Z" fill="#231F20"/>
<path d="M11.4004 5.51035H8.55636C8.26822 5.51035 8.03428 5.74351 8.03428 6.03156C8.03428 6.31961 8.26822 6.55276 8.55636 6.55276H11.4004C11.6885 6.55276 11.9224 6.31961 11.9224 6.03156C11.9224 5.74351 11.6885 5.51035 11.4004 5.51035Z" fill="#EF4444" stroke="#EF4444" stroke-width="0.2"/>
<path d="M11.4004 7.23887H8.55636C8.26822 7.23887 8.03428 7.47202 8.03428 7.76007C8.03428 8.04812 8.26822 8.28128 8.55636 8.28128H11.4004C11.6885 8.28128 11.9224 8.04812 11.9224 7.76007C11.9224 7.47202 11.6885 7.23887 11.4004 7.23887Z" fill="#EF4444" stroke="#EF4444" stroke-width="0.2"/>
</g>
<defs>
<clipPath id="clip0_2551_38885">
<rect width="14" height="14" fill="white"/>
</clipPath>
</defs>
</svg>
