<svg width="18" height="20" viewBox="0 0 18 20" fill="none" xmlns="http://www.w3.org/2000/svg">
<path fill-rule="evenodd" clip-rule="evenodd" d="M5.6665 0.833252C6.12674 0.833252 6.49984 1.20635 6.49984 1.66659V2.49992H11.4998V1.66659C11.4998 1.20635 11.8729 0.833252 12.3332 0.833252C12.7934 0.833252 13.1665 1.20635 13.1665 1.66659V2.49992H14.8332C16.2139 2.49992 17.3332 3.61921 17.3332 4.99992V16.6666C17.3332 18.0473 16.2139 19.1666 14.8332 19.1666H3.1665C1.78579 19.1666 0.666504 18.0473 0.666504 16.6666V4.99992C0.666504 3.61921 1.78579 2.49992 3.1665 2.49992H4.83317V1.66659C4.83317 1.20635 5.20627 0.833252 5.6665 0.833252ZM4.83317 4.16658H3.1665C2.70627 4.16658 2.33317 4.53968 2.33317 4.99992V7.49992H15.6665V4.99992C15.6665 4.53968 15.2934 4.16658 14.8332 4.16658H13.1665V4.99992C13.1665 5.46016 12.7934 5.83325 12.3332 5.83325C11.8729 5.83325 11.4998 5.46016 11.4998 4.99992V4.16658H6.49984V4.99992C6.49984 5.46016 6.12674 5.83325 5.6665 5.83325C5.20627 5.83325 4.83317 5.46016 4.83317 4.99992V4.16658ZM15.6665 9.16658H2.33317V16.6666C2.33317 17.1268 2.70627 17.4999 3.1665 17.4999H14.8332C15.2934 17.4999 15.6665 17.1268 15.6665 16.6666V9.16658Z" fill="#231F20"/>
</svg>
