<svg width="23" height="22" viewBox="0 0 23 22" fill="none" xmlns="http://www.w3.org/2000/svg">
<path fill-rule="evenodd" clip-rule="evenodd" d="M10.1509 2.09295C10.5627 1.86107 11.0274 1.73926 11.5 1.73926C11.9726 1.73926 12.4373 1.86107 12.8491 2.09295C13.261 2.32482 13.6061 2.65893 13.8512 3.06303L13.8539 3.06738L21.618 16.0291L21.6255 16.0417C21.8656 16.4575 21.9927 16.929 21.994 17.4092C21.9953 17.8894 21.8709 18.3615 21.6332 18.7787C21.3954 19.1959 21.0525 19.5435 20.6386 19.787C20.2248 20.0305 19.7544 20.1614 19.2742 20.1667L19.2642 20.1668L3.72576 20.1668C3.2456 20.1615 2.7752 20.0305 2.36136 19.787C1.9475 19.5435 1.60463 19.1959 1.36684 18.7787C1.12906 18.3615 1.00465 17.8894 1.00599 17.4092C1.00734 16.929 1.13439 16.4575 1.37451 16.0417L1.38195 16.0291L9.14874 3.06302C9.39386 2.65892 9.73901 2.32482 10.1509 2.09295ZM11.5 3.57259C11.3425 3.57259 11.1876 3.6132 11.0503 3.69049C10.9136 3.76743 10.799 3.87814 10.7174 4.01202L2.95913 16.9638C2.88105 17.1011 2.83976 17.2563 2.83932 17.4143C2.83887 17.5744 2.88034 17.7318 2.9596 17.8708C3.03886 18.0099 3.15316 18.1258 3.29111 18.2069C3.42785 18.2874 3.58311 18.331 3.7417 18.3334H19.2583C19.4169 18.331 19.5721 18.2874 19.7089 18.2069C19.8468 18.1258 19.9611 18.0099 20.0404 17.8708C20.1197 17.7318 20.1611 17.5744 20.1607 17.4143C20.1602 17.2563 20.119 17.1011 20.0409 16.9638L12.2837 4.01385C12.2834 4.01324 12.283 4.01263 12.2826 4.01202C12.201 3.87814 12.0864 3.76743 11.9497 3.69049C11.8124 3.6132 11.6575 3.57259 11.5 3.57259ZM11.5 7.33344C12.0063 7.33344 12.4167 7.74385 12.4167 8.25011V11.9168C12.4167 12.423 12.0063 12.8334 11.5 12.8334C10.9937 12.8334 10.5833 12.423 10.5833 11.9168V8.25011C10.5833 7.74385 10.9937 7.33344 11.5 7.33344ZM10.5833 15.5834C10.5833 15.0772 10.9937 14.6668 11.5 14.6668H11.5092C12.0154 14.6668 12.4258 15.0772 12.4258 15.5834C12.4258 16.0897 12.0154 16.5001 11.5092 16.5001H11.5C10.9937 16.5001 10.5833 16.0897 10.5833 15.5834Z" fill="#EF4444"/>
<g clip-path="url(#clip0_2584_42936)">
<path d="M10.1412 3.7058C10.7642 2.6941 12.2349 2.69409 12.858 3.7058L20.9715 16.8807C21.6261 17.9436 20.8614 19.3126 19.6131 19.3126H3.38601C2.13772 19.3126 1.37304 17.9436 2.02761 16.8807L10.1412 3.7058Z" fill="#EF4444"/>
<path fill-rule="evenodd" clip-rule="evenodd" d="M11.4985 7.33398C12.0048 7.33398 12.4152 7.74439 12.4152 8.25066V11.9173C12.4152 12.4236 12.0048 12.834 11.4985 12.834C10.9923 12.834 10.5819 12.4236 10.5819 11.9173V8.25066C10.5819 7.74439 10.9923 7.33398 11.4985 7.33398ZM10.5819 15.584C10.5819 15.0778 10.9923 14.6674 11.4985 14.6674H11.5077C12.014 14.6674 12.4244 15.0778 12.4244 15.584C12.4244 16.0903 12.014 16.5007 11.5077 16.5007H11.4985C10.9923 16.5007 10.5819 16.0903 10.5819 15.584Z" fill="white"/>
</g>
<defs>
<clipPath id="clip0_2584_42936">
<rect width="18.9999" height="15.8334" fill="white" transform="translate(1.99927 3.08301)"/>
</clipPath>
</defs>
</svg>
