<svg width="20" height="20" viewBox="0 0 20 20" fill="none" xmlns="http://www.w3.org/2000/svg">
<path fill-rule="evenodd" clip-rule="evenodd" d="M9.99984 18.4167C14.6482 18.4167 18.4165 14.6484 18.4165 10C18.4165 5.3516 14.6482 1.58334 9.99984 1.58334C5.35144 1.58334 1.58317 5.35161 1.58317 10C1.58317 14.6484 5.35144 18.4167 9.99984 18.4167ZM19.9165 10C19.9165 15.4768 15.4767 19.9167 9.99984 19.9167C4.52301 19.9167 0.0831715 15.4768 0.083171 10C0.0831705 4.52318 4.52301 0.0833359 9.99984 0.0833354C15.4767 0.083335 19.9165 4.52318 19.9165 10ZM10 14.9167C9.58579 14.9167 9.25 14.5809 9.25 14.1667L9.25 10C9.25 9.58579 9.58579 9.25 10 9.25C10.4142 9.25 10.75 9.58579 10.75 10L10.75 14.1667C10.75 14.5809 10.4142 14.9167 10 14.9167ZM9.25 6.66667C9.25 7.08088 9.58579 7.41667 10 7.41667C10.4142 7.41667 10.75 7.08088 10.75 6.66667L10.75 6.25C10.75 5.83579 10.4142 5.5 10 5.5C9.58579 5.5 9.25 5.83579 9.25 6.25L9.25 6.66667Z" fill="#221F20"/>
</svg>
