<svg width="20" height="20" viewBox="0 0 20 20" fill="none" xmlns="http://www.w3.org/2000/svg">
<g clip-path="url(#clip0_71_2591)">
<path fill-rule="evenodd" clip-rule="evenodd" d="M9.99984 2.41667C5.81168 2.41667 2.4165 5.81184 2.4165 10C2.4165 14.1881 5.81168 17.5833 9.99984 17.5833H10.7498V19.0833H9.99984C4.98325 19.0833 0.916504 15.0165 0.916504 10C0.916504 4.98341 4.98325 0.916666 9.99984 0.916666C15.0164 0.916666 19.0832 4.98341 19.0832 10C19.0832 13.1695 17.4595 15.959 15.0015 17.5833H16.6668V19.0833H12.5835V15H14.0835V16.3911C16.1896 15.0424 17.5832 12.6836 17.5832 10C17.5832 5.81184 14.188 2.41667 9.99984 2.41667ZM9.25013 5.41667V9.625L6.2168 11.9L7.1168 13.1L10.7501 10.375V5.41667H9.25013Z" fill="#221F20"/>
</g>
<defs>
<clipPath id="clip0_71_2591">
<rect width="20" height="20" fill="white"/>
</clipPath>
</defs>
</svg>
