<svg width="20" height="20" viewBox="0 0 20 20" fill="none" xmlns="http://www.w3.org/2000/svg">
<path fill-rule="evenodd" clip-rule="evenodd" d="M9.70441 2.22126C9.88587 2.10878 10.1141 2.10878 10.2956 2.22126L17.865 6.9134L17.2738 7.89466L10 3.38575L2.72616 7.89466L2.13499 6.9134L9.70441 2.22126ZM5.84304 8.52571V13.6687H4.70932V8.52571H5.84304ZM8.99225 8.52571V13.6687H7.85853V8.52571H8.99225ZM12.1415 8.52571V13.6687H11.0077V8.52571H12.1415ZM15.2907 8.52571V13.6687H14.157V8.52571H15.2907ZM3.92201 15.7131H16.078V16.8631H3.92201V15.7131Z" fill="#221F20"/>
<path fill-rule="evenodd" clip-rule="evenodd" d="M9.63403 2.10445C9.8587 1.96518 10.1413 1.96518 10.366 2.10445L17.9354 6.79658C17.999 6.83601 18.019 6.92027 17.9802 6.98479L17.389 7.96605C17.3703 7.99703 17.3403 8.01922 17.3055 8.02774C17.2707 8.03626 17.234 8.03041 17.2035 8.01148L10 3.5462L2.79654 8.01148C2.766 8.03041 2.72929 8.03626 2.69449 8.02774C2.6597 8.01922 2.62966 7.99703 2.611 7.96605L2.01982 6.98479C1.98095 6.92027 2.001 6.83601 2.06461 6.79658L9.63403 2.10445ZM10.2252 2.33808C10.087 2.25238 9.91304 2.25238 9.77479 2.33808L2.32053 6.95883L2.77095 7.70645L9.92962 3.26894C9.97283 3.24216 10.0272 3.24216 10.0704 3.26894L17.2291 7.70645L17.6795 6.95883L10.2252 2.33808ZM4.57435 8.52571C4.57435 8.4501 4.63478 8.3888 4.70932 8.3888H5.84304C5.91758 8.3888 5.978 8.4501 5.978 8.52571V13.6687C5.978 13.7443 5.91758 13.8056 5.84304 13.8056H4.70932C4.63478 13.8056 4.57435 13.7443 4.57435 13.6687V8.52571ZM4.84428 8.66261V13.5318H5.70807V8.66261H4.84428ZM7.72357 8.52571C7.72357 8.4501 7.78399 8.3888 7.85853 8.3888H8.99225C9.06679 8.3888 9.12722 8.4501 9.12722 8.52571V13.6687C9.12722 13.7443 9.06679 13.8056 8.99225 13.8056H7.85853C7.78399 13.8056 7.72357 13.7443 7.72357 13.6687V8.52571ZM7.9935 8.66261V13.5318H8.85728V8.66261H7.9935ZM10.8728 8.52571C10.8728 8.4501 10.9332 8.3888 11.0077 8.3888H12.1415C12.216 8.3888 12.2764 8.4501 12.2764 8.52571V13.6687C12.2764 13.7443 12.216 13.8056 12.1415 13.8056H11.0077C10.9332 13.8056 10.8728 13.7443 10.8728 13.6687V8.52571ZM11.1427 8.66261V13.5318H12.0065V8.66261H11.1427ZM14.022 8.52571C14.022 8.4501 14.0824 8.3888 14.157 8.3888H15.2907C15.3652 8.3888 15.4256 8.4501 15.4256 8.52571V13.6687C15.4256 13.7443 15.3652 13.8056 15.2907 13.8056H14.157C14.0824 13.8056 14.022 13.7443 14.022 13.6687V8.52571ZM14.2919 8.66261V13.5318H15.1557V8.66261H14.2919ZM3.78705 15.7131C3.78705 15.6375 3.84747 15.5762 3.92201 15.5762H16.078C16.1525 15.5762 16.213 15.6375 16.213 15.7131V16.8631C16.213 16.9387 16.1525 17 16.078 17H3.92201C3.84747 17 3.78705 16.9387 3.78705 16.8631V15.7131ZM4.05698 15.85V16.7262H15.943V15.85H4.05698Z" fill="#221F20"/>
</svg>
