<svg width="20" height="20" viewBox="0 0 20 20" fill="none" xmlns="http://www.w3.org/2000/svg">
<path fill-rule="evenodd" clip-rule="evenodd" d="M13.6365 1.96967C13.9294 1.67678 14.4043 1.67678 14.6972 1.96967L18.0305 5.303C18.3234 5.5959 18.3234 6.07077 18.0305 6.36366L7.19716 17.197C7.05651 17.3376 6.86574 17.4167 6.66683 17.4167H3.3335C2.91928 17.4167 2.5835 17.0809 2.5835 16.6667V13.3333C2.5835 13.1344 2.66251 12.9437 2.80317 12.803L13.6365 1.96967ZM12.7275 5L15.0002 7.27267L16.4395 5.83333L14.1668 3.56066L12.7275 5ZM13.9395 8.33333L11.6668 6.06066L4.0835 13.644V15.9167H6.35617L13.9395 8.33333Z" fill="#221F20"/>
</svg>
