<svg width="20" height="20" viewBox="0 0 20 20" fill="none" xmlns="http://www.w3.org/2000/svg">
<g clip-path="url(#clip0_71_2604)">
<path fill-rule="evenodd" clip-rule="evenodd" d="M12.8106 3.41667L9.99995 0.606007L7.18929 3.41667H3.41662V7.18934L0.605957 10L3.41662 12.8107V16.5833H7.18929L9.99995 19.394L12.8106 16.5833H16.5833V12.8107L19.3939 10L16.5833 7.18934V3.41667H12.8106ZM7.81061 4.91667L9.99995 2.72733L12.1893 4.91667H15.0833V7.81066L17.2726 10L15.0833 12.1893V15.0833H12.1893L9.99995 17.2727L7.81061 15.0833H4.91662V12.1893L2.72728 10L4.91662 7.81066V4.91667H7.81061ZM9.5427 9.00125C9.62003 8.82525 9.6587 8.63058 9.6587 8.41725C9.6587 8.19592 9.62403 7.99592 9.5547 7.81725C9.48537 7.63592 9.38803 7.48125 9.2627 7.35325C9.14003 7.22525 8.99203 7.12658 8.8187 7.05725C8.64803 6.98525 8.46137 6.94925 8.2587 6.94925C8.05603 6.94925 7.86937 6.98525 7.6987 7.05725C7.5307 7.12658 7.38403 7.22525 7.2587 7.35325C7.13603 7.48125 7.04003 7.63592 6.9707 7.81725C6.90137 7.99592 6.8667 8.19592 6.8667 8.41725C6.8667 8.63058 6.90137 8.82525 6.9707 9.00125C7.04003 9.17725 7.13603 9.32925 7.2587 9.45725C7.38403 9.58258 7.5307 9.67992 7.6987 9.74925C7.86937 9.81858 8.05603 9.85325 8.2587 9.85325C8.4427 9.85325 8.6187 9.81858 8.7867 9.74925C8.95737 9.67992 9.1067 9.58258 9.2347 9.45725C9.3627 9.32925 9.46537 9.17725 9.5427 9.00125ZM8.6707 8.08125C8.6947 8.16925 8.7067 8.28125 8.7067 8.41725C8.7067 8.54525 8.6947 8.65192 8.6707 8.73725C8.64937 8.82258 8.6187 8.89058 8.5787 8.94125C8.5387 8.99192 8.4907 9.02792 8.4347 9.04925C8.38137 9.07058 8.3227 9.08125 8.2587 9.08125C8.1947 9.08125 8.13603 9.07058 8.0827 9.04925C8.02937 9.02792 7.98403 8.99192 7.9467 8.94125C7.90937 8.89058 7.88003 8.82258 7.8587 8.73725C7.83737 8.65192 7.8267 8.54525 7.8267 8.41725C7.8267 8.28125 7.83737 8.16925 7.8587 8.08125C7.88003 7.99058 7.90937 7.91858 7.9467 7.86525C7.98403 7.81192 8.02937 7.77458 8.0827 7.75325C8.13603 7.73192 8.1947 7.72125 8.2587 7.72125C8.3227 7.72125 8.38137 7.73192 8.4347 7.75325C8.4907 7.77458 8.5387 7.81192 8.5787 7.86525C8.6187 7.91858 8.64937 7.99058 8.6707 8.08125ZM11.6387 7.06525C11.58 7.10258 11.5307 7.14392 11.4907 7.18925L7.0987 12.8333H8.0267C8.11203 12.8333 8.18403 12.8173 8.2427 12.7853C8.30403 12.7506 8.3547 12.7079 8.3947 12.6573L12.7867 7.00525H11.8827C11.7787 7.00525 11.6974 7.02525 11.6387 7.06525ZM12.8947 12.0533C12.972 11.8746 13.0107 11.6786 13.0107 11.4653C13.0107 11.2439 12.976 11.0439 12.9067 10.8653C12.8374 10.6839 12.74 10.5293 12.6147 10.4013C12.492 10.2733 12.344 10.1746 12.1707 10.1053C12 10.0333 11.8134 9.99725 11.6107 9.99725C11.408 9.99725 11.2214 10.0333 11.0507 10.1053C10.8827 10.1746 10.736 10.2733 10.6107 10.4013C10.488 10.5293 10.392 10.6839 10.3227 10.8653C10.2534 11.0439 10.2187 11.2439 10.2187 11.4653C10.2187 11.6786 10.2534 11.8746 10.3227 12.0533C10.392 12.2293 10.488 12.3813 10.6107 12.5093C10.736 12.6346 10.8827 12.7319 11.0507 12.8013C11.2214 12.8706 11.408 12.9053 11.6107 12.9053C11.7947 12.9053 11.9707 12.8706 12.1387 12.8013C12.3094 12.7319 12.4587 12.6346 12.5867 12.5093C12.7147 12.3813 12.8174 12.2293 12.8947 12.0533ZM12.0227 11.1333C12.0467 11.2213 12.0587 11.3319 12.0587 11.4653C12.0587 11.5933 12.0467 11.6999 12.0227 11.7853C12.0014 11.8706 11.9707 11.9386 11.9307 11.9893C11.8907 12.0399 11.8427 12.0759 11.7867 12.0973C11.7334 12.1186 11.6747 12.1293 11.6107 12.1293C11.5467 12.1293 11.488 12.1186 11.4347 12.0973C11.3814 12.0759 11.336 12.0399 11.2987 11.9893C11.2614 11.9386 11.232 11.8706 11.2107 11.7853C11.1894 11.6999 11.1787 11.5933 11.1787 11.4653C11.1787 11.3319 11.1894 11.2213 11.2107 11.1333C11.232 11.0426 11.2614 10.9706 11.2987 10.9173C11.336 10.8639 11.3814 10.8266 11.4347 10.8053C11.488 10.7839 11.5467 10.7733 11.6107 10.7733C11.6747 10.7733 11.7334 10.7839 11.7867 10.8053C11.8427 10.8266 11.8907 10.8639 11.9307 10.9173C11.9707 10.9706 12.0014 11.0426 12.0227 11.1333Z" fill="#221F20"/>
</g>
<defs>
<clipPath id="clip0_71_2604">
<rect width="20" height="20" fill="white"/>
</clipPath>
</defs>
</svg>
