<svg width="20" height="20" viewBox="0 0 20 20" fill="none" xmlns="http://www.w3.org/2000/svg">
<path fill-rule="evenodd" clip-rule="evenodd" d="M0.952148 2.61905H19.0474V15.7143H0.952148V2.61905ZM2.38072 4.04762V14.2857H17.6188V4.04762H2.38072Z" fill="#221F20"/>
<path fill-rule="evenodd" clip-rule="evenodd" d="M10.0001 8.21428C9.47411 8.21428 9.04771 8.64068 9.04771 9.16667C9.04771 9.69265 9.47411 10.119 10.0001 10.119C10.5261 10.119 10.9525 9.69265 10.9525 9.16667C10.9525 8.64068 10.5261 8.21428 10.0001 8.21428ZM7.61914 9.16667C7.61914 7.8517 8.68513 6.78571 10.0001 6.78571C11.3151 6.78571 12.381 7.8517 12.381 9.16667C12.381 10.4816 11.3151 11.5476 10.0001 11.5476C8.68513 11.5476 7.61914 10.4816 7.61914 9.16667Z" fill="#221F20"/>
</svg>
