<svg width="20" height="20" viewBox="0 0 20 20" fill="none" xmlns="http://www.w3.org/2000/svg">
<path fill-rule="evenodd" clip-rule="evenodd" d="M1.83926 14.8775C4.26755 13.5643 7.04779 12.819 10.0006 12.819C12.9533 12.819 15.7336 13.5643 18.1619 14.8775L18.4315 15.0233V18.8476H1.56962V15.0233L1.83926 14.8775ZM2.59819 15.6397V17.819H17.4029V15.6397C15.1859 14.4945 12.6695 13.8476 10.0006 13.8476C7.33163 13.8476 4.81521 14.4945 2.59819 15.6397Z" fill="#221F20"/>
<path fill-rule="evenodd" clip-rule="evenodd" d="M1.7713 14.7518C4.21995 13.4276 7.02348 12.6761 10.0006 12.6761C12.9776 12.6761 15.7812 13.4276 18.2298 14.7518L18.5744 14.9382V18.9904H1.42676V14.9382L1.7713 14.7518ZM10.0006 12.9618C7.0721 12.9618 4.31515 13.7009 1.90722 15.0031L1.71247 15.1085V18.7047H18.2887V15.1085L18.0939 15.0031C15.686 13.7009 12.929 12.9618 10.0006 12.9618ZM2.74104 15.727V17.6761H17.2601V15.727C15.0818 14.6167 12.6152 13.9904 10.0006 13.9904C7.38595 13.9904 4.91939 14.6167 2.74104 15.727ZM2.53262 15.5128C4.76944 14.3573 7.30829 13.7047 10.0006 13.7047C12.6928 13.7047 15.2317 14.3573 17.4685 15.5128L17.5458 15.5527V17.9618H2.45533V15.5527L2.53262 15.5128Z" fill="#221F20"/>
<path fill-rule="evenodd" clip-rule="evenodd" d="M5.31913 1.98568H14.681V6.66663C14.681 9.25183 12.5853 11.3476 10.0001 11.3476C7.41486 11.3476 5.31913 9.25183 5.31913 6.66663V1.98568ZM6.3477 3.01425V6.66663C6.3477 8.68376 7.98293 10.319 10.0001 10.319C12.0172 10.319 13.6525 8.68376 13.6525 6.66663V3.01425H6.3477Z" fill="#221F20"/>
<path fill-rule="evenodd" clip-rule="evenodd" d="M5.17627 1.84282H14.8239V6.66663C14.8239 9.33072 12.6642 11.4904 10.0001 11.4904C7.33596 11.4904 5.17627 9.33072 5.17627 6.66663V1.84282ZM5.46198 2.12853V6.66663C5.46198 9.17293 7.49376 11.2047 10.0001 11.2047C12.5064 11.2047 14.5382 9.17293 14.5382 6.66663V2.12853H5.46198ZM6.20484 2.87139H13.7953V6.66663C13.7953 8.76266 12.0961 10.4619 10.0001 10.4619C7.90403 10.4619 6.20484 8.76266 6.20484 6.66663V2.87139ZM6.49056 3.1571V6.66663C6.49056 8.60487 8.06183 10.1762 10.0001 10.1762C11.9383 10.1762 13.5096 8.60487 13.5096 6.66663V3.1571H6.49056Z" fill="#221F20"/>
</svg>
