<svg width="20" height="20" viewBox="0 0 20 20" fill="none" xmlns="http://www.w3.org/2000/svg">
<path fill-rule="evenodd" clip-rule="evenodd" d="M4.24693 8.66861V8.66067C4.25823 5.52188 6.81157 2.98623 9.95051 2.99689C13.0898 3.00756 15.6261 5.56114 15.6155 8.70047L15.6155 8.7029V8.76841C15.5745 10.8088 14.4263 12.7659 12.9147 14.3617C12.0541 15.255 11.0932 16.046 10.051 16.7187L10.009 16.7459L9.97115 16.7786C9.94821 16.7985 9.91418 16.7985 9.89124 16.7786L9.85441 16.7468L9.8136 16.7202C8.26008 15.709 6.89664 14.4324 5.78558 12.9486L5.78102 12.9427C4.8387 11.7115 4.30264 10.2178 4.24693 8.66861ZM9.95536 1.56833C6.02705 1.55498 2.83171 4.72868 2.81836 8.65699L2.81836 8.65942V8.69343L2.81878 8.70568C2.88231 10.5548 3.5204 12.3382 4.64429 13.8079C5.84712 15.4135 7.32105 16.7965 8.9996 17.8948C9.54311 18.3308 10.3177 18.3311 10.8616 17.8958C11.9833 17.1678 13.0181 16.3138 13.9457 15.3506L13.9497 15.3464C15.5804 13.6254 16.9958 11.3394 17.044 8.78888V8.70409C17.0567 4.77635 13.8833 1.58167 9.95536 1.56833ZM10.8616 17.8958L10.8259 17.9189L10.4384 17.3188L10.9057 17.8591C10.8912 17.8716 10.8765 17.8839 10.8616 17.8958ZM8.9996 17.8948C8.98512 17.8832 8.9708 17.8713 8.95666 17.8591L9.42395 17.3188L9.0343 17.9175L8.9996 17.8948ZM4.64429 13.8079L4.64206 13.805L5.2138 13.3768L4.64659 13.8109L4.64429 13.8079ZM8.59459 8.78261C8.59459 8.04451 9.19293 7.44617 9.93103 7.44617C10.6691 7.44617 11.2675 8.04451 11.2675 8.78261C11.2675 9.5207 10.6691 10.119 9.93103 10.119C9.19293 10.119 8.59459 9.5207 8.59459 8.78261ZM9.93103 6.0176C8.40395 6.0176 7.16602 7.25554 7.16602 8.78261C7.16602 10.3097 8.40395 11.5476 9.93103 11.5476C11.4581 11.5476 12.696 10.3097 12.696 8.78261C12.696 7.25554 11.4581 6.0176 9.93103 6.0176Z" fill="#221F20"/>
</svg>
