<svg width="20" height="20" viewBox="0 0 20 20" fill="none" xmlns="http://www.w3.org/2000/svg">
<path fill-rule="evenodd" clip-rule="evenodd" d="M0.916504 3.65714H16.5832V14.9167H0.916504V3.65714ZM2.4165 5.15714V13.4167H15.0832V5.15714H2.4165ZM19.0832 6.90714V17.4167H4.1665V15.9167H17.5832V6.90714H19.0832ZM7.4165 9.16667C7.4165 8.43029 8.01346 7.83333 8.74984 7.83333C9.48622 7.83333 10.0832 8.43029 10.0832 9.16667C10.0832 9.90305 9.48622 10.5 8.74984 10.5C8.01346 10.5 7.4165 9.90305 7.4165 9.16667ZM8.74984 6.33333C7.18503 6.33333 5.9165 7.60186 5.9165 9.16667C5.9165 10.7315 7.18503 12 8.74984 12C10.3146 12 11.5832 10.7315 11.5832 9.16667C11.5832 7.60186 10.3146 6.33333 8.74984 6.33333Z" fill="#221F20"/>
</svg>
