<svg width="20" height="20" viewBox="0 0 20 20" fill="none" xmlns="http://www.w3.org/2000/svg">
<path fill-rule="evenodd" clip-rule="evenodd" d="M1.04102 2.70834H18.9577V16.4583H1.04102V2.70834ZM2.29102 3.95834V15.2083H17.7077V3.95834H2.29102Z" fill="#221F20"/>
<path fill-rule="evenodd" clip-rule="evenodd" d="M6.25016 6.875C5.67487 6.875 5.2085 7.34137 5.2085 7.91667C5.2085 8.49196 5.67487 8.95833 6.25016 8.95833C6.82546 8.95833 7.29183 8.49196 7.29183 7.91667C7.29183 7.34137 6.82546 6.875 6.25016 6.875ZM3.9585 7.91667C3.9585 6.65101 4.98451 5.625 6.25016 5.625C7.51582 5.625 8.54183 6.65101 8.54183 7.91667C8.54183 9.18232 7.51582 10.2083 6.25016 10.2083C4.98451 10.2083 3.9585 9.18232 3.9585 7.91667Z" fill="#221F20"/>
<path fill-rule="evenodd" clip-rule="evenodd" d="M13.3332 8.28278L18.7752 13.7247L17.8913 14.6086L13.3332 10.0506L7.10849 16.2753L6.22461 15.3914L13.3332 8.28278Z" fill="#221F20"/>
</svg>
