<svg width="20" height="20" viewBox="0 0 20 20" fill="none" xmlns="http://www.w3.org/2000/svg">
<path fill-rule="evenodd" clip-rule="evenodd" d="M9.22996 1.8497C10.3099 1.53775 11.7832 1.34921 13.3976 1.34921C15.0117 1.34921 16.485 1.53776 17.565 1.84969C18.1029 2.00505 18.5613 2.1961 18.8924 2.42229C19.2132 2.64139 19.4843 2.94368 19.4843 3.33333V11.6667C19.4843 12.0484 19.1937 12.3409 18.8778 12.5485C18.5433 12.7684 18.0797 12.9612 17.5346 13.1212C16.5121 13.4213 15.1451 13.6229 13.6509 13.6481V17.4475C13.6509 17.8413 13.3818 18.1504 13.0565 18.377C12.722 18.6101 12.2587 18.8072 11.7147 18.9675C10.6225 19.2894 9.13257 19.4841 7.50014 19.4841C5.86775 19.4841 4.37778 19.2897 3.28562 18.9678C2.74162 18.8076 2.27825 18.6105 1.94372 18.3774C1.61837 18.1506 1.34935 17.8415 1.34935 17.4475V13.3333C1.34935 12.9421 1.62425 12.6398 1.94751 12.4214C2.28182 12.1955 2.7447 12.0047 3.28815 11.8494C3.4731 11.7966 3.66947 11.7473 3.87603 11.7019C3.4534 11.631 3.06142 11.5487 2.70691 11.4573C2.09039 11.2983 1.57094 11.1075 1.19804 10.8911C1.01179 10.783 0.848355 10.6607 0.728225 10.521C0.607173 10.3802 0.516016 10.2043 0.516016 10V5.83333C0.516016 5.42162 0.842029 5.1203 1.19587 4.91115C1.57094 4.68946 2.09253 4.50085 2.7092 4.3467C3.90532 4.04773 5.52647 3.86214 7.31102 3.84986V3.33333C7.31102 2.94372 7.58195 2.64144 7.90271 2.42231C8.23382 2.19611 8.69214 2.00505 9.22996 1.8497ZM7.31102 4.48479C5.56418 4.4971 3.99707 4.67924 2.86317 4.96267C2.27339 5.11009 1.81862 5.2806 1.51895 5.45773C1.19805 5.64741 1.15094 5.78463 1.15094 5.83333C1.15094 5.88203 1.19805 6.01926 1.51895 6.20894C1.81862 6.38607 2.27339 6.55657 2.86317 6.70399C3.99707 6.98742 5.56418 7.16957 7.31102 7.18187V4.48479ZM7.94594 7.69777V4.27314C8.27329 4.48681 8.71537 4.66825 9.23028 4.81697C10.3103 5.12891 11.7836 5.31746 13.3976 5.31746C15.0117 5.31746 16.485 5.12891 17.565 4.81697C18.0799 4.66825 18.522 4.48681 18.8493 4.27314V7.5C18.8493 7.5437 18.8084 7.67055 18.5366 7.8529C18.2816 8.0239 17.8927 8.19471 17.3862 8.34566C16.3773 8.64633 14.9665 8.84921 13.3976 8.84921C11.8284 8.84921 10.3844 8.64633 9.34208 8.34493C8.81881 8.19362 8.41305 8.0221 8.14544 7.84968C8.058 7.79335 7.99345 7.74242 7.94594 7.69777ZM7.25346 7.81635C7.27016 7.85268 7.28946 7.88791 7.31102 7.92205V11.3485C5.56661 11.3349 3.99991 11.1351 2.86546 10.8425C2.27552 10.6903 1.81862 10.5172 1.51677 10.342C1.36565 10.2543 1.26713 10.1739 1.20963 10.107C1.15306 10.0412 1.15094 10.0067 1.15094 10V6.72835C1.16585 6.73757 1.18084 6.74663 1.19587 6.75552C1.57094 6.97721 2.09253 7.16582 2.7092 7.31996C3.89245 7.61572 5.49163 7.80052 7.25346 7.81635ZM7.94594 11.3539V8.47046C8.27011 8.65384 8.68733 8.81653 9.16571 8.95486C10.2755 9.27575 11.7802 9.48413 13.3976 9.48413C15.0146 9.48413 16.4884 9.27576 17.5676 8.95413C18.0832 8.80046 18.5239 8.61653 18.8493 8.40705V11.6667C18.8493 11.707 18.8091 11.8339 18.5291 12.0179C18.2679 12.1896 17.8706 12.3608 17.3557 12.512C16.3856 12.7967 15.0558 12.9937 13.5866 13.0141C13.4868 12.7732 13.2819 12.5762 13.0528 12.4214C12.7185 12.1955 12.2556 12.0047 11.7121 11.8494C10.7211 11.5663 9.40202 11.3849 7.94594 11.3539ZM13.016 13.3333C13.016 13.2642 12.9645 13.1279 12.6974 12.9475C12.4413 12.7745 12.0499 12.6062 11.5377 12.4599C10.5177 12.1685 9.09011 11.9841 7.50014 11.9841C5.91018 11.9841 4.48257 12.1685 3.46255 12.4599C2.95038 12.6062 2.55899 12.7745 2.30293 12.9475C2.03582 13.1279 1.98427 13.2642 1.98427 13.3333C1.98427 13.4025 2.03582 13.5387 2.30293 13.7192C2.55899 13.8922 2.95038 14.0604 3.46255 14.2067C4.48257 14.4981 5.91018 14.6825 7.50014 14.6825C9.09011 14.6825 10.5177 14.4981 11.5377 14.2067C12.0499 14.0604 12.4413 13.8922 12.6974 13.7192C12.9645 13.5387 13.016 13.4025 13.016 13.3333ZM1.98427 14.2696V17.4475C1.98427 17.5285 2.04171 17.6718 2.30672 17.8564C2.56255 18.0347 2.95345 18.2081 3.46508 18.3588C4.48417 18.6591 5.91087 18.8492 7.50014 18.8492C9.08938 18.8492 10.5161 18.6589 11.5352 18.3585C12.0468 18.2077 12.4377 18.0343 12.6936 17.8561C12.9587 17.6714 13.016 17.5282 13.016 17.4475V14.2696C12.6849 14.4849 12.2359 14.6676 11.7121 14.8172C10.6209 15.129 9.13184 15.3175 7.50014 15.3175C5.86844 15.3175 4.37938 15.129 3.28815 14.8172C2.76434 14.6676 2.31539 14.4849 1.98427 14.2696ZM18.8493 3.33333C18.8493 3.40409 18.7975 3.54035 18.5343 3.72008C18.2816 3.89271 17.895 4.06078 17.3888 4.20699C16.3807 4.49817 14.9694 4.68254 13.3976 4.68254C11.8258 4.68254 10.4146 4.49817 9.40647 4.20699C8.90027 4.06078 8.51371 3.89271 8.26095 3.72008C7.99781 3.54035 7.94594 3.40409 7.94594 3.33333C7.94594 3.26253 7.99781 3.12627 8.26086 2.94657C8.51355 2.77395 8.90002 2.60588 9.40616 2.45968C10.4142 2.1685 11.8254 1.98413 13.3976 1.98413C14.9694 1.98413 16.3807 2.1685 17.3888 2.45968C17.895 2.60589 18.2816 2.77395 18.5343 2.94659C18.7975 3.12632 18.8493 3.26257 18.8493 3.33333Z" fill="#221F20"/>
<path fill-rule="evenodd" clip-rule="evenodd" d="M9.20221 1.75363C10.2934 1.43841 11.7765 1.24921 13.3976 1.24921C15.0183 1.24921 16.5014 1.43841 17.5928 1.75362C18.1356 1.91042 18.6053 2.10509 18.9488 2.33971C19.2784 2.56481 19.5843 2.89323 19.5843 3.33333V11.6667C19.5843 12.1024 19.2539 12.421 18.9328 12.6321C18.5866 12.8596 18.1126 13.0557 17.5627 13.2171C16.5526 13.5136 15.2139 13.7139 13.7509 13.7462V17.4475C13.7509 17.8909 13.4482 18.226 13.1137 18.4591C12.7668 18.7008 12.2921 18.9016 11.743 19.0634C10.6393 19.3888 9.13937 19.5841 7.50014 19.5841C5.86096 19.5841 4.36102 19.389 3.25736 19.0638C2.70825 18.902 2.23347 18.7012 1.88654 18.4594C1.55197 18.2262 1.24935 17.891 1.24935 17.4475V13.3333C1.24935 12.8911 1.55974 12.5627 1.89153 12.3385C2.23816 12.1044 2.71229 11.9099 3.26068 11.7533C3.30511 11.7406 3.35018 11.7281 3.39586 11.7158C3.14444 11.666 2.9059 11.6119 2.68193 11.5541C2.06122 11.394 1.53192 11.2005 1.14784 10.9776C0.956054 10.8663 0.782395 10.7373 0.652403 10.5862C0.521279 10.4337 0.416016 10.2356 0.416016 10V5.83333C0.416016 5.36421 0.786333 5.03706 1.14499 4.82507C1.53192 4.59635 2.06403 4.40489 2.68495 4.24969C3.86846 3.95386 5.46002 3.76911 7.21102 3.75072V3.33333C7.21102 2.89329 7.51675 2.56487 7.8463 2.33974C8.18976 2.1051 8.6594 1.91042 9.20221 1.75363ZM13.3976 1.44921C11.7898 1.44921 10.3263 1.6371 9.25771 1.94577C8.72489 2.09968 8.27788 2.28711 7.95912 2.50488C7.64715 2.718 7.41102 2.99415 7.41102 3.33333V3.94917L7.3117 3.94985C5.53271 3.9621 3.91984 4.14717 2.73345 4.44372C2.12102 4.5968 1.60995 4.78256 1.24676 4.99724C0.897724 5.20354 0.616016 5.47903 0.616016 5.83333V10C0.616016 10.1731 0.693066 10.3267 0.804046 10.4558C0.914315 10.584 1.06753 10.6997 1.24824 10.8046C1.60995 11.0146 2.11955 11.2025 2.73188 11.3605C3.08325 11.4511 3.47238 11.5328 3.89257 11.6033L3.89751 11.7995C3.69277 11.8446 3.4984 11.8934 3.31562 11.9456C2.7771 12.0994 2.32547 12.2867 2.00349 12.5042C1.68877 12.7169 1.44935 12.993 1.44935 13.3333V17.4475C1.44935 17.792 1.68477 18.075 2.00089 18.2953C2.32303 18.5198 2.77499 18.7131 3.31389 18.8719C4.39454 19.1903 5.87454 19.3841 7.50014 19.3841C9.12577 19.3841 10.6058 19.1901 11.6864 18.8716C12.2253 18.7128 12.6773 18.5194 12.9994 18.295C13.3154 18.0748 13.5509 17.7918 13.5509 17.4475V13.5498L13.6492 13.5481C15.1364 13.523 16.4942 13.3223 17.5064 13.0252C18.0468 12.8666 18.4999 12.6773 18.8229 12.4649C19.1334 12.2609 19.3843 11.9945 19.3843 11.6667V3.33333C19.3843 2.99412 19.148 2.71797 18.836 2.50487C18.5172 2.28711 18.0701 2.09968 17.5373 1.94577C16.4686 1.6371 15.005 1.44921 13.3976 1.44921ZM13.3976 2.08413C11.8321 2.08413 10.4306 2.26784 9.43391 2.55575C8.93275 2.70052 8.5576 2.86496 8.31727 3.02914C8.064 3.20216 8.04594 3.31223 8.04594 3.33333C8.04594 3.35438 8.06398 3.46445 8.31735 3.6375C8.55776 3.8017 8.933 3.96614 9.43421 4.11091C10.431 4.39883 11.8325 4.58254 13.3976 4.58254C14.9628 4.58254 16.3643 4.39883 17.3611 4.11091C17.8623 3.96614 18.2375 3.8017 18.4779 3.6375C18.7313 3.46445 18.7493 3.35438 18.7493 3.33333C18.7493 3.31229 18.7313 3.20222 18.4779 3.02917C18.2375 2.86497 17.8623 2.70052 17.3611 2.55575C16.3643 2.26784 14.9628 2.08413 13.3976 2.08413ZM9.37841 2.36361C10.3978 2.06915 11.8188 1.88413 13.3976 1.88413C14.9761 1.88413 16.3971 2.06915 17.4166 2.36361C17.9277 2.51125 18.3256 2.68294 18.5907 2.86401C18.8636 3.05041 18.9494 3.21286 18.9494 3.33333C18.9494 3.45381 18.8636 3.61625 18.5907 3.80265C18.3256 3.98373 17.9277 4.15541 17.4166 4.30306C16.3971 4.59751 14.9761 4.78254 13.3976 4.78254C11.8192 4.78254 10.3982 4.59751 9.37872 4.30306C8.86754 4.15541 8.46966 3.98373 8.20455 3.80265C7.93164 3.61625 7.84594 3.45381 7.84594 3.33333C7.84594 3.21283 7.93162 3.05038 8.20445 2.864C8.4695 2.68293 8.86729 2.51125 9.37841 2.36361ZM7.84594 4.08845L8.0006 4.1894C8.31641 4.39554 8.74806 4.5736 9.25803 4.7209C10.3267 5.02957 11.7903 5.21746 13.3976 5.21746C15.005 5.21746 16.4686 5.02957 17.5373 4.7209C18.0472 4.5736 18.4789 4.39554 18.7947 4.1894L18.9494 4.08845V7.5C18.9494 7.59593 18.8712 7.74888 18.5923 7.93595C18.3256 8.11477 17.9262 8.28909 17.4148 8.44149C16.3948 8.74546 14.9741 8.94921 13.3976 8.94921C11.8208 8.94921 10.3673 8.74546 9.3143 8.44099C8.78639 8.28834 8.37033 8.11354 8.09128 7.93374C7.99972 7.87475 7.93016 7.82017 7.87745 7.77064L7.84594 7.74102V4.08845ZM8.04594 4.45093V7.65309C8.08496 7.68643 8.13518 7.72411 8.1996 7.76562C8.45576 7.93066 8.85123 8.0989 9.36985 8.24886C10.4016 8.5472 11.836 8.74921 13.3976 8.74921C14.9589 8.74921 16.3599 8.54719 17.3577 8.24982C17.8593 8.10033 18.2376 7.93303 18.4809 7.76985C18.7219 7.6082 18.7466 7.51022 18.7491 7.50033L18.7493 4.45093C18.4323 4.63102 18.0371 4.78469 17.5928 4.91304C16.5014 5.22825 15.0183 5.41746 13.3976 5.41746C11.777 5.41746 10.2938 5.22825 9.20253 4.91304C8.75816 4.78469 8.36299 4.63101 8.04594 4.45093ZM7.41102 4.38409V7.28258L7.31031 7.28187C5.55793 7.26953 3.98255 7.08687 2.83892 6.80101C2.24491 6.65253 1.77961 6.47918 1.46806 6.29502C1.14107 6.10175 1.05094 5.93863 1.05094 5.83333C1.05094 5.72803 1.14107 5.56492 1.46806 5.37164C1.77961 5.18749 2.24491 5.01413 2.83892 4.86566C3.98255 4.5798 5.55793 4.39714 7.31031 4.38479L7.41102 4.38409ZM7.21102 4.58569C5.51036 4.60411 3.98988 4.78412 2.88742 5.05969C2.30186 5.20605 1.85762 5.3737 1.56983 5.54382C1.27935 5.71551 1.25342 5.82358 1.25115 5.83305C1.25342 5.84252 1.27935 5.95115 1.56983 6.12285C1.85762 6.29296 2.30186 6.46062 2.88742 6.60698C3.98988 6.88255 5.51036 7.06256 7.21102 7.08098V4.58569ZM1.05094 6.54894L1.20353 6.6433C1.21786 6.65216 1.23227 6.66087 1.24676 6.66943C1.60995 6.88411 2.12102 7.06987 2.73345 7.22295C3.90705 7.5163 5.49803 7.70058 7.25436 7.71636L7.31783 7.71693L7.34433 7.7746C7.35905 7.80663 7.37621 7.83799 7.39558 7.86868L7.41102 7.89313V11.4493L7.31024 11.4485C5.55954 11.4349 3.98447 11.2344 2.84049 10.9393C2.24637 10.7861 1.77961 10.6102 1.46657 10.4285C1.30993 10.3376 1.20117 10.2505 1.13381 10.1722C1.06667 10.0941 1.05094 10.0374 1.05094 10V6.54894ZM1.25094 6.90137V9.99184C1.25369 9.99824 1.26225 10.0148 1.28545 10.0418C1.33308 10.0972 1.42138 10.171 1.56697 10.2555C1.85763 10.4242 2.30467 10.5946 2.89044 10.7457C3.99356 11.0302 5.51349 11.2272 7.21102 11.2475V7.95021C7.20428 7.93885 7.19775 7.92736 7.19145 7.91573C5.44819 7.89618 3.86407 7.71171 2.68495 7.41698C2.11891 7.27549 1.62667 7.10387 1.25094 6.90137ZM18.9494 8.22375V11.6667C18.9494 11.7158 18.9271 11.7783 18.8741 11.8486C18.8202 11.9201 18.7305 12.0052 18.584 12.1015C18.3112 12.2808 17.9035 12.4554 17.3839 12.6079C16.4034 12.8957 15.0644 13.0935 13.588 13.1141L13.5202 13.115L13.4943 13.0524C13.4051 12.8372 13.2183 12.6539 12.9968 12.5042C12.6748 12.2867 12.2232 12.0994 11.6847 11.9456C10.704 11.6654 9.39382 11.4847 7.94381 11.4539L7.84594 11.4518V8.299L7.99517 8.38342C8.31027 8.56166 8.71953 8.72175 9.19349 8.8588C10.2926 9.17662 11.7878 9.38413 13.3976 9.38413C15.0071 9.38413 16.4709 9.17662 17.539 8.8583C18.0498 8.70607 18.4807 8.52542 18.7952 8.32296L18.9494 8.22375ZM18.7493 8.58388C18.4344 8.7615 18.0408 8.91745 17.5961 9.04997C16.5058 9.37489 15.0222 9.58413 13.3976 9.58413C11.7726 9.58413 10.2583 9.37489 9.13793 9.05093C8.7245 8.93138 8.35332 8.79298 8.04594 8.63731V11.2563C9.46945 11.2932 10.7606 11.4736 11.7396 11.7533C12.288 11.9099 12.7621 12.1044 13.1088 12.3385C13.3266 12.4857 13.5328 12.6758 13.6505 12.9131C15.0865 12.8879 16.3821 12.6935 17.3276 12.416C17.8377 12.2663 18.2245 12.0985 18.4742 11.9344C18.6077 11.8466 18.6782 11.7762 18.7144 11.7282C18.7461 11.6862 18.7494 11.6647 18.7494 11.6647L18.7493 8.58388ZM7.50014 12.0841C5.91675 12.0841 4.49883 12.2679 3.49002 12.5561C2.98277 12.701 2.60264 12.8657 2.35891 13.0304C2.10136 13.2044 2.08427 13.3144 2.08427 13.3333C2.08427 13.3522 2.10136 13.4623 2.35891 13.6363C2.60264 13.801 2.98277 13.9657 3.49002 14.1106C4.49883 14.3988 5.91675 14.5825 7.50014 14.5825C9.08354 14.5825 10.5015 14.3988 11.5103 14.1106C12.0175 13.9657 12.3976 13.801 12.6414 13.6363C12.8989 13.4623 12.916 13.3522 12.916 13.3333C12.916 13.3144 12.8989 13.2044 12.6414 13.0304C12.3976 12.8657 12.0175 12.701 11.5103 12.5561C10.5015 12.2679 9.08354 12.0841 7.50014 12.0841ZM3.43508 12.3638C4.46632 12.0692 5.9036 11.8841 7.50014 11.8841C9.09668 11.8841 10.534 12.0692 11.5652 12.3638C12.0823 12.5115 12.4849 12.6833 12.7533 12.8646C13.03 13.0515 13.116 13.214 13.116 13.3333C13.116 13.4527 13.03 13.6151 12.7533 13.802C12.4849 13.9833 12.0823 14.1552 11.5652 14.3029C10.534 14.5975 9.09668 14.7825 7.50014 14.7825C5.9036 14.7825 4.46632 14.5975 3.43508 14.3029C2.91799 14.1552 2.51534 13.9833 2.24695 13.802C1.97029 13.6151 1.88427 13.4527 1.88427 13.3333C1.88427 13.214 1.97029 13.0515 2.24695 12.8646C2.51534 12.6833 2.91799 12.5115 3.43508 12.3638ZM13.116 14.0854V17.4475C13.116 17.5771 13.026 17.7464 12.7508 17.9381C12.4825 18.125 12.0802 18.3021 11.5635 18.4544C10.5328 18.7582 9.09619 18.9492 7.50014 18.9492C5.90408 18.9492 4.46742 18.7584 3.43681 18.4547C2.9201 18.3025 2.51778 18.1254 2.24955 17.9385C1.9744 17.7467 1.88427 17.5774 1.88427 17.4475V14.0854L2.03877 14.1858C2.35826 14.3935 2.79671 14.5728 3.31562 14.7211C4.39563 15.0296 5.87502 15.2175 7.50014 15.2175C9.12527 15.2175 10.6047 15.0296 11.6847 14.7211C12.2036 14.5728 12.642 14.3935 12.9615 14.1858L13.116 14.0854ZM12.916 14.4471C12.5946 14.6289 12.1925 14.784 11.7396 14.9134C10.6372 15.2283 9.13842 15.4175 7.50014 15.4175C5.86187 15.4175 4.36313 15.2283 3.26068 14.9134C2.80779 14.784 2.40571 14.6289 2.08427 14.4471V17.4475C2.08427 17.4797 2.10901 17.5968 2.3639 17.7744C2.60733 17.944 2.98681 18.1136 3.49334 18.2629C4.50093 18.5598 5.91766 18.7492 7.50014 18.7492C9.08258 18.7492 10.4993 18.5596 11.5069 18.2626C12.0134 18.1133 12.393 17.9437 12.6364 17.774C12.8914 17.5964 12.916 17.4794 12.916 17.4475V14.4471Z" fill="#221F20"/>
</svg>
