<svg width="20" height="20" viewBox="0 0 20 20" fill="none" xmlns="http://www.w3.org/2000/svg">
<path fill-rule="evenodd" clip-rule="evenodd" d="M10 18.8889C14.9092 18.8889 18.8889 14.9092 18.8889 10C18.8889 5.0908 14.9092 1.11111 10 1.11111C5.0908 1.11111 1.11111 5.0908 1.11111 10C1.11111 14.9092 5.0908 18.8889 10 18.8889ZM10 20C15.5228 20 20 15.5228 20 10C20 4.47715 15.5228 0 10 0C4.47715 0 0 4.47715 0 10C0 15.5228 4.47715 20 10 20Z" fill="#221F20"/>
<path d="M17.1431 10C17.1431 13.9449 13.9452 17.1429 10.0003 17.1429C6.05539 17.1429 2.85742 13.9449 2.85742 10C2.85742 6.05511 6.05539 2.85714 10.0003 2.85714C13.9452 2.85714 17.1431 6.05511 17.1431 10Z" fill="#221F20"/>
</svg>
