<svg width="20" height="20" viewBox="0 0 20 20" fill="none" xmlns="http://www.w3.org/2000/svg">
<path fill-rule="evenodd" clip-rule="evenodd" d="M8.45734 0.720684L7.56236 1.61566L9.22435 3.27765H4.18701V19.3096H16.0001V3.27765H11.0143L12.6763 1.61566L11.7813 0.720684L10.1193 2.38267L8.45734 0.720684ZM14.7344 4.54333H5.4527V18.044H14.7344V4.54333ZM10.0937 9.60607C10.7928 9.60607 11.3594 9.0394 11.3594 8.34039C11.3594 7.64137 10.7928 7.0747 10.0937 7.0747C9.39471 7.0747 8.82805 7.64137 8.82805 8.34039C8.82805 9.0394 9.39471 9.60607 10.0937 9.60607ZM10.0937 10.8718C11.4918 10.8718 12.6251 9.73842 12.6251 8.34039C12.6251 6.94235 11.4918 5.80902 10.0937 5.80902C8.6957 5.80902 7.56236 6.94235 7.56236 8.34039C7.56236 9.73842 8.6957 10.8718 10.0937 10.8718ZM7.56236 14.036H12.6251V12.7703H7.56236V14.036ZM12.6251 16.5673H7.56236V15.3016H12.6251V16.5673Z" fill="#221F20"/>
</svg>
