<svg width="20" height="20" viewBox="0 0 20 20" fill="none" xmlns="http://www.w3.org/2000/svg">
<path fill-rule="evenodd" clip-rule="evenodd" d="M10.2337 2.17316L12.1527 7.70586L17.7581 7.91114C17.8099 7.91268 17.8599 7.93112 17.9012 7.9639C17.9425 7.99668 17.973 8.04217 17.9886 8.09402C18.0041 8.14588 18.0038 8.20152 17.9878 8.25321C17.9717 8.30489 17.9407 8.35004 17.8991 8.38236L13.4842 12.0041L15.031 17.665C15.0452 17.7171 15.0436 17.7725 15.0265 17.8236C15.0095 17.8747 14.9777 17.919 14.9357 17.9504C14.8937 17.9818 14.8434 17.9988 14.7918 17.999C14.7402 17.9993 14.6898 17.9827 14.6475 17.9516L9.99933 14.6619L5.34866 17.9541C5.30628 17.9846 5.25593 18.0007 5.20452 18C5.15311 17.9993 5.10316 17.9819 5.06154 17.9502C5.01992 17.9186 4.98866 17.8741 4.97207 17.823C4.95548 17.772 4.95436 17.7168 4.96888 17.665L6.51448 12.0041L2.09512 8.379C2.05498 8.34589 2.02551 8.30063 2.0107 8.24935C1.99589 8.19807 1.99647 8.14325 2.01234 8.09232C2.02822 8.0414 2.05863 7.99682 2.09945 7.96465C2.14027 7.93247 2.18954 7.91425 2.24056 7.91245L7.84602 7.70717L9.765 2.17316C9.7823 2.12247 9.81409 2.07863 9.85604 2.04763C9.89799 2.01664 9.94803 2 9.99933 2C10.0506 2 10.1007 2.01664 10.1426 2.04763C10.1846 2.07863 10.2164 2.12247 10.2337 2.17316Z" fill="#221F20"/>
</svg>
