<svg width="31" height="30" viewBox="0 0 31 30" fill="none" xmlns="http://www.w3.org/2000/svg">
<rect x="0.60498" width="30" height="30" rx="15" fill="#C1EFC3"/>
<path fill-rule="evenodd" clip-rule="evenodd" d="M15.605 8C11.744 8 8.60498 11.1391 8.60498 15C8.60498 18.8609 11.744 22 15.605 22C19.4659 22 22.605 18.8609 22.605 15C22.605 11.1391 19.4659 8 15.605 8Z" fill="#4BAE4F"/>
<path d="M14.864 16.0141L18.4148 12.4609L18.9686 13.0147L14.4378 17.5406C14.1151 17.2171 13.7905 16.8903 13.4653 16.5628C13.0567 16.1514 12.6471 15.7389 12.2389 15.3307L12.7887 14.7809L14.0221 16.0143L14.4431 16.4353L14.864 16.0141Z" fill="white" stroke="white" stroke-width="1.19048"/>
</svg>
