<svg width="31" height="30" viewBox="0 0 31 30" fill="none" xmlns="http://www.w3.org/2000/svg">
<rect x="0.676453" width="30" height="30" rx="15" fill="#C1EFC3"/>
<path fill-rule="evenodd" clip-rule="evenodd" d="M15.6765 8C11.8155 8 8.67645 11.1391 8.67645 15C8.67645 18.8609 11.8155 22 15.6765 22C19.5374 22 22.6765 18.8609 22.6765 15C22.6765 11.1391 19.5374 8 15.6765 8Z" fill="#4BAE4F"/>
<path d="M14.9355 16.0142L18.4862 12.4609L19.0401 13.0148L14.5093 17.5407C14.1865 17.2172 13.862 16.8904 13.5368 16.5629C13.1282 16.1515 12.7185 15.739 12.3103 15.3308L12.8601 14.781L14.0935 16.0144L14.5146 16.4354L14.9355 16.0142Z" fill="white" stroke="white" stroke-width="1.19048"/>
</svg>
