<svg width="20" height="20" viewBox="0 0 20 20" fill="none" xmlns="http://www.w3.org/2000/svg">
<g clip-path="url(#clip0_233_7243)">
<path fill-rule="evenodd" clip-rule="evenodd" d="M10.0001 0.733334C4.88223 0.733334 0.733398 4.88216 0.733398 10C0.733398 15.1178 4.88222 19.2667 10.0001 19.2667C15.1179 19.2667 19.2667 15.1178 19.2667 10C19.2667 4.88216 15.1179 0.733334 10.0001 0.733334ZM2.1834 10C2.1834 5.68297 5.68304 2.18333 10.0001 2.18333C14.3171 2.18333 17.8167 5.68297 17.8167 10C17.8167 14.317 14.3171 17.8167 10.0001 17.8167C5.68304 17.8167 2.1834 14.317 2.1834 10ZM9.2749 6.15H10.7249V10.4708L13.8482 12.8133L12.9782 13.9733L9.2749 11.1958V6.15Z" fill="#221F20"/>
</g>
<defs>
<clipPath id="clip0_233_7243">
<rect width="20" height="20" fill="white"/>
</clipPath>
</defs>
</svg>
