<svg width="16" height="16" viewBox="0 0 16 16" fill="none" xmlns="http://www.w3.org/2000/svg">
<path fill-rule="evenodd" clip-rule="evenodd" d="M8.00026 14.7334C11.719 14.7333 14.7336 11.7187 14.7336 8.00002C14.7336 4.2813 11.719 1.26668 8.00026 1.26668C4.28154 1.26668 1.26693 4.2813 1.26693 8.00002C1.26693 11.7187 4.28154 14.7334 8.00026 14.7334ZM15.9336 8.00002C15.9336 12.3815 12.3817 15.9333 8.00026 15.9334C3.6188 15.9334 0.0669295 12.3815 0.0669291 8.00002C0.0669287 3.61856 3.6188 0.0666848 8.00026 0.0666845C12.3817 0.0666841 15.9336 3.61856 15.9336 8.00002ZM8.00039 11.9334C7.66902 11.9334 7.40039 11.6647 7.40039 11.3334L7.40039 8.00002C7.40039 7.66865 7.66902 7.40002 8.00039 7.40002C8.33176 7.40002 8.60039 7.66865 8.60039 8.00002L8.60039 11.3334C8.60039 11.6647 8.33176 11.9334 8.00039 11.9334ZM7.40039 5.33335C7.40039 5.66472 7.66902 5.93335 8.00039 5.93335C8.33176 5.93335 8.60039 5.66472 8.60039 5.33335L8.60039 5.00002C8.60039 4.66865 8.33176 4.40002 8.00039 4.40002C7.66902 4.40002 7.40039 4.66865 7.40039 5.00002L7.40039 5.33335Z" fill="white"/>
</svg>
