<svg width="14" height="11" viewBox="0 0 14 11" fill="none" xmlns="http://www.w3.org/2000/svg">
<path fill-rule="evenodd" clip-rule="evenodd" d="M0.641602 0.560059H11.6083V8.44178H0.641602V0.560059ZM1.6916 1.61006V7.39178H10.5583V1.61006H1.6916ZM13.3583 2.83506V10.1918H2.9166V9.14178H12.3083V2.83506H13.3583ZM5.1916 4.41673C5.1916 3.90126 5.60947 3.48339 6.12493 3.48339C6.6404 3.48339 7.05827 3.90126 7.05827 4.41673C7.05827 4.93219 6.6404 5.35006 6.12493 5.35006C5.60947 5.35006 5.1916 4.93219 5.1916 4.41673ZM6.12493 2.43339C5.02957 2.43339 4.1416 3.32136 4.1416 4.41673C4.1416 5.51209 5.02957 6.40006 6.12493 6.40006C7.2203 6.40006 8.10827 5.51209 8.10827 4.41673C8.10827 3.32136 7.2203 2.43339 6.12493 2.43339Z" fill="#221F20"/>
</svg>
