<svg width="20" height="20" viewBox="0 0 20 20" fill="none" xmlns="http://www.w3.org/2000/svg">
<g clip-path="url(#clip0_1777_1062)">
<path fill-rule="evenodd" clip-rule="evenodd" d="M10.1516 2.81836C10.6118 2.81836 10.9849 3.19146 10.9849 3.65169V11.6398L13.729 8.89577C14.0544 8.57033 14.5821 8.57033 14.9075 8.89577C15.2329 9.22121 15.2329 9.74884 14.9075 10.0743L10.7408 14.2409C10.4154 14.5664 9.88775 14.5664 9.56231 14.2409L5.39565 10.0743C5.07021 9.74884 5.07021 9.22121 5.39565 8.89577C5.72109 8.57033 6.24872 8.57033 6.57416 8.89577L9.31824 11.6398V3.65169C9.31824 3.19146 9.69133 2.81836 10.1516 2.81836ZM2.65157 12.8184C3.11181 12.8184 3.4849 13.1915 3.4849 13.6517V16.985C3.4849 17.206 3.5727 17.418 3.72898 17.5743C3.88526 17.7306 4.09722 17.8184 4.31824 17.8184H15.9849C16.2059 17.8184 16.4179 17.7306 16.5742 17.5743C16.7304 17.418 16.8182 17.206 16.8182 16.985V13.6517C16.8182 13.1915 17.1913 12.8184 17.6516 12.8184C18.1118 12.8184 18.4849 13.1915 18.4849 13.6517V16.985C18.4849 17.6481 18.2215 18.284 17.7527 18.7528C17.2838 19.2216 16.6479 19.485 15.9849 19.485H4.31824C3.6552 19.485 3.01931 19.2216 2.55047 18.7528C2.08163 18.284 1.81824 17.6481 1.81824 16.985V13.6517C1.81824 13.1915 2.19133 12.8184 2.65157 12.8184Z" fill="#231F20"/>
<path fill-rule="evenodd" clip-rule="evenodd" d="M10.1515 2.81836C10.6117 2.81836 10.9848 3.19146 10.9848 3.65169V11.6398L13.7289 8.89577C14.0543 8.57033 14.582 8.57033 14.9074 8.89577C15.2328 9.22121 15.2328 9.74884 14.9074 10.0743L10.7407 14.2409C10.4153 14.5664 9.88767 14.5664 9.56223 14.2409L5.39557 10.0743C5.07013 9.74884 5.07013 9.22121 5.39557 8.89577C5.721 8.57033 6.24864 8.57033 6.57408 8.89577L9.31816 11.6398V3.65169C9.31816 3.19146 9.69125 2.81836 10.1515 2.81836Z" fill="#EF4444"/>
</g>
<defs>
<clipPath id="clip0_1777_1062">
<rect width="20" height="20" fill="white"/>
</clipPath>
</defs>
</svg>
