<svg width="20" height="20" viewBox="0 0 20 20" fill="none" xmlns="http://www.w3.org/2000/svg">
<g clip-path="url(#clip0_1777_3701)">
<path fill-rule="evenodd" clip-rule="evenodd" d="M16.6663 2.39909C16.4185 2.39909 16.1808 2.49754 16.0056 2.67278L8.25214 10.4262L7.81165 12.1882L9.57363 11.7477L17.3271 3.99427C17.5023 3.81903 17.6008 3.58135 17.6008 3.33352C17.6008 3.0857 17.5023 2.84802 17.3271 2.67278C17.1518 2.49754 16.9142 2.39909 16.6663 2.39909ZM14.8271 1.49427C15.3149 1.00647 15.9765 0.732422 16.6663 0.732422C17.3562 0.732422 18.0178 1.00647 18.5056 1.49427C18.9934 1.98207 19.2674 2.64367 19.2674 3.33352C19.2674 4.02338 18.9934 4.68498 18.5056 5.17278L10.5889 13.0894C10.4821 13.1962 10.3483 13.272 10.2018 13.3086L6.86845 14.142C6.58448 14.213 6.28407 14.1298 6.07709 13.9228C5.8701 13.7158 5.78689 13.4154 5.85789 13.1314L6.69122 9.79808C6.72785 9.65155 6.80362 9.51773 6.91042 9.41093L14.8271 1.49427ZM1.56524 3.23242C2.03408 2.76358 2.66997 2.50019 3.33301 2.50019H9.16634C9.62658 2.50019 9.99967 2.87328 9.99967 3.33352C9.99967 3.79376 9.62658 4.16686 9.16634 4.16686H3.33301C3.11199 4.16686 2.90003 4.25465 2.74375 4.41093C2.58747 4.56721 2.49967 4.77917 2.49967 5.00019V16.6669C2.49967 16.8879 2.58747 17.0998 2.74375 17.2561C2.90003 17.4124 3.11199 17.5002 3.33301 17.5002H14.9997C15.2207 17.5002 15.4326 17.4124 15.5889 17.2561C15.7452 17.0998 15.833 16.8879 15.833 16.6669V10.8335C15.833 10.3733 16.2061 10.0002 16.6663 10.0002C17.1266 10.0002 17.4997 10.3733 17.4997 10.8335V16.6669C17.4997 17.3299 17.2363 17.9658 16.7674 18.4346C16.2986 18.9035 15.6627 19.1669 14.9997 19.1669H3.33301C2.66997 19.1669 2.03408 18.9035 1.56524 18.4346C1.0964 17.9658 0.833008 17.3299 0.833008 16.6669V5.00019C0.833008 4.33715 1.0964 3.70126 1.56524 3.23242Z" fill="#231F20"/>
<path fill-rule="evenodd" clip-rule="evenodd" d="M16.6664 2.39909C16.4185 2.39909 16.1809 2.49754 16.0056 2.67278L8.25216 10.4262L7.81167 12.1882L9.57365 11.7477L17.3271 3.99427C17.5023 3.81903 17.6008 3.58135 17.6008 3.33352C17.6008 3.0857 17.5023 2.84802 17.3271 2.67278C17.1519 2.49754 16.9142 2.39909 16.6664 2.39909ZM14.8271 1.49427C15.3149 1.00647 15.9765 0.732422 16.6664 0.732422C17.3562 0.732422 18.0178 1.00647 18.5056 1.49427C18.9934 1.98207 19.2675 2.64367 19.2675 3.33352C19.2675 4.02338 18.9934 4.68498 18.5056 5.17278L10.5889 13.0894C10.4821 13.1962 10.3483 13.272 10.2018 13.3086L6.86847 14.142C6.58449 14.213 6.28409 14.1298 6.0771 13.9228C5.87012 13.7158 5.78691 13.4154 5.85791 13.1314L6.69124 9.79808C6.72787 9.65155 6.80364 9.51773 6.91044 9.41093L14.8271 1.49427Z" fill="#EF4444"/>
</g>
<defs>
<clipPath id="clip0_1777_3701">
<rect width="20" height="20" fill="white"/>
</clipPath>
</defs>
</svg>
