<svg width="20" height="20" viewBox="0 0 20 20" fill="none" xmlns="http://www.w3.org/2000/svg">
<path fill-rule="evenodd" clip-rule="evenodd" d="M12.6772 2.92426C12.6772 2.47637 13.0403 2.11328 13.4882 2.11328H15.5156C17.3072 2.11328 18.7596 3.56563 18.7596 5.35718V15.0889C18.7596 16.8805 17.3072 18.3328 15.5156 18.3328H5.78394C3.99238 18.3328 2.54004 16.8805 2.54004 15.0889V13.8724C2.54004 13.4245 2.90313 13.0615 3.35101 13.0615C3.7989 13.0615 4.16199 13.4245 4.16199 13.8724V15.0889C4.16199 15.9847 4.88816 16.7108 5.78394 16.7108H15.5156C16.4114 16.7108 17.1376 15.9847 17.1376 15.0889V5.35718C17.1376 4.4614 16.4114 3.73523 15.5156 3.73523H13.4882C13.0403 3.73523 12.6772 3.37215 12.6772 2.92426Z" fill="#231F20"/>
<path fill-rule="evenodd" clip-rule="evenodd" d="M7.23545 1.99709C4.34238 1.99709 1.99709 4.34238 1.99709 7.23545C1.99709 10.1285 4.34238 12.4738 7.23545 12.4738C10.1285 12.4738 12.4738 10.1285 12.4738 7.23545C12.4738 4.34238 10.1285 1.99709 7.23545 1.99709ZM0.833008 7.23545C0.833008 3.69948 3.69948 0.833008 7.23545 0.833008C10.7714 0.833008 13.6379 3.69948 13.6379 7.23545C13.6379 10.7714 10.7714 13.6379 7.23545 13.6379C3.69948 13.6379 0.833008 10.7714 0.833008 7.23545ZM5.07776 5.07776C5.30506 4.85046 5.67359 4.85046 5.90089 5.07776L7.23545 6.41232L8.57 5.07776C8.7973 4.85046 9.16583 4.85046 9.39313 5.07776C9.62043 5.30506 9.62043 5.67359 9.39313 5.90089L8.05858 7.23545L9.39313 8.57C9.62043 8.7973 9.62043 9.16583 9.39313 9.39313C9.16583 9.62043 8.7973 9.62043 8.57 9.39313L7.23545 8.05858L5.90089 9.39313C5.67359 9.62043 5.30506 9.62043 5.07776 9.39313C4.85046 9.16583 4.85046 8.7973 5.07776 8.57L6.41232 7.23545L5.07776 5.90089C4.85046 5.67359 4.85046 5.30506 5.07776 5.07776Z" fill="#EF4444"/>
</svg>
