<svg width="20" height="20" viewBox="0 0 20 20" fill="none" xmlns="http://www.w3.org/2000/svg">
<g clip-path="url(#clip0_1777_1146)">
<path fill-rule="evenodd" clip-rule="evenodd" d="M11.8478 4.7622C10.766 4.44929 9.62253 4.41552 8.52414 4.66404C7.42576 4.91256 6.40823 5.43528 5.5665 6.18342C4.72477 6.93155 4.08628 7.88073 3.7106 8.94237C3.55706 9.37624 3.08088 9.6035 2.647 9.44997C2.21313 9.29643 1.98587 8.82025 2.1394 8.38637C2.609 7.05932 3.40712 5.87286 4.45928 4.93769C5.51144 4.00252 6.78335 3.34912 8.15633 3.03846C9.52932 2.72781 10.9586 2.77002 12.3109 3.16116C13.6588 3.55106 14.8864 4.27501 15.8799 5.26578L18.3333 7.57115V4.4977C18.3333 4.03747 18.7064 3.66437 19.1667 3.66437C19.6269 3.66437 20 4.03747 20 4.4977V9.4977C20 9.95794 19.6269 10.331 19.1667 10.331H14.1667C13.7064 10.331 13.3333 9.95794 13.3333 9.4977C13.3333 9.03747 13.7064 8.66437 14.1667 8.66437H17.0629L14.7294 6.47166C14.723 6.4657 14.7168 6.45964 14.7106 6.45348C13.9145 5.65697 12.9296 5.07511 11.8478 4.7622ZM0 12.831C0 12.3708 0.373096 11.9977 0.833333 11.9977H5.83333C6.29357 11.9977 6.66667 12.3708 6.66667 12.831C6.66667 13.2913 6.29357 13.6644 5.83333 13.6644H2.93713L5.27065 15.8571C5.27699 15.863 5.28325 15.8691 5.2894 15.8753C6.08551 16.6718 7.07042 17.2536 8.15222 17.5665C9.23403 17.8795 10.3775 17.9132 11.4759 17.6647C12.5742 17.4162 13.5918 16.8935 14.4335 16.1453C15.2752 15.3972 15.9137 14.448 16.2894 13.3864C16.4429 12.9525 16.9191 12.7252 17.353 12.8788C17.7869 13.0323 18.0141 13.5085 17.8606 13.9424C17.391 15.2694 16.5929 16.4559 15.5407 17.3911C14.4886 18.3262 13.2166 18.9796 11.8437 19.2903C10.4707 19.6009 9.04138 19.5587 7.68912 19.1676C6.34116 18.7777 5.11356 18.0537 4.12009 17.063L1.66667 14.7576V17.831C1.66667 18.2913 1.29357 18.6644 0.833333 18.6644C0.373096 18.6644 0 18.2913 0 17.831V12.831Z" fill="#231F20"/>
<path d="M18.3333 7.57133V4.49788C18.3333 4.03765 18.7064 3.66455 19.1667 3.66455C19.6269 3.66455 20 4.03765 20 4.49788V9.49788C20 9.95812 19.6269 10.3312 19.1667 10.3312H14.1667C13.7064 10.3312 13.3333 9.95812 13.3333 9.49788C13.3333 9.03765 13.7064 8.66455 14.1667 8.66455H17.0629H18.2447L18.3333 7.57133Z" fill="#EF4444"/>
<path d="M0 12.8312C0 12.371 0.373096 11.9979 0.833333 11.9979H5.83333C6.29357 11.9979 6.66667 12.371 6.66667 12.8312C6.66667 13.2915 6.29357 13.6645 5.83333 13.6645H2.93713H1.66667V14.7578V17.8312C1.66667 18.2915 1.29357 18.6646 0.833333 18.6646C0.373096 18.6646 0 18.2915 0 17.8312V12.8312Z" fill="#EF4444"/>
</g>
<defs>
<clipPath id="clip0_1777_1146">
<rect width="20" height="20" fill="white"/>
</clipPath>
</defs>
</svg>
