<svg width="20" height="20" viewBox="0 0 20 20" fill="none" xmlns="http://www.w3.org/2000/svg">
<g clip-path="url(#clip0_1777_3262)">
<path d="M7.37149 6.43132H13.0125M8.31167 6.43132C8.68206 6.43132 9.04883 6.50428 9.39103 6.64602C9.73323 6.78777 10.0442 6.99552 10.3061 7.25743C10.568 7.51934 10.7757 7.83027 10.9175 8.17247C11.0592 8.51467 11.1322 8.88144 11.1322 9.25184C11.1322 9.62223 11.0592 9.989 10.9175 10.3312C10.7757 10.6734 10.568 10.9843 10.3061 11.2462C10.0442 11.5081 9.73323 11.7159 9.39103 11.8577C9.04883 11.9994 8.68206 12.0723 8.31167 12.0723H7.37149L10.192 14.8929M7.37149 9.25184H13.0125M18.6535 10.192C18.6535 11.3032 18.4347 12.4035 18.0095 13.4301C17.5842 14.4567 16.9609 15.3895 16.1752 16.1752C15.3895 16.9609 14.4567 17.5842 13.4301 18.0095C12.4035 18.4347 11.3032 18.6535 10.192 18.6535C9.08082 18.6535 7.98052 18.4347 6.95392 18.0095C5.92732 17.5842 4.99452 16.9609 4.2088 16.1752C3.42307 15.3895 2.7998 14.4567 2.37456 13.4301C1.94933 12.4035 1.73047 11.3032 1.73047 10.192C1.73047 7.94787 2.62195 5.79564 4.2088 4.2088C5.79564 2.62195 7.94787 1.73047 10.192 1.73047C12.4361 1.73047 14.5884 2.62195 16.1752 4.2088C17.7621 5.79564 18.6535 7.94787 18.6535 10.192Z" stroke="#231F20" stroke-width="1.5" stroke-linecap="round" stroke-linejoin="round"/>
<mask id="mask0_1777_3262" style="mask-type:alpha" maskUnits="userSpaceOnUse" x="0" y="0" width="20" height="20">
<path d="M7.37149 6.43132H13.0125M8.31167 6.43132C8.68206 6.43132 9.04883 6.50428 9.39103 6.64602C9.73323 6.78777 10.0442 6.99552 10.3061 7.25743C10.568 7.51934 10.7757 7.83027 10.9175 8.17247C11.0592 8.51467 11.1322 8.88144 11.1322 9.25184C11.1322 9.62223 11.0592 9.989 10.9175 10.3312C10.7757 10.6734 10.568 10.9843 10.3061 11.2462C10.0442 11.5081 9.73323 11.7159 9.39103 11.8577C9.04883 11.9994 8.68206 12.0723 8.31167 12.0723H7.37149L10.192 14.8929M7.37149 9.25184H13.0125M18.6535 10.192C18.6535 11.3032 18.4347 12.4035 18.0095 13.4301C17.5842 14.4567 16.9609 15.3895 16.1752 16.1752C15.3895 16.9609 14.4567 17.5842 13.4301 18.0095C12.4035 18.4347 11.3032 18.6535 10.192 18.6535C9.08082 18.6535 7.98052 18.4347 6.95392 18.0095C5.92732 17.5842 4.99452 16.9609 4.2088 16.1752C3.42307 15.3895 2.7998 14.4567 2.37456 13.4301C1.94933 12.4035 1.73047 11.3032 1.73047 10.192C1.73047 7.94787 2.62195 5.79564 4.2088 4.2088C5.79564 2.62195 7.94787 1.73047 10.192 1.73047C12.4361 1.73047 14.5884 2.62195 16.1752 4.2088C17.7621 5.79564 18.6535 7.94787 18.6535 10.192Z" stroke="#231F20" stroke-width="1.5" stroke-linecap="round" stroke-linejoin="round"/>
</mask>
<g mask="url(#mask0_1777_3262)">
<circle cx="9.99979" cy="9.99955" r="6.15385" fill="#EF4444"/>
</g>
</g>
<defs>
<clipPath id="clip0_1777_3262">
<rect width="20" height="20" fill="white"/>
</clipPath>
</defs>
</svg>
