<svg xmlns="http://www.w3.org/2000/svg" xmlns:xlink="http://www.w3.org/1999/xlink" version="1.1" width="184" height="184" viewBox="0 0 184 184" xml:space="preserve">
<desc>Created with Fabric.js 3.5.0</desc>
<defs>
</defs>
<rect x="0" y="0" width="100%" height="100%" fill="#ffffff"/>
<g transform="matrix(0.9709 0.042 -0.0426 0.9855 92.0035 92.0034)" id="574399">
<ellipse style="stroke: none; stroke-width: 1; stroke-dasharray: none; stroke-linecap: butt; stroke-dashoffset: 0; stroke-linejoin: miter; stroke-miterlimit: 4; is-custom-font: none; font-file-url: none; fill: rgb(243,244,246); fill-rule: nonzero; opacity: 0.5;" vector-effect="non-scaling-stroke" cx="0" cy="0" rx="92.1498" ry="91.105"/>
</g>
<g transform="matrix(1 0 0 1 90 77)" id="579051">
<g style="" vector-effect="non-scaling-stroke">
		<g transform="matrix(1 0 0 1 -23.6 7.6231)">
<path style="stroke: rgb(35,31,32); stroke-width: 3.6722; stroke-dasharray: none; stroke-linecap: round; stroke-dashoffset: 0; stroke-linejoin: round; stroke-miterlimit: 10; is-custom-font: none; font-file-url: none; fill: none; fill-rule: nonzero; opacity: 1;" transform=" translate(-13.9, -45.1231)" d="M 13.9 51.0231 C 17.1585 51.0231 19.8 48.3816 19.8 45.1231 C 19.8 41.8647 17.1585 39.2231 13.9 39.2231 C 10.6415 39.2231 8 41.8647 8 45.1231 C 8 48.3816 10.6415 51.0231 13.9 51.0231 Z" stroke-linecap="round"/>
</g>
		<g transform="matrix(1 0 0 1 23.6003 7.6231)">
<path style="stroke: rgb(35,31,32); stroke-width: 3.6722; stroke-dasharray: none; stroke-linecap: round; stroke-dashoffset: 0; stroke-linejoin: round; stroke-miterlimit: 10; is-custom-font: none; font-file-url: none; fill: none; fill-rule: nonzero; opacity: 1;" transform=" translate(-61.1003, -45.1231)" d="M 61.1003 51.0231 C 64.3588 51.0231 67.0003 48.3816 67.0003 45.1231 C 67.0003 41.8647 64.3588 39.2231 61.1003 39.2231 C 57.8418 39.2231 55.2003 41.8647 55.2003 45.1231 C 55.2003 48.3816 57.8418 51.0231 61.1003 51.0231 Z" stroke-linecap="round"/>
</g>
		<g transform="matrix(1 0 0 1 0 31.2231)">
<path style="stroke: rgb(35,31,32); stroke-width: 3.6722; stroke-dasharray: none; stroke-linecap: round; stroke-dashoffset: 0; stroke-linejoin: round; stroke-miterlimit: 10; is-custom-font: none; font-file-url: none; fill: none; fill-rule: nonzero; opacity: 1;" transform=" translate(-37.5, -68.7231)" d="M 8 68.7231 H 67" stroke-linecap="round"/>
</g>
		<g transform="matrix(1 0 0 1 0 17.4566)">
<path style="stroke: rgb(35,31,32); stroke-width: 3.6722; stroke-dasharray: none; stroke-linecap: round; stroke-dashoffset: 0; stroke-linejoin: round; stroke-miterlimit: 10; is-custom-font: none; font-file-url: none; fill: none; fill-rule: nonzero; opacity: 1;" transform=" translate(-37.5, -54.9566)" d="M 37.5 41.1899 V 68.7232" stroke-linecap="round"/>
</g>
		<g transform="matrix(1 0 0 1 -23.6001 22.3729)">
<path style="stroke: rgb(35,31,32); stroke-width: 3.6722; stroke-dasharray: none; stroke-linecap: round; stroke-dashoffset: 0; stroke-linejoin: round; stroke-miterlimit: 10; is-custom-font: none; font-file-url: none; fill: none; fill-rule: nonzero; opacity: 1;" transform=" translate(-13.8999, -59.8729)" d="M 13.8999 51.0229 V 68.7229" stroke-linecap="round"/>
</g>
		<g transform="matrix(1 0 0 1 23.6001 22.3729)">
<path style="stroke: rgb(35,31,32); stroke-width: 3.6722; stroke-dasharray: none; stroke-linecap: round; stroke-dashoffset: 0; stroke-linejoin: round; stroke-miterlimit: 10; is-custom-font: none; font-file-url: none; fill: none; fill-rule: nonzero; opacity: 1;" transform=" translate(-61.1001, -59.8729)" d="M 61.1001 51.0229 V 68.7229" stroke-linecap="round"/>
</g>
		<g transform="matrix(1 0 0 1 5.9 19.4229)">
<path style="stroke: rgb(35,31,32); stroke-width: 3.6722; stroke-dasharray: none; stroke-linecap: round; stroke-dashoffset: 0; stroke-linejoin: round; stroke-miterlimit: 10; is-custom-font: none; font-file-url: none; fill: none; fill-rule: nonzero; opacity: 1;" transform=" translate(-43.4, -56.9229)" d="M 37.5 62.8229 C 37.5 56.3064 42.7834 51.0229 49.3 51.0229 C 49.3 57.5395 44.0166 62.8229 37.5 62.8229 Z" stroke-linecap="round"/>
</g>
		<g transform="matrix(1 0 0 1 -5.8997 19.4229)">
<path style="stroke: rgb(35,31,32); stroke-width: 3.6722; stroke-dasharray: none; stroke-linecap: round; stroke-dashoffset: 0; stroke-linejoin: round; stroke-miterlimit: 10; is-custom-font: none; font-file-url: none; fill: none; fill-rule: nonzero; opacity: 1;" transform=" translate(-31.6003, -56.9229)" d="M 37.5003 62.8229 C 37.5003 56.3064 32.2169 51.0229 25.7003 51.0229 C 25.7003 57.5395 30.9838 62.8229 37.5003 62.8229 Z" stroke-linecap="round"/>
</g>
		<g transform="matrix(1 0 0 1 -23.5999 23.3562)">
<path style="stroke: rgb(35,31,32); stroke-width: 3.6722; stroke-dasharray: none; stroke-linecap: round; stroke-dashoffset: 0; stroke-linejoin: round; stroke-miterlimit: 10; is-custom-font: none; font-file-url: none; fill: none; fill-rule: nonzero; opacity: 1;" transform=" translate(-13.9001, -60.8563)" d="M 9.9668 58.8896 L 13.9001 62.8229 L 17.8334 58.8896" stroke-linecap="round"/>
</g>
		<g transform="matrix(1 0 0 1 23.5998 23.3562)">
<path style="stroke: rgb(35,31,32); stroke-width: 3.6722; stroke-dasharray: none; stroke-linecap: round; stroke-dashoffset: 0; stroke-linejoin: round; stroke-miterlimit: 10; is-custom-font: none; font-file-url: none; fill: none; fill-rule: nonzero; opacity: 1;" transform=" translate(-61.0998, -60.8563)" d="M 57.1665 58.8896 L 61.0998 62.8229 L 65.0331 58.8896" stroke-linecap="round"/>
</g>
		<g transform="matrix(1 0 0 1 0.2443 -14.371)">
<path style="stroke: rgb(239,68,68); stroke-width: 3.6308; stroke-dasharray: none; stroke-linecap: round; stroke-dashoffset: 0; stroke-linejoin: round; stroke-miterlimit: 4; is-custom-font: none; font-file-url: none; fill: none; fill-rule: nonzero; opacity: 1;" transform=" translate(-37.7443, -23.129)" d="M 52.6456 29.3013 C 53.4561 27.3444 53.8733 25.2471 53.8733 23.129 C 53.8733 18.8513 52.174 14.7488 49.1492 11.7241 C 46.1245 8.6993 42.022 7 37.7443 7 C 33.4667 7 29.3642 8.6993 26.3394 11.7241 C 23.3146 14.7488 21.6153 18.8513 21.6153 23.129 C 21.6153 25.2471 22.0325 27.3444 22.8431 29.3013 C 23.6536 31.2582 24.8417 33.0362 26.3394 34.5339 C 27.8371 36.0316 29.6152 37.2197 31.572 38.0302 C 33.5289 38.8408 35.6262 39.258 37.7443 39.258 C 39.8624 39.258 41.9598 38.8408 43.9166 38.0302 C 45.8735 37.2197 47.6515 36.0316 49.1492 34.5339 C 50.647 33.0362 51.835 31.2582 52.6456 29.3013 Z" stroke-linecap="round"/>
</g>
		<g transform="matrix(1 0 0 1 0.7862 -14.7376)">
<circle style="stroke: none; stroke-width: 1; stroke-dasharray: none; stroke-linecap: butt; stroke-dashoffset: 0; stroke-linejoin: miter; stroke-miterlimit: 4; is-custom-font: none; font-file-url: none; fill: rgb(239,68,68); fill-rule: nonzero; opacity: 1;" cx="0" cy="0" r="11.7302"/>
</g>
</g>
</g>
</svg>