<svg xmlns="http://www.w3.org/2000/svg" xmlns:xlink="http://www.w3.org/1999/xlink" version="1.1" width="184" height="184" viewBox="0 0 184 184" xml:space="preserve">
<desc>Created with Fabric.js 3.5.0</desc>
<defs>
</defs>
<rect x="0" y="0" width="100%" height="100%" fill="#ffffff"/>
<g transform="matrix(0.9709 0.042 -0.0426 0.9855 92.0035 92.0034)" id="574399">
<ellipse style="stroke: none; stroke-width: 1; stroke-dasharray: none; stroke-linecap: butt; stroke-dashoffset: 0; stroke-linejoin: miter; stroke-miterlimit: 4; is-custom-font: none; font-file-url: none; fill: rgb(243,244,246); fill-rule: nonzero; opacity: 0.5;" vector-effect="non-scaling-stroke" cx="0" cy="0" rx="92.1498" ry="91.105"/>
</g>
<g transform="matrix(1 0 0 1 91 78.7614)" id="952439">
<g style="" vector-effect="non-scaling-stroke">
		<g transform="matrix(1 0 0 1 4.5 1.5)">
<path style="stroke: none; stroke-width: 1; stroke-dasharray: none; stroke-linecap: butt; stroke-dashoffset: 0; stroke-linejoin: miter; stroke-miterlimit: 4; is-custom-font: none; font-file-url: none; fill: rgb(35,31,32); fill-rule: evenodd; opacity: 1;" transform=" translate(-42, -39)" d="M 48.75 14.7 C 48.75 13.2088 49.9588 12 51.45 12 H 58.2 C 64.1647 12 69 16.8353 69 22.8 V 55.2 C 69 61.1647 64.1647 66 58.2 66 H 25.8 C 19.8353 66 15 61.1647 15 55.2 V 51.15 C 15 49.6588 16.2088 48.45 17.7 48.45 C 19.1912 48.45 20.4 49.6588 20.4 51.15 V 55.2 C 20.4 58.1823 22.8177 60.6 25.8 60.6 H 58.2 C 61.1823 60.6 63.6 58.1823 63.6 55.2 V 22.8 C 63.6 19.8177 61.1823 17.4 58.2 17.4 H 51.45 C 49.9588 17.4 48.75 16.1912 48.75 14.7 Z" stroke-linecap="round"/>
</g>
		<g transform="matrix(1 0 0 1 13.5 1.5)">
<path style="stroke: none; stroke-width: 1; stroke-dasharray: none; stroke-linecap: butt; stroke-dashoffset: 0; stroke-linejoin: miter; stroke-miterlimit: 4; is-custom-font: none; font-file-url: none; fill: rgb(35,31,32); fill-rule: evenodd; opacity: 1;" transform=" translate(-51, -39)" d="M 42 39 C 42 37.3431 43.1513 36 44.5714 36 H 57.4286 C 58.8487 36 60 37.3431 60 39 C 60 40.6569 58.8487 42 57.4286 42 H 44.5714 C 43.1513 42 42 40.6569 42 39 Z" stroke-linecap="round"/>
</g>
		<g transform="matrix(1 0 0 1 13.5 10.5)">
<path style="stroke: none; stroke-width: 1; stroke-dasharray: none; stroke-linecap: butt; stroke-dashoffset: 0; stroke-linejoin: miter; stroke-miterlimit: 4; is-custom-font: none; font-file-url: none; fill: rgb(35,31,32); fill-rule: evenodd; opacity: 1;" transform=" translate(-51, -48)" d="M 42 48 C 42 46.3431 43.3431 45 45 45 H 57 C 58.6569 45 60 46.3431 60 48 C 60 49.6569 58.6569 51 57 51 H 45 C 43.3431 51 42 49.6569 42 48 Z" stroke-linecap="round"/>
</g>
		<g transform="matrix(1 0 0 1 -13.5 -13.4999)">
<path style="stroke: rgb(239,68,68); stroke-width: 0.4167; stroke-dasharray: none; stroke-linecap: round; stroke-dashoffset: 0; stroke-linejoin: round; stroke-miterlimit: 4; is-custom-font: none; font-file-url: none; fill: rgb(239,68,68); fill-rule: evenodd; opacity: 1;" transform=" translate(-24, -24)" d="M 29.994 10.5477 C 27.0931 9.25515 23.8521 8.93493 20.7544 9.63483 C 17.6566 10.3347 14.8681 12.0172 12.8047 14.4314 C 10.7413 16.8456 9.51361 19.8621 9.30465 23.031 C 9.09569 26.1999 9.9167 29.3515 11.6452 32.0157 C 13.3738 34.68 15.9172 36.714 18.8962 37.8146 C 21.8752 38.9152 25.1302 39.0233 28.1757 38.1229 C 31.2212 37.2224 33.894 35.3616 35.7956 32.818 C 37.6971 30.2744 38.7255 27.1842 38.7273 24.0084 V 22.5039 C 38.7273 21.6002 39.4599 20.8675 40.3636 20.8675 C 41.2674 20.8675 42 21.6002 42 22.5039 V 24.0094 C 41.9978 27.8909 40.7409 31.6687 38.4168 34.7776 C 36.0927 37.8864 32.8259 40.1608 29.1036 41.2613 C 25.3814 42.3619 21.4031 42.2297 17.762 40.8845 C 14.121 39.5394 11.0124 37.0533 8.89973 33.797 C 6.78708 30.5408 5.78362 26.6888 6.03902 22.8157 C 6.29441 18.9425 7.79497 15.2557 10.3169 12.305 C 12.8388 9.35438 16.247 7.29799 20.0331 6.44257 C 23.8193 5.58714 27.7805 5.97851 31.326 7.5583 C 32.1515 7.92612 32.5225 8.8935 32.1547 9.719 C 31.7869 10.5445 30.8195 10.9155 29.994 10.5477 Z M 41.5201 9.7608 C 42.1595 10.3995 42.16 11.4356 41.5213 12.075 L 25.1577 28.455 C 24.8508 28.7621 24.4345 28.9347 24.0004 28.9348 C 23.5663 28.9349 23.1499 28.7625 22.8429 28.4555 L 17.9338 23.5464 C 17.2948 22.9074 17.2948 21.8713 17.9338 21.2323 C 18.5729 20.5932 19.609 20.5932 20.248 21.2323 L 23.9994 24.9837 L 39.206 9.76195 C 39.8447 9.12259 40.8808 9.12208 41.5201 9.7608 Z" stroke-linecap="round"/>
</g>
</g>
</g>
</svg>